<?xml version="1.0" encoding="utf-8"?>
<!-- Generator: Adobe Illustrator 25.0.0, SVG Export Plug-In . SVG Version: 6.00 Build 0)  -->
<svg version="1.1" id="Layer_1" xmlns="http://www.w3.org/2000/svg" xmlns:xlink="http://www.w3.org/1999/xlink" x="0px" y="0px"
	 viewBox="0 0 165 360" style="enable-background:new 0 0 165 360;" xml:space="preserve">
<style type="text/css">
	.st0{fill:#DA9635;}
	.st1{opacity:0.4;fill:url(#SVGID_1_);}
</style>
<g>
	<polygon transform="matrix(0.1005 0 0 0.0996 0.8927 1.9019)" class="st0" points="91.9,125.52 137.69,176.58 91.9,226.11 	"/>
	<linearGradient id="SVGID_1_" gradientUnits="userSpaceOnUse" x1="91.8891" y1="176.5832" x2="137.6763" y2="176.5832">
		<stop  offset="0" style="stop-color:#CCE0F4"/>
		<stop  offset="0.0785" style="stop-color:#C3DBF2"/>
		<stop  offset="0.2091" style="stop-color:#AACDED"/>
		<stop  offset="0.3756" style="stop-color:#7EB7E4"/>
		<stop  offset="0.5674" style="stop-color:#1B9BD7"/>
		<stop  offset="0.8652" style="stop-color:#0B75BB"/>
		<stop  offset="0.9944" style="stop-color:#005C98"/>
	</linearGradient>
	<polygon class="st1" points="91.89,126.29 137.68,177.35 91.89,226.88 	"/>
	<path d="M0.05,179.92c0-57.91,0-115.82,0-173.73c0-1.14-0.03-2.29,0.08-3.42C0.28,1.11,0.91,0.5,2.61,0.33
		c0.81-0.08,1.63-0.06,2.44-0.06c9.22,0,18.44,0,27.65,0c42.25,0,84.51,0,126.76,0c1.06,0,2.13-0.03,3.18,0.09
		c1.43,0.16,1.98,0.76,2.19,2.19c0.07,0.48,0.08,0.97,0.09,1.46c0.02,0.9,0.01,1.79,0.01,2.69c0,115.74,0,231.48,0,347.22
		c0,1.22,0.03,2.45-0.08,3.66c-0.13,1.45-0.74,1.99-2.2,2.12c-0.65,0.06-1.3,0.04-1.96,0.04c-52.13,0-104.25,0-156.38,0
		c-0.65,0-1.31,0.02-1.96-0.04c-1.38-0.12-1.9-0.58-2.15-1.9c-0.1-0.56-0.14-1.13-0.16-1.7c-0.03-0.9-0.01-1.79-0.01-2.69
		C0.05,295.58,0.05,237.75,0.05,179.92z M28.56,293.91c0.97-0.19,1.25-0.73,1.62-1.14c0.82-0.9,1.61-1.84,2.43-2.74
		c5.08-5.62,10.17-11.24,15.24-16.86c7.1-7.86,14.18-15.74,21.27-23.6c2.68-2.97,2.19-2.59,2.25-5.86c0-0.24,0-0.49,0-0.73
		c0-44.79,0-89.57,0-134.36c0-0.57-0.04-1.14,0.01-1.71c0.13-1.47-0.37-2.62-1.39-3.73c-5.05-5.54-10.02-11.15-15.04-16.72
		c-8.4-9.32-16.82-18.62-25.23-27.92c-0.25-0.28-0.42-0.7-0.98-0.68c-0.06,0.2-0.18,0.42-0.18,0.63
		C28.56,136.9,28.56,215.31,28.56,293.91z M10.33,183.64c0,56.11,0,112.23,0,168.34c0,0.9-0.02,1.79,0.02,2.69
		c0.07,1.44,0.36,1.72,1.72,1.81c0.16,0.01,0.33,0.01,0.49,0.01c3.34,0,6.69,0,10.03,0c0.41,0,0.82-0.01,1.22-0.06
		c0.65-0.08,1.06-0.48,1.1-1.12c0.07-1.14,0.1-2.28,0.1-3.41c0-112.15,0-224.3,0-336.44c0-0.65,0-1.3,0-1.95
		c0-0.41,0-0.82-0.04-1.22c-0.11-1.09-0.47-1.46-1.49-1.57c-0.32-0.04-0.65-0.04-0.98-0.04c-3.26,0-6.53,0-9.79,0
		c-0.41,0-0.82,0.02-1.22,0.08c-0.65,0.09-1.04,0.49-1.08,1.13c-0.06,1.06-0.09,2.11-0.09,3.17
		C10.33,71.25,10.33,127.45,10.33,183.64z M154.67,183.66c0-56.21,0-112.42,0-168.63c0-0.98,0.01-1.96-0.05-2.93
		c-0.07-0.94-0.45-1.29-1.38-1.39c-0.49-0.05-0.98-0.04-1.47-0.04c-3.1,0-6.2,0-9.3,0c-0.41,0-0.82,0-1.22,0.03
		c-1.22,0.1-1.51,0.4-1.58,1.69c-0.04,0.81-0.02,1.63-0.02,2.44c0,53.36,0,106.71,0,160.07c0,0.81,0,1.63,0.02,2.44
		c0.01,0.32,0.05,0.66,0.15,0.96c0.07,0.21,0.24,0.45,0.44,0.55c0.76,0.39,1.59,0.22,2.4,0.2c0.64-0.01,0.99-0.42,1.39-0.86
		c1.19-1.34,2.68-1.75,4.41-1.19c1.6,0.51,1.91,0.9,1.99,2.62c0.02,0.33,0.01,0.65,0.01,0.98c0,5.78,0,11.57,0,17.35
		c0,0.57-0.01,1.14-0.06,1.71c-0.07,0.81-0.51,1.37-1.26,1.65c-0.53,0.2-1.09,0.44-1.64,0.45c-1.82,0.03-3.85-0.55-3.65-3.16
		c0.04-0.57,0-1.14,0-1.71c0-3.18,0-6.35,0-9.53c0-0.65,0-1.31-0.08-1.95c-0.11-0.87-0.58-1.09-2.12-1.09
		c-1.35,0-1.82,0.23-1.91,1.03c-0.09,0.89-0.09,1.79-0.09,2.68c0,54.9,0,109.81,0,164.71c0,0.49-0.01,0.98,0,1.47
		c0.05,2.08,0.2,2.26,2.22,2.28c3.51,0.03,7.02,0.01,10.52,0.01c0.33,0,0.65,0,0.98-0.04c0.8-0.09,1.18-0.42,1.24-1.24
		c0.07-0.97,0.06-1.95,0.06-2.93C154.67,296.07,154.67,239.86,154.67,183.66z M136.07,86.48c0-18.25,0-36.49,0-54.74
		c0-2.81-0.07-2.87-2.89-2.87c-12.24-0.01-24.47,0-36.71,0c-0.33,0-0.65-0.01-0.98,0.01c-1.63,0.08-1.92,0.36-2,2.08
		c-0.03,0.57-0.01,1.14-0.01,1.71c0,20.53,0,41.05,0,61.58c0,0.57,0.03,1.14,0,1.71c-0.04,1.13,0.39,2.02,1.15,2.85
		c3.54,3.83,7.05,7.69,10.57,11.54c4.07,4.45,8.16,8.88,12.23,13.33c5.72,6.26,11.42,12.53,17.13,18.79
		c0.22,0.24,0.44,0.48,0.7,0.68c0.11,0.09,0.31,0.15,0.43,0.11c0.13-0.04,0.29-0.21,0.3-0.33c0.05-0.81,0.08-1.63,0.08-2.44
		C136.07,122.49,136.07,104.48,136.07,86.48z M136.07,265.28c0-17.76,0-35.51,0-53.27c0-0.73,0.02-1.47-0.02-2.2
		c-0.02-0.38,0.11-0.92-0.42-1.01c-0.24-0.04-0.58,0.23-0.8,0.44c-0.47,0.45-0.91,0.94-1.35,1.42c-5.65,6.2-11.29,12.42-16.95,18.62
		c-7.09,7.76-14.16,15.54-21.32,23.24c-1.27,1.36-1.78,2.76-1.77,4.59c0.04,20.85,0.02,41.7,0.03,62.55c0,3.09,0.07,3.15,3.14,3.16
		c12.15,0.01,24.31,0,36.46,0c0.49,0,0.98,0.01,1.47-0.03c1.07-0.09,1.4-0.42,1.48-1.54c0.06-0.81,0.04-1.63,0.04-2.44
		C136.07,300.96,136.07,283.12,136.07,265.28z M28.55,319.59c0.15,0.05,0.3,0.11,0.45,0.16c3.59-3.89,7.19-7.76,10.76-11.66
		c6.27-6.85,12.53-13.72,18.79-20.57c3.96-4.33,7.94-8.64,11.89-12.97c6.16-6.74,12.3-13.48,18.46-20.22
		c4.24-4.63,8.5-9.23,12.73-13.86c5.88-6.44,11.74-12.89,17.62-19.33c5.11-5.6,10.21-11.2,15.36-16.76
		c1.01-1.09,1.48-2.22,1.46-3.71c-0.06-4.56-0.02-9.12-0.03-13.68c0-0.57-0.04-1.14-0.1-1.7c-0.05-0.43-0.31-0.8-0.73-0.89
		c-1.14-0.23-2.28-0.3-3.21,0.63c-0.46,0.46-0.92,0.93-1.35,1.41c-3.45,3.8-6.89,7.61-10.33,11.42c-3.22,3.57-6.45,7.13-9.67,10.7
		c-5.34,5.93-10.68,11.88-16.02,17.81c-3.49,3.87-7,7.73-10.49,11.61c-5.4,5.99-10.79,11.99-16.19,17.98
		c-3.44,3.81-6.88,7.62-10.32,11.43c-5.18,5.75-10.36,11.51-15.54,17.26c-4.03,4.48-8.02,9-12.12,13.43
		c-1.09,1.18-1.48,2.4-1.46,3.95c0.06,5.29,0.02,10.59,0.02,15.88C28.55,318.47,28.55,319.03,28.55,319.59z M28.67,31.81
		c-0.06,1.16-0.11,1.72-0.11,2.27c-0.01,5.21,0.05,10.43-0.03,15.64c-0.02,1.67,0.5,2.96,1.62,4.16c3.54,3.83,7.02,7.72,10.52,11.59
		c3.44,3.81,6.89,7.62,10.32,11.43c5.24,5.81,10.47,11.63,15.71,17.44c3.6,4,7.22,7.98,10.82,11.97
		c5.18,5.75,10.35,11.51,15.54,17.26c3.6,4,7.22,7.98,10.82,11.97c5.46,6.05,10.91,12.11,16.36,18.16
		c3.65,4.06,7.28,8.14,10.94,12.19c1.42,1.57,2.88,3.1,4.33,4.64c0.04,0.04,0.15,0.02,0.23,0.03c0.44-0.26,0.33-0.7,0.33-1.08
		c0.01-6.19-0.01-12.38,0.02-18.57c0.01-1.22-0.39-2.19-1.22-3.07c-1.9-2.02-3.76-4.08-5.62-6.12
		c-6.38-6.98-12.75-13.96-19.13-20.94c-3.85-4.21-7.71-8.41-11.56-12.62c-6.32-6.92-12.64-13.84-18.96-20.76
		c-4.13-4.51-8.28-8.99-12.4-13.51c-7.53-8.24-15.04-16.51-22.57-24.75c-4.45-4.87-8.94-9.72-13.41-14.58
		C30.48,33.82,29.78,33.04,28.67,31.81z M93.47,175.8c0,14.17,0,28.35,0,42.52c0,0.73-0.01,1.47,0.02,2.2
		c0.02,0.38-0.06,0.88,0.46,1.01c0.34,0.08,0.6-0.2,0.82-0.44c2.08-2.29,4.16-4.59,6.24-6.89c5.4-5.99,10.8-11.99,16.2-17.98
		c3.71-4.12,7.4-8.25,11.11-12.37c0.66-0.73,1.26-1.48,1.49-2.48c0.2-0.84,0.73-1.5,1.57-1.74c1.02-0.29,1.63-1.03,2.3-1.74
		c1.93-2.04,2.01-1.94,0.04-4.1c-3.79-4.16-7.56-8.32-11.33-12.5c-5.51-6.11-11.02-12.23-16.53-18.35c-3.33-3.69-6.65-7.39-10-11.07
		c-0.59-0.65-0.97-1.52-1.9-1.82c-0.88,0.78-0.47,1.81-0.47,2.72C93.46,147.13,93.47,161.47,93.47,175.8z M74.95,175.71
		c0,21.18,0,42.35,0,63.53c0,0.81,0.03,1.63,0.08,2.44c0.02,0.35,0.47,0.56,0.72,0.35c0.31-0.26,0.62-0.53,0.89-0.83
		c3.93-4.35,7.83-8.74,11.81-13.05c1.14-1.24,1.53-2.55,1.52-4.19c-0.06-7.82-0.02-15.64-0.02-23.46c0-24.19-0.01-48.38,0.03-72.57
		c0-1.82-0.45-3.22-1.73-4.58c-3.74-3.97-7.32-8.1-10.97-12.15c-0.44-0.48-0.89-0.95-1.35-1.42c-0.18-0.18-0.43-0.33-0.64-0.16
		c-0.16,0.13-0.28,0.4-0.29,0.61c-0.04,0.81-0.04,1.63-0.04,2.44C74.95,133.68,74.95,154.69,74.95,175.71z M82.51,10.67
		c-16.72,0-33.44,0-50.15,0c-0.82,0-1.63-0.01-2.44,0.05c-0.93,0.07-1.24,0.44-1.33,1.41c-0.03,0.32-0.03,0.65-0.03,0.98
		c0,3.34,0,6.68,0,10.02c0,0.49,0.01,0.98,0.08,1.46c0.07,0.54,0.42,0.9,0.96,0.95c0.73,0.07,1.46,0.08,2.2,0.08
		c33.68,0,67.36,0,101.04,0c0.65,0,1.31,0,1.95-0.06c0.79-0.08,1.13-0.44,1.23-1.26c0.05-0.4,0.05-0.81,0.05-1.22
		c0-3.26,0.01-6.51,0-9.77c0-0.49-0.03-0.98-0.09-1.46c-0.08-0.64-0.47-1.05-1.12-1.09c-0.89-0.06-1.79-0.08-2.69-0.08
		C115.62,10.66,99.06,10.67,82.51,10.67z M82.18,339.87c16.72,0,33.44,0,50.16,0c0.82,0,1.63,0.01,2.44-0.05
		c0.79-0.06,1.13-0.43,1.23-1.25c0.04-0.32,0.05-0.65,0.05-0.98c0-3.09,0.01-6.19,0-9.28c0-0.41-0.03-0.81-0.1-1.21
		c-0.09-0.53-0.44-0.91-0.97-0.95c-0.89-0.07-1.79-0.08-2.69-0.08c-20.23,0-40.45,0-60.68,0c-13.21,0-26.42,0-39.64,0
		c-0.73,0-1.47-0.01-2.2,0.05c-0.8,0.06-1.12,0.43-1.21,1.26c-0.03,0.32-0.03,0.65-0.03,0.98c0,3.09,0,6.19,0,9.28
		c0,0.41,0.01,0.82,0.07,1.22c0.08,0.54,0.41,0.91,0.95,0.95c0.81,0.07,1.63,0.07,2.44,0.07C48.74,339.87,65.46,339.87,82.18,339.87
		z M82.26,356.49c16.64,0,33.29,0,49.93,0c0.82,0,1.63,0.02,2.45-0.03c0.95-0.06,1.28-0.41,1.39-1.37c0.04-0.32,0.04-0.65,0.04-0.98
		c0-2.85,0-5.7,0-8.55c0-0.41-0.01-0.82-0.07-1.22c-0.11-0.79-0.45-1.12-1.3-1.19c-0.73-0.06-1.47-0.05-2.2-0.05
		c-33.45,0-66.9,0-100.36,0c-0.65,0-1.31-0.02-1.96,0.02c-1.26,0.07-1.59,0.36-1.61,1.63c-0.04,2.85-0.01,5.7-0.03,8.55
		c-0.01,3.24-0.03,3.18,3.28,3.17C48.64,356.49,65.45,356.49,82.26,356.49z M161.42,180.18c0-57.42,0-114.84,0-172.26
		c0-0.9,0.02-1.79-0.03-2.69c-0.06-0.97-0.44-1.32-1.36-1.36c-1.21-0.06-1.67,0.31-1.75,1.48c-0.05,0.65-0.03,1.3-0.03,1.95
		c0,115.25,0,230.5,0,345.74c0,0.65-0.01,1.3,0.03,1.95c0.08,1.18,0.51,1.52,1.75,1.47c0.95-0.04,1.31-0.36,1.36-1.34
		c0.05-0.97,0.03-1.95,0.03-2.93C161.42,294.86,161.42,237.52,161.42,180.18z M3.59,180.03c0,57.26,0,114.51,0,171.77
		c0,0.73,0,1.47,0,2.2c0,0.41,0,0.82,0.03,1.22c0.09,0.93,0.45,1.23,1.45,1.25c1.21,0.02,1.59-0.31,1.66-1.56
		c0.04-0.65,0.02-1.3,0.02-1.95c0-115.17,0-230.33,0-345.5c0-0.65,0.02-1.3-0.02-1.95c-0.08-1.37-0.7-1.83-2.09-1.6
		C4.1,3.99,3.71,4.3,3.67,4.84C3.59,5.81,3.59,6.79,3.59,7.77C3.59,65.19,3.59,122.61,3.59,180.03z M71.38,51.19
		c0-6.19,0-12.38,0-18.57c0-0.57,0.01-1.14-0.01-1.71c-0.06-1.75-0.28-1.97-1.98-2.04c-0.41-0.02-0.82-0.01-1.22-0.01
		c-11.42,0-22.84,0-34.25,0c-0.73,0-1.46,0.04-2.19,0.12c-0.24,0.03-0.42,0.3-0.29,0.56c0.14,0.29,0.34,0.55,0.55,0.79
		c5.55,6.07,11.12,12.13,16.67,18.2c4.29,4.69,8.56,9.39,12.85,14.08c2.69,2.95,5.41,5.88,8.12,8.81c0.33,0.36,0.68,0.7,1.07,0.99
		c0.22,0.17,0.53,0.03,0.56-0.24c0.08-0.72,0.11-1.46,0.11-2.19C71.39,63.73,71.38,57.46,71.38,51.19z M71.38,279.03
		c-0.51,0.29-0.68,0.34-0.78,0.45c-3.26,3.53-6.52,7.05-9.77,10.59c-6.49,7.08-12.97,14.18-19.44,21.27
		c-3.13,3.43-6.25,6.86-9.37,10.29c-0.25,0.28-0.62,0.57-0.28,1.06c0.22,0.03,0.46,0.1,0.7,0.1c12.22,0.01,24.45,0.01,36.67,0.01
		c0.41,0,0.82-0.02,1.22-0.08c0.54-0.08,0.91-0.4,0.97-0.94c0.08-0.73,0.09-1.46,0.09-2.19c0.01-12.69,0-25.39,0-38.08
		C71.38,280.79,71.38,280.06,71.38,279.03z M89.94,92.95c0-0.73,0-1.3,0-1.86c0-19.78,0-39.56,0-59.34c0-0.57,0-1.14-0.05-1.71
		c-0.07-0.69-0.41-1.04-1.07-1.12c-0.57-0.06-1.14-0.06-1.71-0.06c-2.85-0.01-5.71,0-8.56,0c-3.65-0.01-3.6-0.14-3.6,3.64
		c0.01,13.68-0.01,27.35,0.01,41.03c0,4.33-0.34,3.28,2.5,6.49c3.56,4.03,7.23,7.95,10.87,11.91
		C88.69,92.33,88.97,92.87,89.94,92.95z M89.6,258.83c-0.79,0.79-1.44,1.4-2.03,2.04c-1.99,2.15-3.97,4.32-5.95,6.48
		c-1.7,1.86-3.38,3.75-5.11,5.59c-1.05,1.12-1.58,2.35-1.58,3.94c0.04,14.41,0.02,28.81,0.03,43.22c0,0.57,0.03,1.14,0.12,1.7
		c0.08,0.54,0.45,0.88,0.99,0.93c0.65,0.07,1.3,0.08,1.95,0.08c2.93,0.01,5.87,0.01,8.8,0c3.12-0.01,3.13-0.01,3.13-3.09
		c0-19.45,0-38.9,0-58.35C89.93,260.65,90.07,259.91,89.6,258.83z M82.75,3.82c-22.84,0-45.67,0-68.51,0c-0.9,0-1.8,0-2.69,0.08
		c-0.83,0.08-1.18,0.59-1.18,1.55c0,0.96,0.35,1.49,1.17,1.57c0.89,0.09,1.79,0.09,2.69,0.09c14.93,0,29.85,0,44.78,0
		c30.5,0,61.01,0,91.51,0c0.98,0,1.96,0,2.93-0.09c0.83-0.07,1.18-0.59,1.18-1.56c0-0.96-0.34-1.48-1.17-1.56
		c-0.89-0.08-1.79-0.08-2.69-0.08C128.1,3.82,105.42,3.82,82.75,3.82z"/>
</g>
</svg>
