<?xml version="1.0" encoding="utf-8"?>
<!-- Generator: Adobe Illustrator 25.0.0, SVG Export Plug-In . SVG Version: 6.00 Build 0)  -->
<svg version="1.1" id="Layer_1" xmlns="http://www.w3.org/2000/svg" xmlns:xlink="http://www.w3.org/1999/xlink" x="0px" y="0px"
	 viewBox="0 0 165 360" style="enable-background:new 0 0 165 360;" xml:space="preserve">
<style type="text/css">
	.st0{fill:#020203;}
</style>
<g>
	<path class="st0" d="M165,5.36c0-0.77,0-1.55,0-2.32c0-0.35-0.01-0.71-0.04-1.05c-0.11-1.12-0.77-1.82-1.89-1.92
		C162.37,0,161.66,0,160.96,0C108.73,0,56.5,0,4.28,0C3.72,0,3.15-0.01,2.58,0.02c-1.75,0.07-2.43,0.7-2.54,2.43
		C-0.02,3.3,0,4.15,0,4.99c0,116.68,0,233.35,0,350.03c0,0.63-0.01,1.27,0.01,1.9c0.02,0.49,0.07,0.98,0.16,1.47
		c0.18,0.96,0.78,1.51,1.73,1.56c0.91,0.05,1.83,0.04,2.75,0.04c51.94,0,103.89,0,155.83,0c0.7,0,1.41,0,2.11-0.01
		c0.28,0,0.56-0.02,0.84-0.06c0.69-0.11,1.15-0.52,1.36-1.17c0.11-0.33,0.16-0.69,0.17-1.03c0.03-0.92,0.02-1.83,0.02-2.75
		c0-58.34,0-116.68,0-175.02C165,121.76,165,63.56,165,5.36z M7.01,11.92c0,113.65,0,227.3,0,340.95c0,0.92,0,1.83-0.03,2.75
		c-0.03,0.77-0.41,1.1-1.23,1.13c-0.21,0.01-0.42,0.01-0.63,0.01c-1.32-0.01-1.59-0.27-1.62-1.61c-0.02-0.77-0.01-1.55-0.01-2.32
		c0-57.57,0-115.13,0-172.69s0-115.13,0-172.69c0-0.87,0.01-1.75,0.03-2.62L7.1,8.4C7.05,8.71,7.02,9.05,7.02,9.38
		C7,10.23,7.01,11.07,7.01,11.92z M25.31,352.64c0,0.85,0.01,1.69-0.02,2.54c-0.04,1.28-0.33,1.54-1.69,1.57
		c-0.21,0.01-0.42,0.01-0.63,0.01c-3.45,0-6.9,0-10.36,0c-0.49,0-0.98-0.03-1.48-0.06c-0.4-0.03-0.76-0.43-0.8-0.86
		c-0.03-0.28-0.05-0.56-0.05-0.84c-0.01-0.77-0.01-1.55-0.01-2.32c0-56.43,0-112.84,0-169.27s0-112.84,0-169.27
		c0-0.85,0-1.69,0.02-2.53c0.03-0.89,0.39-1.21,1.34-1.26c0.28-0.01,0.56-0.02,0.84-0.02c3.52,0,7.04,0,10.57,0
		c0.35,0,0.7,0.01,1.06,0.03c0.75,0.05,1.11,0.44,1.17,1.23c0.02,0.35,0.03,0.7,0.03,1.06c0.01,0.63,0,1.27,0,1.9
		C25.31,127.23,25.31,239.94,25.31,352.64z M28.83,234.88c0.04-1.16,0.34-1.43,1.57-1.47c0.35-0.01,0.7-0.01,1.06-0.01
		c0.35,0,0.7,0,1.06,0c33.34,0,66.67,0,100.01,0c0.77,0,1.55,0,2.32,0.03c0.78,0.03,1.19,0.42,1.26,1.14
		c0.03,0.28,0.04,0.56,0.05,0.84c0.01,0.56,0.01,1.13,0.01,1.69c0,27.37,0,54.74,0,82.11c0,0.77,0,1.55-0.04,2.32
		c-0.04,0.91-0.43,1.31-1.28,1.35c-0.7,0.03-1.41,0.03-2.11,0.03c-16.77,0-33.55,0-50.32,0c-16.7,0-33.41,0-50.11,0
		c-0.77,0-1.55,0-2.32-0.04c-0.68-0.03-1.06-0.4-1.11-1.03c-0.03-0.28-0.04-0.56-0.05-0.84c-0.01-0.56-0.01-1.13-0.01-1.69
		c0-27.44,0-54.88,0-82.33C28.82,236.29,28.81,235.59,28.83,234.88z M28.82,227.58c0-3.53,0-7.05,0-10.58
		c0-0.42,0.03-0.84,0.07-1.26c0.04-0.43,0.41-0.81,0.81-0.85c0.28-0.03,0.56-0.05,0.84-0.06c0.63-0.01,1.27-0.01,1.9-0.01
		c16.69,0,33.38,0,50.08,0c16.76,0,33.53,0,50.29,0c0.77,0,1.55,0.02,2.32,0.06c0.51,0.03,0.91,0.44,0.96,0.96
		c0.04,0.42,0.07,0.84,0.07,1.26c0.01,3.46,0.01,6.91,0,10.37c0,0.49-0.05,0.98-0.11,1.47c-0.05,0.4-0.44,0.8-0.82,0.87
		c-0.28,0.05-0.56,0.1-0.84,0.11c-0.7,0.02-1.41,0.02-2.11,0.02c-33.24,0-66.49,0-99.73,0c-0.91,0-1.83-0.04-2.74-0.1
		c-0.52-0.03-0.88-0.45-0.93-0.99C28.84,228.42,28.82,228,28.82,227.58z M136.17,353.63c0,0.77-0.06,1.54-0.12,2.31
		c-0.02,0.31-0.41,0.67-0.7,0.71c-0.28,0.04-0.56,0.09-0.84,0.09c-0.7,0.02-1.41,0.01-2.11,0.01c-16.7,0-33.39,0-50.08,0
		s-33.39,0-50.08,0c-0.77,0-1.55-0.01-2.32-0.04c-0.64-0.03-1-0.42-1.05-1.09c-0.03-0.42-0.04-0.84-0.04-1.27
		c0-8.46,0-16.93,0-25.38c0-0.56,0.03-1.13,0.11-1.68c0.05-0.37,0.32-0.63,0.68-0.73c0.27-0.08,0.55-0.12,0.83-0.12
		c0.63-0.02,1.27-0.02,1.9-0.02c33.39,0,66.78,0,100.17,0c0.77,0,1.55,0,2.32,0.05c0.84,0.05,1.24,0.48,1.3,1.36
		c0.03,0.49,0.04,0.98,0.04,1.48c0.01,1.27,0,2.53,0,3.81C136.18,339.95,136.18,346.79,136.17,353.63z M136.17,208.68
		c0,0.7-0.07,1.4-0.13,2.1c-0.03,0.29-0.43,0.65-0.72,0.7c-0.21,0.03-0.42,0.07-0.63,0.08c-0.63,0.01-1.27,0.02-1.9,0.02
		c-33.55,0-67.09,0-100.65,0c-0.84,0-1.69-0.04-2.53-0.09c-0.29-0.02-0.66-0.42-0.7-0.71c-0.04-0.28-0.08-0.56-0.08-0.84
		c-0.01-0.77-0.01-1.55-0.01-2.32c0-29.2,0-58.41,0-87.61c0-29.34,0-58.69,0-88.03c0-0.84,0.04-1.69,0.09-2.53
		c0.02-0.3,0.39-0.67,0.69-0.72c0.21-0.04,0.42-0.08,0.62-0.08c0.63-0.01,1.27-0.02,1.9-0.02c33.55,0,67.09,0,100.65,0
		c0.77,0,1.55,0.01,2.32,0.05c0.53,0.03,0.93,0.42,1,0.92c0.04,0.28,0.07,0.56,0.07,0.84c0.01,0.56,0.01,1.13,0.01,1.69
		c0,47.61,0,95.23,0,142.85c0,0.63,0,1.27-0.02,1.9c-0.01,0.28-0.05,0.56-0.1,0.84c-0.06,0.39-0.46,0.77-0.88,0.79
		c-0.84,0.04-1.69,0.06-2.53,0.06c-0.72,0-1.39,0.15-2.05,0.44c-1.11,0.49-1.9,1.89-1.69,3.11c0.22,1.27,0.84,2.21,2.14,2.63
		c0.68,0.22,1.36,0.36,2.07,0.37c0.7,0.01,1.41,0.04,2.11,0.09c0.4,0.03,0.8,0.43,0.84,0.83c0.06,0.63,0.1,1.26,0.11,1.89
		c0.01,2.68,0,5.36,0,8.04C136.18,200.21,136.18,204.44,136.17,208.68z M28.82,23.19c-0.01-3.6-0.01-7.19,0-10.8
		c0.01-1.88,0.2-2.06,2.04-2.09c0.63-0.01,1.27,0,1.9,0c16.63,0,33.26,0,49.9,0c16.7,0,33.41,0,50.11,0c0.77,0,1.55,0.02,2.32,0.07
		c0.53,0.03,0.93,0.42,0.99,0.93c0.05,0.42,0.09,0.84,0.09,1.26c0.01,3.53,0.01,7.05,0,10.58c0,0.42-0.04,0.84-0.1,1.26
		c-0.05,0.42-0.43,0.8-0.83,0.85c-0.28,0.03-0.56,0.06-0.84,0.07c-0.49,0.01-0.99,0.01-1.48,0.01c-33.69,0-67.37,0-101.07,0
		c-0.7,0-1.41-0.03-2.11-0.07c-0.42-0.02-0.81-0.41-0.85-0.81C28.86,24.04,28.82,23.62,28.82,23.19z M154.69,352.87
		c0,0.92,0,1.83-0.04,2.75c-0.03,0.68-0.4,1.06-1.04,1.1c-0.42,0.03-0.84,0.04-1.27,0.04c-3.45,0-6.9,0-10.36,0
		c-0.14,0-0.28,0-0.42,0c-1.71-0.03-1.86-0.2-1.89-2c-0.01-0.42,0-0.85,0-1.27c0-55.02,0-110.06,0-165.08
		c0-0.77,0.02-1.55,0.06-2.32c0.02-0.44,0.38-0.86,0.78-0.88c0.84-0.03,1.69-0.04,2.53-0.01c0.26,0.01,0.54,0.16,0.78,0.29
		c0.3,0.17,0.56,0.43,0.86,0.6c1.6,0.91,3.23,0.9,4.85,0.1c0.91-0.45,1.52-1.25,1.99-2.13c0.89-1.7,0.77-3.4-0.25-5.02
		c-0.7-1.12-1.65-1.91-3-2.14c-1.46-0.25-2.8-0.03-4.01,0.85c-0.23,0.17-0.42,0.38-0.66,0.52c-0.17,0.11-0.39,0.2-0.58,0.21
		c-0.84,0.02-1.69,0.01-2.53-0.01c-0.3-0.01-0.68-0.39-0.72-0.68c-0.04-0.28-0.08-0.56-0.08-0.84c-0.01-0.63-0.01-1.27-0.01-1.9
		c0-53.75,0-107.51,0-161.27c0-0.84,0.02-1.69,0.06-2.53c0.02-0.42,0.4-0.82,0.8-0.86c0.42-0.04,0.84-0.08,1.26-0.08
		c3.59-0.01,7.19-0.01,10.79,0c1.89,0.01,2.07,0.2,2.1,2.03c0.01,0.77,0,1.55,0,2.32c0,56.3,0,112.59,0,168.89
		C154.69,239.99,154.69,296.42,154.69,352.87z M155.06,6.75c-0.35,0.02-0.7,0.04-1.06,0.04c-0.77,0.01-1.55,0-2.32,0
		c-46.59,0-93.18,0-139.77,0c-0.81,0-1.63-0.01-2.44,0.03L6.13,3.49c0.39,0,0.77,0,1.16,0c49.41,0,98.81,0,148.23,0
		c0.84,0,1.69,0.03,2.53,0.07c0.11,0,0.25,0.14,0.3,0.25c0.04,0.11,0.02,0.3-0.05,0.38c-0.68,0.71-1.37,1.41-2.08,2.1
		C155.9,6.59,155.49,6.72,155.06,6.75z M161.49,353.08c0,0.84,0,1.69-0.04,2.53c-0.04,0.75-0.43,1.1-1.24,1.12
		c-0.42,0.01-0.84-0.01-1.26-0.09c-0.28-0.05-0.51-0.25-0.58-0.55c-0.06-0.27-0.12-0.55-0.13-0.83c-0.02-0.63-0.02-1.27-0.02-1.9
		c0-113.69,0-227.4,0-341.09c0-0.77,0.01-1.55,0.04-2.32c0.01-0.27,0.06-0.59,0.21-0.8c0.68-0.99,1.5-1.85,2.51-2.52
		c0.07-0.05,0.31,0.03,0.35,0.11c0.09,0.18,0.14,0.4,0.15,0.6c0.02,0.84,0.02,1.69,0.02,2.54c0,57.2,0,114.4,0,171.6
		C161.49,238.67,161.49,295.87,161.49,353.08z"/>
	<path class="st0" d="M147.99,192.13c-3.61-0.2-6.33,2.6-5.57,5.83c0.05,0.21,0.1,0.41,0.16,0.61c0.37,1.21,1.17,2.08,2.26,2.66
		c1.68,0.9,4.56,0.8,6.15-1.17c0.5-0.62,0.77-1.32,0.98-2.08c0.44-1.64-0.03-3.05-1.07-4.31
		C149.98,192.56,148.73,192.17,147.99,192.13z"/>
</g>
</svg>
