<?xml version="1.0" encoding="utf-8"?>
<!-- Generator: Adobe Illustrator 25.0.0, SVG Export Plug-In . SVG Version: 6.00 Build 0)  -->
<svg version="1.1" id="Layer_1" xmlns="http://www.w3.org/2000/svg" xmlns:xlink="http://www.w3.org/1999/xlink" x="0px" y="0px"
	 viewBox="0 0 165 360" style="enable-background:new 0 0 165 360;" xml:space="preserve">
<g>
	<path d="M0,180C0,121.8,0,63.5,0,5.2c0-0.8,0-1.6,0-2.3c0-0.4,0-0.7,0.1-1.1c0.1-1,0.8-1.7,1.8-1.8C2.2,0,2.6,0,2.9,0
		c0.6,0,1.3,0,1.9,0c51.8,0,103.6,0,155.4,0c0.9,0,1.8,0,2.8,0c1.1,0.1,1.7,0.7,1.9,1.7c0.1,0.4,0.1,0.8,0.1,1.3c0,0.6,0,1.3,0,1.9
		c0,116.7,0,233.5,0,350.3c0,0.7,0,1.4,0,2.1c0,0.4-0.1,0.8-0.2,1.3c-0.2,0.7-0.6,1.1-1.3,1.3c-0.3,0.1-0.7,0.2-1,0.2
		c-0.7,0-1.4,0-2.1,0c-51.9,0-103.9,0-155.8,0c-0.6,0-1.3,0-1.9,0c-0.4,0-0.7-0.1-1-0.1c-0.8-0.2-1.2-0.7-1.4-1.4
		c-0.1-0.3-0.1-0.7-0.2-1c0-0.8,0-1.7,0-2.5C0,296.6,0,238.3,0,180z M10.3,183c0,56.4,0,112.9,0,169.3c0,0.8,0,1.7,0,2.5
		c0,1.3,0.3,1.6,1.6,1.7c0.2,0,0.4,0,0.6,0c3.5,0,7,0,10.6,0c0.4,0,0.8,0,1.3-0.1c0.4,0,0.8-0.4,0.9-0.8c0-0.8,0.1-1.7,0.1-2.5
		c0-113.2,0-226.4,0-339.6c0-0.6,0-1.1,0-1.7c0-0.3,0-0.6-0.1-0.8c-0.1-0.4-0.4-0.8-0.8-0.8c-0.5,0-1-0.1-1.5-0.1
		c-3.5,0-6.9,0-10.4,0c-0.4,0-0.8,0-1.3,0c-0.6,0-0.9,0.4-1,0.9c0,0.9-0.1,1.8-0.1,2.7C10.3,70.1,10.3,126.6,10.3,183z M154.7,183.4
		c0-33.2,0-66.3,0-99.5c0-23.5,0-47,0-70.5c0-0.8,0-1.6,0-2.3c0-0.7-0.4-1.1-1-1.1c-0.4,0-0.8,0-1.3,0c-3.5,0-6.9,0-10.4,0
		c-0.4,0-0.7,0-1.1,0c-0.9,0.1-1.2,0.4-1.3,1.3c0,0.8,0,1.7,0,2.5c0,53.5,0,107,0,160.4c0,0.4,0,0.9,0,1.3c0,2.7,0.1,2.7,2.7,2.7
		c0.1,0,0.3,0,0.4,0c0.3-0.1,0.7-0.2,1-0.3c0.3-0.1,0.5-0.3,0.7-0.4c1.3-0.7,2.6-0.9,4.1-0.5c1.6,0.5,2.7,1.5,3.2,3.1
		c0.5,1.7,0.2,3.4-0.9,4.8c-1.2,1.6-3.9,2-5.4,1.4c-0.5-0.2-1-0.5-1.5-0.7c-0.3-0.1-0.7-0.3-1-0.3c-0.8,0-1.6,0-2.3,0
		c-0.5,0-0.9,0.4-0.9,1c0,0.8-0.1,1.6-0.1,2.3c0,54.8,0,109.6,0,164.5c0,0.6,0,1.1,0,1.7c0,0.3,0,0.6,0.1,0.8
		c0.1,0.4,0.4,0.8,0.8,0.9c0.5,0,1,0.1,1.5,0.1c3.5,0,6.9,0,10.4,0c0.4,0,0.8,0,1.3-0.1c0.6,0,1-0.4,1-0.9c0-0.9,0.1-1.8,0.1-2.7
		C154.7,296.3,154.7,239.9,154.7,183.4z M82.7,218.3c-2.8,0-5.6,0-8.5,0c-14,0-28,0-42.1,0c-0.8,0-1.6,0-2.3,0.1
		c-0.5,0-0.9,0.4-1,0.9c-0.1,0.7-0.1,1.4-0.1,2.1c0,11.6,0,23.3,0,34.9c0,0.5,0,1,0,1.5c0,0.3,0,0.6,0.1,0.8
		c0.1,0.4,0.4,0.8,0.8,0.9c0.9,0.1,1.8,0.1,2.7,0.1c33.3,0,66.7,0,100,0c0.6,0,1.3,0,1.9,0c0.3,0,0.6,0,0.8-0.1
		c0.4-0.1,0.8-0.4,0.8-0.8c0.1-0.7,0.1-1.4,0.1-2.1c0-11.8,0-23.6,0-35.3c0-0.4,0-0.9,0-1.3c0-0.2,0-0.4-0.1-0.6
		c-0.1-0.5-0.4-0.9-1-1c-0.8,0-1.6-0.1-2.3-0.1C116.1,218.3,99.4,218.3,82.7,218.3z M82.5,28.5c-16.6,0-33.3,0-49.9,0
		c-0.7,0-1.4,0-2.1,0c-0.3,0-0.6,0-0.8,0.1C29.3,28.7,29,29,29,29.3c-0.1,0.7-0.1,1.4-0.1,2.1c0,6.1,0,12.1,0,18.2
		c0,5.7,0,11.4,0,17.1c0,0.7,0,1.4,0.1,2.1c0,0.5,0.4,0.9,1,1c0.9,0.1,1.8,0.1,2.7,0.1c33.3,0,66.5,0,99.8,0c0.6,0,1.3,0,1.9,0
		c0.3,0,0.6,0,0.8-0.1c0.5-0.1,0.9-0.4,1-1c0.1-0.8,0.1-1.6,0.1-2.3c0-11.6,0-23.1,0-34.7c0-0.6,0-1.1,0-1.7c0-0.3-0.1-0.6-0.1-0.8
		c-0.1-0.3-0.4-0.7-0.7-0.7c-0.8-0.1-1.7-0.1-2.5-0.1C116.1,28.5,99.3,28.5,82.5,28.5z M82.6,323c16.6,0,33.3,0,49.9,0
		c0.7,0,1.4,0,2.1,0c0.3,0,0.6-0.1,0.8-0.1c0.3-0.1,0.7-0.4,0.7-0.7c0.1-0.7,0.1-1.4,0.1-2.1c0-6.6,0-13.1,0-19.7
		c0-5.1,0-10.3,0-15.4c0-0.7,0-1.4-0.1-2.1c0-0.7-0.5-1.1-1.2-1.2c-0.8-0.1-1.7-0.1-2.5-0.1c-33.2,0-66.4,0-99.6,0
		c-0.7,0-1.4,0-2.1,0c-0.3,0-0.6,0.1-0.8,0.1c-0.5,0.1-0.9,0.5-0.9,1c-0.1,0.7-0.1,1.4-0.1,2.1c0,6.1,0,12.1,0,18.2
		c0,5.6,0,11.1,0,16.7c0,0.6,0,1.1,0,1.7c0.1,1.2,0.4,1.5,1.5,1.6c0.7,0,1.4,0,2.1,0C49.2,323,65.9,323,82.6,323z M82.4,196.4
		c16.6,0,33.3,0,49.9,0c0.7,0,1.4,0,2.1,0c0.3,0,0.6,0,0.8-0.1c0.4-0.1,0.8-0.4,0.9-0.8c0-0.4,0.1-0.7,0.1-1.1c0-2.5,0-4.9,0-7.4
		c0-0.4,0-0.7-0.1-1.1c-0.1-0.4-0.4-0.8-0.8-0.8c-0.7-0.1-1.4-0.1-2.1-0.1c-0.8,0-1.5-0.2-2.3-0.4c-0.9-0.3-1.6-1-1.8-1.9
		c-0.1-0.3-0.2-0.6-0.2-0.8c-0.2-1.5,0.6-2.8,2-3.4c0.7-0.3,1.4-0.4,2.1-0.4c0.8,0,1.6,0,2.3-0.1c0.4,0,0.8-0.4,0.9-0.8
		c0.1-0.4,0.1-0.8,0.1-1.3c0-6.3,0-12.6,0-18.8c0-0.4,0-0.8-0.1-1.3c0-0.4-0.4-0.8-0.8-0.8c-0.9-0.1-1.8-0.1-2.7-0.1
		c-33.3,0-66.6,0-100,0c-0.6,0-1.1,0-1.7,0c-0.3,0-0.6,0-0.8,0.1c-0.6,0.1-1.1,0.5-1.1,1.1c-0.1,0.8-0.1,1.6-0.1,2.3
		c0,11.5,0,23,0,34.5c0,0.6,0,1.1,0,1.7c0,0.3,0.1,0.6,0.1,0.8c0.1,0.4,0.4,0.8,0.8,0.8c0.8,0.1,1.7,0.1,2.5,0.1
		C49,196.4,65.7,196.4,82.4,196.4z M82.5,133c16.6,0,33.2,0,49.9,0c0.7,0,1.4,0,2.1,0c0.3,0,0.6,0,0.8-0.1c0.4-0.1,0.7-0.4,0.7-0.7
		c0.1-0.6,0.1-1.3,0.1-1.9c0-11.8,0-23.7,0-35.5c0-0.4,0-0.7,0-1.1c0-0.2,0-0.4-0.1-0.6c-0.1-0.6-0.5-1-1.1-1.1
		c-0.8-0.1-1.6-0.1-2.3-0.1c-33.5,0-66.9,0-100.4,0c-0.6,0-1.1,0-1.7,0C30.3,92,30,92,29.8,92c-0.4,0.1-0.8,0.5-0.8,0.9
		c-0.1,0.8-0.1,1.5-0.1,2.3c0,11.5,0,23,0,34.5c0,0.4,0,0.8,0,1.3c0,0.3,0,0.6,0.1,0.8c0.1,0.7,0.5,1.1,1.3,1.2
		c0.8,0,1.6,0.1,2.3,0.1C49.2,133,65.9,133,82.5,133z M82.5,356.5c16.6,0,33.1,0,49.7,0c0.6,0,1.3,0,1.9,0c0.4,0,0.7,0,1.1-0.1
		c0.5-0.1,0.9-0.4,1-0.9c0.1-0.5,0.1-1,0.1-1.5c0-8.3,0-16.6,0-25c0-0.5,0-1-0.1-1.5c-0.1-0.5-0.4-0.9-1-1c-0.9-0.1-1.8-0.1-2.7-0.1
		c-33.3,0-66.5,0-99.8,0c-0.6,0-1.3,0-1.9,0c-0.3,0-0.6,0-0.8,0.1c-0.5,0.1-0.9,0.4-1,0.9c-0.1,0.5-0.1,1-0.1,1.5c0,8.3,0,16.6,0,25
		c0,0.5,0,1,0.1,1.5c0.1,0.5,0.4,0.9,1,1c0.8,0.1,1.6,0.1,2.3,0.1C49,356.5,65.7,356.5,82.5,356.5z M82.5,10c-16.6,0-33.3,0-49.9,0
		c-0.6,0-1.3,0-1.9,0c-1.6,0-1.9,0.3-1.9,1.8c0,3.7,0,7.5,0,11.2c0,0.4,0,0.7,0.1,1.1c0.1,0.4,0.4,0.8,0.8,0.8
		c0.8,0.1,1.7,0.1,2.5,0.1c33.5,0,67,0,100.4,0c0.6,0,1.3,0,1.9,0c0.3,0,0.6-0.1,0.8-0.1c0.3-0.1,0.5-0.3,0.6-0.6
		c0.1-0.4,0.2-0.8,0.2-1.3c0-3.7,0-7.5,0-11.2c0-0.4-0.1-0.7-0.1-1.1c0-0.3-0.4-0.7-0.7-0.7c-0.8-0.1-1.5-0.1-2.3-0.1
		C116.2,10,99.4,10,82.5,10z M82.4,215c16.7,0,33.4,0,50.1,0c0.7,0,1.4,0,2.1,0c0.3,0,0.6-0.1,0.8-0.1c0.3-0.1,0.5-0.3,0.6-0.6
		c0.1-0.6,0.2-1.1,0.2-1.7c0-3.4,0-6.8,0-10.2c0-0.5,0-1-0.1-1.5c0-0.5-0.4-0.9-0.9-1c-0.9-0.1-1.8-0.1-2.7-0.1
		c-33.3,0-66.5,0-99.8,0c-0.6,0-1.1,0-1.7,0c-1.8,0-2.1,0.3-2.1,2.1c0,3.7,0,7.3,0,11c0,0.4,0,0.7,0.1,1.1c0.1,0.4,0.4,0.8,0.8,0.8
		c0.8,0,1.6,0.1,2.3,0.1C48.8,215,65.6,215,82.4,215z M82.7,136.5c-16.8,0-33.5,0-50.3,0c-0.7,0-1.4,0-2.1,0c-1.1,0-1.4,0.4-1.5,1.4
		c0,0.2,0,0.4,0,0.6c0,3.7,0,7.3,0,11c0,0.4,0,0.7,0.1,1.1c0.1,0.4,0.4,0.8,0.8,0.8c0.8,0.1,1.7,0.1,2.5,0.1c33.5,0,66.9,0,100.4,0
		c0.6,0,1.3,0,1.9,0c0.3,0,0.6-0.1,0.8-0.1c0.3-0.1,0.5-0.3,0.6-0.6c0.1-0.4,0.2-0.8,0.2-1.3c0-3.7,0-7.5,0-11.2
		c0-0.3,0-0.6-0.1-0.8c-0.1-0.5-0.4-0.9-1-1c-0.8,0-1.6-0.1-2.3-0.1C116.1,136.5,99.4,136.5,82.7,136.5z M82.5,278.1
		c16.6,0,33.1,0,49.7,0c0.6,0,1.3,0,1.9,0c1.9,0,2.1-0.2,2.1-2.1c0-3.6,0-7.2,0-10.8c0-0.4,0-0.8-0.1-1.3c0-0.4-0.4-0.8-0.8-0.8
		c-0.8-0.1-1.7-0.1-2.5-0.1c-33.5,0-67,0-100.4,0c-0.6,0-1.1,0-1.7,0c-0.3,0-0.6,0-0.8,0.1c-0.4,0.1-0.8,0.4-0.8,0.9
		c-0.1,0.4-0.1,0.7-0.1,1.1c0,3.7,0,7.5,0,11.2c0,0.4,0.1,0.7,0.1,1.1c0,0.3,0.4,0.7,0.7,0.7c0.8,0.1,1.5,0.1,2.3,0.1
		C48.8,278.1,65.7,278.1,82.5,278.1z M82.4,88.5c16.7,0,33.4,0,50.1,0c0.7,0,1.4,0,2.1,0c0.3,0,0.6-0.1,0.8-0.1
		c0.3-0.1,0.5-0.3,0.6-0.6c0.1-0.3,0.1-0.7,0.1-1c0-3.9,0-7.8,0-11.6c0-0.3-0.1-0.6-0.1-0.8c0-0.3-0.4-0.7-0.7-0.7
		c-0.8-0.1-1.7-0.1-2.5-0.1c-33.5,0-67.1,0-100.6,0c-0.6,0-1.1,0-1.7,0c-1.3,0-1.6,0.3-1.7,1.6c0,0.1,0,0.3,0,0.4c0,3.7,0,7.3,0,11
		c0,0.4,0,0.7,0.1,1.1c0.1,0.4,0.4,0.8,0.8,0.8c0.8,0,1.6,0.1,2.3,0.1C48.9,88.5,65.6,88.5,82.4,88.5z M161.5,181
		c0-37.7,0-75.4,0-113c0-19.7,0-39.4,0-59.1c0-0.7,0-1.4,0-2.1c0-0.2,0-0.5-0.3-0.5c-0.1,0-0.3,0-0.4,0.1c-0.7,0.6-1.3,1.3-2,1.9
		c-0.4,0.4-0.6,1-0.6,1.5c0,0.7,0,1.4,0,2.1c0,113.7,0,227.3,0,341c0,0.6,0,1.1,0,1.7c0.1,1.5,0.4,1.8,1.9,1.8c0.1,0,0.1,0,0.2,0
		c0.7,0,1.1-0.4,1.1-1c0-0.9,0.1-1.8,0.1-2.7C161.5,295.4,161.5,238.2,161.5,181z M3.5,181.1c0,57.1,0,114.3,0,171.4
		c0,0.8,0,1.7,0,2.5c0,1.1,0.4,1.4,1.4,1.4c0.3,0,0.6,0,0.8-0.1c0.5-0.1,0.9-0.4,0.9-1c0.1-1,0.1-2,0.1-3c0-113.3,0-226.6,0-339.9
		c0-0.7,0-1.4,0-2.1c0-0.4,0-0.7-0.1-1.1C6.7,9.1,6.6,8.8,6.4,8.6c-0.6-0.8-1.3-1.5-2.1-2C4,6.4,3.6,6.6,3.6,6.9
		c0,0.9-0.1,1.8-0.1,2.8C3.5,66.8,3.5,123.9,3.5,181.1z M82.4,3.5c-24.1,0-48.2,0-72.3,0c-0.8,0-1.6,0-2.3,0c-0.3,0-0.6,0-0.8,0.1
		c-0.1,0-0.2,0.1-0.2,0.1c0,0.1-0.1,0.3,0,0.4C7,4.3,7.3,4.6,7.5,4.8c2.1,2,1.7,1.9,4.6,1.9c0.1,0,0.1,0,0.2,0
		c46.8,0,93.6,0,140.3,0c3.2,0,2.6,0.3,5.1-2.2c0.1-0.1,0.1-0.1,0.1-0.2s0.1-0.1,0.1-0.2c0.1-0.2,0-0.5-0.2-0.5
		c-0.8-0.2-1.5-0.1-2.3-0.1C131.2,3.5,106.8,3.5,82.4,3.5z"/>
	<path d="M152.1,196.9c-0.1,0.9-0.3,1.9-0.9,2.7c-0.3,0.4-0.6,0.8-1,1.1c-0.2,0.2-0.4,0.4-0.7,0.5c-0.9,0.4-1.9,0.6-2.9,0.6
		c-2-0.2-3.2-1.3-4-3c-0.7-1.4-0.6-2.9,0.1-4.3c1-1.9,3.1-3.1,5.3-2.6c0.9,0.2,1.7,0.5,2.4,1.2C151.6,194.1,152,195.4,152.1,196.9z"
		/>
</g>
</svg>
