<?xml version="1.0" encoding="utf-8"?>
<!-- Generator: Adobe Illustrator 25.0.0, SVG Export Plug-In . SVG Version: 6.00 Build 0)  -->
<svg version="1.1" id="Layer_1" xmlns="http://www.w3.org/2000/svg" xmlns:xlink="http://www.w3.org/1999/xlink" x="0px" y="0px"
	 viewBox="0 0 165 360" style="enable-background:new 0 0 165 360;" xml:space="preserve">
<g>
	<path d="M165,180c0,58.3,0,116.7,0,175c0,0.9,0,1.7,0,2.5c0,0.4,0,0.7-0.1,1c-0.2,0.7-0.6,1.1-1.3,1.3c-0.3,0.1-0.7,0.1-1,0.1
		c-0.7,0-1.4,0-2.1,0c-52,0-104,0-156,0c-0.7,0-1.4,0-2.1,0c-0.4,0-0.7-0.1-1-0.2c-0.6-0.2-1-0.6-1.1-1.2C0,358.4,0,358.1,0,357.8
		c0-0.8,0-1.6,0-2.3c0-117,0-234,0-351c0-0.9,0-1.8,0.1-2.7c0.1-1,0.7-1.5,1.6-1.6C2,0,2.3,0,2.5,0c0.6,0,1.3,0,1.9,0
		c52,0,104,0,156,0c0.8,0,1.6,0,2.3,0c1.5,0.1,2.1,0.6,2.2,2.2c0,0.5,0,1,0,1.5c0,1.8,0,3.5,0,5.3C165,66,165,123,165,180z
		 M28.6,175.5c0,47.7,0,95.5,0,143.2c0,0.7,0,1.4,0,2.1c0,0.4,0,0.7,0.1,1.1c0,0.5,0.4,1,0.9,1c0.8,0.1,1.7,0.1,2.5,0.1
		c18.8,0,37.5,0,56.3,0c0.6,0,1.1,0,1.7,0c0.3,0,0.6,0,0.8-0.1c0.5-0.1,0.9-0.5,0.9-1c0-0.8,0.1-1.7,0.1-2.5c0-95.8,0-191.6,0-287.3
		c0-0.6,0-1.1,0-1.7c0-0.3,0-0.6-0.1-0.8c-0.1-0.4-0.4-0.8-0.8-0.9c-0.6,0-1.3-0.1-1.9-0.1c-19.3,0-38.5,0-57.8,0
		c-0.6,0-1.1,0-1.7,0c-0.6,0-1,0.4-1,1.1c0,0.8,0,1.7,0,2.5C28.6,80,28.6,127.8,28.6,175.5z M113.8,175.8c0,47.7,0,95.3,0,143
		c0,0.8,0,1.6,0,2.3c0,0.3,0,0.6,0,0.8c0.1,0.5,0.4,0.9,0.9,1c0.6,0,1.1,0.1,1.7,0.1c5.7,0,11.4,0,17.1,0c0.6,0,1.1,0,1.7-0.1
		c0.5,0,0.9-0.4,1-0.9c0-0.8,0.1-1.7,0.1-2.5c0-43.6,0-87.2,0-130.7c0-0.6,0-1.1,0-1.7c0-0.3,0-0.6-0.1-0.8c-0.1-0.5-0.4-0.9-1-0.9
		c-0.8,0-1.7-0.1-2.5-0.1c-1,0-1.8-0.3-2.6-0.8c-0.9-0.6-1.3-1.5-1.4-2.5c-0.1-1.2,0.4-2.2,1.5-2.8c0.7-0.4,1.6-0.7,2.4-0.7
		c0.6,0,1.3,0,1.9,0c1.4-0.1,1.6-0.3,1.7-1.6c0-0.6,0-1.3,0-1.9c0-47.6,0-95.2,0-142.8c0-0.5,0-1,0-1.5c0-0.3,0-0.6,0-0.8
		c0-0.6-0.4-0.9-0.9-1c-0.5,0-1-0.1-1.5-0.1c-5.9,0-11.7,0-17.6,0c-0.5,0-1,0-1.5,0c-0.5,0-1,0.4-1,0.9c0,0.8-0.1,1.7-0.1,2.5
		C113.8,80,113.8,127.9,113.8,175.8z M10.1,183.4c0,56.3,0,112.6,0,168.8c0,0.7,0,1.4,0,2.1c0,0.3,0,0.6,0,0.8
		c0.1,0.8,0.4,1.2,1.2,1.3c0.3,0,0.6,0,0.8,0c3.6,0,7.2,0,10.8,0c0.3,0,0.6,0,0.8,0c0.9-0.1,1.3-0.5,1.4-1.3c0-0.8,0-1.7,0-2.5
		c0-112.8,0-225.7,0-338.5c0-0.6,0-1.3,0-1.9c0-0.3,0-0.6-0.1-0.8c-0.1-0.5-0.4-0.9-0.9-1c-0.5-0.1-1-0.1-1.5-0.1
		c-3.4,0-6.8,0-10.2,0c-0.4,0-0.9,0-1.3,0.1c-0.7,0.1-1.1,0.4-1.1,1.1c0,0.9-0.1,1.8-0.1,2.7C10.1,70.6,10.1,127,10.1,183.4z
		 M154.7,183.4c0-56.3,0-112.6,0-168.8c0-0.8,0-1.6,0-2.3c0-0.4,0-0.7-0.1-1.1c-0.1-0.4-0.4-0.8-0.9-0.8c-0.3,0-0.6-0.1-0.8-0.1
		c-3.9,0-7.8,0-11.6,0c-0.3,0-0.6,0.1-0.8,0.1s-0.7,0.4-0.7,0.7c-0.1,0.8-0.1,1.5-0.1,2.3c0,11.1,0,22.3,0,33.4
		c0,42.5,0,85.1,0,127.6c0,0.8,0,1.7,0,2.5c0,0.8,0.4,1.2,1.2,1.2c1.4,0.1,2.7,0.2,3.8-0.9c0.9-0.5,1.8-0.8,2.8-0.7
		c1.5,0.1,2.9,0.7,3.7,2.1c0.8,1.3,1.3,2.7,0.8,4.2c0,0.1-0.1,0.3-0.1,0.4c-0.4,1.3-1.2,2.2-2.4,2.8c-1.5,0.7-3,0.7-4.5,0
		c-0.3-0.2-0.6-0.3-0.9-0.5c-0.4-0.3-0.9-0.4-1.4-0.4c-0.7,0-1.4,0-2.1,0.1c-0.4,0-0.8,0.4-0.8,0.8c0,0.8-0.1,1.6-0.1,2.3
		c0,54.9,0,109.9,0,164.8c0,0.6,0,1.3,0,1.9c0,0.2,0.1,0.4,0.1,0.6c0.1,0.3,0.3,0.5,0.6,0.6c0.5,0.1,1,0.2,1.5,0.2
		c3.5,0,7.1,0,10.6,0c0.4,0,0.8,0,1.3-0.1c0.5-0.1,0.9-0.5,1-1c0.1-1,0.1-2,0.1-3C154.7,296.1,154.7,239.8,154.7,183.4z M95.5,175.8
		c0,47.7,0,95.3,0,143c0,0.8,0,1.7,0,2.5c0,1.3,0.4,1.6,1.6,1.7c0.1,0,0.3,0,0.4,0c3.7,0,7.3,0,11,0c0.4,0,0.7,0,1.1-0.1
		c0.4-0.1,0.8-0.4,0.9-0.8c0-0.8,0.1-1.7,0.1-2.5c0-95.8,0-191.7,0-287.5c0-0.7,0-1.4,0-2.1c0-0.2,0-0.4-0.1-0.6
		c-0.1-0.3-0.3-0.5-0.6-0.6c-0.3-0.1-0.6-0.1-0.8-0.1c-4,0-8,0-12.1,0c-0.1,0-0.3,0-0.4,0c-0.6,0.1-1,0.4-1,0.9
		c-0.1,0.9-0.1,1.8-0.1,2.7C95.5,80.1,95.5,128,95.5,175.8z M82.5,326.5c-16.7,0-33.4,0-50.2,0c-0.7,0-1.4,0-2.1,0
		c-0.3,0-0.6,0.1-0.8,0.1c-0.3,0-0.7,0.4-0.7,0.7c-0.1,0.6-0.1,1.3-0.1,1.9c0,8.2,0,16.4,0,24.5c0,0.4,0,0.8,0,1.3
		c0,0.2,0.1,0.4,0.1,0.6c0.1,0.3,0.4,0.7,0.7,0.7c0.7,0.1,1.4,0.1,2.1,0.1c33.9,0,67.9,0,101.8,0c0.6,0,1.1,0,1.7,0
		c0.2,0,0.4-0.1,0.6-0.1c0.3-0.1,0.5-0.3,0.6-0.6c0.1-0.5,0.1-1,0.1-1.5c0-8.5,0-17.1,0-25.6c0-0.4,0-0.8-0.1-1.3
		c0-0.4-0.4-0.8-0.8-0.8c-0.8-0.1-1.6-0.1-2.3-0.1C116.3,326.5,99.4,326.5,82.5,326.5z M82.3,25.4c16.7,0,33.4,0,50.2,0
		c0.7,0,1.4,0,2.1,0c0.3,0,0.6,0,0.8-0.1c0.4-0.1,0.8-0.4,0.9-0.8c0.1-0.5,0.1-1,0.1-1.5c0-3.5,0-6.9,0-10.4c0-0.4,0-0.8-0.1-1.3
		c0-0.5-0.4-0.9-0.9-1c-0.8-0.1-1.7-0.1-2.5-0.1c-33.5,0-67,0-100.5,0c-0.6,0-1.3,0-1.9,0c-0.3,0-0.6,0-0.8,0.1
		c-0.4,0.1-0.8,0.4-0.9,0.8c0,0.5-0.1,1-0.1,1.5c0,3.5,0,6.9,0,10.4c0,0.4,0,0.8,0.1,1.3c0,0.5,0.4,1,0.9,1c0.8,0,1.6,0.1,2.3,0.1
		C48.7,25.4,65.5,25.4,82.3,25.4z M3.3,181c0,57.2,0,114.4,0,171.6c0,0.8,0,1.6,0,2.3c0,0.3,0.1,0.6,0.1,0.8
		c0.1,0.3,0.3,0.5,0.6,0.6c0.5,0.1,1,0.1,1.5,0.1c0.9,0,1.3-0.4,1.4-1.3c0-0.9,0-1.8,0-2.8c0-113.1,0-226.3,0-339.4
		c0-0.7,0-1.4,0-2.1c0-0.4,0-0.7,0-1.1c0-0.4-0.2-0.8-0.5-1.1C5.5,7.9,4.7,7.2,3.9,6.4c0,0-0.1-0.1-0.2-0.1c-0.1,0-0.3,0.1-0.3,0.2
		C3.3,7.2,3.3,8,3.3,8.8C3.3,66.2,3.3,123.6,3.3,181z M161.5,181.2c0-57.1,0-114.1,0-171.2c0-0.8,0-1.6,0-2.3c0-0.3-0.1-0.6-0.1-0.8
		c0-0.2-0.3-0.3-0.5-0.2c-0.7,0.4-1.3,1.1-1.9,1.7c-0.5,0.5-0.8,1.1-0.8,1.9c0,0.8,0,1.6,0,2.3c0,113.4,0,226.8,0,340.2
		c0,0.7,0,1.4,0,2.1c0,0.3,0.1,0.6,0.1,0.8c0.1,0.3,0.3,0.5,0.6,0.6c0.5,0.2,1,0.2,1.5,0.1c0.6-0.1,1-0.5,1.1-1.1
		c0.1-0.9,0.1-1.8,0.1-2.7C161.5,295.5,161.5,238.3,161.5,181.2z M82.6,3.5c-24.1,0-48.2,0-72.4,0c-0.6,0-1.3,0-1.9,0
		c-0.5,0-1.1-0.2-1.6,0.3c-0.1,0.8,0.6,1,1,1.5C8,5.6,8.4,6,8.7,6.3c0.3,0.3,0.7,0.5,1.2,0.5c0.8,0,1.7,0,2.5,0
		c33.1,0,66.2,0,99.3,0c13.7,0,27.4,0,41.1,0c0.8,0,1.6,0,2.3,0c0.4,0,0.8-0.2,1.1-0.5c0.7-0.7,1.4-1.4,2.1-2.1
		c0.1-0.1,0.1-0.3,0-0.4c-0.1-0.1-0.2-0.2-0.3-0.2c-0.8,0-1.6-0.1-2.3-0.1C131.3,3.5,107,3.5,82.6,3.5z"/>
	<path d="M147.2,201.7c-2.6,0-4.9-2.2-4.8-4.8c0.1-3.1,2-4.7,4.7-5c3.1,0.2,4.9,2.1,5.1,5.1C151.9,199.7,150.3,201.6,147.2,201.7z"
		/>
</g>
</svg>
