<?xml version="1.0" encoding="utf-8"?>
<!-- Generator: Adobe Illustrator 25.0.0, SVG Export Plug-In . SVG Version: 6.00 Build 0)  -->
<svg version="1.1" id="Layer_1" xmlns="http://www.w3.org/2000/svg" xmlns:xlink="http://www.w3.org/1999/xlink" x="0px" y="0px"
	 viewBox="0 0 165 360" style="enable-background:new 0 0 165 360;" xml:space="preserve">
<g>
	<path d="M0,179.9C0,121.5,0,63.1,0,4.7C0,3.8,0,2.9,0,2c0.1-1.1,0.7-1.8,1.9-1.9C2.2,0,2.6,0,2.9,0c0.7,0,1.4,0,2.1,0
		c51.7,0,103.3,0,155,0c0.8,0,1.6,0,2.3,0c0.4,0,0.7,0,1.1,0.1c0.8,0.2,1.4,0.8,1.5,1.6c0,0.3,0.1,0.6,0.1,0.8c0,0.6,0,1.3,0,1.9
		c0,117.1,0,234.2,0,351.3c0,0.8,0,1.6,0,2.3c0,0.2,0,0.4-0.1,0.6c-0.1,0.6-0.7,1.2-1.3,1.3c-0.3,0-0.6,0.1-0.8,0.1
		c-0.6,0-1.3,0-1.9,0c-52.2,0-104.4,0-156.7,0c-0.8,0-1.7,0-2.5-0.1c-0.9-0.1-1.5-0.7-1.6-1.7c0-0.4,0-0.8,0-1.3c0-0.8,0-1.6,0-2.3
		C0,296.5,0,238.2,0,179.9z M25.1,183.8c0-20.8,0-41.6,0-62.4c0-35.7,0-71.4,0-107.1c0-0.8,0-1.7,0-2.5c0-1-0.4-1.4-1.4-1.5
		c-0.3,0-0.6,0-0.8,0c-3.4,0-6.8,0-10.2,0c-0.1,0-0.3,0-0.4,0c-1.6,0.1-1.9,0.3-1.9,1.8c0,0.7,0,1.4,0,2.1c0,112.9,0,225.8,0,338.8
		c0,0.6,0,1.1,0,1.7c0,1.9,0.2,2.1,2.1,2.1c3.5,0,7.1,0,10.6,0c0.2,0,0.4,0,0.6,0c1.1,0,1.5-0.4,1.5-1.6c0-0.8,0-1.7,0-2.5
		C25.1,296.4,25.1,240.1,25.1,183.8z M154.7,183.7c0-56.4,0-112.9,0-169.3c0-0.9,0-1.7,0-2.5c0-0.3-0.1-0.6-0.1-0.8
		c-0.1-0.3-0.3-0.5-0.6-0.6c-0.5-0.1-1-0.2-1.5-0.2c-3.6,0-7.2,0-10.8,0c-0.4,0-0.8,0.1-1.3,0.1c-0.3,0-0.7,0.4-0.7,0.7
		c-0.1,0.8-0.1,1.5-0.1,2.3c0,18.4,0,36.8,0,55.2c0,35.4,0,70.8,0,106.2c0,0.8,0,1.7,0,2.5c0,0.7,0.4,1.1,1,1.1c0.7,0,1.4,0,2.1,0
		c0.4,0,0.7-0.1,1-0.4c0.2-0.1,0.3-0.3,0.5-0.4c1.6-1.1,3.4-1.3,5.2-0.5c0.9,0.4,1.5,1.1,2,1.8c1,1.4,1.2,3.4,0.1,5.2
		c-0.9,1.3-2,2.2-3.6,2.4c-0.3,0.1-0.7,0.1-1,0.1c-1-0.2-2.1-0.4-2.9-1.1c-0.4-0.4-1-0.5-1.6-0.5c-0.6,0-1.1,0-1.7,0
		c-0.7,0-1.1,0.4-1.1,1.1c0,0.8,0,1.7,0,2.5c0,54.8,0,109.6,0,164.4c0,0.6,0,1.3,0,1.9c0,0.3,0,0.6,0.1,0.8c0,0.4,0.4,0.8,0.9,0.8
		c0.4,0,0.8,0.1,1.3,0.1c3.5,0,7.1,0,10.6,0c0.5,0,1-0.1,1.5-0.1c0.3,0,0.7-0.4,0.7-0.7c0-0.3,0.1-0.6,0.1-0.8c0-0.8,0-1.6,0-2.3
		C154.7,296.4,154.7,240.1,154.7,183.7z M82.3,356.8c16.9,0,33.7,0,50.6,0c0.7,0,1.4,0,2.1,0c0.2,0,0.4,0,0.6-0.1
		c0.3-0.1,0.5-0.3,0.6-0.6c0.1-0.7,0.1-1.4,0.1-2.1c0-7.2,0-14.4,0-21.6c0-1.2,0-2.4,0-3.6c0-0.4,0-0.8-0.1-1.3
		c-0.1-0.6-0.5-1-1.1-1.1c-0.7,0-1.4-0.1-2.1-0.1c-33.7,0-67.5,0-101.2,0c-0.5,0-1,0-1.5,0c-0.3,0-0.6,0.1-0.8,0.1
		c-0.4,0.1-0.8,0.4-0.8,0.8c0,0.6-0.1,1.3-0.1,1.9c0,8.3,0,16.5,0,24.8c0,0.4,0,0.9,0,1.3c0,1.1,0.3,1.4,1.4,1.4c0.7,0,1.4,0,2.1,0
		C48.9,356.8,65.6,356.8,82.3,356.8z M82.8,73.4c-16.7,0-33.3,0-50,0c-0.6,0-1.3,0-1.9,0c-2.1,0-2.2,0.1-2.2,2.3
		c0,8.5,0,17.1,0,25.6c0,0.5,0,1,0.1,1.5c0,0.4,0.4,0.8,0.8,0.8c0.8,0,1.7,0.1,2.5,0.1c33.6,0,67.2,0,100.8,0c0.4,0,0.9,0,1.3,0
		c2.1,0,2.2-0.1,2.2-2.3c0-8.5,0-17.1,0-25.6c0-0.5,0-1-0.1-1.5c0-0.4-0.4-0.8-0.8-0.8c-0.8,0-1.6-0.1-2.3-0.1
		C116.3,73.4,99.6,73.4,82.8,73.4z M82.3,230.2c8.3,0,16.7,0,25,0c8.7,0,17.4,0,26,0c0.7,0,1.4,0,2.1-0.1c0.4,0,0.8-0.4,0.8-0.8
		c0-0.6,0.1-1.1,0.1-1.7c0-8.4,0-16.8,0-25.2c0-0.4,0-0.9,0-1.3c-0.1-0.9-0.4-1.2-1.4-1.3c-0.7,0-1.4,0-2.1,0
		c-33.6,0-67.2,0-100.8,0c-0.6,0-1.1,0-1.7,0c-0.3,0-0.6,0-0.8,0.1c-0.4,0.1-0.8,0.4-0.8,0.8c0,0.6-0.1,1.3-0.1,1.9
		c0,8.3,0,16.5,0,24.8c0,0.4,0,0.9,0,1.3c0,1.1,0.3,1.4,1.4,1.5c0.7,0,1.4,0,2.1,0C48.9,230.2,65.6,230.2,82.3,230.2z M82.4,293.3
		c16.9,0,33.7,0,50.6,0c0.8,0,1.6,0,2.3-0.1c0.6,0,1-0.4,1-0.9c0-0.6,0.1-1.1,0.1-1.7c0-2.9,0-5.8,0-8.7c0-5.3,0-10.6,0-15.9
		c0-0.7,0-1.4-0.1-2.1c0-0.4-0.5-0.8-0.9-0.8c-0.7-0.1-1.4-0.1-2.1-0.1c-33.9,0-67.8,0-101.6,0c-0.5,0-1,0-1.5,0
		c-0.2,0-0.4,0-0.6,0.1c-0.4,0.1-0.8,0.4-0.9,0.8c0,0.7-0.1,1.4-0.1,2.1c0,8,0,16.1,0,24.1c0,0.6,0,1.1,0,1.7c0,0.2,0.1,0.4,0.1,0.6
		c0.1,0.3,0.4,0.7,0.7,0.7c0.8,0,1.7,0.1,2.5,0.1C48.8,293.3,65.6,293.3,82.4,293.3z M82.7,10.3c-15.6,0-31.2,0-46.8,0
		c-1.6,0-3.2,0-4.9,0c-2.4,0-2.5,0.1-2.5,2.5c0,8.3,0,16.6,0,25c0,0.5,0,1,0.1,1.5c0,0.5,0.4,0.9,1,1c0.9,0.1,1.8,0.1,2.7,0.1
		c33.4,0,66.7,0,100.1,0c0.7,0,1.4,0,2.1,0c0.3,0,0.6-0.1,0.8-0.1c0.4-0.1,0.8-0.5,0.8-0.9c0-0.2,0.1-0.4,0.1-0.6c0-0.5,0-1,0-1.5
		c0-8,0-15.9,0-23.9c0-0.7,0-1.4-0.1-2.1c0-0.4-0.4-0.8-0.8-0.8c-0.8-0.1-1.7-0.1-2.5-0.1C116.2,10.3,99.5,10.3,82.7,10.3z
		 M82.6,166.8c16.7,0,33.4,0,50.2,0c0.7,0,1.4,0,2.1,0c0.3,0,0.6-0.1,0.8-0.1c0.3-0.1,0.5-0.3,0.6-0.6c0.1-0.2,0.1-0.4,0.1-0.6
		c0-0.6,0-1.1,0-1.7c0-8,0-15.9,0-23.9c0-0.7,0-1.4-0.1-2.1c0-0.4-0.4-0.8-0.8-0.9c-0.9-0.1-1.8-0.1-2.7-0.1c-33.4,0-66.9,0-100.3,0
		c-0.7,0-1.4,0-2.1,0c-0.3,0-0.6,0.1-0.8,0.1c-0.3,0.1-0.7,0.4-0.7,0.7c-0.1,0.6-0.1,1.3-0.1,1.9c0,3.3,0,6.6,0,9.9
		c0,4.9,0,9.7,0,14.6c0,0.6,0.1,1.3,0.1,1.9c0,0.3,0.4,0.7,0.7,0.7c0.8,0.1,1.7,0.1,2.5,0.1C48.8,166.8,65.7,166.8,82.6,166.8z
		 M82.3,259.9c16.8,0,33.6,0,50.4,0c0.7,0,1.4,0,2.1,0c0.3,0,0.6,0,0.8-0.1c0.3-0.1,0.5-0.3,0.6-0.6c0.1-0.5,0.1-1,0.1-1.5
		c0-7.3,0-14.7,0-22c0-0.3,0-0.6,0-0.8c-0.1-0.9-0.4-1.3-1.3-1.4c-0.7,0-1.4,0-2.1,0c-33.7,0-67.3,0-101,0c-0.6,0-1.3,0-1.9,0
		c-0.2,0-0.4,0-0.6,0.1c-0.3,0-0.7,0.4-0.7,0.7c0,0.6-0.1,1.3-0.1,1.9c0,7,0,14,0,20.9c0,0.4,0,0.9,0,1.3c0,1.1,0.3,1.4,1.4,1.5
		c0.7,0,1.4,0,2.1,0C48.9,259.9,65.6,259.9,82.3,259.9z M82.6,323c16.7,0,33.4,0,50.1,0c0.7,0,1.4,0,2.1,0c0.3,0,0.6,0,0.8-0.1
		c0.3-0.1,0.5-0.3,0.6-0.6c0.1-0.5,0.1-1,0.1-1.5c0-7.3,0-14.5,0-21.8c0-0.4,0-0.8-0.1-1.3c0-0.4-0.4-0.8-0.8-0.8
		c-0.9-0.1-1.8-0.1-2.7-0.1c-33.4,0-66.9,0-100.3,0c-0.7,0-1.4,0-2.1,0c-0.3,0-0.6,0.1-0.8,0.1c-0.3,0.1-0.7,0.4-0.7,0.7
		c-0.1,0.7-0.1,1.4-0.1,2.1c0,6.8,0,13.5,0,20.3c0,0.5,0,1,0,1.5c0,0.2,0,0.4,0.1,0.6c0.1,0.3,0.4,0.7,0.7,0.7
		c0.8,0,1.7,0.1,2.5,0.1C48.8,323,65.7,323,82.6,323z M82.4,43.8c-16.7,0-33.4,0-50.2,0c-0.7,0-1.4,0-2.1,0c-0.3,0-0.6,0.1-0.8,0.1
		c-0.3,0.1-0.5,0.3-0.6,0.6c-0.1,0.6-0.1,1.3-0.1,1.9c0,6.9,0,13.8,0,20.7c0,0.6,0,1.1,0.1,1.7c0,0.6,0.5,1,1.1,1.1
		c0.8,0.1,1.7,0.1,2.5,0.1c33.4,0,66.9,0,100.3,0c0.5,0,1,0,1.5,0c2.1,0,2.2-0.2,2.2-2.4c0-4.9,0-9.9,0-14.8c0-2.3,0-4.5,0-6.8
		c0-0.5-0.1-1-0.1-1.5c0-0.3-0.4-0.7-0.7-0.7c-0.8,0-1.6-0.1-2.3-0.1C116.3,43.8,99.4,43.8,82.4,43.8z M82.6,133.3
		c5.6,0,11.1,0,16.7,0c11.3,0,22.6,0,33.9,0c0.8,0,1.6,0,2.3-0.1c0.4,0,0.8-0.4,0.9-0.8c0-0.4,0.1-0.8,0.1-1.3c0-7.3,0-14.5,0-21.8
		c0-0.4,0-0.8-0.1-1.3c0-0.4-0.4-0.8-0.8-0.9c-0.8-0.1-1.7-0.1-2.5-0.1c-33.6,0-67.1,0-100.7,0c-0.5,0-1,0-1.5,0
		c-1.9,0-2.1,0.2-2.1,2.1c0,7.3,0,14.7,0,22c0,0.4,0,0.8,0.1,1.3c0,0.3,0.4,0.7,0.7,0.7c0.8,0.1,1.7,0.1,2.5,0.1
		C48.8,133.3,65.7,133.3,82.6,133.3z M82.5,196.4c16.7,0,33.3,0,50,0c0.7,0,1.4,0,2.1,0c0.3,0,0.6,0,0.8-0.1
		c0.4-0.1,0.8-0.4,0.9-0.8c0-0.3,0.1-0.6,0.1-0.8c0-2.6,0-5.2,0-7.8c0-0.3,0-0.6-0.1-0.8c-0.1-0.4-0.4-0.8-0.8-0.8
		c-0.8-0.1-1.6-0.1-2.3-0.1c-0.9,0-1.8-0.2-2.6-0.6c-0.3-0.2-0.6-0.4-0.8-0.6c-0.7-0.9-1.1-2-0.6-3.2c0.1-0.2,0.2-0.4,0.2-0.6
		c0.2-0.5,0.6-0.8,1-1c0.7-0.3,1.5-0.5,2.2-0.5c0.9,0,1.8,0,2.7-0.1c0.5,0,0.9-0.4,0.9-1c0-0.1,0-0.1,0-0.2c0-1.9,0-3.8,0-5.7
		c0-0.1,0-0.3-0.1-0.4c-0.1-0.4-0.4-0.8-0.8-0.8c-0.8-0.1-1.7-0.1-2.5-0.1c-17.1,0-34.2,0-51.2,0c-16.5,0-33,0-49.5,0
		c-0.8,0-1.6,0-2.3,0.1c-0.7,0-1.1,0.4-1.1,1.1c0,0.4,0,0.8,0,1.3c0,7.1,0,14.3,0,21.4c0,0.5,0,1,0.1,1.5c0,0.4,0.4,0.8,0.8,0.8
		c0.8,0.1,1.7,0.1,2.5,0.1C48.9,196.4,65.7,196.4,82.5,196.4z M3.3,181c0,57.2,0,114.4,0,171.6c0,0.7,0,1.4,0,2.1
		c0,1.9,0.2,2.1,2.1,2c1.2,0,1.4-0.3,1.5-1.6c0-0.8,0-1.7,0-2.5c0-113.2,0-226.4,0-339.6c0-0.6,0-1.3,0-1.9c0-0.4,0-0.7,0-1.1
		c0-0.5-0.2-1-0.5-1.3C5.5,7.9,4.7,7.2,3.9,6.4c-0.1-0.1-0.3-0.1-0.4,0C3.4,6.4,3.3,6.6,3.3,6.7c0,0.9,0,1.7,0,2.5
		C3.3,66.5,3.3,123.8,3.3,181z M161.5,181.4c0-57.1,0-114.2,0-171.4c0-0.8,0-1.7,0-2.5c0-0.2-0.1-0.4-0.1-0.6c0-0.2-0.4-0.3-0.5-0.2
		c-0.8,0.7-1.5,1.5-2.2,2.2c-0.3,0.3-0.4,0.6-0.4,1c0,0.8,0,1.7,0,2.5c0,113.6,0,227.2,0,340.9c0,0.6,0,1.1,0,1.7
		c0,1.6,0.3,1.8,1.9,1.8c0.1,0,0.3,0,0.4,0c0.4,0,0.8-0.4,0.9-0.8c0-0.3,0.1-0.6,0.1-0.8c0-0.8,0-1.6,0-2.3
		C161.5,295.7,161.5,238.5,161.5,181.4z M82.5,3.5c-24.2,0-48.4,0-72.6,0c-0.7,0-1.4,0-2.1,0C7.5,3.5,7.2,3.6,7,3.6
		c-0.3,0-0.4,0.5-0.2,0.7C7.4,5,8.1,5.7,8.8,6.4C9.1,6.7,9.6,6.8,10,6.8c0.8,0,1.7,0,2.5,0c33.2,0,66.3,0,99.5,0
		c13.5,0,27.1,0,40.6,0c0.8,0,1.6,0,2.3,0c0.5,0,1-0.2,1.3-0.6c0.2-0.2,0.4-0.4,0.6-0.6c0.5-0.6,1.3-0.9,1.4-1.8
		c0.1-0.3-0.4-0.4-2.2-0.4c-0.5,0-1,0-1.5,0C130.7,3.5,106.6,3.5,82.5,3.5z"/>
	<path d="M152.3,196.9c0.1,3.1-2.6,4.9-5,4.9c-2.9,0-5-2.2-5-4.9c0-2.6,2.1-4.8,5.1-4.8C149.7,192.1,152.4,194,152.3,196.9z"/>
</g>
</svg>
