<?xml version="1.0" encoding="utf-8"?>
<!-- Generator: Adobe Illustrator 25.0.0, SVG Export Plug-In . SVG Version: 6.00 Build 0)  -->
<svg version="1.1" id="Layer_1" xmlns="http://www.w3.org/2000/svg" xmlns:xlink="http://www.w3.org/1999/xlink" x="0px" y="0px"
	 viewBox="0 0 165 360" style="enable-background:new 0 0 165 360;" xml:space="preserve">
<style type="text/css">
	.st0{fill:#020203;}
</style>
<g>
	<path class="st0" d="M165,179.95c0,58.26,0,116.53,0,174.79c0,0.85,0,1.69-0.01,2.54c-0.01,0.35-0.03,0.7-0.09,1.05
		c-0.15,0.93-0.78,1.52-1.7,1.61c-0.28,0.03-0.56,0.04-0.84,0.04c-0.56,0.01-1.13,0.01-1.69,0.01c-52.08,0-104.17,0-156.26,0
		c-0.84,0-1.69,0-2.53-0.05c-0.95-0.06-1.57-0.62-1.75-1.54c-0.07-0.34-0.1-0.7-0.11-1.05c-0.02-0.7-0.01-1.41-0.01-2.11
		C0,238.51,0,121.77,0,5.02c0-0.85-0.02-1.69,0.04-2.53c0.1-1.72,0.8-2.38,2.53-2.46C3.15-0.01,3.71,0,4.27,0
		c52.22,0,104.45,0,156.68,0c0.7,0,1.41-0.01,2.11,0.06c1.11,0.1,1.77,0.8,1.89,1.92c0.04,0.35,0.04,0.7,0.05,1.05
		c0.01,0.77,0,1.55,0,2.32C165,63.56,165,121.76,165,179.95z M28.82,120.07c0,29.06,0,58.11,0,87.18c0,0.7,0,1.41,0,2.11
		c0,0.35,0.01,0.7,0.04,1.06c0.05,0.67,0.42,1.07,1.05,1.09c0.84,0.04,1.69,0.04,2.53,0.04c33.33,0,66.67,0,100,0
		c0.63,0,1.27,0,1.9-0.01c0.28,0,0.56-0.03,0.84-0.05c0.41-0.04,0.83-0.4,0.86-0.8c0.06-0.7,0.1-1.4,0.1-2.11
		c0.01-5.01,0-10.01,0-15.02c0-1.9,0-3.81,0-5.71c0-0.56-0.03-1.13-0.07-1.69c-0.04-0.54-0.42-0.94-0.93-0.98
		c-0.7-0.05-1.41-0.07-2.11-0.08c-0.72,0-1.39-0.17-2.06-0.39c-1.02-0.34-1.6-1.06-1.96-2.05c-0.43-1.21,0.17-3.32,1.83-3.79
		c0.55-0.15,1.08-0.32,1.65-0.33c0.56,0,1.13,0,1.69-0.02c0.35-0.01,0.7-0.03,1.05-0.06c0.4-0.04,0.77-0.42,0.83-0.84
		c0.04-0.28,0.07-0.56,0.08-0.84c0.01-0.7,0.01-1.41,0.01-2.11c0-47.4,0-94.8,0-142.19c0-0.7,0-1.41-0.01-2.11
		c-0.01-0.28-0.04-0.56-0.08-0.84c-0.05-0.42-0.42-0.82-0.82-0.86c-0.49-0.04-0.98-0.07-1.47-0.07c-1.9-0.01-3.8-0.03-5.7,0
		c-1.85,0.03-3.64-0.19-5.41-0.77c-1.4-0.46-2.84-0.83-4.26-1.22c-1.7-0.46-3.39-0.97-5.11-1.31c-2.55-0.51-5.13-0.91-7.69-1.34
		c-0.97-0.16-1.94-0.32-2.92-0.45c-1.95-0.26-3.9-0.54-5.86-0.74c-2.24-0.23-4.46-0.63-6.72-0.58c-1.97,0.04-3.94-0.03-5.9-0.3
		c-1.19-0.16-2.39-0.09-3.58,0.05c-0.91,0.1-1.82,0.17-2.74,0.2c-1.48,0.05-2.96,0.05-4.44,0.09c-0.63,0.02-1.27,0.05-1.89,0.12
		c-1.96,0.23-3.91,0.48-5.86,0.74c-1.6,0.21-3.21,0.43-4.8,0.68c-2.08,0.33-4.17,0.67-6.25,1.03c-2.22,0.39-4.43,0.78-6.6,1.43
		c-2.02,0.61-4.06,1.14-6.09,1.74c-1.43,0.42-2.88,0.65-4.37,0.63c-2.04-0.02-4.08-0.01-6.13,0c-0.56,0-1.13,0.03-1.69,0.07
		c-0.41,0.03-0.79,0.42-0.82,0.85c-0.05,0.84-0.08,1.69-0.08,2.53C28.82,61.39,28.82,90.73,28.82,120.07z M82.43,322.92
		c16.63,0,33.26,0,49.9,0c0.63,0,1.27,0.01,1.9-0.01c1.67-0.04,1.89-0.27,1.93-2.01c0.01-0.49,0.01-0.99,0.01-1.48
		c0-27.51,0-55.02,0-82.53c0-0.63,0-1.27-0.02-1.9c-0.01-0.28-0.07-0.56-0.12-0.83c-0.05-0.28-0.45-0.66-0.75-0.67
		c-0.77-0.04-1.55-0.08-2.32-0.08c-33.69,0-67.37,0-101.06,0c-0.28,0-0.56,0-0.85,0c-0.21,0-0.42,0-0.63,0.01
		c-1.22,0.05-1.53,0.32-1.58,1.48c-0.03,0.7-0.02,1.41-0.02,2.11c0,15.59,0,31.17,0,46.77c0,11.78,0,23.55,0,35.34
		c0,0.56-0.01,1.13,0,1.69c0.03,1.91,0.2,2.08,2.02,2.12c0.63,0.01,1.27,0,1.9,0C49.31,322.92,65.87,322.92,82.43,322.92z
		 M10.3,183.34c0,27.16,0,54.32,0,81.48c0,29.48,0,58.97,0,88.46c0,0.77,0,1.55,0.03,2.32c0.03,0.69,0.39,1.06,1.03,1.1
		c0.42,0.03,0.84,0.04,1.27,0.04c3.45,0,6.9,0,10.36,0c0.42,0,0.84-0.01,1.27-0.04c0.55-0.04,0.96-0.39,0.98-0.92
		c0.04-0.98,0.07-1.97,0.07-2.95c0-112.79,0-225.58,0-338.39c0-0.63,0-1.27,0-1.9c0-0.35-0.01-0.7-0.04-1.06
		c-0.05-0.67-0.41-1.06-1.04-1.11c-0.42-0.03-0.84-0.05-1.27-0.05c-3.45,0-6.9,0-10.36,0c-0.42,0-0.84,0.02-1.27,0.05
		c-0.54,0.04-0.95,0.41-0.97,0.93c-0.04,0.91-0.06,1.83-0.06,2.74C10.3,70.47,10.3,126.9,10.3,183.34z M154.69,183.54
		c0-56.29,0-112.57,0-168.86c0-0.77,0.01-1.55,0-2.32c-0.03-1.84-0.2-2.02-2.09-2.03c-3.59-0.02-7.18-0.01-10.79,0
		c-0.42,0-0.84,0.04-1.26,0.08c-0.4,0.04-0.78,0.43-0.81,0.85c-0.04,0.84-0.07,1.69-0.07,2.53c0,53.75,0,107.49,0,161.24
		c0,0.63,0,1.27,0.01,1.9c0.01,0.28,0.04,0.56,0.08,0.84c0.04,0.29,0.42,0.68,0.71,0.7c0.63,0.03,1.26,0.05,1.9,0.06
		c0.58,0.01,1.1-0.13,1.55-0.54c1.06-0.96,2.35-1.24,3.72-1.17c1.25,0.06,2.33,0.51,3.09,1.57c0.12,0.17,0.27,0.33,0.39,0.5
		c0.95,1.35,1.23,2.81,0.69,4.41c-0.35,1.03-0.97,1.89-1.81,2.55c-0.92,0.71-2.02,1.04-3.17,0.9c-0.97-0.12-1.95-0.35-2.72-1.05
		c-0.51-0.46-1.11-0.59-1.76-0.58c-0.56,0.01-1.13,0.01-1.69,0.05c-0.54,0.04-0.92,0.41-0.95,0.95c-0.04,0.84-0.06,1.69-0.06,2.53
		c0,54.88,0,109.75,0,164.63c0,0.56,0,1.13,0.01,1.69c0.01,0.28,0.03,0.56,0.06,0.84c0.05,0.43,0.41,0.82,0.81,0.85
		c0.49,0.04,0.98,0.06,1.48,0.06c3.45,0.01,6.9,0,10.36,0c0.42,0,0.84-0.01,1.27-0.04c0.55-0.04,0.95-0.39,0.97-0.92
		c0.04-0.91,0.06-1.83,0.06-2.74C154.69,296.53,154.69,240.03,154.69,183.54z M82.31,356.75c16.69,0,33.39,0,50.08,0
		c0.7,0,1.41,0,2.11-0.01c0.28-0.01,0.56-0.05,0.84-0.09c0.29-0.04,0.68-0.41,0.71-0.71c0.05-0.7,0.11-1.4,0.11-2.1
		c0.01-5.64,0.01-11.28,0.01-16.92c0-2.46,0-4.94,0-7.4c0-0.49,0-0.99-0.02-1.48c-0.05-1.17-0.4-1.55-1.5-1.6
		c-0.63-0.03-1.27-0.03-1.9-0.03c-33.53,0-67.06,0-100.59,0c-0.56,0-1.13,0-1.69,0.02c-0.28,0.01-0.56,0.05-0.83,0.12
		c-0.36,0.1-0.64,0.36-0.69,0.72c-0.08,0.55-0.12,1.12-0.12,1.68c-0.01,8.46,0,16.92,0,25.38c0,0.28,0,0.56,0.01,0.84
		c0.05,1.21,0.34,1.52,1.49,1.56c0.7,0.02,1.41,0.01,2.11,0.01C49.06,356.75,65.68,356.75,82.31,356.75z M82.7,214.81
		c-16.76,0-33.52,0-50.29,0c-0.77,0-1.55,0-2.32,0.02c-0.8,0.03-1.17,0.39-1.23,1.15c-0.01,0.14-0.03,0.28-0.03,0.42
		c0,3.95,0,7.89,0.01,11.84c0,0.28,0.05,0.56,0.12,0.83c0.09,0.37,0.36,0.66,0.71,0.7c0.84,0.09,1.68,0.14,2.52,0.14
		c33.52,0.01,67.05,0.01,100.57,0c0.56,0,1.13,0.01,1.69-0.02c1.28-0.05,1.63-0.41,1.69-1.64c0-0.07,0.01-0.14,0.01-0.21
		c0-3.88,0-7.75-0.01-11.63c0-0.28-0.06-0.56-0.11-0.84c-0.05-0.27-0.45-0.67-0.74-0.68c-0.77-0.04-1.54-0.08-2.32-0.08
		C116.23,214.81,99.46,214.81,82.7,214.81z M3.5,181.45c0,57.06,0,114.11,0,171.18c0,0.85,0,1.69,0.01,2.54
		c0,0.28,0.05,0.56,0.09,0.84c0.05,0.3,0.41,0.65,0.74,0.66c0.63,0.02,1.26,0.01,1.89,0c0.3-0.01,0.69-0.39,0.71-0.69
		c0.04-0.84,0.09-1.69,0.09-2.53c0-113.62,0-227.25,0-340.87c0-3.56,0.31-2.81-2.34-5.49c-0.14-0.16-0.31-0.3-0.48-0.41
		C4.1,6.61,3.93,6.57,3.82,6.61C3.71,6.64,3.58,6.79,3.57,6.9C3.53,7.74,3.5,8.58,3.5,9.44C3.5,66.77,3.5,124.11,3.5,181.45z
		 M82.54,10.31c-16.63,0-33.26,0-49.89,0c-0.63,0-1.27,0-1.9,0.01c-0.28,0-0.56,0.02-0.84,0.05c-0.63,0.06-0.99,0.45-1.05,1.11
		c-0.02,0.21-0.03,0.42-0.03,0.63c0,3.81-0.01,7.62,0,11.43c0,0.35,0.06,0.7,0.11,1.05c0.04,0.28,0.44,0.66,0.73,0.68
		c0.49,0.04,0.98,0.08,1.47,0.08c1.83,0.01,3.66-0.03,5.49,0.01c1.5,0.03,2.94-0.2,4.37-0.61c2.43-0.71,4.87-1.4,7.31-2.08
		c0.95-0.26,1.91-0.49,2.87-0.68c1.17-0.22,2.37-0.35,3.54-0.57c3.6-0.66,7.19-1.32,10.85-1.65c1.26-0.11,2.52-0.26,3.76-0.5
		c1.12-0.21,2.23-0.27,3.36-0.29c0.84-0.01,1.69-0.06,2.53-0.11c1.19-0.07,2.39-0.22,3.58-0.24c3.94-0.07,7.89-0.19,11.82,0.31
		c2.04,0,4.07,0.16,6.1,0.46c1.6,0.24,3.21,0.38,4.82,0.58c1.05,0.13,2.09,0.26,3.13,0.44c2.22,0.37,4.44,0.75,6.65,1.14
		c2.29,0.4,4.57,0.81,6.79,1.51c1.94,0.62,3.92,1.12,5.89,1.68c1.36,0.39,2.73,0.64,4.16,0.6c1.83-0.05,3.66-0.01,5.49-0.01
		c0.42,0,0.85-0.01,1.27-0.03c0.67-0.04,1.07-0.41,1.13-1.03c0.04-0.49,0.06-0.98,0.06-1.48c0.01-3.31,0-6.63,0-9.94
		c0-0.28,0-0.56-0.01-0.84c-0.05-1.33-0.34-1.65-1.61-1.69c-0.7-0.02-1.41-0.01-2.11-0.01C115.81,10.31,99.17,10.31,82.54,10.31z
		 M161.48,181.47c0-57.26,0-114.53,0-171.8c0-0.84-0.01-1.69-0.03-2.53c0-0.13-0.04-0.3-0.12-0.39c-0.07-0.08-0.28-0.16-0.35-0.11
		c-0.87,0.5-1.46,1.3-2.15,2c-0.41,0.42-0.59,0.95-0.6,1.54c-0.01,0.7-0.03,1.41-0.03,2.11c0,113.68,0,227.38,0,341.06
		c0,0.63,0,1.27,0.02,1.9c0.01,0.28,0.07,0.56,0.14,0.83c0.08,0.3,0.31,0.49,0.59,0.55c0.34,0.08,0.69,0.1,1.04,0.1
		c1.09,0,1.43-0.3,1.46-1.34c0.03-0.84,0.02-1.69,0.02-2.53C161.48,295.73,161.48,238.6,161.48,181.47z M82.46,3.5
		c-24.31,0-48.61,0-72.93,0c-0.7,0-1.41,0-2.11,0.01c-0.21,0-0.42,0.05-0.62,0.09C6.75,3.61,6.66,3.66,6.65,3.71
		C6.62,3.84,6.56,4.03,6.63,4.1C7.3,4.82,7.98,5.53,8.68,6.22c0.36,0.36,0.82,0.54,1.33,0.56c0.77,0.02,1.55,0.04,2.32,0.04
		c46.78,0,93.57,0,140.35,0c3.54,0,2.81,0.25,5.45-2.39c0.05-0.05,0.1-0.1,0.13-0.17c0.05-0.12,0.09-0.25,0.13-0.38
		c0.04-0.14-0.21-0.32-0.48-0.33c-0.77-0.02-1.55-0.04-2.32-0.04C131.22,3.5,106.84,3.5,82.46,3.5z"/>
	<path class="st0" d="M147.04,192.08c1.43,0.04,2.61,0.38,3.59,1.31c0.99,0.93,1.43,2.1,1.44,3.4c0.01,1.45-0.43,2.76-1.58,3.78
		c-0.77,0.68-1.65,1.06-2.66,1.16c-1.7,0.16-3.19-0.25-4.38-1.58c-0.85-0.95-1.16-2.1-1.16-3.31c0-1.3,0.44-2.47,1.41-3.41
		C144.68,192.46,145.87,192.16,147.04,192.08z"/>
</g>
</svg>
