<?xml version="1.0" encoding="utf-8"?>
<!-- Generator: Adobe Illustrator 25.0.0, SVG Export Plug-In . SVG Version: 6.00 Build 0)  -->
<svg version="1.1" id="Layer_1" xmlns="http://www.w3.org/2000/svg" xmlns:xlink="http://www.w3.org/1999/xlink" x="0px" y="0px"
	 viewBox="0 0 165 360" style="enable-background:new 0 0 165 360;" xml:space="preserve">
<g>
	<path d="M165,180.2c0,58.3,0,116.7,0,175c0,0.9,0,1.7,0,2.5c0,0.4-0.1,0.7-0.1,1c-0.2,0.6-0.6,1-1.2,1.1c-0.3,0.1-0.6,0.1-0.8,0.1
		c-0.8,0-1.6,0-2.3,0c-52,0-103.9,0-155.9,0c-0.9,0-1.8,0-2.8-0.1c-0.9-0.1-1.6-0.7-1.7-1.6C0.1,358,0,357.7,0,357.3
		c0-0.6,0-1.3,0-1.9C0,238.5,0,121.5,0,4.6c0-0.7,0-1.4,0-2.1c0-0.4,0.1-0.7,0.2-1.1c0.2-0.7,0.7-1.1,1.3-1.3C1.8,0.1,2.2,0,2.5,0
		c0.7,0,1.4,0,2.1,0c51.9,0,103.8,0,155.7,0c0.8,0,1.6,0,2.3,0c0.4,0,0.7,0.1,1,0.2c0.6,0.2,1.1,0.7,1.2,1.4
		c0.1,0.3,0.1,0.7,0.1,1.1c0,0.8,0,1.7,0,2.5C165,63.5,165,121.8,165,180.2z M25.1,183.6c0-56.2,0-112.4,0-168.6c0-0.8,0-1.6,0-2.3
		c0-2.1-0.2-2.3-2.3-2.3c-3.4,0-6.8,0-10.2,0c-0.4,0-0.8,0-1.3,0.1c-0.5,0.1-1,0.4-1,0.9c-0.1,0.9-0.1,1.8-0.1,2.7
		c0,113,0,226,0,339c0,0.6,0,1.1,0,1.7c0,1.8,0.2,2,2.1,2c3.5,0,7.1,0,10.6,0c0.3,0,0.6,0,0.8,0c0.8-0.1,1.2-0.4,1.2-1.2
		c0.1-0.9,0.1-1.8,0.1-2.7C25.1,296.4,25.1,240,25.1,183.6z M155,183.6c0-56.4,0-112.7,0-169.1c0-0.7,0-1.4,0-2.1c0-0.4,0-0.7,0-1.1
		c-0.1-0.6-0.4-1-1.1-1.1c-0.2,0-0.4,0-0.6,0c-3.8,0-7.6,0-11.4,0c-0.4,0-0.7,0.1-1.1,0.1c-0.3,0-0.7,0.4-0.7,0.7
		c-0.1,0.7-0.1,1.4-0.1,2.1c0,31.5,0,63.1,0,94.6c0,1.1-0.1,2.1,0.4,3.1c0.1,0.3,0.1,0.7,0.1,1c0,0.6,0,1.3-0.2,1.9
		c-0.4,1.7-0.4,3.4-0.4,5.1c0,18.7,0,37.4,0,56.1c0,0.6,0,1.3,0,1.9c0,0.3,0,0.6,0.1,0.8c0,0.3,0.4,0.7,0.7,0.7
		c1.3,0.1,2.7,0.3,3.8-0.8c0.1-0.1,0.2-0.2,0.4-0.2c1.7-1,4.8-1.1,6.4,1.3c1.4,2,1.2,3.9,0.3,5.6c-0.4,0.7-1,1.4-1.7,1.8
		c-1.7,0.8-3.4,0.9-5.1-0.1c-0.3-0.2-0.6-0.4-0.9-0.6c-0.2-0.1-0.5-0.3-0.8-0.3c-0.8,0-1.5,0-2.3,0c-0.4,0-0.8,0.4-0.8,0.9
		c0,0.8-0.1,1.7-0.1,2.5c0,54.9,0,109.8,0,164.6c0,0.5,0,1,0,1.5c0,1.9,0.2,2,2.1,2.1c3.7,0,7.3,0,11,0c0.4,0,0.7,0,1.1-0.1
		c0.4,0,0.8-0.4,0.8-0.8c0-0.9,0.1-1.8,0.1-2.7C155,296.6,155,240.1,155,183.6z M82.4,356.7c16.8,0,33.6,0,50.4,0c0.6,0,1.3,0,1.9,0
		c0.3,0,0.6,0,0.8-0.1c0.4,0,0.8-0.4,0.8-0.9c0.1-0.8,0.1-1.5,0.1-2.3c0-9,0-18,0-27.1c0-0.6,0-1.3,0-1.9c0-0.2-0.1-0.4-0.1-0.6
		c-0.1-0.3-0.4-0.7-0.7-0.7c-0.8,0-1.7-0.1-2.5-0.1c-33.7,0-67.5,0-101.2,0c-0.4,0-0.7,0-1.1,0c-2.1,0-2.2,0.1-2.2,2.3
		c0,9.7,0,19.3,0,29c0,0.5,0,1,0.1,1.5c0,0.4,0.4,0.8,0.9,0.8c0.8,0,1.6,0.1,2.3,0.1C48.7,356.7,65.5,356.7,82.4,356.7z M82.2,41.5
		c16.8,0,33.6,0,50.4,0c0.7,0,1.4,0,2.1,0c0.3,0,0.6-0.1,0.8-0.1c0.3,0,0.7-0.4,0.7-0.7c0.1-0.6,0.1-1.1,0.1-1.7
		c0-8.7,0-17.5,0-26.2c0-0.4,0-0.9,0-1.3c-0.1-0.7-0.5-1.1-1.2-1.2c-0.8,0-1.6,0-2.3,0c-33.5,0-67.1,0-100.6,0c-0.6,0-1.3,0-1.9,0
		c-0.3,0-0.6,0-0.8,0.1c-0.4,0.1-0.8,0.4-0.8,0.8c0,0.6-0.1,1.3-0.1,1.9c0,8.5,0,17.1,0,25.6c0,0.5,0,1,0,1.5c0,0.9,0.4,1.2,1.3,1.3
		c0.8,0,1.6,0,2.3,0C48.9,41.5,65.6,41.5,82.2,41.5z M82.5,49.8c-4.5,0-8.9,0-13.3,0c-12.4,0-24.8,0-37.3,0c-3.5,0-3.3-0.2-3.3,3.4
		c0,4.4,0,8.7,0,13.1c0,2.4,0,4.8,0,7.2c0,0.5,0,1,0.1,1.5c0,0.3,0.4,0.7,0.7,0.7c0.8,0,1.6,0.1,2.3,0.1c33.9,0,67.8,0,101.7,0
		c0.3,0,0.6,0,0.8,0c2.1,0,2.2-0.1,2.2-2.3c0-3,0-5.9,0-8.9c0-4,0-8,0-12.1c0-0.6-0.1-1.3-0.1-1.9c0-0.3-0.4-0.7-0.7-0.7
		c-0.8-0.1-1.5-0.1-2.3-0.1C116.3,49.8,99.4,49.8,82.5,49.8z M82.5,280.6c16.7,0,33.5,0,50.2,0c0.7,0,1.4,0,2.1,0
		c0.3,0,0.6,0,0.8-0.1c0.3,0,0.7-0.4,0.7-0.7c0.1-0.6,0.1-1.3,0.1-1.9c0-6.8,0-13.7,0-20.5c0-0.5,0-1,0-1.5
		c-0.1-0.8-0.4-1.2-1.2-1.2c-0.8,0-1.6,0-2.3,0c-33.6,0-67.2,0-100.8,0c-0.6,0-1.3,0-1.9,0c-0.3,0-0.6,0-0.8,0.1
		c-0.3,0-0.7,0.4-0.7,0.7c0,0.6-0.1,1.3-0.1,1.9c0,6.8,0,13.7,0,20.5c0,0.5,0,1,0,1.5c0,0.8,0.4,1.2,1.1,1.2c0.8,0,1.6,0,2.3,0
		C48.9,280.6,65.7,280.6,82.5,280.6z M82.2,110c16.8,0,33.6,0,50.4,0c0.7,0,1.4,0,2.1,0c0.3,0,0.6,0,0.8-0.1c0.3,0,0.7-0.4,0.7-0.7
		c0.1-0.6,0.1-1.3,0.1-1.9c0-6.8,0-13.7,0-20.5c0-0.4,0-0.9,0-1.3c-0.1-1.1-0.4-1.4-1.4-1.5c-0.7,0-1.4,0-2.1,0
		c-33.6,0-67.2,0-100.8,0c-0.7,0-1.4,0-2.1,0c-0.2,0-0.4,0-0.6,0.1c-0.3,0-0.7,0.4-0.7,0.7c0,0.6-0.1,1.3-0.1,1.9
		c0,6.8,0,13.7,0,20.5c0,0.4,0,0.7,0,1.1c0,1.4,0.3,1.6,1.6,1.7c0.6,0,1.3,0,1.9,0C48.8,110,65.5,110,82.2,110z M82.4,178.1
		c16.9,0,33.7,0,50.6,0c0.7,0,1.4,0,2.1,0c0.2,0,0.4-0.1,0.6-0.1c0.3-0.1,0.5-0.3,0.6-0.6c0.1-0.6,0.1-1.1,0.1-1.7
		c0-7.1,0-14.1,0-21.2c0-0.4,0-0.9,0-1.3c-0.1-0.7-0.4-1.1-1.1-1.1c-0.8,0-1.6,0-2.3,0c-33.7,0-67.3,0-101,0c-0.7,0-1.4,0-2.1,0
		c-0.2,0-0.4,0.1-0.6,0.1c-0.3,0.1-0.5,0.3-0.6,0.6c-0.1,0.6-0.1,1.1-0.1,1.7c0,7.1,0,14.1,0,21.2c0,0.4,0,0.9,0,1.3
		c0,0.7,0.4,1.1,1,1.1c0.8,0,1.6,0,2.3,0C48.8,178.1,65.6,178.1,82.4,178.1z M82.5,246.3c16.6,0,33.2,0,49.8,0c0.6,0,1.3,0,1.9,0
		c2.1,0,2.2-0.2,2.3-2.3c0-7,0-14,0-20.9c0-0.5,0-1-0.1-1.5c0-0.4-0.4-0.8-0.8-0.8c-0.9-0.1-1.8-0.1-2.7-0.1c-33.5,0-67.1,0-100.6,0
		c-0.6,0-1.3,0-1.9,0c-0.3,0-0.6,0.1-0.8,0.1c-0.4,0.1-0.8,0.5-0.8,0.9c0,0.4-0.1,0.7-0.1,1.1c0,7.3,0,14.5,0,21.8
		c0,0.4,0,0.7,0.1,1.1c0,0.3,0.4,0.7,0.7,0.7c0.8,0,1.7,0.1,2.5,0.1C48.8,246.3,65.6,246.3,82.5,246.3z M82.4,288.9
		c-16.8,0-33.6,0-50.4,0c-0.7,0-1.4,0-2.1,0c-1,0-1.3,0.3-1.3,1.2c0,0.5,0,1,0,1.5c0,6.7,0,13.4,0,20.1c0,0.4,0,0.8,0,1.3
		c0,1.2,0.3,1.4,1.6,1.5c0.6,0,1.3,0,1.9,0c33.6,0,67.2,0,100.8,0c0.5,0,1,0,1.5,0c0.3,0,0.6,0,0.8,0c0.9-0.1,1.2-0.4,1.3-1.4
		c0-0.5,0-1,0-1.5c0-6.6,0-13.2,0-19.9c0-0.5,0-1,0-1.5c0-0.2-0.1-0.4-0.1-0.6c-0.1-0.3-0.5-0.7-0.8-0.7c-0.8,0-1.6-0.1-2.3-0.1
		C116.3,288.9,99.4,288.9,82.4,288.9z M82.4,143.9c16.7,0,33.4,0,50.2,0c0.7,0,1.4,0,2.1,0c0.3,0,0.6,0,0.8-0.1
		c0.4-0.1,0.8-0.4,0.8-0.9c0.1-0.6,0.1-1.3,0.1-1.9c0-6.6,0-13.2,0-19.9c0-0.5,0-1,0-1.5c0-0.2-0.1-0.4-0.1-0.6
		c-0.1-0.3-0.4-0.7-0.7-0.7c-0.8,0-1.7-0.1-2.5-0.1c-33.7,0-67.5,0-101.2,0c-0.4,0-0.7,0-1.1,0c-2.1,0-2.2,0.1-2.2,2.3
		c0,7,0,14,0,20.9c0,0.5,0,1,0.1,1.5c0,0.4,0.4,0.8,0.9,0.8c0.8,0,1.6,0.1,2.3,0.1C48.7,143.9,65.5,143.9,82.4,143.9z M82.4,212.1
		c16.7,0,33.3,0,50,0c0.7,0,1.4,0,2.1,0c0.4,0,0.7-0.1,1.1-0.1c0.4-0.1,0.8-0.5,0.8-0.9c0.1-0.5,0.1-1,0.1-1.5c0-7,0-14,0-21
		c0-0.4,0-0.8-0.1-1.3c-0.1-0.5-0.4-0.9-0.9-1c-0.8,0-1.7-0.1-2.5-0.1c-28.5,0-57.1,0-85.6,0c-5.2,0-10.3,0-15.5,0
		c-0.6,0-1.3,0-1.9,0.1c-0.5,0-0.9,0.4-1,1c-0.1,1-0.1,2-0.1,3c0,2.1,0.1,4.2-0.2,6.3c-0.1,0.5,0,1,0,1.5c0,3.8,0,7.6,0,11.4
		c0,0.4,0,0.9,0,1.3c0,0.7,0.4,1.1,1.2,1.2c0.8,0,1.6,0,2.3,0C48.9,212.1,65.6,212.1,82.4,212.1z M3.5,181.3c0,57.1,0,114.3,0,171.4
		c0,0.9,0,1.7,0,2.5c0,0.3,0.1,0.6,0.1,0.8c0.1,0.3,0.3,0.5,0.6,0.6c0.5,0.1,1,0.1,1.5,0.1c0.6,0,1-0.4,1-0.9c0-1,0.1-2,0.1-3
		c0-113.3,0-226.7,0-340c0-0.5,0-1,0-1.5c0-0.4,0-0.7,0-1.1C6.7,9.6,6.5,9,6,8.5C5.5,8,5,7.4,4.4,6.9C4.3,6.8,4,6.7,3.9,6.7
		C3.7,6.6,3.5,6.9,3.5,7.4c0,0.8,0,1.7,0,2.5C3.5,67,3.5,124.2,3.5,181.3z M161.5,181.5c0-57.1,0-114.2,0-171.4c0-0.8,0-1.6,0-2.3
		c0-0.3,0-0.6-0.1-0.8c0-0.1-0.2-0.2-0.3-0.3c0,0-0.1,0-0.2,0c-0.7,0.4-1.1,1.1-1.6,1.7c-0.6,0.6-0.8,1.3-0.8,2.1c0,0.9,0,1.8,0,2.8
		c0,113,0,225.9,0,338.9c0,0.6,0,1.3,0,1.9c0,0.4,0,0.9,0,1.3c0.1,1,0.4,1.4,1.5,1.4c0.1,0,0.3,0,0.4,0c0.5-0.1,1-0.4,1-0.9
		c0.1-1,0.1-2,0.1-3C161.5,295.7,161.5,238.6,161.5,181.5z M82.6,3.5c-17,0-34,0-51,0c-7.7,0-15.4,0-23.1,0c-0.6,0-1.3-0.2-1.8,0.3
		C6.5,4.6,7.3,4.9,7.7,5.4C8,5.7,8.3,6,8.7,6.3C9,6.6,9.4,6.7,9.8,6.8c0.7,0,1.4,0.1,2.1,0.1c47.2,0,94.3,0,141.5,0
		c3,0,2.5,0.2,4.8-2.3c0.1-0.1,0.1-0.1,0.1-0.2c0-0.1,0-0.1,0.1-0.2c0.1-0.2-0.1-0.5-0.3-0.5c-0.8-0.3-1.7-0.1-2.5-0.1
		C131.3,3.5,106.9,3.5,82.6,3.5z M82.2,148.9c16.9,0,33.9,0,50.8,0c0.7,0,1.4,0,2.1,0c0.2,0,0.4-0.1,0.6-0.1
		c0.3-0.1,0.6-0.5,0.5-0.8c0-0.4-0.3-0.8-0.6-0.8c-0.7-0.1-1.4-0.1-2.1-0.1c-9,0-18.1,0-27.1,0c-24.8,0-49.7,0-74.5,0
		c-0.8,0-1.6,0-2.3,0c-0.2,0-0.4,0.1-0.6,0.1c-0.3,0.1-0.4,0.4-0.4,0.7c0,0.4,0.2,0.8,0.5,0.9c0.8,0.1,1.5,0.1,2.3,0.1
		C48.4,148.9,65.3,148.9,82.2,148.9z M82.2,80.8c17,0,34,0,51.1,0c0.8,0,1.6,0,2.3-0.1c0.4,0,0.7-0.5,0.7-0.9c0-0.4-0.3-0.7-0.7-0.7
		c-0.8,0-1.7-0.1-2.5-0.1c-33.7,0-67.5,0-101.3,0c-0.6,0-1.3,0-1.9,0c-0.2,0-0.4,0-0.6,0.1c-0.4,0.1-0.7,0.5-0.7,0.9
		c0,0.4,0.3,0.7,0.7,0.7c0.8,0,1.5,0.1,2.3,0.1C48.5,80.8,65.4,80.8,82.2,80.8z M82.5,285.6c16.7,0,33.5,0,50.2,0c0.7,0,1.4,0,2.1,0
		c0.3,0,0.6,0,0.8-0.1c0.4-0.1,0.7-0.5,0.6-0.9c-0.1-0.4-0.3-0.7-0.7-0.7c-0.8,0-1.7-0.1-2.5-0.1c-33.7,0-67.5,0-101.2,0
		c-0.7,0-1.4,0-2.1,0c-0.2,0-0.4,0-0.6,0.1c-0.2,0.1-0.3,0.3-0.4,0.5c-0.2,0.5,0.2,1.1,0.6,1.1c0.8,0.1,1.6,0.1,2.3,0.1
		C48.6,285.6,65.6,285.6,82.5,285.6z M82.4,217.1c16.9,0,33.7,0,50.6,0c0.8,0,1.6,0,2.3-0.1c0.2,0,0.4-0.1,0.6-0.2
		c0.2-0.1,0.3-0.3,0.3-0.5c0-0.2-0.1-0.4-0.2-0.5c-0.1-0.1-0.4-0.2-0.6-0.2c-0.8,0-1.6-0.1-2.3-0.1c-33.7,0-67.5,0-101.2,0
		c-0.7,0-1.4,0-2.1,0c-0.2,0-0.4,0.1-0.6,0.1c-0.2,0-0.5,0.5-0.4,0.7c0.1,0.2,0.2,0.4,0.3,0.5c0.2,0.1,0.4,0.2,0.6,0.2
		c0.8,0,1.6,0,2.3,0C48.8,217.1,65.6,217.1,82.4,217.1z M82.6,113.2c-16.9,0-33.7,0-50.6,0c-0.8,0-1.6,0-2.3,0
		c-0.2,0-0.4,0.1-0.6,0.2c-0.2,0.1-0.3,0.3-0.3,0.5c0,0.2,0.1,0.4,0.2,0.5c0.2,0.2,0.5,0.3,0.8,0.3c0.8,0.1,1.7,0.1,2.5,0.1
		c33.5,0,66.9,0,100.4,0c0.6,0,1.3,0,1.9,0c0.3,0,0.6,0,0.8-0.1c0.2,0,0.4-0.1,0.6-0.2c0.1-0.1,0.3-0.4,0.3-0.5
		c0-0.2-0.1-0.4-0.3-0.5c-0.2-0.1-0.4-0.2-0.6-0.2c-0.8,0-1.6,0-2.3,0C116.2,113.2,99.4,113.2,82.6,113.2z M82.2,251.4
		c16.9,0,33.7,0,50.6,0c0.8,0,1.6,0,2.3,0c0.2,0,0.4-0.1,0.6-0.1c0.2,0,0.5-0.4,0.4-0.7c-0.1-0.2-0.2-0.4-0.3-0.5
		c-0.2-0.1-0.5-0.2-0.8-0.2c-0.7,0-1.4,0-2.1,0c-33.7,0-67.3,0-101,0c-0.5,0-1,0-1.5,0c-0.3,0-0.6,0-0.8,0.1c-0.1,0-0.3,0.1-0.4,0.1
		c-0.3,0.1-0.6,0.5-0.5,0.8c0.1,0.3,0.3,0.5,0.6,0.5c0.8,0,1.5,0.1,2.3,0.1C48.5,251.4,65.4,251.4,82.2,251.4z M82.4,46.5
		c16.8,0,33.6,0,50.4,0c0.7,0,1.4,0,2.1,0c0.3,0,0.6-0.1,0.8-0.1c0.2,0,0.5-0.4,0.5-0.6c0-0.3-0.2-0.6-0.4-0.7
		c-0.3-0.1-0.6-0.1-0.8-0.2c-0.7,0-1.4,0-2.1,0C99.3,45,65.6,45,32,45c-0.6,0-1.1,0-1.7,0c-0.3,0-0.6,0-0.8,0.1
		c-0.5,0.1-0.8,0.4-0.8,0.8c0.1,0.3,0.4,0.6,0.7,0.6c0.8,0,1.6,0.1,2.3,0.1C48.7,46.5,65.5,46.5,82.4,46.5z M82.7,317.9
		c-16.8,0-33.6,0-50.4,0c-0.8,0-1.6,0-2.3,0c-0.3,0-0.6,0.1-0.8,0.2c-0.2,0.1-0.4,0.4-0.4,0.7s0.2,0.6,0.4,0.7
		c0.3,0.1,0.6,0.2,0.8,0.2c0.8,0,1.6,0,2.3,0c33.4,0,66.9,0,100.4,0c0.6,0,1.1,0,1.7,0c0.3,0,0.6,0,0.8,0c0.2,0,0.4-0.1,0.6-0.2
		c0.2-0.1,0.4-0.4,0.4-0.7c0-0.3-0.2-0.6-0.4-0.7c-0.3-0.1-0.6-0.2-0.8-0.2c-0.8,0-1.6,0-2.3,0C116,317.9,99.3,317.9,82.7,317.9z
		 M78.7,181.4c-15.5,0-31.1,0-46.6,0c-0.8,0-1.6,0-2.3,0c-0.2,0-0.4,0-0.6,0.1c-0.2,0.1-0.3,0.3-0.4,0.5c-0.1,0.2,0.1,0.7,0.3,0.7
		c0.3,0.1,0.5,0.2,0.8,0.2c0.7,0,1.4,0,2.1,0c31.3,0,62.7,0,94,0c0.6,0,1.3,0,1.9,0c0.2,0,0.4-0.1,0.6-0.1c0.1-0.1,0.2-0.2,0.3-0.3
		c0.1-0.4-0.2-1-0.5-1c-0.8-0.1-1.5-0.1-2.3-0.1C110.1,181.4,94.4,181.4,78.7,181.4z"/>
	<path d="M147.5,192c1.3,0.1,2.4,0.4,3.4,1.3c0.7,0.7,1.2,1.4,1.3,2.3c0.3,1.7,0.1,3.4-1.3,4.7c-1.6,1.6-4.5,1.9-6.4,0.6
		c-0.2-0.1-0.3-0.3-0.5-0.4c-1.8-1.3-2.2-4-1.2-5.9c0.8-1.4,2.1-2.3,3.7-2.5C146.9,192.1,147.3,192.1,147.5,192z"/>
</g>
</svg>
