<?xml version="1.0" encoding="utf-8"?>
<!-- Generator: Adobe Illustrator 25.0.0, SVG Export Plug-In . SVG Version: 6.00 Build 0)  -->
<svg version="1.1" id="Layer_1" xmlns="http://www.w3.org/2000/svg" xmlns:xlink="http://www.w3.org/1999/xlink" x="0px" y="0px"
	 viewBox="0 0 165 360" style="enable-background:new 0 0 165 360;" xml:space="preserve">
<style type="text/css">
	.st0{fill:#020203;}
</style>
<g>
	<path class="st0" d="M0,180.17C0,121.97,0,63.79,0,5.59c0-0.77,0-1.55,0-2.32c0-0.35,0.01-0.71,0.04-1.06
		C0.18,0.87,0.87,0.17,2.2,0.05c0.35-0.03,0.7-0.04,1.06-0.04c0.7-0.01,1.41,0,2.11,0c51.45,0,102.89,0,154.33,0
		c0.92,0,1.83-0.02,2.75,0.02c1.74,0.08,2.39,0.73,2.51,2.47c0.02,0.35,0.02,0.7,0.03,1.06c0,0.7,0,1.41,0,2.11
		c0,116.38,0,232.77,0,349.15c0,0.92,0.01,1.83-0.03,2.75c-0.02,0.42-0.09,0.84-0.22,1.24c-0.19,0.57-0.61,0.94-1.2,1.07
		c-0.27,0.06-0.56,0.09-0.84,0.09c-0.7,0.02-1.41,0.02-2.11,0.02c-52.08,0-104.16,0-156.23,0c-0.84,0-1.69,0-2.53-0.05
		c-0.83-0.05-1.46-0.6-1.65-1.4c-0.08-0.34-0.13-0.69-0.14-1.04c-0.02-0.84-0.02-1.69-0.02-2.54C0,296.69,0,238.42,0,180.17z
		 M28.86,99.75c0,22.22,0,44.43,0,66.66c0,0.7,0,1.41,0.01,2.11c0.01,0.35,0.03,0.7,0.07,1.05c0.06,0.53,0.43,0.95,0.94,0.98
		c0.91,0.06,1.83,0.1,2.74,0.1c33.26,0,66.53,0,99.78,0c0.63,0,1.27,0,1.9-0.01c0.28-0.01,0.56-0.04,0.84-0.08
		c0.51-0.07,0.91-0.46,0.94-0.98c0.05-0.91,0.08-1.83,0.08-2.74c0-44.87,0-89.72,0-134.59c0-0.63,0-1.27-0.01-1.9
		c-0.01-0.28-0.04-0.56-0.07-0.84c-0.05-0.42-0.42-0.82-0.82-0.84c-0.84-0.04-1.69-0.07-2.53-0.07c-33.48,0-66.95,0-100.42,0
		c-0.56,0-1.13,0-1.69,0.01c-0.28,0.01-0.56,0.03-0.84,0.06c-0.41,0.05-0.8,0.42-0.83,0.84c-0.05,0.84-0.08,1.69-0.08,2.53
		C28.86,54.6,28.86,77.18,28.86,99.75z M82.5,233.39c-8.52,0-17.05,0-25.58,0c-8.31,0-16.63,0-24.94,0c-0.7,0-1.41,0.02-2.11,0.06
		c-0.52,0.03-0.91,0.42-0.94,0.96c-0.04,0.84-0.07,1.69-0.07,2.53c0,27.44,0,54.87,0,82.31c0,0.63,0,1.27,0.01,1.9
		c0.01,0.28,0.04,0.56,0.08,0.84c0.05,0.41,0.43,0.81,0.83,0.83c0.84,0.04,1.69,0.08,2.53,0.08c33.47,0,66.95,0,100.41,0
		c0.56,0,1.13,0,1.69-0.01c0.28-0.01,0.56-0.03,0.84-0.07c0.4-0.05,0.79-0.43,0.82-0.85c0.05-0.84,0.09-1.69,0.09-2.53
		c0-27.51,0-55.01,0-82.52c0-0.63,0-1.27-0.01-1.9c-0.01-0.28-0.05-0.56-0.09-0.84c-0.04-0.29-0.42-0.69-0.71-0.7
		c-0.84-0.05-1.69-0.1-2.53-0.1C116.04,233.39,99.27,233.39,82.5,233.39z M10.32,183.3c0,56.49,0,112.98,0,169.47
		c0,0.85-0.01,1.69,0.02,2.53c0.03,1.07,0.34,1.37,1.39,1.42c0.28,0.01,0.56,0.01,0.84,0.01c3.52,0,7.04,0,10.57,0
		c0.42,0,0.84-0.02,1.26-0.06c0.42-0.03,0.83-0.4,0.85-0.81c0.05-0.84,0.08-1.69,0.08-2.53c0-113.2,0-226.38,0-339.58
		c0-0.56,0-1.13-0.01-1.69c-0.01-0.28-0.03-0.56-0.07-0.84c-0.05-0.42-0.42-0.81-0.82-0.84c-0.49-0.04-0.98-0.08-1.47-0.08
		c-3.45-0.01-6.9-0.01-10.36,0c-0.42,0-0.84,0.02-1.26,0.05c-0.54,0.04-0.94,0.41-0.97,0.93c-0.04,0.91-0.06,1.83-0.06,2.74
		C10.32,70.46,10.32,126.88,10.32,183.3z M154.7,183.54c0-56.36,0-112.72,0-169.08c0-0.7,0.01-1.41,0-2.11
		c-0.03-1.85-0.18-2.02-2.08-2.03c-3.59-0.02-7.18-0.01-10.79,0c-0.42,0-0.84,0.04-1.26,0.08c-0.4,0.04-0.79,0.43-0.81,0.85
		c-0.05,0.84-0.08,1.69-0.08,2.53c0,53.75,0,107.5,0,161.26c0,0.63,0,1.27,0.01,1.9c0.01,0.28,0.05,0.56,0.09,0.84
		c0.04,0.29,0.42,0.69,0.72,0.7c0.84,0.03,1.69,0.05,2.53,0.02c0.26-0.01,0.55-0.14,0.78-0.27c0.3-0.18,0.55-0.44,0.85-0.63
		c1.26-0.79,2.6-1.01,4.04-0.57c0.98,0.3,1.78,0.84,2.41,1.63c1.08,1.34,1.52,2.81,0.94,4.54c-0.28,0.84-0.75,1.5-1.36,2.09
		c-1.47,1.44-3.09,1.81-5.03,1.18c-0.48-0.15-0.93-0.35-1.31-0.67c-0.63-0.54-1.36-0.69-2.16-0.67c-0.49,0.02-0.99,0.02-1.48,0.05
		c-0.54,0.04-0.94,0.41-0.96,0.94c-0.04,0.91-0.07,1.83-0.07,2.74c0,54.74,0,109.48,0,164.21c0,0.63,0,1.27,0.01,1.9
		c0,0.28,0.03,0.56,0.06,0.84c0.05,0.43,0.4,0.83,0.8,0.86c0.49,0.04,0.98,0.07,1.48,0.07c3.45,0.01,6.9,0,10.36,0
		c0.35,0,0.7,0,1.06-0.02c0.81-0.04,1.2-0.38,1.22-1.14c0.03-0.84,0.03-1.69,0.03-2.54C154.7,296.54,154.7,240.05,154.7,183.54z
		 M82.28,356.75c16.69,0,33.38,0,50.08,0c0.7,0,1.41,0,2.11-0.01c0.28,0,0.56-0.03,0.84-0.07c0.29-0.03,0.7-0.4,0.73-0.68
		c0.06-0.56,0.11-1.12,0.11-1.68c0.01-8.46,0.01-16.91,0-25.38c0-0.49-0.03-0.98-0.08-1.47c-0.05-0.52-0.44-0.93-0.96-0.96
		c-0.91-0.05-1.83-0.09-2.74-0.09c-33.24,0-66.49,0-99.72,0c-0.63,0-1.27,0-1.9,0.01c-0.28,0.01-0.56,0.04-0.84,0.07
		c-0.53,0.06-0.94,0.44-0.98,0.95c-0.05,0.7-0.08,1.4-0.08,2.11c-0.01,6.42,0,12.83,0,19.25c0,1.9-0.01,3.81,0.01,5.71
		c0,0.49,0.05,0.98,0.1,1.47c0.03,0.28,0.43,0.68,0.72,0.69c0.77,0.04,1.54,0.08,2.32,0.08C48.77,356.75,65.53,356.75,82.28,356.75z
		 M82.52,211.56c16.27,0,32.55,0,48.82,0c0.84,0,1.69,0.01,2.53,0c2.15-0.02,2.27-0.13,2.28-2.27c0.01-4.73,0.01-9.44,0-14.17
		c0-0.49-0.04-0.98-0.09-1.47c-0.04-0.4-0.44-0.79-0.85-0.81c-0.84-0.04-1.69-0.06-2.53-0.06c-33.46,0-66.92,0-100.37,0
		c-0.7,0-1.41,0-2.11,0.02c-0.21,0.01-0.42,0.06-0.62,0.11c-0.29,0.08-0.47,0.3-0.57,0.57c-0.05,0.13-0.08,0.27-0.1,0.41
		c-0.03,0.28-0.04,0.56-0.04,0.84c0,4.94,0,9.87,0,14.8c0,0.42,0.06,0.84,0.11,1.26c0.03,0.28,0.44,0.67,0.73,0.69
		c0.77,0.04,1.55,0.08,2.32,0.08C48.86,211.56,65.7,211.56,82.52,211.56z M82.52,189.53C82.52,189.52,82.52,189.52,82.52,189.53
		c15.15,0,30.3,0,45.44,0c2.04,0,4.08,0.01,6.13,0c1.87-0.01,2.06-0.2,2.06-2.06c0-0.49-0.04-0.98-0.09-1.47
		c-0.04-0.4-0.43-0.77-0.86-0.8c-0.77-0.05-1.55-0.08-2.32-0.08c-0.72,0-1.39-0.17-2.06-0.42c-1.28-0.47-1.85-1.46-1.99-2.74
		c-0.13-1.22,0.72-2.54,1.86-3.03c0.53-0.22,1.07-0.35,1.64-0.36c0.84-0.01,1.69-0.01,2.53-0.03c0.82-0.03,1.21-0.38,1.24-1.12
		c0.03-0.7,0.03-1.41,0-2.11c-0.03-0.67-0.41-1.07-1.05-1.1c-0.84-0.04-1.69-0.05-2.53-0.05c-33.33,0-66.66,0-99.98,0
		c-0.63,0-1.27,0-1.9,0.01c-0.28,0-0.56,0.03-0.84,0.06c-0.42,0.05-0.82,0.41-0.86,0.81c-0.05,0.42-0.09,0.84-0.09,1.26
		c-0.01,3.74-0.01,7.47,0,11.22c0,0.42,0.05,0.84,0.1,1.26c0.03,0.28,0.43,0.68,0.72,0.69c0.77,0.04,1.54,0.08,2.32,0.08
		C48.85,189.53,65.69,189.53,82.52,189.53z M82.29,25.34c16.7,0,33.4,0,50.1,0c0.7,0,1.41,0.01,2.11-0.01
		c1.32-0.03,1.6-0.32,1.65-1.62c0.01-0.21,0.01-0.42,0.01-0.63c0-3.53,0-7.05,0-10.58c0-0.42-0.04-0.84-0.08-1.26
		c-0.04-0.42-0.42-0.82-0.82-0.84c-0.84-0.05-1.69-0.08-2.53-0.08c-33.47,0-66.94,0-100.4,0c-0.63,0-1.27,0-1.9,0.02
		c-0.28,0.01-0.56,0.06-0.83,0.13c-0.29,0.07-0.51,0.28-0.57,0.57c-0.08,0.41-0.15,0.83-0.15,1.25c-0.01,3.74-0.01,7.47,0,11.22
		c0,0.35,0.05,0.7,0.09,1.05c0.04,0.3,0.41,0.69,0.7,0.71c0.77,0.05,1.54,0.1,2.32,0.1C48.75,25.34,65.52,25.34,82.29,25.34z
		 M82.61,214.81c-16.77,0-33.55,0-50.32,0c-0.7,0-1.41,0-2.11,0.02c-0.21,0.01-0.42,0.06-0.62,0.11c-0.29,0.08-0.51,0.3-0.56,0.58
		c-0.09,0.48-0.14,0.97-0.14,1.46c-0.01,3.53-0.01,7.05,0,10.59c0,0.42,0.03,0.84,0.07,1.26c0.05,0.53,0.43,0.95,0.94,0.98
		c0.91,0.06,1.83,0.1,2.74,0.1c33.27,0,66.53,0,99.79,0c0.56,0,1.13,0.01,1.69-0.01c1.78-0.04,2.05-0.29,2.06-2.13
		c0.02-3.67,0.01-7.34,0-11.01c0-0.35-0.04-0.7-0.08-1.05c-0.05-0.42-0.42-0.82-0.82-0.84c-0.77-0.04-1.55-0.07-2.32-0.07
		C116.16,214.81,99.39,214.81,82.61,214.81z M161.49,181.45c0-57.13,0-114.26,0-171.39c0-0.7,0-1.41,0-2.11
		c0-0.28-0.01-0.56-0.03-0.84c-0.01-0.29-0.15-0.52-0.3-0.5c-0.13,0.02-0.3,0.02-0.38,0.11c-0.66,0.63-1.32,1.27-1.96,1.92
		c-0.41,0.42-0.59,0.96-0.6,1.54c-0.02,0.84-0.03,1.69-0.03,2.53c0,113.42,0,226.82,0,340.24c0,0.7,0,1.41,0.02,2.11
		c0.01,0.28,0.05,0.56,0.09,0.84c0.06,0.4,0.45,0.76,0.88,0.78c0.42,0.03,0.84,0.04,1.26,0.02c0.55-0.02,0.96-0.38,0.98-0.91
		c0.04-0.91,0.06-1.83,0.06-2.74C161.49,295.85,161.49,238.64,161.49,181.45z M3.51,181.21c0,57.13,0,114.27,0,171.39
		c0,0.77-0.01,1.55,0.01,2.32c0.03,1.59,0.3,1.84,1.87,1.79c0.21-0.01,0.42-0.04,0.63-0.07c0.27-0.04,0.68-0.44,0.7-0.72
		c0.05-0.84,0.12-1.68,0.12-2.53c0-113.7,0.01-227.4,0-341.1c0-3.44,0.23-2.89-2.4-5.46C4.29,6.7,4.06,6.64,3.87,6.58
		C3.7,6.52,3.53,6.83,3.53,7.28C3.52,8.12,3.51,8.97,3.51,9.82C3.51,66.94,3.51,124.08,3.51,181.21z M82.72,3.49
		c-24.31,0-48.62,0-72.93,0c-0.7,0-1.41-0.01-2.11,0.01c-0.28,0-0.56,0.03-0.83,0.09C6.74,3.62,6.66,3.77,6.59,3.88
		c-0.03,0.04,0,0.15,0.04,0.2c0.73,0.75,1.46,1.51,2.21,2.25c0.31,0.31,0.74,0.42,1.17,0.43c0.91,0.03,1.83,0.04,2.75,0.04
		c46.51,0,93,0,139.51,0c0.63,0,1.27,0,1.9-0.01c0.35-0.01,0.71,0.01,1.05-0.07c0.33-0.08,0.71-0.18,0.95-0.4
		c0.77-0.71,1.49-1.49,2.22-2.24c0.04-0.04,0.07-0.15,0.04-0.2c-0.07-0.11-0.16-0.28-0.26-0.29c-0.77-0.05-1.54-0.1-2.31-0.1
		C131.48,3.49,107.1,3.49,82.72,3.49z"/>
	<path class="st0" d="M147.86,192.1c1.18,0.04,2.62,0.77,3.63,2.13c0.72,0.97,1.04,2.15,0.75,3.4c-0.03,0.14-0.09,0.27-0.11,0.41
		c-0.33,2.65-4.22,4.9-7.41,3.03c-1.61-0.94-2.44-2.36-2.48-4.16c-0.03-1.28,0.39-2.49,1.45-3.38
		C144.74,192.66,145.9,192.07,147.86,192.1z"/>
</g>
</svg>
