<?xml version="1.0" encoding="utf-8"?>
<!-- Generator: Adobe Illustrator 25.0.0, SVG Export Plug-In . SVG Version: 6.00 Build 0)  -->
<svg version="1.1" id="Layer_1" xmlns="http://www.w3.org/2000/svg" xmlns:xlink="http://www.w3.org/1999/xlink" x="0px" y="0px"
	 viewBox="0 0 165 360" style="enable-background:new 0 0 165 360;" xml:space="preserve">
<g>
	<g>
		<path d="M0,180.43C0,121.95,0,63.47,0,4.99c0-0.92-0.01-1.83,0.04-2.75C0.1,1.11,0.76,0.44,1.9,0.31c0.35-0.04,0.7-0.05,1.05-0.05
			c0.63-0.01,1.27,0,1.91,0c51.71,0,103.42,0,155.13,0c0.63,0,1.27,0,1.91,0.01c0.35,0.01,0.71,0.01,1.05,0.05
			c1.14,0.13,1.79,0.76,1.95,1.89c0.06,0.42,0.08,0.84,0.08,1.26c0.01,0.7,0.01,1.41,0.01,2.11c0,116.54,0,233.08,0,349.62
			c0,0.7,0.01,1.41-0.01,2.11c-0.01,0.42-0.04,0.85-0.1,1.26c-0.15,0.96-0.75,1.52-1.68,1.62c-0.28,0.03-0.56,0.04-0.84,0.04
			c-0.56,0.01-1.13,0.01-1.69,0.01c-52.14,0-104.26,0-156.4,0c-0.56,0-1.13,0-1.69,0c-0.28,0-0.56-0.01-0.84-0.03
			c-0.96-0.08-1.58-0.67-1.67-1.59c-0.03-0.35-0.04-0.7-0.05-1.05c-0.01-0.77,0-1.55,0-2.32C0,296.97,0,238.71,0,180.43z
			 M93.49,120.11c0,29.27,0,58.55,0,87.82c0,0.77,0,1.55,0.01,2.32c0.01,0.28,0.05,0.56,0.1,0.84c0.05,0.29,0.43,0.65,0.74,0.67
			c0.7,0.04,1.41,0.07,2.12,0.07c12.36,0,24.72,0,37.08,0c0.56,0,1.13,0,1.69-0.02c0.81-0.03,1.17-0.38,1.22-1.15
			c0.02-0.35,0.02-0.7,0.02-1.06c0-7.34,0-14.67,0-22.01c0-0.35-0.01-0.7-0.03-1.06c-0.04-0.67-0.4-1.07-1.03-1.11
			c-0.7-0.04-1.41-0.06-2.12-0.05c-0.93,0.02-1.82-0.21-2.69-0.52c-0.7-0.25-1.18-0.72-1.5-1.4c-0.49-1.04-0.45-2.03,0.11-3.03
			c0.29-0.51,0.67-0.9,1.22-1.11c0.73-0.28,1.46-0.5,2.26-0.49c0.91,0.01,1.84-0.01,2.76-0.04c0.55-0.02,0.94-0.4,0.97-0.92
			c0.04-0.84,0.05-1.69,0.05-2.53c0-47.47,0-94.94,0-142.42c0-0.63,0-1.27,0-1.9c0-0.35-0.02-0.7-0.05-1.05
			c-0.04-0.53-0.43-0.96-0.93-0.99c-0.7-0.05-1.41-0.07-2.12-0.07c-7.98,0-15.96,0-23.95,0c-4.38,0-8.75,0-13.14,0
			c-0.63,0-1.27,0.02-1.91,0.06c-0.41,0.03-0.81,0.41-0.83,0.83c-0.04,0.84-0.07,1.69-0.07,2.53
			C93.49,61.57,93.49,90.84,93.49,120.11z M28.56,120.37c0,12.83,0,25.67,0,38.5c0,16.5,0,33,0,49.5c0,0.77,0.01,1.55,0.05,2.32
			c0.04,0.66,0.43,1.06,1.05,1.1c0.42,0.03,0.84,0.04,1.27,0.04c12.64,0,25.28,0,37.92,0c0.35,0,0.7,0,1.06-0.02
			c0.95-0.04,1.31-0.36,1.35-1.25c0.04-0.84,0.03-1.69,0.03-2.53c0-58.46,0-116.91,0-175.37c0-0.63,0-1.27-0.01-1.9
			c0-0.28-0.02-0.56-0.05-0.84c-0.05-0.54-0.42-0.94-0.93-0.98c-0.49-0.04-0.98-0.06-1.48-0.06c-12.57,0-25.14,0-37.71,0
			c-0.28,0-0.56,0-0.84,0.01c-1.39,0.04-1.67,0.32-1.71,1.79c-0.02,0.7-0.01,1.41-0.01,2.11C28.56,61.98,28.56,91.17,28.56,120.37z
			 M25.05,184.04c0-56.49,0-112.98,0-169.47c0-0.84,0.01-1.69-0.02-2.53c-0.03-1.06-0.36-1.38-1.39-1.43
			c-0.28-0.01-0.56-0.02-0.84-0.02c-3.53,0-7.06,0-10.59,0c-0.42,0-0.84,0.03-1.26,0.07c-0.42,0.04-0.83,0.41-0.85,0.81
			c-0.04,0.84-0.08,1.69-0.08,2.53c0,113.2,0,226.38,0,339.58c0,0.56,0,1.13,0.01,1.69c0.01,0.28,0.03,0.56,0.06,0.84
			c0.05,0.42,0.41,0.81,0.82,0.84c0.49,0.04,0.98,0.06,1.48,0.06c3.46,0.01,6.92,0,10.38,0c0.42,0,0.84-0.02,1.27-0.04
			c0.55-0.04,0.94-0.4,0.97-0.93c0.04-0.91,0.06-1.83,0.06-2.74C25.05,296.87,25.05,240.46,25.05,184.04z M154.82,184.04
			c0-56.35,0-112.71,0-169.07c0-0.77,0.01-1.55-0.01-2.32c-0.04-1.82-0.25-2.05-2.11-2.06c-3.67-0.02-7.34-0.01-11.02,0
			c-0.35,0-0.7,0.03-1.05,0.07c-0.41,0.04-0.8,0.42-0.82,0.84c-0.04,0.7-0.07,1.41-0.07,2.11c0,54.1,0,108.2,0,162.3
			c0,0.56,0,1.13,0.02,1.69c0.03,0.81,0.39,1.16,1.16,1.2c0.28,0.01,0.56,0,0.84,0.02c1.02,0.08,1.89-0.2,2.74-0.85
			c1.46-1.1,3.12-1.19,4.8-0.41c0.59,0.28,1.02,0.73,1.48,1.17c1.97,1.85,1.97,4.91-0.08,6.75c-0.05,0.05-0.1,0.1-0.15,0.15
			c-1.56,1.55-3.8,1.87-5.84,0.71c-0.3-0.17-0.57-0.42-0.87-0.59c-0.24-0.13-0.52-0.27-0.78-0.28c-0.84-0.03-1.68-0.01-2.54,0.02
			c-0.3,0.01-0.69,0.39-0.71,0.7c-0.05,0.84-0.1,1.68-0.1,2.53c0,24.27,0,48.53,0,72.79c0,30.61,0,61.22,0,91.83
			c0,0.77-0.01,1.55,0.02,2.32c0.03,0.96,0.35,1.29,1.25,1.34c0.35,0.02,0.7,0.02,1.06,0.02c3.46,0,6.92,0,10.38,0
			c0.28,0,0.56,0,0.84-0.01c1.14-0.04,1.45-0.36,1.49-1.57c0.03-0.84,0.02-1.69,0.02-2.54
			C154.82,296.61,154.82,240.32,154.82,184.04z M136.48,278.52c0-13.82,0-27.65,0-41.47c0-0.77-0.01-1.55-0.04-2.32
			c-0.02-0.55-0.39-0.95-0.91-0.99c-0.42-0.04-0.84-0.06-1.26-0.06c-1.27-0.01-2.55,0-3.81,0c-11.23,0-22.46,0-33.69,0
			c-0.77,0-1.55,0.03-2.33,0.07c-0.43,0.02-0.83,0.4-0.85,0.8c-0.04,0.7-0.07,1.41-0.08,2.11c-0.01,5.22,0,10.44,0,15.66
			c0,22.43,0,44.86,0,67.29c0,0.84,0.01,1.69,0.05,2.53c0.02,0.56,0.39,0.94,0.91,0.99c0.42,0.04,0.84,0.06,1.26,0.06
			c1.27,0.01,2.55,0,3.81,0c11.23,0,22.46,0,33.69,0c0.77,0,1.55-0.03,2.33-0.07c0.43-0.02,0.83-0.4,0.85-0.8
			c0.04-0.77,0.07-1.55,0.07-2.32C136.48,306.17,136.48,292.34,136.48,278.52z M71.3,278.58c0-10.58,0-21.16,0-31.74
			c0-3.46,0-6.91,0-10.37c0-0.63-0.04-1.27-0.09-1.9c-0.03-0.41-0.43-0.8-0.83-0.83c-0.77-0.04-1.55-0.07-2.33-0.07
			c-11.37,0-22.74,0-34.12,0c-1.06,0-2.12-0.01-3.18,0.01c-0.42,0-0.84,0.03-1.26,0.07c-0.4,0.04-0.8,0.42-0.82,0.84
			c-0.05,0.84-0.09,1.69-0.1,2.53c0,27.51,0,55.02,0,82.52c0,0.63,0,1.27,0.02,1.9c0.01,0.28,0.06,0.56,0.1,0.84
			c0.05,0.29,0.43,0.68,0.72,0.7c0.77,0.05,1.54,0.1,2.33,0.1c12.14,0.01,24.3,0,36.44,0c0.56,0,1.13,0,1.69-0.02
			c0.21-0.01,0.42-0.05,0.63-0.08c0.29-0.05,0.68-0.42,0.7-0.72c0.05-0.84,0.1-1.69,0.1-2.53C71.3,306.08,71.3,292.33,71.3,278.58z
			 M82.58,357.02c16.74,0,33.47,0,50.21,0c0.63,0,1.27,0,1.91-0.01c0.28,0,0.56-0.02,0.84-0.05c0.43-0.04,0.83-0.4,0.86-0.8
			c0.04-0.42,0.06-0.84,0.06-1.26c0.01-1.62,0-3.24,0-4.87c0-6.77,0-13.54,0-20.31c0-0.7-0.03-1.41-0.07-2.11
			c-0.02-0.4-0.42-0.81-0.84-0.83c-0.91-0.06-1.84-0.1-2.75-0.1c-33.47,0-66.95,0-100.42,0c-0.56,0-1.13,0-1.69,0.01
			c-0.28,0-0.56,0.02-0.84,0.04c-0.76,0.07-1.19,0.46-1.24,1.18c-0.04,0.63-0.05,1.27-0.05,1.9c0,8.04,0,16.08,0,24.12
			c0,0.56,0.01,1.13,0.03,1.69c0.01,0.21,0.05,0.42,0.09,0.63c0.05,0.28,0.44,0.67,0.73,0.69c0.77,0.04,1.54,0.09,2.33,0.09
			C48.69,357.02,65.63,357.02,82.58,357.02z M74.82,120.34c0,29.2,0,58.41,0,87.62c0,0.7,0,1.41,0.01,2.11
			c0,0.28,0.03,0.56,0.06,0.84c0.05,0.44,0.4,0.82,0.8,0.86c0.35,0.04,0.7,0.06,1.05,0.06c3.74,0,7.49,0,11.23,0
			c0.35,0,0.7-0.03,1.05-0.06c0.4-0.04,0.81-0.42,0.84-0.83c0.05-0.84,0.1-1.69,0.1-2.53c0-58.7,0-117.38,0-176.08
			c0-0.56,0-1.13-0.01-1.69c-0.01-0.28-0.04-0.56-0.07-0.84c-0.05-0.42-0.42-0.82-0.81-0.86c-0.35-0.04-0.7-0.07-1.05-0.07
			c-3.74-0.01-7.49-0.01-11.23,0c-0.35,0-0.7,0.03-1.05,0.06c-0.41,0.04-0.81,0.41-0.83,0.83c-0.05,0.84-0.08,1.69-0.08,2.53
			C74.82,61.64,74.82,90.98,74.82,120.34z M82.35,25.62c16.8,0,33.6,0,50.4,0c0.7,0,1.41,0.01,2.12-0.01
			c1.31-0.03,1.58-0.3,1.58-1.66c0.02-3.88,0.01-7.75,0-11.64c0-0.28-0.03-0.56-0.06-0.84c-0.04-0.4-0.42-0.79-0.85-0.82
			c-0.84-0.04-1.69-0.08-2.54-0.08c-33.6,0-67.21,0-100.81,0c-0.63,0-1.27,0-1.91,0.01c-0.28,0.01-0.56,0.04-0.84,0.08
			c-0.39,0.05-0.76,0.44-0.81,0.86c-0.04,0.28-0.08,0.56-0.08,0.84c-0.01,3.81-0.01,7.61,0,11.42c0,0.35,0.06,0.7,0.11,1.05
			c0.04,0.28,0.44,0.67,0.73,0.69c0.77,0.04,1.54,0.09,2.33,0.09C48.6,25.62,65.48,25.62,82.35,25.62z M82.61,215.08
			c-16.67,0-33.33,0-49.99,0c-0.56,0-1.13,0-1.69,0c-0.35,0-0.7,0-1.06,0.02c-0.87,0.04-1.22,0.42-1.27,1.34
			c-0.02,0.28-0.03,0.56-0.03,0.84c0,3.53,0,7.05,0,10.58c0,0.42,0.04,0.84,0.08,1.26c0.06,0.51,0.46,0.92,0.97,0.96
			c0.84,0.06,1.69,0.09,2.54,0.09c33.61,0,67.23,0,100.83,0c0.56,0,1.13,0,1.69-0.01c0.28-0.01,0.56-0.04,0.84-0.08
			c0.42-0.06,0.82-0.43,0.87-0.81c0.04-0.28,0.07-0.56,0.07-0.84c0-3.88,0.01-7.76,0-11.64c0-0.28-0.03-0.56-0.06-0.84
			c-0.04-0.4-0.43-0.8-0.84-0.82c-0.77-0.04-1.55-0.06-2.33-0.06C116.37,215.08,99.49,215.08,82.61,215.08z M74.82,278.43
			c0,13.61,0,27.22,0,40.83c0,0.63-0.01,1.27,0,1.9c0.03,1.83,0.2,2.01,2.11,2.02c3.6,0.02,7.2,0.01,10.8,0
			c0.35,0,0.7-0.01,1.05-0.04c0.66-0.05,1.08-0.42,1.12-1.04c0.05-0.84,0.07-1.69,0.07-2.53c0-27.43,0-54.86,0-82.3
			c0-0.63,0-1.27-0.01-1.9c-0.01-0.28-0.05-0.56-0.09-0.84c-0.06-0.39-0.45-0.76-0.87-0.8c-0.42-0.04-0.84-0.07-1.26-0.07
			c-3.6,0-7.2,0-10.8,0c-0.35,0-0.7,0.02-1.05,0.05c-0.55,0.04-0.95,0.4-0.98,0.92c-0.05,0.77-0.07,1.55-0.07,2.32
			C74.82,250.78,74.82,264.6,74.82,278.43z M161.5,181.73c0-57.2,0-114.41,0-171.61c0-0.7,0-1.41,0-2.11c0-0.28-0.01-0.56-0.07-0.84
			c-0.02-0.11-0.16-0.21-0.26-0.29c-0.04-0.03-0.15-0.01-0.2,0.03c-0.66,0.63-1.32,1.25-1.98,1.89c-0.42,0.41-0.63,0.92-0.64,1.52
			c0,0.85-0.02,1.69-0.02,2.54c0,113.49,0,226.98,0,340.47c0,0.56,0.01,1.13,0,1.69c-0.02,1.84,0.31,2.06,2.11,1.96
			c0.64-0.04,1-0.41,1.02-1.11c0.03-0.91,0.03-1.83,0.03-2.75C161.5,295.99,161.5,238.86,161.5,181.73z M3.28,181.54
			c0,57.2,0,114.41,0,171.61c0,0.77,0,1.55,0.01,2.32c0.01,0.28,0.05,0.56,0.11,0.83c0.06,0.3,0.28,0.53,0.55,0.58
			c0.48,0.08,0.98,0.09,1.47,0.07c0.54-0.02,0.95-0.39,0.98-0.92c0.05-0.91,0.08-1.83,0.08-2.74c0-34.7,0-69.41,0-104.11
			c0-78.93,0-157.86,0-236.79c0-3.29,0.22-2.73-2.34-5.29C4.01,6.99,3.77,6.88,3.59,6.9C3.34,6.91,3.31,7.18,3.3,7.39
			C3.28,8.17,3.28,8.94,3.28,9.72C3.28,67,3.28,124.27,3.28,181.54z M82.36,3.77c-24.37,0-48.73,0-73.1,0c-0.7,0-1.41,0-2.12,0.01
			c-0.21,0-0.42,0.05-0.62,0.1C6.47,3.89,6.38,3.94,6.37,3.99C6.34,4.12,6.29,4.31,6.36,4.38c0.61,0.68,1.25,1.34,1.89,1.99
			c0.47,0.48,1.05,0.68,1.71,0.69c0.63,0.01,1.27,0.02,1.91,0.02c47.03,0,94.06,0,141.1,0c3.22,0,2.74,0.21,5.11-2.23
			c0.1-0.1,0.2-0.21,0.26-0.33s0.09-0.25,0.13-0.38c0.04-0.14-0.21-0.32-0.48-0.33c-0.77-0.02-1.55-0.04-2.33-0.04
			C131.23,3.77,106.79,3.77,82.36,3.77z"/>
		<path d="M147.16,192.36c1.71-0.01,3.14,0.71,4.21,2.01c0.77,0.94,1.06,2.11,0.89,3.35c-0.03,0.21-0.11,0.4-0.15,0.61
			c-0.33,1.79-1.57,2.78-3.14,3.38c-1.6,0.61-3.18,0.4-4.62-0.56c-0.35-0.23-0.65-0.53-0.97-0.81c-0.43-0.38-0.7-0.87-0.86-1.41
			c-0.08-0.27-0.13-0.54-0.19-0.82c-0.42-1.88,0.16-3.43,1.7-4.62C144.96,192.79,145.98,192.4,147.16,192.36z"/>
	</g>
</g>
</svg>
