<?xml version="1.0" encoding="utf-8"?>
<!-- Generator: Adobe Illustrator 25.0.0, SVG Export Plug-In . SVG Version: 6.00 Build 0)  -->
<svg version="1.1" id="Layer_1" xmlns="http://www.w3.org/2000/svg" xmlns:xlink="http://www.w3.org/1999/xlink" x="0px" y="0px"
	 viewBox="0 0 165 360" style="enable-background:new 0 0 165 360;" xml:space="preserve">
<g>
	<path d="M-76.1,180.2c0,58.3,0,116.5,0,174.8c0,0.9,0,1.8,0,2.8c0,0.4-0.1,0.7-0.2,1c-0.2,0.7-0.7,1.1-1.4,1.2
		c-0.3,0-0.6,0.1-0.8,0.1c-0.7,0-1.4,0-2.1,0c-51.9,0-103.9,0-155.8,0c-0.9,0-1.8,0-2.8,0c-1-0.1-1.5-0.6-1.7-1.6
		c-0.1-0.5-0.1-1-0.2-1.5c0-0.6,0-1.3,0-1.9c0-116.7,0-233.3,0-350c0-0.9,0-1.8,0.1-2.7c0.1-1.5,0.8-2.1,2.3-2.2
		c0.8-0.1,1.5,0,2.3,0c21.5,0,43,0,64.5,0c30.4,0,60.8,0,91.1,0c0.7,0,1.4,0,2.1,0c0.4,0,0.7,0,1,0.1c0.7,0.2,1.2,0.7,1.4,1.4
		c0.1,0.3,0.1,0.7,0.1,1.1c0,0.8,0,1.6,0,2.3C-76.1,63.4-76.1,121.8-76.1,180.2z M-169.4,99.5c0-22.4,0-44.7,0-67.1
		c0-0.7,0-1.4,0-2.1c0-0.3,0-0.6-0.1-0.8c-0.1-0.4-0.5-0.8-0.9-0.8c-0.5,0-1-0.1-1.5-0.1c-12.7,0-25.4,0-38.1,0c-0.4,0-0.9,0-1.3,0
		c-0.7,0-1.1,0.4-1.1,1c0,0.7-0.1,1.4-0.1,2.1c0,45.1,0,90.3,0,135.4c0,0.6,0,1.1,0,1.7c0,0.3,0,0.6,0.1,0.8
		c0.1,0.4,0.4,0.8,0.9,0.8c0.8,0.1,1.5,0.1,2.3,0.1c8.2,0,16.5,0,24.7,0c3.9,0,7.9,0,11.8,0c0.6,0,1.3,0,1.9-0.1
		c0.7,0,1.1-0.5,1.1-1.1c0-0.8,0.1-1.6,0.1-2.3C-169.4,144.7-169.4,122.1-169.4,99.5z M-104.9,99.8c0-2.3,0-4.5,0-6.8
		c0-20.3,0-40.6,0-60.9c0-0.8,0-1.6-0.1-2.3c0-0.7-0.4-1.1-1.1-1.1c-0.5,0-1-0.1-1.5-0.1c-12.5,0-25.1,0-37.6,0c-0.5,0-1,0-1.5,0.1
		c-0.5,0-0.9,0.4-0.9,1c0,0.9-0.1,1.8-0.1,2.7c0,44.8,0,89.5,0,134.3c0,0.7,0,1.4,0,2.1c0,0.3,0,0.6,0.1,0.8c0.1,0.5,0.5,0.9,1,0.9
		c0.8,0.1,1.6,0.1,2.3,0.1c11.9,0,23.8,0,35.7,0c0.6,0,1.1,0,1.7,0c0.3,0,0.6-0.1,0.8-0.1c0.5-0.1,0.9-0.5,0.9-1
		c0.1-0.8,0.1-1.7,0.1-2.5C-104.9,144.6-104.9,122.2-104.9,99.8z M-230.8,183.3c0,56.4,0,112.8,0,169.3c0,0.9,0,1.7,0,2.5
		c0,1.3,0.3,1.6,1.6,1.6c3.9,0,7.8,0,11.6,0c0.3,0,0.6,0,0.8-0.1c0.4,0,0.8-0.4,0.8-0.8c0.1-0.8,0.1-1.7,0.1-2.5
		c0-113.2,0-226.4,0-339.6c0-0.6,0-1.3,0-1.9c0-0.3-0.1-0.6-0.1-0.8c-0.1-0.3-0.3-0.5-0.6-0.6c-0.4-0.1-0.8-0.1-1.3-0.1
		c-3.7,0-7.5,0-11.2,0c-0.3,0-0.6,0-0.8,0.1c-0.5,0.1-0.9,0.4-0.9,1c0,0.9-0.1,1.8-0.1,2.7C-230.8,70.5-230.8,126.9-230.8,183.3z
		 M-86.4,183.6c0-56.3,0-112.6,0-168.9c0-0.8,0-1.6,0-2.3c0-1.8-0.2-2-2.1-2c-3.6,0-7.2,0-10.8,0c-0.4,0-0.8,0-1.3,0.1
		c-0.4,0-0.8,0.4-0.8,0.9c0,0.8-0.1,1.7-0.1,2.5c0,53.8,0,107.5,0,161.3c0,0.6,0,1.3,0,1.9c0,0.3,0,0.6,0.1,0.8
		c0,0.3,0.4,0.7,0.7,0.7c0.7,0,1.4,0,2.1,0.1c0.5,0,1-0.1,1.4-0.5c0.6-0.6,1.4-1,2.2-1.1c2.6-0.4,4.1,0.4,5.2,2.3
		c0.5,0.9,0.8,1.8,0.7,2.8c-0.2,1.9-1.5,4.1-4,4.6c-0.6,0.1-1.1,0.2-1.7,0c-0.9-0.2-1.8-0.5-2.5-1.1c-0.4-0.4-0.9-0.5-1.4-0.5
		c-0.6,0-1.3,0-1.9,0c-0.6,0-1,0.4-1,0.9c0,0.8-0.1,1.7-0.1,2.5c0,28.1,0,56.3,0,84.4c0,26.7,0,53.5,0,80.2c0,0.8,0,1.6,0,2.3
		c0,0.7,0.4,1.1,1,1.1c0.4,0,0.8,0,1.3,0c3.5,0,6.9,0,10.4,0c0.4,0,0.7,0,1.1,0c0.9,0,1.2-0.4,1.3-1.3c0-0.9,0-1.8,0-2.8
		C-86.4,296.3-86.4,239.9-86.4,183.6z M-169.4,278.2c0-14,0-27.9,0-41.9c0-3,0-2.9-3-2.9c-12.3,0-24.7,0-37,0c-0.6,0-1.3,0-1.9,0.1
		c-0.6,0-1,0.4-1,0.9c-0.1,0.8-0.1,1.7-0.1,2.5c0,27.5,0,55,0,82.5c0,0.6,0,1.3,0,1.9c0,0.3,0.1,0.6,0.1,0.8
		c0.1,0.3,0.4,0.7,0.7,0.7c0.8,0,1.6,0.1,2.3,0.1c11.6,0,23.1,0,34.7,0c0.9,0,1.8,0,2.8,0c0.4,0,0.8,0,1.3-0.1c0.5,0,1-0.4,1-0.9
		c0-0.8,0.1-1.6,0.1-2.3C-169.4,305.8-169.4,292-169.4,278.2z M-147.6,277.9c0,13.8,0,27.5,0,41.3c0,0.6,0,1.3,0,1.9
		c0,1.5,0.3,1.8,1.7,1.8c0.4,0,0.9,0,1.3,0c3.2,0,6.5,0,9.7,0c9,0,17.9,0,26.9,0c0.6,0,1.3,0,1.9,0c0.7,0,1.1-0.5,1.2-1.2
		c0-0.8,0.1-1.7,0.1-2.5c0-27.3,0-54.6,0-81.9c0-0.5,0-1,0-1.5c0-0.3,0-0.6,0-0.8c-0.1-1.1-0.4-1.4-1.4-1.5c-0.4,0-0.8,0-1.3,0
		c-12.5,0-25,0-37.4,0c-0.4,0-0.9,0-1.3,0c-0.9,0.1-1.2,0.4-1.3,1.4c0,0.7,0,1.4,0,2.1C-147.6,250.6-147.6,264.3-147.6,277.9z
		 M-158.8,356.8c16.7,0,33.4,0,50.1,0c0.7,0,1.4,0,2.1,0c0.3,0,0.6-0.1,0.8-0.1c0.3-0.1,0.7-0.4,0.7-0.7c0.1-0.8,0.1-1.5,0.1-2.3
		c0-7.1,0-14.2,0-21.4c0-1.1,0-2.3,0-3.4c0-0.4,0-0.8-0.1-1.3c-0.1-0.6-0.5-1.1-1.1-1.1c-0.7-0.1-1.4-0.1-2.1-0.1
		c-33.7,0-67.3,0-101,0c-0.5,0-1,0-1.5,0c-1.2,0.1-1.5,0.4-1.6,1.5c0,0.4,0,0.7,0,1.1c0,8.5,0,16.9,0,25.4c0,0.5,0,1,0.1,1.5
		c0,0.4,0.4,0.8,0.8,0.8c0.8,0,1.6,0.1,2.3,0.1C-192.3,356.8-175.5,356.8-158.8,356.8z M-151.1,99.8c0-22.4,0-44.9,0-67.3
		c0-0.8,0-1.6,0-2.3c0-0.3,0-0.6-0.1-0.8c-0.1-0.3-0.3-0.5-0.6-0.6c-0.4-0.1-0.8-0.1-1.3-0.1c-3.7,0-7.3,0-11,0
		c-0.4,0-0.7,0-1.1,0.1c-0.5,0.1-0.9,0.5-0.9,1c0,0.8-0.1,1.6-0.1,2.3c0,45.1,0,90.1,0,135.2c0,0.6,0,1.1,0,1.7c0,0.3,0,0.6,0.1,0.8
		c0.1,0.4,0.4,0.8,0.8,0.8c0.4,0.1,0.8,0.1,1.3,0.1c3.5,0,7,0,10.6,0c0.4,0,0.8,0,1.3-0.1c0.5-0.1,0.9-0.5,0.9-1
		c0.1-0.8,0.1-1.7,0.1-2.5C-151.1,144.6-151.1,122.2-151.1,99.8z M-158.7,211.6c16.6,0,33.3,0,49.9,0c0.7,0,1.4,0,2.1,0
		c0.3,0,0.6,0,0.8-0.1c0.4-0.1,0.8-0.4,0.8-0.8c0.1-0.5,0.1-1,0.1-1.5c0-4.7,0-9.3,0-14c0-0.5,0-1-0.1-1.5c-0.1-0.5-0.5-0.9-1-0.9
		c-0.8,0-1.7-0.1-2.5-0.1c-33.4,0-66.8,0-100.2,0c-0.5,0-1,0-1.5,0c-1.9,0-2,0.2-2.1,2.1c0,4.9,0,9.7,0,14.6c0,0.4,0,0.8,0.1,1.3
		c0,0.4,0.4,0.8,0.9,0.8c0.8,0,1.6,0.1,2.3,0.1C-192.3,211.6-175.5,211.6-158.7,211.6z M-158.8,189.5c7.7,0,15.4,0,23,0
		c9.2,0,18.5,0,27.7,0c0.7,0,1.4,0,2.1-0.1c0.4,0,0.8-0.4,0.9-0.8c0.2-0.9,0.2-1.8,0-2.7c-0.1-0.4-0.5-0.7-0.9-0.8
		c-0.8-0.1-1.6-0.1-2.3-0.1c-0.9,0-1.7-0.3-2.4-0.7c-0.3-0.2-0.6-0.4-0.8-0.7c-1-1.5-0.9-2.6-0.1-3.9c0.2-0.3,0.5-0.5,0.8-0.7
		c0.8-0.4,1.6-0.6,2.4-0.6c0.8,0,1.7,0,2.5-0.1c0.4,0,0.8-0.4,0.8-0.8c0.1-0.8,0.1-1.7,0-2.5c-0.1-0.5-0.5-0.9-1-0.9
		c-0.8,0-1.6-0.1-2.3-0.1c-33.5,0-67.1,0-100.6,0c-0.6,0-1.3,0-1.9,0c-1.1,0-1.4,0.4-1.4,1.4c0,0.2,0,0.4,0,0.6c0,3.8,0,7.6,0,11.4
		c0,0.4,0,0.7,0.1,1.1c0,0.4,0.4,0.8,0.8,0.8c0.8,0,1.6,0.1,2.3,0.1C-192.3,189.5-175.5,189.5-158.8,189.5z M-158.7,25.4
		c16.7,0,33.4,0,50.1,0c0.8,0,1.6,0,2.3,0c0.8,0,1.2-0.4,1.2-1.2c0-0.3,0-0.6,0-0.8c0-3.7,0-7.3,0-11c0-0.3,0-0.6-0.1-0.8
		c-0.1-0.6-0.5-1.1-1.1-1.1c-0.8,0-1.6-0.1-2.3-0.1c-33.5,0-67,0-100.4,0c-0.6,0-1.1,0-1.7,0c-0.3,0-0.6,0-0.8,0.1
		c-0.4,0.1-0.8,0.4-0.9,0.8c0,0.5-0.1,1-0.1,1.5c0,3.5,0,6.9,0,10.4c0,0.4,0,0.8,0.1,1.3c0,0.6,0.4,0.9,0.9,1c0.8,0,1.6,0.1,2.3,0.1
		C-192.2,25.4-175.4,25.4-158.7,25.4z M-158.6,214.8c-16.8,0-33.5,0-50.3,0c-0.8,0-1.6,0-2.3,0c-0.6,0-0.9,0.4-1,0.9
		c0,0.2-0.1,0.4-0.1,0.6c0,3.9,0,7.9,0,11.8c0,0.3,0,0.6,0.1,0.8c0.1,0.4,0.4,0.7,0.7,0.7c0.8,0.1,1.5,0.1,2.3,0.1
		c33.7,0,67.3,0,101,0c0.6,0,1.1,0,1.7,0c1-0.1,1.4-0.5,1.5-1.4c0-0.2,0-0.4,0-0.6c0-3.7,0-7.5,0-11.2c0-0.4-0.1-0.7-0.1-1.1
		c0-0.3-0.4-0.7-0.7-0.7c-0.8-0.1-1.5-0.1-2.3-0.1C-125,214.8-141.8,214.8-158.6,214.8z M-166.1,278.2c0,13.6,0,27.2,0,40.8
		c0,0.6,0,1.3,0,1.9c0,1.9,0.2,2,2.1,2c3.6,0,7.2,0,10.8,0c0.1,0,0.1,0,0.2,0c1.7,0,1.9-0.2,1.9-2c0-0.5,0-1,0-1.5
		c0-27.5,0-55,0-82.5c0-0.6,0-1.3,0-1.9c0-0.3-0.1-0.6-0.1-0.8c-0.1-0.3-0.4-0.6-0.7-0.7c-0.4,0-0.7-0.1-1.1-0.1
		c-3.7,0-7.5,0-11.2,0c-0.1,0-0.1,0-0.2,0c-1.4,0-1.6,0.3-1.7,1.6c0,0.7,0,1.4,0,2.1C-166.1,250.8-166.1,264.5-166.1,278.2z
		 M-237.6,181.2c0,57.1,0,114.1,0,171.2c0,0.7,0,1.4,0,2.1c0,2.1,0.2,2.3,2.3,2.2c0.1,0,0.1,0,0.2,0c0.5,0,0.9-0.4,1-0.9
		c0-0.9,0.1-1.8,0.1-2.7c0-76.2,0-152.5,0-228.7c0-37.2,0-74.5,0-111.7c0-0.8,0-1.6,0-2.3c0-0.5-0.2-1-0.5-1.4
		c-0.7-0.8-1.5-1.5-2.3-2.2c-0.1-0.1-0.3-0.1-0.4-0.1c-0.3,0.1-0.3,0.3-0.3,0.5c0,0.9,0,1.7,0,2.5
		C-237.6,66.8-237.6,124-237.6,181.2z M-79.6,181.4c0-57.1,0-114.3,0-171.4c0-0.7,0-1.4,0-2.1c0-0.3,0-0.6,0-0.8s-0.2-0.5-0.3-0.5
		c-0.1,0-0.3,0-0.4,0.1c-0.7,0.6-1.3,1.3-2,1.9c-0.4,0.4-0.5,0.8-0.6,1.3c0,0.8,0,1.7,0,2.5c0,113.5,0,227.1,0,340.7
		c0,0.6,0,1.3,0,1.9c0,0.3,0,0.6,0.1,0.8c0.1,0.4,0.4,0.8,0.9,0.8c0.4,0,0.8,0,1.3,0c0.6,0,1-0.4,1-0.9c0.1-0.9,0.1-1.8,0.1-2.7
		C-79.6,295.8-79.6,238.6-79.6,181.4z M-158.6,3.5c-16.5,0-33,0-49.5,0c-8,0-16.1,0-24.1,0c-0.7,0-1.4,0-2.1,0.1
		c-0.1,0-0.2,0.2-0.3,0.3c0,0.1,0,0.2,0,0.2c0.7,0.8,1.5,1.5,2.2,2.3c0.3,0.3,0.7,0.4,1.2,0.5c0.9,0,1.8,0.1,2.7,0.1
		c46.5,0,93,0,139.5,0c0.6,0,1.3,0,1.9,0c0.4,0,0.7,0,1.1-0.1c0.3-0.1,0.7-0.2,1-0.4c0.8-0.7,1.5-1.5,2.2-2.2c0.1-0.1,0-0.5-0.2-0.5
		c-0.8,0-1.5-0.1-2.3-0.1C-109.7,3.5-134.2,3.5-158.6,3.5z"/>
	<path d="M-93.9,192.1c2.4,0,4.2,1.5,4.8,3.6c0.6,2-0.6,5-3.1,5.8c-2.1,0.6-3.9,0.3-5.4-1.3c-1.7-1.8-1.6-4.7,0.1-6.5
		C-96.5,192.6-95.4,192.1-93.9,192.1z"/>
</g>
<g>
	<path d="M0,180C0,121.6,0,63.1,0,4.6c0-0.9,0-1.7,0-2.5c0.1-1.3,0.7-1.9,2-2C2.3,0,2.7,0,3,0c0.6,0,1.1,0,1.7,0
		C56.5,0,108.3,0,160,0c0.6,0,1.3,0,1.9,0c0.4,0,0.7,0,1.1,0.1c1,0.1,1.7,0.7,1.9,1.7c0.1,0.4,0.1,0.8,0.1,1.3c0,0.6,0,1.3,0,1.9
		c0,116.7,0,233.3,0,350c0,0.6,0,1.1,0,1.7c0,0.4,0,0.9-0.1,1.3c-0.2,1.6-0.9,2.1-2.4,2.1c-0.6,0-1.3,0-1.9,0
		c-52.2,0-104.4,0-156.6,0c-0.8,0-1.7,0-2.5-0.1c-0.8-0.1-1.4-0.7-1.5-1.5c0-0.4-0.1-0.7-0.1-1.1c0-0.8,0-1.6,0-2.3
		C0,296.7,0,238.4,0,180z M71.6,117.1c0-30.2,0-60.4,0-90.6c0-0.7,0-1.4,0-2.1c0-0.3,0-0.6-0.1-0.8c-0.1-0.5-0.5-1-1-0.9
		c-1.1,0-2.1,0.1-3.2,0.2c-0.6,0-1.1,0.2-1.7,0.2c-2.3,0.1-4.5,0.5-6.7,0.9c-0.8,0.2-1.7,0.3-2.5,0.5c-2.5,0.5-5,0.9-7.5,1.6
		c-2.5,0.7-5.1,1.3-7.6,2c-1.8,0.5-3.6,0.8-5.4,0.7c-1.7-0.1-3.4,0-5.1,0c-0.5,0-1,0-1.5,0.1c-0.4,0-0.8,0.4-0.8,0.9
		c0,0.9-0.1,1.8-0.1,2.7c0,47.6,0,95.2,0,142.8c0,11.1,0,22.1,0,33.2c0,0.7,0,1.4,0,2.1c0,0.7,0.4,1.1,1,1.1c0.6,0,1.1,0,1.7,0
		c12.5,0,25,0,37.5,0c0.6,0,1.1,0,1.7-0.1c0.5,0,0.9-0.4,1-1c0-0.8,0.1-1.7,0.1-2.5C71.6,177.7,71.6,147.4,71.6,117.1z M93.5,116.9
		c0,30.2,0,60.4,0,90.6c0,0.8,0,1.6,0,2.3c0,0.3,0,0.6,0.1,0.8c0.1,0.4,0.4,0.8,0.8,0.8c0.6,0,1.1,0.1,1.7,0.1c12.6,0,25.3,0,37.9,0
		c0.4,0,0.8,0,1.3,0c0.1,0,0.3,0,0.4-0.1c0.3,0,0.7-0.5,0.7-0.7c0-0.7,0.1-1.4,0.1-2.1c0-6.8,0-13.7,0-20.5c0-0.6,0-1.1,0-1.7
		c0-0.2-0.1-0.4-0.1-0.6c-0.1-0.3-0.3-0.5-0.6-0.6c-0.3-0.1-0.7-0.1-1-0.1c-0.7,0-1.4,0-2.1-0.1c-1.6-0.2-3-0.8-3.7-2.4
		c-0.2-0.5-0.3-1.1,0-1.6c0.6-1.6,1.8-2.3,3.4-2.5c0.3,0,0.6,0,0.8,0c0.4,0,0.7,0,1.1,0c2.2,0,2.4-0.1,2.3-2.4c0-0.4,0-0.7,0-1.1
		c0-47.6,0-95.2,0-142.8c0-0.6,0-1.3,0-1.9c0-0.3,0-0.6-0.1-0.8c-0.1-0.4-0.5-0.8-0.9-0.8c-0.5,0-1-0.1-1.5-0.1c-1.7,0-3.4,0-5.1,0
		c-2,0.1-3.9-0.2-5.9-0.8c-1.8-0.5-3.5-0.9-5.3-1.4c-4-1.1-8-1.8-12-2.6c-2.2-0.4-4.4-0.8-6.7-0.9c-0.6,0-1.1-0.2-1.7-0.2
		c-1-0.1-2-0.1-3-0.1c-0.4,0-0.9,0.4-0.9,0.8c-0.1,0.9-0.1,1.8-0.1,2.7C93.5,56.4,93.5,86.7,93.5,116.9z M10,183.3
		c0,56.4,0,112.9,0,169.3c0,0.9,0,1.7,0,2.5c0,1.3,0.3,1.6,1.7,1.6c3.9,0,7.8,0,11.7,0c0.2,0,0.4,0,0.6,0c0.7-0.1,1.1-0.4,1.1-1
		c0.1-0.9,0.1-1.8,0.1-2.7c0-112.9,0-225.9,0-338.8c0-0.6,0-1.3,0-1.9c0-0.3,0-0.6-0.1-0.8c-0.1-0.6-0.5-1-1.1-1c-0.4,0-0.7,0-1.1,0
		c-3.6,0-7.2,0-10.8,0c-0.4,0-0.7,0-1.1,0.1c-0.5,0.1-1,0.4-1,0.9C10,12.2,10,13.1,10,14C10,70.5,10,126.9,10,183.3z M154.8,183.6
		c0-46.5,0-93.1,0-139.6c0-10.1,0-20.2,0-30.3c0-0.7,0-1.4,0-2.1c0-0.8-0.4-1.2-1.2-1.2c-0.4,0-0.7,0-1.1,0c-3.5,0-7.1,0-10.6,0
		c-0.4,0-0.7,0-1.1,0c-0.8,0.1-1.1,0.4-1.1,1.2c0,0.7,0,1.4,0,2.1c0,53.8,0,107.6,0,161.4c0,0.7,0,1.4,0,2.1c0,0.2,0.1,0.4,0.1,0.6
		c0.1,0.3,0.3,0.5,0.6,0.6c0.6,0.1,1.3,0.1,1.9,0.1c0.7,0,1.3-0.2,1.9-0.7c1.6-1.3,3.3-1.4,5.2-0.6c0.4,0.2,0.8,0.4,1,0.7
		c0.4,0.4,0.7,0.9,1,1.3c0.4,0.7,0.6,1.4,0.7,2.2c0.1,0.7-0.2,1.4-0.4,2.1c-0.4,1.2-1.2,2.1-2.3,2.7c-1.5,0.7-3,0.8-4.5,0.1
		c-0.4-0.2-0.7-0.5-1.1-0.7c-0.3-0.2-0.6-0.4-1-0.4c-0.8-0.1-1.7,0-2.5,0c-0.3,0-0.7,0.4-0.7,0.7c0,0.8-0.1,1.7-0.1,2.5
		c0,55,0,110,0,165c0,0.5,0,1,0,1.5c0,1.5,0.2,1.8,1.7,1.8c3.9,0,7.8,0,11.7,0c0.2,0,0.4,0,0.6,0c0.6-0.1,1-0.4,1.1-1.1
		c0-0.9,0-1.8,0-2.8C154.8,296.4,154.8,240,154.8,183.6z M93.5,277.9c0,13.8,0,27.5,0,41.3c0,0.7,0,1.4,0,2.1c0,0.3,0.1,0.6,0.1,0.8
		c0.1,0.3,0.4,0.7,0.7,0.7c0.6,0,1.3,0.1,1.9,0.1c12.5,0,25,0,37.5,0c0.5,0,1,0,1.5,0c0.8,0,1.2-0.4,1.2-1.2c0-0.8,0-1.6,0-2.3
		c0-27.5,0-55,0-82.5c0-0.6,0-1.3,0-1.9c0-0.3-0.1-0.6-0.1-0.8c0-0.3-0.4-0.7-0.7-0.7c-0.6,0-1.3-0.1-1.9-0.1c-12.5,0-25,0-37.5,0
		c-0.5,0-1,0-1.5,0c-0.8,0-1.2,0.4-1.2,1.2c0,0.8,0,1.6,0,2.3C93.5,250.6,93.5,264.3,93.5,277.9z M71.6,278.4c0-13.8,0-27.6,0-41.5
		c0-0.6,0-1.3,0-1.9c0-0.3-0.1-0.6-0.1-0.8c0-0.3-0.4-0.7-0.7-0.7c-0.6,0-1.3-0.1-1.9-0.1c-12.5,0-25,0-37.5,0c-0.5,0-1,0-1.5,0
		c-0.8,0-1.2,0.4-1.2,1.2c0,0.8,0,1.6,0,2.3c0,27.5,0,55,0,82.5c0,0.6,0,1.3,0,1.9c0,0.3,0.1,0.6,0.1,0.8c0,0.3,0.4,0.7,0.7,0.7
		c0.8,0,1.6,0.1,2.3,0.1c12.2,0,24.4,0,36.6,0c0.5,0,1,0,1.5,0c0.2,0,0.4,0,0.6,0c0.6-0.1,1-0.4,1-0.9c0-0.8,0.1-1.6,0.1-2.3
		C71.6,305.9,71.6,292.1,71.6,278.4z M82.5,356.8c16.7,0,33.5,0,50.2,0c0.7,0,1.4,0,2.1,0c0.3,0,0.6,0,0.8-0.1
		c0.3,0,0.7-0.4,0.7-0.7c0.1-0.6,0.1-1.1,0.1-1.7c0-8.5,0-16.9,0-25.4c0-0.5,0-1-0.1-1.5c0-0.5-0.5-0.9-1-1
		c-0.8-0.1-1.7-0.1-2.5-0.1c-33.6,0-67.1,0-100.7,0c-0.6,0-1.1,0-1.7,0c-0.3,0-0.6,0-0.8,0.1c-0.5,0.1-0.9,0.4-1,1
		c0,0.7-0.1,1.4-0.1,2.1c0,8,0,16.1,0,24.1c0,0.6,0,1.1,0,1.7c0,0.2,0,0.4,0.1,0.6c0.1,0.3,0.4,0.7,0.7,0.7c0.8,0,1.6,0.1,2.3,0.1
		C48.7,356.8,65.6,356.8,82.5,356.8z M74.9,116.9c0,30.4,0,60.8,0,91.2c0,0.8,0,1.6,0,2.3c0,0.7,0.4,1.1,1,1.1c0.4,0,0.8,0,1.3,0
		c3.5,0,6.9,0,10.4,0c0.4,0,0.7,0,1.1,0c0.9,0,1.2-0.4,1.3-1.3c0-0.8,0-1.6,0-2.3c0-60.6,0-121.3,0-181.9c0-0.7,0-1.4,0-2.1
		c0-0.3-0.1-0.6-0.1-0.8c0-0.3-0.4-0.7-0.7-0.7c-0.4-0.1-0.7-0.1-1.1-0.1c-1.3,0-2.7-0.2-4-0.3c-1.2-0.1-2.4,0-3.6,0
		s-2.4,0.2-3.6,0.3c-0.4,0-0.8,0.1-1.3,0.1c-0.3,0-0.7,0.4-0.7,0.7c0,0.8-0.1,1.7-0.1,2.5C74.9,56,74.9,86.5,74.9,116.9z
		 M82.5,214.8c-16.7,0-33.5,0-50.2,0c-0.7,0-1.4,0-2.1,0c-0.3,0-0.6,0.1-0.8,0.1c-0.3,0.1-0.5,0.3-0.6,0.6c-0.1,0.5-0.1,1-0.1,1.5
		c0,3.5,0,7.1,0,10.6c0,0.4,0,0.8,0.1,1.3c0.1,0.5,0.4,1,0.9,1c0.8,0.1,1.5,0.1,2.3,0.1c33.8,0,67.5,0,101.3,0c0.6,0,1.3,0,1.9,0
		c0.2,0,0.4-0.1,0.6-0.1c0.3-0.1,0.5-0.3,0.6-0.6c0.1-0.5,0.1-1,0.1-1.5c0-3.5,0-7.1,0-10.6c0-0.4,0-0.8-0.1-1.3
		c-0.1-0.5-0.4-1-0.9-1c-0.8,0-1.6-0.1-2.3-0.1C116.3,214.8,99.4,214.8,82.5,214.8z M74.9,278c0,13.7,0,27.5,0,41.2
		c0,0.7,0,1.4,0,2.1c0,0.3,0.1,0.6,0.1,0.8c0.1,0.3,0.3,0.5,0.6,0.6c0.5,0.1,1,0.1,1.5,0.1c3.5,0,7.1,0,10.6,0c0.4,0,0.8,0,1.3-0.1
		c0.5,0,0.9-0.4,1-0.9c0.1-0.8,0.1-1.7,0.1-2.5c0-27.5,0-55,0-82.5c0-0.5,0-1,0-1.5c0-1.9-0.2-2-2.1-2.1c-3.7,0-7.3,0-11,0
		c-0.4,0-0.7,0-1.1,0.1c-0.4,0-0.8,0.4-0.8,0.8c0,0.8-0.1,1.6-0.1,2.3C74.9,250.4,74.9,264.2,74.9,278z M82.7,10.3
		c-16.4,0-32.7,0-49.1,0c-0.8,0-1.7,0-2.5,0c-0.4,0-0.8,0-1.3,0.1c-0.6,0.1-1,0.4-1,1.1c0,0.2,0,0.4,0,0.6c0,3.8,0,7.6,0,11.4
		c0,0.4,0.1,0.7,0.1,1.1c0,0.3,0.4,0.7,0.7,0.7c0.4,0,0.7,0.1,1.1,0.1c1.4,0,2.8,0,4.2,0c2.1,0.1,4.2-0.2,6.3-0.8
		c2-0.6,4.1-1.1,6.1-1.6c1.3-0.3,2.6-0.7,3.9-1c2-0.4,4-0.8,6-1.2c2.4-0.4,4.7-1,7.1-1c0.4,0,0.7-0.1,1-0.1c0.6-0.1,1.3-0.2,1.9-0.2
		c0.8-0.1,1.5-0.2,2.3-0.3c0.5-0.1,1-0.1,1.5-0.2c2,0,4-0.1,5.9-0.3c4.4-0.1,8.7-0.3,13.1,0.2c0.5,0.1,1,0.1,1.5,0.1
		c1.6,0,3.2,0,4.8,0.4c0.4,0.1,0.8,0.1,1.3,0.1c0.6,0.1,1.3,0.1,1.9,0.2c0.6,0.1,1.1,0.1,1.7,0.2c0.8,0.1,1.7,0.2,2.5,0.3
		c1.9,0.3,3.8,0.6,5.6,1c2.7,0.5,5.4,1,8.1,1.7c2.2,0.6,4.5,1.2,6.8,1.8c1.4,0.4,2.7,0.7,4.2,0.7c2.3,0,4.5,0,6.8,0
		c1.1,0,1.4-0.3,1.4-1.4c0-0.3,0-0.6,0-0.8c0-3.5,0-7.1,0-10.6c0-0.4,0-0.7,0-1.1c0-0.7-0.4-1.1-1-1.1c-0.8,0-1.6-0.1-2.3-0.1
		C116.3,10.3,99.5,10.3,82.7,10.3z M3.3,181.3c0,57.2,0,114.4,0,171.6c0,0.8,0,1.6,0,2.3c0,0.3,0.1,0.6,0.1,0.8
		c0.1,0.3,0.3,0.5,0.6,0.6c0.5,0.1,1,0.1,1.5,0.1c0.6,0,1-0.4,1-0.9c0.1-1,0.1-2,0.1-3c0-97.6,0-195.2,0-292.9c0-16,0-32,0-48
		c0-3,0.2-2.5-2-4.8C4.4,7.1,4.3,7,4.3,7C4.1,6.8,3.9,6.6,3.6,6.6c-0.2,0-0.3,0.2-0.3,0.7c0,0.8,0,1.6,0,2.3
		C3.3,66.9,3.3,124.1,3.3,181.3z M161.5,181.3c0-57.1,0-114.3,0-171.4c0-0.7,0-1.4,0-2.1c0-0.3,0-0.6-0.1-0.8c0-0.1-0.2-0.3-0.3-0.3
		c-0.1,0-0.3,0-0.4,0.1c-0.6,0.6-1.2,1.2-1.8,1.8c-0.5,0.5-0.7,1.1-0.7,1.7c0,0.8,0,1.6,0,2.3c0,113.5,0,227,0,340.5
		c0,0.6,0,1.3,0,1.9c0,1.6,0.3,1.8,1.9,1.8c0.1,0,0.3,0,0.4,0c0.4-0.1,0.8-0.4,0.8-0.8c0-0.9,0.1-1.8,0.1-2.7
		C161.5,295.8,161.5,238.5,161.5,181.3z M82.4,3.5c-24.3,0-48.6,0-72.9,0c-0.7,0-1.4,0-2.1,0c-0.3,0-0.6,0.1-0.8,0.1
		c-0.2,0-0.4,0.3-0.2,0.5C6.6,4.4,6.8,4.6,7,4.9c2,2,1.6,1.9,4.6,1.9c47.2,0,94.3,0,141.5,0c3,0,2.6,0.2,4.8-2.1
		c0.2-0.2,0.4-0.4,0.5-0.6c0.1-0.2,0-0.5-0.2-0.5c-0.8,0-1.5-0.1-2.3-0.1C131.4,3.5,106.9,3.5,82.4,3.5z"/>
	<path d="M142.4,197c-0.1-2.7,2.2-5,4.8-4.9c3.1,0.1,4.7,1.9,5,4.6c-0.2,2.2-1,4-3.4,4.8c-0.7,0.2-1.5,0.3-2.3,0.2
		c-1.8-0.2-3.5-1.4-4-3.5c0-0.2-0.1-0.4-0.1-0.6C142.4,197.4,142.4,197.1,142.4,197z"/>
</g>
</svg>
