<?xml version="1.0" encoding="utf-8"?>
<!-- Generator: Adobe Illustrator 25.0.0, SVG Export Plug-In . SVG Version: 6.00 Build 0)  -->
<svg version="1.1" id="Layer_1" xmlns="http://www.w3.org/2000/svg" xmlns:xlink="http://www.w3.org/1999/xlink" x="0px" y="0px"
	 viewBox="0 0 165 360" style="enable-background:new 0 0 165 360;" xml:space="preserve">
<g>
	<path d="M165,180c0,58.3,0,116.5,0,174.8c0,0.9,0,1.7,0,2.5c0,0.4,0,0.7-0.1,1.1c-0.2,0.9-0.8,1.5-1.7,1.6c-0.4,0-0.7,0-1.1,0
		c-0.6,0-1.1,0-1.7,0c-51.9,0-103.9,0-155.8,0c-0.9,0-1.8,0-2.8-0.1c-0.9-0.1-1.5-0.7-1.7-1.6C0.1,358,0,357.7,0,357.3
		c0-0.7,0-1.4,0-2.1c0-116.7,0-233.3,0-350c0-0.6,0-1.3,0-1.9c0-0.4,0-0.7,0.1-1.1C0.2,0.8,0.9,0.2,2.2,0c0.4,0,0.7,0,1.1,0
		c0.6,0,1.3,0,1.9,0c51.7,0,103.3,0,155,0c0.6,0,1.3,0,1.9,0c0.4,0,0.7,0,1.1,0.1c1,0.1,1.7,0.8,1.8,1.8c0.1,0.4,0.1,0.7,0.1,1.1
		c0,0.8,0,1.6,0,2.3C165,63.5,165,121.7,165,180z M10.3,183.6c0,56.4,0,112.8,0,169.3c0,0.8,0,1.6,0,2.3c0,1.3,0.3,1.6,1.6,1.6
		c3.9,0,7.8,0,11.6,0c0.3,0,0.6,0,0.8-0.1c0.4,0,0.8-0.4,0.8-0.8c0-0.8,0.1-1.7,0.1-2.5c0-113.2,0-226.4,0-339.6c0-0.6,0-1.3,0-1.9
		c0-0.3-0.1-0.6-0.1-0.8c-0.1-0.3-0.3-0.5-0.6-0.6c-0.4-0.1-0.8-0.1-1.3-0.1c-3.7,0-7.3,0-11,0c-0.4,0-0.7,0-1.1,0.1
		c-0.5,0.1-0.9,0.4-0.9,1c0,0.9-0.1,1.8-0.1,2.7C10.3,70.6,10.3,127.1,10.3,183.6z M154.7,183.6c0-56.4,0-112.7,0-169.1
		c0-0.7,0-1.4,0-2.1c0-1.9-0.2-2.1-2.1-2.1c-3.7,0-7.3,0-11,0c-0.4,0-0.7,0-1.1,0.1c-0.4,0.1-0.8,0.4-0.8,0.8c0,0.9-0.1,1.8-0.1,2.7
		c0,53.7,0,107.3,0,161c0,0.6,0,1.1,0,1.7c0,0.3,0,0.6,0,0.8c0.1,0.6,0.4,1,0.9,1c0.6,0,1.3,0,1.9,0c0.5,0,1-0.2,1.3-0.5
		c0.9-0.9,2.1-1.2,3.3-1.2c1.9-0.1,3.4,0.9,4.4,2.4c0.1,0.2,0.2,0.4,0.3,0.6c0.1,0.6,0.3,1.3,0.3,1.9c0,0.8,0,1.6-0.4,2.3
		c-0.6,1.1-1.4,1.9-2.6,2.4c-1.2,0.5-2.3,0.6-3.5,0.1c-0.6-0.2-1.2-0.5-1.7-0.9c-0.3-0.3-0.7-0.4-1.2-0.4c-0.7,0-1.4,0-2.1,0
		c-0.5,0-0.9,0.4-1,0.9c0,0.8-0.1,1.7-0.1,2.5c0,38.2,0,76.5,0,114.7c0,16.6,0,33.3,0,49.9c0,0.8,0,1.6,0,2.3c0,0.7,0.4,1.1,1,1.1
		c0.4,0,0.8,0,1.3,0c3.5,0,6.9,0,10.4,0c0.3,0,0.6,0,0.9,0c1.2,0,1.4-0.3,1.5-1.6c0-0.8,0-1.6,0-2.3
		C154.7,296.4,154.7,240,154.7,183.6z M93.5,281.1c0,12.6,0,25.2,0,37.9c0,0.6,0,1.3,0,1.9c0,1.8,0.2,2,2.1,2c2.8,0,5.6,0,8.5,0
		c9.4,0,18.9,0,28.3,0c0.6,0,1.3,0,1.9,0c1.5,0,1.8-0.3,1.8-1.9c0-0.6,0-1.1,0-1.7c0-25.5,0-50.9,0-76.4c0-0.6,0-1.3,0-1.9
		c0-0.3-0.1-0.6-0.1-0.8c-0.1-0.4-0.5-0.8-0.9-0.8c-0.6,0-1.1-0.1-1.7-0.1c-12.5,0-24.9,0-37.4,0c-0.4,0-0.7,0-1.1,0
		c-1.1,0-1.4,0.4-1.5,1.4c0,0.7,0,1.4,0,2.1C93.5,255.6,93.5,268.4,93.5,281.1z M71.5,175.9c0-10.2,0-20.4,0-30.7c0-2.8,0-5.5,0-8.3
		c0-0.6,0-1.1,0-1.7c-0.1-0.9-0.4-1.3-1.3-1.3c-0.6,0-1.3,0-1.9,0c-12.1,0-24.2,0-36.4,0c-0.6,0-1.1,0-1.7,0c-0.2,0-0.4,0.1-0.6,0.1
		c-0.3,0.1-0.7,0.4-0.7,0.7c-0.1,0.8-0.1,1.7-0.1,2.5c0,25.6,0,51.2,0,76.8c0,0.4,0,0.7,0,1.1c0,0.3,0,0.6,0,0.8
		c0.1,1.1,0.4,1.4,1.4,1.5c0.4,0,0.8,0,1.3,0c12.4,0,24.8,0,37.2,0c0.6,0,1.1,0,1.7-0.1c0.6,0,1-0.5,1.1-1.1c0-0.8,0.1-1.6,0.1-2.3
		C71.5,201.3,71.5,188.6,71.5,175.9z M28.8,280.9c0,12.8,0,25.5,0,38.3c0,0.6,0,1.3,0,1.9c0,1.5,0.3,1.8,1.7,1.8c0.4,0,0.9,0,1.3,0
		c3.2,0,6.5,0,9.7,0c9,0,17.9,0,26.9,0c0.6,0,1.3,0,1.9,0c0.7,0,1.1-0.5,1.2-1.2c0-0.8,0.1-1.6,0.1-2.3c0-25.5,0-50.9,0-76.4
		c0-0.4,0-0.9,0-1.3c0-0.3,0-0.6,0-0.8c-0.1-1.1-0.4-1.4-1.4-1.5c-0.4,0-0.8,0-1.3,0c-12.5,0-25,0-37.4,0c-0.4,0-0.9,0-1.3,0
		c-0.9,0.1-1.2,0.4-1.3,1.4c0,0.7,0,1.4,0,2.1C28.8,255.5,28.8,268.2,28.8,280.9z M28.8,70.2c0,12.8,0,25.7,0,38.5
		c0,0.6,0,1.3,0,1.9c0,1.1,0.4,1.4,1.4,1.5c0.6,0,1.3,0,1.9,0c12,0,24,0,35.9,0c0.5,0,1,0,1.5,0c0.3,0,0.6,0,0.8-0.1
		c0.6-0.1,1-0.5,1.1-1.1c0.1-0.8,0.1-1.7,0.1-2.5c0-25.4,0-50.8,0-76.2c0-0.6,0-1.1,0-1.7c0-0.3,0-0.6,0-0.8
		c-0.1-0.7-0.5-1.1-1.1-1.1c-0.7,0-1.4-0.1-2.1-0.1c-12.1,0-24.2,0-36.4,0c-0.6,0-1.1,0-1.7,0c-0.2,0-0.4,0.1-0.6,0.1
		c-0.3,0.1-0.7,0.4-0.7,0.7c-0.1,0.8-0.1,1.5-0.1,2.3C28.8,44.6,28.8,57.4,28.8,70.2z M93.5,70.3c0,12.7,0,25.4,0,38.1
		c0,0.7,0,1.4,0,2.1c0,0.3,0.1,0.6,0.1,0.8c0,0.3,0.4,0.7,0.7,0.7c0.6,0.1,1.3,0.1,1.9,0.1c12.4,0,24.8,0,37.2,0c0.5,0,1,0,1.5,0
		c0.8,0,1.2-0.4,1.2-1.2c0-0.8,0.1-1.7,0.1-2.5c0-25.4,0-50.8,0-76.1c0-0.6,0-1.3,0-1.9c0-0.3,0-0.6-0.1-0.8
		c-0.1-0.4-0.4-0.8-0.8-0.9c-0.5,0-1-0.1-1.5-0.1c-12.6,0-25.2,0-37.8,0c-0.4,0-0.8,0-1.3,0c-0.7,0-1.1,0.4-1.1,1
		c0,0.8-0.1,1.6-0.1,2.3C93.5,44.8,93.5,57.5,93.5,70.3z M93.5,175.7c0,12.7,0,25.4,0,38.1c0,0.7,0,1.4,0,2.1c0,1.2,0.3,1.5,1.5,1.6
		c0.3,0,0.6,0,0.8,0c12.6,0,25.2,0,37.8,0c0.4,0,0.9,0,1.3,0c0.7-0.1,1.1-0.4,1.2-1.2c0-0.7,0-1.4,0-2.1c0-7.9,0-15.8,0-23.7
		c0-1.1,0-2.1,0-3.2c0-0.4-0.1-0.8-0.1-1.3c-0.1-0.4-0.4-0.8-0.9-0.8c-0.7-0.1-1.4-0.1-2.1-0.1c-0.9,0-1.7-0.2-2.5-0.6
		c-0.4-0.2-0.8-0.4-1-0.7c-1.4-1.7-0.7-4.5,1.4-5c0.4-0.1,0.8-0.2,1.2-0.2c0.6,0,1.1,0,1.7,0c0.4,0,0.8,0,1.3-0.1
		c0.5,0,0.9-0.4,0.9-1c0.1-0.7,0.1-1.4,0.1-2.1c0-12.8,0-25.5,0-38.3c0-0.4,0-0.7,0-1.1c0-0.3,0-0.6,0-0.8c-0.1-0.8-0.4-1.2-1.2-1.2
		c-0.4,0-0.8,0-1.3,0c-12.6,0-25.2,0-37.8,0c-0.2,0-0.4,0-0.6,0c-1.4,0-1.7,0.3-1.7,1.6c0,0.6,0,1.3,0,1.9
		C93.5,150.2,93.5,163,93.5,175.7z M82.5,356.8c16.6,0,33.2,0,49.9,0c0.6,0,1.3,0,1.9,0c0.3,0,0.6,0,0.8,0c0.6-0.1,1-0.4,1.1-1.1
		c0-0.4,0-0.8,0.1-1.3c0-8.5,0-16.9,0-25.4c0-0.5,0-1-0.1-1.5c-0.1-0.5-0.4-0.9-1-1c-0.9-0.1-1.8-0.1-2.7-0.1c-33.2,0-66.5,0-99.7,0
		c-0.5,0-1,0-1.5,0c-0.3,0-0.6,0-0.8,0c-1,0.1-1.4,0.4-1.5,1.4c0,0.6,0,1.3,0,1.9c0,6.1,0,12.1,0,18.2c0,2.1,0,4.2,0,6.3
		c0,0.6,0.1,1.1,0.1,1.7c0,0.3,0.4,0.7,0.7,0.7c0.8,0.1,1.5,0.1,2.3,0.1C48.8,356.8,65.6,356.8,82.5,356.8z M82.5,220.7
		c-16.7,0-33.4,0-50.1,0c-0.8,0-1.6,0-2.3,0c-0.8,0-1.2,0.4-1.2,1.1c0,0.1,0,0.3,0,0.4c0,3.9,0,7.9,0,11.8c0,0.3,0.1,0.6,0.1,0.8
		c0.1,0.4,0.4,0.7,0.7,0.7c0.8,0.1,1.5,0.1,2.3,0.1c33.7,0,67.3,0,101,0c0.6,0,1.1,0,1.7,0c1-0.1,1.4-0.4,1.5-1.4c0-0.1,0-0.3,0-0.4
		c0-3.9,0-7.8,0-11.6c0-0.3-0.1-0.6-0.1-0.8c-0.1-0.3-0.5-0.7-0.7-0.7c-0.8,0-1.5-0.1-2.3-0.1C116.2,220.7,99.3,220.7,82.5,220.7z
		 M82.4,130.7c16.6,0,33.2,0,49.9,0c0.6,0,1.3,0,1.9,0c1.8,0,2-0.2,2-2.1c0-3.6,0-7.2,0-10.8c0-0.4-0.1-0.8-0.1-1.3
		c-0.1-0.4-0.4-0.8-0.8-0.8c-0.8-0.1-1.5-0.1-2.3-0.1c-33.6,0-67.2,0-100.8,0c-0.6,0-1.1,0-1.7,0c-1.2,0.1-1.5,0.4-1.6,1.5
		c0,0.3,0,0.6,0,0.8c0,3.5,0,7.1,0,10.6c0,0.4,0,0.8,0.1,1.3c0,0.4,0.4,0.8,0.8,0.8c0.8,0,1.6,0.1,2.3,0.1
		C48.8,130.7,65.6,130.7,82.4,130.7z M82.4,25.4c16.6,0,33.3,0,49.9,0c0.7,0,1.4,0,2.1,0c0.3,0,0.6,0,0.8-0.1
		c0.4-0.1,0.8-0.4,0.8-0.9c0.1-0.4,0.1-0.8,0.1-1.3c0-3.5,0-7.1,0-10.6c0-0.4,0-0.8-0.1-1.3c-0.1-0.5-0.5-0.9-1-0.9
		c-0.8,0-1.7-0.1-2.5-0.1c-33.4,0-66.8,0-100.2,0c-0.5,0-1,0-1.5,0c-1.8,0-2,0.2-2,2.1c0,3.6,0,7.2,0,10.8c0,0.4,0,0.8,0.1,1.3
		c0,0.4,0.4,0.8,0.9,0.8c0.8,0,1.6,0.1,2.3,0.1C48.9,25.4,65.6,25.4,82.4,25.4z M75,175.8c0,3.7,0,7.3,0,11c0,9.2,0,18.3,0,27.5
		c0,0.7,0,1.4,0,2.1c0,0.6,0.4,1,1.1,1c0.1,0,0.3,0,0.4,0c3.9,0,7.9,0,11.8,0c0.3,0,0.6,0,0.8-0.1c0.3,0,0.7-0.4,0.7-0.7
		c0-0.8,0.1-1.7,0.1-2.5c0-25.6,0-51.2,0-76.8c0-0.6,0-1.1,0-1.7c0-0.3,0-0.6-0.1-0.8c-0.1-0.4-0.4-0.8-0.9-0.8
		c-0.2,0-0.4-0.1-0.6-0.1c-3.9,0-7.9,0-11.8,0c-0.3,0-0.6,0-0.8,0.1c-0.3,0-0.7,0.4-0.7,0.7c0,0.8-0.1,1.6-0.1,2.3
		C75,150,75,162.9,75,175.8z M90,70.3c0-3.9,0-7.9,0-11.8c0-9,0-17.9,0-26.9c0-0.7,0-1.4-0.1-2.1c0-0.4-0.4-0.8-0.8-0.9
		c-0.5,0-1-0.1-1.5-0.1c-3.5,0-6.9,0-10.4,0c-0.4,0-0.7,0-1.1,0c-0.8,0-1.2,0.4-1.2,1.2c0,0.7,0,1.4,0,2.1c0,25.6,0,51.2,0,76.8
		c0,0.6,0,1.1,0,1.7c0,0.3,0,0.6,0.1,0.8c0,0.4,0.4,0.8,0.8,0.9c0.5,0,1,0.1,1.5,0.1c3.5,0,6.9,0,10.4,0c0.4,0,0.8,0,1.3-0.1
		c0.6,0,1-0.4,1-0.9c0.1-0.8,0.1-1.6,0.1-2.3C90,96,90,83.2,90,70.3z M75,281.1c0,12.7,0,25.4,0,38.1c0,0.6,0,1.1,0,1.7
		c0,1.9,0.2,2,2.1,2c3.6,0,7.2,0,10.8,0c0.4,0,0.8,0,1.3-0.1c0.4,0,0.8-0.4,0.8-0.8c0.1-0.8,0.1-1.7,0.1-2.5c0-25.6,0-51.2,0-76.8
		c0-0.6,0-1.3,0-1.9c0-0.3-0.1-0.6-0.1-0.8c-0.1-0.3-0.3-0.5-0.6-0.6c-0.3-0.1-0.7-0.1-1-0.1c-3.9,0-7.7,0-11.6,0
		c-0.3,0-0.6,0-0.8,0.1c-0.3,0-0.7,0.4-0.7,0.7c0,0.8-0.1,1.5-0.1,2.3C75,255.3,75,268.2,75,281.1z M161.5,181.2c0-57,0-114,0-171
		c0-0.8,0-1.6,0-2.3c0-0.3,0-0.6,0-0.8c0-0.3-0.2-0.5-0.3-0.5c-0.1,0-0.3,0-0.4,0.1c-0.6,0.6-1.2,1.2-1.8,1.8
		c-0.5,0.5-0.7,1.1-0.7,1.7c0,1,0,2,0,3c0,113.1,0,226.3,0,339.4c0,0.7,0,1.4,0,2.1c0,0.4,0,0.7,0.1,1.1c0.1,0.6,0.4,0.9,0.9,1
		c0.4,0,0.8,0,1.3,0c0.6,0,0.9-0.4,1-0.9c0-0.9,0.1-1.8,0.1-2.7C161.5,295.8,161.5,238.5,161.5,181.2z M3.5,181.3
		c0,57.2,0,114.4,0,171.6c0,0.8,0,1.6,0,2.3c0,0.3,0.1,0.6,0.1,0.8c0.1,0.3,0.3,0.5,0.6,0.5c0.6,0.1,1.1,0,1.7,0
		c0.3,0,0.7-0.4,0.7-0.7c0.1-0.3,0.1-0.6,0.1-0.8c0-0.8,0-1.7,0-2.5c0-113.2,0-226.4,0-339.6c0-0.7,0-1.4,0-2.1c0-0.4,0-0.7-0.1-1.1
		c0-0.4-0.2-0.8-0.5-1.2C5.6,8,4.8,7.3,4.1,6.6c-0.1-0.1-0.3,0-0.4,0C3.7,6.7,3.6,6.9,3.6,7c0,0.9-0.1,1.7-0.1,2.5
		C3.5,66.8,3.5,124.1,3.5,181.3z M82.7,3.5c-24.3,0-48.6,0-72.9,0c-0.7,0-1.4,0-2.1,0c-0.3,0-0.6,0-0.8,0.1c-0.1,0-0.2,0.2-0.3,0.3
		c0,0,0,0.2,0,0.2c0.7,0.8,1.5,1.5,2.2,2.3C9.1,6.6,9.6,6.8,10,6.8c0.9,0,1.8,0,2.7,0c46.5,0,93,0,139.5,0c0.6,0,1.3,0,1.9,0
		c0.4,0,0.7,0,1.1-0.1c0.4,0,0.7-0.2,1-0.4c0.8-0.7,1.5-1.5,2.2-2.3c0,0,0.1-0.2,0.1-0.2c-0.1-0.1-0.2-0.3-0.3-0.3
		c-0.8-0.1-1.5-0.1-2.3-0.1C131.5,3.5,107.1,3.5,82.7,3.5z"/>
	<path d="M147.4,192.1c1.5,0,2.9,0.7,4,2c0.2,0.2,0.3,0.5,0.4,0.7c0.5,1.4,0.4,2.8,0,4.2c-0.1,0.2-0.2,0.4-0.3,0.6
		c-1.9,2.5-4.7,2.7-6.8,1.6c-1-0.5-1.8-1.4-2.1-2.5c-0.2-0.8-0.5-1.6-0.3-2.5C142.7,193.7,144.6,192.1,147.4,192.1z"/>
</g>
</svg>
