<?xml version="1.0" encoding="utf-8"?>
<!-- Generator: Adobe Illustrator 25.0.0, SVG Export Plug-In . SVG Version: 6.00 Build 0)  -->
<svg version="1.1" id="Layer_1" xmlns="http://www.w3.org/2000/svg" xmlns:xlink="http://www.w3.org/1999/xlink" x="0px" y="0px"
	 viewBox="0 0 165 360" style="enable-background:new 0 0 165 360;" xml:space="preserve">
<g>
	<path d="M0,179.8C0,121.4,0,63,0,4.6c0-0.9,0-1.8,0-2.8c0.1-1,0.7-1.7,1.7-1.8c0.4,0,0.7,0,1.1,0c0.6,0,1.3,0,1.9,0
		c51.8,0,103.6,0,155.4,0c0.8,0,1.6,0,2.3,0c0.4,0,0.7,0,1,0.1c0.7,0.2,1.1,0.6,1.3,1.3c0.1,0.3,0.1,0.7,0.2,1c0,0.7,0,1.4,0,2.1
		c0,117,0,234,0,350.9c0,0.8,0,1.6,0,2.3c-0.1,1.3-0.8,2-2.1,2.1c-0.4,0-0.7,0-1.1,0c-0.6,0-1.3,0-1.9,0c-51.6,0-103.2,0-154.8,0
		c-0.9,0-1.8,0-2.8,0c-0.4,0-0.8-0.1-1.2-0.3c-0.6-0.2-0.9-0.6-1-1.3C0,358.1,0,357.8,0,357.4c0-0.8,0-1.7,0-2.5
		C0,296.5,0,238.2,0,179.8z M82.3,323c8.2,0,16.4,0,24.6,0c8.8,0,17.6,0,26.5,0c0.7,0,1.4,0,2.1-0.1c0.4,0,0.8-0.4,0.9-0.8
		c0-0.6,0.1-1.3,0.1-1.9c0-17.3,0-34.6,0-51.8c0-0.5,0-1,0-1.5c0-0.8-0.4-1.2-1.2-1.2c-0.8,0-1.6,0-2.3,0c-33.6,0-67.2,0-100.7,0
		c-0.6,0-1.1,0-1.7,0c-0.3,0-0.6,0-0.8,0.1c-0.4,0-0.8,0.4-0.9,0.8c0,0.6-0.1,1.3-0.1,1.9c0,17.3,0,34.6,0,51.8c0,0.6,0,1.1,0.1,1.7
		c0,0.6,0.4,1,0.9,1c0.8,0,1.6,0.1,2.3,0.1C48.7,323,65.5,323,82.3,323z M82.6,28.5c-16.7,0-33.4,0-50.2,0c-0.7,0-1.4,0-2.1,0
		c-0.3,0-0.6,0-0.8,0.1c-0.4,0.1-0.8,0.4-0.8,0.9c0,0.7-0.1,1.4-0.1,2.1c0,16.9,0,33.9,0,50.8c0,0.5,0,1,0,1.5c0,0.3,0,0.6,0.1,0.8
		c0.1,0.4,0.4,0.8,0.8,0.8c0.8,0.1,1.5,0.1,2.3,0.1c33.7,0,67.4,0,101.2,0c0.6,0,1.1,0,1.7,0c0.3,0,0.6-0.1,0.8-0.1
		c0.3-0.1,0.7-0.4,0.7-0.7c0.1-0.8,0.1-1.5,0.1-2.3c0-16.9,0-33.9,0-50.8c0-0.6,0-1.1,0-1.7c0-0.2-0.1-0.4-0.1-0.6
		c-0.1-0.3-0.4-0.7-0.7-0.7c-0.8-0.1-1.7-0.1-2.5-0.1C116.2,28.5,99.4,28.5,82.6,28.5z M82.4,243.9c16.7,0,33.4,0,50.2,0
		c0.7,0,1.4,0,2.1,0c0.3,0,0.6,0,0.8-0.1c0.4-0.1,0.8-0.4,0.8-0.9c0-0.8,0.1-1.6,0.1-2.3c0-16.8,0-33.6,0-50.4c0-0.6,0-1.3,0-1.9
		c0-0.2,0-0.4-0.1-0.6c-0.1-0.4-0.5-0.8-0.9-0.8c-0.9-0.1-1.8-0.1-2.7-0.1c-33.4,0-66.9,0-100.3,0c-0.6,0-1.3,0-1.9,0
		c-0.3,0-0.6,0-0.8,0.1c-0.5,0.1-0.9,0.5-0.9,1c0,0.8-0.1,1.6-0.1,2.3c0,16.8,0,33.6,0,50.4c0,0.6,0,1.3,0,1.9
		c0,0.2,0.1,0.4,0.1,0.6c0.1,0.3,0.4,0.7,0.7,0.7c0.8,0,1.7,0.1,2.5,0.1C48.8,243.9,65.6,243.9,82.4,243.9z M82.5,107.7
		c-16.7,0-33.4,0-50.2,0c-0.7,0-1.4,0-2.1,0c-0.3,0-0.6,0.1-0.8,0.1c-0.3,0.1-0.7,0.4-0.7,0.7c-0.1,0.7-0.1,1.4-0.1,2.1
		c0,8.3,0,16.6,0,25c0,8.7,0,17.4,0,26c0,0.7,0,1.4,0.1,2.1c0,0.5,0.4,0.9,1,1c0.8,0.1,1.6,0.1,2.3,0.1c33.7,0,67.4,0,101.2,0
		c0.6,0,1.1,0,1.7,0c0.2,0,0.4,0,0.6-0.1c0.4-0.1,0.8-0.4,0.8-0.8c0-0.8,0.1-1.6,0.1-2.3c0-16.9,0-33.7,0-50.6c0-0.6,0-1.1,0-1.7
		c0-0.2,0-0.4-0.1-0.6c-0.1-0.4-0.4-0.8-0.8-0.8c-0.8-0.1-1.7-0.1-2.5-0.1C116.1,107.7,99.3,107.7,82.5,107.7z M10.1,183.2
		c0,56.4,0,112.8,0,169.1c0,0.8,0,1.6,0,2.3c0,0.3,0,0.6,0.1,0.8c0,0.4,0.4,0.8,0.8,0.9c0.3,0,0.6,0.1,0.8,0.1c3.9,0,7.8,0,11.6,0
		c0.3,0,0.6,0,0.8-0.1c0.3,0,0.7-0.4,0.7-0.7c0.1-0.3,0.1-0.6,0.1-0.8c0-0.8,0-1.7,0-2.5c0-92,0-184,0-276c0-21,0-41.9,0-62.9
		c0-0.8,0-1.6-0.1-2.3c0-0.7-0.4-1.1-1.1-1.1c-0.4,0-0.8,0-1.3,0c-3.5,0-6.9,0-10.4,0c-0.4,0-0.8,0-1.3,0c-0.6,0-1,0.4-1,0.9
		c0,0.9-0.1,1.8-0.1,2.7C10.1,70.2,10.1,126.7,10.1,183.2z M155,183.2c0-56.4,0-112.7,0-169.1c0-0.8,0-1.6,0-2.3
		c0-0.3,0-0.6-0.1-0.8c0-0.4-0.4-0.8-0.8-0.9c-0.3,0-0.6-0.1-0.8-0.1c-4,0-8,0-12.1,0c-0.3,0-0.6,0-0.8,0.1c-0.3,0-0.7,0.4-0.7,0.7
		c0,0.8-0.1,1.7-0.1,2.5c0,53.8,0,107.7,0,161.5c0,0.7,0,1.4,0,2.1c0,0.2,0.1,0.4,0.1,0.6c0.1,0.3,0.3,0.5,0.6,0.6
		c0.3,0.1,0.7,0.1,1,0.1c1.3,0.1,2.5-0.1,3.6-0.8c1.2-0.8,2.7-0.8,4.1-0.3c1.1,0.4,2,1.1,2.6,2.1c1.2,2,0.7,4.8-1,6.1
		c-1.7,1.3-3.4,1.6-5.3,0.8c-0.4-0.2-0.7-0.4-1.1-0.6c-0.3-0.1-0.7-0.3-1-0.3c-0.8,0-1.7,0-2.5,0c-0.5,0-0.9,0.4-0.9,1
		c0,0.9-0.1,1.8-0.1,2.7c0,54.6,0,109.2,0,163.8c0,0.6,0,1.1,0,1.7c0,1.9,0.2,2,2.1,2c3.7,0,7.5,0,11.2,0c0.4,0,0.7,0,1.1-0.1
		c0.5-0.1,0.9-0.4,1-0.9c0-0.9,0.1-1.8,0.1-2.7C155,296.2,155,239.7,155,183.2z M82.6,356.5c16.7,0,33.4,0,50.2,0c0.7,0,1.4,0,2.1,0
		c0.3,0,0.6,0,0.8-0.1c0.3-0.1,0.5-0.3,0.6-0.6c0.1-0.3,0.1-0.7,0.1-1c0-1.3,0-2.5,0-3.8c0-7.1,0-14.2,0-21.4c0-0.7,0-1.4-0.1-2.1
		c0-0.4-0.4-0.8-0.8-0.8c-0.9-0.1-1.8-0.1-2.7-0.1c-33.4,0-66.9,0-100.3,0c-0.7,0-1.4,0-2.1,0c-0.3,0-0.6,0.1-0.8,0.1
		c-0.3,0.1-0.7,0.4-0.7,0.7c-0.1,0.7-0.1,1.4-0.1,2.1c0,8,0,16.1,0,24.1c0,0.5,0,1,0,1.5c0,0.2,0,0.4,0.1,0.6
		c0.1,0.3,0.4,0.7,0.7,0.7c0.8,0,1.7,0.1,2.5,0.1C48.8,356.5,65.7,356.5,82.6,356.5z M82.3,25c16.8,0,33.6,0,50.4,0
		c0.7,0,1.4,0,2.1,0c0.3,0,0.6-0.1,0.8-0.1c0.3-0.1,0.5-0.3,0.6-0.6c0.1-0.4,0.1-0.8,0.1-1.3c0-3.7,0-7.5,0-11.2c0-0.2,0-0.4,0-0.6
		c-0.1-0.8-0.4-1.2-1.2-1.2c-0.7,0-1.4,0-2.1,0c-33.7,0-67.5,0-101.2,0c-0.6,0-1.3,0-1.9,0c-0.2,0-0.4,0-0.6,0.1
		c-0.3,0.1-0.5,0.3-0.6,0.6c-0.1,0.3-0.1,0.7-0.1,1c0,3.9,0,7.8,0,11.6c0,0.2,0,0.4,0,0.6c0.1,0.5,0.4,1,0.9,1
		c0.8,0.1,1.7,0.1,2.5,0.1C48.9,25,65.6,25,82.3,25z M82.3,104.2c16.8,0,33.6,0,50.4,0c0.7,0,1.4,0,2.1,0c0.3,0,0.6,0,0.8-0.1
		c0.3-0.1,0.5-0.3,0.6-0.6c0.1-0.4,0.1-0.8,0.1-1.3c0-3.7,0-7.5,0-11.2c0-0.3,0-0.6,0-0.8c0-0.6-0.4-1-0.9-1c-0.8,0-1.6-0.1-2.3-0.1
		c-33.7,0-67.4,0-101.2,0c-0.6,0-1.1,0-1.7,0c-0.2,0-0.4,0-0.6,0.1c-0.4,0.1-0.8,0.4-0.9,0.8c0,0.5-0.1,1-0.1,1.5
		c0,3.5,0,6.9,0,10.4c0,0.4,0,0.8,0.1,1.3c0,0.6,0.4,1,0.9,1c0.8,0,1.6,0.1,2.3,0.1C48.7,104.2,65.5,104.2,82.3,104.2z M82.5,262.5
		c16.8,0,33.6,0,50.4,0c0.7,0,1.4,0,2.1,0c0.2,0,0.4,0,0.6-0.1c0.3-0.1,0.5-0.3,0.6-0.6c0.1-0.4,0.1-0.8,0.1-1.3c0-3.7,0-7.3,0-11
		c0-0.4,0-0.7-0.1-1.1c-0.1-0.5-0.4-1-0.9-1c-0.8-0.1-1.7-0.1-2.5-0.1c-33.6,0-67.2,0-100.8,0c-0.6,0-1.3,0-1.9,0
		c-0.3,0-0.6,0.1-0.8,0.1c-0.3,0.1-0.5,0.3-0.6,0.6c-0.1,0.4-0.1,0.8-0.1,1.3c0,3.7,0,7.5,0,11.2c0,0.3,0,0.6,0.1,0.8
		c0.1,0.6,0.4,0.9,0.9,1c0.8,0,1.6,0.1,2.3,0.1C48.8,262.5,65.7,262.5,82.5,262.5z M82.7,168.3c-15.2,0-30.5,0-45.7,0
		c-1.9,0-3.8,0-5.7,0c-0.6,0-1.1,0-1.7,0.1c-0.4,0-0.8,0.4-0.8,0.8c0,0.5-0.1,1-0.1,1.5c0,3.5,0,6.9,0,10.4c0,0.4,0,0.7,0,1.1
		c0,0.8,0.4,1.2,1.2,1.2c0.8,0,1.6,0,2.3,0c31.2,0,62.5,0,93.7,0c0.6,0,1.3,0,1.9,0c0.2,0,0.4,0,0.6-0.1c0.2,0,0.4-0.3,0.4-0.4
		c0-0.3,0-0.6,0-0.8c-0.1-0.7,0.2-1.4,0.5-2c0.3-0.5,0.7-0.9,1.2-1.1c0.7-0.3,1.5-0.5,2.3-0.5c0.6,0,1.1,0,1.7,0
		c0.4,0,0.7,0,1.1-0.1c0.3,0,0.7-0.4,0.7-0.7c0-0.3,0.1-0.6,0.1-0.8c0-2.3,0-4.5,0-6.8c0-0.3-0.1-0.6-0.1-0.8c0-0.3-0.4-0.7-0.7-0.7
		c-0.8-0.1-1.7-0.1-2.5-0.1C116.2,168.2,99.5,168.3,82.7,168.3z M3.3,180.9c0,57.2,0,114.3,0,171.5c0,0.8,0,1.6,0,2.3
		c0,1.6,0.3,1.8,1.9,1.8c0.2,0,0.4,0,0.6,0c0.5-0.1,1-0.4,1-0.9c0-1,0.1-2,0.1-3c0-99.8,0-199.7,0-299.5c0-13.6,0-27.2,0-40.9
		c0-0.8,0-1.6,0-2.3c0-0.4-0.2-0.8-0.5-1.2C5.5,7.9,4.7,7.1,3.9,6.3c-0.1-0.1-0.3-0.1-0.4,0S3.3,6.5,3.3,6.7c0,0.8,0,1.5,0,2.3
		C3.3,66.3,3.3,123.6,3.3,180.9z M161.5,181.3c0-57.1,0-114.1,0-171.2c0-0.8,0-1.6,0-2.3c0-0.3-0.1-0.6-0.1-0.8
		c0-0.2-0.3-0.4-0.5-0.3c-0.8,0.5-1.4,1.2-2,1.9c-0.4,0.4-0.6,1-0.6,1.5c0,0.8,0,1.7,0,2.5c0,113.4,0,226.7,0,340.1
		c0,0.7,0,1.4,0,2.1c0,0.3,0,0.6,0.1,0.8c0.1,0.4,0.4,0.8,0.9,0.8c0.3,0,0.6,0,0.8,0c0.9,0,1.3-0.4,1.4-1.2c0-0.9,0-1.8,0-2.7
		C161.5,295.4,161.5,238.3,161.5,181.3z M82.5,3.5c-24.2,0-48.4,0-72.6,0c-0.6,0-1.3,0-1.9,0c-0.3,0-0.6,0-0.8,0
		c-0.3,0-0.5,0.2-0.5,0.3c0,0.1,0,0.3,0.1,0.4C7.4,4.9,8,5.5,8.6,6.1C9,6.5,9.5,6.7,10.1,6.7c0.8,0,1.7,0,2.5,0
		c46.6,0,93.1,0,139.7,0c0.7,0,1.4,0,2.1,0c0.3,0,0.6,0,0.8-0.1c0.3-0.1,0.6-0.1,0.8-0.3c0.8-0.7,1.6-1.4,2.2-2.2
		c0.1-0.2,0-0.5-0.2-0.5c-0.8,0-1.7-0.1-2.5-0.1C131.2,3.5,106.9,3.5,82.5,3.5z"/>
	<path d="M142.3,196.9c-0.1-3.1,2.2-4.9,4.8-5.1c2.2-0.1,5.2,1.6,5.2,5c0,2.6-2.3,5-5,5C144.8,201.9,142.3,199.6,142.3,196.9z"/>
</g>
</svg>
