<?xml version="1.0" encoding="utf-8"?>
<!-- Generator: Adobe Illustrator 25.0.0, SVG Export Plug-In . SVG Version: 6.00 Build 0)  -->
<svg version="1.1" id="Layer_1" xmlns="http://www.w3.org/2000/svg" xmlns:xlink="http://www.w3.org/1999/xlink" x="0px" y="0px"
	 viewBox="0 0 165 360" style="enable-background:new 0 0 165 360;" xml:space="preserve">
<g>
	<path d="M165,180.1c0,58.4,0,116.8,0,175.2c0,1,0,2-0.1,3c-0.1,0.9-0.8,1.6-1.7,1.7c-0.3,0-0.6,0.1-0.8,0.1c-0.7,0-1.4,0-2.1,0
		c-29.5,0-58.9,0-88.4,0c-22.5,0-45,0-67.5,0c-0.8,0-1.7,0-2.5-0.1c-0.9-0.1-1.6-0.7-1.8-1.6c-0.1-0.5-0.1-1-0.2-1.5
		c0-0.6,0-1.3,0-1.9C0,238.3,0,121.7,0,5c0-0.6,0-1.3,0-1.9c0-0.5,0.1-1,0.2-1.5C0.3,0.7,1,0.1,1.9,0c0.4,0,0.7,0,1.1,0
		c0.8,0,1.6,0,2.3,0C57,0,108.7,0,160.5,0c1,0,2,0,3,0.1c0.7,0.1,1.1,0.5,1.4,1.2c0.1,0.2,0.1,0.4,0.1,0.6c0,0.4,0.1,0.7,0.1,1.1
		c0,0.8,0,1.6,0,2.3C165,63.5,165,121.8,165,180.1z M114.2,175.7c0,47.7,0,95.5,0,143.2c0,0.8,0,1.7,0,2.5c0,0.3,0.1,0.6,0.1,0.8
		c0.1,0.3,0.3,0.5,0.6,0.6c0.3,0.1,0.7,0.1,1,0.1c6.1,0,12.3,0,18.4,0c0.3,0,0.6,0,0.8-0.1c0.4-0.1,0.8-0.4,0.8-0.9
		c0-0.3,0.1-0.6,0.1-0.8c0-0.7,0-1.4,0-2.1c0-43.4,0-86.7,0-130.1c0-0.6,0-1.3,0-1.9c0-0.3,0-0.6-0.1-0.8c-0.1-0.5-0.4-0.9-1-1
		c-0.8-0.1-1.6-0.1-2.3-0.1c-1,0-1.8-0.3-2.6-0.9c-0.9-0.6-1.3-1.5-1.4-2.5c-0.1-1.1,0.7-2.4,1.7-2.9c0.8-0.4,1.6-0.6,2.4-0.6
		c0.7,0,1.4,0,2.1-0.1c0.5,0,0.9-0.5,1-1c0.1-0.9,0.1-1.8,0.1-2.7c0-42.7,0-85.3,0-128c0-4.9,0-9.7,0-14.6c0-0.7,0-1.4-0.1-2.1
		c0-0.7-0.5-1.1-1.1-1.1c-0.4,0-0.7,0-1.1,0c-5.9,0-11.8,0-17.8,0c-0.4,0-0.7,0-1.1,0.1c-0.4,0-0.8,0.4-0.9,0.8
		c-0.1,0.9-0.1,1.8-0.1,2.7C114.2,80,114.2,127.9,114.2,175.7z M10.3,183.2c0,56.4,0,112.9,0,169.3c0,0.9,0,1.7,0,2.5
		c0,1.1,0.4,1.4,1.4,1.5c0.2,0,0.4,0,0.6,0c3.6,0,7.2,0,10.8,0c0.4,0,0.8-0.1,1.3-0.1c0.4-0.1,0.8-0.5,0.8-0.9
		c0.1-0.8,0.1-1.7,0.1-2.5c0-113.1,0-226.1,0-339.2c0-0.6,0-1.1,0-1.7c0-0.3,0-0.6-0.1-0.8c-0.1-0.4-0.4-0.8-0.8-0.9
		c-0.5-0.1-1-0.1-1.5-0.1c-3.5,0-6.9,0-10.4,0c-0.4,0-0.8,0-1.3,0.1c-0.5,0.1-0.9,0.5-0.9,1c0,0.9-0.1,1.8-0.1,2.7
		C10.3,70.5,10.3,126.8,10.3,183.2z M154.7,183.6c0-56.2,0-112.4,0-168.6c0-0.7,0-1.4,0-2.1c0-0.4,0-0.9,0-1.3
		c-0.1-0.9-0.4-1.2-1.4-1.3c-0.1,0-0.3,0-0.4,0c-3.8,0-7.6,0-11.4,0c-0.4,0-0.7,0.1-1,0.1c-0.3,0.1-0.7,0.5-0.7,0.7
		c0,0.9-0.1,1.8-0.1,2.7c0,53.6,0,107.2,0,160.8c0,0.6,0,1.3,0,1.9c0,0.3,0,0.6,0.1,0.8c0,0.3,0.4,0.7,0.7,0.7
		c0.9,0.2,1.8,0.2,2.7,0c0.3-0.1,0.6-0.2,0.8-0.4c0.8-0.7,1.7-0.9,2.7-1.1c1.3-0.3,2.4,0.1,3.4,0.9c1.8,1.5,2.6,3.3,1.9,5.6
		c-0.5,1.6-1.5,2.7-3.1,3.2c-1.4,0.5-2.8,0.3-4.1-0.4c-0.3-0.2-0.6-0.4-0.9-0.5c-0.3-0.1-0.5-0.3-0.8-0.3c-0.8,0-1.7,0-2.5,0
		c-0.4,0-0.8,0.4-0.8,0.9c0,0.9-0.1,1.8-0.1,2.7c0,54.6,0,109.2,0,163.8c0,0.6,0,1.3,0,1.9c0,0.3,0,0.6,0,0.8c0.1,0.6,0.5,1,1.1,1.1
		c0.4,0,0.7,0.1,1.1,0.1c3.5,0,7,0,10.6,0c0.4,0,0.8,0,1.3-0.1c0.5-0.1,0.9-0.5,0.9-1c0-0.9,0.1-1.8,0.1-2.7
		C154.7,296.3,154.7,240,154.7,183.6z M95.6,175.8c0,47.8,0,95.5,0,143.3c0,0.8,0,1.6,0,2.3c0,1.3,0.4,1.6,1.6,1.6
		c3.9,0,7.9,0,11.8,0c0.3,0,0.6-0.1,0.8-0.1c0.3-0.1,0.7-0.4,0.7-0.7c0.1-0.9,0.1-1.8,0.1-2.7c0-95.7,0-191.4,0-287.2
		c0-0.7,0-1.4,0-2.1c0-0.3-0.1-0.6-0.1-0.8c-0.1-0.3-0.3-0.5-0.6-0.6c-0.4-0.1-0.8-0.1-1.3-0.1c-3.7,0-7.5,0-11.2,0
		c-0.3,0-0.6,0-0.8,0c-0.6,0.1-1,0.4-1.1,1.1c0,0.9,0,1.8,0,2.8C95.6,80.3,95.6,128,95.6,175.8z M82.5,326.5c-16.6,0-33.3,0-49.9,0
		c-0.7,0-1.4,0-2.1,0c-0.3,0-0.6,0.1-0.8,0.1c-0.3,0-0.7,0.4-0.7,0.7c-0.1,0.6-0.1,1.1-0.1,1.7c0,8.3,0,16.6,0,25c0,0.5,0,1,0.1,1.5
		c0,0.5,0.4,1,0.9,1c0.9,0.1,1.8,0.1,2.7,0.1c33.3,0,66.5,0,99.8,0c0.7,0,1.4,0,2.1,0c0.3,0,0.6,0,0.8-0.1c0.4-0.1,0.7-0.3,0.7-0.7
		c0.1-0.6,0.2-1.1,0.2-1.7c0-8.3,0-16.6,0-25c0-0.5,0-1-0.1-1.5c-0.1-0.5-0.5-0.9-1-1c-0.8-0.1-1.7-0.1-2.5-0.1
		C115.9,326.5,99.2,326.5,82.5,326.5z M60.5,69.9c3.7,0,7.5,0,11.2,0c6.1,0,12.1,0,18.2,0c2.1,0,2.2-0.2,2.3-2.3c0-3.7,0-7.3,0-11
		c0-8.3,0-16.6,0-24.9c0-0.7,0-1.4-0.1-2.1c0-0.4-0.4-0.8-0.8-0.8c-0.8,0-1.6-0.1-2.3-0.1c-15.5,0-31,0-46.5,0c-3.6,0-7.2,0-10.8,0
		c-0.6,0-1.3,0-1.9,0.1c-0.4,0-0.8,0.4-0.8,0.9c0,0.8-0.1,1.6-0.1,2.3c0,11.6,0,23.1,0,34.7c0,0.6,0,1.3,0,1.9c0,0.2,0,0.4,0.1,0.6
		c0.1,0.3,0.4,0.7,0.7,0.7c0.8,0.1,1.5,0.1,2.3,0.1C41.4,69.9,51,69.9,60.5,69.9z M60.4,259.8c4.4,0,8.7,0,13.1,0
		c5.2,0,10.4,0,15.6,0c0.6,0,1.3,0,1.9,0c0.6,0,1-0.4,1-1.1c0-0.6,0-1.3,0-1.9c0-11.7,0-23.4,0-35.1c0-0.6,0-1.1,0-1.7
		c0-0.2-0.1-0.4-0.1-0.6c-0.1-0.3-0.4-0.7-0.7-0.7c-0.8-0.1-1.5-0.1-2.3-0.1c-19,0-38,0-57,0c-0.6,0-1.1,0-1.7,0
		c-0.2,0-0.4,0.1-0.6,0.1c-0.3,0.1-0.7,0.4-0.7,0.7c-0.1,0.8-0.1,1.5-0.1,2.3c0,10.4,0,20.7,0,31.1c0,1.6,0,3.1,0,4.6
		c0,0.5,0,1,0.1,1.5c0,0.4,0.4,0.8,0.9,0.8c0.7,0,1.4,0.1,2.1,0.1C41.4,259.8,50.9,259.8,60.4,259.8z M60.4,323c9.2,0,18.5,0,27.7,0
		c0.6,0,1.1,0,1.7,0c2.1,0,2.2-0.2,2.3-2.3c0-0.4,0-0.9,0-1.3c0-11.4,0-22.9,0-34.3c0-0.8,0-1.6,0-2.3c0-0.7-0.4-1.1-1-1.1
		c-0.8,0-1.7-0.1-2.5-0.1c-18.7,0-37.4,0-56,0c-0.6,0-1.3,0-1.9,0c-0.3,0-0.6,0-0.8,0.1c-0.4,0.1-0.8,0.4-0.8,0.9
		c-0.1,0.8-0.1,1.6-0.1,2.3c0,11.6,0,23.1,0,34.7c0,0.5,0,1,0,1.5c0,0.3,0,0.6,0.1,0.8c0.1,0.5,0.4,1,0.9,1c0.8,0.1,1.6,0.1,2.3,0.1
		C41.6,323,51,323,60.4,323z M60.6,155.1c-9.4,0-18.9,0-28.3,0c-0.6,0-1.3,0-1.9,0c-0.3,0-0.6,0.1-0.8,0.1c-0.3,0.1-0.5,0.3-0.6,0.6
		c-0.1,0.4-0.1,0.8-0.1,1.3c0,12.4,0,24.8,0,37.2c0,0.4,0,0.7,0.1,1.1c0.1,0.6,0.5,1,1.1,1.1c0.8,0.1,1.6,0.1,2.3,0.1
		c18.8,0,37.5,0,56.2,0c0.6,0,1.3,0,1.9,0c0.3,0,0.6,0,0.8-0.1c0.4-0.1,0.7-0.4,0.7-0.7c0.1-0.8,0.1-1.5,0.1-2.3
		c0-11.7,0-23.4,0-35.1c0-0.6,0-1.1,0-1.7c0-0.2-0.1-0.4-0.1-0.6c-0.1-0.3-0.4-0.7-0.7-0.7c-0.8,0-1.6-0.1-2.3-0.1
		C79.5,155.1,70,155.1,60.6,155.1z M60.3,133.3c9.4,0,18.9,0,28.3,0c0.7,0,1.4,0,2.1,0c0.2,0,0.4-0.1,0.6-0.1
		c0.3-0.1,0.5-0.3,0.6-0.6c0.1-0.6,0.1-1.3,0.1-1.9c0-12,0-24,0-36c0-0.6,0-1.1-0.1-1.7c0-0.5-0.4-0.9-0.9-1
		C90.3,92,89.4,92,88.6,92c-18.7,0-37.5,0-56.2,0c-0.5,0-1,0-1.5,0c-1.8,0-2,0.2-2.1,2.1c0,2.7,0,5.5,0,8.3c0,9.2,0,18.5,0,27.7
		c0,0.8,0,1.6,0.1,2.3c0,0.4,0.4,0.8,0.8,0.8c0.7,0,1.4,0.1,2.1,0.1C41.3,133.3,50.8,133.3,60.3,133.3z M82.2,25.4
		c16.7,0,33.4,0,50.1,0c0.6,0,1.3,0,1.9,0c0.3,0,0.6,0,0.8-0.1c0.5-0.1,1-0.4,1-0.9c0.1-0.4,0.1-0.8,0.1-1.3c0-3.5,0-6.9,0-10.4
		c0-0.4,0-0.8-0.1-1.3c-0.1-0.6-0.5-1.1-1.1-1.1c-0.8-0.1-1.6-0.1-2.3-0.1c-33.5,0-66.9,0-100.4,0c-0.6,0-1.1,0-1.7,0
		c-0.3,0-0.6,0-0.8,0.1c-0.4,0.1-0.8,0.4-0.9,0.8c-0.1,0.5-0.1,1-0.1,1.5c0,3.5,0,6.9,0,10.4c0,0.4,0,0.8,0.1,1.3
		c0,0.5,0.4,0.9,0.9,1c0.8,0,1.6,0.1,2.3,0.1C48.8,25.4,65.5,25.4,82.2,25.4z M3.5,181c0,57.1,0,114.3,0,171.4c0,0.9,0,1.7,0,2.5
		c0,0.3,0.1,0.6,0.1,0.8c0.1,0.3,0.3,0.5,0.6,0.6c0.6,0.2,1.3,0.2,1.9,0.1c0.5-0.1,0.9-0.5,0.9-1c0-1,0.1-2,0.1-3
		C7,244.6,7,136.6,7,28.7C7,23.2,7,17.6,7,12c0-0.6,0-1.3,0-1.9C7,9.5,6.8,9,6.4,8.6C5.7,7.9,5,7.2,4.3,6.5C4.2,6.4,4,6.3,3.9,6.3
		c-0.1,0-0.3,0.1-0.3,0.2C3.5,7.3,3.5,8.1,3.5,9C3.5,66.3,3.5,123.7,3.5,181z M161.5,181.1c0-57,0-114,0-171c0-0.8,0-1.6,0-2.3
		c0-0.3,0-0.6-0.1-0.8c0-0.1-0.1-0.2-0.2-0.3c-0.1-0.1-0.4-0.1-0.6,0.1c-0.6,0.6-1.2,1.2-1.8,1.8c-0.4,0.4-0.6,1-0.6,1.5
		c0,0.8,0,1.7,0,2.5c0,113.3,0,226.7,0,340c0,0.7,0,1.4,0,2.1c0,0.3,0,0.6,0.1,0.8c0.1,0.4,0.5,0.8,0.9,0.8c0.4,0,0.8,0.1,1.3,0
		c0.5,0,0.9-0.4,1-1c0.1-1,0.1-2,0.1-3C161.5,295.4,161.5,238.3,161.5,181.1z M60.5,263.1c-9.4,0-18.9,0-28.3,0c-0.6,0-1.3,0-1.9,0
		c-1.1,0-1.4,0.4-1.4,1.4c0,0.3,0,0.6,0,0.8c0,3.5,0,7.1,0,10.6c0,0.2,0,0.4,0,0.6c0.1,1.2,0.3,1.5,1.5,1.6c0.6,0,1.3,0,1.9,0
		c18.8,0,37.6,0,56.4,0c0.6,0,1.3,0,1.9,0c0.3,0,0.6-0.1,0.8-0.1c0.3-0.1,0.5-0.3,0.6-0.6c0.1-0.4,0.2-0.8,0.2-1.3
		c0-3.7,0-7.5,0-11.2c0-0.2,0-0.4,0-0.6c-0.1-0.8-0.4-1.2-1.2-1.2c-0.7,0-1.4,0-2.1,0C79.4,263.1,69.9,263.1,60.5,263.1z
		 M60.6,136.6c-9.4,0-18.7,0-28.1,0c-0.6,0-1.3,0-1.9,0c-0.3,0-0.6,0-0.8,0.1c-0.4,0-0.8,0.4-0.9,0.8c0,0.4-0.1,0.8-0.1,1.3
		c0,3.6,0,7.2,0,10.8c0,0.3,0,0.6,0,0.8c0.1,0.9,0.4,1.2,1.4,1.3c0.6,0,1.3,0,1.9,0c18.9,0,37.8,0,56.6,0c0.6,0,1.1,0,1.7,0
		c1.3-0.1,1.7-0.4,1.7-1.6c0-3.9,0-7.9,0-11.8c0-0.3-0.1-0.6-0.1-0.8c-0.1-0.3-0.4-0.7-0.7-0.7c-0.7,0-1.4-0.1-2.1-0.1
		C79.6,136.6,70.1,136.6,60.6,136.6z M60.3,88.5c9.4,0,18.8,0,28.1,0c0.6,0,1.3,0,1.9,0c0.3,0,0.6,0,0.8-0.1
		c0.4-0.1,0.8-0.4,0.8-0.9c0-0.3,0.1-0.6,0.1-0.8c0-3.9,0-7.8,0-11.6c0-0.2,0-0.4-0.1-0.6c-0.1-0.5-0.4-1-0.9-1
		c-0.8-0.1-1.7-0.1-2.5-0.1c-18.8,0-37.5,0-56.2,0c-0.5,0-1,0-1.5,0c-1.8,0-2,0.2-2,2.1c0,3.7,0,7.3,0,11c0,0.3,0,0.6,0,0.8
		c0.1,0.7,0.4,1.1,1.1,1.1c0.8,0,1.6,0.1,2.3,0.1C41.6,88.5,51,88.5,60.3,88.5z M60.5,200c-6.6,0-13.2,0-19.9,0c-3.2,0-6.5,0-9.7,0
		c-1.9,0-2,0.2-2.1,2.1c0,3.7,0,7.3,0,11c0,0.4,0,0.7,0.1,1.1c0.1,0.4,0.4,0.8,0.8,0.8c0.8,0.1,1.7,0.1,2.5,0.1
		c18.8,0,37.6,0,56.4,0c0.6,0,1.3,0,1.9,0c0.3,0,0.6-0.1,0.8-0.1c0.3-0.1,0.5-0.3,0.6-0.6c0.1-0.3,0.1-0.7,0.1-1c0-3.9,0-7.8,0-11.6
		c0-0.3,0-0.6-0.1-0.8c0-0.3-0.4-0.7-0.7-0.7c-0.8-0.1-1.5-0.1-2.3-0.1C79.5,200,70,200,60.5,200z M82.7,3.5c-24.3,0-48.6,0-72.9,0
		c-0.8,0-1.6,0-2.3,0.1c-0.2,0-0.4,0.1-0.5,0.3C6.8,4,6.9,4.2,7,4.4C7.6,5,8.2,5.6,8.8,6.2c0.4,0.4,1,0.6,1.5,0.6c0.7,0,1.4,0,2.1,0
		c46.8,0,93.5,0,140.3,0c3.4,0,2.6,0.3,5.1-2.2c0.1-0.1,0.2-0.2,0.3-0.3c0-0.1,0.1-0.1,0.1-0.2c0.1-0.2,0-0.5-0.2-0.5
		c-0.8-0.1-1.5-0.1-2.3-0.1C131.4,3.5,107.1,3.5,82.7,3.5z"/>
	<path d="M147.2,201.7c-2.9,0-4.9-2.2-4.9-4.7c0-3,1.9-4.9,5-5.1c2.9,0.3,4.7,2.1,4.8,5.1C151.9,199.7,150.2,201.6,147.2,201.7z"/>
</g>
</svg>
