<?xml version="1.0" encoding="utf-8"?>
<!-- Generator: Adobe Illustrator 25.0.0, SVG Export Plug-In . SVG Version: 6.00 Build 0)  -->
<svg version="1.1" id="Layer_1" xmlns="http://www.w3.org/2000/svg" xmlns:xlink="http://www.w3.org/1999/xlink" x="0px" y="0px"
	 viewBox="0 0 165 360" style="enable-background:new 0 0 165 360;" xml:space="preserve">
<g>
	<path d="M165,180.1c0,58.3,0,116.5,0,174.8c0,0.8,0,1.6,0,2.3c0,0.4,0,0.7-0.1,1.1c-0.1,0.9-0.8,1.6-1.7,1.7
		c-0.3,0-0.6,0.1-0.8,0.1c-0.6,0-1.3,0-1.9,0c-52,0-104,0-156,0c-0.8,0-1.7,0-2.5-0.1c-0.9-0.1-1.6-0.7-1.8-1.6
		C0.1,358,0,357.5,0,357.1c0-0.6,0-1.3,0-1.9C0,238.4,0,121.6,0,4.8c0-0.6,0-1.3,0-1.9c0-0.5,0.1-1,0.2-1.5C0.4,0.6,1,0.1,1.9,0.1
		c0.3,0,0.6,0,0.9,0c0.6,0,1.1,0,1.7,0c52.1,0,104.2,0,156.2,0c0.9,0,1.8,0,2.7,0.1c0.7,0.1,1.1,0.5,1.4,1.2
		c0.1,0.3,0.1,0.6,0.2,0.8c0,0.4,0,0.7,0,1.1c0,0.7,0,1.4,0,2.1C165,63.5,165,121.8,165,180.1z M10.3,183.2c0,56.4,0,112.8,0,169.3
		c0,0.8,0,1.6,0,2.3c0,0.3,0,0.6,0.1,0.8c0.1,0.4,0.4,0.8,0.9,0.8c0.4,0.1,0.8,0.1,1.3,0.1c3.5,0,7,0,10.6,0c0.4,0,0.8,0,1.3-0.1
		c0.5-0.1,0.9-0.5,0.9-1c0.1-0.9,0.1-1.8,0.1-2.7c0-112.8,0-225.7,0-338.5c0-0.7,0-1.4,0-2.1c0-0.3,0-0.6-0.1-0.8
		c-0.1-0.4-0.4-0.8-0.9-0.8c-0.4-0.1-0.7-0.1-1.1-0.1c-3.7,0-7.3,0-11,0c-0.4,0-0.7,0-1.1,0.1c-0.5,0.1-0.9,0.5-0.9,1
		c0,0.9-0.1,1.8-0.1,2.7C10.3,70.5,10.3,126.8,10.3,183.2z M154.7,183.4c0-56.3,0-112.7,0-169c0-0.8,0-1.7,0-2.5
		c0-1-0.4-1.4-1.4-1.5c-0.2,0-0.4,0-0.6,0c-3.7,0-7.3,0-11,0c-0.3,0-0.6,0-0.8,0.1c-0.6,0.1-1.1,0.5-1.1,1.1c0,0.9-0.1,1.8-0.1,2.7
		c0,53.4,0,106.8,0,160.2c0,0.7,0,1.4,0,2.1c0,0.3,0,0.6,0.1,0.8c0.1,0.4,0.4,0.8,0.8,0.9c0.9,0.2,1.8,0.1,2.7,0
		c0.3,0,0.5-0.2,0.8-0.3c0.3-0.2,0.6-0.4,0.9-0.6c1.3-0.7,2.6-0.9,4.1-0.4c0.8,0.3,1.5,0.9,2,1.5c1.2,1.3,1.6,2.8,1.2,4.5
		c-0.3,1.1-0.9,1.9-1.7,2.6c-1.6,1.2-3.3,1.6-5.1,0.7c-0.3-0.1-0.6-0.3-0.9-0.5c-0.6-0.4-1.1-0.5-1.8-0.5c-0.6,0-1.3,0-1.9,0
		c-0.6,0-1,0.4-1,0.9c0,0.8-0.1,1.7-0.1,2.5c0,36,0,71.9,0,107.9c0,18.8,0,37.5,0,56.3c0,0.8,0,1.6,0,2.3c0,0.8,0.4,1.2,1.2,1.2
		c0.3,0,0.6,0,0.8,0c3.7,0,7.3,0,11,0c0.3,0,0.6,0,0.8-0.1c0.7-0.1,1.1-0.5,1.1-1.1c0-0.9,0.1-1.8,0.1-2.7
		C154.7,296.2,154.7,239.8,154.7,183.4z M110.7,175.8c0-47.7,0-95.3,0-143c0-0.8,0-1.6,0-2.3c0-1.5-0.3-1.8-1.7-1.8
		c-3.9,0-7.8,0-11.6,0c-0.3,0-0.6,0-0.8,0.1c-0.4,0-0.8,0.4-0.8,0.9c0,0.9-0.1,1.8-0.1,2.7c0,95.6,0,191.3,0,286.9
		c0,0.6,0,1.3,0,1.9c0,0.3,0,0.6,0,0.8c0.1,0.6,0.4,1,1.1,1c0.4,0,0.7,0,1.1,0c3.5,0,7,0,10.6,0c0.4,0,0.8,0,1.3-0.1
		c0.5-0.1,0.9-0.5,0.9-1c0-0.9,0.1-1.8,0.1-2.7C110.7,271.4,110.7,223.6,110.7,175.8z M82.5,326.5c-16.6,0-33.2,0-49.9,0
		c-0.7,0-1.4,0-2.1,0c-0.3,0-0.6,0.1-0.8,0.1c-0.3,0.1-0.7,0.4-0.7,0.7c0,0.4-0.1,0.8-0.1,1.3c0,8.6,0,17.2,0,25.8
		c0,0.3,0,0.6,0,0.8c0,0.1,0,0.3,0.1,0.4c0.1,0.4,0.4,0.7,0.7,0.7c0.8,0.1,1.5,0.1,2.3,0.1c33.6,0,67.2,0,100.8,0c0.6,0,1.1,0,1.7,0
		c0.3,0,0.6-0.1,0.8-0.1c0.4-0.1,0.6-0.4,0.7-0.7c0.1-0.7,0.1-1.4,0.1-2.1c0-8,0-16.1,0-24.1c0-0.5,0-1,0-1.5c0-0.2-0.1-0.4-0.1-0.6
		c-0.1-0.4-0.4-0.6-0.7-0.7c-0.8-0.1-1.7-0.1-2.5-0.1C116,326.5,99.2,326.5,82.5,326.5z M60.7,281.7c-9.4,0-18.9,0-28.3,0
		c-0.6,0-1.3,0-1.9,0c-0.3,0-0.6,0.1-0.8,0.1c-0.3,0.1-0.7,0.4-0.7,0.7c-0.1,0.8-0.1,1.5-0.1,2.3c0,11.7,0,23.4,0,35.1
		c0,0.6,0,1.1,0,1.7c0,0.2,0.1,0.4,0.1,0.6c0.1,0.3,0.4,0.7,0.7,0.7c0.6,0.1,1.3,0.1,1.9,0.1c19.3,0,38.6,0,57.9,0
		c0.4,0,0.7,0,1.1,0c0.2,0,0.4,0,0.6-0.1c0.5-0.1,0.9-0.5,1-1c0.1-0.8,0.1-1.5,0.1-2.3c0-11.6,0-23.1,0-34.7c0-0.6,0-1.1,0-1.7
		c0-0.3-0.1-0.6-0.1-0.8c-0.1-0.4-0.4-0.6-0.7-0.7c-0.8-0.1-1.5-0.1-2.3-0.1C79.6,281.7,70.1,281.7,60.7,281.7z M60.6,28.6
		c-9.6,0-19.2,0-28.7,0c-0.7,0-1.4,0-2.1,0.1c-0.4,0-0.8,0.4-0.8,0.9c0,0.7-0.1,1.4-0.1,2.1c0,11.7,0,23.4,0,35.1c0,0.6,0,1.1,0,1.7
		c0,0.2,0.1,0.4,0.1,0.6c0.1,0.3,0.4,0.7,0.7,0.7c0.8,0,1.7,0.1,2.5,0.1c17.1,0,34.2,0,51.4,0c2,0,3.9,0,5.9,0c0.6,0,1.1,0,1.7-0.1
		c0.5,0,0.9-0.4,1-1c0.1-0.8,0.1-1.6,0.1-2.3c0-11.5,0-23,0-34.5c0-0.6,0-1.1,0-1.7c0-0.3-0.1-0.6-0.1-0.8c-0.1-0.4-0.5-0.8-0.9-0.8
		c-0.7,0-1.4-0.1-2.1-0.1C79.6,28.6,70.1,28.6,60.6,28.6z M60.4,259.8c5.1,0,10.3,0,15.4,0c4.5,0,9,0,13.5,0c0.6,0,1.3,0,1.9-0.1
		c0.4,0,0.8-0.4,0.8-0.9c0.1-0.8,0.1-1.5,0.1-2.3c0-11.6,0-23.1,0-34.7c0-0.5,0-1,0-1.5c0-0.3,0-0.6-0.1-0.8c-0.1-0.5-0.5-0.9-1-0.9
		c-0.8-0.1-1.7-0.1-2.5-0.1c-18.7,0-37.5,0-56.2,0c-0.6,0-1.3,0-1.9,0c-0.3,0-0.6,0.1-0.8,0.1c-0.3,0.1-0.7,0.4-0.7,0.7
		c-0.1,0.8-0.1,1.5-0.1,2.3c0,10.6,0,21.2,0,31.7c0,1.4,0,2.8,0,4.2c0,0.4,0,0.8,0.1,1.3c0,0.4,0.4,0.8,0.9,0.8
		c0.7,0,1.4,0.1,2.1,0.1C41.4,259.8,50.9,259.8,60.4,259.8z M60.5,155.1c-9.4,0-18.7,0-28.1,0c-0.7,0-1.4,0-2.1,0
		c-1,0-1.3,0.4-1.4,1.3c0,0.7,0,1.4,0,2.1c0,6.8,0,13.7,0,20.5c0,4.8,0,9.6,0,14.4c0,0.7,0,1.4,0.1,2.1c0,0.4,0.4,0.8,0.8,0.9
		c0.3,0,0.6,0.1,0.8,0.1c0.7,0,1.4,0,2.1,0c18.5,0,37,0,55.6,0c0.8,0,1.6,0,2.3,0c1.2-0.1,1.5-0.4,1.6-1.5c0-0.6,0-1.3,0-1.9
		c0-11.6,0-23.1,0-34.7c0-0.4,0-0.8,0-1.3c0-0.3,0-0.6-0.1-0.8c-0.1-0.6-0.5-1.1-1.1-1.1c-0.8,0-1.6-0.1-2.3-0.1
		C79.3,155.1,69.9,155.1,60.5,155.1z M60.4,133.3c4.5,0,9,0,13.5,0c5.1,0,10.1,0,15.2,0c0.6,0,1.3,0,1.9,0c0.6,0,1-0.4,1.1-1.1
		c0-0.7,0.1-1.4,0.1-2.1c0-7.3,0-14.5,0-21.8c0-4.4,0-8.7,0-13.1c0-0.7,0-1.4-0.1-2.1c0-0.5-0.5-0.9-1-0.9c-0.8-0.1-1.7-0.1-2.5-0.1
		c-18.7,0-37.5,0-56.2,0c-0.6,0-1.3,0-1.9,0c-0.3,0-0.6,0.1-0.8,0.1c-0.3,0.1-0.7,0.4-0.7,0.7c-0.1,0.7-0.1,1.4-0.1,2.1
		c0,11.8,0,23.6,0,35.3c0,0.6,0,1.1,0,1.7c0,0.2,0.1,0.4,0.1,0.6c0.1,0.3,0.3,0.5,0.6,0.6c0.7,0.1,1.4,0.1,2.1,0.1
		C41.3,133.3,50.9,133.3,60.4,133.3z M82.4,25.4c16.6,0,33.3,0,49.9,0c0.7,0,1.4,0,2.1,0c0.3,0,0.6,0,0.8-0.1
		c0.4-0.1,0.8-0.4,0.8-0.9c0.1-0.4,0.1-0.8,0.1-1.3c0-3.5,0-7.1,0-10.6c0-0.4,0-0.8-0.1-1.3c-0.1-0.5-0.5-0.9-1-1
		c-0.9-0.1-1.8-0.1-2.7-0.1c-33.3,0-66.5,0-99.8,0c-0.6,0-1.1,0-1.7,0c-1.8,0-2,0.3-2,2.1c0,3.7,0,7.3,0,11c0,0.4,0,0.7,0.1,1.1
		c0,0.4,0.4,0.8,0.9,0.8c0.8,0,1.6,0.1,2.3,0.1C48.9,25.4,65.6,25.4,82.4,25.4z M3.5,180.8c0,57.1,0,114.2,0,171.4
		c0,0.8,0,1.7,0,2.5c0,0.3,0,0.6,0.1,0.8c0.1,0.4,0.4,0.8,0.8,0.8c0.5,0,1,0.1,1.5,0.1c0.7,0,1.1-0.4,1.1-1.1c0-1,0.1-2,0.1-3
		c0-113,0-226.1,0-339.1c0-0.6,0-1.1,0-1.7c0-0.3,0-0.6,0-0.8c0.1-1-0.3-1.8-1-2.5C5.5,7.7,4.9,7.1,4.3,6.5C4.1,6.3,3.8,6.2,3.7,6.4
		C3.7,6.5,3.6,6.6,3.5,6.7c0,0.9,0,1.7,0,2.5C3.5,66.4,3.5,123.6,3.5,180.8z M161.5,181.3c0-57.1,0-114.3,0-171.4c0-0.7,0-1.4,0-2.1
		c0-0.3,0-0.6-0.1-0.8c0-0.1-0.1-0.3-0.3-0.3c-0.1,0-0.3,0-0.4,0c-0.6,0.6-1.2,1.2-1.8,1.7c-0.5,0.5-0.7,1-0.7,1.7
		c0,0.9,0,1.8,0,2.8c0,71.9,0,143.7,0,215.6c0,41.4,0,82.8,0,124.2c0,0.8,0,1.6,0,2.3c0.1,1,0.5,1.4,1.4,1.4c0.1,0,0.3,0,0.4,0
		c0.9,0,1.3-0.4,1.4-1.3c0-0.9,0-1.8,0-2.8C161.5,295.4,161.5,238.4,161.5,181.3z M60.6,136.6c-9.4,0-18.9,0-28.3,0
		c-0.7,0-1.4,0-2.1,0c-0.2,0-0.4,0.1-0.6,0.1c-0.3,0.1-0.5,0.3-0.6,0.6c-0.1,0.5-0.1,1-0.1,1.5c0,3.5,0,7,0,10.6c0,0.4,0,0.7,0,1.1
		c0.1,0.8,0.4,1.2,1.2,1.2c0.8,0,1.6,0.1,2.3,0.1c18.7,0,37.4,0,56.2,0c0.6,0,1.3,0,1.9,0c0.3,0,0.6-0.1,0.8-0.1
		c0.4-0.1,0.8-0.5,0.8-0.8c0.1-0.4,0.1-0.8,0.1-1.3c0-3.6,0-7.2,0-10.8c0-0.4,0-0.7-0.1-1.1c-0.1-0.5-0.5-0.9-1-1
		c-0.7,0-1.4-0.1-2.1-0.1C79.6,136.6,70.1,136.6,60.6,136.6z M60.5,278.2c9.4,0,18.7,0,28.1,0c0.6,0,1.3,0,1.9,0
		c0.3,0,0.6,0,0.8-0.1c0.4-0.1,0.7-0.3,0.7-0.7c0.1-0.5,0.1-1,0.1-1.5c0-3.5,0-7.1,0-10.6c0-0.4,0-0.7-0.1-1.1
		c-0.1-0.6-0.5-1.1-1.1-1.1c-0.6,0-1.3-0.1-1.9-0.1c-19.1,0-38.2,0-57.3,0c-0.6,0-1.1,0-1.7,0c-0.2,0-0.4,0-0.6,0.1
		c-0.3,0.1-0.5,0.3-0.6,0.6c-0.1,0.3-0.1,0.7-0.1,1c0,3.9,0,7.8,0,11.6c0,0.2,0,0.4,0.1,0.6c0.1,0.5,0.4,1,0.9,1
		c0.8,0.1,1.6,0.1,2.3,0.1C41.6,278.2,51,278.2,60.5,278.2z M60.5,88.5c9.4,0,18.9,0,28.3,0c0.7,0,1.4,0,2.1,0
		c0.8,0,1.2-0.4,1.3-1.2c0-0.3,0.1-0.6,0.1-0.8c0-3.7,0-7.3,0-11c0-0.4,0-0.9-0.1-1.3c-0.1-0.4-0.3-0.7-0.7-0.7
		c-0.7-0.1-1.4-0.1-2.1-0.1c-19.1,0-38.3,0-57.5,0c-0.6,0-1.1,0-1.7,0c-0.8,0.1-1.2,0.4-1.2,1.2c0,0.3,0,0.6,0,0.8c0,3.7,0,7.3,0,11
		c0,0.4,0.1,0.8,0.1,1.3c0,0.3,0.4,0.7,0.7,0.7c0.8,0.1,1.5,0.1,2.3,0.1C41.5,88.5,51,88.5,60.5,88.5z M60.7,200
		c-9.4,0-18.7,0-28.1,0c-0.6,0-1.1,0-1.7,0c-1.9,0-2,0.2-2,2.1c0,3.6,0,7.2,0,10.8c0,0.4,0,0.8,0.1,1.3c0,0.4,0.4,0.8,0.9,0.8
		c0.6,0,1.3,0.1,1.9,0.1c19.2,0,38.3,0,57.5,0c0.5,0,1,0,1.5,0c0.2,0,0.4,0,0.6-0.1c0.4-0.1,0.8-0.4,0.8-0.9c0-0.3,0.1-0.6,0.1-0.8
		c0-3.8,0-7.6,0-11.4c0-0.4-0.1-0.7-0.1-1c-0.1-0.3-0.4-0.7-0.7-0.7c-0.8-0.1-1.5-0.1-2.3-0.1C79.6,200,70.1,200,60.7,200z
		 M136.2,112.9c0-2.9,0-5.8,0-8.7c0-3.1,0-6.2,0-9.3c0-0.6,0-1.3-0.1-1.9c0-0.4-0.4-0.8-0.8-0.8c-0.5-0.1-1-0.1-1.5-0.1
		c-5.7,0-11.4,0-17.1,0c-0.5,0-1,0-1.5,0.1c-0.4,0-0.8,0.4-0.8,0.8c-0.1,0.7-0.1,1.4-0.1,2.1c0,11.8,0,23.6,0,35.3
		c0,0.4,0,0.9,0,1.3c0.1,1.3,0.3,1.6,1.6,1.6c0.4,0,0.7,0,1.1,0c5.5,0,11,0,16.5,0c0.6,0,1.3,0,1.9-0.1c0.3,0,0.7-0.4,0.7-0.7
		c0.1-0.7,0.1-1.4,0.1-2.1C136.2,124.6,136.2,118.7,136.2,112.9z M136.2,302.5c0-5.8,0-11.6,0-17.3c0-0.6,0-1.3,0-1.9
		c0-0.3-0.1-0.6-0.1-0.8c-0.1-0.4-0.4-0.6-0.7-0.7c-0.6-0.1-1.1-0.1-1.7-0.1c-5.6,0-11.3,0-16.9,0c-0.4,0-0.7,0-1.1,0
		c-0.2,0-0.4,0.1-0.6,0.1c-0.3,0.1-0.7,0.4-0.7,0.7c-0.1,0.7-0.1,1.4-0.1,2.1c0,11.8,0,23.7,0,35.5c0,0.5,0,1,0,1.5
		c0,0.2,0.1,0.4,0.1,0.6c0.1,0.3,0.4,0.7,0.7,0.7c0.5,0.1,1,0.1,1.5,0.1c5.8,0,11.5,0,17.3,0c0.4,0,0.7,0,1.1,0
		c0.1,0,0.3-0.1,0.4-0.1c0.4-0.1,0.6-0.4,0.7-0.7c0.1-0.7,0.1-1.4,0.1-2.1C136.2,314.2,136.2,308.4,136.2,302.5z M114.2,239
		c0,5.4,0,10.7,0,16.1c0,1,0,2,0,3c0,0.4,0.1,0.7,0.1,1c0.1,0.3,0.3,0.5,0.6,0.6c0.5,0.1,1,0.1,1.5,0.1c5.8,0,11.7,0,17.5,0
		c0.4,0,0.8,0,1.3-0.1c0.4,0,0.8-0.4,0.9-0.8c0.1-0.8,0.1-1.5,0.1-2.3c0-11.6,0-23.1,0-34.7c0-0.6,0-1.1,0-1.7c0-0.3,0-0.6-0.1-0.8
		c-0.1-0.4-0.3-0.7-0.7-0.7c-0.7-0.1-1.4-0.1-2.1-0.1c-4.5,0-9,0-13.5,0c-1.1,0-2.3,0-3.4,0c-0.4,0-0.8,0.1-1.3,0.1
		c-0.3,0-0.7,0.4-0.7,0.7c-0.1,0.7-0.1,1.4-0.1,2.1C114.2,227.3,114.2,233.2,114.2,239z M114.2,49.2L114.2,49.2c0,6.1,0,12.3,0,18.4
		c0,2.1,0.2,2.2,2.3,2.3c4.3,0,8.6,0,12.9,0c1.6,0,3.1,0,4.7,0c0.4,0,0.8-0.1,1.3-0.1c0.3,0,0.7-0.4,0.7-0.7
		c0.1-0.8,0.1-1.5,0.1-2.3c0-11.6,0-23.3,0-34.9c0-0.5,0-1,0-1.5c0-0.3-0.1-0.6-0.1-0.8c-0.1-0.4-0.5-0.8-0.9-0.8
		c-0.4,0-0.8-0.1-1.3-0.1c-5.8,0-11.7,0-17.5,0c-0.4,0-0.7,0-1.1,0c-0.6,0.1-1,0.4-1.1,1.1c0,0.7,0,1.4,0,2.1
		C114.2,37.7,114.2,43.4,114.2,49.2z M114.2,175.8c0,5.2,0,10.4,0,15.6c0,0.8,0,1.7,0,2.5c0,0.4,0,0.8,0,1.3
		c0.1,0.8,0.4,1.2,1.2,1.3c0.6,0,1.1,0.1,1.7,0.1c5.4,0,10.7,0,16,0c0.6,0,1.1,0,1.7-0.1c0.8-0.1,1.2-0.5,1.3-1.2
		c0-0.3,0.1-0.6,0.1-0.8c0-2.5,0-4.9,0-7.4c0-0.3,0-0.6-0.1-0.8c-0.1-0.5-0.4-0.9-1-1c-0.8,0-1.7-0.1-2.5-0.1
		c-0.8,0-1.5-0.3-2.2-0.7c-1-0.6-1.4-1.5-1.5-2.6c-0.1-1.3,0.8-2.7,2-3.1c0.7-0.3,1.4-0.4,2.1-0.4c0.6,0,1.3,0,1.9-0.1
		c0.8-0.1,1.2-0.4,1.2-1.2c0-0.7,0.1-1.4,0.1-2.1c0-5.5,0-11,0-16.5c0-0.4,0-0.8,0-1.3c0-1.9-0.2-2.1-2.1-2.1c-5.9,0-11.8,0-17.7,0
		c-0.4,0-0.8,0-1.3,0.1c-0.3,0-0.7,0.4-0.7,0.7c-0.1,0.7-0.1,1.4-0.1,2.1C114.2,163.9,114.2,169.8,114.2,175.8z M82.7,3.5
		c-24.3,0-48.6,0-72.9,0c-0.6,0-1.3,0-1.9,0c-0.2,0-0.4,0.1-0.6,0.1C7,3.6,6.8,4.1,7,4.3c0.5,0.5,1,1,1.4,1.5c0.6,0.7,1.3,1,2.2,1
		c0.4,0,0.8,0,1.3,0c47.1,0,94.1,0,141.2,0c0.5,0,1,0,1.5,0c0.7,0,1.2-0.2,1.7-0.7c0.6-0.6,1.2-1.2,1.8-1.8c0.1-0.1,0.1-0.1,0.1-0.2
		c0.1-0.2,0-0.5-0.2-0.5c-0.8-0.2-1.5-0.1-2.3-0.1C131.4,3.5,107.1,3.5,82.7,3.5z M125.1,136.6c-2.8,0-5.6,0-8.5,0
		c-0.5,0-1,0-1.5,0.1c-0.4,0-0.8,0.4-0.9,0.8c0,0.4-0.1,0.7-0.1,1.1c0,3.7,0,7.5,0,11.2c0,0.3,0,0.6,0.1,0.8c0.1,0.6,0.5,1,1.1,1.1
		c0.6,0,1.1,0.1,1.7,0.1c5.4,0,10.7,0,16.1,0c0.6,0,1.1,0,1.7,0c0.8-0.1,1.2-0.4,1.2-1.2c0-0.5,0.1-1,0.1-1.5c0-2.3,0-4.5,0-6.8
		c0-1.2,0-2.4,0-3.6c0-1.8-0.2-2-1.9-2c-0.3,0-0.6,0-0.9,0C130.6,136.6,127.9,136.6,125.1,136.6z M125.2,263.1c-3,0-5.9,0-8.9,0
		c-1.9,0-2,0.2-2,2.1c0,3.6,0,7.2,0,10.8c0,0.4,0,0.8,0.1,1.3c0.1,0.4,0.4,0.8,0.9,0.8c0.4,0.1,0.8,0.1,1.3,0.1c5.8,0,11.7,0,17.5,0
		c0.4,0,0.7,0,1.1-0.1c0.6-0.1,1-0.5,1.1-1.1c0-0.3,0.1-0.6,0.1-0.8c0-3.7,0-7.3,0-11c0-1.8-0.2-2-2.1-2
		C131.1,263.1,128.1,263.1,125.2,263.1z M125.2,88.5L125.2,88.5c2.1,0,4.2,0,6.3,0c1,0,2,0,3,0c1.3,0,1.6-0.4,1.7-1.6
		c0-0.6,0-1.1,0-1.7c0-2.8,0-5.6,0-8.5c0-0.6,0-1.1,0-1.7c-0.1-1.3-0.4-1.6-1.7-1.7c-0.1,0-0.3,0-0.4,0c-5.9,0-11.8,0-17.7,0
		c-1.8,0-2.1,0.3-2.1,2.1c0,3.6,0,7.2,0,10.8c0,2.1,0.2,2.3,2.3,2.3C119.4,88.5,122.3,88.5,125.2,88.5z M125.2,200
		C125.2,200,125.2,200,125.2,200c-3.1,0-6.2,0-9.3,0c-1.3,0-1.6,0.3-1.6,1.6c0,3.9,0,7.8,0,11.6c0,0.4,0.1,0.7,0.1,1
		c0.1,0.3,0.3,0.5,0.6,0.6c0.6,0.1,1.1,0.1,1.7,0.1c5.7,0,11.4,0,17.1,0c0.5,0,1,0,1.5-0.1c0.4,0,0.8-0.4,0.8-0.8
		c0.1-0.4,0.1-0.7,0.1-1.1c0-3.7,0-7.3,0-11c0-1.8-0.2-2-2.1-2.1C131.1,200,128.1,200,125.2,200z"/>
	<path d="M152.3,196.7c-0.1,2-0.9,3.5-2.6,4.4c-1.9,1-3.7,0.8-5.5-0.4c-2.3-1.6-2.2-4.4-1.3-6.2c0.3-0.6,0.9-1.1,1.5-1.5
		c0.9-0.7,1.9-1,2.9-1c1,0,1.9,0.3,2.8,0.9c0.2,0.1,0.3,0.3,0.5,0.4C151.9,194,152.2,195.4,152.3,196.7z"/>
</g>
</svg>
