<?xml version="1.0" encoding="utf-8"?>
<!-- Generator: Adobe Illustrator 25.0.0, SVG Export Plug-In . SVG Version: 6.00 Build 0)  -->
<svg version="1.1" id="Layer_1" xmlns="http://www.w3.org/2000/svg" xmlns:xlink="http://www.w3.org/1999/xlink" x="0px" y="0px"
	 viewBox="0 0 165 360" style="enable-background:new 0 0 165 360;" xml:space="preserve">
<style type="text/css">
	.st0{stroke:#010202;stroke-width:0.25;stroke-miterlimit:10;}
</style>
<g>
	<g>
		<path class="st0" d="M0,179.93C0,121.19,0,62.45,0,3.71c0-3.7,0-3.7,3.89-3.7c52.33,0,104.65,0,156.98,0
			c0.72,0,1.45-0.03,2.17,0.02c1.35,0.1,1.77,0.48,1.91,1.75c0.07,0.61,0.04,1.22,0.04,1.84c0,117.61,0,235.23,0,352.84
			c0,3.48-0.06,3.53-3.76,3.53c-52.47,0-104.94,0-157.42,0C0,360,0,359.99,0,356.35C0,297.54,0,238.73,0,179.93z M23.27,179.61
			c0,51.65,0,103.31,0,154.96c0,3.28-0.38,3.27,3.37,3.27c37.14,0,74.29,0,111.43,0c3.39,0,3.39,0,3.39-3.28
			c0-103.17,0-206.34,0-309.51c0-3.42,0.01-3.13-3.3-3.13c-37.14,0-74.29,0-111.43,0c-3.78,0-3.47-0.27-3.47,3.34
			C23.27,76.71,23.27,128.16,23.27,179.61z M9.09,349.41c0.54-0.22,0.78-0.25,0.92-0.38c2.52-2.34,5.03-4.69,7.55-7.03
			c0.5-0.46,0.66-1.03,0.65-1.67c-0.01-0.68,0.01-1.36,0.01-2.04c0-105.49,0-210.99,0-316.48c0-0.75-0.01-1.5-0.01-2.25
			c0-0.49-0.07-0.97-0.43-1.34c-2.66-2.74-5.62-5.18-8.68-8.05C9.09,123.45,9.09,236.31,9.09,349.41z M155.56,10.55
			c-0.79,0.05-1.08,0.58-1.47,0.94c-1.6,1.48-3.07,3.1-4.79,4.44c-2.03,1.58-2.57,3.46-2.57,5.88
			c0.06,105.34,0.05,210.68,0.05,316.02c0,0.68,0.04,1.36,0,2.04c-0.07,1.1,0.35,1.95,1.19,2.72c2.17,1.99,4.3,4.04,6.46,6.05
			c0.28,0.26,0.52,0.71,1.14,0.45C155.56,236.26,155.56,123.42,155.56,10.55z M163.06,356.5c0-81.19,0.01-161.9,0-242.62
			c0-36.68-0.05-73.37-0.08-110.05c0-0.05-0.06-0.12-0.11-0.15c-0.05-0.04-0.13-0.05-0.49-0.17c-1.04,1.03-2.12,2.22-3.33,3.28
			c-1.04,0.9-1.57,1.91-1.43,3.24c0.05,0.47,0.01,0.95,0.01,1.43c0,112.31,0,224.61,0,336.92c0,0.75,0.01,1.5,0.02,2.25
			c0.01,0.56,0.11,1.1,0.54,1.51C159.62,353.53,160.98,355.02,163.06,356.5z M2.28,3.97c-0.1,0.1-0.24,0.19-0.26,0.3
			C1.96,4.53,1.94,4.81,1.94,5.08C1.96,121.99,1.99,238.9,2.02,355.82c0,0.06,0.05,0.13,0.09,0.18c0.05,0.04,0.13,0.06,0.3,0.14
			c2.77-2.2,5.45-4.45,4.61-8.45c0-111.95,0-223.9,0-335.84c0-0.82,0-1.63-0.01-2.45C7,8.84,7.03,8.25,6.59,7.84
			C5.17,6.53,3.72,5.25,2.28,3.97z M153.49,351.11c0.01-0.85-0.65-1.14-1.08-1.56c-1.56-1.51-3.26-2.91-4.71-4.5
			c-1.54-1.69-3.3-2.25-5.67-2.25c-37.78,0.06-75.55,0.04-113.33,0.04c-2.38,0-4.77,0.05-7.15-0.02c-1.39-0.04-2.48,0.32-3.46,1.3
			c-1.98,1.98-4.08,3.86-6.1,5.8c-0.32,0.31-0.88,0.53-0.73,1.19C58.66,351.11,106.07,351.11,153.49,351.11z M153.88,9.03
			C150.41,8.54,12.68,8.69,11.16,9.12c0.22,0.7,0.83,1.11,1.37,1.52c1.76,1.32,3.36,2.81,4.83,4.39c1.5,1.62,3.18,2.18,5.48,2.18
			c39.81-0.07,79.62-0.05,119.43-0.05c0.65,0,1.3-0.01,1.95-0.01c0.6,0,1.14-0.15,1.58-0.56C148.41,14.15,151.01,11.71,153.88,9.03z
			 M161,358.08c-0.17-0.41-0.19-0.56-0.28-0.65c-0.44-0.45-0.88-0.9-1.35-1.33c-3.91-3.58-2.32-3.03-7.67-3.03
			c-46.47-0.02-92.94-0.01-139.41-0.01c-0.79,0-1.59-0.01-2.38,0.02c-0.43,0.02-0.88,0.05-1.27,0.19c-0.83,0.3-4.23,3.82-4.72,4.81
			C56.22,358.08,108.51,358.08,161,358.08z M161.27,2.07C157.5,1.58,5.71,1.75,4.04,2.22C4.75,3.03,5.47,3.78,6.1,4.58
			c1.39,1.76,3.11,2.43,5.55,2.43C58.77,6.93,105.88,6.95,153,6.95c0.65,0,1.3-0.01,1.95-0.01c0.59,0,1.17-0.08,1.61-0.48
			C158.04,5.09,159.52,3.71,161.27,2.07z M144.69,20.57c-1.69,0.99-1.28,2.32-1.28,3.48c-0.01,103.85-0.01,207.7-0.01,311.55
			c0,0.61,0,1.23,0.02,1.84c0.03,0.71,0.27,1.31,1.27,1.62C144.69,232.9,144.69,126.86,144.69,20.57z M20.17,338.97
			c0.99-0.2,1.09-0.68,1.12-1.16c0.05-0.75,0.05-1.5,0.05-2.24c0-103.7,0-207.41,0-311.11c0-0.75,0-1.5-0.05-2.24
			c-0.03-0.46-0.07-0.97-0.72-1.06c-0.4,0.11-0.39,0.41-0.39,0.66C20.17,127.48,20.17,233.15,20.17,338.97z M21.96,340.86
			c4.26,0.44,119.16,0.25,120.75-0.2c-0.34-0.72-0.95-0.98-1.72-0.99c-0.58-0.01-1.16-0.02-1.73-0.02c-37.93,0-75.85,0-113.78,0
			c-0.58,0-1.16,0-1.73,0.02C22.97,339.7,22.35,339.96,21.96,340.86z M142.58,19.3c-0.1-0.08-0.18-0.22-0.29-0.24
			c-0.28-0.05-0.57-0.07-0.86-0.07c-39.57,0.03-79.14,0.06-118.71,0.09c-0.06,0-0.14,0.06-0.18,0.11c-0.04,0.05-0.05,0.12-0.08,0.19
			c0.06,0.52,0.51,0.63,0.93,0.66c0.79,0.06,1.59,0.07,2.38,0.07c37.84,0,75.68,0,113.52,0c0.72,0,1.45,0,2.16-0.05
			C141.95,20.01,142.47,19.93,142.58,19.3z"/>
		<path class="st0" d="M9.99,182.85c0-1.37-0.05-2.26,0.01-3.14c0.12-1.76,1.53-3.06,3.33-3.14c1.92-0.08,3.67,1.16,3.79,2.92
			c0.14,2.03,0.53,4.22-0.1,6.07c-0.71,2.09-1.08,4.13-1.3,6.28c-0.12,1.17-1.41,1.9-2.52,1.77c-1.09-0.13-1.78-0.88-1.89-2.15
			c-0.06-0.74-0.01-1.49-0.04-2.24c-0.02-0.47,0.05-1.07-0.21-1.38C9.64,186.17,10.04,184.23,9.99,182.85z M15.1,180.53
			c0.2-1.11-0.29-1.71-1.2-2.01c-0.71-0.23-1.26,0.15-1.68,0.65c-0.48,0.57-0.15,1.33,0.61,1.25
			C13.56,180.35,14.24,180.6,15.1,180.53z"/>
	</g>
</g>
</svg>
