<?xml version="1.0" encoding="utf-8"?>
<!-- Generator: Adobe Illustrator 25.0.0, SVG Export Plug-In . SVG Version: 6.00 Build 0)  -->
<svg version="1.1" id="Layer_1" xmlns="http://www.w3.org/2000/svg" xmlns:xlink="http://www.w3.org/1999/xlink" x="0px" y="0px"
	 viewBox="0 0 165 360" style="enable-background:new 0 0 165 360;" xml:space="preserve">
<style type="text/css">
	.st0{stroke:#010202;stroke-width:0.5;stroke-miterlimit:10;}
</style>
<g>
	<g>
		<path class="st0" d="M164.99,179.94c0,58.74,0,117.47,0.01,176.21c0,4.13,0,3.85-3.98,3.85c-52.4,0-104.79,0-157.19,0
			c-3.83,0-3.83,0-3.83-3.56C0,238.83,0,121.22,0,3.62C0,0.01,0,0,3.85,0c52.47,0,104.94,0,157.4,0c3.72,0,3.74,0.01,3.74,3.53
			C164.99,62.34,164.99,121.14,164.99,179.94z M23.27,174.96c0,49.88,0,99.77,0,149.65c0,3.56-0.29,3.26,3.56,3.26
			c37.07,0,74.14,0,111.22,0c3.49,0,3.42,0.31,3.42-3.21c0-99.77,0-199.54,0-299.31c0-3.19,0-3.19-3.48-3.19
			c-37.07,0-74.14,0-111.22,0c-3.89,0-3.49-0.08-3.49,3.35C23.26,75.33,23.27,125.14,23.27,174.96z M146.86,179.96
			c0,55.87,0,111.74,0,167.61c0,0.68-0.02,1.36,0.01,2.04c0.07,1.35,0.25,1.55,1.64,1.6c1.66,0.05,3.32,0.04,4.99,0.02
			c2.09-0.03,2.21-0.16,2.27-2.08c0.01-0.27,0-0.54,0-0.82c0-112.22,0-224.44,0-336.66c0-0.48-0.02-0.95-0.01-1.43
			c0.02-1.01-0.46-1.51-1.57-1.48c-1.23,0.03-2.46-0.01-3.69,0c-3.97,0.02-3.65-0.34-3.65,3.38
			C146.86,68.08,146.86,124.02,146.86,179.96z M18.21,179.94c0-55.74,0-111.47,0-167.21c0-0.68,0.01-1.36,0-2.04
			c-0.04-1.82-0.13-1.9-2.15-1.93c-1.23-0.02-2.46-0.01-3.69,0c-3.07,0-3.07,0-3.07,2.93c0,112.15,0,224.3,0,336.45
			c0,0.41-0.01,0.82,0.01,1.22c0.08,1.65,0.24,1.8,2.07,1.85c1.01,0.03,2.02,0.01,3.03,0.01c4.22,0,3.79,0.21,3.79-3.48
			C18.22,291.82,18.21,235.88,18.21,179.94z M7.37,180.2c0-58.12,0-116.24,0-174.35c0-0.61,0.01-1.23,0-1.84
			C7.34,1.87,7.32,1.85,5.06,1.82C1.94,1.78,1.93,1.78,1.93,4.7c0,116.85,0,233.7,0,350.54c0,0.61,0.01,1.22,0.05,1.84
			c0.04,0.52,0.3,0.96,0.89,1c1.36,0.11,2.85,0.47,4.02-0.23c0.93-0.55,0.38-1.77,0.46-2.69c0.06-0.68,0.01-1.36,0.01-2.04
			C7.37,295.48,7.37,237.84,7.37,180.2z M163.06,180.17c0-58.13,0-116.25,0-174.38c0-0.61,0.01-1.23,0-1.84
			c-0.03-2.08-0.07-2.11-2.37-2.13c-2.98-0.03-2.99-0.03-2.99,2.77c0,116.93,0,233.87,0,350.8c0,0.61,0.01,1.23,0.06,1.83
			c0.04,0.44,0.31,0.8,0.8,0.84c1.36,0.11,2.85,0.47,4.03-0.22c0.93-0.55,0.38-1.77,0.46-2.69c0.06-0.61,0.01-1.22,0.01-1.84
			C163.06,295.61,163.06,237.89,163.06,180.17z M82.54,341.02c19.58,0,39.16,0,58.75,0c0.72,0,1.44-0.02,2.17-0.02
			c0.98,0,1.46-0.47,1.46-1.39c0-1.43,0.02-2.86,0.02-4.29c-0.01-2.69-0.01-2.69-2.89-2.7c-0.07,0-0.14,0-0.22,0
			c-39.53,0-79.05,0-118.58,0c-0.58,0-1.16,0.01-1.73,0.02c-0.89,0-1.33,0.43-1.34,1.25c-0.02,1.36-0.03,2.72-0.03,4.08
			c0,3.03,0,3.04,3.21,3.04C43.09,341.02,62.81,341.02,82.54,341.02z M82.53,8.76c-19.65,0-39.31,0-58.96,0
			c-0.65,0-1.3,0.02-1.95,0.01c-1-0.02-1.45,0.46-1.45,1.37c0,1.29-0.02,2.59-0.02,3.88c0,3.12,0,3.13,3.33,3.13
			c39.38,0,78.76,0,118.14,0c0.58,0,1.16-0.02,1.73-0.01c1.09,0.02,1.57-0.51,1.56-1.51c-0.01-1.36,0.01-2.72,0.01-4.08
			c-0.01-2.78-0.01-2.79-3.01-2.79C122.12,8.76,102.32,8.76,82.53,8.76z M82.76,342.84c-19.73,0-39.45,0-59.18,0
			c-0.65,0-1.3,0.02-1.95,0.01c-0.99-0.02-1.46,0.44-1.46,1.36c0,1.29-0.02,2.59-0.02,3.88c0,3.14,0,3.14,3.32,3.14
			c39.38,0,78.76,0,118.14,0c0.58,0,1.16-0.02,1.73-0.01c1.08,0.02,1.58-0.48,1.58-1.5c-0.01-1.36,0.01-2.72,0.01-4.08
			c-0.01-2.79-0.01-2.8-2.99-2.8C122.21,342.84,102.48,342.84,82.76,342.84z M82.53,1.82c-23.2,0-46.39,0-69.59,0
			c-0.65,0-1.3-0.02-1.95,0.01C9.57,1.9,9.36,2.06,9.33,3.41c-0.1,4-0.02,3.53,3.53,3.53c46.47,0.01,92.93,0,139.4,0
			c0.51,0,1.01,0.01,1.52-0.01c1.79-0.07,1.93-0.21,2-1.92c0.14-3.18,0.12-3.2-3.22-3.2C129.21,1.82,105.87,1.82,82.53,1.82z
			 M82.53,353.05c-23.2,0-46.39,0-69.59,0c-0.65,0-1.3-0.02-1.95,0.01c-1.42,0.07-1.63,0.23-1.67,1.57
			c-0.1,4.01-0.01,3.54,3.52,3.54c46.47,0.01,92.93,0,139.4,0c0.51,0,1.01,0.01,1.52-0.01c1.79-0.07,1.94-0.21,2.01-1.92
			c0.14-3.18,0.12-3.2-3.22-3.2C129.21,353.05,105.87,353.05,82.53,353.05z M144.77,20.87c-1.04,0.4-1.33,0.96-1.35,1.69
			c-0.02,0.61-0.02,1.22-0.02,1.84c0,100.44,0,200.87,0,301.31c0,0.61,0,1.23,0.03,1.84c0.03,0.74,0.41,1.25,1.35,1.63
			C144.77,226.38,144.77,123.75,144.77,20.87z M20.39,328.7c0.82-0.2,0.87-0.7,0.9-1.17c0.04-0.68,0.04-1.36,0.04-2.04
			c0-100.44,0-200.87,0-301.31c0-0.68,0-1.36-0.06-2.04c-0.04-0.47-0.13-0.96-0.8-1.03C20.07,22.59,19.97,326.33,20.39,328.7z
			 M21.88,19.11c0.93,1.58,2.28,1.21,3.45,1.21c38,0.01,76,0.01,113.99,0.01c0.58,0,1.16,0,1.73-0.02c0.76-0.03,1.38-0.27,1.71-1.2
			C102.45,19.11,62.27,19.11,21.88,19.11z M22.46,330.44c1.67,0.51,118.37,0.53,120.13,0.01c-0.13-0.6-0.64-0.68-1.14-0.72
			c-0.72-0.05-1.44-0.05-2.16-0.05c-37.84,0-75.68,0-113.52,0c-0.79,0-1.59,0.01-2.38,0.07C22.95,329.8,22.5,329.91,22.46,330.44z"
			/>
		<path class="st0" d="M17.19,182.6c0,0.88,0.02,1.76-0.01,2.64c-0.02,0.47,0.04,1.07-0.24,1.37c-1.18,1.33-1.05,2.89-1.07,4.44
			c0,0.47-0.06,0.96-0.23,1.39c-0.29,0.77-0.94,1.18-1.8,1.26c-0.86,0.07-1.54-0.27-2.01-0.95c-0.33-0.47-0.46-1-0.45-1.55
			c0.03-1.7,0.01-3.38-1.14-4.85c-0.19-0.25-0.23-0.65-0.23-0.98c-0.02-1.83-0.1-3.66,0.02-5.49c0.14-2.01,1.65-3.18,3.75-3.13
			c2.12,0.05,3.33,1.25,3.4,3.39C17.21,180.98,17.19,181.79,17.19,182.6z M13.54,180.49c0.55-0.18,1.59,0.63,1.59-0.62
			c0-0.77-0.64-1.17-1.45-1.21c-0.8-0.04-1.68,0.6-1.63,1.29C12.13,181.02,13,180.38,13.54,180.49z"/>
	</g>
</g>
</svg>
