<?xml version="1.0" encoding="utf-8"?>
<!-- Generator: Adobe Illustrator 25.0.0, SVG Export Plug-In . SVG Version: 6.00 Build 0)  -->
<svg version="1.1" id="Layer_1" xmlns="http://www.w3.org/2000/svg" xmlns:xlink="http://www.w3.org/1999/xlink" x="0px" y="0px"
	 viewBox="0 0 165 360" style="enable-background:new 0 0 165 360;" xml:space="preserve">
<path d="M0,180.3C0,122,0,63.7,0,5.3c0-1.1,0-2.1,0.1-3.2c0.1-0.9,0.6-1.5,1.5-1.7C2,0.4,2.5,0.3,3,0.3c0.8,0,1.6,0,2.5,0
	c51.3,0,102.5,0,153.8,0c1.2,0,2.5,0,3.7,0.1c1.4,0.2,1.8,0.7,2,2.1c0.1,0.4,0.1,0.8,0.1,1.2c0,0.7,0,1.3,0,2
	c0,116.4,0,232.9,0,349.3c0,1.1,0,2.1-0.1,3.2c-0.1,1.5-0.7,2-2.2,2.1c-0.6,0-1.1,0-1.7,0c-52.3,0-104.6,0-156.9,0
	c-0.7,0-1.5,0-2.2-0.1c-1.2-0.1-1.7-0.6-1.8-1.9C0,357.4,0,356.5,0,355.6c0-23.9,0-47.8,0-71.7C0,249.4,0,214.9,0,180.3z
	 M28.5,176.2c0,47.5,0,95,0,142.5c0,0.9,0,1.8,0,2.7c0.1,1.4,0.4,1.7,1.8,1.8c0.7,0,1.5,0,2.2,0c10.3,0,20.6,0,30.9,0
	c23,0,45.9,0,68.9,0c0.8,0,1.6,0,2.5-0.1c0.6-0.1,1.1-0.4,1.1-1.1c0.1-0.9,0.1-1.8,0.1-2.7c0-15.2,0-30.4,0-45.5
	c0-28.4,0-56.8,0-85.2c0-0.7,0-1.5,0-2.2c-0.1-1.5-0.5-1.9-1.9-2c-0.7-0.1-1.3,0-2-0.1c-1.4-0.2-2.3-1.1-2.3-2.4
	c0-1.2,0.7-2,2.1-2.3c0.8-0.2,1.6-0.2,2.4-0.3c1.2-0.2,1.5-0.5,1.6-1.7c0.1-0.8,0-1.6,0-2.4c0-13.6,0-27.3,0-40.9
	c0-33.9,0-67.7,0-101.6c0-3.6,0-3.6-3.5-3.6c-33.5,0-67,0-100.6,0c-0.6,0-1.2,0-1.7,0c-1.2,0.1-1.6,0.5-1.7,1.6
	c-0.1,1-0.1,2-0.1,2.9C28.5,81.2,28.5,128.7,28.5,176.2z M25,183.8c0-56.4,0-112.8,0-169.1c0-0.9,0-1.8,0-2.7
	c-0.1-1-0.4-1.3-1.4-1.3c-0.4,0-0.8,0-1.2,0c-3.2,0-6.4,0-9.6,0c-0.5,0-1,0-1.5,0.1c-0.8,0.1-1.2,0.4-1.2,1.3C10,13,10,14.1,10,15.1
	c0,112,0,223.9,0,335.8c0,1,0,2,0,2.9c0,0.5,0,1,0.1,1.5c0.1,0.8,0.5,1.1,1.3,1.3c0.3,0.1,0.7,0.1,1,0.1c3.4,0,6.9,0,10.3,0
	c0.3,0,0.7,0,1-0.1c0.9-0.1,1.3-0.5,1.3-1.5c0.1-1,0-2,0-2.9C25,296.1,25,240,25,183.8z M154.7,183.6c0-56.1,0-112.1,0-168.2
	c0-0.8,0-1.6,0-2.4c0-0.4,0-0.8-0.1-1.2c-0.1-0.6-0.5-1-1.1-1.1c-0.6-0.1-1.1-0.1-1.7-0.1c-2.5,0-5.1,0-7.6,0c-0.9,0-1.8,0-2.7,0
	c-1.6,0.1-1.8,0.3-1.8,1.9c0,0.7,0,1.5,0,2.2c0,53.4,0,106.9,0,160.3c0,0.8,0,1.6,0,2.4c0,0.3,0.1,0.7,0.1,1
	c0.1,0.4,0.4,0.6,0.7,0.7c1.4,0.1,2.8,0.5,3.8-0.9c0.6-0.8,1.5-1,2.3-1.2c2.3-0.5,3.9,0.7,4.1,3c0.1,0.5,0.1,1,0.1,1.5
	c0,5.4,0,10.8,0,16.2c0,0.6,0,1.1-0.1,1.7c-0.2,1.6-0.9,2.3-2.5,2.6c-0.6,0.1-1.3,0.1-1.9,0c-1.6-0.3-2.2-1-2.4-2.6
	c-0.1-0.7,0-1.3,0-2c0-3.3,0-6.7,0-10c0-2.2-0.4-2.6-2.8-2.5c-0.1,0-0.2,0-0.2,0c-0.7,0.1-1,0.4-1.1,1.1c-0.1,0.9-0.1,1.8-0.1,2.7
	c0,39.7,0,79.3,0,119c0,15,0,30,0,45c0,0.8,0,1.6,0,2.4c0.1,1,0.4,1.3,1.3,1.5c0.5,0.1,1,0.1,1.5,0.1c3.1,0,6.2,0,9.3,0
	c0.5,0,1,0,1.5-0.1c0.9-0.1,1.3-0.5,1.4-1.4c0.1-1.1,0.1-2.1,0.1-3.2C154.7,295.9,154.7,239.8,154.7,183.6z M82.3,326.8
	c-8.1,0-16.2,0-24.3,0c-8.8,0-17.7,0-26.5,0c-2.7,0-3,0.3-3,2.9c0,8,0,16,0,24c0,2.8,0.2,3,3.1,3c0.4,0,0.8,0,1.2,0
	c32.9,0,65.9,0,98.8,0c1,0,2,0,2.9-0.1c0.8-0.1,1.2-0.5,1.3-1.3c0.1-0.6,0.1-1.3,0.1-2c0-7.8,0-15.5,0-23.3c0-0.7,0-1.3-0.1-2
	c-0.1-0.9-0.6-1.3-1.5-1.4c-0.9-0.1-1.8-0.1-2.7-0.1C115.3,326.8,98.8,326.8,82.3,326.8z M82.3,10.6c-16.5,0-33,0-49.5,0
	c-0.7,0-1.5,0-2.2,0c-1.6,0.1-1.9,0.4-2,2.1c0,0.4,0,0.8,0,1.2c0,2.8,0,5.5,0,8.3c0,0.6,0,1.1,0.1,1.7c0.1,1.1,0.5,1.5,1.5,1.6
	c0.6,0.1,1.1,0,1.7,0c33.7,0,67.3,0,101,0c0.4,0,0.8,0,1.2,0c1.6-0.1,1.9-0.4,2-2.1c0-0.4,0-0.8,0-1.2c0-2.8,0-5.5,0-8.3
	c0-0.6,0-1.1,0-1.7c-0.1-1.1-0.5-1.5-1.5-1.5c-0.8-0.1-1.6,0-2.5,0C115.5,10.6,98.9,10.6,82.3,10.6z M158.2,180.2
	c0,57.5,0,114.9,0,172.4c0,1,0,2,0.1,2.9c0.1,0.8,0.6,1.2,1.5,1.2c0.9,0,1.4-0.4,1.5-1.2c0.1-0.9,0.1-1.8,0.1-2.7
	c0-115.1,0-230.1,0-345.2c0-0.7,0-1.3,0-2c0-1.5-0.5-2-2.2-1.7c-0.6,0.1-0.9,0.5-0.9,1c-0.1,1-0.1,2-0.1,2.9
	C158.2,65.3,158.2,122.7,158.2,180.2z M6.5,180.4c0-57.5,0-115.1,0-172.6c0-0.8,0-1.6,0-2.4C6.4,4.2,6,3.8,5,3.8
	c-1,0-1.3,0.4-1.4,1.6c-0.1,1,0,2,0,2.9c0,114.5,0,229,0,343.5c0,0.8,0,1.6,0,2.4c0,0.4,0,0.8,0.1,1.2c0.1,0.7,0.7,1.1,1.4,1.1
	c0.8,0,1.3-0.4,1.3-1.2c0.1-1.1,0.1-2.1,0.1-3.2C6.5,295,6.5,237.7,6.5,180.4z M82.5,3.8c-22.9,0-45.8,0-68.7,0c-0.8,0-1.6,0-2.5,0
	c-1,0.1-1.3,0.4-1.4,1.4C10,6.3,10.4,6.9,11.3,7c1.1,0.1,2.1,0.1,3.2,0.1c45.2,0,90.4,0,135.6,0c0.7,0,1.5,0,2.2,0
	c0.4,0,0.8,0,1.2-0.1c0.9-0.2,1.2-0.8,1.2-1.9c-0.1-0.8-0.4-1.2-1.2-1.3c-0.9-0.1-1.8-0.1-2.7-0.1C128,3.8,105.3,3.8,82.5,3.8z"/>
</svg>
