<?xml version="1.0" encoding="utf-8"?>
<!-- Generator: Adobe Illustrator 25.0.0, SVG Export Plug-In . SVG Version: 6.00 Build 0)  -->
<svg version="1.1" id="Layer_1" xmlns="http://www.w3.org/2000/svg" xmlns:xlink="http://www.w3.org/1999/xlink" x="0px" y="0px"
	 viewBox="0 0 165 360" style="enable-background:new 0 0 165 360;" xml:space="preserve">
<path d="M0,179.8c0-58.5,0-117,0-175.5c0-0.9,0-1.8,0-2.7c0.1-1,0.5-1.4,1.6-1.5c0.6,0,1.2,0,1.7,0C5.1,0.1,6.9,0,8.7,0
	c1.7,0,3.4,0.1,5.1,0.1c49.1,0,98.2,0,147.3,0c0.9,0,1.8,0,2.7,0.1c0.6,0.1,1,0.5,1.1,1.1c0,0.3,0.1,0.7,0.1,1c0,0.7,0,1.3,0,2
	c0,117.2,0,234.5,0,351.7c0,0.9,0,1.8-0.1,2.7c-0.1,0.8-0.5,1.2-1.3,1.3c-0.8,0.1-1.6,0.1-2.5,0.1c-34.3,0-68.7,0-103,0
	c-18.2,0-36.4,0-54.6,0c-0.7,0-1.5,0-2.2-0.1c-0.9-0.1-1.3-0.5-1.4-1.4c-0.1-0.7,0-1.3,0-2c0-5.6,0-11.3,0-16.9
	C0,286.4,0,233.1,0,179.8z M28.2,120c0,29.4,0,58.8,0,88.2c0,4-0.5,3.6,3.5,3.6c20.2,0,40.3,0,60.5,0c14,0,28,0,42,0
	c2.8,0,2.6,0.1,2.6-2.5c0-7.7,0-15.4,0-23c0-0.4,0-0.8,0-1.2c0-0.8-0.2-1-1-1.1c-1.2-0.1-2.5,0-3.7-0.2c-1.1-0.1-1.6-0.8-1.7-2
	c-0.1-1.2,0.4-2,1.5-2.1c0.9-0.1,1.8-0.1,2.7-0.1c2.2,0,2.2,0,2.1-2.2c0-0.4,0-0.8,0-1.2c0-48.2,0-96.4,0-144.6
	c0-3.6,0.5-3.3-3.3-3.3c-34,0-68,0-102,0c-3.7,0-3.3-0.3-3.3,3.3C28.2,61.1,28.2,90.5,28.2,120z M82.4,323.3c17.4,0,34.8,0,52.1,0
	c2.4,0,2.3,0.1,2.3-2.3c0-28.5,0-57,0-85.5c0-0.6,0-1.1-0.1-1.7c0-0.4-0.3-0.6-0.6-0.6c-0.8,0-1.6-0.1-2.5-0.1
	c-34.1,0-68.2,0-102.3,0c-0.4,0-0.8,0-1.2,0c-1.9,0-1.9,0-2,1.9c0,0.3,0,0.7,0,1c0,28.2,0,56.4,0,84.5c0,3-0.2,2.8,2.8,2.8
	C48.2,323.3,65.3,323.3,82.4,323.3z M9.7,183.3c0,56.6,0,113.2,0,169.9c0,0.9,0,1.8,0,2.7c0,1.1,0.2,1.3,1.3,1.3c3.4,0,6.9,0,10.3,0
	c1.2,0,2.5,0.2,3.6-0.2c0.7-1.2,0.3-2.5,0.3-3.8c0-106.4,0-212.8,0-319.1c0-7,0-14.1,0-21.1c0-0.7,0-1.5-0.1-2.2
	c0-0.5-0.3-0.7-0.8-0.8c-0.6,0-1.2,0-1.7-0.1c-3.1,0-6.2,0-9.3,0c-4.3,0.1-3.7-0.6-3.7,3.8C9.7,70.2,9.7,126.8,9.7,183.3z
	 M155.4,183.5c0-24.4,0-48.9,0-73.3c0-32.3,0-64.7,0-97.1c0-0.8,0-1.6-0.1-2.4c0-0.5-0.3-0.7-0.8-0.8c-0.6-0.1-1.2,0-1.7-0.1
	c-3.2,0-6.4,0-9.6,0c-4.1,0-3.6-0.6-3.6,3.4c0,25.9,0,51.8,0,77.7c0,28.4,0,56.9,0,85.3c0,0.8,0,1.6,0.1,2.4c0,0.5,0.4,0.7,0.8,0.7
	c0.6,0,1.1-0.1,1.7-0.2c1-0.1,2,0.1,2.3-1.2c0.1-0.5,0.7-0.7,1.2-0.8c0.8-0.2,1.6-0.3,2.4-0.2c1.9,0.3,2.3,0.7,2.3,2.7
	c0,0.2,0,0.3,0,0.5c0,6,0,12.1,0,18.1c0,0.5,0,1,0,1.5c0,0.4-0.2,0.8-0.6,1c-1.6,0.9-3.3,0.9-4.9,0c-0.4-0.3-0.7-0.7-0.7-1.2
	c0-0.6-0.1-1.1-0.1-1.7c0-3.7,0-7.4,0-11c0-0.7,0-1.3,0-2c0-0.5-0.3-0.7-0.8-0.8c-0.4,0-0.8-0.1-1.2-0.1c-2.5-0.2-2.5-0.1-2.5,2.3
	c0,0.3,0,0.7,0,1c0,55.6,0,111.1,0,166.6c0,0.7,0,1.3,0,2c0,1,0.2,1.1,1.2,1.1c3.6,0,7.2,0,10.8,0c1.1,0,2.5,0.5,3.3-0.3
	c0.9-0.9,0.4-2.3,0.4-3.5C155.4,296.7,155.4,240.1,155.4,183.5z M82.5,9.9c-16.8,0-33.6,0-50.4,0c-0.7,0-1.3,0-2,0
	c-1.8,0-1.8,0.1-1.9,1.7c0,0.3,0,0.7,0,1c0,3.3,0,6.7,0,10c0,3-0.3,2.9,3,2.9c34.3,0,68.5,0,102.8,0c0.7,0,1.3,0,2-0.1
	c0.5,0,0.8-0.3,0.8-0.7c0-0.6,0-1.1,0-1.7c0-3.4,0-6.9,0-10.3c0-3.1,0.3-2.8-2.9-2.8C116.8,9.9,99.6,9.9,82.5,9.9z M82.6,230.2
	c1.9,0,3.8,0,5.7,0c15.1,0,30.2,0,45.2,0c0.7,0,1.5,0,2.2,0c0.8,0,1-0.3,1.1-1c0-0.4,0-0.8,0-1.2c0-3.7,0-7.4,0-11
	c0-2.4,0.1-2.4-2.5-2.4c-34.5,0-69,0-103.5,0c-0.3,0-0.7,0-1,0c-1.4,0.1-1.6,0.2-1.6,1.5c0,0.4,0,0.8,0,1.2c0,3.3,0,6.7,0,10
	c0,3.1-0.3,2.8,3,2.9C48.4,230.2,65.5,230.2,82.6,230.2z M82.8,340.5c17,0,34.1,0,51.1,0c0.7,0,1.5,0,2.2-0.1c0.5,0,0.7-0.3,0.7-0.8
	c0-4.2,0-8.3,0-12.5c0-0.1,0-0.2,0-0.2c-0.1-0.4-0.2-0.6-0.6-0.6c-0.8,0-1.6-0.1-2.5-0.1c-34.1,0-68.2,0-102.3,0c-0.7,0-1.3,0-2,0
	c-1.1,0-1.3,0.2-1.3,1.3c0,3.7,0,7.4,0,11c0,1.9,0,1.9,1.9,1.9c0.6,0,1.2,0,1.7,0C48.8,340.5,65.8,340.5,82.8,340.5z M82.5,343.3
	c-17,0-33.9,0-50.9,0c-0.7,0-1.5,0-2.2,0c-0.9,0-1.1,0.2-1.1,1.2c0,3.1,0,6.2,0,9.3c0,3.7-0.4,3.3,3.3,3.3c34,0,68,0,102,0
	c0.7,0,1.3,0,2,0c1.3,0,1.3-0.1,1.4-1.5c0-3.2,0-6.4,0-9.6c0-3,0.3-2.8-2.8-2.8C116.9,343.3,99.7,343.3,82.5,343.3z M6.9,180.1
	c0-57.5,0-115,0-172.5c0-0.7,0-1.3,0-2c0-0.4,0-0.8,0-1.2C6.8,3.3,6.7,3,5.6,3C2.7,3,2.9,2.8,2.8,5.6c0,0.5,0,1,0,1.5
	c0,115.3,0,230.7,0,346c0,0.9,0,1.8,0,2.7c0,0.2,0,0.5,0.1,0.7c0.1,0.2,0.3,0.5,0.4,0.5c1.1,0.1,2.2,0.4,3.1-0.1
	c0.7-0.4,0.3-1.5,0.4-2.3c0-0.7,0-1.3,0-2C6.9,295.1,6.9,237.6,6.9,180.1z M162.1,179.9c0-57.5,0-115,0-172.6c0-0.8,0-1.6,0-2.5
	c0-1.8-0.1-1.8-1.8-1.8c-2,0-2,0-2.1,2c0,0.6,0,1.1,0,1.7c0,115.5,0,231.1,0,346.6c0,0.8,0,1.6,0,2.5c0,0.2,0,0.5,0.1,0.7
	c0.1,0.2,0.3,0.5,0.5,0.5c1,0.1,2,0.4,2.9-0.1c0.8-0.5,0.4-1.5,0.4-2.3c0.1-0.7,0-1.3,0-2C162.1,295.1,162.1,237.5,162.1,179.9z
	 M82.5,7c9.1,0,18.2,0,27.3,0c14.3,0,28.5,0,42.8,0c0.7,0,1.5,0,2.2-0.1c0.2,0,0.5-0.2,0.5-0.4c0.2-1,0.4-2.2-0.1-3.1
	c-0.5-0.8-1.5-0.3-2.3-0.4c-0.1,0-0.2,0-0.3,0C105.9,3,59.2,3,12.5,3c-3.1,0-2.8-0.3-2.7,3c0,0.6,0.3,0.9,0.9,0.9c0.8,0,1.6,0,2.5,0
	C36.3,7,59.4,7,82.5,7z M147.4,185.1c-0.4,2.6-0.3,6.7,0.1,8.1C147.8,190.1,147.8,186.7,147.4,185.1z"/>
</svg>
