<?xml version="1.0" encoding="utf-8"?>
<!-- Generator: Adobe Illustrator 25.0.0, SVG Export Plug-In . SVG Version: 6.00 Build 0)  -->
<svg version="1.1" id="Layer_1" xmlns="http://www.w3.org/2000/svg" xmlns:xlink="http://www.w3.org/1999/xlink" x="0px" y="0px"
	 viewBox="0 0 165 360" style="enable-background:new 0 0 165 360;" xml:space="preserve">
<path d="M165,180c0,58.2,0,116.4,0,174.7c0,1,0,2-0.1,2.9c-0.1,1.5-0.8,2.2-2.3,2.3c-0.7,0.1-1.3,0-2,0c-52.1,0-104.2,0-156.3,0
	c-0.7,0-1.5,0-2.2-0.1c-1.3-0.1-1.9-0.7-2.1-2C0,357.6,0,357.1,0,356.7c0-0.8,0-1.6,0-2.5C0,238.1,0,121.9,0,5.7
	c0-1.1,0-2.3,0.1-3.4C0.2,0.6,0.8,0.1,2.4,0c0.7,0,1.3,0,2,0c52.1,0,104.2,0,156.3,0c0.8,0,1.6,0,2.4,0.1c1.1,0.1,1.6,0.6,1.8,1.6
	c0.1,0.4,0.1,0.8,0.1,1.2c0,0.9,0,1.8,0,2.7C165,63.7,165,121.9,165,180z M10.4,182.9c0,14,0,28.1,0,42.1c0,42.5,0,84.9,0,127.4
	c0,0.9,0,1.8,0.1,2.7c0.1,0.8,0.5,1.1,1.3,1.2c0.4,0.1,0.8,0.1,1.2,0.1c3.3,0,6.5,0,9.8,0c0.5,0,1,0,1.5-0.1
	c0.6-0.1,1.1-0.5,1.1-1.1c0.1-1.1,0.1-2.1,0.1-3.2c0-112.1,0-224.2,0-336.3c0-1,0-2,0-2.9c0-0.5,0-1-0.1-1.5
	c-0.1-0.8-0.4-1.1-1.3-1.2C23.7,10,23.2,10,22.8,10c-3.3,0-6.5,0-9.8,0c-0.5,0-1,0-1.5,0.1c-0.7,0.1-1.1,0.5-1.1,1.1
	c-0.1,1-0.1,2-0.1,2.9C10.4,70.4,10.4,126.7,10.4,182.9z M154.6,183.4c0-56.2,0-112.4,0-168.6c0-0.9,0-1.8,0-2.7
	c-0.1-1.7-0.3-2-2-2.1c-0.1,0-0.2,0-0.2,0c-3.5,0-7,0-10.5,0c-0.3,0-0.7,0-1,0.1c-0.8,0.1-1.1,0.4-1.2,1.3c-0.1,0.8,0,1.6,0,2.4
	c0,53.8,0,107.6,0,161.5c0,0.7,0,1.5,0,2.2c0,0.2,0.1,0.5,0.2,0.7c0.1,0.2,0.3,0.5,0.5,0.5c1.3,0.2,2.7,0.6,3.8-0.7
	c1.5-1.7,3.5-1.4,5.2-0.8c0.6,0.3,1.1,0.8,1.2,1.5c0.1,0.9,0.2,1.8,0.2,2.7c0,5.3,0,10.6,0,15.9c0,0.7,0,1.3-0.1,2
	c-0.1,1.3-0.8,2.1-2.1,2.4c-0.6,0.1-1.1,0.2-1.7,0.2c-2.2-0.1-3-1-3.1-3.2c0-0.6,0-1.1,0-1.7c0-3.2,0-6.4,0-9.6c0-0.6,0-1.1,0-1.7
	c0-0.4-0.2-0.8-0.5-1.1c-0.6-0.5-2.4-0.7-3-0.2c-0.2,0.2-0.4,0.5-0.5,0.8c-0.1,1-0.1,2-0.1,2.9c0,44.5,0,89,0,133.5
	c0,10.5,0,20.9,0,31.4c0,0.7,0,1.5,0.1,2.2c0.1,0.6,0.4,1,1.1,1.1c0.3,0.1,0.7,0.1,1,0.1c3.5,0,7,0,10.5,0c0.2,0,0.3,0,0.5,0
	c1.4-0.1,1.8-0.4,1.8-1.8c0.1-1,0-2,0-2.9C154.6,295.6,154.6,239.5,154.6,183.4z M82.7,218.4c-16.9,0-33.8,0-50.6,0
	c-3.1,0-3.1,0-3.1,3.1c0,11.7,0,23.4,0,35c0,0.7,0,1.3,0.1,2c0.1,0.8,0.5,1.1,1.3,1.2c0.8,0.1,1.6,0,2.4,0c33.2,0,66.4,0,99.5,0
	c0.4,0,0.8,0,1.2,0c2.3,0,2.5-0.2,2.6-2.5c0-0.7,0-1.3,0-2c0-10.8,0-21.6,0-32.3c0-0.6,0-1.1,0-1.7c0-2.7-0.2-2.8-2.7-2.8
	c-0.7,0-1.3,0-2,0C115.2,218.4,98.9,218.4,82.7,218.4z M82.5,323c16.7,0,33.4,0,50.1,0c3.4,0,3.4,0,3.4-3.4c0-11.6,0-23.2,0-34.8
	c0-0.6,0-1.1-0.1-1.7c-0.1-1.1-0.5-1.5-1.5-1.6c-0.6-0.1-1.1,0-1.7,0c-33.6,0-67.1,0-100.7,0c-0.7,0-1.3,0-2,0.1
	c-0.6,0.1-1.1,0.5-1.1,1.1c-0.1,0.8-0.1,1.6-0.1,2.4c0,11.4,0,22.9,0,34.3c0,0.6,0,1.1,0,1.7c0.1,1.4,0.4,1.7,1.7,1.8
	c0.7,0,1.5,0,2.2,0C49.4,323,66,323,82.5,323z M82.4,196.5c16.6,0,33.1,0,49.6,0c0.7,0,1.5,0,2.2,0c1.4-0.1,1.8-0.4,1.8-1.7
	c0.1-2,0-4.1,0-6.1c0-1,0-2,0-2.9c-0.1-1.2-0.4-1.5-1.7-1.7c-0.8-0.1-1.6,0-2.4-0.2c-1.2-0.2-1.9-1-2-2.2c-0.1-1.1,0.5-2,1.6-2.4
	c0.8-0.3,1.6-0.3,2.4-0.3c1.7-0.1,2-0.4,2.1-2c0-0.3,0-0.7,0-1c0-6,0-11.9,0-17.9c0-0.6,0-1.1-0.1-1.7c-0.1-0.8-0.5-1.2-1.3-1.2
	c-0.6-0.1-1.3-0.1-2-0.1c-33.5,0-67,0-100.5,0c-0.7,0-1.3,0-2,0.1c-0.8,0.1-1.2,0.5-1.3,1.2c-0.1,0.7-0.1,1.3-0.1,2
	c0,11.7,0,23.4,0,35c0,0.7,0,1.3,0.1,2c0.1,0.8,0.5,1.1,1.3,1.2c0.8,0.1,1.6,0,2.4,0C49.3,196.5,65.8,196.5,82.4,196.5z M82.4,28.6
	c-16.8,0-33.6,0-50.4,0c-3.1,0-3.2,0.1-3.2,3.2c0,11.6,0,23.2,0,34.8c0,0.5,0,1,0,1.5c0.1,1.2,0.4,1.6,1.6,1.7
	c0.8,0.1,1.6,0.1,2.4,0.1c32.9,0,65.8,0,98.8,0c0.7,0,1.3,0,2,0c0.4,0,0.8,0,1.2-0.1c0.5-0.1,0.9-0.5,1-1c0.1-0.7,0.2-1.5,0.2-2.2
	c0-11.5,0-23,0-34.5c0-0.6,0-1.1-0.1-1.7c-0.1-1.1-0.5-1.5-1.5-1.6c-0.9-0.1-1.8-0.1-2.7-0.1C115.4,28.6,98.9,28.6,82.4,28.6z
	 M82.5,91.9c-16.9,0-33.8,0-50.6,0c-2.8,0-2.9,0.1-2.9,2.9c0,11.8,0,23.5,0,35.3c0,0.6,0,1.1,0.1,1.7c0.1,0.6,0.5,1.1,1.1,1.1
	c1,0.1,2,0.1,2.9,0.1c32.9,0,65.9,0,98.8,0c0.4,0,0.8,0,1.2,0c2.7,0,3-0.2,3-2.9c0-11.8,0-23.5,0-35.3c0-0.6,0-1.1-0.1-1.7
	c-0.1-0.6-0.5-1.1-1.1-1.1c-0.9-0.1-1.8-0.1-2.7-0.1C115.6,91.9,99.1,91.9,82.5,91.9z M82.5,199.8c-16.5,0-33.1,0-49.6,0
	c-0.7,0-1.5,0-2.2,0c-1.4,0.1-1.7,0.4-1.7,1.8c0,0.5,0,1,0,1.5c0,2.8,0,5.5,0,8.3c0,3.4,0,3.4,3.4,3.4c33.4,0,66.8,0,100.2,0
	c0.6,0,1.1,0,1.7,0c1.3-0.1,1.7-0.5,1.8-1.9c0-0.5,0-1,0-1.5c0-2.8,0-5.5,0-8.3c0-3.3,0-3.4-3.4-3.4
	C115.9,199.8,99.2,199.8,82.5,199.8z M82.5,278c16.5,0,33.1,0,49.6,0c0.9,0,1.8,0,2.7-0.1c0.6,0,1-0.4,1.2-1.1
	c0.1-0.3,0.1-0.7,0.1-1c0-3.6,0-7.2,0-10.8c0-1.7-0.4-2-2-2.1c-0.3,0-0.7,0-1,0c-33.7,0-67.5,0-101.2,0c-0.6,0-1.1,0-1.7,0.1
	c-0.7,0-1.1,0.4-1.2,1c-0.1,0.5-0.1,1-0.1,1.5c0,3.3,0,6.5,0,9.8c0,0.4,0,0.8,0.1,1.2c0.1,0.9,0.5,1.3,1.4,1.3
	c0.8,0.1,1.6,0.1,2.4,0.1C49.4,278,65.9,278,82.5,278z M82.5,88.3c16.5,0,33.1,0,49.6,0c0.9,0,1.8,0,2.7-0.1c0.6-0.1,1-0.4,1.2-1.1
	c0.1-0.3,0.1-0.7,0.1-1c0-3.6,0-7.2,0-10.8c0-1.7-0.4-2-2-2.1c-0.4,0-0.8,0-1.2,0c-33.6,0-67.1,0-100.7,0c-0.7,0-1.3,0-2,0.1
	c-0.7,0.1-1.1,0.4-1.1,1.1c-0.1,0.5-0.1,1-0.1,1.5c0,3.3,0,6.5,0,9.8c0,0.4,0,0.8,0.1,1.2c0.1,0.9,0.5,1.3,1.4,1.3
	c0.8,0.1,1.6,0.1,2.4,0.1C49.4,88.3,65.9,88.3,82.5,88.3z M82.8,136.5c-16.7,0-33.4,0-50.1,0c-0.9,0-1.8,0-2.7,0.1
	c-0.5,0-0.9,0.4-1,0.9c-0.1,0.5-0.1,1-0.1,1.5c0,3.3,0,6.7,0,10c0,0.4,0,0.8,0.1,1.2c0.1,0.7,0.5,1.1,1.1,1.1
	c0.9,0.1,1.8,0.1,2.7,0.1c28.2,0,56.4,0,84.6,0c5.1,0,10.3,0,15.4,0c0.7,0,1.5,0,2.2-0.1c0.5-0.1,0.9-0.4,1-0.9
	c0.1-0.5,0.1-1,0.1-1.5c0-3.3,0-6.7,0-10c0-0.4,0-0.8-0.1-1.2c-0.1-0.6-0.5-1.1-1.1-1.1c-0.8-0.1-1.6-0.1-2.4-0.1
	C115.9,136.5,99.3,136.5,82.8,136.5z M82.6,25c16.5,0,33.1,0,49.6,0c0.8,0,1.6,0,2.4-0.1c0.9-0.1,1.3-0.4,1.4-1.4
	c0.1-0.4,0.1-0.8,0.1-1.2c0-3.2,0-6.4,0-9.6c0-0.5,0-1-0.1-1.5c-0.1-0.8-0.5-1.2-1.3-1.3c-0.7-0.1-1.5-0.1-2.2-0.1
	c-33.4,0-66.8,0-100.2,0c-0.7,0-1.3,0-2,0.1c-0.9,0.1-1.4,0.5-1.4,1.4c0,4,0,8,0,12c0,0.1,0,0.2,0,0.2c0.1,0.8,0.5,1.2,1.3,1.2
	c0.8,0.1,1.6,0.1,2.4,0.1C49.3,25,65.9,25,82.6,25z M82.4,326.5c-16.5,0-32.9,0-49.4,0c-0.8,0-1.6,0-2.4,0c-1.2,0.1-1.6,0.5-1.7,1.7
	c-0.1,3.3,0,6.5,0,9.8c0,0.1,0,0.2,0,0.2c0.1,0.9,0.5,1.3,1.4,1.4c0.8,0.1,1.6,0.1,2.4,0.1c33.1,0,66.2,0,99.2,0c0.7,0,1.3,0,2,0
	c0.3,0,0.7,0,1-0.1c0.5-0.1,0.9-0.5,1-1c0.1-0.5,0.1-1,0.1-1.5c0-2.7,0-5.4,0-8.1c0-0.4,0-0.8-0.1-1.2c-0.1-0.8-0.5-1.2-1.3-1.3
	c-0.9-0.1-1.8-0.1-2.7-0.1C115.5,326.5,99,326.5,82.4,326.5z M82.5,343.3c-16.5,0-33.1,0-49.6,0c-0.8,0-1.6,0-2.4,0
	c-1,0.1-1.3,0.4-1.4,1.3c-0.1,0.6-0.1,1.1-0.1,1.7c0,2.2,0,4.4,0,6.6c0,3.4,0,3.4,3.4,3.4c33.4,0,66.8,0,100.2,0c0.7,0,1.3,0,2-0.1
	c0.9-0.1,1.3-0.5,1.5-1.4c0.1-0.6,0.1-1.1,0.1-1.7c0-2.1,0-4.2,0-6.4c0-3.6,0-3.6-3.7-3.6C115.8,343.3,99.1,343.3,82.5,343.3z
	 M3.6,179.9c0,57.4,0,114.8,0,172.2c0,1,0,2,0.1,2.9c0.1,0.9,0.5,1.3,1.4,1.4c1.1,0.1,1.7-0.3,1.8-1.2c0.1-1.1,0.1-2.1,0.1-3.2
	c0-114.8,0-229.6,0-344.4c0-0.8,0-1.6,0-2.5c0-0.3,0-0.7-0.1-1C6.6,3.7,6.3,3.4,5.9,3.3C5.5,3.3,5,3.3,4.6,3.3c-0.6,0-0.9,0.4-1,0.9
	c-0.1,1-0.1,2-0.1,2.9C3.6,64.8,3.6,122.3,3.6,179.9z M158.1,179.7c0,57.3,0,114.6,0,172c0,0.8,0,1.6,0,2.5c0,0.4,0,0.8,0.1,1.2
	c0.1,0.7,0.6,1,1.4,1c1,0,1.6-0.3,1.6-1.1c0.1-1.1,0.1-2.1,0.1-3.2c0-114.9,0-229.8,0-344.6c0-0.6,0-1.1,0-1.7c0-0.3,0-0.7,0-1
	c-0.1-1.2-0.5-1.5-1.8-1.5c-1,0-1.4,0.4-1.4,1.3c-0.1,1-0.1,2-0.1,2.9C158.1,64.9,158.1,122.3,158.1,179.7z M82.5,3.3
	c-22.8,0-45.7,0-68.5,0c-0.8,0-1.6,0-2.4,0.1c-0.7,0.1-1,0.5-1.1,1.1c-0.1,1.5,0.3,2,1.7,2c0.5,0,1,0,1.5,0c2,0,3.9,0,5.9,0
	c43.5,0,87.1,0,130.6,0c1,0,2,0,2.9,0c1.1-0.1,1.5-0.5,1.5-1.5c0-1.1-0.4-1.5-1.4-1.6c-0.8-0.1-1.6,0-2.4,0
	C127.9,3.3,105.2,3.3,82.5,3.3z"/>
</svg>
