<?xml version="1.0" encoding="utf-8"?>
<!-- Generator: Adobe Illustrator 25.0.0, SVG Export Plug-In . SVG Version: 6.00 Build 0)  -->
<svg version="1.1" id="Layer_1" xmlns="http://www.w3.org/2000/svg" xmlns:xlink="http://www.w3.org/1999/xlink" x="0px" y="0px"
	 viewBox="0 0 165 360" style="enable-background:new 0 0 165 360;" xml:space="preserve">
<path d="M165,180.1c0,58.2,0,116.5,0,174.7c0,1.1,0,2.1-0.1,3.2c-0.1,1.2-0.8,1.7-1.9,1.9c-0.4,0.1-0.8,0.1-1.2,0.1
	c-0.7,0-1.3,0-2,0c-51.6,0-103.1,0-154.7,0c-1,0-2,0-2.9-0.1c-1.2-0.1-1.8-0.7-2-1.8C0.1,357.6,0,357,0,356.4c0-0.9,0-1.8,0-2.7
	C0,237.9,0,122.1,0,6.3c0-0.9,0-1.8,0-2.7C0,3,0.1,2.3,0.2,1.7C0.5,0.6,1,0.2,2.1,0.1c0.3,0,0.7,0,1,0c0.7,0,1.3,0,2,0
	c51.7,0,103.5,0,155.2,0c1,0,2,0,2.9,0.1c0.9,0.1,1.5,0.6,1.7,1.5c0.1,0.5,0.2,1,0.2,1.5c0,1,0,2,0,2.9C165,64,165,122.1,165,180.1z
	 M10.3,183c0,56.3,0,112.5,0,168.8c0,1,0,2,0,2.9c0.1,1.2,0.5,1.6,1.7,1.6c3.9,0,7.8,0,11.7,0c0.1,0,0.2,0,0.2,0
	c0.9-0.1,1.3-0.5,1.3-1.5c0.1-1.1,0.1-2.1,0.1-3.2c0-92.8,0-185.5,0-278.3c0-19.8,0-39.5,0-59.3c0-0.9,0-1.8-0.1-2.7
	c-0.1-0.9-0.5-1.3-1.4-1.4c-0.4,0-0.8,0-1.2,0c-3.3,0-6.5,0-9.8,0c-0.4,0-0.8,0-1.2,0.1c-0.9,0.1-1.3,0.5-1.4,1.4
	c-0.1,1-0.1,2-0.1,2.9C10.3,70.6,10.3,126.8,10.3,183z M154.7,183.3c0-12.5,0-25,0-37.5c0-43.8,0-87.6,0-131.3c0-1,0-2-0.1-2.9
	c-0.1-1-0.5-1.4-1.4-1.4c-4,0-8,0-12,0c-0.8,0-1.2,0.5-1.3,1.3c-0.1,1-0.1,2-0.1,2.9c0,48.6,0,97.2,0,145.8c0,5.1,0,10.3,0,15.4
	c0,0.7,0,1.5,0.1,2.2c0,0.4,0.2,0.9,0.7,0.9c1.2,0.3,2.5,0.6,3.4-0.6c0.7-0.9,1.7-1.3,2.8-1.4c2.1-0.1,4.2,0.5,4,3.4
	c0,0.2,0,0.5,0,0.7c0,5.6,0,11.3,0,16.9c0,0.6,0,1.1-0.1,1.7c-0.1,1.1-0.7,1.8-1.8,2.1c-0.8,0.2-1.6,0.4-2.4,0.2
	c-2-0.3-2.7-1-2.8-3.1c0-0.6,0-1.1,0-1.7c0-3.2,0-6.4,0-9.6c0-0.7,0-1.3-0.1-2c-0.1-0.6-0.5-1.1-1.1-1.2c-0.5-0.1-1-0.1-1.5-0.1
	c-0.7,0-1.1,0.4-1.2,1c-0.1,0.8-0.1,1.6-0.1,2.4c0,55.1,0,110.1,0,165.2c0,0.7,0,1.3,0,2c0.1,1.2,0.5,1.6,1.7,1.7c0.5,0.1,1,0,1.5,0
	c2.8,0,5.6,0,8.3,0c0.4,0,0.8,0,1.2,0c1.6-0.1,1.9-0.4,2-2.1c0-0.9,0-1.8,0-2.7C154.7,295.5,154.7,239.4,154.7,183.3z M82.7,164.7
	c16.6,0,33.3,0,49.9,0c0.7,0,1.5,0,2.2,0c1.2-0.1,1.5-0.3,1.6-1.4c0-0.5,0-1,0-1.5c0-8.4,0-16.8,0-25.2c0-0.6,0-1.1-0.1-1.7
	c-0.1-0.7-0.4-1.1-1.1-1.1c-0.8-0.1-1.6-0.1-2.4-0.1c-33.4,0-66.9,0-100.3,0c-0.6,0-1.1,0-1.7,0c-1.5,0.1-1.7,0.3-1.8,1.7
	c0,0.6,0,1.1,0,1.7c0,8.1,0,16.2,0,24.2c0,3.5,0,3.4,3.4,3.4C49.1,164.7,65.9,164.7,82.7,164.7z M82.7,291.8c-16.9,0-33.8,0-50.6,0
	c-3.1,0-3.1,0-3.1,3.2c0,8.3,0,16.7,0,25c0,0.6,0,1.1,0.1,1.7c0.1,0.8,0.4,1.2,1.2,1.3c0.9,0.1,1.8,0.1,2.7,0.1
	c33.2,0,66.4,0,99.6,0c0.4,0,0.8,0,1.2,0c2.7,0,2.7-0.1,2.7-2.8c0-8.5,0-17,0-25.5c0-0.6,0-1.1-0.1-1.7c-0.1-0.7-0.4-1.1-1.1-1.1
	c-0.9-0.1-1.8-0.1-2.7-0.1C116,291.8,99.3,291.8,82.7,291.8z M82.6,239c-16.9,0-33.8,0-50.6,0c-3,0-3,0-3,3c0,8.2,0,16.3,0,24.5
	c0,3.2,0,3.2,3.3,3.2c33.6,0,67.2,0,100.8,0c0.7,0,1.3,0,2-0.1c0.9-0.1,1.3-0.5,1.4-1.4c0-0.5,0-1,0-1.5c0-3,0-6,0-9.1
	c0-5.5,0-10.9,0-16.4c0-2.1-0.2-2.3-2.2-2.3c-0.7,0-1.3,0-2,0C115.7,239,99.1,239,82.6,239z M82.7,217.1c16.6,0,33.1,0,49.7,0
	c0.7,0,1.5,0,2.2,0c1.5-0.1,1.7-0.3,1.8-1.7c0-0.3,0-0.7,0-1c0-8.4,0-16.8,0-25.2c0-0.6,0-1.1-0.1-1.7c-0.1-0.5-0.4-0.9-1-1
	c-0.7-0.1-1.5-0.1-2.2-0.1c-33.7,0-67.4,0-101,0c-3.2,0-3.2,0-3.2,3.1c0,8,0,16,0,24c0,3.8-0.1,3.6,3.6,3.6
	C49.3,217.1,66,217.1,82.7,217.1z M82.6,59.3c16.9,0,33.8,0,50.6,0c3.2,0,3.2,0.1,3.2-3.3c0-8,0-16,0-24c0-0.7,0-1.5-0.1-2.2
	c-0.1-0.6-0.4-1.1-1.1-1.1c-0.8-0.1-1.6-0.1-2.4-0.1c-11.3,0-22.7,0-34,0c-22.2,0-44.4,0-66.6,0c-3.3,0-3.3,0-3.3,3.2
	c0,8.2,0,16.3,0,24.5c0,0.6,0,1.1,0.1,1.7c0.1,0.8,0.4,1.2,1.2,1.3c0.8,0.1,1.6,0.1,2.4,0.1C49.3,59.3,65.9,59.3,82.6,59.3z
	 M82.7,111.8c16.5,0,33,0,49.4,0c0.7,0,1.5,0,2.2,0c1.8-0.1,2-0.3,2.1-2c0-0.2,0-0.5,0-0.7c0-8.4,0-16.8,0-25.2c0-0.6,0-1.1-0.1-1.7
	c-0.1-0.5-0.4-0.9-0.9-1c-0.7-0.1-1.5-0.1-2.2-0.1c-33.7,0-67.4,0-101.1,0c-3.2,0-3.2,0-3.2,3.1c0,8.2,0,16.3,0,24.5
	c0,0.7,0,1.3,0.1,2c0.1,0.7,0.4,1.1,1.1,1.1c0.9,0.1,1.8,0.1,2.7,0.1C49.4,111.8,66.1,111.8,82.7,111.8z M82.7,25
	c16.6,0,33.3,0,49.9,0c0.8,0,1.6,0,2.4,0c0.9-0.1,1.3-0.4,1.3-1.4c0-0.3,0-0.7,0-1c0-3.3,0-6.7,0-10c0-0.5,0-1-0.1-1.5
	c-0.1-0.5-0.4-0.9-1-1c-0.7-0.1-1.5-0.1-2.2-0.1c-33.7,0-67.4,0-101,0c-0.7,0-1.3,0-2,0.1c-0.8,0.1-1.1,0.4-1.2,1.3
	c-0.1,0.4-0.1,0.8-0.1,1.2c0,3.3,0,6.7,0,10c0,0.4,0,0.8,0.1,1.2c0.1,0.7,0.4,1,1.1,1.1c0.8,0.1,1.6,0.1,2.4,0.1
	C49.3,25,66,25,82.7,25z M82.6,288.3c1.6,0,3.1,0,4.6,0c15.2,0,30.3,0,45.5,0c0.8,0,1.6,0,2.4-0.1c0.8-0.1,1.1-0.4,1.2-1.3
	c0.1-0.6,0-1.1,0-1.7c0-2.9,0-5.7,0-8.6c0-3.4,0.1-3.4-3.3-3.4c-33.6,0-67.2,0-100.8,0c-0.7,0-1.3,0-2,0c-0.9,0.1-1.3,0.4-1.4,1.4
	c0,0.4,0,0.8,0,1.2c0,3.2,0,6.4,0,9.5c0,0.5,0,1,0.1,1.5c0.1,0.8,0.4,1.2,1.2,1.3c0.9,0.1,1.8,0.1,2.7,0.1
	C49.5,288.3,66,288.3,82.6,288.3z M82.7,130.4c16.7,0,33.4,0,50.1,0c0.8,0,1.6,0,2.4-0.1c0.7-0.1,1-0.4,1.1-1.1c0-0.3,0.1-0.7,0.1-1
	c0-3.5,0-7,0-10.5c0-0.4,0-0.8-0.1-1.2c-0.1-0.5-0.4-0.9-0.9-1c-0.8-0.1-1.6-0.1-2.4-0.1c-33.5,0-67,0-100.5,0c-0.5,0-1,0-1.5,0
	c-0.3,0-0.7,0-1,0.1c-0.5,0.1-0.9,0.4-1,1c-0.1,0.7-0.1,1.3-0.1,2c0,2.9,0,5.7,0,8.6c0,3.5,0,3.4,3.4,3.4
	C49.1,130.4,65.9,130.4,82.7,130.4z M82.4,235.7c16.7,0,33.4,0,50.2,0c0.8,0,1.6,0,2.4,0c1-0.1,1.3-0.4,1.3-1.4c0-0.4,0-0.8,0-1.2
	c0-3.2,0-6.4,0-9.6c0-0.5,0-1,0-1.5c-0.1-0.8-0.4-1.2-1.2-1.3c-1-0.1-2-0.1-2.9-0.1c-33,0-66.1,0-99.1,0c-0.7,0-1.5,0-2.2,0
	c-0.3,0-0.7,0-1,0.1c-0.5,0.1-0.9,0.5-0.9,1c-0.1,0.7-0.1,1.3-0.1,2c0,2.9,0,5.7,0,8.6c0,3.5,0,3.4,3.3,3.4
	C49,235.7,65.7,235.7,82.4,235.7z M82.7,77.5c16.6,0,33.1,0,49.7,0c0.8,0,1.6,0,2.4,0c1.2-0.1,1.5-0.4,1.6-1.7c0-0.2,0-0.5,0-0.7
	c0-3.3,0-6.7,0-10c0-0.5,0-1-0.1-1.5c-0.1-0.5-0.4-0.9-1-0.9c-0.7-0.1-1.5-0.1-2.2-0.1c-33.7,0-67.3,0-101,0c-0.6,0-1.1,0-1.7,0
	c-1.1,0.1-1.4,0.4-1.5,1.5c0,0.3,0,0.7,0,1c0,3.3,0,6.5,0,9.8c0,0.5,0,1,0.1,1.5c0.1,0.7,0.5,1.1,1.1,1.1c0.9,0.1,1.8,0.1,2.7,0.1
	C49.5,77.5,66.1,77.5,82.7,77.5z M82.7,167.9c-16.6,0-33.3,0-49.9,0c-0.8,0-1.6,0-2.4,0c-0.9,0.1-1.3,0.4-1.3,1.2
	c0,4.2,0,8.3,0,12.5c0,0.8,0.5,1.1,1.3,1.2c0.7,0.1,1.5,0.1,2.2,0.1c31.3,0,62.7,0,94,0c0.7,0,1.3,0,2,0c1.2-0.1,1.4-0.2,1.6-1.4
	c0.3-1.6,1.2-2.2,2.7-2.4c0.7-0.1,1.5-0.1,2.2-0.1c1.1-0.1,1.5-0.4,1.5-1.5c0.1-2,0-4.1,0-6.1c0-3.5,0.1-3.4-3.3-3.4
	C116.3,167.9,99.5,167.9,82.7,167.9z M82.7,326.5c-16.6,0-33.1,0-49.7,0c-0.9,0-1.8,0-2.7,0.1c-0.9,0.1-1.3,0.5-1.4,1.4
	c-0.1,0.5,0,1,0,1.5c0,2.3,0,4.6,0,6.9c0,3.4,0,3.4,3.4,3.4c33.6,0,67.2,0,100.8,0c0.7,0,1.3,0,2-0.1c0.9-0.1,1.3-0.5,1.4-1.4
	c0-0.3,0-0.7,0-1c0-2.8,0-5.5,0-8.3c0-0.4,0-0.8-0.1-1.2c-0.1-0.6-0.4-1.1-1.1-1.1c-0.9-0.1-1.8-0.1-2.7-0.1
	C116,326.5,99.3,326.5,82.7,326.5z M82.7,356.4c1.4,0,2.8,0,4.2,0c15.2,0,30.3,0,45.5,0c0.8,0,1.6,0,2.4,0c1.1-0.1,1.5-0.4,1.6-1.5
	c0-0.2,0-0.3,0-0.5c0-3,0-6,0-9.1c0-0.3,0-0.7-0.1-1c-0.1-0.5-0.4-0.9-1-1c-0.7-0.1-1.5-0.1-2.2-0.1c-33.7,0-67.4,0-101.1,0
	c-0.7,0-1.3,0-2,0.1c-0.7,0.1-1.1,0.4-1.2,1c-0.1,0.3-0.1,0.7-0.1,1c0,2.9,0,5.9,0,8.8c0,0.3,0,0.7,0.1,1c0.1,0.6,0.5,1.1,1.1,1.1
	c0.9,0.1,1.8,0.1,2.7,0.1C49.4,356.4,66.1,356.4,82.7,356.4z M6.7,179.8c0-57.4,0-114.8,0-172.2c0-0.9,0-1.8,0-2.7
	C6.6,3.6,6.2,3.3,5,3.3c-1,0-1.4,0.3-1.4,1.3c-0.1,1,0,2,0,2.9c0,99.1,0,198.3,0,297.4c0,15.9,0,31.8,0,47.8c0,0.8,0,1.6,0.1,2.4
	c0.1,0.9,0.6,1.2,1.5,1.2c0.9,0,1.5-0.4,1.5-1.2c0.1-1,0.1-2,0.1-2.9C6.7,294.8,6.7,237.3,6.7,179.8z M158.3,179.5
	c0,57.4,0,114.8,0,172.2c0,0.9,0,1.8,0,2.7c0,0.3,0,0.7,0.1,1c0.1,0.6,0.7,1,1.5,1c0.8,0,1.4-0.3,1.5-1c0.1-1,0.1-2,0.1-2.9
	c0-115.1,0-230.3,0-345.5c0-0.7,0-1.3,0-2c-0.1-1.5-0.5-1.9-2-1.8c-0.7,0.1-1.1,0.4-1.1,1.1c-0.1,1-0.1,2-0.1,2.9
	C158.3,64.7,158.3,122.1,158.3,179.5z M82.4,3.3c-22.8,0-45.5,0-68.3,0c-0.8,0-1.6,0-2.4,0c-1,0.1-1.4,0.5-1.4,1.6
	c0,1,0.4,1.5,1.5,1.5c0.8,0.1,1.6,0,2.4,0c45.4,0,90.9,0,136.3,0c0.7,0,1.5,0,2.2,0c0.3,0,0.7-0.1,1-0.1c0.6-0.2,1-0.7,1-1.5
	s-0.4-1.4-1-1.5c-0.9-0.1-1.8-0.1-2.7-0.1C128.1,3.3,105.3,3.3,82.4,3.3z"/>
</svg>
