<?xml version="1.0" encoding="utf-8"?>
<!-- Generator: Adobe Illustrator 25.0.0, SVG Export Plug-In . SVG Version: 6.00 Build 0)  -->
<svg version="1.1" id="Layer_1" xmlns="http://www.w3.org/2000/svg" xmlns:xlink="http://www.w3.org/1999/xlink" x="0px" y="0px"
	 viewBox="0 0 165 360" style="enable-background:new 0 0 165 360;" xml:space="preserve">
<path d="M165,180.1c0,58.2,0,116.5,0,174.7c0,1,0,2,0,2.9c-0.1,1.5-0.7,2.1-2.1,2.2c-0.7,0.1-1.3,0-2,0c-52.2,0-104.4,0-156.5,0
	c-0.8,0-1.6,0-2.4-0.1c-0.9-0.1-1.5-0.7-1.7-1.6c-0.1-0.6-0.2-1.1-0.2-1.7c0-0.9,0-1.8,0-2.7C0,238,0,122,0,6c0-1.2,0-2.5,0.1-3.7
	c0.2-1.4,0.7-2,2.2-2.2C3,0,3.7,0,4.5,0C8.3,0,12.1,0,16,0c47.9,0,95.9,0,143.8,0c1,0,2,0,2.9,0.1c1.5,0.2,2.2,0.8,2.2,2.4
	c0.1,1,0,2,0,2.9C165,63.6,165,121.9,165,180.1z M28.9,175.8c0,14.1,0,28.2,0,42.3c0,33.7,0,67.4,0,101.1c0,4.1-0.2,3.8,3.9,3.8
	c18.5,0,37,0,55.5,0c0.7,0,1.5,0,2.2-0.1c0.9-0.1,1.3-0.5,1.4-1.4c0.1-1.1,0.1-2.1,0.1-3.2c0-95,0-190.1,0-285.1c0-0.6,0-1.1,0-1.7
	c0-0.3,0-0.7,0-1c-0.1-1.6-0.4-1.9-1.9-1.9c-0.5,0-1,0-1.5,0c-18.8,0-37.7,0-56.5,0c-0.6,0-1.1,0-1.7,0c-1.1,0.1-1.4,0.4-1.5,1.5
	c-0.1,0.9,0,1.8,0,2.7C28.9,80.5,28.9,128.2,28.9,175.8z M114.1,175.6c0,47.6,0,95.3,0,142.9c0,0.8,0,1.6,0,2.4c0.1,1.8,0.3,2,2,2
	c0.3,0,0.7,0,1,0c5.5,0,10.9,0,16.4,0c0.5,0,1,0,1.5,0c1-0.1,1.3-0.4,1.4-1.3c0.1-0.8,0-1.6,0-2.4c0-43.7,0-87.4,0-131.2
	c0-0.5,0-1,0-1.5c-0.1-2.1-0.1-2.2-2.2-2.3c-0.8,0-1.6-0.1-2.4-0.2c-1-0.2-1.5-0.9-1.7-1.9c-0.2-1.3,0.6-2.4,2-2.6
	c1.1-0.1,2.1-0.2,3.1-0.5c0.8-0.3,1.1-0.5,1.1-1.4c0.1-0.8,0-1.6,0-2.4c0-47.6,0-95.3,0-142.9c0-0.6,0-1.1,0-1.7c-0.1-1.8-0.3-2-2-2
	c-0.2,0-0.5,0-0.7,0c-5.6,0-11.2,0-16.9,0c-0.4,0-0.8,0-1.2,0c-1,0.1-1.4,0.4-1.4,1.3c-0.1,1,0,2,0,2.9
	C114,80.5,114.1,128.1,114.1,175.6z M10.4,183.7c0,56.3,0,112.6,0,168.9c0,0.9,0,1.8,0,2.7c0.1,1.2,0.4,1.5,1.5,1.5
	c1.3,0.1,2.6,0,3.9,0c2.4,0,4.9,0,7.3,0c2,0,2.2-0.2,2.2-2.3c0-0.9,0-1.8,0-2.7c0-102.5,0-204.9,0-307.4c0-10,0-20.1,0-30.1
	c0-0.8,0-1.6-0.1-2.4c-0.1-0.9-0.5-1.3-1.4-1.4c-0.5-0.1-1,0-1.5-0.1c-3.1,0-6.2,0-9.3,0c-0.2,0-0.5,0-0.7,0c-1.8,0.1-2,0.3-2.1,2
	c0,0.9,0,1.8,0,2.7C10.4,71.3,10.4,127.5,10.4,183.7z M154.6,183.6c0-56,0-112.1,0-168.1c0-0.8,0-1.6,0-2.4c0-0.4,0-0.8-0.1-1.2
	c-0.1-0.8-0.5-1.2-1.2-1.3c-0.4-0.1-0.8-0.1-1.2-0.1c-3.3,0-6.5,0-9.8,0c-0.4,0-0.8,0-1.2,0.1c-0.6,0.1-1.1,0.5-1.1,1.1
	c-0.1,1-0.1,2-0.1,2.9c0,53.5,0,107,0,160.6c0,0.6,0,1.1,0,1.7c0,0.3,0,0.7,0.1,1c0.1,0.8,0.5,1.2,1.2,1.3c1.2,0.1,2.2,0,3-1
	c1.3-1.6,3.1-1.5,4.9-0.8c1.7,0.6,1.5,2.1,1.6,3.5c0,5.7,0,11.4,0,17.1c0,0.7,0,1.3-0.1,1.9c-0.1,0.8-0.6,1.4-1.4,1.6
	c-0.6,0.2-1.3,0.5-1.9,0.4c-2.6-0.1-3.7-1-3.6-3.3c0-0.6,0-1.1,0-1.7c0-3.2,0-6.4,0-9.5c0-0.7,0-1.3-0.1-2c-0.1-0.6-0.4-0.9-1-0.9
	c-0.4-0.1-0.8-0.1-1.2-0.1c-1.1,0.1-1.4,0.4-1.5,1.5c-0.1,1-0.1,2-0.1,2.9c0,54.5,0,109,0,163.5c0,0.7,0,1.3,0,2
	c0,0.4,0,0.8,0.1,1.2c0.1,0.8,0.5,1.2,1.2,1.3c0.4,0.1,0.8,0.1,1.2,0.1c3.3,0,6.5,0,9.8,0c0.4,0,0.8,0,1.2-0.1
	c0.6-0.1,1.1-0.5,1.1-1.1c0.1-1.1,0.1-2.1,0.1-3.2C154.6,296.1,154.6,239.9,154.6,183.6z M95.5,175.9c0,47.7,0,95.5,0,143.2
	c0,1,0,2,0.1,2.9c0,0.5,0.4,0.9,1,1c0.5,0.1,1,0.1,1.5,0.1c2.4,0,4.7,0,7.1,0c1.2,0,2.5,0,3.7,0c1.3-0.1,1.6-0.4,1.7-1.6
	c0.1-1,0-2,0-2.9c0-95.1,0-190.3,0-285.4c0-0.8,0-1.6,0-2.4c0-0.3,0-0.7-0.1-1c-0.1-0.5-0.4-0.9-1-1c-0.3-0.1-0.7-0.1-1-0.1
	c-3.7,0-7.3,0-11,0c-0.2,0-0.3,0-0.5,0c-1,0.1-1.3,0.4-1.4,1.3c-0.1,0.9,0,1.8,0,2.7C95.5,80.4,95.5,128.1,95.5,175.9z M82.7,25.4
	c16.6,0,33.2,0,49.9,0c0.8,0,1.6,0,2.4,0c0.9-0.1,1.2-0.4,1.3-1.4c0-0.3,0-0.7,0-1c0-3.3,0-6.7,0-10c0-0.5,0-1-0.1-1.5
	c-0.1-0.5-0.4-0.9-1-1c-0.7-0.1-1.5-0.1-2.2-0.1c-33.7,0-67.3,0-101,0c-0.6,0-1.1,0-1.7,0c-1.1,0.1-1.4,0.4-1.5,1.6
	c0,0.6,0,1.1,0,1.7c0,2.7,0,5.4,0,8.1c0,3.8-0.1,3.6,3.6,3.6C49.2,25.4,65.9,25.4,82.7,25.4z M82.6,326.3c-16.6,0-33.2,0-49.9,0
	c-0.7,0-1.5,0-2.2,0c-1.3,0.1-1.6,0.4-1.6,1.7c0,3.5,0,7,0,10.5c0,0.2,0,0.3,0.1,0.5c0.1,0.7,0.4,1,1.1,1.1c0.8,0.1,1.6,0.1,2.4,0.1
	c33.4,0,66.8,0,100.2,0c0.7,0,1.3,0,2,0c1.3-0.1,1.6-0.3,1.6-1.7c0-2.9,0-5.9,0-8.8c0-3.4,0.1-3.4-3.3-3.4
	C116.2,326.3,99.4,326.3,82.6,326.3z M82.6,356.8c16.4,0,32.8,0,49.2,0c0.7,0,1.3,0,2,0c2.4,0,2.5-0.1,2.5-2.4c0-2.9,0-5.7,0-8.6
	c0-0.4,0-0.8-0.1-1.2c-0.1-0.7-0.4-1.1-1.1-1.1c-0.9-0.1-1.8-0.1-2.7-0.1c-33.3,0-66.5,0-99.8,0c-0.1,0-0.2,0-0.2,0
	c-3.6,0-3.6-0.1-3.6,3.4c0,2.2,0,4.4,0,6.6c0,3.5,0,3.4,3.4,3.4C49.1,356.8,65.9,356.8,82.6,356.8z M3.5,180.2
	c0,57.4,0,114.9,0,172.3c0,1,0,2,0,2.9c0,0.3,0.1,0.7,0.3,0.9c0.6,0.6,1.4,0.5,2.1,0.3c0.5-0.1,0.8-0.6,0.8-1.1c0.1-1,0.1-2,0.1-2.9
	c0-35.2,0-70.5,0-105.7c0-79.5,0-159.1,0-238.6c0-1,0-2,0-2.9C6.7,4,6.2,3.5,4.9,3.6C4,3.6,3.6,4,3.6,5c-0.1,1,0,2,0,2.9
	C3.5,65.3,3.5,122.8,3.5,180.2z M158.1,180.3c0,57.5,0,115,0,172.6c0,0.9,0,1.8,0.1,2.7c0,0.3,0.1,0.7,0.4,0.9
	c0.6,0.5,1.4,0.4,2.1,0.2c0.5-0.2,0.7-0.7,0.8-1.2c0.1-1.1,0.1-2.1,0.1-3.2c0-114.7,0-229.4,0-344.1c0-0.7,0-1.5,0-2.2
	c0-0.4,0-0.8-0.1-1.2c-0.2-0.9-0.8-1.2-1.9-1.1c-0.8,0.1-1.2,0.4-1.3,1.2c-0.1,1-0.1,2-0.1,2.9C158.1,65.3,158.1,122.8,158.1,180.3z
	 M82.4,3.6c-18.7,0-37.5,0-56.2,0c-4.2,0-8.5,0-12.7,0c-0.7,0-1.3,0-2,0.1c-0.7,0.1-1,0.5-1.1,1.1c0,0.2,0,0.5,0,0.7
	c0.1,0.8,0.4,1.2,1.2,1.3c1,0.1,2,0.1,2.9,0.1c32.4,0,64.9,0,97.3,0c13,0,25.9,0,38.9,0c0.8,0,1.6,0,2.4-0.1c1-0.1,1.4-0.6,1.4-1.7
	c0-0.9-0.4-1.4-1.3-1.5c-0.9-0.1-1.8-0.1-2.7-0.1C127.8,3.6,105.1,3.6,82.4,3.6z"/>
</svg>
