<?xml version="1.0" encoding="utf-8"?>
<!-- Generator: Adobe Illustrator 25.0.0, SVG Export Plug-In . SVG Version: 6.00 Build 0)  -->
<svg version="1.1" id="Layer_1" xmlns="http://www.w3.org/2000/svg" xmlns:xlink="http://www.w3.org/1999/xlink" x="0px" y="0px"
	 viewBox="0 0 165 360" style="enable-background:new 0 0 165 360;" xml:space="preserve">
<path d="M0,179.9C0,121.7,0,63.6,0,5.4c0-1,0-2,0-2.9c0.1-1.6,0.7-2.2,2.2-2.4C2.7,0,3.1,0,3.5,0c0.6,0,1.1,0,1.7,0
	c51.4,0,102.9,0,154.3,0c1,0,2,0,2.9,0.1c1.7,0.2,2.3,0.8,2.5,2.5C165,3.4,165,4.2,165,5c0,5.6,0,11.3,0,16.9
	c0,110.7,0,221.4,0,332.1c0,1.2,0,2.5-0.1,3.7c-0.2,1.7-0.8,2.2-2.5,2.3c-0.7,0-1.3,0-2,0c-52,0-104,0-156.1,0c-0.8,0-1.6,0-2.4-0.1
	c-1.2-0.1-1.7-0.7-1.9-1.9c-0.1-0.4,0-0.8,0-1.2c0-0.8,0-1.6,0-2.4C0,296.2,0,238.1,0,179.9z M114.2,175.8c0,47.4,0,94.8,0,142.2
	c0,0.7,0,1.5,0,2.2c0,2.8,0.1,2.9,2.9,2.9c5.4,0,10.8,0,16.1,0c0.3,0,0.7,0,1,0c1.5-0.1,1.8-0.3,1.8-1.9c0-0.7,0-1.5,0-2.2
	c0-43.5,0-86.9,0-130.4c0-0.7,0-1.5,0-2.2c0-0.3,0-0.7-0.1-1c-0.1-0.5-0.4-0.9-1-0.9c-0.5-0.1-1,0-1.5-0.1c-0.7-0.1-1.5-0.1-2.2-0.3
	c-1.1-0.4-1.7-1.5-1.5-2.5c0.2-1,0.9-1.7,2-1.8c0.4-0.1,0.8,0,1.2-0.1c0.6-0.1,1.3-0.2,1.9-0.4c0.6-0.1,1-0.6,1-1.2
	c0-1,0.1-2,0.1-2.9c0-47.4,0-94.8,0-142.2c0-0.6,0-1.1,0-1.7c0-2.4-0.1-2.5-2.5-2.5c-5.6,0-11.2,0-16.9,0c-0.3,0-0.7,0-1,0
	c-1.1,0.1-1.4,0.4-1.5,1.6c-0.1,0.9,0,1.8,0,2.7C114.2,80.6,114.2,128.2,114.2,175.8z M25.2,183.6c0-56,0-112.1,0-168.1
	c0-0.9,0-1.8,0-2.7c0-0.4,0-0.8-0.1-1.2c-0.1-0.6-0.5-1-1.1-1.1c-0.6-0.1-1.1-0.1-1.7-0.1c-2.4,0-4.9,0-7.3,0c-0.8,0-1.6,0-2.4,0
	c-1.6,0.1-1.9,0.4-2,2.1c0,0.9,0,1.8,0,2.7c0,112.2,0,224.5,0,336.7c0,0.7,0,1.5,0,2.2c0,0.4,0,0.8,0.1,1.2c0.1,0.9,0.5,1.3,1.4,1.3
	c1.5,0.1,2.9,0,4.4,0c2.3,0,4.6,0,6.8,0c1.7,0,1.9-0.3,2-2.1c0-0.9,0-1.8,0-2.7C25.2,295.9,25.2,239.8,25.2,183.6z M154.6,183.5
	c0-56.1,0-112.3,0-168.4c0-0.8,0-1.6,0-2.4c0-0.4,0-0.8-0.1-1.2c-0.1-0.5-0.4-0.9-1-1c-0.5-0.1-1-0.1-1.5-0.1c-3.3,0-6.5,0-9.8,0
	c-0.4,0-0.8,0-1.2,0c-1,0.1-1.3,0.4-1.4,1.4c-0.1,1-0.1,2-0.1,2.9c0,53.4,0,106.7,0,160.1c0,0.8,0,1.6,0,2.4c0,0.3,0.1,0.7,0.1,1
	c0.1,0.3,0.3,0.6,0.6,0.7c1.2,0.2,2.5,0.5,3.4-0.7c0.6-0.9,1.6-1.1,2.5-1.4c2.6-0.6,4.1,0.6,4.2,3.2c0,0.2,0,0.3,0,0.5
	c0,5.8,0,11.6,0,17.4c0,0.6,0,1.1-0.1,1.7c0,0.5-0.2,1-0.6,1.3c-1.5,1-3,1.1-4.6,0.4c-1.5-0.6-1.5-1.8-1.6-3c0-0.6,0-1.1,0-1.7
	c0-3,0-6,0-9.1c0-0.7,0-1.3-0.1-2c-0.1-0.8-0.5-1.2-1.2-1.3c-0.2,0-0.5,0-0.7,0c-1.4,0-1.8,0.3-1.9,1.6c0,0.7,0,1.3,0,2
	c0,55.1,0,110.1,0,165.2c0,0.6,0,1.1,0,1.7c0.1,1.6,0.3,1.9,1.9,1.9c2,0,3.9,0,5.9,0c1.8,0,3.6,0,5.4,0c1.6,0,1.8-0.3,1.8-1.9
	c0-0.8,0-1.6,0-2.4C154.6,296.1,154.6,239.8,154.6,183.5z M110.6,176c0-47.6,0-95.1,0-142.7c0-0.8,0-1.6,0-2.4c0-0.4,0-0.8-0.1-1.2
	c-0.1-0.5-0.4-0.9-1-1c-0.4-0.1-0.8-0.1-1.2-0.1c-3.5,0-7,0-10.5,0c-0.3,0-0.7,0-1,0c-0.8,0.1-1.2,0.5-1.3,1.2
	c-0.1,1.1-0.1,2.1-0.1,3.2c0,93.9,0,187.8,0,281.7c0,1.7,0,3.4,0,5.1c0,0.6,0,1.1,0.1,1.7c0.1,0.9,0.5,1.3,1.4,1.4c0.3,0,0.7,0,1,0
	c3.4,0,6.8,0,10.3,0c0.4,0,0.8,0,1.2-0.1c0.7-0.1,1-0.4,1.1-1.1c0.1-1,0.1-2,0.1-2.9C110.6,271.3,110.6,223.7,110.6,176z
	 M60.3,133.5c9.5,0,18.9,0,28.4,0c3.3,0,3.3,0.1,3.3-3.2c0-11.7,0-23.3,0-35c0-0.6,0-1.1,0-1.7c-0.1-1.1-0.4-1.4-1.5-1.5
	c-0.7-0.1-1.5,0-2.2,0c-18.6,0-37.2,0-55.8,0c-0.6,0-1.1,0-1.7,0c-1.8,0.1-2,0.3-2.1,2c0,0.3,0,0.7,0,1c0,11.8,0,23.7,0,35.5
	c0,2.9,0,2.9,3,2.9C41.3,133.5,50.8,133.5,60.3,133.5z M60.4,259.9c9.5,0,19.1,0,28.6,0c2.9,0,2.9,0,2.9-2.8c0-11.9,0-23.8,0-35.7
	c0-2.8,0-2.8-2.9-2.8c-19.2,0-38.3,0-57.5,0c-2.9,0-2.9,0-2.9,3c0,11.7,0,23.5,0,35.2c0,3,0,3,3.2,3.1
	C41.4,259.9,50.9,259.9,60.4,259.9z M60.4,28.7c-9.4,0-18.7,0-28.1,0c-0.7,0-1.5,0-2.2,0c-1,0.1-1.3,0.4-1.3,1.4c0,0.4,0,0.8,0,1.2
	c0,12,0,24,0,36c0,2.6,0.1,2.7,2.8,2.7c19.2,0,38.5,0,57.7,0c2.8,0,2.8-0.1,2.8-2.9c0-11.8,0-23.6,0-35.5c0-2.9,0-2.9-3-2.9
	C79.4,28.7,69.9,28.7,60.4,28.7z M60.6,281.7c-6.1,0-12.2,0-18.3,0c-3.8,0-7.7,0-11.5,0c-1.8,0-2,0.3-2.1,1.9c0,0.4,0,0.8,0,1.2
	c0,11.7,0,23.3,0,35c0,0.5,0,1,0,1.5c0.1,1.4,0.3,1.6,1.8,1.7c0.6,0,1.1,0,1.7,0c18.8,0,37.5,0,56.2,0c0.5,0,1,0,1.5,0
	c1.8-0.1,2-0.3,2.1-2c0-0.3,0-0.7,0-1c0-11.8,0-23.7,0-35.5c0-2.9,0-2.9-3-2.9C79.5,281.7,70,281.7,60.6,281.7z M60.3,196.7
	c9.3,0,18.6,0,27.9,0c0.7,0,1.5,0,2.2,0c1.2-0.1,1.5-0.4,1.5-1.5c0-0.6,0-1.1,0-1.7c0-11.7,0-23.3,0-35c0-0.6,0-1.1,0-1.7
	c-0.1-1.1-0.4-1.4-1.5-1.5c-0.7-0.1-1.3,0-2,0c-18.8,0-37.5,0-56.3,0c-0.7,0-1.3,0-2,0c-1.1,0.1-1.5,0.4-1.5,1.5c0,0.6,0,1.1,0,1.7
	c0,11.7,0,23.3,0,35c0,3.2,0,3.2,3.3,3.2C41.4,196.7,50.9,196.7,60.3,196.7z M82.6,10.4c-16.7,0-33.4,0-50.1,0c-0.8,0-1.6,0-2.4,0.1
	c-0.9,0.1-1.2,0.4-1.3,1.4c0,0.2,0,0.5,0,0.7c0,3.5,0,7,0,10.5c0,0.4,0,0.8,0.1,1.2c0.1,0.5,0.4,0.9,1,1c0.7,0.1,1.5,0.1,2.2,0.1
	c33.6,0,67.3,0,100.9,0c0.7,0,1.3,0,2-0.1c0.8-0.1,1.1-0.4,1.2-1.3c0.1-0.6,0.1-1.1,0.1-1.7c0-2.8,0-5.5,0-8.3
	c0-3.7,0.1-3.6-3.6-3.6C115.8,10.4,99.2,10.4,82.6,10.4z M82.2,340.1c16.7,0,33.4,0,50.1,0c0.8,0,1.6,0,2.4-0.1
	c0.8-0.1,1.1-0.4,1.2-1.3c0-0.3,0-0.7,0-1c0-3.1,0-6.2,0-9.3c0-0.4,0-0.8-0.1-1.2c-0.1-0.5-0.4-0.9-1-1c-0.8-0.1-1.6-0.1-2.4-0.1
	c-19.4,0-38.8,0-58.2,0c-14.1,0-28.2,0-42.3,0c-0.8,0-1.6,0-2.4,0.1c-0.5,0.1-0.9,0.4-0.9,1c-0.1,0.4-0.1,0.8-0.1,1.2
	c0,3.1,0,6.2,0,9.3c0,0.4,0,0.8,0.1,1.2c0.1,0.5,0.4,0.9,0.9,1c0.8,0.1,1.6,0.1,2.4,0.1C48.8,340.1,65.5,340.1,82.2,340.1z
	 M82.3,343.4c-16.4,0-32.8,0-49.2,0c-0.7,0-1.3,0-2,0c-2.4,0-2.5,0.1-2.6,2.4c0,2.9,0,5.7,0,8.6c0,0.4,0,0.8,0.1,1.2
	c0.1,0.7,0.4,1.1,1.1,1.1c0.8,0.1,1.6,0.1,2.4,0.1c33.4,0,66.8,0,100.3,0c0.7,0,1.3,0,2,0c1.2-0.1,1.6-0.4,1.6-1.7c0-3.3,0-6.7,0-10
	c0-0.2,0-0.3,0-0.5c-0.1-0.7-0.4-1.1-1.1-1.1c-0.8-0.1-1.6-0.1-2.4-0.1C115.8,343.4,99.1,343.4,82.3,343.4z M6.9,180.3
	c0-57.5,0-115,0-172.6c0-1,0-2-0.1-2.9c0-0.3-0.2-0.7-0.4-0.9C5.8,3.5,5,3.5,4.3,3.8C3.8,4,3.6,4.5,3.6,5C3.5,6.3,3.5,7.6,3.5,8.9
	c0,114.4,0,228.8,0,343.2c0,0.8,0,1.6,0,2.4c0,0.4,0,0.8,0.1,1.2c0.1,0.6,0.5,1,1.2,1c0.3,0,0.7,0,1,0c0.6-0.1,0.9-0.4,1-0.9
	c0.1-1,0.1-2,0.1-2.9C6.9,295.3,6.9,237.8,6.9,180.3z M161.5,180.3c0-57.5,0-115,0-172.6c0-1,0-2-0.1-2.9c0-0.3-0.2-0.7-0.4-0.9
	c-0.6-0.5-1.4-0.4-2.1-0.2c-0.5,0.2-0.7,0.7-0.7,1.2c-0.1,1.1-0.1,2.3-0.1,3.4c0,114.6,0,229.1,0,343.6c0,0.8,0,1.6,0,2.4
	c0,0.4,0,0.8,0.1,1.2c0.1,0.6,0.5,1,1.2,1c0.3,0,0.7,0,1,0c0.6-0.1,0.9-0.4,1-0.9c0.1-1,0.1-2,0.1-2.9
	C161.5,295.3,161.5,237.8,161.5,180.3z M60.4,278.4c9.3,0,18.6,0,27.9,0c0.7,0,1.5,0,2.2,0c1.1-0.1,1.5-0.4,1.5-1.5
	c0-4.1,0-8.2,0-12.2c0-1.2-0.4-1.5-1.4-1.5c-0.7,0-1.3,0-2,0c-18.8,0-37.6,0-56.4,0c-0.7,0-1.3,0-2,0c-1.1,0.1-1.5,0.4-1.5,1.5
	c0,4.1,0,8.2,0,12.2c0,1.2,0.3,1.5,1.7,1.6c0.7,0,1.3,0,2,0C41.7,278.4,51.1,278.4,60.4,278.4z M60.3,200c-9.4,0-18.7,0-28.1,0
	c-0.7,0-1.3,0-2,0c-1.2,0.1-1.5,0.4-1.6,1.7c0,0.5,0,1,0,1.5c0,2.9,0,5.9,0,8.8c0,3.5-0.1,3.3,3.4,3.3c18.9,0,37.8,0,56.7,0
	c0.5,0,1,0,1.5,0c1.6-0.1,1.8-0.3,1.8-1.9c0-0.4,0-0.8,0-1.2c0-3,0-6,0-9c0-3.1,0-3.1-3.1-3.1C79.4,200,69.8,200,60.3,200z
	 M60.3,151.8c9.4,0,18.7,0,28.1,0c0.8,0,1.6,0,2.4-0.1c0.7-0.1,1-0.4,1.1-1.1c0-0.3,0.1-0.7,0.1-1c0-3.6,0-7.2,0-10.8
	c0-1.8-0.2-2-2-2c-0.2,0-0.5,0-0.7,0c-19.3,0-38.6,0-57.9,0c-0.6,0-1.1,0-1.7,0.1c-0.5,0.1-0.9,0.4-0.9,1c-0.1,0.6-0.1,1.1-0.1,1.7
	c0,2.7,0,5.4,0,8.1c0,4.4-0.4,4.2,4,4.2C41.9,151.8,51.1,151.8,60.3,151.8z M60.3,73.6c-9.2,0-18.4,0-27.6,0c-0.7,0-1.5,0-2.2,0
	c-1.5,0.1-1.7,0.3-1.8,1.7c0,0.2,0,0.5,0,0.7c0,3.3,0,6.7,0,10c0,0.5,0,1,0.1,1.5c0.1,0.5,0.4,0.9,0.9,1c0.7,0.1,1.5,0.1,2.2,0.1
	c19,0,38,0,56.9,0c0.6,0,1.1,0,1.7,0c1-0.1,1.3-0.4,1.4-1.3c0.1-0.6,0-1.1,0-1.7c0-2.9,0-5.7,0-8.6c0-3.4,0.1-3.4-3.3-3.4
	C79.2,73.6,69.8,73.6,60.3,73.6z M82.3,6.9c22.7,0,45.5,0,68.2,0c0.8,0,1.6,0,2.4,0c1.3-0.1,1.7-0.5,1.6-1.9
	c-0.1-0.8-0.4-1.2-1.2-1.3c-0.9-0.1-1.8-0.1-2.7-0.1c-19.9,0-39.8,0-59.7,0c-25.6,0-51.2,0-76.8,0c-0.9,0-1.8,0-2.7,0.1
	c-0.8,0.1-1.2,0.7-1.2,1.6c0,0.9,0.4,1.5,1.2,1.5c0.9,0.1,1.8,0.1,2.7,0.1C37,6.9,59.7,6.9,82.3,6.9z"/>
</svg>
