<?xml version="1.0" encoding="utf-8"?>
<!-- Generator: Adobe Illustrator 25.0.0, SVG Export Plug-In . SVG Version: 6.00 Build 0)  -->
<svg version="1.1" id="Layer_1" xmlns="http://www.w3.org/2000/svg" xmlns:xlink="http://www.w3.org/1999/xlink" x="0px" y="0px"
	 viewBox="0 0 165 360" style="enable-background:new 0 0 165 360;" xml:space="preserve">
<path d="M0,180C0,121.7,0,63.5,0,5.2c0-1,0-2,0.1-2.9C0.2,1,0.8,0.4,2,0.1C2.4,0.1,2.8,0,3.2,0c0.7,0,1.3,0,2,0
	c51.5,0,103,0,154.5,0c0.9,0,1.8,0,2.7,0.1c1.8,0.2,2.4,0.8,2.5,2.7c0,0.7,0,1.3,0,2c0,116.9,0,233.8,0,350.7c0,0.8,0,1.6-0.1,2.4
	c-0.2,1.4-0.8,2-2.2,2.1c-0.7,0.1-1.3,0-2,0c-52.2,0-104.5,0-156.7,0c-0.7,0-1.3,0-2-0.1c-1.1-0.1-1.8-0.7-2-1.8
	c-0.1-0.5-0.1-1-0.1-1.5c0-0.9,0-1.8,0-2.7C0,296,0,238,0,180z M25.4,183.7c0-56.2,0-112.4,0-168.6c0-0.8,0-1.6,0-2.4
	c0-0.4,0-0.8-0.1-1.2c-0.1-0.5-0.4-0.9-1-1c-0.4-0.1-0.8-0.1-1.2-0.1c-3.4,0-6.8,0-10.3,0c-0.4,0-0.8,0-1.2,0.1
	c-0.6,0.1-1.1,0.4-1.1,1.1c-0.1,0.8-0.1,1.6-0.1,2.4c0,113.1,0,226.1,0,339.2c0,0.7,0,1.3,0,2c0.1,1.2,0.4,1.6,1.7,1.6
	c3.1,0,6.2,0,9.3,0c0.9,0,1.8,0,2.7,0c0.9-0.1,1.2-0.4,1.3-1.2c0.1-1,0.1-2,0.1-2.9C25.4,296.3,25.4,240,25.4,183.7z M154.6,183.8
	c0-56.1,0-112.2,0-168.4c0-0.9,0-1.8,0-2.7c0-0.4,0-0.8-0.1-1.2c-0.1-0.5-0.4-0.9-1-1c-0.5-0.1-1-0.1-1.5-0.1c-3.3,0-6.7,0-10,0
	c-0.4,0-0.8,0-1.2,0.1c-0.7,0.1-1.1,0.4-1.1,1.1c-0.1,1-0.1,2-0.1,2.9c0,53.5,0,107,0,160.5c0,0.4,0,0.8,0,1.2c0,2.8,0.2,3,3.1,2.8
	c0.4,0,0.8-0.2,1.1-0.5c0.3-0.3,0.5-0.7,0.8-0.9c1.4-1,2.8-1.1,4.4-0.5c1.4,0.6,1.6,1.7,1.7,3c0,0.3,0,0.7,0,1c0,5.5,0,10.9,0,16.4
	c0,0.8-0.1,1.6-0.3,2.4c-0.1,0.5-0.4,0.9-0.8,1.2c-0.8,0.4-1.7,0.8-2.6,0.7c-2.6-0.3-3.2-1.1-3.2-3.2c0-0.6,0-1.1,0-1.7
	c0-3.1,0-6.2,0-9.3c0-0.7,0-1.3-0.1-2c-0.1-0.9-0.5-1.3-1.4-1.3c-0.5,0-1,0-1.5,0c-0.8,0.1-1.2,0.4-1.3,1.2
	c-0.1,0.8-0.1,1.6-0.1,2.4c0,55.1,0,110.1,0,165.2c0,0.7,0,1.3,0,2c0.1,1.3,0.4,1.6,1.6,1.6c3.3,0,6.5,0,9.8,0c0.7,0,1.3,0,2,0
	c1.2-0.1,1.5-0.3,1.5-1.4c0.1-1,0-2,0-2.9C154.6,296.2,154.6,240,154.6,183.8z M95.6,175.6c0,47.8,0,95.6,0,143.4c0,0.9,0,1.8,0,2.7
	c0.1,0.9,0.4,1.2,1.4,1.3c0.3,0,0.7,0,1,0c3.3,0,6.7,0,10,0c0.5,0,1,0,1.5-0.1c0.5-0.1,0.9-0.4,1-1c0.1-0.8,0.1-1.6,0.1-2.4
	c0-95.8,0-191.6,0-287.3c0-0.7,0-1.3,0-2c-0.1-1.2-0.4-1.5-1.7-1.6c-0.1,0-0.2,0-0.2,0c-3.7,0-7.3,0-11,0c-0.3,0-0.7,0-1,0.1
	c-0.5,0.1-0.9,0.4-0.9,1c-0.1,1-0.1,2-0.1,2.9C95.6,80.3,95.6,127.9,95.6,175.6z M60.5,259.8c9.1,0,18.3,0,27.4,0c0.7,0,1.3,0,2,0
	c2-0.1,2.2-0.3,2.2-2.3c0-0.4,0-0.8,0-1.2c0-11.4,0-22.8,0-34.2c0-0.7,0-1.3-0.1-2c-0.1-1.1-0.5-1.5-1.5-1.5c-0.6-0.1-1.1,0-1.7,0
	c-18.9,0-37.8,0-56.7,0c-3.2,0-3.2,0-3.2,3.3c0,11.6,0,23.2,0,34.7c0,0.6,0,1.1,0,1.7c0.1,1.1,0.5,1.5,1.5,1.5c0.7,0.1,1.5,0,2.2,0
	C42,259.9,51.3,259.8,60.5,259.8z M60.5,28.6c-9.3,0-18.6,0-27.9,0c-0.7,0-1.5,0-2.2,0c-1,0.1-1.4,0.5-1.5,1.6c-0.1,0.6,0,1.1,0,1.7
	c0,11.6,0,23.2,0,34.7c0,0.5,0,1,0,1.5c0.1,1.4,0.4,1.7,1.8,1.8c0.5,0,1,0,1.5,0c18.9,0,37.8,0,56.7,0c0.4,0,0.8,0,1.2,0
	c1.6-0.1,1.9-0.4,2-2.1c0-0.5,0-1,0-1.5c0-11.4,0-22.8,0-34.2c0-0.7,0-1.3,0-2c-0.1-1.1-0.5-1.5-1.5-1.6c-0.7-0.1-1.5,0-2.2,0
	C79.1,28.6,69.8,28.6,60.5,28.6z M60.5,281.7c-9.2,0-18.4,0-27.6,0c-0.7,0-1.3,0-2,0c-1.6,0.1-1.9,0.4-2,1.8c0,0.6,0,1.1,0,1.7
	c0,11.4,0,22.8,0,34.2c0,0.6,0,1.1,0,1.7c0.1,1.4,0.4,1.7,1.8,1.8c0.5,0,1,0,1.5,0c18.9,0,37.8,0,56.7,0c0.5,0,1,0,1.5,0
	c1.3-0.1,1.7-0.4,1.8-1.8c0-0.6,0-1.1,0-1.7c0-11.4,0-22.8,0-34.2c0-0.6,0-1.1,0-1.7c-0.1-1.4-0.4-1.7-1.8-1.8c-0.7,0-1.5,0-2.2,0
	C78.9,281.7,69.7,281.7,60.5,281.7z M60.3,133.5c9.4,0,18.7,0,28.1,0c0.7,0,1.3,0,2,0c1.3-0.1,1.7-0.4,1.8-1.8c0-0.6,0-1.1,0-1.7
	c0-11.4,0-22.8,0-34.3c0-0.5,0-1,0-1.5c-0.1-1.7-0.4-2-2-2.1c-0.4,0-0.8,0-1.2,0c-18.9,0-37.8,0-56.7,0c-0.4,0-0.8,0-1.2,0
	c-1.6,0.1-1.9,0.4-2,2.1c0,0.5,0,1,0,1.5c0,11.4,0,22.8,0,34.3c0,0.6,0,1.1,0,1.7c0.1,1.4,0.4,1.7,1.8,1.8c0.7,0,1.3,0,2,0
	C41.9,133.5,51.1,133.5,60.3,133.5z M60.8,155.3c-9.5,0-19.1,0-28.6,0c-3.2,0-3.2,0.1-3.2,3.3c0,4,0,8,0,12c0,7.8,0,15.7,0,23.5
	c0,2.4,0.2,2.5,2.5,2.6c0.2,0,0.5,0,0.7,0c18.9,0,37.8,0,56.7,0c3.2,0,3.2,0,3.2-3.3c0-11.6,0-23.2,0-34.7c0-3.3,0-3.3-3.5-3.3
	C79.4,155.3,70.1,155.3,60.8,155.3z M82.5,25.4c16.6,0,33.2,0,49.9,0c0.8,0,1.6,0,2.4-0.1c0.7,0,1.1-0.4,1.1-1.1
	c0.1-0.5,0.1-1,0.1-1.5c0-3.3,0-6.5,0-9.8c0-0.1,0-0.2,0-0.2c-0.1-2-0.3-2.3-2.2-2.3c-0.7,0-1.5,0-2.2,0c-24.8,0-49.7,0-74.5,0
	c-8.1,0-16.3,0-24.4,0c-0.8,0-1.6,0-2.4,0.1c-0.6,0.1-1.1,0.4-1.1,1.1c-0.1,0.6-0.1,1.3-0.1,2c0,2.9,0,5.9,0,8.8c0,0.4,0,0.8,0,1.2
	c0.1,1.4,0.4,1.7,1.8,1.8c0.8,0,1.6,0,2.4,0C49.6,25.4,66.1,25.4,82.5,25.4z M82.4,340.1c16.5,0,33.1,0,49.6,0c0.7,0,1.5,0,2.2,0
	c1.5-0.1,1.8-0.3,1.9-1.9c0-0.3,0-0.7,0-1c0-2.7,0-5.4,0-8.1c0-2.8-0.1-2.8-2.9-2.8c-33.7,0-67.5,0-101.2,0c-0.6,0-1.1,0-1.7,0.1
	c-0.8,0.1-1.1,0.5-1.2,1.3c0,0.3-0.1,0.7-0.1,1c0,3.1,0,6.2,0,9.3c0,0.4,0,0.8,0.1,1.2c0.1,0.5,0.5,0.9,1,0.9
	c0.8,0.1,1.6,0.1,2.4,0.1C49.1,340.1,65.8,340.1,82.4,340.1z M82.4,356.8c16.7,0,33.4,0,50.1,0c0.8,0,1.6,0,2.4-0.1
	c0.5,0,0.9-0.4,1-0.9c0.1-0.6,0.1-1.3,0.1-2c0-2.4,0-4.7,0-7.1c0-3.3,0-3.3-3.4-3.3c-33.4,0-66.8,0-100.3,0c-0.7,0-1.3,0-2,0
	c-0.9,0.1-1.3,0.4-1.4,1.4c0,0.3-0.1,0.7-0.1,1c0,2.9,0,5.9,0,8.8c0,0.4,0,0.8,0.1,1.2c0.1,0.5,0.5,0.9,1,0.9
	c0.8,0.1,1.6,0.1,2.4,0.1C49.1,356.8,65.8,356.8,82.4,356.8z M3.6,180c0,48.3,0,96.6,0,144.9c0,9.4,0,18.8,0,28.1c0,0.7,0,1.5,0,2.2
	c0.1,1.2,0.5,1.6,1.7,1.5c1.1,0,1.5-0.3,1.5-1.5c0.1-1,0-2,0-2.9c0-114.7,0-229.4,0-344.1c0-0.7,0-1.5,0-2.2c0-0.4,0-0.8-0.1-1.2
	C6.7,3.9,6.2,3.6,5.3,3.6c-1,0-1.5,0.3-1.6,1.1C3.6,5.8,3.6,6.8,3.6,7.9C3.6,65.3,3.6,122.6,3.6,180z M161.4,180.3
	c0-9.3,0-18.6,0-27.9c0-48.3,0-96.6,0-144.9c0-0.9,0-1.8-0.1-2.7c-0.1-0.9-0.5-1.2-1.5-1.2c-1,0-1.5,0.3-1.6,1.1
	c-0.1,1.1-0.1,2.3-0.1,3.4c0,114.7,0,229.4,0,344.1c0,0.7,0,1.5,0,2.2c0,0.4,0,0.8,0.1,1.2c0.1,0.7,0.5,1,1.2,1c0.2,0,0.5,0,0.7,0
	c0.8-0.1,1.2-0.4,1.2-1.2c0.1-1,0.1-2,0.1-2.9C161.4,295.1,161.4,237.7,161.4,180.3z M60.3,215.3c9.3,0,18.6,0,27.9,0
	c0.7,0,1.3,0,2,0c1.6-0.1,1.9-0.4,2-2.1c0-0.3,0-0.7,0-1c0-3.1,0-6.2,0-9.3c0-2.8-0.1-2.9-2.9-2.9c-19.2,0-38.3,0-57.5,0
	c-0.5,0-1,0-1.5,0c-0.8,0.1-1.2,0.4-1.3,1.2c-0.1,0.3-0.1,0.7-0.1,1c0,3.6,0,7.2,0,10.8c0,2,0.3,2.3,2.2,2.3c0.6,0,1.1,0,1.7,0
	C42,215.3,51.1,215.3,60.3,215.3z M60.6,263.1c-9.3,0-18.6,0-27.9,0c-0.7,0-1.3,0-2,0c-1.4,0.1-1.8,0.4-1.8,1.7
	c-0.1,3.9-0.1,7.8,0,11.7c0,1.4,0.4,1.7,1.7,1.8c0.6,0,1.1,0,1.7,0c18.8,0,37.5,0,56.3,0c0.7,0,1.3,0,2,0c0.9-0.1,1.3-0.4,1.4-1.4
	c0.1-0.7,0.1-1.3,0.1-2c0-2.9,0-5.7,0-8.6c0-3.4,0-3.4-3.4-3.4C79.4,263.1,70,263.1,60.6,263.1z M60.5,136.8c-9.3,0-18.6,0-27.9,0
	c-0.7,0-1.5,0-2.2,0c-1,0.1-1.3,0.4-1.4,1.3c-0.1,0.6-0.1,1.1-0.1,1.7c0,2.9,0,5.9,0,8.8c0,0.5,0,1,0.1,1.5c0.1,1.1,0.5,1.5,1.5,1.6
	c0.6,0.1,1.1,0.1,1.7,0.1c18.9,0,37.8,0,56.7,0c0.7,0,1.3,0,2-0.1c0.6-0.1,1.1-0.5,1.1-1.1c0.1-0.6,0.1-1.3,0.1-2c0-2.9,0-5.9,0-8.8
	c0-0.5,0-1,0-1.5c-0.1-1.1-0.5-1.5-1.5-1.5c-0.7-0.1-1.5,0-2.2,0C79.1,136.8,69.8,136.8,60.5,136.8z M60.5,88.6c9.3,0,18.6,0,27.9,0
	c0.8,0,1.6,0,2.4-0.1c0.8-0.1,1.2-0.5,1.3-1.3c0.1-0.6,0.1-1.1,0.1-1.7c0-2.9,0-5.9,0-8.8c0-3.1-0.1-3.2-3.2-3.2
	c-18.9,0-37.8,0-56.7,0c-0.7,0-1.3,0-2,0.1c-0.8,0.1-1.2,0.5-1.3,1.3c-0.1,0.6-0.1,1.3-0.1,2c0,2.8,0,5.5,0,8.3c0,3.4,0,3.4,3.4,3.4
	C41.7,88.6,51.1,88.6,60.5,88.6z M114.2,49.2c0,5.9,0,11.9,0,17.8c0,2.8,0.1,2.9,2.8,2.9c5.4,0,10.7,0,16.1,0c2.8,0,2.9-0.1,2.9-2.9
	c0-11.9,0-23.8,0-35.7c0-2.7-0.1-2.8-2.7-2.8c-5.5,0-10.9,0-16.4,0c-2.7,0-2.7,0.1-2.8,2.7c0,0.5,0,1,0,1.5
	C114.2,38.3,114.2,43.8,114.2,49.2z M114.2,239c0,6.1,0,12.2,0,18.3c0,2.4,0.1,2.5,2.5,2.5c5.6,0,11.2,0,16.8,0c0.4,0,0.8,0,1.2-0.1
	c0.8-0.1,1.2-0.4,1.2-1.3c0.1-0.7,0.1-1.3,0.1-2c0-11.6,0-23.1,0-34.7c0-0.7,0-1.3-0.1-2c-0.1-0.9-0.4-1.3-1.4-1.4c-0.5,0-1,0-1.5,0
	c-5.4,0-10.7,0-16.1,0c-2.8,0-2.8,0-2.8,2.9C114.2,227.3,114.2,233.2,114.2,239z M114.2,112.7L114.2,112.7c0,6.2,0,12.4,0,18.6
	c0,2.1,0.2,2.2,2.3,2.2c5.6,0,11.2,0,16.9,0c2.6,0,2.7-0.1,2.7-2.8c0-11.9,0-23.8,0-35.7c0-2.8-0.1-2.9-2.9-2.9
	c-5.4,0-10.7,0-16.1,0c-2.8,0-2.8,0.1-2.8,2.9C114.2,101,114.2,106.8,114.2,112.7z M114.2,302.1c0,5.8,0,11.6,0,17.4
	c0,0.7,0,1.5,0,2.2c0.1,0.9,0.4,1.3,1.4,1.3c0.6,0,1.1,0,1.7,0c3,0,6,0,9,0c2.4,0,4.7,0,7.1,0c2.4,0,2.6-0.2,2.6-2.7
	c0-12,0-24,0-35.9c0-2.6-0.1-2.7-2.8-2.7c-5.4,0-10.7,0-16.1,0c-2.9,0-2.9,0-2.9,3.1C114.2,290.5,114.2,296.3,114.2,302.1z
	 M114.2,175.8c0,5.8,0,11.6,0,17.4c0,0.7,0,1.3,0,2c0.1,1.2,0.4,1.5,1.4,1.6c6.3,0,12.6,0,18.8,0c1.1,0,1.5-0.4,1.5-1.5
	c0-3.2,0-6.4,0-9.5c0-1-0.4-1.3-1.4-1.4c-0.7-0.1-1.3,0-2-0.1c-0.5-0.1-1-0.2-1.4-0.4c-1-0.4-1.5-1.5-1.4-2.4c0.2-1,1-1.7,2-1.9
	c0.6-0.1,1.2,0,1.7-0.1c2.3-0.4,2.5-0.7,2.5-2.8c0-6.2,0-12.4,0-18.6c0-2.6-0.2-2.7-2.8-2.7c-5.4,0-10.8,0-16.1,0
	c-2.8,0-2.9,0.1-2.9,2.9C114.2,164.1,114.2,169.9,114.2,175.8z M82.5,3.6c-22.7,0-45.5,0-68.2,0c-0.9,0-1.8,0-2.7,0.1
	c-0.8,0.1-1.2,0.6-1.2,1.6c0,1,0.4,1.5,1.2,1.6c0.8,0.1,1.6,0.1,2.4,0.1c45.6,0,91.3,0,136.9,0c0.7,0,1.3,0,2,0
	c1.3-0.1,1.7-0.5,1.6-1.9c-0.1-0.9-0.4-1.3-1.4-1.3c-0.9-0.1-1.8,0-2.7,0C127.8,3.6,105.2,3.6,82.5,3.6z M125,215.3
	c2.3,0,4.6,0,6.8,0c0.7,0,1.5,0,2.2,0c1.6-0.1,1.9-0.3,2-1.8c0-0.3,0-0.7,0-1c0-3.3,0-6.5,0-9.8c0-2.6-0.1-2.7-2.8-2.7
	c-5.5,0-10.9,0-16.4,0c-0.3,0-0.7,0-1,0c-1.4,0.1-1.6,0.4-1.7,1.8c0,0.2,0,0.3,0,0.5c0,3.6,0,7.2,0,10.8c0,0.4,0,0.8,0.1,1.2
	c0.1,0.5,0.4,0.9,1,0.9c0.5,0.1,1,0.1,1.5,0.1C119.5,215.3,122.3,215.3,125,215.3z M125.1,278.4c2.9,0,5.7,0,8.6,0
	c2.2,0,2.3-0.2,2.4-2.4c0-0.2,0-0.5,0-0.7c0-3,0-6,0-9.1c0-0.6,0-1.1-0.1-1.7c-0.1-0.9-0.4-1.3-1.4-1.4c-0.7-0.1-1.3,0-2,0
	c-5.1,0-10.1,0-15.2,0c-0.5,0-1,0-1.5,0c-1.5,0.1-1.8,0.3-1.8,1.9c0,0.2,0,0.5,0,0.7c0,3.3,0,6.7,0,10c0,0.6,0,1.1,0.1,1.7
	c0.1,0.4,0.4,0.7,0.8,0.8c0.6,0.1,1.1,0.1,1.7,0.1C119.6,278.4,122.4,278.4,125.1,278.4z M125,136.8L125,136.8c-2.9,0-5.7,0-8.6,0
	c-2.1,0-2.3,0.2-2.3,2.2c0,3.3,0,6.7,0,10c0,2.6,0.1,2.7,2.8,2.7c5.4,0,10.7,0,16.1,0c0.7,0,1.3,0,1.9-0.1c0.4-0.1,0.7-0.4,0.8-0.8
	c0.1-0.3,0.1-0.6,0.1-1c0-3.7,0-7.5,0-11.2c0-1.5-0.4-1.8-2-1.8c-0.4,0-0.8,0-1.2,0C130.2,136.8,127.6,136.8,125,136.8z M125.3,73.6
	C125.3,73.6,125.3,73.6,125.3,73.6c-2.9,0-5.9,0-8.8,0c-2,0-2.3,0.2-2.3,2.3c0,3.3,0,6.7,0,10c0,2.6,0.1,2.7,2.8,2.7
	c5.4,0,10.8,0,16.1,0c0.4,0,0.8,0,1.2,0c1.2-0.1,1.6-0.4,1.7-1.6c0-0.4,0-0.8,0-1.2c0-3.1,0-6.2,0-9.3c0-2.7-0.1-2.8-3-2.9
	c-0.4,0-0.8,0-1.2,0C129.7,73.6,127.5,73.6,125.3,73.6z"/>
</svg>
