<?xml version="1.0" encoding="utf-8"?>
<!-- Generator: Adobe Illustrator 25.0.0, SVG Export Plug-In . SVG Version: 6.00 Build 0)  -->
<svg version="1.1" id="Layer_1" xmlns="http://www.w3.org/2000/svg" xmlns:xlink="http://www.w3.org/1999/xlink" x="0px" y="0px"
	 viewBox="0 0 165 360" style="enable-background:new 0 0 165 360;" xml:space="preserve">
<path d="M165,180c0,58.3,0,116.6,0,175c0,0.9,0,1.8,0,2.7c-0.1,1.8-0.6,2.3-2.4,2.4c-0.7,0-1.3,0-2,0c-52.1,0-104.2,0-156.3,0
	c-0.8,0-1.6,0-2.4-0.1c-1.1-0.1-1.6-0.7-1.8-1.7C0,357.8,0,357.4,0,357c0-0.7,0-1.5,0-2.2C0,238.4,0,122,0,5.6c0-1.1,0-2.1,0-3.2
	c0.1-1.4,0.7-2.1,2.1-2.3C2.5,0,2.9,0,3.3,0C3.9,0,4.5,0,5,0c51.7,0,103.4,0,155.1,0c0.8,0,1.6,0,2.5,0.1c1.7,0.2,2.3,0.8,2.4,2.5
	c0.1,1,0,2,0,2.9C165,63.6,165,121.8,165,180z M28.9,57.9c-0.3,2.5-0.4,227-0.2,235.1c0,0.3-0.1,0.7,0.3,0.9
	c0.5,0.1,0.7-0.4,0.9-0.6c3.5-3.9,7-7.8,10.5-11.7c5.1-5.7,10.3-11.4,15.4-17.1c6.6-7.3,13.1-14.6,19.6-21.9
	c5.2-5.8,10.4-11.5,15.6-17.2c6.6-7.3,13.1-14.6,19.6-21.9c6-6.6,11.9-13.2,17.9-19.8c0.7-0.7,1.3-1.5,1.5-2.5
	c0.2-0.8,0.7-1.5,1.6-1.7c0.9-0.3,1.5-0.9,2.1-1.6c2.1-2.3,2.2-1.9,0.1-4.3c-5-5.6-10.1-11.2-15.1-16.7c-3.4-3.8-6.9-7.6-10.3-11.4
	c-6.6-7.3-13.2-14.7-19.8-22c-5.1-5.6-10.2-11.3-15.3-16.9c-7.2-8-14.4-16-21.6-24c-3.7-4.1-7.3-8.1-11-12.2
	c-3.3-3.6-6.6-7.3-9.8-10.9C30.4,59,30,58.3,28.9,57.9z M30.9,28.7c0.7,0.8,1,1.2,1.3,1.5c2.2,2.4,4.4,4.8,6.6,7.2
	c6.3,6.9,12.5,13.7,18.8,20.6c4,4.4,8.1,8.8,12.1,13.2c6.5,7.1,13,14.2,19.5,21.3c4,4.3,7.9,8.7,11.9,13c6,6.6,12,13.1,18,19.7
	c4.2,4.6,8.5,9.3,12.7,13.9c0.8,0.8,1.5,1.7,2.3,2.6c0.4,0.4,0.8,0.8,1.2,1.2c0.2,0.2,0.4,0.3,0.6,0.3c0.3,0,0.3-0.3,0.3-0.6
	c0-0.6,0-1.1,0-1.7c0-36.4,0-72.8,0-109.1c0-0.2,0-0.5,0-0.7c-0.1-2.3-0.2-2.4-2.3-2.4c-0.6,0-1.1,0-1.7,0c-17.1,0-34.1,0-51.2,0
	c-15.7,0-31.4,0-47,0C33.1,28.6,32.3,28.7,30.9,28.7z M136.3,265.5c0-17.9,0-35.9,0-53.8c0-0.8,0-1.6-0.1-2.4c0-0.1-0.1-0.3-0.2-0.4
	c-0.2-0.2-0.5-0.1-0.7,0.1c-1.4,1.5-2.8,3-4.2,4.5c-8.8,9.6-17.6,19.2-26.4,28.9c-6.9,7.6-13.9,15.2-20.8,22.7
	c-6.9,7.5-13.8,15.1-20.6,22.6c-7.9,8.7-15.9,17.3-23.8,26c-2.1,2.3-4.2,4.5-6.3,6.9c-0.6,0.7-1.4,1.2-1.5,2.1
	c0.8,0.7,1.7,0.4,2.5,0.4c32.8,0,65.6,0,98.5,0c3.7,0,3.6,0.1,3.6-3.7C136.3,301.4,136.3,283.5,136.3,265.5z M10.4,183.4
	c0,56.1,0,112.2,0,168.4c0,0.8,0,1.6,0,2.4c0.1,2.4,0.2,2.5,2.5,2.6c2.7,0,5.4,0,8.1,0c0.9,0,1.8,0,2.7,0c1-0.1,1.4-0.4,1.4-1.3
	c0.1-1,0.1-2,0.1-2.9c0-112.6,0-225.1,0-337.7c0-0.7,0-1.3,0-2c0-0.3,0-0.7-0.1-1c-0.1-0.9-0.5-1.3-1.5-1.3c-0.6-0.1-1.1,0-1.7,0
	c-2.8,0-5.6,0-8.3,0c-0.6,0-1.2,0-1.7,0.1c-0.9,0.1-1.4,0.5-1.4,1.4c-0.1,1.1-0.1,2.1-0.1,3.2C10.4,71.1,10.4,127.3,10.4,183.4z
	 M154.9,183.5c0-56.1,0-112.2,0-168.4c0-0.8,0-1.6,0-2.4c0-0.4,0-0.8-0.1-1.2c-0.1-0.5-0.4-0.9-1-1c-0.5-0.1-1-0.1-1.5-0.1
	c-3.3,0-6.5,0-9.8,0c-0.4,0-0.8,0-1.2,0c-1,0.1-1.4,0.4-1.4,1.4c-0.1,1-0.1,2-0.1,2.9c0,43.8,0,87.6,0,131.4c0,9.8,0,19.6,0,29.4
	c0,0.8,0,1.6,0.1,2.4c0,0.3,0.2,0.6,0.5,0.8c0.7,0.6,3.1,0.4,3.6-0.4c0.7-1,1.6-1.4,2.6-1.6c2.4-0.5,4,0.8,4,3.2c0,0.2,0,0.3,0,0.5
	c0,5.9,0,11.7,0,17.6c0,0.5,0,1-0.1,1.5c-0.1,0.9-0.6,1.5-1.4,1.8c-0.5,0.2-0.9,0.3-1.4,0.4c-2.2,0.3-3.6-0.9-3.7-3.1
	c0-0.6,0-1.1,0-1.7c0-3.2,0-6.4,0-9.5c0-0.7,0-1.3-0.1-2c-0.1-0.7-0.4-1-1.1-1.1c-0.5-0.1-1-0.1-1.5,0c-1.1,0-1.5,0.4-1.6,1.4
	c-0.1,0.7,0,1.5,0,2.2c0,55.1,0,110.1,0,165.2c0,0.7,0,1.3,0,2c0.1,1.3,0.4,1.6,1.6,1.6c0.5,0,1,0,1.5,0c2.9,0,5.9,0,8.8,0
	c3,0,3,0,3.1-3.2c0-0.7,0-1.3,0-2C154.9,295.6,154.9,239.5,154.9,183.5z M29.1,319.8c0.7-0.7,1.3-1.2,1.8-1.8
	c6.5-7.1,13-14.2,19.5-21.3c6.8-7.4,13.5-14.8,20.3-22.2c7-7.7,14.1-15.4,21.2-23.1c6.9-7.6,13.9-15.2,20.8-22.8
	c7.4-8.1,14.7-16.1,22.2-24.2c1-1.1,1.5-2.2,1.5-3.7c-0.1-4.6,0-9.1,0-13.7c0-0.6,0-1.1-0.1-1.7c-0.1-0.6-0.4-0.9-1-1
	c-1.5-0.2-2.6,0-3.7,1.3c-7.6,8.6-15.3,17.1-23,25.7c-7.3,8.1-14.6,16.2-22,24.4c-8.8,9.8-17.7,19.6-26.5,29.4
	c-8.1,9-16.3,18-24.4,27.1c-1.8,2-3.6,4-5.4,6c-1.1,1.2-1.5,2.4-1.5,4c0.1,5.2,0,10.4,0,15.7C28.7,318.3,28.6,318.9,29.1,319.8z
	 M28.9,32.3c-0.1,0.2-0.2,0.4-0.2,0.5c0,5.9,0,11.9,0,17.9c0,1.1,0.4,1.9,1.1,2.6c4.7,5.2,9.4,10.4,14.1,15.6
	c3.6,3.9,7.1,7.9,10.7,11.8c5.2,5.8,10.4,11.5,15.5,17.3c5.1,5.6,10.2,11.3,15.3,16.9c5.1,5.6,10.1,11.3,15.2,16.9
	c5.2,5.8,10.4,11.5,15.6,17.2c6.3,7,12.6,14.1,19,21.1c0.3,0.3,0.5,0.7,1,0.4c0-0.2,0.1-0.5,0.1-0.7c0-6.4,0-12.7,0-19.1
	c0-1.1-0.4-2-1.2-2.8c-3.5-3.8-6.9-7.6-10.4-11.4c-3.9-4.3-7.8-8.5-11.7-12.8c-6.2-6.8-12.4-13.6-18.7-20.4
	c-4.2-4.6-8.5-9.3-12.7-13.9C75,82.3,68.5,75.1,61.9,67.9c-3.7-4.1-7.5-8.2-11.2-12.3c-6.4-7-12.8-14-19.2-21
	C30.8,33.9,29.9,33.1,28.9,32.3z M82.4,25.4c16.6,0,33.1,0,49.7,0c0.7,0,1.5,0,2.2,0c1.7-0.1,1.9-0.3,2-2.1c0-0.5,0-1,0-1.5
	c0-2.6,0-5.2,0-7.8c0-3.7,0.1-3.6-3.6-3.6c-33.5,0-66.9,0-100.4,0c-0.5,0-1,0-1.5,0c-1.8,0.1-2,0.3-2.1,2c0,0.2,0,0.3,0,0.5
	c0,3.3,0,6.7,0,10c0,0.5,0,1,0.1,1.5c0.1,0.5,0.4,0.9,1,0.9c0.8,0.1,1.6,0.1,2.4,0.1C49,25.4,65.7,25.4,82.4,25.4z M82.8,326.3
	c-10.4,0-20.7,0-31.1,0c-6.6,0-13.2,0-19.8,0c-0.7,0-1.5,0-2.2,0.1c-0.4,0.1-0.8,0.4-0.8,0.8c-0.1,0.6-0.1,1.1-0.1,1.7
	c0,2.8,0,5.5,0,8.3c0,2.9,0,2.9,2.8,2.9c34,0,67.9,0,101.9,0c0.6,0,1.1,0,1.7-0.1c0.7-0.1,1-0.4,1.1-1.1c0.1-0.6,0.1-1.1,0.1-1.7
	c0-2.5,0-5.1,0-7.6c0-3.4,0.1-3.4-3.3-3.4C116.2,326.3,99.5,326.3,82.8,326.3z M82.5,343.4c-16.4,0-32.8,0-49.2,0c-0.7,0-1.3,0-2,0
	c-2.4,0-2.5,0.1-2.6,2.4c0,2.9,0,5.7,0,8.6c0,0.4,0,0.8,0.1,1.2c0.1,0.7,0.4,1.1,1.1,1.1c0.8,0.1,1.6,0.1,2.5,0.1
	c33.5,0,67,0,100.4,0c0.7,0,1.3,0,2,0c1.2-0.1,1.6-0.4,1.6-1.7c0-3.3,0-6.7,0-10c0-0.2,0-0.3,0-0.5c-0.1-0.7-0.4-1.1-1.1-1.1
	c-0.8-0.1-1.6-0.1-2.4-0.1C116,343.4,99.2,343.4,82.5,343.4z M6.9,180.5c0-57.6,0-115.2,0-172.8c0-0.9,0-1.8,0-2.7
	C6.8,4,6.4,3.7,5.5,3.6C4.3,3.6,3.7,3.9,3.6,4.8S3.5,6.6,3.5,7.5c0,115.1,0,230.2,0,345.3c0,0.7,0,1.5,0,2.2
	c0.1,1.4,0.5,1.7,1.8,1.7c1,0,1.4-0.3,1.4-1.3c0.1-0.9,0-1.8,0-2.7C6.9,295.3,6.9,237.9,6.9,180.5z M158.4,180.2
	c0,57.3,0,114.5,0,171.8c0,0.8,0,1.6,0,2.4c0,0.4,0,0.8,0.1,1.2c0.1,0.6,0.5,1,1.2,1c1,0.1,1.6-0.3,1.7-1.3c0.1-0.9,0.1-1.8,0.1-2.7
	c0-114.9,0-229.9,0-344.8c0-0.7,0-1.3,0-2c0-0.4,0-0.8-0.1-1.2c-0.1-0.7-0.6-1.1-1.4-1c-0.8,0-1.3,0.4-1.4,1.1
	c-0.1,1.1-0.1,2.1-0.1,3.2C158.4,65.4,158.4,122.8,158.4,180.2z M82.7,3.6c-22.8,0-45.6,0-68.3,0c-0.9,0-1.8,0-2.7,0.1
	c-0.8,0.1-1.2,0.6-1.2,1.5c0,0.9,0.4,1.5,1.2,1.6c0.9,0.1,1.8,0.1,2.7,0.1c45.6,0,91.3,0,136.9,0c0.7,0,1.3,0,2,0
	c1.4-0.1,1.7-0.5,1.7-1.8c-0.1-0.9-0.4-1.3-1.3-1.4c-0.9-0.1-1.8,0-2.7,0C128.1,3.6,105.4,3.6,82.7,3.6z"/>
</svg>
