<?xml version="1.0" encoding="utf-8"?>
<!-- Generator: Adobe Illustrator 25.0.0, SVG Export Plug-In . SVG Version: 6.00 Build 0)  -->
<svg version="1.1" id="Layer_1" xmlns="http://www.w3.org/2000/svg" xmlns:xlink="http://www.w3.org/1999/xlink" x="0px" y="0px"
	 viewBox="0 0 165 360" style="enable-background:new 0 0 165 360;" xml:space="preserve">
<path d="M0,179.9C0,121.7,0,63.6,0,5.4c0-1,0-2,0-2.9c0.1-1.6,0.7-2.2,2.2-2.4C2.7,0,3.1,0,3.5,0C4,0,4.6,0,5.2,0
	c51.4,0,102.9,0,154.3,0c1,0,2,0,2.9,0.1c1.6,0.2,2.1,0.7,2.4,2.3c0.1,0.6,0.1,1.1,0.1,1.7c0,0.8,0,1.6,0,2.4
	c0,115.8,0,231.7,0,347.5c0,1.2,0,2.5-0.1,3.7c-0.2,1.7-0.8,2.2-2.6,2.3c-0.7,0-1.3,0-2,0c-52,0-104,0-156,0c-0.8,0-1.6,0-2.4-0.1
	c-1.2-0.1-1.7-0.7-1.8-1.9c-0.1-0.4,0-0.8,0-1.2c0-0.8,0-1.6,0-2.4C0,296.2,0,238,0,179.9z M28.7,190c0,42.7,0,85.5,0,128.2
	c0,0.7,0,1.5,0,2.2c0,2.5,0.1,2.6,2.6,2.6c12.5,0,24.9,0,37.4,0c0.6,0,1.1,0,1.7-0.1c0.5-0.1,0.9-0.4,0.9-1c0.1-1,0.1-2,0.1-2.9
	c0-71.9,0-143.9,0-215.8c0-0.7,0-1.3,0-2c0.1-1.1-0.3-2.1-1.2-2.8c-0.4-0.3-0.7-0.7-1-1c-5.5-5.4-11-10.9-16.5-16.4
	c-7.1-7-14.1-14-21.2-21c-0.7-0.7-1.4-1.6-2.4-2c-0.9,1-0.4,2.2-0.4,3.2C28.7,104.2,28.7,147.1,28.7,190z M136.1,81.3
	c0-16.3,0-32.6,0-48.9c0-0.8,0-1.6-0.1-2.4c-0.1-0.8-0.4-1.2-1.2-1.3c-0.7-0.1-1.3-0.1-2-0.1c-32.9,0-65.9,0-98.8,0
	c-0.7,0-1.3,0-2,0c-0.4,0-0.5,0.4-0.3,0.7c0.4,0.5,0.9,1,1.3,1.4C66.7,64.4,100.2,98,133.8,131.5c0.6,0.6,1,1.3,1.9,1.5
	c0.8-0.7,0.4-1.7,0.4-2.5C136.1,114.1,136.1,97.7,136.1,81.3z M10.4,183.6c0,56.2,0,112.4,0,168.6c0,0.8,0,1.6,0,2.4
	c0.1,1.7,0.4,2,2,2c2.4,0,4.9,0,7.3,0c1.3,0,2.6,0,3.9,0c0.9,0,1.3-0.4,1.4-1.4c0.1-1.1,0.1-2.1,0.1-3.2c0-112.3,0-224.7,0-337
	c0-0.7,0-1.3,0-2c0-0.4,0-0.8,0-1.2c-0.1-1.1-0.5-1.5-1.5-1.6c-0.3,0-0.7,0-1,0c-3.3,0-6.5,0-9.8,0c-0.4,0-0.8,0-1.2,0.1
	c-0.6,0.1-1.1,0.5-1.1,1.1c-0.1,1.1-0.1,2.1-0.1,3.2C10.4,71.1,10.4,127.4,10.4,183.6z M154.6,183.6c0-56.4,0-112.7,0-169.1
	c0-0.9,0-1.8,0-2.7c-0.1-1-0.4-1.3-1.4-1.4c-0.3,0-0.7,0-1,0c-3.3,0-6.7,0-10,0c-0.4,0-0.8,0-1.2,0.1c-0.8,0.1-1.2,0.4-1.3,1.2
	c-0.1,1-0.1,2-0.1,2.9c0,53.4,0,106.9,0,160.3c0,0.8,0,1.6,0,2.4c0,0.3,0.1,0.7,0.2,1c0.1,0.2,0.3,0.4,0.5,0.5
	c0.9,0.5,2.7,0.3,3.4-0.6c0.8-1,1.9-1.3,3-1.5c2.3-0.4,3.8,0.8,3.8,3.2c0,0.2,0,0.5,0,0.7c0,5.7,0,11.4,0,17.1c0,0.7,0,1.3-0.1,2
	c-0.1,0.5-0.3,1-0.7,1.2c-1.5,1-3,1-4.7,0.3c-1.4-0.6-1.5-1.8-1.5-3.1c0-0.6,0-1.1,0-1.7c0-3,0-6,0-9.1c0-0.7,0-1.3-0.1-2
	c-0.1-0.8-0.5-1.1-1.3-1.2c-0.3,0-0.7,0-1,0c-1,0.1-1.4,0.4-1.4,1.3c-0.1,0.9-0.1,1.8-0.1,2.7c0,54.8,0,109.6,0,164.5
	c0,0.6,0,1.1,0,1.7c0.1,2,0.2,2.2,2.3,2.3c3.5,0,7,0,10.5,0c0.1,0,0.2,0,0.2,0c1.7-0.1,1.9-0.3,1.9-2.1c0-0.8,0-1.6,0-2.4
	C154.6,296,154.6,239.8,154.6,183.6z M136.1,258c0-20.6,0-41.3,0-61.9c0-0.7,0.4-1.7-0.4-2c-0.6-0.2-1,0.7-1.5,1.1
	c-0.1,0.1-0.1,0.1-0.2,0.2c-13,13-25.9,26-38.9,38.9c-1.2,1.2-1.8,2.5-1.8,4.3c0.1,27.1,0,54.3,0,81.4c0,2.9,0,3,3,3
	c12.2,0,24.4,0,36.7,0c0.7,0,1.3,0,2-0.1c0.7-0.1,1-0.4,1.1-1.1c0.1-0.9,0.1-1.8,0.1-2.7C136.1,298.8,136.1,278.4,136.1,258z
	 M75,213c0,35.2,0,70.5,0,105.7c0,0.9,0,1.8,0,2.7c0.1,1.2,0.5,1.6,1.7,1.6c1.9,0.1,3.8,0,5.6,0c1.6,0,3.3,0,4.9,0
	c2.3,0,2.4-0.2,2.5-2.6c0-0.7,0-1.3,0-2c0-65.6,0-131.2,0-196.8c0-0.7,0-1.5,0-2.2c0.1-1.2-0.4-2.2-1.3-3
	c-3.5-3.4-6.9-6.9-10.4-10.3c-0.8-0.8-1.4-1.8-2.6-2.1c-1,1-0.5,2.3-0.5,3.5C75,142.7,75,177.8,75,213z M136.1,148.6
	c0-2,0-4.1,0-6.1c0-4.3,0.4-3.3-2.7-6.4c-26.3-26.3-52.6-52.6-78.9-78.9C46.8,49.4,39,41.6,31.2,33.9c-0.6-0.6-1.2-1.1-1.8-1.7
	c-0.3-0.2-0.7,0-0.7,0.3c0,0.3,0,0.7,0,1c0,5.6,0,11.3,0,16.9c0,1.3,0.4,2.3,1.3,3.3c2.2,2.1,4.4,4.3,6.6,6.5
	C49.1,72.5,61.4,85,74,97.2c3.6,3.5,7.1,7,10.6,10.5c14.9,14.8,29.8,29.5,44.6,44.3c1.7,1.7,3.5,3.4,5.2,5.1
	c0.3,0.3,0.6,0.6,0.9,0.8c0.2,0.2,0.5,0.1,0.6-0.2c0.1-0.4,0.1-0.8,0.1-1.2C136.1,153.8,136.1,151.2,136.1,148.6z M93.3,204.6
	c1.1-0.4,1.6-1.1,2.2-1.7c12.5-12.4,24.9-24.9,37.3-37.4c2.7-2.7,2.8-2.3,0.1-5c-10.2-10.1-20.3-20.2-30.5-30.4
	c-2.5-2.5-5-4.9-7.5-7.4c-0.4-0.4-0.7-0.9-1.3-1c-0.1,0.1-0.3,0.3-0.3,0.4C93.3,149.5,93.3,176.9,93.3,204.6z M82.1,25.4
	c16.8,0,33.6,0,50.4,0c0.8,0,1.6,0,2.4-0.1c0.7-0.1,1-0.4,1.1-1.1c0.1-0.6,0.1-1.1,0.1-1.7c0-3.1,0-6.2,0-9.3c0-0.4,0-0.8,0-1.2
	c-0.1-1.2-0.4-1.5-1.7-1.6c-0.7,0-1.5,0-2.2,0c-33.2,0-66.3,0-99.5,0c-0.6,0-1.1,0-1.7,0c-2.1,0.1-2.3,0.2-2.3,2.2c0,3.5,0,7,0,10.5
	c0,0.2,0,0.5,0,0.7c0.1,1.1,0.4,1.4,1.6,1.4c0.8,0.1,1.6,0,2.4,0C49.2,25.4,65.6,25.4,82.1,25.4z M82.6,326.3c-10.2,0-20.4,0-30.6,0
	c-6.8,0-13.5,0-20.3,0c-0.7,0-1.5,0-2.2,0.1c-0.4,0.1-0.8,0.4-0.8,0.8c-0.1,0.6-0.1,1.1-0.1,1.7c0,2.8,0,5.5,0,8.3
	c0,2.9,0,2.9,2.8,2.9c33.9,0,67.8,0,101.7,0c0.6,0,1.1,0,1.7-0.1c0.7-0.1,1-0.4,1.1-1.1c0.1-0.6,0.1-1.1,0.1-1.7c0-2.5,0-5.1,0-7.6
	c0-3.4,0.1-3.4-3.3-3.4C116,326.3,99.3,326.3,82.6,326.3z M82.4,356.8c16.6,0,33.3,0,49.9,0c0.7,0,1.5,0,2.2,0
	c1.3-0.1,1.6-0.4,1.6-1.7c0-3.3,0-6.7,0-10c0-0.1,0-0.2,0-0.2c-0.1-1-0.4-1.3-1.3-1.4c-0.7-0.1-1.5,0-2.2,0c-33.4,0-66.8,0-100.3,0
	c-0.7,0-1.3,0-2,0c-1.3,0.1-1.6,0.4-1.6,1.7c0,2.8,0,5.5,0,8.3c0,3.5-0.1,3.4,3.3,3.4C48.8,356.8,65.6,356.8,82.4,356.8z
	 M161.5,180.2c0-57.4,0-114.9,0-172.3c0-1,0-2,0-2.9c-0.1-1-0.5-1.3-1.4-1.4c-1.1-0.1-1.7,0.3-1.8,1.2c-0.1,1-0.1,2-0.1,2.9
	c0,114.9,0,229.9,0,344.9c0,0.5,0,1,0,1.5c0,0.3,0,0.7,0,1c0.1,1.4,0.5,1.7,1.8,1.7c1,0,1.4-0.3,1.4-1.3c0.1-1,0-2,0-2.9
	C161.5,295.1,161.5,237.6,161.5,180.2z M6.9,180.2c0-57.5,0-115,0-172.6c0-0.9,0-1.8,0-2.7C6.8,4,6.4,3.7,5.4,3.6
	C4.3,3.6,3.7,3.9,3.6,4.8c-0.1,1-0.1,2-0.1,2.9c0,114.9,0,229.9,0,344.9c0,0.5,0,1,0,1.5c0,0.3,0,0.7,0,1c0.1,1.4,0.5,1.7,1.8,1.7
	c1,0,1.4-0.3,1.4-1.3c0.1-0.9,0-1.8,0-2.7C6.9,295.2,6.9,237.7,6.9,180.2z M135.8,167.8c-0.8-0.1-1,0.5-1.4,0.9
	c-13.2,13.2-26.4,26.4-39.6,39.6c-1.1,1.1-1.6,2.3-1.6,3.9c0.1,5.5,0,10.9,0,16.4c0,0.5,0,1,0.1,1.5c0,0.4,0.5,0.5,0.7,0.3
	c0.6-0.5,1.1-1,1.6-1.5c5.7-5.6,11.3-11.3,17-17c7.3-7.3,14.5-14.6,21.8-21.8c1.3-1.3,1.9-2.6,1.6-4.3c-0.1-1.1-0.4-1.4-1.6-1.4
	c-0.7-0.1-1.3-0.1-2-0.1c-0.7,0-1.3-0.2-1.8-0.6c-1.2-0.9-1.2-2.6,0-3.6c0.4-0.3,0.9-0.4,1.4-0.5c0.7-0.1,1.5-0.1,2.2-0.2
	c1.6-0.3,1.8-0.5,1.8-2.1c0-2.9,0-5.9,0-8.8C136,168.2,135.9,168,135.8,167.8z M82.6,6.9c20.3,0,40.6,0,60.9,0c2.7,0,5.4,0,8.1,0
	c0.7,0,1.3,0,2-0.1c0.7-0.1,1-0.4,1.1-1.1c0-0.2,0-0.5,0-0.7c-0.1-0.8-0.4-1.2-1.2-1.3c-0.7-0.1-1.3-0.1-2-0.1
	c-45.9,0-91.8,0-137.7,0c-0.7,0-1.3,0-2,0.1c-1,0.1-1.4,0.6-1.4,1.7c0,0.9,0.4,1.4,1.3,1.5c0.9,0.1,1.8,0.1,2.7,0.1
	C37.1,6.9,59.9,6.9,82.6,6.9z"/>
</svg>
