<?xml version="1.0" encoding="utf-8"?>
<!-- Generator: Adobe Illustrator 25.0.0, SVG Export Plug-In . SVG Version: 6.00 Build 0)  -->
<svg version="1.1" id="Layer_1" xmlns="http://www.w3.org/2000/svg" xmlns:xlink="http://www.w3.org/1999/xlink" x="0px" y="0px"
	 viewBox="0 0 165 360" style="enable-background:new 0 0 165 360;" xml:space="preserve">
<path d="M0,179.9c0-58,0-116,0-174c0-1.1,0-2.3,0.1-3.4c0.2-1.7,0.8-2.3,2.5-2.4C3.4,0,4.2,0,5,0c9.2,0,18.5,0,27.7,0
	C75,0,117.3,0,159.5,0c1.1,0,2.1,0,3.2,0.1c1.4,0.2,2,0.8,2.2,2.2c0.1,0.5,0.1,1,0.1,1.5c0,0.9,0,1.8,0,2.7c0,115.9,0,231.8,0,347.7
	c0,1.2,0,2.5-0.1,3.7c-0.1,1.5-0.7,2-2.2,2.1c-0.7,0.1-1.3,0-2,0c-52.2,0-104.3,0-156.5,0c-0.7,0-1.3,0-2,0
	c-1.4-0.1-1.9-0.6-2.2-1.9c-0.1-0.6-0.1-1.1-0.2-1.7c0-0.9,0-1.8,0-2.7C0,295.7,0,237.8,0,179.9z M28.6,294.1c1-0.2,1.3-0.7,1.6-1.1
	c0.8-0.9,1.6-1.8,2.4-2.7c5.1-5.6,10.2-11.3,15.2-16.9c7.1-7.9,14.2-15.8,21.3-23.6c2.7-3,2.2-2.6,2.3-5.9c0-0.2,0-0.5,0-0.7
	c0-44.9,0-89.7,0-134.6c0-0.6,0-1.1,0-1.7c0.1-1.5-0.4-2.6-1.4-3.7C65,97.5,60,91.9,55,86.3c-8.4-9.3-16.8-18.6-25.2-28
	c-0.3-0.3-0.4-0.7-1-0.7c-0.1,0.2-0.2,0.4-0.2,0.6C28.6,136.8,28.6,215.4,28.6,294.1z M10.3,183.6c0,56.2,0,112.4,0,168.6
	c0,0.9,0,1.8,0,2.7c0.1,1.4,0.4,1.7,1.7,1.8c0.2,0,0.3,0,0.5,0c3.3,0,6.7,0,10,0c0.4,0,0.8,0,1.2-0.1c0.7-0.1,1.1-0.5,1.1-1.1
	c0.1-1.1,0.1-2.3,0.1-3.4c0-112.3,0-224.6,0-336.9c0-0.7,0-1.3,0-2c0-0.4,0-0.8,0-1.2c-0.1-1.1-0.5-1.5-1.5-1.6c-0.3,0-0.7,0-1,0
	c-3.3,0-6.5,0-9.8,0c-0.4,0-0.8,0-1.2,0.1c-0.7,0.1-1,0.5-1.1,1.1c-0.1,1.1-0.1,2.1-0.1,3.2C10.3,71.1,10.3,127.4,10.3,183.6z
	 M154.7,183.7c0-56.3,0-112.6,0-168.9c0-1,0-2-0.1-2.9c-0.1-0.9-0.5-1.3-1.4-1.4c-0.5-0.1-1,0-1.5,0c-3.1,0-6.2,0-9.3,0
	c-0.4,0-0.8,0-1.2,0c-1.2,0.1-1.5,0.4-1.6,1.7c0,0.8,0,1.6,0,2.4c0,53.4,0,106.9,0,160.3c0,0.8,0,1.6,0,2.4c0,0.3,0.1,0.7,0.2,1
	c0.1,0.2,0.2,0.5,0.4,0.6c0.8,0.4,1.6,0.2,2.4,0.2c0.6,0,1-0.4,1.4-0.9c1.2-1.3,2.7-1.8,4.4-1.2c1.6,0.5,1.9,0.9,2,2.6
	c0,0.3,0,0.7,0,1c0,5.8,0,11.6,0,17.4c0,0.6,0,1.1-0.1,1.7c-0.1,0.8-0.5,1.4-1.3,1.7c-0.5,0.2-1.1,0.4-1.6,0.5
	c-1.8,0-3.9-0.6-3.7-3.2c0-0.6,0-1.1,0-1.7c0-3.2,0-6.4,0-9.5c0-0.7,0-1.3-0.1-2c-0.1-0.9-0.6-1.1-2.1-1.1c-1.4,0-1.8,0.2-1.9,1
	c-0.1,0.9-0.1,1.8-0.1,2.7c0,55,0,110,0,164.9c0,0.5,0,1,0,1.5c0.1,2.1,0.2,2.3,2.2,2.3c3.5,0,7,0,10.5,0c0.3,0,0.7,0,1,0
	c0.8-0.1,1.2-0.4,1.2-1.2c0.1-1,0.1-2,0.1-2.9C154.7,296.2,154.7,239.9,154.7,183.7z M136.1,86.3c0-18.3,0-36.5,0-54.8
	c0-2.8-0.1-2.9-2.9-2.9c-12.2,0-24.5,0-36.7,0c-0.3,0-0.7,0-1,0c-1.6,0.1-1.9,0.4-2,2.1c0,0.6,0,1.1,0,1.7c0,20.6,0,41.1,0,61.7
	c0,0.6,0,1.1,0,1.7c0,1.1,0.4,2,1.2,2.9c3.5,3.8,7.1,7.7,10.6,11.6c4.1,4.5,8.2,8.9,12.2,13.3c5.7,6.3,11.4,12.5,17.1,18.8
	c0.2,0.2,0.4,0.5,0.7,0.7c0.1,0.1,0.3,0.2,0.4,0.1c0.1,0,0.3-0.2,0.3-0.3c0.1-0.8,0.1-1.6,0.1-2.4
	C136.1,122.4,136.1,104.4,136.1,86.3z M136.1,265.4c0-17.8,0-35.6,0-53.3c0-0.7,0-1.5,0-2.2c0-0.4,0.1-0.9-0.4-1
	c-0.2,0-0.6,0.2-0.8,0.4c-0.5,0.5-0.9,0.9-1.4,1.4c-5.7,6.2-11.3,12.4-17,18.6c-7.1,7.8-14.2,15.6-21.3,23.3
	c-1.3,1.4-1.8,2.8-1.8,4.6c0,20.9,0,41.8,0,62.6c0,3.1,0.1,3.2,3.1,3.2c12.2,0,24.3,0,36.5,0c0.5,0,1,0,1.5,0
	c1.1-0.1,1.4-0.4,1.5-1.5c0.1-0.8,0-1.6,0-2.4C136.1,301.1,136.1,283.3,136.1,265.4z M28.5,319.8c0.2,0.1,0.3,0.1,0.5,0.2
	c3.6-3.9,7.2-7.8,10.8-11.7c6.3-6.9,12.5-13.7,18.8-20.6c4-4.3,7.9-8.7,11.9-13c6.2-6.7,12.3-13.5,18.5-20.2
	c4.2-4.6,8.5-9.2,12.7-13.9c5.9-6.4,11.7-12.9,17.6-19.4c5.1-5.6,10.2-11.2,15.4-16.8c1-1.1,1.5-2.2,1.5-3.7c-0.1-4.6,0-9.1,0-13.7
	c0-0.6,0-1.1-0.1-1.7c-0.1-0.4-0.3-0.8-0.7-0.9c-1.1-0.2-2.3-0.3-3.2,0.6c-0.5,0.5-0.9,0.9-1.4,1.4c-3.5,3.8-6.9,7.6-10.3,11.4
	c-3.2,3.6-6.5,7.1-9.7,10.7c-5.3,5.9-10.7,11.9-16,17.8c-3.5,3.9-7,7.7-10.5,11.6c-5.4,6-10.8,12-16.2,18
	c-3.4,3.8-6.9,7.6-10.3,11.4c-5.2,5.8-10.4,11.5-15.5,17.3c-4,4.5-8,9-12.1,13.4c-1.1,1.2-1.5,2.4-1.5,4c0.1,5.3,0,10.6,0,15.9
	C28.5,318.7,28.5,319.2,28.5,319.8z M28.7,31.6c-0.1,1.2-0.1,1.7-0.1,2.3c0,5.2,0.1,10.4,0,15.7c0,1.7,0.5,3,1.6,4.2
	c3.5,3.8,7,7.7,10.5,11.6c3.4,3.8,6.9,7.6,10.3,11.4c5.2,5.8,10.5,11.6,15.7,17.5c3.6,4,7.2,8,10.8,12c5.2,5.8,10.4,11.5,15.5,17.3
	c3.6,4,7.2,8,10.8,12c5.5,6.1,10.9,12.1,16.4,18.2c3.7,4.1,7.3,8.2,10.9,12.2c1.4,1.6,2.9,3.1,4.3,4.6c0,0,0.2,0,0.2,0
	c0.4-0.3,0.3-0.7,0.3-1.1c0-6.2,0-12.4,0-18.6c0-1.2-0.4-2.2-1.2-3.1c-1.9-2-3.8-4.1-5.6-6.1c-6.4-7-12.8-14-19.1-21
	c-3.9-4.2-7.7-8.4-11.6-12.6c-6.3-6.9-12.6-13.9-19-20.8c-4.1-4.5-8.3-9-12.4-13.5c-7.5-8.3-15-16.5-22.6-24.8
	c-4.5-4.9-8.9-9.7-13.4-14.6C30.5,33.6,29.8,32.8,28.7,31.6z M93.5,175.8c0,14.2,0,28.4,0,42.6c0,0.7,0,1.5,0,2.2
	c0,0.4-0.1,0.9,0.5,1c0.3,0.1,0.6-0.2,0.8-0.4c2.1-2.3,4.2-4.6,6.2-6.9c5.4-6,10.8-12,16.2-18c3.7-4.1,7.4-8.3,11.1-12.4
	c0.7-0.7,1.3-1.5,1.5-2.5c0.2-0.8,0.7-1.5,1.6-1.7c1-0.3,1.6-1,2.3-1.7c1.9-2,2-1.9,0-4.1c-3.8-4.2-7.6-8.3-11.3-12.5
	c-5.5-6.1-11-12.2-16.5-18.4c-3.3-3.7-6.7-7.4-10-11.1c-0.6-0.7-1-1.5-1.9-1.8c-0.9,0.8-0.5,1.8-0.5,2.7
	C93.5,147.1,93.5,161.4,93.5,175.8z M75,175.7c0,21.2,0,42.4,0,63.6c0,0.8,0,1.6,0.1,2.4c0,0.4,0.5,0.6,0.7,0.4
	c0.3-0.3,0.6-0.5,0.9-0.8c3.9-4.4,7.8-8.8,11.8-13.1c1.1-1.2,1.5-2.6,1.5-4.2c-0.1-7.8,0-15.7,0-23.5c0-24.2,0-48.5,0-72.7
	c0-1.8-0.5-3.2-1.7-4.6c-3.7-4-7.3-8.1-11-12.2c-0.4-0.5-0.9-1-1.4-1.4c-0.2-0.2-0.4-0.3-0.6-0.2c-0.2,0.1-0.3,0.4-0.3,0.6
	c0,0.8,0,1.6,0,2.4C75,133.6,75,154.6,75,175.7z M82.5,10.4c-16.7,0-33.5,0-50.2,0c-0.8,0-1.6,0-2.4,0.1c-0.9,0.1-1.2,0.4-1.3,1.4
	c0,0.3,0,0.7,0,1c0,3.3,0,6.7,0,10c0,0.5,0,1,0.1,1.5c0.1,0.5,0.4,0.9,1,1c0.7,0.1,1.5,0.1,2.2,0.1c33.7,0,67.4,0,101.1,0
	c0.7,0,1.3,0,2-0.1c0.8-0.1,1.1-0.4,1.2-1.3c0.1-0.4,0.1-0.8,0.1-1.2c0-3.3,0-6.5,0-9.8c0-0.5,0-1-0.1-1.5c-0.1-0.6-0.5-1.1-1.1-1.1
	c-0.9-0.1-1.8-0.1-2.7-0.1C115.7,10.4,99.1,10.4,82.5,10.4z M82.2,340.1c16.7,0,33.5,0,50.2,0c0.8,0,1.6,0,2.4-0.1
	c0.8-0.1,1.1-0.4,1.2-1.3c0-0.3,0.1-0.7,0.1-1c0-3.1,0-6.2,0-9.3c0-0.4,0-0.8-0.1-1.2c-0.1-0.5-0.4-0.9-1-1
	c-0.9-0.1-1.8-0.1-2.7-0.1c-20.2,0-40.5,0-60.7,0c-13.2,0-26.4,0-39.7,0c-0.7,0-1.5,0-2.2,0.1c-0.8,0.1-1.1,0.4-1.2,1.3
	c0,0.3,0,0.7,0,1c0,3.1,0,6.2,0,9.3c0,0.4,0,0.8,0.1,1.2c0.1,0.5,0.4,0.9,1,1c0.8,0.1,1.6,0.1,2.4,0.1
	C48.7,340.1,65.5,340.1,82.2,340.1z M82.3,356.7c16.6,0,33.3,0,50,0c0.8,0,1.6,0,2.5,0c1-0.1,1.3-0.4,1.4-1.4c0-0.3,0-0.7,0-1
	c0-2.9,0-5.7,0-8.6c0-0.4,0-0.8-0.1-1.2c-0.1-0.8-0.5-1.1-1.3-1.2c-0.7-0.1-1.5-0.1-2.2-0.1c-33.5,0-66.9,0-100.4,0
	c-0.7,0-1.3,0-2,0c-1.3,0.1-1.6,0.4-1.6,1.6c0,2.9,0,5.7,0,8.6c0,3.2,0,3.2,3.3,3.2C48.6,356.7,65.5,356.7,82.3,356.7z M161.5,180.2
	c0-57.5,0-115,0-172.5c0-0.9,0-1.8,0-2.7c-0.1-1-0.4-1.3-1.4-1.4c-1.2-0.1-1.7,0.3-1.8,1.5c-0.1,0.7,0,1.3,0,2
	c0,115.4,0,230.8,0,346.2c0,0.7,0,1.3,0,2c0.1,1.2,0.5,1.5,1.8,1.5c1,0,1.3-0.4,1.4-1.3c0.1-1,0-2,0-2.9
	C161.5,295,161.5,237.6,161.5,180.2z M3.6,180c0,57.3,0,114.7,0,172c0,0.7,0,1.5,0,2.2c0,0.4,0,0.8,0,1.2c0.1,0.9,0.5,1.2,1.5,1.3
	c1.2,0,1.6-0.3,1.7-1.6c0-0.7,0-1.3,0-2c0-115.3,0-230.7,0-346c0-0.7,0-1.3,0-2C6.6,3.9,6,3.4,4.6,3.6C4.1,3.7,3.7,4,3.6,4.6
	c-0.1,1-0.1,2-0.1,2.9C3.6,65,3.6,122.5,3.6,180z M71.4,51c0-6.2,0-12.4,0-18.6c0-0.6,0-1.1,0-1.7c-0.1-1.8-0.3-2-2-2
	c-0.4,0-0.8,0-1.2,0c-11.4,0-22.9,0-34.3,0c-0.7,0-1.5,0-2.2,0.1c-0.2,0-0.4,0.3-0.3,0.6c0.1,0.3,0.3,0.6,0.6,0.8
	c5.6,6.1,11.1,12.1,16.7,18.2c4.3,4.7,8.6,9.4,12.9,14.1c2.7,3,5.4,5.9,8.1,8.8c0.3,0.4,0.7,0.7,1.1,1c0.2,0.2,0.5,0,0.6-0.2
	c0.1-0.7,0.1-1.5,0.1-2.2C71.4,63.6,71.4,57.3,71.4,51z M71.4,279.2c-0.5,0.3-0.7,0.3-0.8,0.5c-3.3,3.5-6.5,7.1-9.8,10.6
	c-6.5,7.1-13,14.2-19.5,21.3c-3.1,3.4-6.3,6.9-9.4,10.3c-0.3,0.3-0.6,0.6-0.3,1.1c0.2,0,0.5,0.1,0.7,0.1c12.2,0,24.5,0,36.7,0
	c0.4,0,0.8,0,1.2-0.1c0.5-0.1,0.9-0.4,1-0.9c0.1-0.7,0.1-1.5,0.1-2.2c0-12.7,0-25.4,0-38.1C71.4,280.9,71.4,280.2,71.4,279.2z
	 M90,92.8c0-0.7,0-1.3,0-1.9c0-19.8,0-39.6,0-59.4c0-0.6,0-1.1-0.1-1.7c-0.1-0.7-0.4-1-1.1-1.1c-0.6-0.1-1.1-0.1-1.7-0.1
	c-2.9,0-5.7,0-8.6,0c-3.7,0-3.6-0.1-3.6,3.6c0,13.7,0,27.4,0,41.1c0,4.3-0.3,3.3,2.5,6.5c3.6,4,7.2,8,10.9,11.9
	C88.7,92.2,89,92.7,90,92.8z M89.6,258.9c-0.8,0.8-1.4,1.4-2,2c-2,2.2-4,4.3-6,6.5c-1.7,1.9-3.4,3.8-5.1,5.6
	c-1.1,1.1-1.6,2.4-1.6,3.9c0,14.4,0,28.9,0,43.3c0,0.6,0,1.1,0.1,1.7c0.1,0.5,0.5,0.9,1,0.9c0.7,0.1,1.3,0.1,2,0.1
	c2.9,0,5.9,0,8.8,0c3.1,0,3.1,0,3.1-3.1c0-19.5,0-39,0-58.4C90,260.8,90.1,260,89.6,258.9z M82.8,3.6c-22.9,0-45.7,0-68.5,0
	c-0.9,0-1.8,0-2.7,0.1c-0.8,0.1-1.2,0.6-1.2,1.6s0.4,1.5,1.2,1.6c0.9,0.1,1.8,0.1,2.7,0.1c14.9,0,29.9,0,44.8,0c30.5,0,61,0,91.6,0
	c1,0,2,0,2.9-0.1c0.8-0.1,1.2-0.6,1.2-1.6c0-1-0.3-1.5-1.2-1.6c-0.9-0.1-1.8-0.1-2.7-0.1C128.1,3.6,105.5,3.6,82.8,3.6z"/>
</svg>
