<?xml version="1.0" encoding="utf-8"?>
<!-- Generator: Adobe Illustrator 25.0.0, SVG Export Plug-In . SVG Version: 6.00 Build 0)  -->
<svg version="1.1" id="Layer_1" xmlns="http://www.w3.org/2000/svg" xmlns:xlink="http://www.w3.org/1999/xlink" x="0px" y="0px"
	 viewBox="0 0 165 360" style="enable-background:new 0 0 165 360;" xml:space="preserve">
<path d="M0,180.1C0,121.8,0,63.6,0,5.3c0-1,0-2,0-2.9c0.1-1.4,0.7-2,2.1-2.3C2.5,0,2.9,0,3.3,0c0.7,0,1.5,0,2.2,0
	C56.8,0,108,0,159.3,0c1.1,0,2.1,0,3.2,0.1c1.8,0.2,2.4,0.9,2.5,2.7c0,0.7,0,1.3,0,2c0,116.9,0,233.8,0,350.7c0,0.9,0,1.8-0.1,2.7
	c-0.2,1.1-0.8,1.7-2,1.8c-0.7,0.1-1.5,0.1-2.2,0.1c-52.1,0-104.3,0-156.4,0c-0.6,0-1.1,0-1.7,0c-1.9-0.1-2.5-0.6-2.6-2.5
	c0-0.3,0-0.7,0-1c0-0.7,0-1.5,0-2.2C0,296.3,0,238.2,0,180.1z M136.4,171.3L136.4,171.3c0-1.7-0.1-3.4,0-5.1
	c0.1-1.8-0.4-3.2-1.8-4.3c-0.1-0.1-0.2-0.2-0.4-0.3c-8.1-8-16.2-16.1-24.3-24.1c-4.8-4.8-9.7-9.5-14.5-14.2c-0.4-0.3-0.7-0.7-1.1-1
	c-0.3-0.2-0.7-0.1-0.7,0.3c0,0.6-0.1,1.1-0.1,1.7c0,42.1,0,84.2,0,126.3c0,1.8,0.5,3.1,1.8,4.3c13,12.9,25.9,25.8,38.9,38.7
	c0.6,0.6,1,1.3,1.8,1.6c0.9-0.7,0.4-1.7,0.4-2.5c0-34.9,0-69.8,0-104.7c0-0.7,0-1.3,0-2c-0.1-1.2-0.4-1.5-1.7-1.6
	c-1-0.1-2,0-2.9-0.2c-1.2-0.2-1.9-1.2-1.8-2.3c0.1-1.2,0.9-2.1,2.2-2.2c0.8-0.1,1.6-0.1,2.4-0.3c1.7-0.3,1.8-0.5,1.8-2.1
	C136.4,175.3,136.4,173.3,136.4,171.3z M71.2,165.1c0-21,0-42.1,0-63.1c0-2-0.6-3.4-2-4.7c-6-5.8-11.9-11.6-17.8-17.5
	c-7-6.9-13.9-13.8-20.9-20.7c-0.4-0.3-0.7-0.7-1.1-1c-0.3-0.2-0.7,0-0.7,0.3c0,0.7-0.1,1.5-0.1,2.2c0,41.6,0,83.2,0,124.8
	c0,0.7,0,1.3,0,2c0,0.8,0.3,1.4,0.9,2c0.4,0.4,0.7,0.7,1,1c12.9,12.9,25.8,25.7,38.6,38.6c0.4,0.4,0.8,0.8,1.2,1.2
	c0.3,0.3,0.7,0.1,0.7-0.3c0-0.8,0.1-1.6,0.1-2.4C71.2,206.7,71.2,185.9,71.2,165.1z M25.1,183.9c0-14.4,0-28.7,0-43.1
	c0-42.2,0-84.3,0-126.5c0-0.9,0-1.8-0.1-2.7c0-0.7-0.4-1.1-1.1-1.2c-0.4-0.1-0.8-0.1-1.2-0.1c-3.4,0-6.9,0-10.3,0
	c-0.4,0-0.8,0-1.2,0.1c-0.7,0.1-1,0.5-1.1,1.1c-0.1,0.9-0.1,1.8-0.1,2.7c0,112.9,0,225.8,0,338.7c0,0.7,0,1.3,0,2
	c0.1,1.5,0.3,1.7,1.7,1.8c0.4,0,0.8,0,1.2,0c3,0,6,0,9.1,0c0.5,0,1,0,1.5,0c1.1-0.1,1.4-0.4,1.5-1.5c0.1-0.9,0-1.8,0-2.7
	C25.1,296.3,25.1,240.1,25.1,183.9z M154.9,183.7c0-50.6,0-101.2,0-151.7c0-6,0-12.1,0-18.1c0-0.7,0-1.5-0.1-2.2
	c-0.1-0.7-0.4-1-1.1-1.1c-0.4-0.1-0.8-0.1-1.2-0.1c-3.4,0-6.7,0-10,0c-0.2,0-0.5,0-0.7,0c-1.4,0.1-1.8,0.4-1.8,1.7
	c-0.1,0.8,0,1.6,0,2.4c0,53.4,0,106.9,0,160.3c0,0.7,0,1.5,0,2.2c0,0.3,0,0.7,0.1,1c0.1,0.3,0.2,0.6,0.5,0.8
	c0.9,0.5,2.7,0.3,3.4-0.6c0.7-0.8,1.5-1.2,2.5-1.4c2.6-0.6,4.3,0.7,4.3,3.3c0,0.2,0,0.3,0,0.5c0,5.7,0,11.4,0,17.1
	c0,0.6,0,1.1-0.1,1.7c-0.1,0.9-0.6,1.5-1.4,1.8c-1.4,0.5-2.7,0.6-4,0c-0.7-0.3-1.2-0.8-1.3-1.6c-0.1-0.8-0.2-1.6-0.2-2.4
	c0-3.7,0-7.3,0-11c0-1.7-0.4-2-2-2c-0.2,0-0.5,0-0.7,0.1c-0.5,0.1-0.9,0.4-1,1c-0.1,0.9-0.1,1.8-0.1,2.7c0,55,0,110,0,165
	c0,0.7,0,1.3,0,2c0.1,1.4,0.4,1.7,1.7,1.8c0.2,0,0.5,0,0.7,0c3.4,0,6.7,0,10,0c0.5,0,1,0,1.5-0.1c0.6-0.1,0.9-0.4,0.9-1
	c0.1-1,0.1-2,0.1-2.9C154.9,296.4,154.9,240,154.9,183.7z M136.4,81.3c0-16.1,0-32.3,0-48.4c0-0.7,0-1.3,0-2
	c-0.1-2.1-0.2-2.3-2.2-2.3c-0.2,0-0.3,0-0.5,0c-12.5,0-25,0-37.5,0c-0.6,0-1.1,0-1.7,0.1c-0.5,0.1-0.9,0.4-0.9,1
	c-0.1,0.8-0.1,1.6-0.1,2.4c0,14.5,0,29,0,43.5c0,4.5,0.1,9,0,13.5c0,1.5,0.5,2.6,1.5,3.7c2.1,2,4.1,4,6.1,6c11,10.9,22,21.8,33,32.7
	c0.6,0.6,1,1.3,1.9,1.5c0.8-0.7,0.4-1.7,0.4-2.5C136.4,114.1,136.4,97.7,136.4,81.3z M28.6,271c0,16.1,0,32.3,0,48.4
	c0,3.8,0,3.6,3.7,3.6c11.8,0,23.7,0,35.5,0c3.4,0,3.4,0,3.4-3.4c0-18.5,0-37,0-55.5c0-0.4,0-0.8,0-1.2c0-1-0.3-1.9-1.1-2.6
	c-0.3-0.3-0.6-0.6-0.9-0.9c-9-8.9-18-17.8-27-26.6c-3.7-3.7-7.4-7.3-11.2-11c-0.6-0.6-1.1-1.4-2-1.7c-0.8,0.8-0.4,1.8-0.4,2.7
	C28.6,238.9,28.6,255,28.6,271z M136.4,148.7L136.4,148.7c0-2.6-0.1-5.2,0-7.8c0-1.4-0.4-2.5-1.4-3.5c-1.7-1.6-3.2-3.2-4.9-4.8
	c-20.1-20-40.1-40-60.2-60c-13.1-13-26.1-26-39.2-39.1c-0.4-0.4-0.8-0.8-1.2-1.2c-0.1-0.1-0.3-0.2-0.4-0.1c-0.3,0-0.4,0.3-0.4,0.6
	c0,1.8,0,3.6,0,5.4c0,3.8,0,7.7,0,11.5c0,3.2-0.1,2.8,2,4.9c0.2,0.2,0.3,0.4,0.5,0.5c4.9,4.7,9.6,9.6,14.5,14.2
	c3.5,3.2,6.7,6.6,10.1,10c10.1,10,20.1,20,30.3,29.9c8.4,8.1,16.6,16.4,24.9,24.6c7.5,7.4,15,14.8,22.5,22.2c0.5,0.5,1.1,1,1.6,1.5
	c0.2,0.2,0.4,0.3,0.6,0.5c0.2,0.1,0.5,0.1,0.6-0.2c0.1-0.5,0.1-1,0.1-1.5C136.4,153.7,136.4,151.2,136.4,148.7z M136.3,310.8
	C136.3,310.8,136.4,310.8,136.3,310.8c0-2.4,0-4.7,0-7.1c0-3.2,0.2-2.8-2.2-5.1c-8-8-16.1-16-24.1-24
	c-13.8-13.7-27.5-27.5-41.2-41.2c-12.1-12.1-24.3-24.2-36.4-36.3c-0.8-0.8-1.5-1.5-2.3-2.2c-0.2-0.2-0.5-0.4-0.7-0.7
	c-0.3-0.2-0.7,0-0.7,0.4c0,0.5-0.1,1-0.1,1.5c0,5.4,0.1,10.8,0,16.1c0,1.7,0.6,2.9,1.8,4.1c2.8,2.6,5.5,5.3,8.3,8
	c8.7,8.6,17.4,17.2,26.1,25.9c7.2,7.1,14.4,14.2,21.6,21.3c3.3,3.3,6.6,6.5,9.9,9.8c9.5,9.3,19,18.7,28.4,28
	c3.3,3.2,6.5,6.4,9.8,9.6c0.3,0.3,0.6,0.6,0.9,0.8c0.2,0.1,0.4,0.3,0.6,0.2c0.3,0,0.3-0.3,0.3-0.6
	C136.3,316.5,136.3,313.7,136.3,310.8z M74.8,168.6c0,12.2,0,24.5,0,36.7c0,8.9,0,17.8,0,26.7c0,1.7,0.5,2.9,1.7,4.1
	c2.7,2.6,5.3,5.3,8,7.9c1.4,1.4,2.8,2.8,4.2,4.1c0.2,0.2,0.5,0.5,0.8,0.4c0.4-0.1,0.4-0.5,0.4-0.8c0-0.9,0-1.8,0-2.7
	c0-41,0-82,0-123.1c0-0.7,0-1.5,0-2.2c0.1-1.4-0.5-2.5-1.5-3.4c-2.8-2.7-5.6-5.5-8.3-8.3c-1.3-1.3-2.6-2.5-3.9-3.8
	c-0.3-0.3-0.6-0.9-1.2-0.7c-0.4,0.2-0.3,0.7-0.3,1.1c0,0.7,0,1.3,0,2C74.8,127.4,74.8,148,74.8,168.6z M82.4,25.4
	c16.8,0,33.5,0,50.2,0c0.8,0,1.6,0,2.5-0.1c0.8-0.1,1.1-0.4,1.2-1.3c0.1-0.6,0.1-1.1,0.1-1.7c0-2.9,0-5.7,0-8.6c0-3.4,0-3.4-3.4-3.4
	c-33.7,0-67.3,0-101,0c-0.7,0-1.3,0-2,0.1c-0.9,0.1-1.3,0.5-1.4,1.4c0,0.2,0,0.5,0,0.7c0,3.5,0,7,0,10.5c0,0.4,0,0.8,0.1,1.2
	c0.1,0.5,0.4,0.9,1,1c0.9,0.1,1.8,0.1,2.7,0.1C49.1,25.4,65.7,25.4,82.4,25.4z M82.5,326.3c-16.8,0-33.5,0-50.2,0
	c-0.8,0-1.6,0-2.5,0.1c-0.7,0.1-1,0.4-1.1,1.1c-0.1,0.6-0.1,1.1-0.1,1.7c0,2.7,0,5.4,0,8.1c0,2.8,0.1,2.9,2.9,2.9c34,0,68,0,102,0
	c0.6,0,1.2,0,1.7-0.1c0.7-0.1,1-0.4,1.1-1.1c0.1-0.6,0.1-1.1,0.1-1.7c0-2.5,0-5.1,0-7.6c0-3.4,0.1-3.4-3.3-3.4
	C116.2,326.3,99.4,326.3,82.5,326.3z M82.4,356.8c16.7,0,33.3,0,50,0c0.7,0,1.3,0,2,0c1.8-0.1,2-0.3,2-2c0-2.8,0-5.5,0-8.3
	c0-3.1,0-3.1-3.1-3.1c-8.2,0-16.5,0-24.7,0c-25.3,0-50.6,0-75.9,0c-0.9,0-1.8,0-2.7,0.1c-0.7,0-1.1,0.4-1.1,1.1
	c-0.1,0.4-0.1,0.8-0.1,1.2c0,2.9,0,5.9,0,8.8c0,0.4,0,0.8,0.1,1.2c0.1,0.5,0.4,0.9,1,1c0.8,0.1,1.6,0.1,2.4,0.1
	C48.9,356.8,65.6,356.8,82.4,356.8z M6.5,180.4c0-57.3,0-114.7,0-172c0-0.9,0-1.8,0-2.7c0-0.4-0.1-0.8-0.1-1.2
	C6.3,4.1,6,3.8,5.5,3.7C4.5,3.4,3.7,3.9,3.6,5C3.5,6,3.5,7.1,3.5,8.2c0,114.7,0,229.4,0,344.1c0,0.7,0,1.5,0,2.2
	c0,0.4,0,0.8,0.1,1.2c0.1,0.7,0.6,1.1,1.4,1.1s1.3-0.3,1.4-1.1c0.1-1.1,0.1-2.1,0.1-3.2C6.5,295.1,6.5,237.8,6.5,180.4z
	 M161.4,180.4c0-57.3,0-114.7,0-172c0-0.9,0-1.8,0-2.7c0-0.4-0.1-0.8-0.1-1.2c-0.1-0.4-0.4-0.7-0.8-0.8c-1-0.3-1.8,0.2-1.9,1.3
	c-0.1,1.1-0.1,2.1-0.1,3.2c0,114.7,0,229.4,0,344.1c0,0.7,0,1.5,0,2.2c0,0.4,0,0.8,0.1,1.2c0.1,0.7,0.6,1.1,1.4,1.1
	c0.8,0,1.3-0.3,1.4-1.1c0.1-1.1,0.1-2.1,0.1-3.2C161.4,295.1,161.4,237.8,161.4,180.4z M31.2,28.7c0.3,1.1,0.9,1.5,1.4,2
	c12.2,12.2,24.4,24.3,36.6,36.4c0.2,0.2,0.5,0.5,0.7,0.7c0.3,0.2,0.5,0.8,1,0.5c0.2-0.1,0.2-0.6,0.3-0.9c0-0.4,0-0.8,0-1.2
	c0-11.5,0-23,0-34.5c0-0.6,0-1.1-0.1-1.7c-0.1-0.8-0.5-1.2-1.2-1.3c-0.7-0.1-1.3-0.1-2-0.1c-11.5,0-23,0-34.5,0
	C32.8,28.7,32.1,28.7,31.2,28.7z M133.5,322.7c-0.7-0.7-1.2-1.2-1.7-1.7c-0.8-0.7-1.6-1.4-2.3-2.2c-8.9-8.8-17.7-17.6-26.6-26.4
	c-2.7-2.6-5.3-5.3-8-7.9c-0.3-0.3-0.6-0.9-1.3-0.7c0,0.4-0.1,0.9-0.1,1.4c0,11.7,0,23.5,0,35.2c0,0.5,0,1,0.1,1.5
	c0.1,0.5,0.4,0.9,0.9,1c0.7,0.1,1.5,0.1,2.2,0.1c11.4,0,22.9,0,34.3,0C131.7,323,132.5,323.2,133.5,322.7z M89.9,58.1
	c0-8.6,0-17.3,0-25.9c0-0.8,0-1.6-0.1-2.4c-0.1-0.5-0.4-0.9-0.9-1c-0.3-0.1-0.7-0.1-1-0.1c-3.8,0-7.5,0-11.3,0
	c-1.5,0-1.8,0.3-1.8,1.9c0,0.6,0,1.1,0,1.7c0,12.4,0,24.8,0,37.2c0,0.6,0,1.1,0,1.7c0,1,0.3,1.7,1,2.4c4.2,4.1,8.3,8.3,12.5,12.4
	c0.3,0.3,0.7,0.8,1.2,0.5c0.4-0.2,0.4-0.7,0.4-1.1c0-0.7,0-1.5,0-2.2C89.9,74.9,89.9,66.5,89.9,58.1z M74.8,293.8
	c0,8.6,0,17.1,0,25.7c0,0.7,0,1.5,0.1,2.2c0.1,0.8,0.4,1.2,1.2,1.3c0.2,0,0.5,0,0.7,0c3.7,0,7.3,0,11,0c1.8,0,2-0.3,2.1-2.2
	c0-0.2,0-0.3,0-0.5c0-12.7,0-25.4,0-38.2c0-1.6-0.4-2.8-1.6-3.9c-4-3.9-8-7.9-12-11.9c-0.1-0.1-0.2-0.2-0.4-0.3
	c-0.2-0.2-0.5-0.5-0.8-0.4c-0.4,0.1-0.4,0.5-0.4,0.8c0,0.7,0,1.3,0,2C74.8,276.9,74.8,285.3,74.8,293.8z M82.5,6.9
	c22.9,0,45.8,0,68.6,0c0.9,0,1.8,0,2.7-0.1c0.7-0.1,1-0.5,1-1.2c0-0.2,0-0.5,0-0.7c-0.1-0.8-0.4-1.2-1.2-1.3
	c-0.7-0.1-1.5-0.1-2.2-0.1c-46,0-92,0-138,0c-0.7,0-1.3,0-2,0c-1.1,0.1-1.4,0.5-1.4,1.6c0,1.2,0.4,1.6,1.6,1.7c0.8,0.1,1.6,0,2.5,0
	C36.9,6.9,59.7,6.9,82.5,6.9z"/>
</svg>
