<?xml version="1.0" encoding="utf-8"?>
<!-- Generator: Adobe Illustrator 25.0.0, SVG Export Plug-In . SVG Version: 6.00 Build 0)  -->
<svg version="1.1" id="Layer_1" xmlns="http://www.w3.org/2000/svg" xmlns:xlink="http://www.w3.org/1999/xlink" x="0px" y="0px"
	 viewBox="0 0 165 360" style="enable-background:new 0 0 165 360;" xml:space="preserve">
<path d="M0,179.9C0,121.6,0,63.2,0,4.9c0-1,0-2,0.1-2.9c0.1-1.2,0.7-1.8,1.9-1.9C2.6,0,3.2,0,3.9,0c52.4,0,104.7,0,157.1,0
	c0.6,0,1.1,0,1.7,0c1.5,0.1,2,0.6,2.2,2.1c0.1,0.6,0.1,1.1,0.1,1.7c0,0.8,0,1.6,0,2.4c0,115.9,0,231.8,0,347.6c0,1.2,0,2.5-0.1,3.7
	c-0.2,1.6-0.7,2.1-2.3,2.3c-0.7,0.1-1.5,0.1-2.2,0.1c-51.9,0-103.7,0-155.6,0c-0.8,0-1.6,0-2.4-0.1c-1.8-0.2-2.3-0.7-2.4-2.5
	c0-0.8,0-1.6,0-2.4C0,296.6,0,238.3,0,179.9z M25.1,183.8c0-15.5,0-31,0-46.5c0-40.9,0-81.8,0-122.6c0-0.9,0-1.8-0.1-2.7
	c-0.1-1-0.5-1.4-1.6-1.5c-0.4-0.1-0.8-0.1-1.2-0.1c-3,0-6,0-9,0c-0.4,0-0.8,0-1.2,0.1c-1.1,0.1-1.5,0.5-1.6,1.5
	c-0.1,1.1-0.1,2.1-0.1,3.2c0,60.3,0,120.6,0,180.9c0,52,0,104.1,0,156.2c0,0.9,0,1.8,0.1,2.7c0.1,1.2,0.5,1.6,1.7,1.6
	c2.5,0.1,5.1,0,7.6,0c1.2,0,2.5,0,3.7,0c1.3-0.1,1.6-0.4,1.7-1.6c0.1-1,0.1-2,0.1-2.9C25.1,295.9,25.1,239.8,25.1,183.8z
	 M154.6,183.6c0-56.1,0-112.3,0-168.4c0-0.8,0-1.6,0-2.4c0-0.4,0-0.8-0.1-1.2c-0.1-0.5-0.4-0.9-1-1c-0.4-0.1-0.8-0.1-1.2-0.1
	c-3.5,0-7,0-10.5,0c-0.2,0-0.5,0-0.7,0.1c-0.9,0.1-1.4,0.5-1.4,1.4c-0.1,1-0.1,2-0.1,2.9c0,53.3,0,106.6,0,159.8c0,0.8,0,1.6,0,2.4
	c0,0.3,0.1,0.6,0.2,1c0.1,0.3,0.4,0.6,0.7,0.7c1.2,0.2,2.4,0.5,3.4-0.7c1.2-1.4,2.8-1.6,4.4-1.2c1.6,0.4,2.1,1,2.2,2.8
	c0.1,1.3,0,2.6,0,3.9c0,5-0.1,10,0,14.9c0.1,2.7-1.8,3.4-3.8,3.3c-0.3,0-0.6-0.1-1-0.2c-1.3-0.2-2-1-2.1-2.3
	c-0.1-0.7-0.1-1.5-0.1-2.2c0-3.1,0-6.2,0-9.3c0-0.7,0-1.3-0.1-2c-0.1-0.9-0.5-1.3-1.4-1.4c-0.4,0-0.8,0-1.2,0
	c-0.7,0.1-1.1,0.4-1.1,1.1c-0.1,1-0.1,2-0.1,2.9c0,54.7,0,109.3,0,164c0,0.7,0,1.3,0,2c0.1,1.7,0.3,2,2,2.1c0.3,0,0.7,0,1,0
	c3,0,6,0,9,0c0.6,0,1.1,0,1.7-0.1c0.8-0.1,1.2-0.4,1.2-1.3c0.1-1,0-2,0-2.9C154.6,296,154.6,239.8,154.6,183.6z M82.6,73.3
	c-16.7,0-33.4,0-50.1,0c-0.7,0-1.5,0-2.2,0c-1.2,0.1-1.5,0.4-1.6,1.7c0,0.6,0,1.1,0,1.7c0,4.9,0,9.8,0,14.7c0,3.1,0,6.2,0,9.3
	c0,2.7,0.1,2.8,2.9,2.9c0.5,0,1,0,1.5,0c5.1,0,10.1,0,15.2,0c28.2,0,56.4,0,84.6,0c3.1,0,3.2-0.1,3.2-3.1c0-7.9,0-15.8,0-23.7
	c0-3.5,0-3.4-3.3-3.4C116,73.3,99.3,73.3,82.6,73.3z M82.4,166.6c16.5,0,33.1,0,49.6,0c0.8,0,1.6,0,2.4,0c1.2-0.1,1.5-0.4,1.6-1.7
	c0-0.3,0-0.7,0-1c0-8.2,0-16.3,0-24.5c0-0.5,0-1-0.1-1.5c-0.1-0.6-0.5-1.1-1.1-1.1c-1-0.1-2-0.1-2.9-0.1c-33.1,0-66.2,0-99.3,0
	c-0.7,0-1.3,0-2,0c-1.7,0.1-2,0.4-2.1,2c0,0.3,0,0.7,0,1c0,8,0,16,0,24c0,0.6,0,1.1,0.1,1.7c0.1,0.7,0.4,1.1,1.1,1.1
	c0.9,0.1,1.8,0.1,2.7,0.1C49.1,166.6,65.8,166.6,82.4,166.6z M82.1,229.8c16.6,0,33.3,0,49.9,0c4.4,0,4.1,0.1,4.1-4.2
	c0-7.3,0-14.7,0-22c0-0.7,0-1.3,0-2c-0.1-1.3-0.4-1.7-1.8-1.8c-0.8-0.1-1.6,0-2.4,0c-32.9,0-65.9,0-98.8,0c-0.5,0-1,0-1.5,0
	c-2.7,0-2.8,0.1-2.8,3c0,8,0,16,0,24c0,0.5,0,1,0,1.5c0.1,1,0.5,1.4,1.6,1.5c0.8,0.1,1.6,0.1,2.4,0.1
	C49.2,229.8,65.6,229.8,82.1,229.8z M82.4,40.2c16.9,0,33.8,0,50.6,0c3.1,0,3.1,0,3.1-3.2c0-7.8,0-15.7,0-23.5
	c0-3.1-0.1-3.1-3.2-3.1c-33.7,0-67.4,0-101,0c-3.1,0-3.2,0.1-3.2,3.1c0,7.9,0,15.8,0,23.7c0,0.5,0,1,0,1.5c0.1,1.1,0.4,1.4,1.5,1.5
	c0.8,0.1,1.6,0,2.4,0C49.2,40.2,65.8,40.2,82.4,40.2z M82.3,293c17,0,33.9,0,50.8,0c2.8,0,2.9-0.2,2.9-2.9c0-8.1,0-16.1,0-24.2
	c0-0.6,0-1.1-0.1-1.7c-0.1-0.5-0.4-0.9-1-1c-0.7-0.1-1.5-0.1-2.2-0.1c-33.7,0-67.3,0-101,0c-3.2,0-3.2,0-3.2,3.1
	c0,7.9,0,15.8,0,23.7c0,0.6,0,1.1,0.1,1.7c0.1,0.8,0.5,1.2,1.2,1.3c0.9,0.1,1.8,0.1,2.7,0.1C49.2,293,65.7,293,82.3,293z
	 M82.4,322.7c16.8,0,33.6,0,50.4,0c3.3,0,3.3,0,3.3-3.4c0-6.4,0-12.9,0-19.3c0-3.6,0.1-3.4-3.5-3.4c-8.6,0-17.1,0-25.7,0
	c-24.9,0-49.7,0-74.6,0c-3.8,0-3.6-0.1-3.6,3.7c0,6.4,0,12.7,0,19.1c0,0.7,0,1.3,0,2c0.1,1.1,0.4,1.4,1.5,1.5c0.8,0.1,1.6,0,2.4,0
	C49.2,322.7,65.8,322.7,82.4,322.7z M82.1,133.2c17,0,34.1,0,51.1,0c2.8,0,2.8,0,2.8-2.9c0-6.7,0-13.4,0-20.1c0-3.2,0-3.2-3.3-3.2
	c-7.1,0-14.2,0-21.3,0c-26.6,0-53.2,0-79.7,0c-3.1,0-3.1,0-3.1,3.1c0,6.6,0,13.2,0,19.8c0,0.6,0,1.1,0,1.7c0.1,1.1,0.4,1.4,1.5,1.4
	c0.7,0,1.5,0,2.2,0C49,133.2,65.5,133.2,82.1,133.2z M82.1,259.6c16.9,0,33.8,0,50.6,0c3.3,0,3.3,0,3.3-3.4c0-6.4,0-12.9,0-19.3
	c0-3.6,0.1-3.4-3.5-3.4c-8.4,0-16.8,0-25.2,0c-25.1,0-50.2,0-75.4,0c-3.4,0-3.3,0-3.3,3.4c0,6.4,0,12.9,0,19.3c0,0.7,0,1.3,0,2
	c0.1,1.1,0.4,1.4,1.5,1.5c0.8,0.1,1.6,0,2.4,0C49.2,259.6,65.6,259.6,82.1,259.6z M82.6,170.2c-16.7,0-33.4,0-50.1,0
	c-0.8,0-1.6,0-2.4,0c-0.9,0.1-1.3,0.4-1.3,1.4c0,0.4,0,0.8,0,1.2c0,6.9,0,13.9,0,20.8c0,0.6,0,1.1,0.1,1.7c0.1,0.5,0.4,0.9,1,0.9
	c0.7,0.1,1.5,0.1,2.2,0.1c33.6,0,67.2,0,100.7,0c0.7,0,1.3,0,2,0c1-0.1,1.3-0.4,1.4-1.3c0.1-0.9,0-1.8,0-2.7c0-2.1,0-4.2,0-6.4
	c0-1.2-0.4-1.5-1.6-1.7c-0.6-0.1-1.1,0-1.7-0.1c-0.5-0.1-1-0.2-1.4-0.4c-1-0.5-1.6-1.6-1.5-2.6c0.2-1,0.9-1.7,2-1.9
	c0.5-0.1,1-0.1,1.5-0.1c0.5,0,1,0,1.5,0c0.8-0.1,1.3-0.4,1.3-1.2c0-2.2,0-4.4,0-6.6c0-0.8-0.4-1.1-1.3-1.2c-0.8-0.1-1.6,0-2.4,0
	C115.7,170.2,99.2,170.2,82.6,170.2z M82.6,43.8c-17,0-33.9,0-50.8,0c-3.1,0-3.1,0-3.1,3.2c0,6.5,0,13,0,19.6c0,0.5,0,1,0,1.5
	c0.1,1.3,0.4,1.6,1.6,1.7c0.9,0.1,1.8,0,2.7,0c32.9,0,65.8,0,98.8,0c0.5,0,1,0,1.5,0c2.7,0,2.9-0.2,2.9-3c0-6.7,0-13.4,0-20.1
	c0-0.5,0-1,0-1.5c-0.1-1-0.4-1.3-1.4-1.4c-0.8-0.1-1.6-0.1-2.4-0.1C115.7,43.8,99.2,43.8,82.6,43.8z M82.3,339.9
	c16.5,0,33.1,0,49.6,0c0.8,0,1.6,0,2.4,0c1.3-0.1,1.7-0.4,1.7-1.6c0-3.4,0-6.9,0-10.3c0-0.2,0-0.3-0.1-0.5c-0.1-0.6-0.5-1.1-1.1-1.1
	c-1-0.1-2-0.1-2.9-0.1c-28.8,0-57.5,0-86.3,0c-4.6,0-9.1,0-13.7,0c-0.7,0-1.3,0-2,0.1c-0.8,0.1-1.2,0.4-1.3,1.2c0,0.3-0.1,0.7-0.1,1
	c0,3,0,6,0,9.1c0,0.4,0,0.8,0.1,1.2c0.1,0.5,0.4,0.9,1,1c0.9,0.1,1.8,0.1,2.7,0.1C49,339.9,65.6,339.9,82.3,339.9z M82.4,356.5
	c16.6,0,33.3,0,49.9,0c0.7,0,1.5,0,2.2,0c1.3-0.1,1.6-0.4,1.6-1.7c0-3.2,0-6.4,0-9.5c0-0.2,0-0.3,0-0.5c-0.1-0.8-0.4-1.2-1.2-1.3
	c-1-0.1-2-0.1-2.9-0.1c-33,0-66,0-99,0c-0.7,0-1.5,0-2.2,0c-0.3,0-0.7,0-1,0.1c-0.5,0.1-0.9,0.5-0.9,1c-0.1,0.6-0.1,1.1-0.1,1.7
	c0,2.3,0,4.6,0,6.9c0,3.4-0.1,3.4,3.3,3.4C48.8,356.5,65.6,356.5,82.4,356.5z M6.8,180.3c0-57.4,0-114.9,0-172.3c0-1,0-2,0-2.9
	C6.7,4,6.3,3.6,5.4,3.6C4.4,3.5,3.7,3.9,3.6,4.8c-0.1,1-0.1,2-0.1,2.9c0,29,0,57.9,0,86.9c0,85.7,0,171.4,0,257c0,1,0,2,0,2.9
	c0.1,1.5,0.7,2,2.2,1.8c0.7-0.1,1-0.4,1-1.1c0.1-1,0.1-2,0.1-2.9C6.8,295,6.8,237.6,6.8,180.3z M161.5,180c0-57.4,0-114.7,0-172.1
	c0-0.9,0-1.8,0-2.7c-0.1-1.2-0.5-1.7-1.6-1.7c-1.1,0-1.6,0.5-1.6,1.7c-0.1,0.9,0,1.8,0,2.7c0,23.8,0,47.7,0,71.5
	c0,90.7,0,181.5,0,272.2c0,1.1,0,2.1,0,3.2c0.1,1.2,0.5,1.6,1.7,1.6c1.1,0,1.5-0.3,1.6-1.4c0.1-0.9,0-1.8,0-2.7
	C161.5,294.9,161.5,237.5,161.5,180z M82.6,6.9c22.7,0,45.3,0,68,0c0.8,0,1.6,0,2.4,0c1.3-0.1,1.7-0.5,1.6-1.9
	c-0.1-0.9-0.4-1.3-1.4-1.4c-0.9-0.1-1.8-0.1-2.7-0.1c-45.2,0-90.5,0-135.7,0c-0.7,0-1.5,0-2.2,0c-0.4,0-0.8,0.1-1.2,0.2
	c-0.7,0.2-1,0.9-0.9,1.8c0.1,0.8,0.4,1.2,1.2,1.3c0.9,0.1,1.8,0.1,2.7,0.1C37.1,6.9,59.8,6.9,82.6,6.9z"/>
</svg>
