<?xml version="1.0" encoding="utf-8"?>
<!-- Generator: Adobe Illustrator 25.0.0, SVG Export Plug-In . SVG Version: 6.00 Build 0)  -->
<svg version="1.1" id="Layer_1" xmlns="http://www.w3.org/2000/svg" xmlns:xlink="http://www.w3.org/1999/xlink" x="0px" y="0px"
	 viewBox="0 0 165 360" style="enable-background:new 0 0 165 360;" xml:space="preserve">
<path d="M0,180C0,121.4,0,62.8,0,4.2c0-0.8,0-1.6,0-2.5C0.1,0.5,0.5,0.1,1.9,0c0.7,0,1.3,0,2,0c33.3,0,66.6,0,100,0
	c19.2,0,38.3,0,57.5,0c0.7,0,1.5,0,2.2,0c0.8,0.1,1.3,0.6,1.5,1.4c0.1,0.3,0.1,0.7,0.1,1c0,0.7,0,1.3,0,2c0,117.1,0,234.2,0,351.4
	c0,0.9,0,1.8-0.1,2.7c-0.1,0.9-0.7,1.5-1.6,1.5c-0.6,0.1-1.1,0-1.7,0c-52.7,0-105.4,0-158.2,0c-3.8,0-3.4-0.7-3.4-3.4
	C0,297.7,0,238.9,0,180z M28.3,119.8c0,29.3,0,58.7,0,88c0,0.7,0,1.5,0,2.2c0,1.6,0.2,1.7,1.7,1.7c0.4,0,0.8,0,1.2,0
	c34.2,0,68.4,0,102.6,0c0.7,0,1.3,0,2-0.1c0.5,0,0.8-0.3,0.8-0.8c0-0.7,0-1.3,0-2c0-7.4,0-14.9,0-22.3c0-0.5,0-1,0-1.5
	c0-1.1-0.1-1.2-1.3-1.3c-1.1-0.1-2.1,0-3.2-0.2c-1.1-0.1-1.9-1.1-1.9-2.2c0-1.2,0.7-1.9,2-2c0.7-0.1,1.5-0.1,2.2-0.1
	c2.1,0,2.2,0.1,2.2-2.2c0-0.2,0-0.3,0-0.5c0-48.7,0-97.4,0-146.1c0-0.5,0-1,0-1.5c-0.1-0.8-0.3-1.1-1-1.1c-1.4,0-2.8-0.1-4.2,0
	c-3.8,0.2-7.5-0.4-11.1-1.6c-2.5-0.8-5-1.5-7.6-2c-3.7-0.7-7.4-1.3-11.1-1.8c-3.1-0.5-6.2-1-9.2-1.1c-4.8-0.2-9.6-0.6-14.4-0.2
	c-2.1,0.2-4.3,0-6.4,0.3c-5.5,0.7-11,1.3-16.5,2.3c-1.9,0.4-3.9,0.7-5.8,1.2c-2.4,0.6-4.7,1.3-7.1,2c-2,0.6-4,0.9-6,0.9
	c-1.7,0-3.4,0-5.2,0c-0.6,0-1.1,0-1.7,0c-0.6,0-0.9,0.4-0.9,0.9c0,0.8-0.1,1.6-0.1,2.5C28.3,61,28.3,90.4,28.3,119.8z M82.3,323.3
	c17.1,0,34.2,0,51.3,0c3.4,0,3,0.4,3-3c0-28,0-56.1,0-84.1c0-0.6,0-1.1,0-1.7c0-1.3-0.1-1.4-1.4-1.5c-0.6,0-1.1,0-1.7,0
	c-34.1,0-68.1,0-102.1,0c-3.3,0-3.1-0.3-3.1,3c0,28.1,0,56.2,0,84.3c0,3.2-0.3,2.9,2.9,2.9C48.3,323.3,65.3,323.3,82.3,323.3z
	 M9.8,183.2c0,56.7,0,113.4,0,170.1c0,0.8,0,1.6,0,2.5c0,1.2,0.1,1.3,1.3,1.3c4.3,0,8.7,0,13,0c0.2,0,0.5,0,0.7-0.1
	c0.4-0.1,0.6-0.3,0.6-0.7c0-1,0.1-2,0.1-2.9c0-113.3,0-226.7,0-340c0-0.7,0-1.5,0-2.2c0-0.2,0-0.5-0.1-0.7c-0.1-0.4-0.3-0.6-0.6-0.6
	c-0.6-0.1-1.1-0.1-1.7-0.1c-3.3,0-6.5,0-9.8,0c-4,0-3.4-0.6-3.4,3.6C9.8,69.9,9.8,126.6,9.8,183.2z M155.2,183.4
	c0-56.7,0-113.4,0-170.2c0-0.9,0-1.8,0-2.7c0-0.5-0.3-0.8-0.7-0.8c-0.6,0-1.1-0.1-1.7-0.1c-3.6,0-7.2,0-10.8,0c-0.5,0-1,0-1.5,0
	c-0.6,0-0.9,0.3-0.9,0.9c0,0.7,0,1.5,0,2.2c0,54.4,0,108.9,0,163.3c0,3.7-0.3,3.3,3.3,3c0.7-0.1,1.3-0.1,1.5-0.9
	c0.2-0.7,0.8-1,1.5-1.1c0.7-0.1,1.5-0.2,2.2-0.2c1.9,0.2,2.3,0.7,2.4,2.7c0,0.2,0,0.3,0,0.5c0,6,0,12.1,0,18.1c0,0.6,0,1.1-0.1,1.7
	c0,0.4-0.3,0.8-0.7,0.9c-0.4,0.2-0.8,0.3-1.2,0.4c-1.4,0.5-2.6,0.1-3.7-0.7c-0.8-0.6-0.6-1.6-0.6-2.5c0-0.5,0-1,0-1.5
	c0-3.3,0-6.5,0-9.8c0-0.7,0-1.3-0.1-2c0-0.4-0.3-0.7-0.8-0.8c-0.4-0.1-0.8-0.1-1.2-0.1c-2.5-0.2-2.5-0.1-2.6,2.5c0,0.6,0,1.1,0,1.7
	c0,23.2,0,46.4,0,69.6c0,32,0,64.1,0,96.1c0,0.8,0,1.6,0.1,2.5c0,0.4,0.3,0.6,0.6,0.6c0.6,0,1.1,0.1,1.7,0.1c3.3,0,6.5,0,9.8,0
	c4.1,0,3.5,0.6,3.5-3.5C155.3,296.9,155.2,240.2,155.2,183.4z M82.8,214.5c-17,0-34.1,0-51.1,0c-0.8,0-1.6,0-2.5,0.1
	c-0.6,0-0.9,0.4-0.9,1c0,0.6,0,1.1,0,1.7c0,3.3,0,6.5,0,9.8c0,3.5-0.3,3.1,3.2,3.1c34,0,68,0,101.9,0c0.7,0,1.3,0,2,0
	c1.1,0,1.3-0.2,1.3-1.3c0-3.8,0-7.5,0-11.3c0-3.3,0.3-3-3-3C116.7,214.5,99.8,214.5,82.8,214.5z M82.6,340.4c16.9,0,33.9,0,50.8,0
	c0.7,0,1.3,0,2,0c1.2,0,1.3-0.1,1.3-1.2c0-3.5,0-7,0-10.5c0-2.7,0.2-2.5-2.5-2.5c-34.4,0-68.7,0-103.1,0c-0.7,0-1.3,0-2,0.1
	c-0.4,0-0.6,0.2-0.7,0.6c-0.1,0.6-0.1,1.1-0.1,1.7c0,3,0,6,0,9.1c0,3.2-0.3,2.9,2.9,2.9C48.3,340.4,65.5,340.4,82.6,340.4z
	 M82.6,357.1c16.9,0,33.9,0,50.8,0c0.7,0,1.3,0,2,0c1.2,0,1.3-0.1,1.3-1.3c0-3.8,0-7.5,0-11.3c0-0.2,0-0.3,0-0.5
	c0-0.5-0.3-0.7-0.8-0.7c-0.5,0-1,0-1.5,0c-34.5,0-69.1,0-103.6,0c-0.6,0-1.1,0-1.7,0.1c-0.4,0-0.6,0.2-0.6,0.6
	c-0.1,0.6-0.1,1.1-0.1,1.7c0,2.9,0,5.7,0,8.6c0,3.2-0.3,2.9,2.9,2.9C48.4,357.1,65.5,357.1,82.6,357.1z M162.1,180
	c0-57.5,0-115.1,0-172.6c0-0.7,0-1.3,0-2c0-0.4,0-0.8,0-1.2c0-1.2-0.2-1.3-1.2-1.3c-3,0-2.7-0.3-2.7,2.5c0,0.5,0,1,0,1.5
	c0,115.5,0,231,0,346.4c0,0.7,0,1.3,0,2c0,1.8,0,1.8,2,1.8c2,0,2,0,2-2c0-0.7,0-1.3,0-2C162.1,295.4,162.1,237.7,162.1,180z
	 M6.9,180c0-57.9,0-115.7,0-173.6c0-0.9,0-1.8,0-2.7c0-0.5-0.3-0.8-0.7-0.8c-0.3,0-0.7-0.1-1-0.1c-2.2,0-2.2,0-2.2,2.1
	c0,0.6,0,1.1,0,1.7c0,115.6,0,231.1,0,346.7c0,0.8,0,1.6,0,2.5c0,0.2,0,0.5,0.1,0.7c0.1,0.2,0.3,0.5,0.4,0.5
	c1.1,0.1,2.2,0.4,3.1-0.1c0.7-0.4,0.3-1.5,0.4-2.3c0-0.6,0-1.1,0-1.7C6.9,295.2,6.9,237.6,6.9,180z M82.6,9.7c-17,0-34,0-51,0
	c-0.8,0-1.6,0-2.5,0.1c-0.4,0-0.6,0.2-0.7,0.6c-0.1,0.6-0.1,1.1-0.1,1.7c0,3.6,0,7.2,0,10.8c0,0.5,0,1,0,1.5c0.1,0.7,0.3,1,1.1,1
	c1.6,0,3.1,0,4.7,0c2.8,0.1,5.5-0.4,8.2-1.1c2.8-0.8,5.6-1.8,8.5-2.3c4.5-0.7,9-1.5,13.5-2.2c2.8-0.4,5.7-0.8,8.5-1
	c5-0.2,10-0.5,14.9-0.2c1.7,0.1,3.4,0,5.1,0.2c3,0.3,6,0.8,9,1.2c7,0.9,13.9,2,20.6,4.2c4.3,1.4,8.7,1.1,13.1,1.1c0.1,0,0.2,0,0.2,0
	c0.4-0.1,0.6-0.3,0.6-0.6c0.1-0.6,0.1-1.1,0.1-1.7c0-3.5,0-7,0-10.5c0-3,0.3-2.7-2.8-2.7C116.7,9.7,99.6,9.7,82.6,9.7z M82.3,2.9
	c-23.1,0-46.2,0-69.2,0c-0.8,0-1.6,0-2.5,0c-0.5,0-0.8,0.3-0.8,0.7c0,0.5,0,1,0,1.5c0,1.6,0.1,1.7,1.6,1.7c0.7,0,1.3,0,2,0
	c46.1,0,92.2,0,138.2,0c0.7,0,1.3,0,2,0c1.6,0,1.7-0.1,1.7-1.7c0.1-2.3,0.1-2.3-2.2-2.3c-0.6,0-1.2,0-1.7,0
	C128.3,2.9,105.3,2.9,82.3,2.9z M147.2,193.4c0.5-2.8,0.5-6.7-0.2-8.6C147.1,187.8,146.9,190.4,147.2,193.4z"/>
</svg>
