<?xml version="1.0" encoding="utf-8"?>
<!-- Generator: Adobe Illustrator 25.0.0, SVG Export Plug-In . SVG Version: 6.00 Build 0)  -->
<svg version="1.1" id="Layer_1" xmlns="http://www.w3.org/2000/svg" xmlns:xlink="http://www.w3.org/1999/xlink" x="0px" y="0px"
	 viewBox="0 0 165 360" style="enable-background:new 0 0 165 360;" xml:space="preserve">
<path d="M165,180.1c0,58.2,0,116.4,0,174.5c0,1.1,0,2.1-0.1,3.2c-0.1,1.3-0.7,1.8-2,2.1c-0.5,0.1-1,0.1-1.5,0.1c-0.7,0-1.3,0-2,0
	c-51.4,0-102.8,0-154.2,0c-0.9,0-1.8,0-2.7-0.1c-1.9-0.2-2.4-0.7-2.6-2.6c0-0.4,0-0.8,0-1.2c0-0.7,0-1.3,0-2C0,238.1,0,122.1,0,6
	c0-1.2,0-2.5,0.1-3.7C0.3,0.6,0.8,0.1,2.6,0c0.7,0,1.3,0,2,0c52,0,103.9,0,155.9,0c0.8,0,1.6,0,2.4,0.1c1.2,0.1,1.7,0.7,2,1.8
	c0.1,0.5,0.1,1,0.1,1.5c0,0.9,0,1.8,0,2.7C165,64.1,165,122.1,165,180.1z M25.3,183.5c0-51.8,0-103.6,0-155.5c0-4.6,0-9.3,0-14
	c0-0.7,0-1.3,0-2c-0.1-1.3-0.4-1.7-1.8-1.8c-0.3,0-0.7,0-1,0c-3.1,0-6.2,0-9.3,0c-0.5,0-1,0-1.5,0.1c-0.9,0.1-1.3,0.5-1.4,1.5
	c-0.1,0.9-0.1,1.8-0.1,2.7c0,112.6,0,225.2,0,337.9c0,0.7,0,1.3,0,2c0.1,1.7,0.3,2,2,2.1c0.3,0,0.7,0,1,0c3,0,6,0,9.1,0
	c0.6,0,1.1,0,1.7-0.1c0.8-0.1,1.2-0.4,1.2-1.3c0.1-1,0-2,0-2.9C25.3,296,25.3,239.8,25.3,183.5z M154.7,183.5c0-27.7,0-55.5,0-83.2
	c0-28.6,0-57.1,0-85.7c0-0.9,0-1.8-0.1-2.7c-0.1-0.9-0.5-1.3-1.4-1.4c-0.4-0.1-0.8-0.1-1.2-0.1c-3.1,0-6.2,0-9.3,0
	c-0.4,0-0.8,0-1.2,0.1c-1,0.1-1.4,0.5-1.5,1.6c-0.1,0.7-0.1,1.3-0.1,2c0,31.1,0,62.2,0,93.3c0,1.2,0,2.5,0.4,3.6
	c0.2,0.6,0.2,1.3,0,1.9c-0.4,2-0.4,4.1-0.4,6.1c0,7.6,0,15.2,0,22.8c0,11.2,0,22.4,0,33.5c0,0.8,0,1.6,0.1,2.4
	c0.1,0.6,0.5,1,1.1,1.1c1.1,0.1,2.1,0.2,2.9-0.8c1.4-1.7,3.3-1.6,5.1-1c0.9,0.3,1.4,0.9,1.5,1.8c0.1,0.6,0.1,1.3,0.1,2
	c0,2.6,0,5.2,0,7.8c0,3.3,0,6.7,0,10c0,2.1-0.7,2.7-2.8,3c-0.6,0.1-1.1,0.1-1.7,0c-1.8-0.3-2.3-1-2.4-2.8c0-0.6,0-1.1,0-1.7
	c0-3.2,0-6.4,0-9.5c0-0.7,0-1.3-0.1-2c-0.1-0.7-0.4-1-1.1-1.1c-0.3,0-0.7-0.1-1-0.1c-1.2,0-1.6,0.4-1.7,1.6c-0.1,1-0.1,2-0.1,2.9
	c0,54.3,0,108.7,0,163c0,0.6,0,1.1,0,1.7c0,0.4,0,0.8,0,1.2c0.1,1.1,0.5,1.5,1.5,1.6c0.3,0,0.7,0,1,0c3.3,0,6.5,0,9.8,0
	c0.3,0,0.7,0,1,0c0.9-0.1,1.4-0.4,1.4-1.4c0.1-1,0.1-2,0.1-2.9C154.7,295.9,154.7,239.7,154.7,183.5z M82.5,41.2
	c16.6,0,33.1,0,49.7,0c0.7,0,1.5,0,2.2,0c1.8-0.1,2-0.3,2.1-2c0-0.2,0-0.3,0-0.5c0-8.6,0-17.1,0-25.7c0-0.5,0-1-0.1-1.5
	c-0.1-0.6-0.5-1.1-1.1-1.1c-1-0.1-2-0.1-2.9-0.1c-33,0-66.1,0-99.1,0c-0.5,0-1,0-1.5,0c-2.6,0.1-2.8,0.3-2.9,2.8c0,0.2,0,0.5,0,0.7
	c0,8,0,16,0,24c0,0.7,0,1.3,0.1,2c0.1,0.9,0.5,1.3,1.5,1.4c0.8,0.1,1.6,0.1,2.4,0.1C49.3,41.2,65.9,41.2,82.5,41.2z M82.7,109.7
	c16.6,0,33.1,0,49.7,0c0.7,0,1.5,0,2.2,0c1.5-0.1,1.7-0.3,1.8-1.7c0-0.4,0-0.8,0-1.2c0-6.6,0-13.2,0-19.8c0-2.9,0-2.9-3.1-2.9
	c-5,0-10,0-14.9,0c-28.8,0-57.6,0-86.4,0c-3.2,0-3.2,0-3.2,3.3c0,6.4,0,12.7,0,19.1c0,0.5,0,1,0,1.5c0.1,1.4,0.4,1.7,1.8,1.8
	c0.8,0.1,1.6,0,2.4,0C49.6,109.7,66.2,109.7,82.7,109.7z M82.7,49.8c-16.9,0-33.8,0-50.7,0c-3.2,0-3.2,0-3.2,3.3
	c0,6.3,0,12.6,0,18.8c0,3.6,0,3.6,3.7,3.6c33.5,0,66.9,0,100.4,0c0.7,0,1.3,0,2,0c1.1-0.1,1.5-0.4,1.5-1.5c0-0.5,0-1,0-1.5
	c0-6.6,0-13.2,0-19.8c0-0.6,0-1.1-0.1-1.7c-0.1-0.8-0.4-1.1-1.3-1.2c-0.8-0.1-1.6,0-2.4,0C116,49.7,99.4,49.7,82.7,49.8z
	 M82.7,152.1c-17,0-33.9,0-50.9,0c-2.9,0-3,0.1-3,3c0,6.5,0,13,0,19.6c0,0.3,0,0.7,0,1c0.1,1.7,0.4,2,2,2.1c0.7,0,1.5,0,2.2,0
	c33.1,0,66.2,0,99.4,0c0.5,0,1,0,1.5,0c2.4,0,2.5-0.2,2.6-2.4c0-0.2,0-0.3,0-0.5c0-6.6,0-13.2,0-19.8c0-0.5,0-1,0-1.5
	c-0.1-1.1-0.4-1.4-1.5-1.4c-0.7,0-1.5,0-2.2,0C116,152.1,99.4,152.1,82.7,152.1z M83,186.3c-16.9,0-33.8,0-50.6,0
	c-3.3,0-3.4,0-3.4,3.4c-0.1,6.5-0.1,13-0.1,19.6c0,0.5,0,1,0.1,1.5c0.1,0.8,0.5,1.2,1.3,1.2c0.8,0.1,1.6,0.1,2.4,0.1
	c33.4,0,66.9,0,100.3,0c0.5,0,1,0,1.5,0c1.8-0.1,2-0.2,2-2c0-0.3,0-0.7,0-1c0-6.6,0-13.2,0-19.8c0-0.3,0-0.7,0-1
	c-0.1-1.6-0.3-1.9-1.8-1.9c-0.7,0-1.5,0-2.2,0C115.9,186.3,99.4,186.3,83,186.3z M82.8,246.3c17,0,33.9,0,50.9,0
	c2.7,0,2.7-0.1,2.7-2.8c0-6.5,0-13.1,0-19.6c0-3.4,0-3.4-3.3-3.4c-19.3,0-38.5,0-57.8,0c-14.4,0-28.9,0-43.3,0
	c-3.1,0-3.2,0.1-3.2,3.2c0,6.5,0,13.1,0,19.6c0,0.6,0,1.1,0.1,1.7c0.1,0.8,0.5,1.2,1.3,1.2c0.8,0.1,1.6,0.1,2.4,0.1
	C49.3,246.3,66,246.3,82.8,246.3z M82.9,254.8c-17,0-33.9,0-50.9,0c-3.1,0-3.2,0.1-3.2,3.1c0,6.4,0,12.7,0,19.1c0,0.5,0,1,0,1.5
	c0.1,1.3,0.5,1.7,1.9,1.8c0.9,0.1,1.8,0,2.7,0c30.8,0,61.5,0,92.3,0c2.6,0,5.2,0,7.8,0c2.8,0,2.9-0.1,2.9-2.9c0-6.6,0-13.2,0-19.8
	c0-0.4,0-0.8,0-1.2c-0.1-1.1-0.4-1.4-1.5-1.5c-0.8-0.1-1.6,0-2.4,0C115.9,254.8,99.4,254.8,82.9,254.8z M82.4,143.6
	c16.7,0,33.4,0,50.1,0c0.8,0,1.6,0,2.4-0.1c0.9-0.1,1.3-0.4,1.4-1.4c0-0.5,0-1,0-1.5c0-6.5,0-13,0-19.6c0-2.8,0-2.8-2.9-2.8
	c-33.8,0-67.7,0-101.5,0c-3.1,0-3.2,0.1-3.2,3.1c0,6.4,0,12.7,0,19.1c0,0.2,0,0.5,0,0.7c0.1,2,0.4,2.3,2.3,2.4c0.7,0,1.5,0,2.2,0
	C49.7,143.6,66,143.6,82.4,143.6z M82.7,314.4c16.9,0,33.8,0,50.6,0c3,0,3,0,3.1-2.9c0-6.4,0-12.9,0-19.3c0-0.3,0-0.7,0-1
	c-0.1-1.8-0.3-2.1-2.2-2.1c-0.8,0-1.6,0-2.4,0c-25.6,0-51.2,0-76.8,0c-7.6,0-15.2,0-22.8,0c-3.2,0-3.4,0.1-3.4,3.2
	c0,6.4,0,12.7,0,19.1c0,0.6,0,1.1,0.1,1.7c0.1,0.8,0.5,1.2,1.3,1.3c0.8,0.1,1.6,0.1,2.4,0.1C49.3,314.4,66,314.4,82.7,314.4z
	 M82.4,339.9c16.7,0,33.4,0,50.2,0c0.8,0,1.6,0,2.4,0c0.9-0.1,1.2-0.4,1.3-1.4c0-0.4,0-0.8,0-1.2c0-3.8,0-7.7,0-11.5
	c0-0.4,0-0.8,0-1.2c-0.1-1.1-0.4-1.4-1.5-1.5c-0.8,0-1.6,0-2.5,0c-33.1,0-66.2,0-99.4,0c-0.6,0-1.1,0-1.7,0c-2.3,0-2.5,0.2-2.5,2.5
	c0,3.9,0,7.8,0,11.7c0,0.1,0,0.2,0,0.2c0.1,2,0.3,2.3,2.3,2.3c0.7,0,1.3,0,2,0C49.5,339.9,66,339.9,82.4,339.9z M82.7,356.5
	c16.7,0,33.5,0,50.2,0c0.8,0,1.6,0,2.4-0.1c0.5,0,0.9-0.4,1-0.9c0.1-0.5,0.1-1,0.1-1.5c0-2.4,0-4.7,0-7.1c0-0.6,0-1.1,0-1.7
	c-0.1-1.4-0.4-1.7-1.8-1.7c-0.7,0-1.3,0-2,0c-33.3,0-66.6,0-99.9,0c-0.7,0-1.3,0-2,0c-1.5,0.1-1.9,0.4-2,1.9c-0.1,3.1-0.1,6.2,0,9.3
	c0,1.4,0.4,1.7,1.7,1.8c0.7,0,1.5,0,2.2,0C49.4,356.5,66.1,356.5,82.7,356.5z M6.7,180.1c0-55.9,0-111.8,0-167.7c0-2,0-4.1,0-6.1
	c0-0.6,0-1.1-0.1-1.7c-0.1-0.7-0.7-1-1.5-1s-1.4,0.4-1.5,1C3.5,5.5,3.5,6.4,3.5,7.3c0,115.2,0,230.5,0,345.7c0,0.7,0,1.3,0,2
	c0.1,1.2,0.5,1.6,1.7,1.5c1,0,1.4-0.4,1.4-1.3c0.1-1,0.1-2,0.1-2.9C6.7,294.9,6.7,237.5,6.7,180.1z M158.3,179.9
	c0,57.5,0,114.9,0,172.4c0,0.9,0,1.8,0,2.7c0.1,1.2,0.5,1.6,1.7,1.6c1,0,1.4-0.3,1.4-1.3c0.1-1.1,0.1-2.1,0.1-3.2
	c0-114.6,0-229.2,0-343.7c0-0.7,0-1.5,0-2.2c0-0.4,0-0.8-0.1-1.2c-0.1-0.9-0.6-1.2-1.5-1.2c-0.9,0-1.5,0.4-1.5,1.2
	c-0.1,1-0.1,2-0.1,2.9C158.3,65.1,158.3,122.5,158.3,179.9z M82.5,6.9c22.8,0,45.5,0,68.3,0c0.8,0,1.6,0,2.5,0
	c0.9-0.1,1.3-0.5,1.4-1.4c0.1-1.1-0.3-1.7-1.2-1.8c-1-0.1-2-0.1-2.9-0.1c-45.4,0-90.7,0-136.1,0c-0.7,0-1.3,0-2,0
	c-0.3,0-0.7,0-1,0.1c-0.8,0.2-1.2,0.8-1.1,1.9c0.1,0.8,0.4,1.2,1.2,1.3c0.9,0.1,1.8,0.1,2.7,0.1C37,6.9,59.8,6.9,82.5,6.9z
	 M82.4,285.5c16.7,0,33.4,0,50.1,0c0.7,0,1.5,0,2.2,0c1.1,0,1.5-0.3,1.5-0.9c-0.1-0.5-0.4-0.7-1.6-0.8c-0.8,0-1.6,0-2.4,0
	c-32.1,0-64.2,0-96.4,0c-1.4,0-2.8,0-4.2,0c-0.6,0-1.1,0-1.7,0.1c-0.4,0-0.8,0.2-0.9,0.7c-0.1,0.4,0.3,0.8,1,0.9
	c0.8,0.1,1.6,0.1,2.4,0.1C49.2,285.5,65.8,285.5,82.4,285.5z M82.7,317.9c-16.6,0-33.1,0-49.7,0c-0.8,0-1.6,0-2.5,0
	c-0.3,0-0.7,0.1-0.9,0.2c-0.2,0.1-0.4,0.4-0.3,0.6c0,0.2,0.2,0.5,0.4,0.5c1,0.4,2.1,0.2,3.2,0.2c33.2,0,66.4,0,99.6,0
	c0.7,0,1.5,0,2.2,0c0.3,0,0.7-0.1,1-0.2c0.2-0.1,0.4-0.3,0.4-0.5c0.1-0.4-0.2-0.7-0.5-0.7c-0.9-0.1-1.8-0.2-2.7-0.2
	C116.1,317.9,99.4,317.9,82.7,317.9z M82.4,114.7c16.7,0,33.4,0,50.1,0c0.8,0,1.6,0,2.4,0c0.7,0,1.2-0.4,1.1-0.7
	c-0.1-0.5-0.5-0.6-1-0.6c-0.9,0-1.8-0.1-2.7-0.1c-33.2,0-66.4,0-99.5,0c-0.4,0-0.8,0-1.2,0c-0.3,0-0.7,0-1,0
	c-0.5,0.1-1.2-0.1-1.4,0.6c-0.1,0.4,0.4,0.7,1.3,0.7c0.8,0,1.6,0,2.4,0C49.5,114.7,66,114.7,82.4,114.7z M82.7,251.2
	c16.7,0,33.4,0,50.1,0c0.9,0,1.8,0,2.7-0.1c0.4,0,0.6-0.3,0.6-0.6c0-0.2-0.3-0.4-0.5-0.5c-1-0.3-1.9-0.2-2.9-0.2
	c-33.3,0-66.7,0-100,0c-0.7,0-1.5,0-2.2,0c-0.3,0-0.6,0.1-0.9,0.3c-0.1,0.1-0.3,0.3-0.3,0.4c0.1,0.2,0.2,0.5,0.4,0.6
	c0.9,0.1,1.8,0.2,2.7,0.2C49.1,251.3,65.9,251.2,82.7,251.2z M82.7,217c16.8,0,33.6,0,50.4,0c0.9,0,1.8,0.2,2.7-0.2
	c0.1-0.1,0.3-0.2,0.3-0.4c0.1-0.3,0-0.5-0.3-0.6c-0.2-0.1-0.5-0.2-0.7-0.2c-0.8,0-1.6-0.1-2.4-0.1c-33.3,0-66.5,0-99.8,0
	c-0.7,0-1.5,0-2.2,0c-0.3,0-0.7,0.1-1,0.2c-0.2,0.1-0.4,0.3-0.4,0.5c0,0.2,0.2,0.5,0.4,0.5c0.9,0.1,1.8,0.2,2.7,0.2
	C49.2,217,65.9,217,82.7,217z M82.7,46.2c16.6,0,33.3,0,49.9,0c0.9,0,1.8,0,2.7-0.1c0.4,0,0.8-0.2,0.8-0.7c0-0.4-0.4-0.5-0.7-0.5
	c-0.8-0.1-1.6-0.1-2.4-0.1c-33.5,0-67,0-100.5,0c-0.7,0-1.3,0-2,0c-0.2,0-0.5,0-0.7,0.1c-0.2,0.1-0.4,0.3-0.4,0.5s0.2,0.5,0.4,0.6
	c0.9,0.4,1.9,0.2,2.9,0.2C49.3,46.2,66,46.2,82.7,46.2z M82.7,147.2c-5.1,0-10.3,0-15.4,0c-11.7,0-23.5,0-35.2,0
	c-0.8,0-1.6,0.1-2.4,0.2c-0.2,0-0.4,0.3-0.4,0.5s0.2,0.5,0.4,0.5c0.9,0.3,1.9,0.2,2.9,0.2c33.4,0,66.8,0,100.3,0c0.7,0,1.3,0,2,0
	c0.3,0,0.6-0.1,0.9-0.2c0.3-0.1,0.4-0.3,0.3-0.6c0-0.1-0.2-0.3-0.3-0.4c-0.9-0.3-1.8-0.2-2.7-0.2C116.3,147.2,99.5,147.2,82.7,147.2
	z M82.7,79.1c-16.7,0-33.4,0-50.2,0c-0.9,0-1.8,0-2.7,0.1c-0.4,0-0.6,0.3-0.6,0.6c0,0.2,0.3,0.4,0.5,0.5c1,0.3,2.1,0.2,3.2,0.2
	c33,0,66.1,0,99.1,0c0.8,0,1.6,0,2.4,0c0.3,0,0.6-0.1,0.9-0.3c0.1-0.1,0.3-0.3,0.3-0.4c-0.1-0.2-0.2-0.5-0.3-0.6
	c-0.9-0.1-1.8-0.2-2.7-0.2C116,79.1,99.3,79.1,82.7,79.1z M79.4,182.8c5.1,0,10.3,0,15.4,0c10.4,0,20.9,0,31.3,0c0.7,0,1.3,0,2,0
	c0.6-0.1,1.4,0.2,1.7-0.6c0.1-0.4-0.5-0.7-1.6-0.7c-0.7,0-1.3,0-2,0c-9.4,0-18.8,0-28.1,0c-21.7,0-43.4,0-65,0c-0.9,0-1.8,0-2.7,0
	c-0.7,0-1.2,0.4-1.1,0.7c0.1,0.5,0.6,0.6,1,0.6c0.8,0,1.6,0.1,2.4,0.1C48.2,182.8,63.8,182.8,79.4,182.8z"/>
</svg>
