<?xml version="1.0" encoding="utf-8"?>
<!-- Generator: Adobe Illustrator 25.0.0, SVG Export Plug-In . SVG Version: 6.00 Build 0)  -->
<svg version="1.1" id="Layer_1" xmlns="http://www.w3.org/2000/svg" xmlns:xlink="http://www.w3.org/1999/xlink" x="0px" y="0px"
	 viewBox="0 0 165 360" style="enable-background:new 0 0 165 360;" xml:space="preserve">
<path d="M0,179.8c0-58.5,0-117,0-175.6c0-0.9,0-1.8,0-2.7c0.1-1,0.6-1.4,1.6-1.5c0.6,0,1.1,0,1.7,0c52.7,0,105.4,0,158.2,0
	c3.5,0,3.5,0,3.5,3.6c0,90,0,180,0,270c0,27.5,0,54.9,0,82.4c0,0.8,0,1.6,0,2.5c-0.1,1-0.6,1.5-1.6,1.5c-0.8,0.1-1.6,0-2.5,0
	c-34.5,0-68.9,0-103.4,0c-17.9,0-35.9,0-53.8,0c-0.7,0-1.5,0-2.2,0c-0.8-0.1-1.3-0.6-1.5-1.4c-0.1-0.3,0-0.7-0.1-1
	c0-0.7,0-1.5,0-2.2C0,296.8,0,238.3,0,179.8z M28.4,99.5c0,22.6,0,45.3,0,67.9c0,4-0.6,3.5,3.5,3.5c33.7,0,67.4,0,101.1,0
	c0.6,0,1.2,0,1.7,0c1.9,0,1.9,0,1.9-1.9c0-0.3,0-0.7,0-1c0-45.6,0-91.2,0-136.8c0-3.3,0.2-3-3.1-3c-34,0-68.1,0-102.1,0
	c-3.5,0-3.1-0.3-3.1,3.2C28.4,54.1,28.4,76.8,28.4,99.5z M82.5,323.3c17.4,0,34.7,0,52.1,0c2.1,0,2.1,0,2.2-2.1c0-0.2,0-0.5,0-0.7
	c0-28.1,0-56.2,0-84.3c0-3.3,0.2-3-3.1-3c-34.1,0-68.3,0-102.4,0c-3.1,0-2.9-0.3-2.9,2.9c0,28.2,0,56.4,0,84.6c0,3-0.3,2.7,2.8,2.7
	C48.3,323.3,65.4,323.3,82.5,323.3z M9.8,183.3c0,29.1,0,58.2,0,87.3c0,27.8,0,55.6,0,83.4c0,0.8,0,1.6,0.1,2.5
	c0,0.4,0.3,0.6,0.6,0.6c0.5,0,1,0.1,1.5,0.1c3.6,0,7.2,0,10.8,0c3.1,0,2.7,0.3,2.7-2.8c0-113.9,0-227.9,0-341.8c0-0.7,0-1.3,0-2
	c0-0.5-0.3-0.7-0.8-0.8c-0.3,0-0.7,0-1,0c-4,0-8,0-12,0c-0.4,0-0.8,0-1.2,0.1c-0.4,0-0.6,0.3-0.6,0.7c0,0.9-0.1,1.8-0.1,2.7
	C9.8,69.9,9.8,126.6,9.8,183.3z M155.2,183.5c0-41.4,0-82.7,0-124.1c0-15.5,0-31.1,0-46.6c0-0.7,0-1.5,0-2.2c0-0.6-0.4-0.9-0.9-0.9
	c-0.4,0-0.8,0-1.2,0c-3.8,0-7.5,0-11.3,0c-0.4,0-0.8,0-1.2,0c-0.6,0-0.9,0.3-0.9,0.9c0,0.9,0,1.8,0,2.7c0,54.1,0,108.2,0,162.3
	c0,4.6-0.3,3.6,4.1,3.5c0.3,0,0.7-0.1,0.8-0.5c0.5-1.5,1.9-1.7,3.2-1.7c2.1,0,2.9,0.8,2.9,2.9c0,0.1,0,0.2,0,0.2c0,6,0,12.1,0,18.1
	c0,0.6,0,1.1-0.1,1.7c-0.1,0.4-0.3,0.8-0.7,1c-1.5,0.8-3,0.7-4.5,0c-0.4-0.2-0.8-0.7-0.8-1.2c-0.1-0.6-0.1-1.1-0.1-1.7
	c0-3.8,0-7.5,0-11.3c0-2.9,0.2-2.5-2.7-2.7c-0.4,0-0.8,0-1.2,0c-0.6,0-0.9,0.3-0.9,0.9c0,0.7,0,1.5,0,2.2c0,55.6,0,111.2,0,166.7
	c0,0.7,0,1.3,0,2c0,1.1,0.2,1.3,1.3,1.3c3.5,0,7,0.1,10.6,0c1.2,0,2.4,0.3,3.6-0.3c0.4-1.1,0.2-2.3,0.2-3.4
	C155.2,296.8,155.2,240.2,155.2,183.5z M82.5,211.8c16.9,0,33.9,0,50.8,0c0.8,0,1.6,0,2.5,0c0.6,0,0.9-0.4,0.9-0.9
	c0-0.6,0-1.1,0-1.7c0-4.7,0-9.3,0-14c0-2.8,0-2.6-2.7-2.6c-34.3,0-68.6,0-102.9,0c-0.7,0-1.3,0-2,0.1c-0.5,0-0.7,0.4-0.8,0.8
	c0,0.7,0,1.3,0,2c0,4.5,0,9,0,13.5c0,3.3-0.4,3,3,3C48.4,211.8,65.5,211.8,82.5,211.8z M82.2,189.7c17,0,34,0,51,0
	c0.7,0,1.5,0,2.2,0c0.9,0,1.2-0.3,1.2-1.1c0-1.2,0-2.5,0-3.7c0-0.6-0.3-0.9-0.9-0.9c-1.2-0.1-2.5,0-3.7-0.2
	c-1.1-0.1-1.8-1.1-1.8-2.3c0-1.1,0.7-1.7,1.9-1.9c0.3,0,0.7,0,1-0.1c1.1-0.3,2.5,0.5,3.2-0.5c0.7-0.9,0.2-2.2,0.3-3.4
	c0-0.2,0-0.3,0-0.5c-0.1-1.3-0.2-1.5-1.6-1.5c-0.7,0-1.5,0-2.2,0c-26.7,0-53.3,0-80,0c-7.2,0-14.4,0-21.6,0c-0.7,0-1.5,0-2.2,0.1
	c-0.4,0-0.6,0.3-0.6,0.6c-0.1,0.6-0.1,1.1-0.1,1.7c0,3.5,0,7,0,10.5c0,3.3-0.3,3,3,3C48.3,189.7,65.2,189.7,82.2,189.7z M82.7,9.8
	c-17,0-34,0-51,0c-0.7,0-1.5,0-2.2,0c-1,0-1.1,0.2-1.1,1.2c0,4.3,0,8.7,0,13c0,1.3,0.2,1.4,1.4,1.5c0.5,0,1,0,1.5,0
	c34.2,0,68.4,0,102.6,0c0.6,0,1.2,0,1.7,0c0.9-0.1,1.1-0.3,1.2-1.2c0-0.6,0-1.1,0-1.7c0-3.3,0-6.5,0-9.8c0-3.2,0.3-2.9-2.9-2.9
	C116.8,9.7,99.8,9.8,82.7,9.8z M82.4,230.2c17,0,34.1,0,51.1,0c0.8,0,1.6,0,2.5-0.1c0.5,0,0.7-0.3,0.8-0.8c0-0.6,0.1-1.1,0.1-1.7
	c0-3.4,0-6.9,0-10.3c0-3,0.1-2.8-2.8-2.8c-34.2,0-68.4,0-102.7,0c-0.3,0-0.7,0-1,0c-1.8,0-1.8,0.1-1.9,1.7c0,0.4,0,0.8,0,1.2
	c0,3.3,0,6.5,0,9.8c0,3.2-0.3,2.9,2.9,2.9C48.3,230.2,65.3,230.2,82.4,230.2z M82.5,340.5c17,0,34,0,51.1,0c0.8,0,1.6,0,2.5-0.1
	c0.4,0,0.6-0.3,0.6-0.6c0-0.6,0.1-1.1,0.1-1.7c0-2.9,0-5.7,0-8.6c0-3.8,0.4-3.3-3.2-3.3c-34,0-67.9,0-101.9,0c-0.7,0-1.3,0-2,0
	c-1.1,0-1.3,0.1-1.3,1.3c0,3.4,0,6.9,0,10.3c0,3-0.3,2.7,2.8,2.7C48.3,340.5,65.4,340.5,82.5,340.5z M82.5,357.1c17,0,34,0,51.1,0
	c0.8,0,1.6,0,2.5-0.1c0.4,0,0.6-0.3,0.6-0.6c0-0.6,0.1-1.1,0.1-1.7c0-2.7,0-5.4,0-8.1c0-3.8,0.4-3.3-3.2-3.3c-34,0-67.9,0-101.9,0
	c-0.7,0-1.3,0-2,0c-1.1,0-1.3,0.1-1.3,1.3c0,3.3,0,6.5,0,9.8c0,3-0.3,2.7,2.8,2.7C48.3,357.1,65.4,357.1,82.5,357.1z M162.1,180
	c0-57.7,0-115.4,0-173.1c0-0.7,0-1.5,0-2.2c0-0.3,0-0.7,0-1c0-0.5-0.2-0.8-0.7-0.8c-0.3,0-0.7,0-1,0c-2.3,0-2.3-0.1-2.3,2.3
	c0,0.5,0,1,0,1.5c0,115.6,0,231.1,0,346.7c0,0.8,0,1.6,0,2.5c0,0.2,0,0.5,0.1,0.7c0.1,0.2,0.3,0.5,0.5,0.5c1.1,0.1,2.2,0.4,3.1-0.1
	c0.7-0.4,0.3-1.5,0.4-2.3c0-0.6,0-1.1,0-1.7C162.1,295.3,162.1,237.6,162.1,180z M2.9,180.1c0,58,0,116.1,0,174.1c0,3.4-0.4,3,3,3
	c0.6,0,0.9-0.3,0.9-0.9c0-0.9,0-1.8,0-2.7c0-115.6,0-231.3,0-346.9c0-0.4,0-0.8,0-1.2c0-2.8,0.2-2.5-2.8-2.5c-1,0-1.2,0.2-1.2,1.1
	c0,0.8,0,1.6,0,2.4C2.9,64.3,2.9,122.2,2.9,180.1z M82.7,6.9c23.2,0,46.5,0,69.7,0c3.1,0,2.8,0.3,2.8-3c0-0.8-0.2-0.9-1.1-1
	c-0.8,0-1.6,0-2.5,0c-24.4,0-48.8,0-73.2,0c-21.9,0-43.7,0-65.6,0c-0.8,0-1.6,0-2.5,0.1c-0.4,0-0.6,0.2-0.7,0.6
	c-0.5,2.8-0.1,3.3,2.7,3.3c0.4,0,0.8,0,1.2,0C36.7,6.9,59.7,6.9,82.7,6.9z M147.5,192.3C147.5,192.3,147.6,192.3,147.5,192.3
	c0.1-2.3,0.1-4.5,0.1-6.8c0,0-0.1,0-0.1,0C147.5,187.8,147.5,190.1,147.5,192.3z"/>
</svg>
