<?xml version="1.0" encoding="utf-8"?>
<!-- Generator: Adobe Illustrator 25.0.0, SVG Export Plug-In . SVG Version: 6.00 Build 0)  -->
<svg version="1.1" id="Layer_1" xmlns="http://www.w3.org/2000/svg" xmlns:xlink="http://www.w3.org/1999/xlink" x="0px" y="0px"
	 viewBox="0 0 165 360" style="enable-background:new 0 0 165 360;" xml:space="preserve">
<path d="M165,180c0,58.6,0,117.2,0,175.8c0,0.9,0,1.8-0.1,2.7c-0.1,0.9-0.6,1.3-1.4,1.4c-0.7,0.1-1.5,0-2.2,0
	c-52.6,0-105.1,0-157.7,0c-0.7,0-1.3,0-2,0c-1-0.1-1.5-0.6-1.6-1.5c-0.1-0.8,0-1.6,0-2.4c0-58.4,0-116.9,0-175.3
	C0,121.8,0,62.9,0,4.1c0-0.9,0-1.8,0.1-2.7c0.1-0.9,0.5-1.3,1.4-1.4C2.1,0,2.6,0,3.2,0C56,0,108.9,0,161.7,0c0.7,0,1.5,0,2.2,0.1
	c0.5,0.1,0.9,0.4,1,1c0.1,0.4,0.1,0.8,0.1,1.2c0,0.8,0,1.6,0,2.4C165,63.2,165,121.6,165,180z M28.1,120c0,29.7,0,59.3,0,89
	c0,2.9-0.3,2.8,2.8,2.8c12.7,0,25.4,0,38.1,0c3,0,2.8,0.1,2.8-2.8c0-59.3,0-118.6,0-178c0-2.8,0.3-2.8-2.8-2.8
	c-12.5,0-25.1,0-37.6,0c-3.7,0-3.2-0.3-3.2,3.3C28.1,61,28.1,90.5,28.1,120z M93.3,120c0,29.5,0,59,0,88.5c0,0.8,0,1.6,0.1,2.4
	c0,0.4,0.3,0.7,0.8,0.8c0.4,0,0.8,0.1,1.2,0.1c13.1,0,26.2,0,39.4,0c2.1,0,2.1,0,2.1-2.2c0-7.5,0-15,0-22.6c0-0.6,0-1.3,0-2
	c0-1-0.1-1-1.2-1.1s-2.1,0-3.2-0.1c-1.3-0.1-2.1-1-2.1-2.2c0-1.2,0.7-1.8,2-2c0.5-0.1,1-0.1,1.5-0.1c3.4-0.1,3.1,0.4,3.1-3.2
	c0-48.3,0-96.6,0-144.9c0-0.6,0-1.3,0-2c0-1-0.2-1.2-1.1-1.2c-0.7,0-1.5,0-2.2,0c-12.2,0-24.4,0-36.7,0c-3.9,0-3.6-0.4-3.6,3.5
	C93.3,61.1,93.3,90.5,93.3,120z M25.2,183.7c0-40.6,0-81.2,0-121.8c0-16.3,0-32.7,0-49c0-0.7,0-1.5,0-2.2c0-0.6-0.4-0.9-0.9-0.9
	c-0.4,0-0.8,0-1.2,0c-3.8,0-7.5,0-11.3,0c-0.4,0-0.8,0-1.2,0c-0.6,0-0.9,0.3-1,0.9c0,1,0,2,0,2.9c0,112.7,0,225.4,0,338.1
	c0,1,0,2,0,2.9c0,0.4,0,0.8,0,1.2c0.1,1.1,0.2,1.2,1.4,1.2c0.5,0,1,0,1.5,0c3.1,0,6.2,0,9.3,0c1.1,0,2.5,0.5,3.3-0.4
	c0.7-0.8,0.2-2,0.2-3.1C25.2,297,25.2,240.4,25.2,183.7z M155.5,183.4c0-56.6,0-113.3,0-169.9c0-0.7,0-1.5,0-2.2
	c0-1.5-0.1-1.6-1.5-1.6c-4.3,0-8.5,0-12.8,0c-1.3,0-1.4,0.1-1.4,1.4c0,0.5,0,1,0,1.5c0,54.7,0,109.3,0,164c0,2.9-0.2,2.9,2.8,2.6
	c1-0.1,2,0.1,2.3-1.3c0.1-0.3,0.6-0.6,1-0.7c0.8-0.2,1.6-0.4,2.4-0.3c1.9,0.3,2.3,0.8,2.4,2.7c0,0.2,0,0.3,0,0.5c0,6,0,11.9,0,17.9
	c0,0.5,0,1,0,1.5c0,0.7-0.4,1.2-1.1,1.5c-1.4,0.6-2.7,0.6-4,0c-0.5-0.2-0.8-0.6-0.8-1.1c0-0.6-0.1-1.1-0.1-1.7c0-3.8,0-7.5,0-11.3
	c0-0.6,0-1.1,0-1.7c-0.1-0.8-0.3-1-1.1-1.1c-0.5-0.1-1-0.1-1.5-0.1c-2.2-0.1-2.2-0.1-2.3,2c0,0.6,0,1.3,0,2c0,31.1,0,62.3,0,93.4
	c0,24.2,0,48.4,0,72.6c0,0.8,0,1.6,0.1,2.4c0,0.4,0.3,0.6,0.6,0.6c0.6,0,1.1,0.1,1.7,0.1c3.3,0,6.6,0,9.8,0c4.1,0,3.5,0.6,3.5-3.5
	C155.5,296.9,155.5,240.2,155.5,183.4z M71.8,278.4c0-14.3,0-28.6,0-42.9c0-2.6,0-2.5-2.4-2.5c-0.3,0-0.5,0-0.7,0
	c-12.5,0-25.1,0-37.6,0c-0.6,0-1.2,0-1.7,0c-1,0-1.2,0.2-1.2,1.1c0,0.5,0,1,0,1.5c0,28.3,0,56.7,0,85c0,2.7-0.2,2.6,2.5,2.6
	c12.9,0,25.7,0,38.6,0c2.9,0,2.6,0.2,2.6-2.7C71.8,306.5,71.8,292.5,71.8,278.4z M136.9,278.4c0-14,0-27.9,0-41.9c0-0.6,0-1.3,0-2
	c0-1.3-0.1-1.4-1.4-1.4c-0.5,0-1,0-1.5,0c-12.6,0-25.3,0-37.9,0c-2.9,0-2.8-0.3-2.8,2.8c0,28.3,0,56.5,0,84.8c0,2.9-0.2,2.6,2.7,2.6
	c12.7,0,25.4,0,38.1,0c3.1,0,2.8,0.3,2.8-2.7C136.9,306.5,136.9,292.4,136.9,278.4z M90.5,120c0-29.4,0-58.8,0-88.3
	c0-0.8,0-1.6,0-2.4c0-0.7-0.3-1-1.1-1c-0.5,0-1,0-1.5,0c-3.5,0-7.1,0-10.6,0c-2.8,0-2.7-0.1-2.7,2.7c0,0.1,0,0.2,0,0.2
	c0,59.3,0,118.5,0,177.8c0,0.6,0,1.3,0.1,2c0,0.6,0.4,0.9,1,0.9c0.6,0,1.2,0,1.7,0c3.3,0,6.6,0,9.8,0c3.7,0,3.3,0.3,3.3-3.3
	C90.5,179,90.5,149.5,90.5,120z M82.4,25.4c17.1,0,34.1,0,51.2,0c0.7,0,1.5,0,2.2,0c0.9,0,1.1-0.2,1.1-1.2c0-0.3,0-0.6,0-1
	c0-3.8,0-7.5,0-11.3c0-2.2,0.1-2.2-2.2-2.2c-0.5,0-1,0-1.5,0c-9.8,0-19.7,0-29.5,0c-24.2,0-48.4,0-72.6,0c-0.8,0-1.6,0-2.5,0.1
	c-0.4,0-0.6,0.3-0.6,0.6c0,0.2-0.1,0.5-0.1,0.7c0,4.2,0,8.5,0,12.7c0,0.2,0,0.5,0.1,0.7c0.1,0.3,0.3,0.6,0.6,0.6
	c0.8,0,1.6,0.1,2.5,0.1C48.3,25.4,65.3,25.4,82.4,25.4z M82.7,230.2c17,0,33.9,0,50.9,0c0.8,0,1.6,0,2.5,0c0.5,0,0.8-0.3,0.8-0.8
	c0-0.6,0-1.1,0-1.7c0-3.5,0-7,0-10.5c0-2.8,0.2-2.6-2.7-2.6c-34.4,0-68.9,0-103.3,0c-0.7,0-1.3,0-2,0.1c-0.5,0-0.8,0.3-0.8,0.8
	c0,0.6,0,1.1,0,1.7c0,3.3,0,6.7,0,10s-0.4,3.1,3,3.1C48.3,230.2,65.5,230.2,82.7,230.2z M82.7,326.1c-17,0-34.1,0-51.1,0
	c-0.7,0-1.3,0-2,0c-1.4,0-1.4,0.1-1.5,1.6c0,0.1,0,0.2,0,0.2c0,3.6,0,7.2,0,10.8c0,1.6,0,1.6,1.6,1.7c0.6,0,1.2,0,1.7,0
	c34.1,0,68.2,0,102.3,0c0.6,0,1.2,0,1.7,0c1.4,0,1.5-0.1,1.5-1.3c0-3.8,0-7.7,0-11.5c0-1.3-0.1-1.4-1.4-1.4c-0.7,0-1.3,0-2,0
	C116.6,326.1,99.6,326.1,82.7,326.1z M82.5,343.3c-17,0-34.1,0-51.1,0c-0.7,0-1.3,0-2,0c-1.2,0-1.3,0.1-1.3,1.3c0,3.1,0,6.2,0,9.3
	c0,3.7-0.5,3.2,3.3,3.2c34.1,0,68.2,0,102.3,0c0.7,0,1.3,0,2,0c1.1,0,1.3-0.1,1.3-1.3c0-3.3,0-6.5,0-9.8c0-3,0.3-2.7-2.8-2.7
	C116.9,343.3,99.7,343.3,82.5,343.3z M90.5,278.4c0-14.1,0-28.1,0-42.2c0-0.8,0-1.6-0.1-2.4c0-0.4-0.3-0.6-0.6-0.6
	c-0.4-0.1-0.8-0.1-1.2-0.1c-4,0-8,0-12.1,0c-0.3,0-0.7,0-1,0c-0.5,0-0.8,0.3-0.8,0.8c-0.1,0.6-0.1,1.3-0.1,2c0,4.7,0,9.3,0,14
	c0,23.5,0,46.9,0,70.4c0,0.8,0,1.6,0.1,2.4c0,0.4,0.3,0.6,0.6,0.6c0.5,0,1,0,1.5,0c3.6,0,7.2,0,10.8,0c3.1,0,2.8,0.3,2.8-2.7
	C90.5,306.5,90.5,292.4,90.5,278.4z M2.9,180.1c0,0.4,0,0.8,0,1.2c0,57.7,0,115.4,0,173.1c0,2.9,0.3,3.1,3,2.7
	c0.4-0.1,0.6-0.3,0.6-0.6c0.1-1.1,0.1-2.1,0.1-3.2c0-115.5,0-230.9,0-346.4c0-0.5,0-1,0-1.5c0-2.7,0.1-2.6-2.8-2.5
	c-0.1,0-0.2,0-0.2,0C3.2,3,3,3.2,3,3.6c0,0.9-0.1,1.8-0.1,2.7C2.9,64.2,2.9,122.1,2.9,180.1z M158.4,180.1c0,5.6,0,11.3,0,16.9
	c0,52.5,0,104.9,0,157.4c0,2.8,0.4,3.1,3,2.7c0.4-0.1,0.6-0.3,0.6-0.6c0-1.1,0.1-2.1,0.1-3.2c0-115.5,0-230.9,0-346.4
	c0-0.5,0-1,0-1.5c0-2.7,0.1-2.5-2.8-2.5c-0.1,0-0.2,0-0.2,0c-0.4,0.1-0.6,0.3-0.6,0.6c0,0.9-0.1,1.8-0.1,2.7
	C158.4,64.2,158.4,122.1,158.4,180.1z M82.7,6.9c23.2,0,46.4,0,69.6,0c0.8,0,1.6,0,2.5,0c0.5,0,0.8-0.3,0.8-0.8
	c0-3.4,0.5-3.1-2.9-3.1c-46.8,0-93.6,0-140.4,0c-3.1,0-2.8-0.2-2.8,3c0,0.1,0,0.2,0,0.2c0.1,0.3,0.3,0.6,0.6,0.6
	c0.8,0,1.6,0.1,2.5,0.1C36,6.9,59.3,6.9,82.7,6.9z"/>
</svg>
