<?xml version="1.0" encoding="utf-8"?>
<!-- Generator: Adobe Illustrator 25.0.0, SVG Export Plug-In . SVG Version: 6.00 Build 0)  -->
<svg version="1.1" id="Layer_1" xmlns="http://www.w3.org/2000/svg" xmlns:xlink="http://www.w3.org/1999/xlink" x="0px" y="0px"
	 viewBox="0 0 165 360" style="enable-background:new 0 0 165 360;" xml:space="preserve">
<path d="M165,179.9c0,58.6,0,117.2,0,175.8c0,0.9,0,1.8-0.1,2.7c-0.1,1-0.6,1.5-1.6,1.5c-0.6,0-1.2,0-1.7,0c-52.7,0-105.4,0-158.1,0
	c-0.7,0-1.3,0-2,0c-0.8-0.1-1.4-0.6-1.5-1.4c-0.1-0.3-0.1-0.7-0.1-1c0-0.7,0-1.3,0-2c0-117,0-234.1,0-351.1c0-0.9,0-1.8,0-2.7
	C0.1,0.5,0.6,0.1,1.9,0c0.7,0,1.5,0,2.2,0c52.2,0,104.4,0,156.6,0c4,0,4.2-0.5,4.2,4.1c0,48.1,0,96.3,0,144.4
	C165,159,165,169.5,165,179.9z M71.9,117c0-30.6,0-61.1,0-91.7c0-0.8,0-1.6,0-2.5c0-0.8-0.3-1-1-1c-3.2,0.3-6.4,0.6-9.5,1.1
	c-5.3,0.8-10.6,1.8-15.8,3.4c-4.6,1.4-9.2,2.1-14,1.8c-3.5-0.2-3.1-0.4-3.1,3.2c0,59.1,0,118.1,0,177.2c0,0.3,0,0.7,0,1
	c0,2.1,0,2.1,2.2,2.2c0.4,0,0.8,0,1.2,0c12.2,0,24.4,0,36.6,0c3.9,0,3.5,0.5,3.5-3.6C71.9,177.8,71.9,147.4,71.9,117z M93.6,21.9
	c-0.5,0.9-0.3,1.9-0.3,2.7c0,61.4,0,122.7,0,184.1c0,0.7,0,1.5,0,2.2c0,0.4,0.3,0.8,0.8,0.8c0.4,0,0.8,0.1,1.2,0.1
	c13.1,0,26.2,0,39.3,0c2.2,0,2.2,0,2.2-2.2c0-0.2,0-0.5,0-0.7c0-7.4,0-14.7,0-22.1c0-0.6,0-1.1,0-1.7c-0.1-1-0.2-1.1-1.2-1.1
	c-1.1-0.1-2.1,0-3.2-0.1c-1.3-0.1-2-1-2-2.3c0-1.1,0.7-1.8,1.8-1.9c0.4,0,0.8,0,1.2-0.1c3.5-0.2,3.3,0.6,3.3-3.3
	c0-48.3,0-96.6,0-144.9c0-0.7,0-1.3,0-2c-0.1-1-0.3-1.2-1.2-1.2c-1.7,0-3.4-0.1-5.2,0c-2.6,0.1-5.2-0.3-7.8-1
	c-4.8-1.3-9.7-2.5-14.6-3.4C103.4,22.8,98.5,22.3,93.6,21.9z M25.5,183.6c0-24.5,0-49,0-73.5c0-32.4,0-64.7,0-97.1
	c0-0.8,0-1.6-0.1-2.5c0-0.4-0.2-0.6-0.6-0.7c-0.6-0.1-1.1-0.1-1.7-0.1c-3.2,0-6.4,0-9.6,0c-1.2,0-2.4-0.2-3.6,0.2
	c-0.7,1.2-0.3,2.5-0.3,3.8c0,113.1,0,226.2,0,339.3c0,0.9,0,1.8,0,2.7c0,0.2,0,0.5,0.1,0.7c0.1,0.2,0.3,0.5,0.5,0.5
	c0.3,0.1,0.7,0.1,1,0.1c4.3,0,8.7,0,13,0c0.2,0,0.5,0,0.7-0.1c0.4-0.1,0.6-0.3,0.6-0.7c0-0.9,0.1-1.8,0.1-2.7
	C25.5,297,25.5,240.3,25.5,183.6z M155.4,183.5c0-56.6,0-113.1,0-169.7c0-0.7,0-1.5,0-2.2c0-0.3,0-0.7,0-1c0-0.5-0.3-0.8-0.7-0.8
	c-0.7,0-1.3-0.1-2-0.1c-3.3,0-6.6,0-9.8,0c-3.5,0-3.1-0.3-3.1,3.2c0,54.4,0,108.9,0,163.3c0,0.7,0,1.3,0,2c0,0.9,0.4,1.2,1.2,1.2
	c0.9-0.1,1.8-0.1,2.7-0.2c0.4,0,0.8-0.1,0.9-0.6c0.4-1.3,1.5-1.4,2.6-1.5c2.8-0.3,3.8,0.6,3.8,3.3c0,5.9,0,11.8,0,17.7
	c0,0.6,0,1.1-0.1,1.7c-0.1,0.6-0.4,1.1-1,1.3c-1.3,0.5-2.6,0.8-4.1,0.2c-0.8-0.3-1.2-0.8-1.2-1.6c0-0.6,0-1.1,0-1.7
	c0-3.7,0-7.4,0-11c0-0.6,0-1.1,0-1.7c0-0.6-0.3-0.9-0.9-0.9c-1.2,0-2.6-0.6-3.5,0.2c-0.8,0.7-0.3,2-0.3,3.1c0,29.2,0,58.4,0,87.5
	c0,26.2,0,52.5,0,78.7c0,0.8,0,1.6,0,2.5c0,0.6,0.3,0.9,0.9,1c0.6,0,1.2,0,1.7,0c3.2,0,6.4,0,9.6,0c1.1,0,2.5,0.5,3.3-0.4
	c0.6-0.8,0.2-2,0.2-3.1C155.4,296.9,155.4,240.2,155.4,183.5z M71.9,278.4c0-14.3,0-28.6,0-42.9c0-2.4,0-2.4-2.4-2.4
	c-12.9,0-25.7,0-38.6,0c-2.7,0-2.5-0.2-2.5,2.5c0,28.4,0,56.9,0,85.3c0,2.6-0.2,2.4,2.4,2.4c0.2,0,0.3,0,0.5,0c12.5,0,25.1,0,37.6,0
	c3.4,0,3.1,0.4,3.1-3C72,306.3,71.9,292.4,71.9,278.4z M93.3,278.2c0,13.8,0,27.6,0,41.4c0,0.7,0,1.3,0,2c0,1.6,0,1.6,1.6,1.7
	c0.6,0,1.2,0,1.7,0c12.2,0,24.4,0,36.6,0c4.1,0,3.6,0.6,3.6-3.5c0-27.8,0-55.6,0-83.3c0-0.6,0-1.1,0-1.7c-0.1-1.6-0.2-1.7-1.7-1.7
	c-0.4,0-0.8,0-1.2,0c-12.6,0-25.2,0-37.9,0c-3,0-2.8-0.3-2.8,2.8C93.3,250,93.3,264.1,93.3,278.2z M90.4,117c0-30.6,0-61.3,0-91.9
	c0-0.7,0-1.5,0-2.2c0-1.1-0.2-1.3-1.3-1.3c-3.6-0.1-7.2-0.5-10.8-0.1c-1.1,0.1-2.3-0.4-3.1,0.3c-0.9,0.8-0.4,2.2-0.4,3.3
	c0,38.6,0,77.1,0,115.7c0,22.6,0,45.1,0,67.7c0,0.8,0,1.6,0.1,2.5c0,0.5,0.3,0.7,0.8,0.8c0.6,0.1,1.1,0.1,1.7,0.1c3.3,0,6.6,0,9.8,0
	c3.7,0,3.2,0.4,3.2-3.3C90.4,178,90.4,147.5,90.4,117z M82.6,230.2c17.1,0,34.1,0,51.2,0c0.8,0,1.6,0,2.5-0.1c0.4,0,0.6-0.3,0.6-0.6
	c0.1-0.6,0.1-1.1,0.1-1.7c0-3.6,0-7.2,0-10.8c0-2.4,0-2.4-2.4-2.4c-0.1,0-0.2,0-0.3,0c-34.4,0-68.9,0-103.3,0c-0.6,0-1.2,0-1.7,0.1
	c-0.5,0-0.7,0.4-0.7,0.8c0,0.6,0,1.1,0,1.7c0,3.4,0,6.7,0,10.1c0,3.4-0.4,3,3,3C48.5,230.2,65.5,230.2,82.6,230.2z M82.5,340.5
	c17,0,34.1,0,51.1,0c0.7,0,1.5,0,2.2,0c0.6,0,0.9-0.3,1-0.9c0-0.6,0-1.1,0-1.7c0-2.9,0-5.7,0-8.6c0-3.6,0.4-3.1-3.2-3.1
	c-34.1,0-68.2,0-102.3,0c-0.5,0-1,0-1.5,0c-1.5,0-1.6,0.1-1.6,1.5c0,3.3,0,6.7,0,10c0,3.1-0.3,2.7,2.8,2.7
	C48.3,340.5,65.4,340.5,82.5,340.5z M82.8,343.3c-17,0-34.1,0-51.1,0c-0.7,0-1.3,0-2,0c-1.1,0-1.3,0.2-1.3,1.3c0,3.8,0,7.5,0,11.3
	c0,0.2,0,0.3,0,0.5c0,0.5,0.3,0.7,0.8,0.7c0.5,0,1,0,1.5,0c34.6,0,69.2,0,103.7,0c0.6,0,1.2,0,1.7-0.1c0.4,0,0.6-0.2,0.6-0.6
	c0.1-0.6,0.1-1.1,0.1-1.7c0-2.9,0-5.7,0-8.6c0-3.2,0.3-2.8-3-2.8C116.9,343.3,99.8,343.3,82.8,343.3z M90.4,278.4
	c0-14.1,0-28.3,0-42.4c0-0.7,0-1.5-0.1-2.2c0-0.4-0.2-0.6-0.6-0.7c-0.6-0.1-1.1-0.1-1.7-0.1c-3.6,0-7.2,0-10.8,0
	c-2.5,0-2.4,0-2.4,2.4c0,0.2,0,0.3,0,0.5c0,28.2,0,56.4,0,84.5c0,0.7,0,1.3,0,2c0,0.5,0.3,0.8,0.8,0.8c0.6,0,1.1,0,1.7,0
	c3.4,0,6.9,0,10.3,0c3.1,0,2.8,0.3,2.8-2.7C90.4,306.5,90.4,292.4,90.4,278.4z M162.1,180.3c0-57.8,0-115.6,0-173.4
	c0-0.7,0-1.5,0-2.2c0-1.8-0.1-1.8-1.8-1.8c-2,0-2,0-2,2c0,0.7,0,1.3,0,2c0,115.4,0,230.8,0,346.2c0,0.7,0,1.3,0,2c0,2.1,0,2.1,2,2.1
	c1.8,0,1.8,0,1.8-2c0-0.7,0-1.5,0-2.2C162.1,295.4,162.1,237.8,162.1,180.3z M6.7,180.3c0-57.8,0-115.6,0-173.4c0-0.7,0-1.5,0-2.2
	c0-1.8-0.1-1.8-1.8-1.8c-2,0-2,0-2,2c0,0.7,0,1.3,0,2c0,115.4,0,230.8,0,346.2c0,0.7,0,1.3,0,2c0,2.1,0,2.1,2,2.1
	c1.8,0,1.8,0,1.8-1.8c0-0.7,0-1.5,0-2.2C6.7,295.5,6.7,237.9,6.7,180.3z M82.6,9.8c-17,0-33.9,0-50.9,0c-0.8,0-1.6,0-2.5,0
	c-0.5,0-0.7,0.3-0.8,0.8c0,0.2,0,0.3,0,0.5c0,4.3,0,8.7,0,13c0,1.1,0.2,1.3,1,1.3c3.9,0,7.9,0.2,11.7-0.9c5-1.4,10.1-2.6,15.3-3.6
	c5.6-1.1,11.2-1.7,16.8-2.1c7.4-0.5,14.7-0.4,22.1,0.3c5.3,0.5,10.6,1.2,15.8,2.3c4.6,0.9,9.1,2.2,13.6,3.3
	c3.7,0.9,7.5,0.7,11.2,0.7c0.6,0,0.9-0.4,0.9-0.9c0-0.6,0-1.1,0-1.7c0-3.4,0-6.7,0-10.1c0-3.2,0.3-2.9-2.9-2.9
	C116.8,9.8,99.7,9.8,82.6,9.8z M82.5,2.9c-23.3,0-46.5,0-69.8,0c-0.8,0-1.6,0-2.5,0.1c-0.2,0-0.5,0.2-0.6,0.4
	c-0.2,1-0.4,2.2,0.1,3.1c0.4,0.7,1.3,0.3,2,0.4c0.2,0,0.3,0,0.5,0c46.8,0,93.5,0,140.3,0c2.9,0,3.1-0.4,2.7-3.3
	c-0.1-0.4-0.2-0.6-0.6-0.6c-0.8,0-1.6-0.1-2.5-0.1C129,2.9,105.8,2.9,82.5,2.9z M147.7,193.1c0.4-2.8,0.3-6.4,0-8.1
	C147.4,186.8,147.3,190.8,147.7,193.1z"/>
</svg>
