<?xml version="1.0" encoding="utf-8"?>
<!-- Generator: Adobe Illustrator 25.0.0, SVG Export Plug-In . SVG Version: 6.00 Build 0)  -->
<svg version="1.1" id="Layer_1" xmlns="http://www.w3.org/2000/svg" xmlns:xlink="http://www.w3.org/1999/xlink" x="0px" y="0px"
	 viewBox="0 0 165 360" style="enable-background:new 0 0 165 360;" xml:space="preserve">
<path d="M165,180.1c0,58.6,0,117.2,0,175.8c0,0.9,0,1.8,0,2.7c-0.1,0.9-0.5,1.3-1.4,1.4c-0.6,0.1-1.1,0-1.7,0
	c-52.8,0-105.6,0-158.5,0c-0.6,0-1.2,0-1.7,0c-1-0.1-1.5-0.6-1.6-1.5c-0.1-0.3-0.1-0.7-0.1-1c0-0.6,0-1.1,0-1.7
	C0,238.6,0,121.5,0,4.4c0-0.9,0-1.8,0.1-2.7C0.2,0.5,0.6,0.1,1.8,0c0.6,0,1.1,0,1.7,0c52.7,0,105.3,0,158,0c0.7,0,1.5,0,2.2,0.1
	c0.8,0.1,1.2,0.5,1.3,1.3C165,2,165,2.8,165,3.5c0,11,0,21.9,0,32.9C165,84.3,165,132.2,165,180.1z M28.3,99.3c0,22.9,0,45.8,0,68.7
	c0,3.1-0.3,2.9,2.9,2.9c12.6,0,25.2,0,37.8,0c3.1,0,2.8,0.1,2.8-2.7c0-45.7,0-91.4,0-137.1c0-3,0.3-2.9-3-2.9c-12.5,0-25.1,0-37.6,0
	c-3.5,0-3.1-0.2-3.1,3C28.3,53.9,28.3,76.6,28.3,99.3z M93.2,99.6c0,22.8,0,45.6,0,68.4c0,3-0.2,2.8,2.8,2.8c12.7,0,25.4,0,38.1,0
	c0.6,0,1.2,0,1.7,0c0.6,0,0.9-0.3,0.9-0.9c0-0.8,0-1.6,0-2.5c0-45.3,0-90.6,0-135.8c0-0.7,0-1.3,0-2c0-1.3-0.2-1.4-1.4-1.5
	c-0.6,0-1.2,0-1.7,0c-12.4,0-24.9,0-37.3,0c-3.4,0-3.1-0.2-3.1,3C93.2,54,93.2,76.8,93.2,99.6z M25.4,183.5c0-56.6,0-113.3,0-169.9
	c0-0.7,0-1.3,0-2c0-0.3,0-0.7,0-1c0-0.5-0.2-0.8-0.7-0.8c-0.3,0-0.7-0.1-1-0.1c-4,0-8,0-12,0c-0.3,0-0.7,0-1,0
	c-0.6,0.1-0.9,0.4-0.9,0.9c0,1,0,2,0,2.9c0,113.2,0,226.4,0,339.6c0,0.7,0,1.5,0,2.2c0,0.3,0,0.7,0.1,1c0,0.4,0.3,0.6,0.6,0.6
	c0.5,0.1,1,0.1,1.5,0.1c3.4,0,6.7,0,10.1,0c1.1,0,2.3,0.4,3.1-0.2c0.9-0.8,0.4-2.2,0.4-3.3C25.4,296.9,25.4,240.2,25.4,183.5z
	 M155.3,183.6c0-52.3,0-104.6,0-156.9c0-4.7,0-9.5,0-14.2c0-0.7,0-1.3-0.1-2c0-0.5-0.3-0.7-0.8-0.7c-0.5,0-1,0-1.5,0
	c-3.3,0-6.6,0-9.8,0c-4,0-3.5-0.5-3.5,3.6c0,54.2,0,108.4,0,162.6c0,4.6-0.1,3.4,4,3.3c0.1,0,0.2,0,0.2,0c0.1-0.1,0.3-0.2,0.4-0.3
	c0.5-1.7,2-1.8,3.4-1.8c2.3,0,3,0.7,3,3.1c0,6.1,0,12.3,0,18.4c0,0.4,0,0.8,0,1.2c-0.1,0.7-0.4,1.2-1.1,1.4
	c-0.5,0.2-0.9,0.4-1.4,0.4c-1.2,0.2-2.3-0.1-3.2-0.8c-0.8-0.6-0.5-1.5-0.5-2.3c0-0.5,0-1,0-1.5c0-3.8,0-7.7,0-11.5
	c0-1-0.2-1.2-1.1-1.3c-4-0.3-3.6-0.4-3.6,3.1c0,55.6,0,111.2,0,166.7c0,0.6,0,1.1,0,1.7c0.1,1.3,0.2,1.4,1.4,1.4c2.5,0,5.1,0,7.6,0
	c1.9,0,3.8,0,5.7,0c0.6,0,0.9-0.3,1-0.9c0-1,0-2,0-2.9C155.3,296.7,155.3,240.2,155.3,183.6z M93.2,278.2c0,13.9,0,27.8,0,41.7
	c0,0.7,0,1.5,0,2.2c0,1,0.2,1.2,1.1,1.2c0.5,0,1,0,1.5,0c12.8,0,25.5,0,38.3,0c2.8,0,2.6,0.2,2.6-2.7c0-28.3,0-56.5,0-84.8
	c0-3,0.1-2.7-2.9-2.7c-12.6,0-25.2,0-37.8,0c-3.1,0-2.9-0.3-2.9,3C93.2,250.1,93.2,264.1,93.2,278.2z M28.3,278.1
	c0,14.2,0,28.4,0,42.6c0,2.7-0.2,2.6,2.5,2.6c12.9,0,25.9,0,38.8,0c2.5,0,2.4,0.1,2.4-2.4c0-28.4,0-56.9,0-85.3c0-0.6,0-1.1-0.1-1.7
	c0-0.5-0.4-0.7-0.8-0.7c-0.2,0-0.5,0-0.7,0c-13.5,0-27,0-40.5,0c-1.3,0-1.4,0.1-1.5,1.4c0,0.7,0,1.3,0,2
	C28.3,250.3,28.3,264.2,28.3,278.1z M90.4,99.9c0-22.6,0-45.3,0-67.9c0-0.8,0-1.6,0-2.5c-0.1-1.1-0.3-1.3-1.3-1.3
	c-4.3,0-8.5,0-12.8,0c-1.3,0-1.5,0.2-1.5,1.6c0,0.7,0,1.5,0,2.2c0,29.2,0,58.4,0,87.5c0,16,0,32,0,48.1c0,0.8,0,1.6,0.1,2.4
	c0,0.5,0.3,0.7,0.8,0.8c0.6,0,1.1,0,1.7,0.1c3.3,0,6.6,0,9.8,0c3.6,0,3.2,0.4,3.2-3.3C90.4,145,90.4,122.4,90.4,99.9z M82.4,211.8
	c17,0,34.1,0,51.1,0c0.8,0,1.6,0,2.5-0.1c0.5,0,0.7-0.3,0.8-0.8c0-0.3,0-0.7,0-1c0-5.2,0-10.5,0-15.7c0-0.2,0-0.5,0-0.7
	c-0.1-0.7-0.3-1-1.1-1c-0.5,0-1,0-1.5,0c-34.5,0-68.9,0-103.4,0c-0.6,0-1.1,0-1.7,0.1c-0.5,0-0.8,0.3-0.8,0.8c0,0.7,0,1.3,0,2
	c0,4.5,0,9,0,13.5c0,3.3-0.4,3,3,3C48.4,211.8,65.4,211.8,82.4,211.8z M82.9,173.7c-17.1,0-34.2,0-51.3,0c-0.7,0-1.5,0-2.2,0
	c-0.8,0-1,0.3-1,1.1c0,0.5,0,1,0,1.5c0,3.6,0,7.2,0,10.8c0,2.8-0.2,2.6,2.7,2.6c34.3,0,68.6,0,102.9,0c0.7,0,1.3,0,2,0
	c0.6,0,0.9-0.4,0.9-1c0-1.2,0-2.5,0-3.7c0-0.8-0.2-1-1-1.1c-1.2-0.1-2.5,0-3.7-0.2c-1-0.1-1.6-0.9-1.7-2.1c-0.1-1,0.4-1.8,1.4-2
	c0.6-0.2,1.3-0.2,2-0.2c3.3-0.1,3,0.3,3-3.1c0-3,0.2-2.7-2.9-2.7C116.9,173.7,99.9,173.7,82.9,173.7z M82.5,230.2
	c17,0,34.1,0,51.1,0c0.7,0,1.5,0,2.2,0c0.7,0,1-0.3,1-1.1c0-0.4,0-0.8,0-1.2c0-3.4,0-6.7,0-10.1c0-3.5,0.4-3.2-3.3-3.2
	c-34,0-68,0-101.9,0c-0.4,0-0.8,0-1.2,0c-1.9,0-2,0-2,1.9c0,3.6,0,7.2,0,10.8c0,3.3-0.4,3,3.1,3C48.4,230.2,65.4,230.2,82.5,230.2z
	 M82.6,9.8c-17,0-34.1,0-51.1,0c-0.7,0-1.5,0-2.2,0c-0.6,0-0.9,0.3-1,0.9c0,0.6,0,1.1,0,1.7c0,3.4,0,6.7,0,10.1c0,3.2-0.4,3,3.1,3
	c34.1,0,68.1,0,102.2,0c0.6,0,1.2,0,1.7,0c1.3-0.1,1.5-0.2,1.5-1.4c0-4.3,0-8.7,0-13c0-1-0.2-1.2-1.1-1.2c-0.7,0-1.5,0-2.2,0
	C116.5,9.8,99.5,9.8,82.6,9.8z M82.6,340.4c17,0,34.1,0,51.1,0c0.7,0,1.5,0,2.2,0c0.6,0,0.9-0.4,0.9-1c0-0.6,0-1.1,0-1.7
	c0-2.8,0-5.6,0-8.3c0-3.7,0.4-3.3-3.3-3.3c-34,0-67.9,0-101.9,0c-0.3,0-0.7,0-1,0c-2.5,0-2.3-0.1-2.3,2.5c0,2.9,0,5.9,0,8.8
	c0,3.4-0.4,3,3,3C48.4,340.5,65.5,340.4,82.6,340.4z M82.6,343.3c-17,0-34.1,0-51.1,0c-0.7,0-1.5,0-2.2,0c-0.8,0-1,0.2-1,1
	c0,3.9,0,7.8,0,11.8c0,0.6,0.3,0.9,0.9,1c0.7,0,1.5,0,2.2,0c34.1,0,68.3,0,102.4,0c0.6,0,1.2,0,1.7,0c1.1,0,1.3-0.2,1.3-1.3
	c0-3.7,0-7.4,0-11c0-1.3-0.1-1.4-1.4-1.5c-0.7,0-1.3,0-2,0C116.5,343.3,99.5,343.3,82.6,343.3z M6.9,180c0-37.7,0-75.4,0-113
	c0-20.5,0-41,0-61.5c0-2.8,0.1-2.6-2.7-2.6c-0.2,0-0.3,0-0.5,0C3.2,3,2.9,3.3,2.9,3.7c0,0.7,0,1.5,0,2.2c0,9.7,0,19.4,0,29.2
	c0,106.1,0,212.2,0,318.2c0,1,0,2,0,2.9c0,0.3,0.1,0.7,0.5,0.7c1,0.2,2.2,0.4,3.1-0.1c0.8-0.5,0.3-1.5,0.4-2.3c0-0.7,0-1.3,0-2
	C6.9,295.1,6.9,237.6,6.9,180z M158.1,179.8c0,57.9,0,115.9,0,173.8c0,0.9,0,1.8,0,2.7c0,0.5,0.3,0.7,0.8,0.8c0.4,0,0.8,0,1.2,0
	c2,0,2,0,2-1.8c0-0.9,0-1.8,0-2.7c0-93.2,0-186.3,0-279.5c0-22.3,0-44.6,0-66.9c0-0.8,0-1.6-0.1-2.5c0-0.5-0.3-0.8-0.8-0.8
	c-0.4,0-0.8,0-1.2-0.1c-1.9,0-2,0-2,1.9c0,0.8,0,1.6,0,2.5C158.1,64.7,158.1,122.3,158.1,179.8z M74.8,278.4c0,13.8,0,27.6,0,41.4
	c0,0.7,0,1.5,0,2.2c0,1.1,0.2,1.3,1.3,1.3c4.3,0,8.7,0,13,0c0.2,0,0.3,0,0.5,0c0.5,0,0.8-0.3,0.8-0.8c0-0.7,0.1-1.5,0.1-2.2
	c0-8,0-16,0-24c0-19.9,0-39.9,0-59.8c0-0.8,0-1.6,0-2.5c0-0.6-0.3-0.9-0.9-0.9c-0.6,0-1.1,0-1.7,0c-3.4,0-6.7,0-10.1,0
	c-3,0-2.9-0.3-2.9,2.9C74.8,250.1,74.8,264.3,74.8,278.4z M82.6,6.9c22.1,0,44.2,0,66.3,0c1.5,0,3,0,4.4,0c1.9,0,1.9-0.1,2-1.9
	c0-2,0-2-2-2.1c-0.3,0-0.5,0-0.7,0c-46.7,0-93.3,0-140,0c-3.1,0-2.8-0.2-2.8,3c0,0.6,0.3,0.9,0.9,1c0.8,0,1.6,0,2.5,0
	C36.2,6.9,59.4,6.9,82.6,6.9z M147.6,193.1c0.1-2.7,0.3-5.4,0-8.5C147.1,186.6,147.1,190.1,147.6,193.1z"/>
</svg>
