<?xml version="1.0" encoding="utf-8"?>
<!-- Generator: Adobe Illustrator 25.0.0, SVG Export Plug-In . SVG Version: 6.00 Build 0)  -->
<svg version="1.1" id="Layer_1" xmlns="http://www.w3.org/2000/svg" xmlns:xlink="http://www.w3.org/1999/xlink" x="0px" y="0px"
	 viewBox="0 0 165 360" style="enable-background:new 0 0 165 360;" xml:space="preserve">
<path d="M0,179.8c0-58.7,0-117.3,0-176c0-0.8,0-1.6,0-2.5c0.1-0.8,0.5-1.2,1.3-1.2C2.2,0,3.1,0,4,0c38.6,0,77.2,0,115.8,0
	c13.9,0,27.8,0,41.8,0c3,0,3.5-0.2,3.5,3.4c0,33.4,0,66.8,0,100.3c0,83.9,0,167.9,0,251.8c0,1,0,2,0,2.9c-0.1,1-0.6,1.5-1.6,1.5
	c-0.6,0.1-1.2,0-1.7,0c-52.8,0-105.5,0-158.3,0c-3.8,0-3.4-0.6-3.4-3.4C0,297.6,0,238.7,0,179.8z M9.6,183.2c0,56.6,0,113.3,0,169.9
	c0,0.9,0,1.8,0,2.7c0,1.1,0.2,1.3,1.3,1.3c3.4,0,6.9,0,10.3,0c1.2,0,2.4,0.2,3.6-0.2c0.7-1.2,0.3-2.5,0.3-3.8
	c0-106.3,0-212.5,0-318.7c0-7.2,0-14.4,0-21.6c0-0.7,0-1.5-0.1-2.2c0-0.5-0.3-0.7-0.8-0.8c-0.6,0-1.2,0-1.7,0c-3.1,0-6.2,0-9.3,0
	c-4.3,0.1-3.7-0.6-3.7,3.8C9.6,70.1,9.6,126.7,9.6,183.2z M155.3,183.7c0-56.6,0-113.1,0-169.7c0-0.8,0-1.6,0-2.5
	c0-1.8-0.1-1.8-2-1.9c-0.3,0-0.7,0-1,0c-3.2,0-6.4,0-9.6,0c-3.4,0-3.1-0.3-3.1,3c0,54.6,0,109.2,0,163.8c0,0.7,0,1.3,0,2
	c0,0.6,0.3,0.9,0.9,0.9c0.7,0,1.5-0.2,2.2-0.2c0.8,0,1.4-0.2,1.7-1.1c0.2-0.5,0.7-0.7,1.1-0.9c0.9-0.3,1.8-0.4,2.7-0.2
	c1.8,0.3,2.2,0.7,2.3,2.5c0,0.2,0,0.5,0,0.7c0,6,0,11.9,0,17.9c0,0.5,0,1,0,1.5c0,0.7-0.4,1.2-1.1,1.4c-0.5,0.2-0.9,0.4-1.4,0.4
	c-2.5,0-4-0.4-3.8-3.1c0.1-0.7,0-1.3,0-2c0-3.4,0-6.7,0-10.1c0-2.2-0.1-2.2-2.2-2.3c-0.4,0-0.8,0-1.2,0c-1,0-1.2,0.2-1.2,1.1
	c0,0.8,0,1.6,0,2.5c0,55.3,0,110.6,0,166c0,0.7,0,1.3,0,2c0,0.2,0,0.5,0,0.7c0,0.5,0.3,0.8,0.7,0.8c0.6,0,1.1,0,1.7,0
	c3.1,0,6.2,0,9.3,0c1.2,0,2.7,0.6,3.5-0.4c0.7-0.8,0.3-2.2,0.3-3.3C155.3,296.8,155.3,240.3,155.3,183.7z M28.1,281.3
	c0,13,0,26,0,39c0,0.7,0,1.5,0.1,2.2c0,0.5,0.3,0.7,0.8,0.8c0.7,0,1.3,0,2,0c12.7,0,25.4,0,38.1,0c3.1,0,2.8,0.3,2.8-2.8
	c0-12.9,0-25.8,0-38.7c0-13.6,0-27.1,0-40.7c0-2.2,0-2.2-2.2-2.2c-0.3,0-0.5,0-0.7,0c-12.6,0-25.2,0-37.8,0c-3.2,0-2.9-0.3-2.9,2.9
	C28.1,255,28.1,268.1,28.1,281.3z M71.8,70.4c0-13.2,0-26.5,0-39.7c0-2.6,0.3-2.6-2.5-2.6c-12.9,0-25.7,0-38.6,0
	c-2.7,0-2.5,0.1-2.5,2.6c0,26.3,0,52.6,0,78.9c0,2.8-0.2,2.7,2.7,2.7c12.8,0,25.5,0,38.3,0c2.8,0,2.6,0.2,2.6-2.7
	C71.8,96.6,71.8,83.5,71.8,70.4z M28.1,175.6c0,13.1,0,26.3,0,39.5c0,2.8-0.2,2.7,2.7,2.7c12.7,0,25.4,0,38.1,0
	c3.2,0,2.9,0.3,2.9-2.9c0-26.1,0-52.3,0-78.4c0-2.9,0.3-2.8-2.8-2.8c-12.7,0-25.4,0-38.1,0c-3.1,0-2.8,0-2.8,2.8
	C28.1,149.5,28.1,162.6,28.1,175.6z M136.7,70.2c0-13,0-26,0-39c0-0.7,0-1.5,0-2.2c0-0.5-0.3-0.8-0.8-0.8c-0.5,0-1-0.1-1.5-0.1
	c-12.9,0-25.9,0-38.8,0c-2.4,0-2.4,0-2.4,2.5c0,26.4,0,52.8,0,79.2c0,2.7,0,2.5,2.6,2.5c12.8,0,25.5,0,38.3,0c2.8,0,2.6,0.2,2.6-2.7
	C136.7,96.5,136.7,83.3,136.7,70.2z M136.7,281.2c0-13.1,0-26.3,0-39.5c0-3.1,0.2-2.8-2.8-2.8c-12.6,0-25.2,0-37.8,0
	c-0.7,0-1.3,0-2,0c-0.6,0-0.9,0.4-0.9,0.9c0,0.7-0.1,1.5-0.1,2.2c0,26.1,0,52.1,0,78.2c0,0.6,0,1.1,0,1.7c0.1,1.1,0.2,1.3,1.3,1.3
	c3.4,0,6.9,0,10.3,0c10.1,0,20.1,0,30.2,0c1.6,0,1.6,0,1.7-1.6c0-0.6,0-1.1,0-1.7C136.7,307,136.7,294.1,136.7,281.2z M93.2,175.9
	c0,13.2,0,26.3,0,39.5c0,2.4,0,2.4,2.4,2.4c12.9,0,25.9,0,38.8,0c0.5,0,1,0,1.5,0c0.5,0,0.7-0.4,0.8-0.8c0-0.6,0-1.1,0-1.7
	c0-9.6,0-19.1,0-28.7c0-0.6,0-1.1,0-1.7c0-0.6-0.4-0.8-0.9-0.9c-1.2,0-2.3,0-3.4-0.1c-1.2-0.1-2.1-1.2-2-2.3c0-1,0.7-1.7,1.9-1.9
	c0.7-0.1,1.3-0.1,2-0.1c2.8,0,2.6,0.2,2.6-2.7c0-13.5,0-27,0-40.4c0-0.5,0-1,0-1.5c-0.1-1-0.2-1.2-1.1-1.2c-0.6,0-1.2,0-1.7,0
	c-12.5,0-25.1,0-37.6,0c-3.2,0-3.1-0.3-3.1,3C93.2,149.7,93.2,162.8,93.2,175.9z M82.5,130.8c16.9,0,33.7,0,50.6,0
	c0.7,0,1.5,0,2.2,0c1.3,0,1.4-0.2,1.5-1.4c0-3.8,0-7.7,0-11.5c0-3,0.3-2.7-2.8-2.7c-34.3,0-68.6,0-102.9,0c-0.6,0-1.2,0-1.7,0
	c-0.9,0.1-1.1,0.3-1.1,1.2c0,0.6,0,1.1,0,1.7c0,3.2,0,6.4,0,9.6c0,3.4-0.4,3.1,3.2,3.1C48.4,130.8,65.4,130.8,82.5,130.8z M82.6,9.7
	c-17,0-34.1,0-51.1,0c-0.8,0-1.6,0-2.5,0c-0.6,0-0.9,0.4-0.9,1c0,0.4,0,0.8,0,1.2c0,3.7,0,7.4,0,11c0,2.4-0.1,2.4,2.5,2.4
	c34.6,0,69.1,0,103.7,0c0.5,0,1,0,1.5,0c0.6,0,0.9-0.3,1-0.9c0-0.6,0-1.1,0-1.7c0-3.3,0-6.7,0-10c0-3.4,0.4-3-3-3
	C116.7,9.7,99.6,9.7,82.6,9.7z M82.6,236.1c17,0,33.9,0,50.9,0c0.8,0,1.6,0,2.5,0c0.5,0,0.7-0.3,0.8-0.8c0-0.6,0-1.1,0-1.7
	c0-3.3,0-6.5,0-9.8c0-3.5,0.4-3.1-3.2-3.1c-34.1,0-68.2,0-102.2,0c-0.6,0-1.2,0-1.7,0c-1.3,0.1-1.4,0.2-1.5,1.4c0,3.7,0,7.4,0,11
	c0,3.2-0.3,3,3.1,3C48.4,236.1,65.5,236.1,82.6,236.1z M82.6,340.4c16.9,0,33.9,0,50.8,0c0.7,0,1.3,0,2,0c1.2,0,1.3-0.1,1.3-1.2
	c0-3.9,0-7.8,0-11.8c0-0.2,0-0.3,0-0.5c0-0.5-0.3-0.7-0.8-0.8c-0.5,0-1,0-1.5,0c-34.6,0-69.2,0-103.9,0c-0.5,0-1,0-1.5,0
	c-0.6,0-0.9,0.3-1,0.9c0,0.6,0,1.1,0,1.7c0,2.9,0,5.9,0,8.8c0,3.1-0.3,2.9,2.9,2.9C48.3,340.4,65.4,340.4,82.6,340.4z M82.5,343.3
	c-17,0-34.1,0-51.1,0c-0.7,0-1.3,0-2,0c-1.1,0-1.3,0.2-1.3,1.3c0,3.8,0,7.5,0,11.3c0,0.2,0,0.3,0.1,0.5c0.1,0.4,0.3,0.6,0.6,0.6
	c0.8,0.1,1.6,0.1,2.5,0.1c34.1,0,68.3,0,102.4,0c0.7,0,1.3,0,2,0c1,0,1.1-0.2,1.1-1.2c0-3.3,0-6.5,0-9.8c0-3.1,0.3-2.8-2.7-2.8
	C116.8,343.3,99.6,343.3,82.5,343.3z M6.8,180.3c0-57.9,0-115.9,0-173.8c0-0.9,0-1.8,0-2.7C6.7,3.3,6.5,3,6,2.9
	C5.7,2.9,5.4,2.9,5,2.9c-2.1,0-2.1,0-2.1,2.2c0,8.5,0,17,0,25.5c0,107.6,0,215.3,0,322.9c0,1,0,2,0.1,2.9c0,0.3,0.2,0.6,0.6,0.7
	c2.8,0.5,3.3,0.1,3.3-2.7c0-0.7,0-1.3,0-2C6.8,295,6.8,237.6,6.8,180.3z M162.1,180.3c0-57.9,0-115.9,0-173.8c0-0.9,0-1.8,0-2.7
	c0-0.3-0.1-0.7-0.5-0.8c-1-0.2-2.2-0.4-3.1,0.1c-0.8,0.5-0.3,1.5-0.4,2.3c0,0.7,0,1.3,0,2c0,115.1,0,230.3,0,345.4
	c0,0.8,0,1.6,0,2.5c0,1.8,0,1.8,2,1.9c2,0,2,0,2.1-2c0-0.7,0-1.5,0-2.2C162.1,295.3,162.1,237.8,162.1,180.3z M74.7,281
	c0,12.9,0,25.8,0,38.7c0,0.7,0,1.3,0,2c0,1.5,0,1.6,1.5,1.6c4.2,0,8.3,0,12.5,0c1.6,0,1.6-0.1,1.7-1.6c0-0.3,0-0.7,0-1
	c0-26.4,0-52.7,0-79.1c0-0.5,0-1,0-1.5c-0.1-0.8-0.3-1-1-1.1c-0.5,0-1,0-1.5,0c-3.4,0-6.9,0-10.3,0c-3.1,0-2.9-0.3-2.9,2.9
	C74.7,254.9,74.7,268,74.7,281z M74.7,175.3c0,13.1,0,26.1,0,39.2c0,0.7,0,1.3,0,2c0,1.1,0.2,1.2,1.3,1.2c3.9,0,7.9,0,11.8,0
	c2.6,0,2.6,0.1,2.6-2.5c0-26.4,0-52.7,0-79.1c0-0.4,0-0.8,0-1.2c-0.1-1-0.3-1.2-1.4-1.3c-0.5,0-1,0-1.5,0c-3.4,0-6.7,0-10.1,0
	c-3,0-2.8-0.2-2.8,2.8C74.7,149.4,74.7,162.4,74.7,175.3z M74.7,69.9c0,12.9,0,25.8,0,38.7c0,0.5,0,1,0,1.5c0,2.2,0,2.2,2.1,2.2
	c3.6,0,7.2,0,10.8,0c2.9,0,2.8,0.2,2.8-2.8c0-13.8,0-27.6,0-41.4c0-12.3,0-24.7,0-37c0-0.7,0-1.5-0.1-2.2c0-0.4-0.3-0.6-0.6-0.7
	c-0.6-0.1-1.1-0.1-1.7-0.1c-3.5,0-7,0-10.6,0c-3,0-2.7-0.2-2.7,2.8C74.7,44,74.7,56.9,74.7,69.9z M82.3,2.9c-23.2,0-46.3,0-69.5,0
	c-0.8,0-1.6,0-2.5,0.1c-0.2,0-0.5,0.2-0.6,0.4c-0.2,1-0.4,2.2,0.1,3.1c0.4,0.7,1.3,0.4,2.1,0.4c0.7,0,1.3,0,2,0c44,0,88,0,131.9,0
	c2.5,0,4.9,0,7.4,0c2,0,2.1-0.1,2-2.1c0-1.9,0-1.9-1.9-1.9c-0.7,0-1.3,0-2,0C128.4,2.9,105.3,2.9,82.3,2.9z M147.3,185.2
	c-0.3,2.3-0.3,6.1,0.1,7.8C147.8,190.7,147.7,186.8,147.3,185.2z"/>
</svg>
