<?xml version="1.0" encoding="utf-8"?>
<!-- Generator: Adobe Illustrator 25.0.0, SVG Export Plug-In . SVG Version: 6.00 Build 0)  -->
<svg version="1.1" id="Layer_1" xmlns="http://www.w3.org/2000/svg" xmlns:xlink="http://www.w3.org/1999/xlink" x="0px" y="0px"
	 viewBox="0 0 165 360" style="enable-background:new 0 0 165 360;" xml:space="preserve">
<path d="M165,180c0,58.3,0,116.6,0,175c0,1,0,2-0.1,2.9c-0.1,1.3-0.7,1.9-2,2c-0.7,0.1-1.3,0.1-2,0.1c-52.3,0-104.5,0-156.8,0
	c-0.7,0-1.3,0-2-0.1c-1.2-0.1-1.8-0.6-2-1.8c-0.2-0.8-0.2-1.6-0.2-2.4c0-3.3,0-6.5,0-9.8C0,232.6,0,119.3,0,6c0-1,0-2,0-2.9
	c0-0.6,0.1-1.1,0.3-1.7c0.2-0.8,0.8-1.3,1.6-1.3S3.5,0,4.3,0c52.2,0,104.4,0,156.6,0c0.8,0,1.6,0,2.4,0.1c0.9,0.1,1.4,0.7,1.6,1.6
	c0.1,0.4,0.1,0.8,0.1,1.2c0,0.9,0,1.8,0,2.7C165,63.7,165,121.9,165,180z M82.7,323c16.6,0,33.1,0,49.7,0c0.8,0,1.6,0,2.4,0
	c1.2-0.1,1.5-0.4,1.5-1.5c0-0.6,0-1.1,0-1.7c0-25.9,0-51.8,0-77.7c0-0.7,0-1.3-0.1-2c-0.1-0.7-0.4-1.1-1.1-1.1
	c-0.8-0.1-1.6-0.1-2.4-0.1c-33.4,0-66.9,0-100.3,0c-0.7,0-1.3,0-2,0c-1.2,0.1-1.5,0.4-1.6,1.4c0,0.6,0,1.1,0,1.7
	c0,25.9,0,51.8,0,77.7c0,0.7,0,1.3,0.1,2c0.1,0.7,0.4,1.1,1.1,1.1c0.8,0.1,1.6,0.1,2.4,0.1C49.2,323,65.9,323,82.7,323z M82.5,133.6
	c-16.6,0-33.1,0-49.7,0c-0.8,0-1.6,0-2.4,0c-1,0.1-1.4,0.4-1.5,1.3c-0.1,0.8-0.1,1.6-0.1,2.4c0,25.3,0,50.6,0,76c0,0.6,0,1.1,0,1.7
	c0.1,1.8,0.3,2,2,2.1c0.4,0,0.8,0,1.2,0c33.7,0,67.4,0,101,0c3.2,0,3.2,0,3.2-3.3c0-8.8,0-17.6,0-26.5c0-0.5,0-1,0-1.5
	c-0.1-1.5-0.3-1.7-1.7-1.8c-0.9-0.1-1.8,0-2.7-0.2c-1.2-0.2-1.9-1.1-1.9-2.2c-0.1-1,0.5-1.9,1.5-2.3c0.7-0.3,1.4-0.4,2.2-0.4
	c2.7,0.1,2.7-0.5,2.7-2.8c0-0.2,0-0.3,0-0.5c0-12.9,0-25.8,0-38.7c0-3.5,0-3.3-3.4-3.3C116.1,133.6,99.3,133.6,82.5,133.6z
	 M82.4,111.8c16.6,0,33.3,0,49.9,0c0.7,0,1.5,0,2.2,0c1.5-0.1,1.7-0.4,1.8-1.7c0-0.5,0-1,0-1.5c0-25.6,0-51.1,0-76.7
	c0-3.3,0-3.3-3.4-3.3c-33.5,0-67,0-100.5,0c-3.4,0-3.4,0-3.4,3.4c0,25.6,0,51.1,0,76.7c0,0.6,0,1.1,0,1.7c0.1,1,0.4,1.4,1.3,1.4
	c0.8,0.1,1.6,0.1,2.4,0.1C49.3,111.8,65.9,111.8,82.4,111.8z M10.4,183.3c0,56.3,0,112.5,0,168.8c0,1,0,2,0,2.9
	c0.1,1,0.4,1.3,1.4,1.4c0.3,0,0.7,0.1,1,0.1c3.3,0,6.7,0,10,0c0.3,0,0.7,0,1,0c1.1-0.1,1.5-0.5,1.6-1.5c0.1-1.1,0.1-2.1,0.1-3.2
	c0-77,0-154,0-231c0-35.4,0-70.9,0-106.3c0-1,0-2-0.1-2.9c-0.1-0.9-0.5-1.3-1.4-1.4c-0.5-0.1-1,0-1.5-0.1c-3.1,0-6.2,0-9.3,0
	c-0.4,0-0.8,0-1.2,0c-1.1,0.1-1.5,0.4-1.5,1.5c-0.1,0.9,0,1.8,0,2.7C10.4,70.6,10.4,126.9,10.4,183.3z M154.6,183.4
	c0-56.1,0-112.2,0-168.3c0-0.9,0-1.8,0-2.7c0-0.4,0-0.8-0.1-1.2c-0.1-0.6-0.5-1-1.2-1.1c-0.5-0.1-1-0.1-1.5-0.1c-3.1,0-6.2,0-9.3,0
	c-0.4,0-0.8,0-1.2,0c-0.9,0.1-1.4,0.5-1.4,1.4c-0.1,0.7-0.1,1.5-0.1,2.2c0,53.9,0,107.8,0,161.7c0,0.7,0,1.3,0,2
	c0.1,1.1,0.4,1.5,1.5,1.5c1.1,0.1,2.1,0.1,2.8-1c0.1-0.2,0.4-0.3,0.6-0.5c1.5-0.9,3.1-0.9,4.7-0.2c1.3,0.7,1.3,1.9,1.3,3.2
	c0,0.2,0,0.5,0,0.7c0,5.5,0,10.9,0,16.4c0,0.6,0,1.2-0.1,1.7c-0.2,1.4-0.7,2-2.1,2.4c-0.6,0.1-1.3,0.2-1.9,0.1
	c-2.4-0.4-2.9-1.2-2.9-3.2c0-0.5,0-1,0-1.5c0-3.3,0-6.5,0-9.8c0-0.7,0-1.3-0.1-2c-0.1-0.6-0.5-1-1.1-1.2c-0.5-0.1-1-0.1-1.5-0.1
	c-0.7,0-1.1,0.4-1.1,1.1c-0.1,1.1-0.1,2.1-0.1,3.2c0,54.5,0,109,0,163.4c0,0.6,0,1.1,0,1.7c0,0.4,0,0.8,0.1,1.2
	c0.1,1.1,0.5,1.5,1.5,1.6c0.2,0,0.5,0,0.7,0c3.4,0,6.9,0,10.3,0c0.2,0,0.5,0,0.7-0.1c0.9-0.1,1.3-0.5,1.4-1.4
	c0.1-1.1,0.1-2.1,0.1-3.2C154.6,295.7,154.6,239.6,154.6,183.4z M82.6,130.4c16.7,0,33.4,0,50.1,0c0.8,0,1.6,0,2.4-0.1
	c0.7-0.1,1-0.4,1.1-1.1c0.1-0.5,0.1-1,0.1-1.5c0-3.2,0-6.4,0-9.5c0-0.5,0-1,0-1.5c-0.1-0.8-0.4-1.2-1.2-1.3
	c-0.9-0.1-1.8-0.1-2.7-0.1c-33.2,0-66.3,0-99.5,0c-0.7,0-1.3,0-2,0c-0.3,0-0.7,0-1,0.1c-0.5,0.1-0.9,0.4-1,1c-0.1,0.7-0.1,1.3-0.1,2
	c0,2.9,0,5.7,0,8.6c0,3.5,0,3.4,3.4,3.4C49.1,130.4,65.9,130.4,82.6,130.4z M82.7,235.7c16.5,0,33.1,0,49.6,0c0.7,0,1.5,0,2.2,0
	c1.5-0.1,1.7-0.3,1.8-1.7c0-0.2,0-0.5,0-0.7c0-3.3,0-6.7,0-10c0-0.5,0-1-0.1-1.5c-0.1-0.5-0.4-0.9-1-1c-0.7-0.1-1.5-0.1-2.2-0.1
	c-33.7,0-67.3,0-101,0c-0.6,0-1.1,0-1.7,0.1c-1,0.1-1.3,0.4-1.4,1.4c-0.1,0.6-0.1,1.1-0.1,1.7c0,2.9,0,5.7,0,8.6
	c0,3.5,0,3.3,3.4,3.3C49.1,235.7,65.9,235.7,82.7,235.7z M82.6,25c16.7,0,33.4,0,50.1,0c0.8,0,1.6,0,2.4-0.1
	c0.7-0.1,1.1-0.4,1.1-1.1c0.1-0.6,0.1-1.1,0.1-1.7c0-2.8,0-5.5,0-8.3c0-0.7,0-1.5,0-2.2c-0.1-1.2-0.4-1.5-1.7-1.6
	c-0.8-0.1-1.6,0-2.4,0c-33,0-66,0-99,0c-0.7,0-1.3,0-2,0c-2.1,0.1-2.3,0.2-2.3,2.2c0,3.5,0,7,0,10.5c0,0.3,0,0.7,0.1,1
	c0.1,0.8,0.4,1.1,1.3,1.2c0.8,0.1,1.6,0,2.4,0C49.3,25,66,25,82.6,25z M82.7,343.3c-16.7,0-33.4,0-50.1,0c-0.8,0-1.6,0-2.4,0.1
	c-0.7,0.1-1.1,0.4-1.2,1c-0.1,0.3-0.1,0.7-0.1,1c0,2.9,0,5.9,0,8.8c0,0.3,0,0.7,0.1,1c0.1,0.6,0.5,1.1,1.1,1.1c1,0.1,2,0.1,2.9,0.1
	c33.1,0,66.2,0,99.3,0c0.6,0,1.1,0,1.7,0c0.3,0,0.7,0,1-0.1c0.8-0.1,1.2-0.5,1.3-1.2c0-0.2,0.1-0.5,0.1-0.7c0-3,0-6,0-9.1
	c0-0.3,0-0.7-0.1-1c-0.1-0.5-0.4-0.9-1-1c-0.8-0.1-1.6-0.1-2.4-0.1C116.2,343.3,99.4,343.3,82.7,343.3z M82.7,339.8
	c16.4,0,32.8,0,49.1,0c0.7,0,1.3,0,2,0c2.4-0.1,2.5-0.2,2.6-2.5c0-2.4,0-4.7,0-7.1c0-3.6,0.2-3.6-3.6-3.6c-33.4,0-66.8,0-100.2,0
	c-0.7,0-1.3,0-2,0c-1.1,0.1-1.6,0.4-1.6,1.5c0,3.4,0,6.9,0,10.3c0,0.1,0,0.2,0,0.2c0.1,0.6,0.5,1.1,1.1,1.1c0.9,0.1,1.8,0.1,2.7,0.1
	C49.4,339.8,66.1,339.8,82.7,339.8z M158.2,179.8c0,57.4,0,114.8,0,172.2c0,1,0,2,0,2.9c0.1,1,0.6,1.5,1.6,1.4c1,0,1.6-0.4,1.6-1.4
	c0.1-1,0.1-2,0.1-2.9c0-30.2,0-60.4,0-90.6c0-84.5,0-169,0-253.5c0-1,0-2,0-2.9c-0.1-1.3-0.6-1.7-1.9-1.6c-0.9,0-1.3,0.4-1.4,1.4
	c-0.1,1,0,2,0,2.9C158.2,65,158.2,122.4,158.2,179.8z M3.5,179.6c0,57.5,0,115,0,172.5c0,1,0,2,0,2.9c0.1,0.9,0.5,1.3,1.4,1.4
	c1.1,0.1,1.7-0.3,1.8-1.2c0.1-0.9,0.1-1.8,0.1-2.7c0-115.1,0-230.3,0-345.4c0-0.7,0-1.3,0-2c-0.1-1.5-0.6-1.9-2-1.8
	C4,3.3,3.6,3.7,3.6,4.5c-0.1,1-0.1,2-0.1,2.9C3.5,64.8,3.5,122.2,3.5,179.6z M82.7,3.3c-22.8,0-45.5,0-68.3,0c-0.8,0-1.6,0-2.4,0
	c-1.2,0.1-1.6,0.5-1.5,1.7c0,1,0.4,1.4,1.3,1.5c0.8,0.1,1.6,0.1,2.4,0.1c13.1,0,26.3,0,39.4,0c32.3,0,64.6,0,96.9,0c1,0,2,0,2.9-0.1
	c0.9-0.1,1.2-0.6,1.2-1.5c0-0.9-0.4-1.5-1.2-1.5c-0.9-0.1-1.8-0.1-2.7-0.1C128,3.3,105.3,3.3,82.7,3.3z"/>
</svg>
