<?xml version="1.0" encoding="utf-8"?>
<!-- Generator: Adobe Illustrator 25.0.0, SVG Export Plug-In . SVG Version: 6.00 Build 0)  -->
<svg version="1.1" id="Layer_1" xmlns="http://www.w3.org/2000/svg" xmlns:xlink="http://www.w3.org/1999/xlink" x="0px" y="0px"
	 viewBox="0 0 165 360" style="enable-background:new 0 0 165 360;" xml:space="preserve">
<path d="M0,180C0,121.6,0,63.2,0,4.8c0-1,0-2,0.1-2.9c0.1-1.2,0.7-1.7,1.9-1.9C2.6,0,3.2,0,3.9,0c52.4,0,104.7,0,157.1,0
	c0.7,0,1.5,0,2.2,0.1c0.8,0.1,1.4,0.6,1.6,1.3c0.2,0.6,0.2,1.3,0.3,1.9c0.1,0.8,0,1.6,0,2.5c0,116.1,0,232.3,0,348.4
	c0,1.2,0,2.5-0.2,3.7c-0.2,1.4-0.9,2-2.3,2.1c-0.7,0.1-1.3,0-2,0c-52.1,0-104.2,0-156.3,0c-0.7,0-1.5,0-2.2-0.1
	c-1.3-0.1-1.9-0.7-2-2c-0.1-1,0-2,0-2.9C0,296.7,0,238.4,0,180z M82.1,323c17,0,33.9,0,50.9,0c3.1,0,3.1,0,3.1-3.1c0-17,0-34,0-50.9
	c0-0.4,0-0.8,0-1.2c-0.1-1.5-0.3-1.7-1.7-1.8c-0.9-0.1-1.8,0-2.7,0c-32.5,0-65,0-97.5,0c-1,0-2,0-2.9,0c-0.5,0-1,0-1.5,0.1
	c-0.5,0.1-0.9,0.4-0.9,1c-0.1,0.7-0.1,1.5-0.1,2.2c0,16.9,0,33.8,0,50.7c0,0.6,0,1.1,0,1.7c0.1,1,0.4,1.4,1.3,1.4
	c0.8,0.1,1.6,0,2.4,0C49,323,65.6,323,82.1,323z M82.2,85.8c17,0,33.9,0,50.9,0c3,0,3,0,3-3c0-17,0-34,0-50.9c0-3.2,0-3.2-3.3-3.2
	c-33.6,0-67.2,0-100.7,0c-3.3,0-3.3,0-3.3,3.4c0,16.8,0,33.6,0,50.5c0,0.5,0,1,0,1.5c0.1,1.5,0.3,1.7,1.7,1.8c0.7,0,1.5,0,2.2,0
	C49.1,85.8,65.7,85.8,82.2,85.8z M82.5,186.5c-17,0-33.9,0-50.9,0c-2.9,0-2.9,0-2.9,2.8c0,17.1,0,34.3,0,51.4c0,0.5,0,1,0,1.5
	c0.1,1,0.4,1.4,1.3,1.4c0.9,0.1,1.8,0.1,2.7,0.1c33.1,0,66.2,0,99.3,0c0.6,0,1.1,0,1.7,0c2-0.1,2.3-0.3,2.3-2.2c0-0.4,0-0.8,0-1.2
	c0-16.8,0-33.6,0-50.5c0-0.7,0-1.3-0.1-2c-0.1-0.8-0.4-1.2-1.2-1.3s-1.6-0.1-2.4-0.1C115.7,186.5,99.1,186.5,82.5,186.5z
	 M82.4,164.7c16.7,0,33.4,0,50.1,0c0.8,0,1.6,0,2.4-0.1c0.5,0,0.9-0.4,1-0.9c0.1-0.7,0.1-1.5,0.1-2.2c0-16.9,0-33.8,0-50.7
	c0-0.7,0-1.3-0.1-2c-0.1-0.8-0.4-1.1-1.3-1.2c-0.7-0.1-1.5-0.1-2.2-0.1c-33.5,0-67,0-100.5,0c-3.4,0-3.4,0-3.4,3.4
	c0,16.7,0,33.5,0,50.2c0,3.7-0.2,3.6,3.6,3.6C49,164.7,65.7,164.7,82.4,164.7z M10.4,182.9c0,16.7,0,33.3,0,50
	c0,39.8,0,79.5,0,119.3c0,0.8,0,1.6,0,2.4c0.1,1.2,0.5,1.6,1.6,1.7c0.4,0,0.8,0,1.2,0c3,0,6,0,9,0c0.5,0,1,0,1.5-0.1
	c0.8-0.1,1.2-0.5,1.3-1.3c0.1-1.1,0.1-2.3,0.1-3.4c0-112.3,0-224.6,0-336.8c0-0.7,0-1.3,0-2c0-0.4,0-0.8,0-1.2
	c-0.1-1.1-0.5-1.5-1.5-1.6c-0.3,0-0.7,0-1,0c-3.3,0-6.5,0-9.8,0c-0.3,0-0.7,0-1,0c-0.9,0.1-1.3,0.5-1.4,1.4
	c-0.1,1.1-0.1,2.1-0.1,3.2C10.4,70.7,10.4,126.8,10.4,182.9z M154.7,183.3c0-40.8,0-81.5,0-122.3c0-15.7,0-31.4,0-47
	c0-0.9,0-1.8-0.1-2.7c0-0.6-0.4-1.1-1.1-1.1c-0.5-0.1-1-0.1-1.5-0.1c-3.3,0-6.5,0-9.8,0c-0.4,0-0.8,0-1.2,0
	c-0.9,0.1-1.3,0.4-1.4,1.4c-0.1,1-0.1,2-0.1,2.9c0,53.4,0,106.8,0,160.2c0,0.8,0,1.6,0,2.5c0,0.3,0.1,0.7,0.1,1
	c0.1,0.3,0.3,0.6,0.6,0.7c1.3,0.2,2.7,0.6,3.8-0.8c0.6-0.9,1.7-1,2.6-1.2c2.2-0.3,3.6,0.9,3.6,3.2c0,0.2,0,0.5,0,0.7
	c0,5.7,0,11.4,0,17.2c0,0.7,0,1.3-0.1,2c-0.1,0.8-0.5,1.4-1.3,1.7c-0.6,0.2-1.3,0.4-1.9,0.4c-2.3,0.1-3.3-0.9-3.4-3.2
	c0-0.5,0-1,0-1.5c0-3.2,0-6.4,0-9.6c0-0.7,0-1.3,0-2c0-0.6-0.3-1.1-0.9-1.3c-0.9-0.3-1.9-0.5-2.8,0.2c-0.2,0.2-0.4,0.6-0.4,0.9
	c-0.1,1-0.1,2-0.1,2.9c0,39,0,77.9,0,116.9c0,15.7,0,31.4,0,47c0,0.8,0,1.6,0,2.5c0.1,1.3,0.4,1.7,1.8,1.8c0.2,0,0.5,0,0.7,0
	c3.3,0,6.5,0,9.8,0c0.4,0,0.8,0,1.2-0.1c0.9-0.1,1.4-0.5,1.4-1.4c0.1-1,0.1-2,0.1-2.9C154.7,295.8,154.7,239.5,154.7,183.3z
	 M82.6,247.3c-16.7,0-33.4,0-50.1,0c-0.8,0-1.6,0-2.4,0c-1,0.1-1.3,0.4-1.3,1.4c0,0.3,0,0.7,0,1c0,3.3,0,6.7,0,10c0,0.5,0,1,0.1,1.5
	c0.1,0.5,0.4,0.9,0.9,1c0.7,0.1,1.5,0.1,2.2,0.1c33.7,0,67.3,0,101,0c0.7,0,1.3,0,2-0.1c0.8-0.1,1.2-0.4,1.2-1.3c0-4.2,0-8.3,0-12.5
	c0-0.7-0.4-1.1-1.1-1.1c-0.8-0.1-1.6-0.1-2.4-0.1C115.8,247.3,99.2,247.3,82.6,247.3z M82.4,10c-16.6,0-33.2,0-49.9,0
	c-0.9,0-1.8,0-2.7,0.1c-0.7,0.1-1,0.4-1.1,1.1c-0.1,0.5-0.1,1-0.1,1.5c0,2.8,0,5.5,0,8.3c0,0.9,0,1.8,0,2.7c0.1,0.9,0.4,1.2,1.2,1.3
	c0.9,0.1,1.8,0.1,2.7,0.1c24.9,0,49.9,0,74.8,0c8.5,0,17,0,25.4,0c0.7,0,1.5,0,2.2-0.1c0.5-0.1,0.9-0.4,1-1c0.1-0.4,0.1-0.8,0.1-1.2
	c0-3.4,0-6.9,0-10.3c0-0.3,0-0.7,0-1c-0.1-1-0.4-1.3-1.3-1.4c-0.8-0.1-1.6-0.1-2.4-0.1C115.6,10,99,10,82.4,10z M82.3,89
	c-16.4,0-32.7,0-49.1,0c-0.7,0-1.3,0-2,0c-2.4,0-2.5,0.1-2.6,2.4c0,0.1,0,0.2,0,0.2c0,3.2,0,6.4,0,9.5c0,0.5,0,1,0.1,1.5
	c0.1,0.8,0.4,1.2,1.3,1.2c0.7,0.1,1.5,0.1,2.2,0.1c33.4,0,66.8,0,100.2,0c0.7,0,1.3,0,2,0c1.3-0.1,1.6-0.4,1.7-1.6c0-0.5,0-1,0-1.5
	c0-2.9,0-5.7,0-8.6c0-3.5,0-3.3-3.4-3.3C115.9,89,99.1,89,82.3,89z M82.6,168.3c-16.7,0-33.4,0-50.1,0c-0.8,0-1.6,0-2.4,0.1
	c-1,0.1-1.3,0.4-1.4,1.4c-0.1,0.6,0,1.1,0,1.7c0,2.9,0,5.7,0,8.6c0,3.4,0,3.3,3.4,3.3c31.6,0,63.2,0,94.8,0c0.4,0,0.8,0,1.2,0
	c0.2,0,0.5,0,0.7,0c0.8-0.1,0.9-0.2,1-1c0.1-2.2,0.8-2.9,2.8-3.2c0.4-0.1,0.8,0,1.2-0.1c2-0.1,2.1-0.3,2.2-2.4c0-1.3,0-2.6,0-3.9
	c0-1,0-2,0-2.9c-0.1-1-0.4-1.4-1.3-1.4c-0.9-0.1-1.8-0.1-2.7-0.1C115.5,168.3,99.1,168.3,82.6,168.3z M82.5,343.3
	c-16.8,0-33.6,0-50.4,0c-0.8,0-1.6,0-2.4,0.1c-0.5,0.1-0.9,0.4-0.9,1c-0.1,0.6-0.1,1.1-0.1,1.7c0,2.4,0,4.7,0,7.1
	c0,3.2,0,3.2,3.3,3.2c8.7,0,17.4,0,26.2,0c24.6,0,49.2,0,73.8,0c1,0,2,0,2.9-0.1c0.7-0.1,1-0.5,1.1-1.1c0-0.2,0.1-0.5,0.1-0.7
	c0-3.1,0-6.2,0-9.3c0-1.5-0.3-1.8-1.9-1.8c-0.7,0-1.5,0-2.2,0C115.4,343.3,99,343.3,82.5,343.3z M82.6,326.5c-16.7,0-33.4,0-50.1,0
	c-0.9,0-1.8,0-2.7,0.1c-0.7,0.1-1,0.5-1.1,1.1c-0.1,0.5-0.1,1-0.1,1.5c0,2.4,0,4.7,0,7.1c0,3.4,0,3.4,3.3,3.4c33.6,0,67.1,0,100.7,0
	c0.7,0,1.3,0,2-0.1c0.9-0.1,1.3-0.5,1.4-1.4c0-0.2,0-0.5,0-0.7c0-2.9,0-5.9,0-8.8c0-0.2,0-0.5,0-0.7c-0.1-1-0.4-1.3-1.4-1.4
	c-0.9-0.1-1.8-0.1-2.7-0.1C115.5,326.5,99.1,326.5,82.6,326.5z M161.5,179.7c0-57.3,0-114.7,0-172c0-0.9,0-1.8,0-2.7
	c0-1.6-0.5-1.9-1.9-1.8c-0.8,0.1-1.1,0.4-1.2,1.3c-0.1,1.1-0.1,2.1-0.1,3.2c0,114.7,0,229.3,0,344c0,0.7,0,1.5,0,2.2
	c0,0.4,0,0.8,0.1,1.2c0.1,0.8,0.6,1.2,1.5,1.2c0.9,0,1.5-0.4,1.5-1.2c0.1-1,0.1-2,0.1-2.9C161.5,294.7,161.5,237.2,161.5,179.7z
	 M6.8,179.8c0-57.5,0-115,0-172.5c0-0.9,0-1.8,0-2.7c-0.1-1-0.4-1.3-1.4-1.4C4.1,3.2,3.7,3.6,3.6,4.9c-0.1,0.9,0,1.8,0,2.7
	c0,114.7,0,229.5,0,344.2c0,0.8,0,1.6,0,2.5c0,0.4,0.1,0.8,0.2,1.2c0.2,0.7,0.8,1,1.8,0.9c0.8-0.1,1.3-0.4,1.3-1.2
	c0.1-1,0.1-2,0.1-2.9C6.8,294.8,6.8,237.3,6.8,179.8z M82.6,6.5c22.7,0,45.3,0,68,0c0.8,0,1.6,0,2.4,0c1.3-0.1,1.7-0.6,1.6-1.9
	c-0.1-0.8-0.4-1.2-1.2-1.2c-0.7-0.1-1.5-0.1-2.2-0.1c-45.7,0-91.5,0-137.2,0c-0.7,0-1.3,0-2,0c-1.2,0.1-1.7,0.5-1.7,1.6
	c0,1.1,0.5,1.5,1.8,1.6c0.8,0.1,1.6,0,2.4,0C37.3,6.5,60,6.5,82.6,6.5z"/>
</svg>
