<?xml version="1.0" encoding="utf-8"?>
<!-- Generator: Adobe Illustrator 25.0.0, SVG Export Plug-In . SVG Version: 6.00 Build 0)  -->
<svg version="1.1" id="Layer_1" xmlns="http://www.w3.org/2000/svg" xmlns:xlink="http://www.w3.org/1999/xlink" x="0px" y="0px"
	 viewBox="0 0 165 360" style="enable-background:new 0 0 165 360;" xml:space="preserve">
<style type="text/css">
	.st0{fill:#020203;}
</style>
<g>
	<g>
		<path class="st0" d="M151.9,194.74c-0.07-0.3-0.24-0.53-0.46-0.73c-0.89-0.84-1.82-1.61-3.12-1.77c-0.14-0.02-0.27-0.12-0.41-0.13
			c-0.24-0.02-0.49-0.05-0.72,0c-1.2,0.27-2.34,0.68-3.21,1.61c-0.1,0.11-0.23,0.18-0.32,0.29c-0.15,0.19-0.33,0.38-0.4,0.6
			c-0.37,1.21-0.83,2.41-0.22,3.69c0.09,0.66,0.43,1.17,0.92,1.61c0.18,0.16,0.36,0.33,0.51,0.52c0.78,0.96,1.94,1.04,2.97,1.31
			c0.24-0.02,0.44-0.02,0.63-0.06c1.1-0.26,2.17-0.59,2.89-1.56c0.14-0.19,0.34-0.34,0.51-0.52c0.2-0.22,0.35-0.46,0.45-0.74
			c0.59-1.66,0.6-1.92,0.1-3.68C151.98,195.02,151.93,194.88,151.9,194.74z"/>
		<path class="st0" d="M165,2.09c0-0.24,0-0.49-0.02-0.73c-0.07-0.8-0.52-1.28-1.29-1.33C163.1-0.01,162.51,0,161.92,0
			C109,0,56.08,0,3.16,0C2.77,0,2.38,0,1.99,0C1.74,0,1.49,0.02,1.25,0.03c-0.63,0.04-1.19,0.6-1.21,1.26C0.01,1.88,0,2.46,0,3.06
			C0,62.04,0,121.02,0,180c0,58.88,0,117.78,0,176.66c0,0.44,0,0.88,0,1.32c0,0.24,0.01,0.49,0.02,0.73
			c0.04,0.64,0.52,1.2,1.22,1.24C1.87,360,2.52,360,3.16,360c52.92,0,105.84,0,158.76,0c0.44,0,0.88,0.01,1.32-0.01
			c0.24-0.01,0.49-0.03,0.73-0.08c0.46-0.11,0.78-0.4,0.91-0.86c0.06-0.23,0.09-0.48,0.1-0.72c0.02-0.49,0.01-0.98,0.01-1.46
			c0-117.88,0-235.74,0-353.62C165,2.88,165,2.49,165,2.09z M6.62,9.64c0,26.9,0,53.8,0,80.71c0,88.14,0,176.28,0,264.42
			c0,0.68-0.03,1.36-0.05,2.05c-0.01,0.19-0.2,0.38-0.38,0.38c-0.98,0-1.96,0-2.94,0c-0.18,0-0.34-0.19-0.36-0.39
			c-0.02-0.19-0.04-0.39-0.04-0.58c-0.01-0.54,0-1.07,0-1.61c0-58.11,0-116.21,0-174.32c0-58.2,0-116.41,0-174.61
			c0-0.31,0.01-0.62,0.03-0.93L6.66,8.5C6.63,8.88,6.62,9.26,6.62,9.64z M25.15,354.87c0,0.59,0,1.17-0.02,1.76
			c-0.01,0.36-0.19,0.55-0.52,0.57c-0.24,0.01-0.49,0.02-0.73,0.02c-4.36,0-8.73,0-13.09,0c-0.34,0-0.68-0.03-1.02-0.07
			c-0.07-0.01-0.17-0.12-0.2-0.2c-0.05-0.14-0.06-0.29-0.07-0.43c-0.01-0.44-0.01-0.88-0.01-1.32c0-114.59,0-229.19,0-343.78
			c0-2.22-0.27-1.96,1.94-1.97c4.12-0.01,8.24,0,12.36,0c1.42,0,1.37-0.03,1.37,1.36c0,0.49,0,0.98,0,1.46
			c0,56.98,0,113.96,0,170.94C25.15,240.43,25.15,297.65,25.15,354.87z M136.65,356.77c-0.01,0.25-0.22,0.42-0.5,0.43
			c-0.39,0.01-0.78,0.02-1.17,0.02c-35.1,0-70.21,0-105.31,0c-0.39,0-0.78-0.01-1.17-0.03c-0.26-0.01-0.44-0.21-0.45-0.47
			c-0.01-0.39-0.02-0.78-0.02-1.17c0-9.14,0-18.29,0-27.42c0-1.82-0.17-1.68,1.63-1.68c17.6,0,35.2,0,52.8,0
			c17.41,0,34.81,0,52.22,0c0.54,0,1.07,0.02,1.61,0.03c0.18,0.01,0.36,0.19,0.37,0.38c0.02,0.34,0.04,0.68,0.04,1.02
			c0,9.28,0,18.58,0,27.86C136.69,356.08,136.68,356.43,136.65,356.77z M136.69,321.23c0,0.59,0,1.17-0.02,1.76
			c-0.01,0.36-0.19,0.55-0.51,0.57c-0.2,0.01-0.39,0.02-0.59,0.02c-0.39,0-0.78,0-1.17,0c-34.72,0-69.45,0-104.18,0
			c-0.59,0-1.17-0.02-1.76-0.04c-0.2-0.01-0.38-0.18-0.4-0.36c-0.01-0.15-0.03-0.29-0.03-0.44c0-0.54,0-1.07,0-1.61
			c0-48.52,0-97.03,0-145.56c0-48.47,0-96.94,0-145.41c0-0.59,0.01-1.17,0.03-1.76c0.01-0.25,0.21-0.43,0.48-0.44
			c0.39-0.01,0.78-0.02,1.17-0.02c35.11,0,70.24,0,105.35,0c0.34,0,0.68,0,1.03,0.01c0.42,0.01,0.57,0.18,0.59,0.65
			c0.01,0.2,0.01,0.39,0.01,0.59c0,0.39,0,0.78,0,1.17c0,48.62,0,97.23,0,145.85c0,0.54,0,1.07-0.01,1.61
			c-0.01,0.58-0.14,0.71-0.67,0.72c-0.34,0.01-0.68,0.01-1.03,0.01c-0.54,0-1.08,0.04-1.61-0.01c-1.01-0.09-1.94,0.24-2.85,0.61
			c-0.18,0.07-0.37,0.18-0.47,0.33c-0.58,0.86-1.08,1.76-0.71,2.86c0.12,0.37,0.26,0.74,0.4,1.1c0.15,0.39,0.43,0.67,0.8,0.81
			c0.87,0.33,1.74,0.63,2.71,0.6c0.98-0.03,1.97,0.01,2.94,0.02c0.27,0,0.45,0.19,0.47,0.45c0.01,0.19,0.03,0.39,0.03,0.58
			c0,0.44,0,0.88,0,1.32C136.69,231.92,136.69,276.57,136.69,321.23z M28.02,10.7c0-0.24,0.01-0.49,0.02-0.73
			c0.01-0.29,0.18-0.47,0.43-0.49c0.15-0.01,0.29-0.03,0.44-0.03c0.39,0,0.78,0,1.17,0c34.87,0,69.73,0,104.61,0
			c0.49,0,0.98,0,1.47,0.02c0.34,0.01,0.5,0.19,0.52,0.56c0.01,0.34,0.02,0.68,0.02,1.03c0,4.16,0,8.31,0,12.47
			c0,0.34-0.01,0.68-0.02,1.02c-0.01,0.32-0.22,0.5-0.57,0.51c-0.2,0.01-0.39,0.01-0.59,0.01c-0.44,0-0.88,0-1.32,0
			c-17.27,0-34.52,0-51.79,0c-17.46,0-34.91,0-52.38,0c-0.54,0-1.07-0.02-1.61-0.04c-0.18-0.01-0.35-0.2-0.36-0.39
			c-0.01-0.24-0.03-0.49-0.03-0.73C28.01,19.5,28.01,15.09,28.02,10.7z M155.49,355.05c0,0.58-0.02,1.17-0.04,1.75
			c-0.01,0.19-0.19,0.37-0.37,0.38c-0.24,0.01-0.49,0.03-0.73,0.03c-4.51,0-9.02,0-13.54,0c-0.29,0-0.59-0.01-0.87-0.06
			c-0.11-0.02-0.24-0.16-0.29-0.28c-0.06-0.12-0.06-0.29-0.06-0.43c-0.01-0.49-0.01-0.98-0.01-1.47c0-55.96,0-111.92,0-167.87
			c0-0.54,0.01-1.07,0.01-1.61c0-0.5,0.29-0.6,0.65-0.6c1.12-0.01,2.26-0.01,3.39-0.01c0.3,0,0.58,0.09,0.81,0.29
			c0.19,0.16,0.37,0.32,0.58,0.45c0.81,0.49,1.71,0.68,2.64,0.81c0.94-0.23,1.95-0.34,2.72-1c1.69-1.45,1.31-0.94,1.9-2.97
			c0.18-0.65,0.13-1.24-0.06-1.86c-0.47-1.49-0.33-1.25-1.44-2.28c-0.77-0.71-1.69-0.95-2.64-1.2c-0.27-0.08-0.59-0.09-0.87-0.03
			c-0.9,0.19-1.83,0.33-2.57,0.99c-0.11,0.1-0.22,0.2-0.35,0.27c-0.17,0.09-0.35,0.21-0.53,0.21c-1.27,0.01-2.55,0-3.82-0.01
			c-0.19,0-0.36-0.19-0.38-0.37c-0.01-0.15-0.03-0.29-0.03-0.44c0-0.44,0-0.88,0-1.32c0-54.93,0-109.86,0-164.79
			c0-0.59,0.02-1.17,0.04-1.76c0.01-0.18,0.2-0.35,0.39-0.36c0.29-0.02,0.59-0.03,0.88-0.03c4.46,0,8.92,0,13.4,0
			c0.29,0,0.59,0,0.88,0.05c0.11,0.02,0.23,0.16,0.29,0.28c0.06,0.13,0.05,0.29,0.05,0.43c0.01,0.59,0.01,1.17,0.01,1.76
			c0,57.08,0,114.17,0,171.25C155.49,240.49,155.49,297.77,155.49,355.05z M156.51,6.38c-0.09,0.09-0.26,0.13-0.4,0.16
			c-0.14,0.03-0.29,0.02-0.44,0.02c-0.49,0-0.98,0-1.47,0c-48.01,0-96.02,0-144.03,0c-0.59,0-1.17,0.01-1.76,0
			c-0.09,0-0.19,0.01-0.29,0.02L4.3,2.79c0.05,0,0.11,0,0.16,0c0.44,0,0.88,0,1.32,0c25.31,0,50.61,0,75.92,0
			c25.41,0,50.8,0,76.21,0c0.54,0,1.07,0.02,1.61,0.04c0.07,0,0.14,0.11,0.19,0.19c0.02,0.03,0,0.1-0.03,0.13
			C158.72,4.31,157.6,5.32,156.51,6.38z M162.16,354.78c0,0.63,0,1.27-0.02,1.9c-0.01,0.32-0.22,0.52-0.57,0.52
			c-0.88,0.01-1.76,0.01-2.65,0c-0.33,0-0.52-0.21-0.53-0.56c-0.01-0.54-0.01-1.07-0.01-1.61c0-53.5,0-107.02,0-160.52
			c0-61.29,0-122.57,0-183.86c0-0.54,0-1.07,0.01-1.61c0-0.25,0.06-0.49,0.24-0.67c1.04-1.03,2.1-2.05,3.15-3.08
			c0.08-0.08,0.19-0.06,0.26,0.02c0.03,0.03,0.08,0.07,0.08,0.1c0.02,0.14,0.04,0.29,0.04,0.44c0.01,0.49,0,0.98,0,1.47
			c0,57.96,0,115.92,0,173.88C162.16,239.05,162.16,296.92,162.16,354.78z"/>
	</g>
</g>
</svg>
