<?xml version="1.0" encoding="utf-8"?>
<!-- Generator: Adobe Illustrator 25.0.0, SVG Export Plug-In . SVG Version: 6.00 Build 0)  -->
<svg version="1.1" id="Layer_1" xmlns="http://www.w3.org/2000/svg" xmlns:xlink="http://www.w3.org/1999/xlink" x="0px" y="0px"
	 viewBox="0 0 1920 1080" style="enable-background:new 0 0 1920 1080;" xml:space="preserve">
<style type="text/css">
	.st0{fill:#282119;}
	.st1{fill:#FFFFFF;}
	.st2{fill:none;stroke:#282119;stroke-width:27;stroke-miterlimit:10;}
	.st3{opacity:5.000000e-02;}
</style>
<g>
	<circle class="st0" cx="-1060.5" cy="-412.8" r="199.5"/>
	<path class="st1" d="M-1032.8-393.8c-1.9-1.1-3.9-0.6-5.7-0.6c-32.9,0-65.8,0-98.7-0.1c-14.3,0-23.4-13.3-17.7-26
		c3.4-7.6,9.7-10.9,17.9-10.9c32.9,0,65.8,0,98.7,0c1.9,0,3.7,0,7.2,0c-8.4-7.6-15.6-14.1-22.7-20.6c-4.4-4-7.1-8.7-7-14.8
		c0.2-14.2,14.8-22.9,27.2-15.9c2.4,1.4,4.6,3.2,6.7,5.1c18.2,16.3,36.3,32.6,54.5,48.9c11,10,10.9,21.5-0.1,31.4
		c-18.8,16.9-37.6,33.8-56.4,50.7c-7.8,6.9-16.4,7.8-23.7,2.7c-9.6-6.7-11.1-19.7-2.7-28.1c5.9-6,12.5-11.4,18.8-17.2
		C-1035.3-390.5-1033.2-391.4-1032.8-393.8z"/>
</g>
<g>
	<circle class="st2" cx="-640.5" cy="-412.8" r="185"/>
	<path class="st0" d="M-612.7-393.7c-1.9-1.1-3.9-0.6-5.8-0.6c-33,0-66,0-98.9-0.1c-14.4,0-23.5-13.4-17.8-26
		c3.4-7.6,9.7-10.9,17.9-10.9c33,0,66,0,98.9,0c1.9,0,3.7,0,7.2,0c-8.4-7.6-15.6-14.1-22.8-20.6c-4.4-4-7.1-8.7-7.1-14.9
		c0.2-14.2,14.9-22.9,27.2-15.9c2.4,1.4,4.6,3.3,6.8,5.1c18.2,16.3,36.4,32.6,54.6,49c11.1,10,11,21.6-0.1,31.5
		c-18.9,16.9-37.7,33.9-56.6,50.8c-7.8,7-16.4,7.8-23.8,2.7c-9.6-6.7-11.1-19.7-2.7-28.2c6-6.1,12.6-11.5,18.8-17.2
		C-615.3-390.5-613.2-391.4-612.7-393.7z"/>
</g>
<g>
	<path class="st0" d="M-192.7-392.9c-1.9-1.1-3.9-0.6-5.8-0.6c-33,0-66,0-98.9-0.1c-14.4,0-23.5-13.4-17.8-26
		c3.4-7.6,9.7-10.9,17.9-10.9c33,0,66,0,98.9,0c1.9,0,3.7,0,7.2,0c-8.4-7.6-15.6-14.1-22.8-20.6c-4.4-4-7.1-8.7-7.1-14.9
		c0.2-14.2,14.9-22.9,27.2-15.9c2.4,1.4,4.6,3.3,6.8,5.1c18.2,16.3,36.4,32.6,54.6,49c11.1,10,11,21.6-0.1,31.5
		c-18.9,16.9-37.7,33.9-56.6,50.8c-7.8,7-16.4,7.8-23.8,2.7c-9.6-6.7-11.1-19.7-2.7-28.2c6-6.1,12.6-11.5,18.8-17.2
		C-195.3-389.6-193.2-390.5-192.7-392.9z"/>
</g>
<path d="M-160.7,350.3c-51.1-4.7-99.5-34.9-140.5-78c-35.3-37.1-62-79.2-68.4-131.8c-5.5-45.1,16.7-79.4,59-89.5
	c15.2-3.6,25.8,0.2,31.7,15.5c7.2,18.8,14.6,37.6,22.6,56.1c7.1,16.7,5,30.9-9.7,42c-13.2,9.9-12.1,19.7-2.5,31.8
	c16.2,20.3,34,38.8,55,54.2c9.7,7.1,17.9,8.2,26.2-1.8c14-16.9,30.1-20.1,50.2-9.9c15.1,7.7,31.3,13.4,47.4,18.7
	c18.2,6,22.5,18.1,19,35.3C-78.5,330-107.1,350.7-160.7,350.3z M-347.5,132.1c-0.5,13.6,3.1,30.2,10,46
	c23.4,53.7,60.3,95.5,110.7,125.4c21.3,12.7,44,21.9,68.7,25.2c29,3.9,54.2-9.1,62.9-31c4.2-10.6,3.5-17.7-8.9-21.8
	c-12.5-4.1-25.1-8.7-36.7-14.9c-14.3-7.5-24.6-5.2-34.3,7.5c-8.9,11.7-21.2,17.2-34.9,9.4c-37.4-21.3-68-49.7-87.7-88.7
	c-5.2-10.3-4.4-21.5,4.6-27.5c23.6-15.8,16.9-34.2,7.6-53.9c-3.7-8-7.2-16.1-10.1-24.5c-3.5-9.9-9.3-11.9-19-8.6
	C-336.3,82.1-347.4,99.6-347.5,132.1z"/>
<g>
	<path d="M-1058.4,38c-76.9-0.4-131.9,64.8-116,140c14.4,68.1,57.2,121.2,97.9,174.9c10,13.2,24.8,11.7,35.3-2.1
		c33.9-44.7,67.1-90,87.8-142.8C-919.7,122-971.3,38.5-1058.4,38z M-966.8,175.5c-14.3,59-50.4,106.5-85.7,154.2
		c-5.6,7.6-10.2,5.2-14.8-0.9c-34.9-47.2-70.6-93.9-85.2-152.3c-14.9-59.6,30.5-117.1,92.1-117.4
		C-998.7,58.7-952.3,115.5-966.8,175.5z"/>
	<path d="M-1059.4,92.3c-33.3-0.1-61.2,27.5-61.6,61.1c-0.5,34.6,25.5,62.4,59.3,63.4c35,1,63.3-26,63.9-60.8
		C-997.3,121.6-1025.5,92.4-1059.4,92.3z M-1060.9,194.2c-21.7-0.3-38.7-17.8-38.9-40.1c-0.2-21.6,17.5-38.6,40.1-38.6
		c21.7,0,39.9,17.7,40.2,39C-1019.2,176.6-1037.8,194.5-1060.9,194.2z"/>
</g>
<g>
	<path d="M-640.2,89.8c29.4,0,58.8-0.2,88.1,0.1c22.8,0.2,40.2,14.2,44.1,35.1c0.6,3.4,0.7,6.8,0.7,10.3c0,42.1,0.1,84.3,0,126.4
		c0,30-18,48.4-47.9,48.5c-56.7,0.2-113.4,0.2-170.2,0c-29.2-0.1-47.4-18.6-47.5-47.7c-0.1-42.7-0.2-85.5,0-128.2
		c0.1-20.8,10.7-35.6,29.5-42.2c5.4-1.9,11.1-2.4,16.8-2.4C-697.7,89.7-668.9,89.7-640.2,89.8C-640.2,89.7-640.2,89.8-640.2,89.8z
		 M-640.1,111c-31.2,0-62.4,0-93.6,0c-2.8,0-6.1-0.3-7.5,2.8c-1.5,3.2,1.7,4.7,3.4,6.4c29.1,29.6,58.2,59.2,87.4,88.8
		c8,8.1,12.8,8.1,20.6,0.3c29.5-29.8,58.9-59.7,88.3-89.6c1.5-1.5,3.8-3,2.9-5.6c-1.1-3-4-3.1-6.6-3.1c-1.8-0.1-3.6,0-5.5,0
		C-580.5,110.9-610.3,110.9-640.1,111z M-736.7,288.8c2.5,0.2,3.7,0.4,4.9,0.4c61,0,121.9,0,182.9,0c1.7,0,4.1,0.9,4.8-1.4
		c0.5-1.6-1.5-2.7-2.6-3.8c-20.3-20.4-40.6-40.7-60.8-61.2c-3.3-3.4-5.5-3.1-8.3,0.3c-14.1,17.3-32.8,19.3-48.4-0.5
		c-2.6-3.3-4.7-3.2-7.8-0.1c-16,16.3-32.4,32.4-48.3,48.8C-725.6,276.6-731.6,281.5-736.7,288.8z M-750.3,272.1
		c1.3-1,1.8-1.3,2.2-1.7c20.9-21,41.7-42,62.6-62.8c3.7-3.7,1.3-6-1.2-8.5c-19.7-19.8-39.4-39.7-59.2-59.5c-1.1-1.1-2-3.2-4.5-2.6
		C-750.3,181.7-750.3,226.5-750.3,272.1z M-530,136.3c-1.6,1.3-2.6,1.9-3.4,2.8c-20.4,20.5-40.7,41.2-61.2,61.6
		c-3.2,3.2-1.6,5.1,0.8,7.5c20,20.1,40,40.2,60,60.3c0.9,0.9,1.7,2.3,3.9,2.1C-530,226.1-530,181.7-530,136.3z"/>
</g>
<g class="st3">
	<path d="M587.8,648.4c0,0,0,0.1,0.1,0.1c0,0,0.1,0.1,0.1,0.1L587.8,648.4z"/>
	<path d="M1621,476.8c-0.1-0.4-0.2-0.9-0.5-1c-1.6-0.8-3.2-1.7-4.9-2.4c-22-9.4-43.9-18.8-65.9-28.1c-2-0.9-4.1-1.8-6.1-2.7
		c-0.8-0.4-1.2-1.1-1.2-1.9c-0.1-1.8-0.1-3.6-0.1-5.5c0-42.1,0-84.3,0-126.4c0-1.2,0-2.4,0-3.6c0-1,0-2.1,0.4-3
		c0.7-1.8,0.7-3.5,0.7-5.4c0-23.5,0-47,0-70.5c0-1-0.1-2-0.2-3c-0.1-0.9-1.3-2-2.1-1.8c-2.8,0.6-5.6,0.6-8.4,0.6
		c-303.7,0-607.4,0-911.1,0c-1.4,0-2.8,0-4.3,0c-0.6,0-1.2-0.1-1.8-0.2c-0.8-0.1-1.5-0.8-1.6-1.6c-0.1-1.8-0.1-3.6-0.1-5.5
		c0-17.6,0-35.3,0-52.9c0-1.8,0-3.6-0.1-5.5c0-0.6-0.2-1.2-0.4-1.7c-0.1-0.2-0.6-0.3-0.9-0.4c-0.1,0-0.4,0.1-0.5,0.3
		c-0.2,0.3-0.5,0.7-0.5,1.1c-0.1,1.6-0.1,3.2-0.2,4.9c0,1-0.1,2-0.2,3c0,0.4-0.9,1-1.3,1c-5-0.8-10-1.6-15-2.4
		c-1.7-0.3-3.2-0.4-4.4,1.2c-0.3,0.4-1.1,0.6-1.6,0.6c-2,0.1-4,0.1-6.1,0.1c-58.1,0-116.3,0-174.4,0c-1.6,0-3.2,0-4.9,0
		c-1.5,0-2.8-0.3-3.8-1.5c-0.3-0.4-1.1-0.6-1.6-0.5c-2.2,0.2-4.4,0.6-6.6,0.9c-3.4,0.5-6.8,1.1-10.2,1.6c-0.4,0.1-1.3-0.6-1.3-1
		c-0.1-1.6-0.2-3.2-0.3-4.8c-0.1-1.2-0.2-2.4-0.4-3.6c0-0.3-0.5-0.7-0.8-0.7c-0.3,0-0.8,0.3-0.9,0.6c-0.3,0.5-0.4,1.1-0.5,1.7
		c-0.1,2-0.1,4.1-0.1,6.1c0,34,0,68.1,0,102.1c0,8.3-0.1,16.6-0.8,24.9c-0.3,3-0.1,6.1-0.1,9.1c0,2.7,1,3.5,3.8,3.5
		c1.8,0.1,3.6,0,5.5,0c26.1,0,52.3,0,78.4,0c18,0,36.1,0,54.1,0c1.8,0,3.6,0.1,5.5,0.2c0.7,0,1.6,0.8,1.6,1.5c0.1,2,0.2,4,0.2,6.1
		c0,149.3,0,298.6,0,447.9c0,1.8,0,3.6-0.1,5.5c-0.1,1.8-0.8,2.6-2.6,2.6c-2,0-4.1,0-6.1,0c-43.8,0-87.5,0-131.3,0
		c-2,0-4.1,0-6.1,0.1c-1.7,0-2.8,1-2.9,2.5c-0.5,6.5-0.1,13,0.8,19.4c0.9,6.4,3,12.6,5.9,18.4c1.6,3.3,2.9,6.7,5.1,9.6
		c7.6,9.9,16.5,18.4,27.8,23.9c6.2,3,12.7,5.3,19.6,6.2c5.2,0.7,10.5,0.9,15.8,0.9c18.4,0.1,36.9,0,55.3,0c2,0,4,0.1,6.1,0.2
		c0.6,0,1.4,1.1,1.2,1.8c-0.3,1.6-0.6,3.2-1.1,4.7c-0.2,0.5-0.6,1-1.1,1.4c-0.8,0.6-1.7,1.1-2.5,1.7c-3.5,2.5-6.4,5.5-8.7,9.2
		c-2.5,4-4.2,8.3-4.7,13c-0.1,0.6-0.1,1.2-0.4,1.8c-0.1,0.3-0.5,0.7-0.9,0.8c-1.2,0.2-2.4,0.3-3.6,0.3c-4.7,0-9.3,0-14,0.1
		c-0.6,0-1.2,0.3-1.7,0.6c-0.3,0.2-0.3,0.7-0.4,1c0,0.1,0.2,0.3,0.4,0.4c0.8,0.2,1.6,0.5,2.3,0.5c4.3,0.1,8.5,0,12.8,0
		c1.2,0,2.4,0.1,3.6,0.2c0.7,0,1.6,0.9,1.6,1.6c0.2,2.9,0.9,5.6,2,8.2c4.7,11.4,13,18.3,25.3,20.2c0.8,0.1,1.6,0.3,2.4,0.5
		c0.3,0.1,0.7,0.5,0.8,0.9c0.2,1,0.3,2,0.3,3c0,6.3,0,12.6,0,18.8c0,1,0.1,2,0.3,3c0.1,0.3,0.6,0.5,0.9,0.7c0.5,0.3,0.8,0.1,0.9-0.5
		c0.1-1.2,0.3-2.4,0.4-3.6c0-5.5,0-10.9,0-16.4c0-1.4,0.1-2.8,0.1-4.2c0-0.8,0.7-1.6,1.4-1.8c0.8-0.2,1.6-0.3,2.4-0.5
		c4.7-0.7,9-2.2,12.8-5.1c1.3-1,2.6-2,3.7-3.1c1.6-1.6,3-3.2,4.6-4.9c0.3-0.4,0.7-0.4,1.1-0.1c0.1,0.1,0.2,0.3,0.2,0.5
		c0.1,4,0.1,8.1,0.2,12.1c0.1,4.3,2.5,7.2,6.4,8.8c1.7,0.7,3.5,1.1,5.3,1.1c2,0,4.1,0,6.1,0c160.1,0,320.1,0,480.2,0
		c159.9,0,319.7,0,479.6,0c2,0,4.1,0,6.1,0c0.8,0,1.6-0.1,2.4-0.3c0.8-0.1,2-1.3,2-2.1c0.1-2,0.2-4,0.2-6.1c0-47,0-94,0-141
		c0-1,0-2,0-3c0-1.6,0-3.2-0.7-4.8c-0.4-0.9-0.4-2-0.4-3c-0.1-1,0-2,0-3c0-2,0-4.1,0-6.1c0-2-0.5-4.2,0.5-6c1.1-2.2-1-3.9-0.5-5.9
		c0.3-1,0.3-2,0.5-3c0.2-0.8,0.6-1.6,0.2-2.3c-0.7-1.3-0.7-2.7-0.7-4.1c0-1.8-0.1-3.6-0.1-5.5c0-0.9-0.5-1.5-1.3-1.9
		c-0.9-0.4-1.8-0.9-2.8-1.3c-4.6-2-9.3-4-14-6c-18.8-8-37.6-16-56.4-24c-1.1-0.5-2.2-1.1-3.2-1.6c-0.1,0-0.1-0.4,0-0.5
		c0-0.2,0.1-0.4,0.2-0.4c2-0.1,4-0.3,6-0.3c45,0,90,0,134.9,0c1.8,0,3.6,0,5.5,0c0.6,0,1.2-0.1,1.8-0.3c0.3-0.1,0.7-0.5,0.8-0.8
		c0.1-0.3-0.1-0.9-0.3-1.1c-1.2-0.8-2.3-1.6-3.6-2.2c-12.4-6.5-24.7-13-37.1-19.5c-9.1-4.8-18.3-9.7-27.4-14.4c-2-1-3.2-2.3-3-4.7
		c0.1-1.8,0-3.6,0-5.5c0-41.1,0-82.2,0-123.4c0-2.8,0-5.7,0-8.5c0-0.8,0-1.6-0.2-2.4c-0.1-0.5-0.5-1.1-1-1.4c-1-0.7-2.1-1.2-3.2-1.8
		c-15.3-7.8-30.7-15.6-46-23.4c-1.8-0.9-3.5-1.9-5.3-2.9c-0.4-0.2-0.6-0.6-0.3-1c0.1-0.1,0.3-0.3,0.4-0.3c2-0.1,4-0.2,6.1-0.2
		c39.9,0,79.8,0,119.7,0c1.8,0,3.6,0,5.5,0c0.6,0,1.2-0.1,1.8-0.1C1620.3,477.9,1621.1,477.2,1621,476.8z M613.4,387
		c0.5-0.2,1.1-0.8,1.1-1.3c0.3-2.2,0.4-4.4,0.6-6.6c0-0.2,0.7-0.5,0.9-0.4c0.7,0.4,1.3,0.9,1.9,1.4c6.8,6.7,13.5,13.4,20.2,20.1
		c7.9,7.8,15.8,15.7,23.7,23.5c1,1,2,2,2.9,3.1c0.6,0.6,0.9,1.3,0.9,2.2c0,4.7,0,9.3,0,14c0,0,0,0,0,0c0,4.5,0,8.9,0,13.4
		c0,0.3-0.3,0.7-0.5,1c-0.2,0.4-1,0.2-1.6-0.4c-0.1-0.1-0.3-0.3-0.4-0.4c-1.6-1.5-3.2-3.1-4.8-4.6c-20.1-20-40.1-40-60.1-60
		c-1-1-1.9-2.1-2.7-3.2c-0.1-0.2,0.2-0.9,0.4-1c0.8-0.2,1.6-0.3,2.4-0.3c4,0,8.1,0,12.1,0C611.4,387.5,612.4,387.3,613.4,387z
		 M640.5,326.2c6.9,6.8,13.8,13.7,20.7,20.5c1.1,1.1,2.3,2.3,3.4,3.5c0.8,0.8,1.1,1.7,1.1,2.7c0,1.2,0,2.4,0,3.6c0,3.4,0,6.9,0,10.3
		c0,0,0,0,0,0c0,4,0,8.1,0,12.1c0,1.6-0.2,2-0.8,2.1c-0.9,0-1.4-0.6-2-1.1c-0.8-0.7-1.5-1.4-2.2-2.1c-14.3-14.3-28.7-28.6-43-42.9
		c-0.7-0.7-1.5-1.4-2.1-2.2c-0.4-0.5-0.5-1.1-0.7-1.6c-0.1-0.6-0.1-1.2-0.1-1.8c0-7.7,0-15.4,0-23.1c0-0.8,0.1-1.6,0.2-2.4
		c0-0.4,1-0.9,1.4-0.8c0.4,0.2,0.8,0.2,1.1,0.5c0.8,0.6,1.5,1.4,2.2,2.1C626.7,312.5,633.6,319.4,640.5,326.2z M625,303.2
		c0.1-0.3,0.5-0.5,0.9-0.7c0.2-0.1,0.4,0,0.6,0c0.6,0,1.2,0.1,1.8,0.1c13.8,1.4,24.5,7.8,31.6,19.7c3.6,5.9,5.5,12.6,5.7,19.6
		c0,0.3-0.3,0.8-0.5,0.9c-0.3,0.1-0.8,0.1-1.1-0.2c-0.9-0.8-1.8-1.6-2.7-2.4c-7.9-7.8-15.8-15.7-23.7-23.5
		c-4.2-4.1-8.3-8.3-12.4-12.4C625,304.1,624.9,303.5,625,303.2z M665.8,704.8C665.8,704.8,665.7,704.8,665.8,704.8
		c0,2.2,0.1,4.4,0,6.7c-0.1,1.2-0.3,2.4-0.7,3.5c-0.9,2.6-3.2,4.1-6.1,4c-0.6,0-1.2-0.2-1.7-0.5c-0.5-0.3-0.9-0.8-1.4-1.2
		c-2.1-1.6-3-3.6-2.9-6.3c0.2-2.8,0-5.7,0-8.5c0.1-3.4-0.1-6.8-0.8-10.2c-0.1-0.4,0.7-1.2,1.1-1.2c0.8,0,1.6,0,2.4,0.1
		c0.8,0.1,1.6,0.4,2.4,0.4c0.5,0,1.1-0.3,1.6-0.6c0.4-0.3,0.7-0.4,1.1-0.1c0.8,0.7,1.5,1.3,2.3,2c2.1,1.6,2.9,3.7,2.6,6.4
		C665.6,701.1,665.8,703,665.8,704.8z M635.5,711.3c0,2,0,4,0,6c0,1-0.8,1.8-2,1.8c-4.2,0-8.5,0.1-12.7,0c-0.7,0-1.5-0.5-2.2-0.9
		c-0.3-0.2-0.6-0.5-0.9-0.8c-3.2-3.6-7.2-6.4-9.9-10.5c0-5-0.1-10.1-0.1-15.1c0-0.2,0.1-0.4,0.1-0.6c0.1-0.7,0.9-1.5,1.6-1.5
		c3.6,0,7.3-0.1,10.9-0.1c0.8,0,1.5,0.4,2.1,1c2.6,2.6,5.2,5.1,7.7,7.7C636.8,705,635.5,701.9,635.5,711.3z M671.4,740.9
		c0.8,0,1.6,0.3,2.2,0.8c0.7,0.7,1.5,1.4,2.2,2.1c18,18,36.1,36.1,54.1,54.1c0.7,0.7,1.4,1.5,2,2.2c0.5,0.6,0.1,1-0.3,1.4
		c-0.7,0.8-0.8,1.1-0.2,1.3c0.6,0.1,1.2,0.3,1.8,0.3c1.5,0.1,2.7,0.7,3.7,1.8c0.5,0.6,1.1,1.1,1.7,1.7
		c10.6,10.6,21.2,21.2,31.8,31.8c0.8,0.9,1.6,1.8,2.4,2.7c0.1,0.1,0.2,0.4,0.1,0.6c-0.2,0.3-0.5,0.7-0.7,0.8
		c-0.8,0.2-1.6,0.2-2.4,0.2c-7.5,0-15,0-22.5,0c-1,0-2,0-3-0.1c-0.8,0-1.6-0.4-2.2-1c-1-1-2.1-1.9-3.1-2.9
		c-31.1-31.1-62.1-62.1-93.2-93.2c-1-1-2-2-2.9-3.1c-0.2-0.2-0.1-0.7,0-1.1c0-0.1,0.3-0.3,0.4-0.3c0.8-0.1,1.6-0.2,2.4-0.2
		c4,0,8.1,0,12.1,0c0,0,0,0,0,0C662.5,740.9,666.9,740.9,671.4,740.9z M784.9,740.8c1.8,0,3.1,0.6,4.3,1.8c0.8,0.9,1.7,1.7,2.6,2.6
		c30.7,30.7,61.3,61.3,92,92c1.1,1.1,2.3,2.3,3.4,3.5c0.2,0.3,0.3,0.7,0.3,1.1c0.1,0.4-0.6,0.8-1.4,0.8c-0.2,0-0.4,0-0.6,0
		c-8.3,0-16.6,0-24.9,0c-1.7,0-3.2-0.4-4.4-1.7c-0.1-0.2-0.3-0.3-0.4-0.4c-11.6-11.6-23.2-23.2-34.8-34.8c-0.3-0.3-0.5-0.6-0.7-1
		c-0.1-0.2-0.2-0.5-0.1-0.6c0.2-0.3,0.5-0.8,0.8-0.8c2-0.1,4-0.2,6.1-0.2c3.6-0.1,7.3-0.1,10.9-0.3c0.2,0,0.4-0.5,0.6-0.8
		c0,0-0.3-0.3-0.5-0.4c-0.6-0.1-1.2-0.2-1.8-0.2c-1.6,0-3.2,0-4.9,0c-4.1,0-8.1-0.1-12.2,0c-1.8,0-3.1-0.6-4.3-1.9
		c-0.7-0.8-1.4-1.4-2.2-2.1c-17.3-17.3-34.7-34.7-52-52c-0.9-0.9-1.7-1.7-2.5-2.6c-0.6-0.6-0.7-1.4-0.4-1.6c0.3-0.2,0.7-0.5,1-0.5
		c1.6-0.1,3.2-0.1,4.9-0.1c3,0,6.1,0,9.1,0c0,0,0,0,0,0C776.8,740.8,780.9,740.9,784.9,740.8z M899.5,740.8c2-0.1,3.5,0.7,4.8,2.1
		c0.5,0.6,1.1,1.1,1.7,1.7c15.3,15.3,30.6,30.6,45.9,45.9c0.7,0.7,1.4,1.5,2.1,2.2c0.8,0.7,1.3,1.6,1.2,2.6c0,1.6-0.1,3.2-0.1,4.8
		c0,0.7-0.6,1.1-1.1,1.3c-0.6,0.2-1.2,0.2-1.8,0.2c-6.1,0-12.1,0-18.2,0.1c-2,0-3.5-0.6-4.8-2.1c-0.5-0.6-1.1-1.1-1.7-1.7
		c-17.4-17.4-34.9-34.9-52.3-52.3c-1-1-1.9-2.1-2.9-3.1c-0.3-0.4-0.3-0.7,0-1.1c0.1-0.1,0.3-0.3,0.4-0.3c2.4-0.1,4.8-0.2,7.3-0.2
		c2.4,0,4.8,0,7.3,0c0,0,0,0,0,0C891.4,740.8,895.4,740.9,899.5,740.8z M954.1,754.4c0.9,0.9,1.2,2,1.2,3.3c0,4.4,0,8.9,0,13.3
		c0,0,0,0,0,0c0,2.4,0,4.8,0,7.3c0,7.2-0.1,7.7-0.9,7.4c-2.4-0.8-3.7-3-5.4-4.6c-11.8-11.7-23.4-23.4-35.2-35.1
		c-1.1-1.1-2.2-2.3-3.3-3.5c-0.2-0.2-0.1-0.7,0-1.1c0-0.1,0.3-0.3,0.4-0.3c0.4-0.1,0.8-0.2,1.2-0.2c8.7,0,17.4,0,26.1,0
		c1.3,0,2.4,0.3,3.3,1.2C945.7,746.2,949.9,750.3,954.1,754.4z M949.1,741.1c1-0.2,1.9-0.2,2.7-0.3c0.8,0.1,1.4,0.1,2,0.2
		c0.7,0.1,1.2,0.5,1.2,1.1c0.1,1.6,0.1,3.1,0,4.7c0,0.2-0.7,0.6-0.8,0.5c-2.2-1.3-4-3.1-5.4-5.2
		C948.6,741.9,948.9,741.1,949.1,741.1z M960,776.8c0,0,0.1,0,0.1,0c0-4.6,0-9.3,0-13.9c0-0.5,0.2-0.8,0.7-0.9c0.4,0,0.8,0,1.1,0.2
		c0.5,0.3,0.9,0.8,1.4,1.2c7,7,14,14,21,21c7.3,7.3,14.6,14.6,21.8,21.9c1.6,1.6,3,3.3,4.5,4.9c0.1,0.1,0.2,0.4,0.1,0.5
		c-0.2,0.3-0.4,0.7-0.7,0.8c-0.8,0.2-1.6,0.2-2.4,0.2c-7.7,0-15.4,0-23,0c-0.8,0-1.6,0.1-2.4-0.1c-0.8-0.2-1.5-0.6-2.2-0.9
		c-0.3-0.2-0.6-0.5-0.9-0.8c-5.7-5.7-11.4-11.4-17.2-17.1c-1.2-1.2-1.8-2.6-1.8-4.3C960,785.3,960,781.1,960,776.8z M961.8,749.6
		c1.8,0,3.7-0.1,5.4,0.1c9.4,1.2,17.9,4.5,26.1,9.3c6.8,3.9,12.1,9.4,17.2,15.1c1.5,1.6,2.5,3.7,3.6,5.6c4.1,7,7.3,14.4,8.5,22.5
		c0.3,2.2,0.6,4.4,0.8,6.4c-0.1,1.2-0.2,2.2-0.4,3.2c-0.1,0.3-0.5,0.6-0.8,0.7c-1.9,0.5-3.5,0.1-4.9-1.3
		c-7.8-7.9-15.7-15.8-23.5-23.7c-7.8-7.9-15.7-15.8-23.5-23.7c-3.1-3.2-6.2-6.4-9.3-9.5c-0.8-0.8-0.9-1.8-0.9-2.8
		C960.1,750.3,960.7,749.6,961.8,749.6z M960.1,742.9c0-0.8,0.6-1.8,1.2-1.8c0.8-0.1,1.6-0.2,2.4-0.2c2,0,4.1,0,6.1,0
		c93.6,0,187.2,0,280.7,0c93.6,0,187.2,0,280.7,0c2.2,0,4.5,0.1,6.7,0.1c1.1,0,1.7,0.9,1.6,2.1c0,0.7-0.4,1.2-1,1.4
		c-0.6,0.2-1.2,0.3-1.8,0.3c-1.8,0-3.6,0-5.5,0c-187.8,0-375.5,0-563.3,0c-2.2,0-4.4-0.1-6.7-0.2
		C960.7,744.5,960.1,743.8,960.1,742.9z M1025.7,831.4c0.2,0.4,1,0.4,1.5-0.2c3.1-3,6.1-5.9,9.1-8.9c6-5.9,4-4.8,12.2-4.9
		c7.7-0.1,15.4,0,23.1,0c1,0,2,0,3,0.2c0.3,0,0.5,0.5,0.7,0.8c0.1,0.1,0,0.4-0.1,0.6c-0.2,0.3-0.4,0.7-0.7,0.9
		c-6.9,6.8-13.9,13.6-20.7,20.5c-1.5,1.5-3.2,2.2-5.4,2.2c-4.9-0.1-9.7,0-14.6,0c0,0,0,0,0,0c-4.9,0-9.7,0-14.6,0
		c-1.1,0-1.9-0.5-2.5-1.4c-0.2-0.2-0.7-0.3-1-0.2c-0.4,0.1-0.7,0.3-1.1,0.5c-1,0.7-2.1,1.1-3.4,1.1c-10.1,0-20.2,0-30.4-0.1
		c-0.3,0-0.7-0.3-1-0.4c-0.4-0.2-0.3-1.1,0.3-1.6c0.4-0.4,0.8-0.9,1.3-1.3c3.9-3.9,7.7-7.7,11.6-11.6c2.9-2.9,5.7-5.7,8.6-8.6
		c1-1,2.3-1.6,3.8-1.6c10.1,0,20.2,0,30.4,0.1c0.3,0,0.7,0.3,1,0.4c0.4,0.2,0.3,1.1-0.2,1.6c-0.4,0.4-0.8,0.9-1.3,1.3
		c-2.8,2.7-5.5,5.4-8.3,8c-0.3,0.3-0.6,0.5-0.9,0.9C1025.8,830.3,1025.5,830.8,1025.7,831.4z M1150.1,817.6c0.5,0,1.1,0.3,1.6,0.5
		c0.1,0,0.2,0.4,0.2,0.5c-0.1,0.4-0.3,0.8-0.5,1c-7.2,7.1-14.4,14.2-21.6,21.3c-1,1-2.2,1.7-3.8,1.7c-10.1,0-20.3-0.1-30.4-0.1
		c-0.5,0-0.8-0.2-0.9-0.6c-0.1-0.4-0.1-0.9,0.1-1.1c0.6-0.8,1.3-1.5,2-2.2c4.6-4.6,9.2-9.2,13.7-13.8c0.5-0.6,0.9-1.3,1.4-1.9
		c0.1-0.1,0-0.4-0.1-0.5c-0.1-0.1-0.4-0.3-0.5-0.3c-0.5,0.3-1.1,0.6-1.5,1c-5.2,5.1-10.3,10.3-15.5,15.5c-0.8,0.8-1.5,1.9-2.1,2.9
		c-0.5,0.8-1.1,1.1-1.9,1.1c-3.6,0-7.3,0.1-10.9,0.1c-7.5,0-15-0.1-22.5-0.1c-0.5,0-0.8-0.2-0.8-0.7c0-0.4,0.1-0.8,0.2-1.1
		c0.1-0.2,0.2-0.3,0.4-0.5c4.5-4.4,8.9-8.9,13.4-13.3c2.6-2.6,5.2-5.1,7.8-7.7c1.2-1.2,2.5-1.9,4.3-1.8c3.6,0.1,7.3,0,10.9,0
		c7.7,0,15.4,0,23.1,0c0,0,0,0,0,0C1127.4,817.5,1138.7,817.5,1150.1,817.6z M1188.6,822c0.3,0.1,0.8,0.1,1.1-0.1
		c1.2-1.1,2.4-2.2,3.6-3.3c0.8-0.7,1.7-1,2.8-1.1c2,0,4,0,6.1,0c7.7,0,15.4,0,23,0c0.8,0,1.6,0.1,2.4,0.2c0.1,0,0.3,0.2,0.4,0.4
		c0.1,0.4,0.1,0.8,0,1.1c-0.1,0.4-0.4,0.7-0.7,1c-6.9,6.8-13.8,13.6-20.7,20.4c-1.6,1.5-3.3,2.1-5.4,2.1c-4.6-0.1-9.3,0-13.9,0
		c0,0,0-0.1,0-0.1c-5.3,0-10.5,0-15.8,0c-0.5,0-0.8-0.2-0.8-0.7c0-0.4,0-0.9,0.2-1.1c2.1-2.2,4.3-4.3,6.4-6.5c0.5-0.6,1-1.2,1.5-1.9
		c0.1-0.1,0.1-0.4,0-0.6c-0.2-0.5-0.5-0.7-0.9-0.4c-1.4,1.2-2.7,2.4-4,3.6c-2.7,2.5-4.9,5.4-8,7.4c-3.4,0.1-6.9,0.2-10.3,0.2
		c-7.5,0-15-0.1-22.4-0.2c-0.3,0-0.6-0.5-0.8-0.8c-0.1-0.1,0-0.4,0.1-0.6c0.3-0.5,0.7-1,1.1-1.4c3.3-3.3,6.6-6.5,9.9-9.8
		c3.6-3.5,7.2-7.1,10.8-10.6c1.2-1.2,2.6-1.8,4.3-1.8c7.5,0,15,0,22.4,0c2.6,0,5.3,0,7.9,0.1c0.3,0,0.8,0.2,1,0.5
		c0.4,0.6,0.1,1.1-0.3,1.6c-0.4,0.5-0.7,0.9-1.1,1.4C1188.1,821.5,1188.2,821.9,1188.6,822z M1255.6,831.6c0.2,0.1,0.4,0.1,0.5,0
		c0.4-0.2,0.7-0.4,1-0.6c0.7-0.7,1.5-1.4,2.2-2.1c3.3-3.3,6.6-6.6,9.9-9.9c1.1-1.1,2.3-1.5,3.8-1.5c10.1,0,20.2,0,30.3,0.1
		c0.6,0,1.5,0.6,1.3,1c-0.2,0.4-0.3,0.8-0.5,1.1c-0.4,0.5-0.8,0.9-1.2,1.3c-1.4,1.4-2.9,2.8-4.4,4.2c-4.9,4.8-9.8,9.7-14.7,14.5
		c-0.7,0.7-1.4,1.5-2.2,2.1c-0.6,0.4-1.4,0.7-2.2,0.9c-0.8,0.2-1.6,0.1-2.4,0.1c-9.1,0-18.2,0-27.3,0c-1.4,0-2.8-0.1-3.8-1.4
		c-0.3-0.4-1.1-0.3-1.6,0.1c-1.2,0.9-2.4,1.3-3.9,1.3c-10.1,0-20.2,0-30.3-0.1c-0.7,0-1.5-0.6-1.4-0.9c0.1-0.4,0.3-0.7,0.4-1.1
		c0.1-0.2,0.2-0.3,0.4-0.5c4.2-4.1,8.3-8.3,12.5-12.4c3-3,6-6,9.1-8.9c0.9-0.9,2-1.3,3.3-1.3c5.1,0,10.1,0,15.2,0c0,0,0,0,0,0
		c5.3,0,10.5,0,15.8,0c0.3,0,0.8,0.3,0.9,0.5c0.2,0.3,0.2,0.8,0,1.1c-0.6,0.8-1.3,1.5-2,2.2c-2.9,3-5.9,6.1-8.8,9.1
		C1255,831,1255.1,831.4,1255.6,831.6z M1417.8,822.2c0.3,0.1,0.8,0.1,1.1-0.1c0.9-0.8,1.8-1.6,2.7-2.5c1.3-1.4,2.8-2.1,4.8-2.1
		c10.1,0.1,20.2,0.1,30.3,0.2c0.3,0,0.6,0.4,0.8,0.7c0.1,0.1,0,0.4-0.1,0.6c-0.1,0.2-0.1,0.4-0.3,0.5c-0.4,0.5-0.8,0.9-1.2,1.3
		c-6.3,6.3-12.6,12.6-18.9,18.9c-0.6,0.6-1.1,1.2-1.7,1.7c-0.9,0.8-2,1.3-3.3,1.3c-3.8,0-7.7,0-11.5,0c-1.2,0-2.4,0-3.6,0
		c0,0,0,0,0,0c-5.1,0-10.1,0-15.2,0c-0.9,0-1.5-0.4-1.4-0.8c0.2-0.5,0.3-1.1,0.7-1.5c2.4-2.8,5.3-4.9,7.4-7.9c0.1-0.1,0.1-0.4,0-0.6
		c-0.2-0.5-0.5-0.6-0.9-0.3c-0.9,0.8-1.8,1.6-2.7,2.4c-2.5,2.4-4.9,4.9-7.3,7.3c-0.7,0.7-1.5,1.4-2.6,1.4c-10.7,0-21.4,0-32.1-0.1
		c-0.3,0-0.6-0.5-0.8-0.8c-0.1-0.1,0.1-0.4,0.2-0.6c0.2-0.3,0.4-0.7,0.7-1c0.4-0.5,0.8-0.9,1.3-1.3c6.1-6.1,12.3-12.3,18.5-18.4
		c0.7-0.7,1.4-1.4,2.2-2c0.5-0.4,1.1-0.5,1.6-0.7c0.2-0.1,0.4-0.1,0.6-0.1c10.5,0,21,0,31.5,0.1c0.3,0,0.8,0.3,0.9,0.6
		c0.1,0.3-0.1,0.8-0.2,1.1c-0.2,0.3-0.5,0.6-0.8,0.9c-0.3,0.3-0.6,0.6-0.7,0.9C1417.5,821.5,1417.6,822.1,1417.8,822.2z
		 M1484.7,831.5c0.3,0.1,0.9,0.3,1.1,0.1c3.2-3.1,6.4-6.2,9.5-9.3c1.3-1.3,2.6-2.5,3.9-3.8c0.6-0.6,1.3-0.9,2.2-0.9
		c0.2,0,0.4,0,0.6,0c10.3,0,20.6,0.1,30.9,0.1c0.5,0,0.8,0.2,0.8,0.7c0,0.4-0.1,0.8-0.2,1.1c-0.1,0.2-0.3,0.3-0.4,0.5
		c-0.1,0.2-0.3,0.3-0.4,0.4c-6.7,6.7-13.4,13.4-20.2,20.2c-0.3,0.3-0.6,0.6-0.9,0.8c-0.9,0.8-2,1.4-3.3,1.3c-3,0-6.1,0-9.1,0
		c-2,0-4,0-6.1,0c-4.2,0-8.5,0-12.7,0c-1.9,0-4.1,0.6-5.6-1.4c-0.1-0.1-0.7-0.1-1,0.1c-1.2,0.7-2.4,1.4-3.9,1.4
		c-10.1,0-20.2,0-30.3-0.1c-0.8,0-1.5-0.4-1.4-0.8c0.1-0.4,0.1-0.9,0.3-1.1c7.3-7.3,14.5-14.6,21.8-21.9c0.9-0.9,2-1.2,3.3-1.2
		c7.3,0,14.6,0,21.8,0c2.8,0,5.7,0,8.5,0c0.6,0,1.1,0,1.6,0.5c0.3,0.4,0.1,1.1-0.8,2.1c-0.4,0.4-0.8,0.9-1.3,1.3
		c-2.7,2.7-5.4,5.4-8.1,8.2c-0.3,0.3-0.5,0.6-0.8,0.9C1484.4,830.9,1484.4,831.3,1484.7,831.5z M1380.7,819.4
		c-0.2,0.3-0.5,0.6-0.8,0.9c-6.7,6.7-13.4,13.4-20.2,20.2c-0.3,0.3-0.6,0.6-0.9,0.8c-0.9,0.8-2,1.3-3.3,1.3c-3.2,0-6.5,0-9.7,0
		c-8.3,0-16.6,0-24.9,0c0,0,0,0,0-0.1c-11.5,0-23,0-34.6,0c-0.3,0-0.7-0.3-1-0.5c-0.4-0.2-0.3-1,0.2-1.6c0.1-0.1,0.3-0.3,0.4-0.5
		c3.9-3.8,7.7-7.7,11.6-11.5c3.2-3.1,6.4-6.2,9.5-9.3c1.2-1.2,2.6-1.7,4.3-1.7c4.2,0.1,8.5,0,12.7,0c17,0,34,0,51,0
		c1.6,0,3.2,0,4.8,0.1c0.3,0,0.7,0.4,0.8,0.7C1381,818.7,1380.9,819.1,1380.7,819.4z M977,820c0-1.8,0.8-2.4,2.7-2.4
		c6,0,12.1,0,18.1,0c0.3,0,0.7,0.3,1,0.5c0.4,0.2,0.2,1-0.3,1.6c-6.5,6.5-13.1,13.1-19.7,19.6c-0.2,0.2-0.7,0.3-1,0.3
		c-0.5,0-0.7-0.3-0.7-0.8c0-0.8-0.1-1.6-0.1-2.4c0-2.4,0-4.8,0-7.2c0,0,0,0,0,0C977,826,976.9,823,977,820z M979,847.9
		c0-0.1,0.3-0.3,0.5-0.3c1-0.1,2-0.3,3-0.3c3.8,0,7.7,0,11.5,0c0,0,0,0,0,0c4.2,0,8.5,0,12.7,0c1.2,0,2.3,0.4,3.3,1.3
		c3.6,3.5,7.2,7,10.8,10.6c0.8,0.7,0.9,1.7,0.6,2.8c-1.2,4.5-3,8.8-5.1,12.9c-1.1,2.1-2.4,4.2-3.7,6.2c-0.1,0.2-0.7,0.3-1.1,0.2
		c-0.4-0.1-0.7-0.4-1-0.6c-10.3-10.3-20.6-20.6-30.9-30.8c-0.3-0.3-0.6-0.6-0.7-1C978.8,848.6,978.9,848.2,979,847.9z M1017.3,848.9
		c-0.2-0.2-0.1-0.7,0-1.1c0-0.1,0.3-0.3,0.5-0.3c0.8-0.1,1.6-0.2,2.2-0.3c0.8,0.1,1.4,0.1,2,0.2c0.7,0,1.2,0.5,1.2,1.1
		c0.1,1.4-0.1,2.8-0.2,4.2c0,0.5-1,0.8-1.4,0.4C1020.1,851.8,1018.7,850.4,1017.3,848.9z M960,834.1c0-1.6,0-3.2,0-4.8
		c0,0,0.1,0,0.1,0c0-3.2,0-6.4,0-9.7c0-1.1,0.8-2,1.8-2c2.8,0,5.6,0,8.4,0c0.8,0,1.6,0.8,1.6,1.5c0,0.4,0.1,0.8,0.1,1.2
		c0,6.4,0,12.9,0,19.3c0,0.4-0.1,0.8-0.1,1.2c-0.1,0.8-0.8,1.6-1.5,1.6c-0.6,0.1-1.2,0.2-1.8,0.2C958.9,842.6,960.1,844.1,960,834.1
		z M972,812.5c-1.6,0.2-3.2,0.3-4.8,0.5c0-0.1,0-0.2,0-0.2c-1.8,0-3.6,0-5.4,0c-0.9,0-1.6-0.7-1.7-1.4c0-3.4,0-6.8,0-10.2
		c0-0.2,0.5-0.5,0.8-0.7c0.1-0.1,0.4,0,0.5,0.1c3.5,3.4,6.9,6.7,10.3,10.1c0.3,0.3,0.6,0.6,0.6,1C972.5,811.8,972.2,812.5,972,812.5
		z M966.7,847.3c2.3,0,4.2,0.6,5.9,2.3c11.4,11.5,22.8,22.9,34.2,34.3c0.6,0.6,1,1.2,1.5,1.9c0.1,0.1,0.1,0.4,0.1,0.6
		c-0.2,0.4-0.3,0.8-0.5,1.1c-2.9,3.6-5.9,7.2-9.8,9.9c-6.2,4.3-4.5,4.9-10.1-0.8c-14.7-14.7-29.4-29.4-44.1-44.1
		c-1.1-1.1-2.2-2.4-3.3-3.5c-0.1-0.1-0.1-0.4-0.1-0.5c0-0.5,0.2-0.8,0.7-0.8c0.8-0.1,1.6-0.2,2.4-0.2
		C951.4,847.3,959.1,847.4,966.7,847.3z M955.2,814.4c0,2.6,0,5.2,0,7.9c0,0.6,0,1.2-0.6,1.6c-0.7,0.5-1.1-0.1-1.5-0.5
		c-2.3-2.2-4.6-4.5-6.9-6.8c-3.8-3.9-7.7-7.7-11.5-11.6c-0.2-0.2,0-0.7,0-1.1c0-0.2,0.2-0.3,0.4-0.4c0.2-0.1,0.4-0.2,0.6-0.2
		c5.8,0,11.7,0,17.5,0.1c1,0,1.9,0.9,1.9,2C955.2,808.3,955.2,811.4,955.2,814.4C955.2,814.4,955.2,814.4,955.2,814.4z M953.9,830.9
		c0.9,0.9,1.4,2,1.3,3.2c0,1.6,0,3.2,0,4.8c0,3.2-0.4,3.6-3.4,3.6c-2.4,0-4.8,0-7.3,0c0,0,0,0,0,0c-2.8,0-5.7,0-8.5,0
		c-1.3,0-2.3-0.5-3.3-1.4c-0.9-0.8-1.7-1.7-2.6-2.5c-10.3-10.3-20.6-20.6-30.8-30.9c-1-1-1.9-2.1-2.8-3.1c-0.1-0.1-0.2-0.5-0.1-0.6
		c0.2-0.3,0.5-0.6,0.8-0.8c0.3-0.2,0.8-0.2,1.2-0.2c8.3,0,16.6,0,24.8,0c2,0,3.5,0.7,4.8,2C936.8,813.8,945.3,822.4,953.9,830.9z
		 M934.4,849.5c0.5,0.6,1.1,1.2,1.7,1.7c16.2,16.1,32.3,32.3,48.5,48.4c1,1,1.9,2.1,2.8,3.1c0.3,0.3,0.2,0.7-0.1,1.1
		c-1,1.1-2.3,1.6-3.6,2.1c-5.7,2.2-11.5,3.9-17.5,4.7c-1,0.1-2,0-2.8-0.7c-0.9-0.8-1.8-1.6-2.6-2.5c-18.6-18.6-37.2-37.2-55.7-55.7
		c-0.9-0.9-1.7-1.8-2.4-2.7c-0.2-0.2,0-0.7,0-1.1c0-0.1,0.3-0.3,0.5-0.3c0.8-0.1,1.6-0.3,2.4-0.3c3.8,0,7.7,0,11.5,0
		c4,0,8.1,0.1,12.1,0C931.1,847.3,933,847.8,934.4,849.5z M919.8,796.8c0.9,0.9,1.7,1.7,2.5,2.6c0.6,0.6,0.8,1.3,0.4,1.6
		c-0.3,0.2-0.6,0.4-1,0.5c-0.2,0.1-0.4,0.1-0.6,0.1c-8.5,0-17,0-25.5,0c-1.7,0-3.2-0.4-4.3-1.7c-0.8-0.9-1.7-1.7-2.6-2.6
		c-17-17-34-34-51-51c-1.1-1.1-2.3-2.3-3.3-3.5c-0.2-0.3-0.2-0.7-0.3-1.1c-0.1-0.4,0.5-0.8,1.4-0.8c4.4,0,8.9,0,13.3,0c0,0,0,0,0,0
		c4.4,0,8.9,0,13.3,0c1.1,0,2,0.4,2.7,1.1c1,1,2,2,3,3C885.2,762.2,902.5,779.5,919.8,796.8z M922.3,837.4c1.1,1.1,2.3,2.3,3.4,3.5
		c0.2,0.2,0.2,0.8,0,1.1c-0.1,0.3-0.6,0.5-0.9,0.6c-0.4,0.1-0.8,0.1-1.2,0.1c-8.3,0-16.6,0-24.9,0c-2,0-3.5-0.6-4.8-2.1
		c-0.8-0.9-1.7-1.7-2.6-2.6c-30.6-30.6-61.2-61.2-91.8-91.8c-1.3-1.3-2.5-2.7-3.7-4c-0.1-0.1-0.1-0.4-0.1-0.5c0-0.5,0.3-0.8,0.8-0.8
		c4.6,0,9.3,0,13.9,0c0,0,0-0.1,0-0.1c4.4,0,8.9,0,13.3,0c1.3,0,2.3,0.4,3.2,1.3c1,1,2,2,3,3C860.8,775.9,891.6,806.7,922.3,837.4z
		 M821.2,842.7c-1.1,0-2-0.4-2.7-1.1c-0.7-0.7-1.5-1.4-2.2-2.1c-10.7-10.7-21.4-21.4-32.1-32.1c-0.8-0.8-1.6-1.8-2.2-2.8
		c-0.1-0.2,0.1-0.8,0.4-1c0.3-0.2,0.7-0.3,1.1-0.3c8.7,0,17.4,0,26-0.1c1.5,0,2.7,0.5,3.8,1.6c0.4,0.4,0.9,0.8,1.3,1.3
		c11.1,11.1,22.3,22.3,33.4,33.4c0.6,0.6,1,1.2,1.4,1.9c0.1,0.2-0.1,0.9-0.3,1c-0.5,0.2-1.2,0.3-1.8,0.3c-4.2,0-8.5,0-12.7,0
		c0,0,0,0,0,0C830.1,842.7,825.6,842.6,821.2,842.7z M811,841.8c0,0.1-0.2,0.4-0.3,0.5c-0.6,0.2-1.1,0.4-1.7,0.4
		c-4.2,0-8.5,0-12.7,0c-4.2,0-8.5,0-12.7,0c-1.5,0-2.7-0.5-3.8-1.6c-11.9-11.9-23.7-23.7-35.6-35.6c-0.3-0.3-0.5-0.7-0.5-1
		c0-0.3,0.2-0.8,0.5-1c0.3-0.2,0.8-0.2,1.2-0.2c8.3,0,16.6,0,24.9-0.1c2.2,0,3.9,0.7,5.4,2.2c8.4,8.5,16.9,16.9,25.3,25.3
		c3.1,3.1,6.3,6.3,9.4,9.5C810.7,840.6,810.8,841.2,811,841.8z M805.5,797.1c0.9,0.9,1.7,1.7,2.5,2.6c0.2,0.3,0.3,0.7,0.3,1.1
		c0,0.5-0.3,0.7-0.8,0.7c-4.7,0-9.3,0-14,0c0,0,0,0.1,0,0.1c-4.1,0-8.1-0.1-12.2,0c-2.2,0.1-3.8-0.8-5.3-2.3
		c-11-11.1-22-22.1-33.1-33.1c-7-7-14-14-21.1-21.1c-0.9-0.9-1.7-1.7-2.4-2.7c-0.2-0.2-0.1-0.7,0-1.1c0-0.1,0.3-0.3,0.4-0.3
		c0.4-0.1,0.8-0.2,1.2-0.2c8.7,0,17.4,0,26.1,0c1.3,0,2.4,0.3,3.3,1.2c0.9,0.9,1.7,1.7,2.6,2.6C770.5,762.1,788,779.6,805.5,797.1z
		 M728.6,758.4c13.3,13.3,26.6,26.6,39.9,39.9c0.7,0.7,1.6,1.3,1.7,2.4c0,0.2-0.1,0.5-0.2,0.5c-0.6,0.1-1.2,0.3-1.8,0.3
		c-4.2,0-8.5,0-12.7,0c0,0,0,0,0,0c-4,0-8.1-0.1-12.1,0c-2.2,0.1-3.9-0.6-5.3-2.3c-0.5-0.6-1.1-1.1-1.7-1.7
		c-17.3-17.3-34.6-34.6-51.9-51.9c-1.1-1.1-2.1-2.4-3.1-3.7c-0.1-0.1,0.2-0.8,0.5-0.9c0.6-0.2,1.2-0.2,1.8-0.2
		c8.1,0,16.2,0.1,24.3-0.1c2.5,0,4.2,0.9,5.8,2.6C718.5,748.4,723.6,753.4,728.6,758.4z M730.2,836.5c1.4,1.4,2.8,2.9,4.2,4.4
		c0.2,0.2,0.2,0.8,0,1.1c-0.2,0.3-0.6,0.6-0.9,0.6c-4.5,0-8.9,0-13.4,0c0,0,0,0.1,0,0.1c-4.1,0-8.1-0.1-12.2,0
		c-2.2,0.1-3.9-0.7-5.3-2.3c-0.4-0.5-0.9-0.9-1.3-1.3c-10.6-10.6-21.2-21.2-31.8-31.8c-0.7-0.7-1.4-1.4-2.1-2.2
		c-0.2-0.3-0.3-0.8-0.2-1.1c0.1-0.3,0.5-0.7,0.8-0.7c1.6-0.1,3.2-0.1,4.9-0.2c1,0,2-0.1,3-0.3c0.1,0,0.4-0.4,0.4-0.4
		c-0.1-0.3-0.3-0.7-0.5-0.7c-3.2-0.1-6.5-0.2-9.7-0.1c-1.5,0-2.7-0.5-3.8-1.6c-0.8-0.9-1.7-1.7-2.6-2.6
		c-13.6-13.6-27.2-27.2-40.8-40.8c-1-1-2-2-2.9-3.1c-0.4-0.4-0.8-1-0.9-1.5c-0.3-2.2-0.4-4.4,0.4-6.6c0.7-2.1,2.1-3.4,4.2-4.1
		c0.6-0.2,1.2-0.3,1.8-0.4c0.4-0.1,0.8-0.1,1.2-0.1c3.8,0.1,7.7,0.1,11.5,0.2c3.2,1.8,5.4,4.8,8,7.4
		C671.5,777.7,700.9,807.1,730.2,836.5z M673.5,885.5c0.4-0.3,1-0.7,1.5-0.7c1.2-0.1,2.4,0,3.6,0c0,0,0,0,0,0c1.2,0,2.4,0,3.6,0
		c0.8,0,1.7,0.7,1.8,1.3c0.1,1,0.1,2.1-0.8,2.7c-1.5,1-3.1,1.8-4.7,2.6c-0.4,0.2-1.3,0.1-1.7-0.2c-1.2-1-2.3-2.2-3.3-3.4
		C673,887.3,673,885.8,673.5,885.5z M673.1,880.6c0-2.2,0-4.4,0.1-6.6c0-0.5,0.9-1,1.4-0.7c2.9,1.8,5.9,3.5,8.7,5.3
		c0.7,0.4,0.8,1.4,0.5,2.2c-0.1,0.3-0.4,0.8-0.7,0.9c-1.6,0.2-3.2,0.4-4.5,0.5c-1.7-0.1-3.1-0.1-4.5-0.4
		C673.7,881.8,673.1,881.4,673.1,880.6z M680.1,892.9c0.8-0.5,1.6-1,2.5-1.4c0.8-0.4,1.4,0.2,1.5,1.2c0,0.2,0,0.4,0,1.2
		c0,0.4-0.4,1.1-1,1.2c-1.3,0.3-2.4-0.1-3-1.1C679.8,893.7,679.9,893,680.1,892.9z M683.7,875.3c-0.1,0.2-0.7,0.5-0.9,0.4
		c-1.6-0.8-3.1-1.7-4.6-2.7c-0.2-0.1-0.2-0.7-0.2-1c0-0.1,0.2-0.3,0.4-0.4c0.8-0.2,1.6-0.3,1.5-0.2c1.3,0,1.7,0,2.1,0
		C683.7,871.4,684.6,872.8,683.7,875.3z M682.6,869.7c-1.4,0-2.8,0-4.2,0c-5.3,0-10.5,0-15.8,0c-1.2,0-2.4-0.1-3.6,0
		c-2.4,0.3-4.2-0.6-5.9-2.3c-5.5-5.7-11.1-11.2-16.7-16.8c-0.4-0.4-0.8-0.9-1.2-1.3c-0.4-0.3-0.5-0.7-0.2-1.1
		c0.2-0.3,0.6-0.6,0.9-0.7c1-0.1,2-0.2,3-0.2c3.6,0,7.3,0,10.9,0c0,0,0,0,0,0c4.2,0,8.5,0,12.7,0c1.5,0,2.7,0.5,3.8,1.6
		c0.7,0.7,1.4,1.4,2.1,2.1c8.7,8.7,17.5,17.4,26.2,26.2c1,1,2,2,2.9,3.1c0.2,0.2,0.1,0.7,0.1,1.1c0,0.1-0.2,0.3-0.4,0.3
		c-3.2,0.5-6.4,0.3-9.7,0.1c-0.6,0-1.4-1-1.5-1.7c-0.1-0.8-0.1-1.6-0.1-2.4c0-1.6,0-3.2-0.1-4.9
		C685.7,870.4,685.1,869.7,682.6,869.7z M606.6,895.2c-1.3,0-2.4-0.3-3.3-1.2c-2.4-2.4-4.8-4.9-7.2-7.3c-0.2-0.2-0.3-0.8-0.2-1.1
		c0.1-0.3,0.6-0.5,0.9-0.7c0.2-0.1,0.4-0.1,0.6-0.1c8.7,0,17.3,0,26,0c1.3,0,2.4,0.3,3.3,1.2c2.6,2.6,5.1,5.2,7.5,7.8
		c0.2,0.2,0,0.7-0.1,1.1c0,0.1-0.3,0.3-0.5,0.3c-0.8,0.1-1.6,0.2-2.4,0.2c-3.8,0-7.6,0-11.5,0c0,0,0,0,0,0
		C615.4,895.2,611,895.2,606.6,895.2z M567.8,895.2c-1.3,0-2.4-0.4-3.2-1.4c-1.3-1.5-2.8-2.9-4-4.5c-0.8-1-0.8-2.3-0.4-3.4
		c0.1-0.3,0.5-0.7,0.8-0.8c0.6-0.2,1.2-0.3,1.8-0.3c7.3,0,14.6,0,21.8,0c2,0,3.5,0.6,4.9,2c2.2,2.4,4.5,4.6,6.7,7
		c0.2,0.2,0.1,0.7,0,1.1c0,0.1-0.3,0.3-0.5,0.3c-1.6,0.1-3.2,0.1-4.8,0.2c-3.2,0-6.5,0-9.7,0c0,0,0,0,0,0
		C576.7,895.2,572.2,895.2,567.8,895.2z M537.2,842.7C537.2,842.6,537.2,842.6,537.2,842.7c-1.4-0.1-2.8-0.1-4.2-0.1
		c-0.8,0-1.6-0.9-1.5-1.6c0.6-2.7,0.6-5.6,1.9-8.2c0.2-0.5,1-0.6,1.5-0.2c2.5,2.6,5.1,5.2,7.6,7.8c0.2,0.2,0.4,0.9,0.3,1.1
		c-0.3,0.4-0.8,0.8-1.3,1.1c-0.3,0.2-0.8,0.1-1.2,0.1C539.2,842.7,538.2,842.7,537.2,842.7z M539.8,849.7c-0.2,0.6-0.3,1.5-0.7,2.5
		c-0.1,0.3-0.6,0.5-0.9,0.6c-0.4,0.1-0.8,0-1.2,0c-2.1-0.4-4.3-0.9-6.4-1.4c-0.5-0.1-0.9-0.7-0.9-1.4c0-1.5,0.7-2.5,1.9-2.5
		c2.2-0.1,4.4-0.1,6.5,0C539.3,847.4,540,848.3,539.8,849.7z M529.7,732.6c0-1.2,0-2.4,0-3.6c0,0,0,0,0,0c0-4.4,0-8.9,0-13.3
		c0-0.5-0.1-1.4,0.8-1.4c0.5,0,1.2,0.3,1.5,0.7c2.9,2.8,5.7,5.7,8.6,8.6c0.7,0.7,0.4,1.3-0.4,1.9c-0.4,0.3-0.7,1-0.8,1.5
		c-0.8,3.9-1.6,7.9-2.4,11.9c-0.6,2.8-1.1,5.5-1.7,8.3c-0.2,0.8-1.3,1.1-1.9,0.5c-0.6-0.5-1.2-1.1-1.8-1.7c-1.3-1.1-1.9-2.5-1.9-4.3
		C529.8,738.6,529.7,735.6,529.7,732.6z M595.5,766.2c-6.5,0-5,0.7-9.5-3.8c-6.3-6.3-12.5-12.7-18.7-19c-0.4-0.4-0.8-0.9-1.3-1.3
		c-1-0.9-1.4-2-1.2-3.3c0.3-1.6,0.6-3.2,0.9-4.8c0.1-0.8,0.3-1.6,0.2-2.4c-0.1-0.5-0.5-1.2-0.9-1.4c-2.6-1-5.4-1.5-8.2-2
		c-1-0.2-1.8-1.2-1.6-2.2c0.4-2.4,0.8-4.8,1.3-7.1c0.8-4.2,1.7-8.3,2.6-12.5c0.2-1.2,1.3-1.4,2.3-0.6c0.4,0.4,0.9,0.8,1.3,1.2
		c13,13,26,26,39,39c0.4,0.4,0.8,0.9,1.3,1.3c0.7,0.8,1.1,1.7,1.1,2.7c0,2.4,0,4.9,0,7.3C603.9,767.6,605.3,766.2,595.5,766.2z
		 M542.3,766.1c-1.2,0.1-2.4,0-3.6,0c0,0,0,0.1,0,0.1c-1.2-0.1-2.4-0.1-3.6-0.2c-0.5,0-1.2-0.8-1.1-1.2c0.3-2,0.7-4,1-5.9
		c0.1-0.7,1.4-1.1,2-0.6c0.7,0.7,1.5,1.4,2.2,2.1c1.3,1.3,2.6,2.6,3.8,3.9c0.2,0.2,0.3,0.8,0.2,1.1
		C543,765.7,542.5,766.1,542.3,766.1z M542.7,772.2c-0.2,1.6-0.4,3.2-0.8,4.7c-0.9,4.3-1.9,8.7-2.8,13c0,0.2-0.8,0.4-1,0.3
		c-2.6-1.9-4.8-4.3-6.9-6.7c-0.4-0.4-0.6-1.1-0.5-1.7c0.2-1.8,0.3-3.6,0.8-5.4c1.4-5.5-0.1-5.5,7.6-5.5c0.2,0,1.6,0.2,3,0.4
		C542.3,771.4,542.7,771.9,542.7,772.2z M543.1,757.7c-0.4-0.4-0.9-0.8-1.3-1.3c-5.6-5.8-5.8-4.1-3.9-12.4c0.6-2.5,1-5.1,1.6-7.7
		c0.3-1.2,1-1.7,3.5-1.6c1.2,0.3,3.7,0.8,6.2,1.5c0.4,0.1,0.9,1,0.8,1.4c-1.5,6.9-2.4,13.8-4.5,20.6c-0.2,0.5-1,0.7-1.5,0.3
		C543.7,758.2,543.4,758,543.1,757.7z M542.2,730.8c0.5-0.6,1-1.3,1.5-1.9c0.6-0.7,1.6-0.8,2.1-0.3c1.3,1.3,2.6,2.5,3.8,3.8
		c0.2,0.2,0.1,0.7,0.1,1.1c0,0.1-0.3,0.2-0.5,0.2c-0.8,0-1.6-0.1-3-0.2c-0.8-0.2-2.1-0.5-3.5-0.8C542,732.6,541.7,731.6,542.2,730.8
		z M548.1,759.3c1.2-6.1,2.5-12.2,3.8-18.3c0.2-1,0.5-1.9,0.8-2.9c0.2-0.8,1.3-1.1,2-0.5c2,1.9,4,3.9,6,5.9c0.6,0.6,0.8,1.4,0.7,2.2
		c-0.4,2.4-0.8,4.8-1.2,7.1c-0.7,3.7-1.5,7.5-2.3,11.2c-0.4,1.8-1,2.1-3.6,2.2c-0.4,0-1.5,0.1-2.4-0.3c-1.7-0.7-3-2-3.8-3.7
		C547.8,761.4,547.9,760.2,548.1,759.3z M561.5,735.7c-0.5,0.1-1.3,0.3-1.6,0c-1.5-1.3-2.9-2.8-4.3-4.2c-0.2-0.2-0.3-0.8-0.2-1
		c0.2-0.2,0.7-0.2,1.2-0.4c0.8,0.2,1.8,0.5,2.8,0.8c1.1,0.3,1.7,0.9,2,2c0.1,0.6,0.4,1.2,0.4,1.8C561.8,735,561.7,735.6,561.5,735.7
		z M562.9,748.5c0.1-0.3,0.4-0.7,0.7-0.9c0.6-0.4,1.2-0.1,1.6,0.4c5.2,5.3,10.5,10.7,15.7,16c0.4,0.4,0.7,0.9,0.4,1.6
		c-0.3,0.7-1,0.6-1.6,0.6c-3,0-6.1,0-9.1,0c0,0,0-0.1,0-0.1c-3,0-6.1,0-9.1,0c-0.7,0-1.6-0.9-1.5-1.5c0-0.8,0-1.6,0.2-2.4
		C561,757.6,561.9,753,562.9,748.5z M559.2,771.7c0.3-0.2,0.6-0.5,1-0.6c0.8-0.1,1.6-0.2,2.4-0.2c7.3,0,14.6,0,21.8,0
		c0.8,0,1.6-0.1,2.4,0.1c0.8,0.2,1.6,0.5,2.1,1c4.7,4.5,9.3,9,13.9,13.5c0.8,0.8,1.1,1.7,1.1,2.7c0,4.7,0,9.3,0,14c0,0,0.1,0,0.1,0
		c-0.1,4.6-0.2,9.3-0.3,13.9c0,0.2-0.1,0.4-0.3,0.5c-0.3,0.1-0.8,0.2-1,0.1c-0.9-0.7-1.9-1.6-2.7-2.4c-3.3-3.3-6.6-6.6-9.9-9.9
		c-9.4-9.5-18.8-19-28.2-28.4c-0.9-0.9-1.7-1.8-2.5-2.7C558.9,772.9,558.8,771.9,559.2,771.7z M603.9,777.8c0,0.5-0.3,0.7-0.8,0.7
		c-0.2,0-0.4,0-0.5-0.1c-2-1.9-4-3.9-6-5.9c-0.2-0.2-0.1-0.7-0.1-1.1c0-0.1,0.3-0.3,0.4-0.3c2-0.4,4-0.4,5.9,0c0.5,0.1,1,0.6,1,1.3
		c0,1,0.1,2,0.1,3.2C604,776.2,603.9,777,603.9,777.8z M556.9,704c-0.1,0.2-0.1,0.4-0.1,0.6c0,0,0,0,0.1,0
		c-1.4,6.9-2.8,13.9-4.3,20.8c-0.2,1.1-1.5,1.5-2.3,0.8c-0.2-0.1-0.3-0.2-0.5-0.4c-6.2-6.2-12.3-12.3-18.5-18.5
		c-0.9-0.9-1.5-1.9-1.5-3.2c0-9.1,0.1-18.2,0.1-27.3c0-0.5,0.2-0.8,0.7-0.9c0.4,0,0.8,0.1,1.1,0.2c0.3,0.2,0.6,0.5,0.9,0.8
		c7.7,7.7,15.5,15.5,23.2,23.2C556.8,701.3,557.4,702.4,556.9,704z M529.8,758.9C529.8,758.9,529.8,758.9,529.8,758.9
		c0.1-1.8,0.1-3.6,0.1-5.4c0-0.3,0.4-0.7,0.6-0.8c0.3-0.1,0.8,0,1.1,0.3c1.4,1,2.1,2.4,1.8,4.1c-0.5,2.6-1,5.1-1.6,7.6
		c-0.1,0.3-0.6,0.5-0.9,0.6c-0.5,0.2-0.8,0-0.9-0.5c-0.1-0.6-0.2-1.2-0.2-1.8C529.7,761.7,529.8,760.3,529.8,758.9z M530.7,789.9
		c0.5,0.4,1,0.8,1.3,1.2c1.7,2.2,4.8,3.5,5.3,6.4c0.4,2.5-0.6,5.1-1.2,7.7c-1.1,5.1-2.1,10.3-3.1,15.4c-0.2,1.1-1.4,1.4-2.3,0.7
		c-0.3-0.3-0.6-0.5-0.9-0.8c-1.3-1.3-2.5-2.7-3.8-3.9c-1.5-1.4-2.2-2.9-1.6-4.2c1.6-7.8,3-14.9,4.4-22
		C528.8,789.7,530.1,789.4,530.7,789.9z M535.4,826.1c-0.6-0.6-0.6-1.5-0.5-2.1c1.5-7.4,3.1-14.7,4.6-22c0.2-1.2,1.4-1.6,2.1-0.9
		c2.3,2.3,4.6,4.6,6.8,6.9c0.6,0.6,0.7,1.4,0.7,2.2c0,0.2,0,0.4-0.1,0.6c-1.3,6.9-2.6,13.8-4,20.8c-0.1,0.6-0.4,1.1-0.6,1.7
		c-0.2,0.6-1,0.9-1.4,0.6C540.5,831.2,537.9,828.6,535.4,826.1z M542.3,794.9c-0.7-0.8-0.9-1.8-0.9-2.8c0.5-2.2,0.9-4.3,1.4-6.5
		c0.9-4.1,1.7-8.3,2.6-12.4c0.2-0.8,0.3-1.6,1.2-1.9c1.2-0.5,2.4-0.4,3.5,0.2c0.8,0.5,1.5,1.3,2.3,2c0.7,0.7,1.4,1.4,2.1,2.1
		c0.6,0.6,0.9,1.3,0.8,2.2c-0.1,0.8-0.1,1.6-0.2,2.4c-1.2,6.3-2.4,12.6-3.7,18.9c-0.2,0.8-0.5,1.5-0.8,2.3c-0.2,0.5-1.1,0.8-1.5,0.4
		C546.8,799.5,544.5,797.2,542.3,794.9z M552.5,802.5c0.6-3,1-6,1.6-9c0.8-4.4,1.7-8.7,2.6-13.1c0.1-0.7,1.4-1.2,1.9-0.7
		c0.9,0.8,1.8,1.6,2.6,2.5c9.6,9.6,19.1,19.2,28.7,28.9c4,4,7.9,8.1,12,12.1c1.6,1.5,2.2,3.2,2.1,5.4c-0.1,1.8,0,3.6,0,5.5
		c0,0,0,0,0,0c0,2,0,4.1,0,6.1c0,1.8-0.8,2.5-2.6,2.5c-3,0-6.1,0-9.1,0c-1.3,0-2.4-0.4-3.3-1.3c-0.4-0.4-0.9-0.8-1.3-1.3
		c-10.8-10.7-21.6-21.4-32.4-32.1c-0.4-0.4-0.8-0.9-1.3-1.3C552.6,805.6,552.1,804.3,552.5,802.5z M589.9,849
		c6.1,6.1,12.2,12.3,18.4,18.4c0.4,0.4,0.8,0.9,0.5,1.6c-0.3,0.7-1,0.6-1.5,0.6c-4.2,0-8.5,0-12.7,0c0,0,0,0,0,0
		c-4.6,0-9.3,0-13.9,0c-1.1,0-1.9-0.4-2.7-1.1c-5.7-5.7-11.4-11.4-17.1-17.1c-0.8-0.8-1-1.7-0.7-2.8c0.1-0.3,0.4-0.7,0.7-0.9
		c0.3-0.2,0.7-0.3,1.1-0.3c8.1,0,16.1,0,24.2-0.1C587.7,847.3,588.8,848,589.9,849z M648,871.3c1.7,0,3.1,0.6,4.3,1.9
		c2.2,2.3,4.5,4.6,6.7,7c0.2,0.2,0.3,0.7,0.4,1c0.1,0.4-0.6,0.8-1.4,0.9c-0.2,0-0.4,0-0.6,0c-8.5,0-16.9,0-25.4,0
		c-1.5,0-2.8-0.4-3.8-1.5c-2.4-2.5-4.8-4.9-7.2-7.3c-0.2-0.3-0.3-0.7-0.4-1.1c-0.1-0.3,0.7-0.9,1.4-0.9c0.8,0,1.6-0.1,2.4-0.1
		c3.8,0,7.7,0,11.5,0c0,0,0,0,0,0C639.9,871.3,643.9,871.3,648,871.3z M621.2,880.6c0.1,0.1,0.2,0.4,0.1,0.5
		c-0.2,0.3-0.5,0.8-0.7,0.8c-2.8,0.1-5.6,0.2-8.4,0.2c-2,0-4,0-6.1,0c0,0,0,0,0,0c-4.2,0-8.5,0-12.7,0c-1,0-2-0.2-2.8-0.9
		c-2.7-2.7-5.3-5.5-8-8.2c-0.1-0.1-0.2-0.4-0.1-0.6c0.2-0.3,0.5-0.7,0.8-0.8c0.6-0.2,1.2-0.2,1.8-0.2c8.1,0,16.1,0,24.2,0
		c1.9,0,3.5,0.5,4.9,1.9C616.4,875.7,618.8,878.1,621.2,880.6z M560.8,858.8c0.2,0,0.4,0,0.5,0.1c3.1,3.1,6.3,6.3,9.4,9.4
		c0.1,0.1,0.1,0.4,0.1,0.6c0,0.5-0.2,0.7-0.8,0.7c-1.4,0-2.8,0-4.2,0c0,0,0,0,0,0c-1.4,0-2.8,0-4.2,0c-0.8,0-1.5-0.7-1.6-1.5
		c0-2.8,0-5.6,0-8.5C560,859,560.3,858.8,560.8,858.8z M560,873c0-0.7,0.9-1.5,1.6-1.6c0.6-0.1,1.2-0.2,1.8-0.2
		c3.6,0.2,7.2-0.5,10.8,0.5c3.3,2.6,6.2,5.7,9,8.8c0.1,0.1,0.1,0.4,0.1,0.5c0,0.5-0.3,0.7-0.8,0.8c-3.4,0.1-6.8,0.2-10.2,0.3
		c0-0.1,0-0.1,0-0.2c-3.4,0-6.8,0-10.2,0c-1.2,0-1.9-0.7-2-1.8C559.9,877.8,560,875.4,560,873z M634.2,886.5
		c-0.2-0.2-0.2-0.8-0.1-1.1c0.1-0.3,0.6-0.6,0.9-0.6c4.4,0,8.9,0,13.3,0c0,0,0-0.1,0-0.1c4.2,0,8.5,0,12.7,0c1.7,0,3.1,0.6,4.3,1.8
		c1.6,1.8,3.4,3.5,5,5.3c0.4,0.4,0.4,1.1,0.5,1.7c0.1,0.6-0.4,1.4-0.8,1.5c-0.6,0.1-1.2,0.3-1.8,0.3c-7.7,0-15.3,0-23,0
		c-1.7,0-3.1-0.5-4.3-1.7C638.7,891.1,636.4,888.8,634.2,886.5z M670.8,880.8c0,0.4-0.7,0.9-1.2,1.1c-0.5,0.2-1.2,0-1.7-0.1
		c-0.4-0.1-0.7-0.3-1-0.6c-2.7-2.7-5.3-5.4-8-8.1c-0.2-0.2-0.2-0.8,0-1.1c0.1-0.3,0.6-0.6,0.9-0.6c1.6-0.1,3.2,0,4.8,0
		c0-0.1,0-0.1,0-0.2c1.6,0.1,3.2,0.2,4.8,0.3c0.7,0,1.6,0.9,1.6,1.6C670.9,875.6,670.9,878.2,670.8,880.8z M616.2,842.5
		c-0.6-0.1-1.1-0.6-1.2-1.2c-0.1-1.2,0-2.4,0-3.5c0-0.2,0.7-0.5,0.9-0.4c1.7,0.8,2.8,2.2,3.9,3.6c0.2,0.3,0.3,0.8,0.2,1.1
		c-0.1,0.3-0.5,0.5-0.8,0.6c-0.4,0.1-0.8,0-2,0C617.4,842.6,616.8,842.6,616.2,842.5z M615.9,830c-0.8-0.8-1-1.7-1-2.7
		c0-7.3,0-14.6,0-21.9c0-1.3,0.9-2,2.4-2.1c1.9-0.1,3.6,0.2,5,1.7c0.4,0.5,0.9,0.9,1.3,1.3c11,11,22.1,22.1,33.1,33.1
		c0.7,0.7,1.6,1.3,1.7,2.4c0,0.2-0.1,0.5-0.2,0.5c-0.6,0.2-1.1,0.4-1.7,0.4c-4.3,0-8.5,0-12.8,0c0,0,0,0,0,0c-4.5,0-8.9,0-13.4,0
		c-1.1,0-2-0.3-2.8-1.1C623.6,837.8,619.8,833.9,615.9,830z M614.8,768c0-2,0.1-4,0.1-6c0-0.5,0.2-0.8,0.7-0.8c0.4,0,0.8,0,1.1,0.2
		c0.8,0.6,1.5,1.3,2.2,2.1c11.4,11.4,22.8,22.8,34.2,34.3c0.8,0.8,1.6,1.8,2.3,2.8c0.1,0.1-0.2,0.9-0.5,0.9
		c-0.8,0.2-1.6,0.2-2.4,0.2c-4,0-8.1,0-12.1,0c0,0,0,0,0,0c-4.4,0-8.9,0-13.3,0c-1,0-2-0.3-2.7-1.1c-2.7-2.7-5.4-5.4-8.2-8.1
		c-1.1-1.1-1.4-2.3-1.4-3.8C614.9,781.7,614.8,774.8,614.8,768z M617.5,800.8c-0.1,0.2-0.1,0.4-0.2,0.4c-0.6,0.1-1.2,0.2-1.7,0.1
		c-0.6-0.2-0.7-0.9-0.6-1.5c0-0.7,0.5-1,1.1-0.7C616.8,799.4,617.3,800,617.5,800.8z M668.4,842.7c-1.3,0-2.3-0.6-3.2-1.4
		c-0.4-0.4-0.9-0.8-1.3-1.3c-11.2-11.2-22.3-22.3-33.5-33.5c-0.6-0.6-1-1.2-1.4-1.9c-0.1-0.2,0.2-0.9,0.4-1c0.8-0.2,1.6-0.3,2.4-0.3
		c3.8,0,7.7,0,11.5,0c0,0,0,0,0,0c4.5,0,8.9,0,13.4,0c1.3,0,2.4,0.4,3.3,1.3c0.6,0.6,1.2,1.1,1.7,1.7c11,11,22.1,22,33.1,33.1
		c0.6,0.6,1,1.2,1.5,1.9c0.1,0.1,0.2,0.4,0.1,0.6c-0.2,0.3-0.5,0.7-0.8,0.8c-0.8,0.2-1.6,0.2-2.4,0.2c-7.5,0-15,0-22.5,0
		C670,842.7,669.2,842.7,668.4,842.7z M622,847.3c0.8,0,1.6,0,2.4,0c1.5,0,2.7,0.6,3.7,1.7c2.7,2.7,5.4,5.4,8.1,8.1
		c3.5,3.6,7.1,7.2,10.6,10.8c0.4,0.4,0.3,0.7,0,1.1c-0.1,0.1-0.3,0.3-0.4,0.4c-0.8,0.1-1.6,0.2-2.4,0.2c-4,0-8.1,0-12.1,0
		c0,0,0,0,0,0c-4.2,0-8.5,0-12.7,0c-1,0-2.1-0.1-2.8-0.9c-6.6-6.6-13.1-13.2-19.6-19.8c-0.2-0.2-0.1-0.7,0-1.1
		c0-0.1,0.3-0.3,0.5-0.3c0.4-0.1,0.8-0.2,1.2-0.2c0.8,0,1.6,0,2.4,0C607.8,847.3,614.9,847.3,622,847.3z M604.1,722.2
		c-0.1,4.7,0,9.3-0.1,14c0,1.2-0.1,2.4-0.3,3.6c0,0.2-0.8,0.6-0.9,0.5c-0.8-0.6-1.6-1.2-2.3-1.9c-4.6-4.6-9.2-9.1-13.7-13.7
		c-17.3-17.3-34.6-34.6-51.9-51.9c-1.3-1.3-2.6-2.6-3.8-3.9c-0.9-0.9-1.2-2-1.2-3.3c0-4.5,0-8.9,0-13.4c0,0-0.1,0-0.1,0
		c0.1-4.6,0.2-9.3,0.3-13.9c0-0.2,0.8-0.6,0.9-0.5c0.8,0.5,1.6,1.1,2.4,1.8c7.3,7.3,14.6,14.6,21.9,21.9s14.6,14.6,21.9,21.9
		c0.7,0.7,1.3,1.5,1.8,2.4c0.1,0.2-0.2,1-0.4,1c-1.6,0.2-3.2,0.2-4.8,0.3c-3.2,0.2-6.5-0.4-9.7,0.3c-0.5,0.1-0.7,0.4-0.5,0.8
		c0.2,0.3,0.3,0.7,0.6,0.9c0.3,0.2,0.7,0.3,1.1,0.3c1,0.1,2,0.1,3,0.1c4.2,0,8.5,0,12.7,0c1.5,0,2.6,0.5,3.7,1.6
		c6.3,6.3,12.6,12.6,18.9,18.8c0.9,0.9,1.5,1.9,1.5,3.2c0,0.6,0,1.2,0,1.8c0.1,1.4,0.4,1.9,1,1.9c0.7,0,1-0.4,1.5-0.8
		c0.8-0.7,1.3-0.7,2.1,0c0.4,0.4,0.9,0.9,1.3,1.3c0.1,0.1,0.3,0.4,0.3,0.5c-0.1,0.3-0.2,0.9-0.4,1c-1.4,0.2-2.8,0.3-4.2,0.5
		C605.2,719.5,604.1,720.6,604.1,722.2z M537.7,225.6c1.3,0,2.4,0.4,3.3,1.3c0.9,0.9,1.7,1.7,2.6,2.6c20.9,20.9,41.8,41.8,62.7,62.7
		c0.9,0.9,1.7,1.7,2.6,2.6c0.6,0.6,0.9,1.3,0.9,2.2c0,0.5-1,1-2,1.1c-0.8,0-1.6,0-2.4,0c-2.6,0-5.3,0-7.9,0c-4.9,0-9.7,0-14.6,0
		c-1.5,0-2.8-0.4-3.8-1.5c-0.9-0.9-1.7-1.7-2.6-2.6c-21.2-21.2-42.4-42.4-63.6-63.6c-1.2-1.2-3.1-2-2.9-4.2c1.4-1.1,3.1-0.5,4.6-0.5
		c3.4-0.1,6.9,0,10.3,0c0,0,0,0,0,0C529.2,225.6,533.5,225.6,537.7,225.6z M610.1,349.8C610.1,349.8,610,349.8,610.1,349.8
		c-0.1,4.4-0.1,8.9-0.1,13.3c0,0.3-0.4,0.7-0.7,0.8c-0.3,0.1-0.8,0-1.1-0.2c-0.9-0.8-1.8-1.6-2.6-2.5c-8.4-8.4-16.9-16.9-25.3-25.3
		c-0.9-0.9-1.8-1.7-2.5-2.6c-0.5-0.6-0.7-1.4-1-2.2c-0.2-0.6-0.1-1.2-0.1-1.8c0-7.9,0-15.8,0-23.7c0-0.8,0.2-1.6,0.5-2.3
		c0.1-0.2,0.8-0.4,1-0.3c0.8,0.5,1.7,1.1,2.4,1.8c7,7,14,14,21,21c2.3,2.3,4.6,4.6,6.9,6.9c1.1,1.1,1.6,2.3,1.5,3.8
		C610.1,340.9,610.1,345.4,610.1,349.8z M576.8,354.9C576.7,354.9,576.7,354.9,576.8,354.9c0-3.8-0.1-7.7,0-11.5
		c0-0.8,0.2-1.6,0.4-2.4c0.1-0.2,0.7-0.4,1-0.3c0.5,0.2,1,0.7,1.4,1.1c9.6,9.6,19.1,19.1,28.7,28.7c0.6,0.6,0.9,1.3,1.4,1.9
		c0.2,0.3-0.3,1.4-0.7,1.4c-0.8,0.1-1.6,0.3-2.4,0.3c-7.7,0-15.3,0-23,0c-0.6,0-1.2-0.1-1.8-0.1c-2-0.1-5-2.9-5-5.3
		C576.8,364.2,576.8,359.6,576.8,354.9z M578,379.1c0.6-0.1,1.2-0.3,1.8-0.3c9,0,18.1,0,27.1,0c0.6,0,1.2,0.1,1.8,0.2
		c0.7,0.1,1.2,0.9,1.2,1.8c0,0.9-0.5,1.8-1.1,1.9c-1,0.1-2,0.3-3,0.3c-4.2,0-8.4,0-12.7,0c-4,0-8,0-12.1,0c-1,0-2-0.1-3-0.2
		c-0.7-0.1-1.2-0.9-1.3-1.8C576.9,380.2,577.4,379.2,578,379.1z M609.8,325.5c0,0.2-0.7,0.5-1,0.4c-0.4,0-0.7-0.4-1-0.6
		c-6.9-6.9-13.7-13.7-20.6-20.6c-0.1-0.1-0.3-0.3-0.4-0.5c-0.1-0.4,0-0.8,0-1.1c0-0.2,0.2-0.3,0.4-0.4c0.2-0.1,0.4-0.1,0.6-0.1
		c6.5,0,12.9,0,19.4,0c0.4,0,0.8,0.1,1.2,0.1c0.6,0.1,1.5,1,1.5,1.7c0,3.6,0,7.3,0,10.9c0.1,0,0.2,0,0.2,0
		C610.1,318.6,610,322,609.8,325.5z M610,265.8c-1.2-2.5-2.4-5.1-3.7-7.6c-3.6-7.1-8.4-13.3-14.3-18.7c-3.4-3.2-7.2-5.8-11.2-8.2
		c-3.4-2.1-7-4.1-10.8-5.5c-0.2-0.1-0.3-0.6-0.4-1c0,0,0.2-0.2,0.4-0.3c0.2-0.1,0.4-0.1,0.6-0.1c12.3,0,24.7,0,37,0
		c0.6,0,1.2,0.1,1.8,0.1c0.8,0.1,1.6,0.8,1.6,1.5c0.1,1.2,0.2,2.4,0.2,3.6c0,5.5,0,10.9,0,16.4c0,0-0.1,0-0.1,0c0,6.5,0,12.9,0,19.4
		c0,0.5-0.3,0.8-0.7,0.7C610.2,266.1,610,266,610,265.8z M579,235.7c4.6,3,9,6.1,12.8,10.2c5.8,6.3,10.4,13.4,13.5,21.4
		c1.9,4.7,3,9.6,4.1,14.6c0.3,1.6,0.3,3.2,0.4,4.8c0,0.3-0.3,0.7-0.6,0.8c-0.3,0.1-0.8-0.1-1.1-0.3c-0.5-0.3-0.9-0.8-1.3-1.2
		c-18.9-18.9-37.8-37.8-56.7-56.7c-0.6-0.6-1.1-1.2-1.6-1.8c-0.1-0.1-0.1-0.4,0-0.5c0.2-0.3,0.5-0.6,0.8-0.7c0.6-0.1,1.2,0,1.8,0
		c2.9,0,5.6,0.8,8.4,1.5C566.4,229.3,573,231.8,579,235.7z M569.4,293.6c0.7,0.7,1.4,1.5,2.1,2.2c0.5,0.5,0.7,1,0.4,1.6
		c-0.3,0.7-1,0.6-1.6,0.6c-8.5,0-17,0-25.5,0c-1.7,0-3.2-0.5-4.3-1.8c-0.8-0.9-1.7-1.7-2.6-2.6c-21-21-42.1-42.1-63.1-63.1
		c-1.1-1.1-2.2-2.4-3.2-3.6c-0.1-0.1-0.1-0.4-0.1-0.6c0-0.5,0.3-0.7,0.8-0.7c4.7,0,9.3,0,14,0c0,0,0-0.1,0-0.1c4.5,0,8.9,0,13.4,0
		c1.1,0,2,0.4,2.7,1.1c0.9,0.8,1.8,1.7,2.6,2.5C526.5,250.7,548,272.1,569.4,293.6z M567.9,302.4c0.8,0,1.6,0.1,2.4,0.2
		c0.8,0.1,1.5,0.9,1.6,1.6c0,0.2,0.1,0.4,0.1,0.6c0,6.7,0,13.3,0,20c0,0.5-0.2,0.8-0.6,0.9c-0.4,0-0.8,0-1.1-0.1
		c-0.2,0-0.3-0.2-0.5-0.4c-6.9-6.9-13.7-13.7-20.6-20.6c-0.3-0.3-0.5-0.7-0.5-1c0-0.3,0.3-0.9,0.5-0.9c1.2-0.2,2.4-0.3,3.6-0.3
		c2.4,0,4.9,0,7.3,0c0,0,0,0,0,0C562.6,302.4,565.3,302.4,567.9,302.4z M544,306.3c8,8,16,16,24,24c0.7,0.7,1.4,1.4,2.1,2.1
		c1.2,1.2,1.9,2.5,1.9,4.3c-0.1,3,0,6.1,0,9.1c0,1.4,0,2.8,0,4.2c0,0,0,0,0,0c0,4,0,8.1,0,12.1c0,1.5-0.3,2-0.8,2
		c-0.9,0-1.5-0.5-2-1.1c-8.6-8.6-17.1-17.1-25.7-25.7c-4-4-8-8-12-12c-1.2-1.2-1.8-2.6-1.8-4.3c0.1-5,0-10.1,0-15.1
		c0-0.8,0.1-1.6,0.3-2.4c0.1-0.3,0.5-0.7,0.9-0.8c1.2-0.2,2.4-0.4,3.6-0.3C540.7,302.4,539.7,302,544,306.3z M529.8,333.2
		c0-0.3,0.3-0.8,0.5-0.9c0.3-0.2,0.8-0.1,1.1,0c0.8,0.6,1.5,1.3,2.3,2c3.3,3.3,6.6,6.6,9.9,9.9c8,8,16,16,24,24
		c1.1,1.1,2.3,2.3,3.4,3.5c0.7,0.8,1,1.7,1,2.8c0,1.8,0,3.6,0,5.5c0,1.4,0,2.8,0,4.2c0.1,2.3,1,3.2,3.4,3.3c2.8,0.1,5.7,0.1,8.5,0
		c2-0.1,3.5,0.6,4.9,2c3.4,3.4,6.9,6.8,10.4,10.2c0.3,0.3,0.6,0.6,0.9,0.9c21.2,21.1,42.4,42.3,63.7,63.4c1.4,1.4,2,2.9,2,4.8
		c-0.1,4.2,0,8.5,0,12.7c0,0-0.1,0-0.1,0c0,4.4,0,8.9,0,13.3c0,0.5-0.2,0.8-0.6,0.9c-0.4,0-0.8,0-1.1-0.2c-0.4-0.2-0.6-0.5-0.9-0.8
		c-0.7-0.7-1.4-1.4-2.2-2.1c-19.1-19-38.1-38-57.2-57c-22.9-22.9-45.8-45.7-68.8-68.6c-1-1-1.9-2.1-3-3c-1.7-1.4-2.2-3.2-2.2-5.4
		C529.8,350.2,529.8,341.7,529.8,333.2z M665.6,609.9c0,0.3-0.3,0.7-0.6,0.9c-0.3,0.1-0.8,0-1.1-0.1c-0.5-0.3-0.9-0.8-1.4-1.2
		c-1-1-2-2-3-3c-41.5-41.5-83.1-83.1-124.6-124.6c-0.7-0.7-1.4-1.4-2.1-2.1c-3.5-3.6-3-2.6-3-7.4c0-8.3,0.1-16.6,0.2-24.9
		c0-0.2,0.5-0.5,0.8-0.7c0.1-0.1,0.4,0,0.6,0.2c0.5,0.4,1,0.7,1.4,1.1c0.9,0.8,1.7,1.7,2.6,2.6c42,42,84,83.9,125.9,125.9
		c5.5,5.5,4.4,3.3,4.6,11c0,3,0,6.1,0,9.1c0,0-0.1,0-0.1,0C665.7,601,665.7,605.4,665.6,609.9z M529.8,432.1c0-6.7,0-13.4,0-20
		c0-1,0.1-2,0.2-3c0-0.1,0.2-0.4,0.4-0.4c0.4,0,0.8-0.1,1.1,0c0.5,0.3,1,0.7,1.4,1.1c1,1,2,2,3,3c41.4,41.3,82.7,82.7,124,124.1
		c2,2,4.3,3.8,5.7,6.2c0.1,2.6,0.2,5.2,0.2,7.9c0,2.4,0,4.9,0,7.3c0,0,0,0,0,0c0,4,0,8.1,0,12.1c0,1.5-0.3,2-0.8,2
		c-0.9,0-1.4-0.6-2-1.1c-1.2-1.1-2.3-2.3-3.4-3.4c-41.5-41.5-83-83-124.5-124.5c-0.3-0.3-0.6-0.6-0.9-0.9
		C529,437.4,529.8,439.3,529.8,432.1z M529.9,370.9c0-0.3,0.5-0.5,0.8-0.7c0.1-0.1,0.4,0,0.5,0.1c0.5,0.3,1,0.7,1.4,1.1
		c1.2,1.1,2.3,2.3,3.4,3.4c31.1,31,62.1,62.1,93.2,93.1c10.6,10.6,21.2,21.1,31.8,31.7c1.1,1.1,2.3,2.3,3.4,3.5
		c0.7,0.7,1.2,1.6,1.2,2.7c0,9.3-0.1,18.6-0.1,27.9c0,0.3-0.5,0.6-0.7,0.8c-0.1,0.1-0.4,0-0.5-0.1c-0.3-0.2-0.7-0.4-1-0.7
		c-1-1-2-2-3-3c-41.9-41.9-83.9-83.9-125.8-125.8c-0.6-0.6-1.2-1.1-1.7-1.7c-3.5-3.5-3-2.8-3-7.4c0-3.8,0-7.7,0-11.5
		c0,0,0.1,0,0.1,0C529.9,379.8,529.9,375.3,529.9,370.9z M615.4,662.9c0.1,0.3,0.3,0.8,0.5,0.9c0.5,0.3,1.1,0.4,1.7,0.5
		c1.8,0.1,3.6,0.1,5.4,0.2c0.5,0,1.1,0.8,0.9,1.2c-2.2,3.9-4.1,7.8-5.4,12.1c-0.2,0.6-1,0.8-1.4,0.4c-0.2-0.1-0.3-0.2-0.5-0.4
		c-5.3-5.3-10.6-10.5-15.8-15.8c-0.4-0.4-0.5-1-0.7-1.6c0-0.1,0.1-0.4,0.3-0.5c0.3-0.2,0.7-0.3,1.1-0.3c8.3,0,16.5,0,24.8-0.1
		c1.6,0,2.5,0.8,3.2,1.9c-3.5,0-7,0-10.6,0c-1,0-2,0.3-3,0.4C615.4,662.1,615.2,662.4,615.4,662.9z M617.1,686.2
		c-0.1,0.3-0.6,0.6-0.9,0.6c-2.2,0-4.4,0-6.6,0c-1,0-1.8-1-1.9-2c-0.1-2.7-0.2-5.5-0.4-8.2c0.5,0.1,1.1,0.2,1.4,0.5
		c2.8,2.6,5.5,5.3,8.2,8.1C617.2,685.3,617.2,685.9,617.1,686.2z M625.3,656.8c-0.3,0.2-0.8,0.3-1.2,0.3c-8.7,0-17.4,0-26.1,0
		c-1.5,0-2.7-0.5-3.8-1.6c-1.8-1.9-3.7-3.7-5.5-5.6c-0.4-0.4-0.6-0.9-0.8-1.4c-0.6-0.4-1.3-0.7-1.8-1.2c-1.5-1.4-2.9-2.8-4.3-4.3
		c-15.6-15.6-31.2-31.2-46.8-46.8c-1.3-1.3-2.6-2.6-3.8-3.9c-0.7-0.7-1.2-1.6-1.2-2.7c0-9.1,0.1-18.2,0.1-27.3
		c0-0.5,0.2-0.8,0.7-0.8c0.4,0,0.8,0,1.1,0.2c1.1,0.9,2.1,1.9,3.1,2.9c29.4,29.4,58.7,58.7,88.1,88.1c1,1,1.9,2.1,2.8,3.2
		C625.7,656,625.5,656.6,625.3,656.8z M529.8,600.6c0-0.3,0.3-0.7,0.5-1c0.2-0.4,1-0.2,1.6,0.4c0.3,0.3,0.6,0.5,0.9,0.8
		c0.7,0.7,1.4,1.4,2.2,2.1c16.3,16.3,32.7,32.6,49,49c1.1,1.1,2.3,2.3,3.3,3.5c0.2,0.3,0.2,0.7,0.2,1.1c0,0.1-0.3,0.2-0.5,0.3
		c-1.4,0.2-2.8,0.4-4.1,0.7c-0.2,0-0.4,0.6-0.5,1c-0.1,0.4,0.2,0.8,0.7,0.8c2.2,0.1,4.4,0.2,6.7,0.3c1.1,0,2,0.3,2.8,1
		c4.7,4.7,9.4,9.5,14.1,14.2c0.3,0.3,0.3,1,0.5,1.5c-1,0.1-1.8,0.4-1.9,1.6c-0.1,2.6-0.1,5.3-0.2,7.9c0,0.9-0.7,1.5-1.6,1.4
		c-3-0.5-6-0.9-9-1.4c-2.4-0.4-4.8-0.9-7.2-1.2c-1.9-0.2-3.5-1-4.7-2.4c-0.5-0.6-1.1-1.1-1.7-1.7c-15.8-15.8-31.5-31.5-47.3-47.3
		c-0.7-0.7-1.4-1.4-2.2-2.1c-1-1-1.7-2.2-1.7-3.7C529.8,618.5,529.8,609.5,529.8,600.6z M605.2,696.5c-0.1,2-0.2,4-0.2,6
		c0,0.5-0.3,0.7-0.8,0.7c-0.2,0-0.4,0-0.5-0.1c-1.5-1.4-2.9-2.7-4.4-4.1c-1.9-1.8-3.7-3.7-5.5-5.6c-0.6-0.6-1.4-1.3-1-2
		c0.3-0.6,1.3-0.8,2.1-1c1-0.3,2-0.4,3-0.6c0.8-0.1,1.6-0.1,2.4-0.3c5.2-1.2,5-1.1,5,3.9C605.2,694.5,605.2,695.5,605.2,696.5
		C605.2,696.5,605.2,696.5,605.2,696.5z M635.5,695.4c-0.3,0.4-0.7,0.4-1.1,0.1c-1.5-1.6-3.1-3.1-4.6-4.7c-0.1-0.1,0.1-0.9,0.4-1
		c0.5-0.2,1.2-0.3,1.8-0.3c1.6-0.1,3.3,0.3,4.8-0.1c3.9-1.3,7.5,0.2,11.2,0.7c0.6,0.1,1.3,1,1.3,1.8c-0.1,0.5-0.5,1-0.8,1.4
		c-0.1,0.1-0.4,0.1-0.6,0.1c-1.2,0-2.4,0-3.6,0c-2,0.1-4,0.2-5.9-0.7c-0.6-0.3-1.1,0.3-1.4,0.8C636.5,694.2,636,694.8,635.5,695.4z
		 M648.1,686c-2,0.4-3.9,0.8-5.9,1.2c-0.6,0.1-1.2,0.3-1.8,0.2c-4.2-0.6-8.5-0.3-12.7-0.4c-1.3,0-2.4-0.4-3.3-1.3
		c-0.7-0.7-1.5-1.4-2.1-2.1c-0.7-0.8-1-1.7-0.9-2.8c0.8-5.3,2.8-10.1,5.9-14.4c1-1.4,2.2-2.7,2.5-4.5c1.8,0.3,3.3,1,4.6,2.3
		c4.2,4.3,8.5,8.6,12.8,12.8c1.8,1.7,2.5,3.6,2.2,5.9c-0.1,0.6-0.1,1.2-0.2,1.8C649,685.2,648.7,685.8,648.1,686z M639.7,660.8
		c2.4-0.4,4.7-0.9,7.1-1.3c1.8-0.3,2.5,0.4,2.6,2.3c0,0.4,0,0.8,0,1.2c0,0.8,0,1.6,0,3.8c0,0.3-0.1,1.9-0.3,3.5
		c0,0.2-0.2,0.4-0.4,0.4c-0.3,0.1-0.9,0.2-1,0.1c-2.9-2.8-5.7-5.7-8.5-8.5C638.9,661.8,639.2,660.9,639.7,660.8z M649.3,656.1
		c0,0.7-1,1.6-1.6,1.5c-4.6-0.7-9.2-1.5-13.8-2.2c-1.2-0.2-2.3-0.7-3.2-1.5c-1-1-2-2-3-3c-31.2-31.2-62.4-62.4-93.6-93.6
		c-5.3-5.3-4.3-3.2-4.4-10.5c0-3,0-6.1,0-9.1c0-14.9,0-14.9,0.9-14.7c0.2,0,0.4,0,0.6,0.1c3.4,3.2,6.7,6.4,10,9.7
		c39.4,39.3,78.7,78.7,118,118c1.6,1.6,3.1,3.2,4.6,4.8c0.1,0.1,0.2,0.4,0.1,0.5c-0.2,0.3-0.5,0.7-0.7,0.8c-1.8,0.1-3.6,0.2-5.4,0.2
		c-6.1,0-5.6,0.3-5.7-5.6c0-1.2-0.1-2.4-0.3-3.6c0-0.3-0.6-0.6-0.9-0.6c-0.3,0-0.9,0.2-0.9,0.4c-0.2,0.7-0.4,1.5-0.4,2.3
		C649.4,652.1,649.4,654.1,649.3,656.1z M659,659.6c1.6,0,3.2,0.1,4.8,0.1c1,0,1.8,0.9,1.9,2c0,0.4,0.1,0.8,0.1,1.2
		c0,3.6,0,7.3,0,10.9c0,0,0,0,0,0c0,3.6,0,7.3,0,10.9c0,0.6-0.2,1.2-0.7,1.5c-0.5,0.3-1.5,0.2-2.2-0.4c-0.5-0.4-0.9-0.8-1.3-1.2
		c-1-1-2-2-3-3c-2-2.2-4.6-4-6.1-6.7c-0.1-2.8-0.3-5.6-0.3-8.5C652.1,659.1,651.7,659.6,659,659.6z M653.8,684.5
		c-0.2,0.2-0.7,0.3-0.9,0.2c-0.2-0.1-0.3-0.5-0.5-0.8c0.2-0.2,0.5-0.5,0.7-0.6C653.6,683.4,654.1,684.2,653.8,684.5z M665.5,648.4
		c0,0.2-0.6,0.5-0.9,0.5c-0.4,0-0.8-0.3-1-0.6c-1.3-1.3-2.6-2.5-3.9-3.8c-41.4-41.3-82.7-82.7-124-124.1c-2-2-4.3-3.7-5.7-6.3
		c-0.1-2.6-0.2-5.3-0.2-7.9c0-6.9,0.1-13.8,0.2-20.6c0-0.3,0.4-0.6,0.7-0.8c0.1-0.1,0.4,0,0.5,0.1c0.4,0.2,0.7,0.4,1,0.7
		c1,1,2,2,3,3c42.1,42.1,84.1,84.1,126.2,126.2c0.4,0.4,0.9,0.9,1.3,1.3c3.3,3.3,3,2.8,3,7.4c0,3.6,0,7.3,0,10.9c0,0,0.1,0,0.1,0
		C665.7,639.1,665.7,643.8,665.5,648.4z M665.6,418.7c0,0.1-0.2,0.3-0.3,0.4c-0.3,0.4-0.7,0.4-1.1,0.1c-0.3-0.2-0.7-0.4-1-0.7
		c-0.6-0.5-1.2-1.1-1.7-1.7c-7.6-7.6-15.2-15.1-22.8-22.7c-6.5-6.4-12.9-12.8-19.4-19.2c-1.1-1.1-2.3-2.3-3.4-3.5
		c-0.6-0.6-0.9-1.3-0.9-2.2c0-0.2,0-0.4,0-0.6c0-8.9,0-17.8,0-26.7c0-0.4,0.3-0.7,0.4-1.1c0.2-0.4,1.1-0.3,1.6,0.2
		c0.5,0.4,0.9,0.8,1.4,1.2c0.7,0.7,1.4,1.4,2.2,2.1c14.3,14.3,28.7,28.5,43,42.8c0.3,0.3,0.6,0.6,0.9,0.8c0.9,0.9,1.4,1.9,1.4,3.2
		c0,3.4,0,6.9,0,10.3c0,1,0,2,0,3c0,0,0,0,0.1,0C665.7,409.4,665.7,414,665.6,418.7z M380.4,266.3c-0.3-0.2-0.7-0.5-0.7-0.8
		c-0.1-1.8-0.2-3.6-0.2-5.4c0-14.4,0-28.7,0-43.1c0-14.8,0-29.6,0-44.3c0-1.8,0.2-3.6,0.3-5.4c0-0.4,0.9-1.1,1.3-1
		c2.8,0.4,5.6,0.9,8.4,1.3c2.4,0.4,4.8,0.7,7.2,1.2c1.6,0.3,2.7,0,3.6-1.3c0.3-0.4,1.1-0.6,1.6-0.6c1.4-0.1,2.8-0.1,4.2-0.1
		c59.5,0,119,0,178.6,0c1.2,0,2.4,0,3.6,0.1c1.1,0,1.9,0.5,2.6,1.4c0.5,0.7,1.2,1,2.1,0.8c5.4-0.9,10.8-1.8,16.2-2.7
		c0.8-0.1,1.7,0.5,1.7,1.2c0.1,1.6,0.2,3.2,0.2,4.9c0,8.5,0,17,0,25.5c0,6.1,0,12.1,0,18.2c0,1.4-0.1,2.8-0.1,4.2
		c0,0.8-0.7,1.6-1.5,1.6c-1.4,0.1-2.8,0.2-4.2,0.2c-15.4,0-30.8,0-46.2,0c-3.8,0-7.7-0.2-11.5-0.6c-3.2-0.3-6.5-0.5-9.7-0.5
		c-28.1,0-56.3,0.1-84.4,0c-5.7,0-11.4,0.3-16.9,1.1c-7.6,1-15,3.3-21.9,6.8c-11.2,5.6-19.9,13.8-27,23.9c-1.6,2.3-2.8,4.9-4.1,7.4
		c-1,2-1.9,4-2.8,6C380.9,266.2,380.5,266.3,380.4,266.3z M418.7,297.7c-0.8,0.2-1.6,0.2-2.4,0.2c-3.8,0-7.7,0-11.5,0c0,0,0,0,0,0
		c-4.2,0-8.5,0-12.7,0c-1.7,0-3.1-0.5-4.3-1.7c-1.8-1.9-3.7-3.7-5.5-5.6c-0.9-0.9-1.3-2-1.2-3.3c0.2-5.7,1.3-11.2,3.3-16.5
		c0.7-1.9,1.6-3.7,2.4-5.5c0.1-0.2,0.7-0.2,1-0.2c0.4,0.1,0.7,0.3,1,0.6c10,10,20,20,29.9,30c0.3,0.3,0.5,0.7,0.5,1
		C419.1,297.1,418.9,297.7,418.7,297.7z M457.2,297.4c0,0.2-0.3,0.4-0.4,0.4c-1.8,0.1-3.6,0.2-5.4,0.2c-2.8,0-5.7,0-8.5,0
		c0,0,0,0,0,0c-4,0-8.1-0.1-12.1,0c-2.2,0.1-3.9-0.6-5.3-2.3c-0.5-0.6-1.1-1.1-1.7-1.7c-10.3-10.3-20.6-20.6-30.9-30.9
		c-0.9-0.9-1.7-1.7-2.5-2.6c-0.5-0.6-0.7-1.5-0.3-2.3c0.2-0.6,0.5-1.1,0.8-1.6c3.3-4.9,6.9-9.5,11.3-13.4c0.7-0.6,1.6-0.7,2.2-0.1
		c0.9,0.8,1.8,1.6,2.6,2.5c15.9,15.9,31.7,31.7,47.6,47.6c1,1,1.9,2.1,2.8,3.1C457.5,296.5,457.3,297.1,457.2,297.4z M495.5,297.4
		c-0.6,0.8-1.4,0.6-2.2,0.6c-1.2,0.1-2.4,0-3.6,0c-2.8,0-5.7,0-8.5,0c0,0,0,0,0,0c-4.3,0-8.5,0-12.8,0c-1.7,0-3.1-0.6-4.3-1.8
		c-0.6-0.6-1.1-1.1-1.7-1.7c-17.3-17.3-34.6-34.6-52-52c-0.9-0.9-1.7-1.8-2.4-2.7c-0.2-0.2-0.2-0.9,0-1.1c0.7-0.7,1.4-1.5,2.2-2
		c5-3.2,10.2-5.8,15.8-7.5c1.3-0.4,2.4-0.1,3.3,0.9c0.8,0.9,1.7,1.7,2.6,2.6c20.2,20.2,40.4,40.4,60.6,60.6c0.7,0.7,1.4,1.4,2.1,2.2
		C495.5,296.2,495.8,296.9,495.5,297.4z M519.3,298C519.3,298,519.3,298,519.3,298c-4,0-8.1-0.1-12.1,0c-2.2,0.1-3.9-0.7-5.3-2.3
		c-0.5-0.6-1.1-1.2-1.7-1.7c-20.9-20.9-41.8-41.8-62.7-62.7c-1-1-2.2-1.8-2.7-3.2c-0.1-0.3,0.2-0.7,0.3-1.1c0.1-0.1,0.3-0.2,0.5-0.2
		c4.8-0.6,9.6-1.3,14.5-1.3c3.8,0.1,7.7,0,11.5,0.1c1.1,0,2,0.4,2.7,1.1c0.9,0.8,1.7,1.7,2.6,2.5c21.2,21.2,42.4,42.3,63.5,63.5
		c1.1,1.1,2.2,2.4,3.3,3.6c0.3,0.4,0.2,0.8-0.1,1.1c-0.1,0.1-0.3,0.3-0.4,0.3c-2.2,0.1-4.4,0.2-6.7,0.2
		C524.1,298,521.7,298,519.3,298z M520,771.6c0.1-0.3,0.6-0.5,0.9-0.5c1.4-0.1,2.8,0,4.2,0c0,0,0,0,0,0c1.2,0,2.4,0,3.6,0
		c0.9,0,1.6,0.8,1.4,1.5c-0.3,1.8-0.5,3.6-0.9,5.3c-0.4,2-1.5,2.4-2.8,1.1c-2.2-2.1-4.3-4.2-6.4-6.4
		C520,772.4,519.9,771.9,520,771.6z M482,771.3c0.8-0.2,1.6-0.3,2.4-0.3c4,0,8.1,0,12.1,0c0,0,0,0,0,0c4.4,0,8.9,0,13.3,0
		c1,0,2,0.3,2.7,1.1c4.5,4.4,8.9,8.8,13.5,13.1c1.2,1.1,1.3,2.4,1.1,3.9c-0.4,2.2-0.8,4.4-1.2,6.5c-0.8,4.2-1.6,8.3-2.5,12.5
		c-0.2,0.8-0.4,1.6-0.7,2.3c-0.4,1.4-1.1,1.7-2.1,0.9c-0.9-0.8-1.8-1.6-2.7-2.5c-11.5-11.4-22.9-22.8-34.4-34.3
		c-0.7-0.7-1.4-1.5-2-2.3C481.6,772.1,481.8,771.3,482,771.3z M425.2,838.4c-0.1,0.1-0.4,0.3-0.5,0.3c-5.3-1.6-10.1-4.2-14.6-7.2
		c-7.3-4.8-13.4-11.1-18.5-18.2c-2.9-4.1-4.9-8.8-6.5-13.6c-0.3-0.8,0-1.5,0.4-2.2c0.9,1.8,2.5,2.9,3.9,4.3c11,11,22,22,33,33
		c1,1,1.9,2.1,2.8,3.2C425.3,838.1,425.3,838.3,425.2,838.4z M385.3,797.3C385.1,797.2,385.3,797,385.3,797.3L385.3,797.3z
		 M385.5,797.4c0,0,0-0.1,0-0.1C385.5,797.3,385.5,797.3,385.5,797.4C385.5,797.4,385.5,797.4,385.5,797.4z M466.6,842.4
		c-0.6,0.2-1.2,0.2-1.8,0.2c-3.2,0-6.5,0-10.6,0c-4.8,0.3-10.4-0.2-16.1-0.8c-1.5-0.2-2.7-0.7-3.7-1.8c-0.8-0.9-1.7-1.7-2.6-2.6
		c-15.4-15.4-30.9-30.9-46.3-46.3c-1.1-1.1-2.3-2.3-3.4-3.5c-0.4-0.4-0.7-1.1-0.7-1.6c-0.3-4.4-1.3-8.8-0.8-13.3
		c0.1-0.8,0.8-1.6,1.5-1.6c0.8-0.1,1.6-0.2,2.4-0.2c2.8,0,5.7,0.1,8.5-0.1c2.7-0.2,4.6,0.8,6.4,2.7c4.8,4.9,9.8,9.7,14.6,14.5
		c16.6,16.6,33.2,33.1,49.8,49.7c1.1,1.1,2.6,2,3.1,3.7C467.1,841.7,466.8,842.3,466.6,842.4z M504.9,842.4
		c-0.5,0.2-1.2,0.2-1.8,0.3c-4.2,0-8.5,0-12.7,0c0,0,0,0,0,0c-3.6,0-7.3-0.1-10.9,0c-2.9,0.2-5-0.9-6.9-3c-2-2.2-4.3-4.3-6.5-6.4
		c-18.9-18.8-37.8-37.7-56.7-56.5c-1.4-1.4-2.8-2.9-4.2-4.4c-0.1-0.1-0.2-0.4-0.1-0.5c0.2-0.3,0.4-0.6,0.7-0.8
		c0.3-0.2,0.8-0.2,1.2-0.2c8.5,0,17,0,25.5,0c1.7,0,3.2,0.5,4.3,1.8c0.5,0.6,1.1,1.2,1.7,1.7c15.5,15.4,30.9,30.8,46.4,46.2
		c6.3,6.3,12.6,12.5,18.9,18.8c0.6,0.6,1,1.2,1.4,1.9C505.4,841.7,505.2,842.3,504.9,842.4z M513.5,842.1c-0.5-0.4-1-0.7-1.4-1.1
		c-0.7-0.7-1.4-1.4-2.2-2.1c-15.5-15.4-31-30.9-46.5-46.3c-6-6-12.1-12-18.1-18c-0.7-0.7-1.3-1.5-2-2.3c-0.1-0.1,0-0.4,0-0.5
		c0-0.5,0.3-0.7,0.8-0.7c4.6,0,9.3,0,13.9,0c0,0,0-0.1,0-0.1c4.2,0,8.5,0,12.8,0c1.5,0,2.7,0.4,3.8,1.5c2.1,2.2,4.4,4.2,6.5,6.4
		c12.5,12.4,25,24.8,37.4,37.3c0.4,0.4,0.8,0.9,1.3,1.3c1,0.9,1.2,2,1,3.3c-1.2,6.1-2.4,12.3-3.6,18.4c-0.2,0.8-0.5,1.5-0.8,2.3
		C516.1,842.6,514.6,842.9,513.5,842.1z M521.7,851.8c-0.8,0.1-1.6,0.3-2.4,0.2c-0.3,0-0.8-0.5-0.8-0.7c0-1,0.2-2,0.4-2.9
		c0.1-0.3,0.5-0.6,0.8-0.7c1.8-0.5,3.6-0.4,5.3,0c0.2,0,0.3,0.3,0.4,0.4c0.6,0.7,0.5,1.5,0.3,2.3c-0.1,0.6-0.6,1-1.2,1.1
		C523.7,851.5,522.7,851.6,521.7,851.8C521.7,851.7,521.7,851.7,521.7,851.8z M526,908.8c0,0.8-0.8,1.5-1.6,1.4
		c-7.9-0.6-14.1-4.4-19-10.6c-2.3-2.9-3.7-6.2-4.7-9.7c-0.3-1-0.3-2-0.3-3c-0.1-1.2,0.6-2.1,1.6-2.2c0.4,0,0.8-0.1,1.2-0.1
		c6.7,0,13.3,0,20,0c0.4,0,0.8,0.1,1.2,0.1c0.7,0.1,1.5,0.9,1.5,1.6c0,3.8,0,7.7,0,11.5c0,0,0,0,0,0C526,901.6,526,905.2,526,908.8z
		 M526.1,879.3c0,2-0.6,2.7-2.4,2.7c-7.1,0-14.1,0-21.2,0c-0.2,0-0.4-0.1-0.6-0.1c-0.9-0.1-1.5-0.8-1.5-1.6c-0.3-3.1,0.9-6,2.2-8.7
		c3.9-8.1,10.5-13.1,19.2-15.2c1-0.2,2-0.1,3-0.1c0.5,0,1.2,0.7,1.2,1.2c0,4,0,8.1,0,12.1c0,0,0.1,0,0.1,0
		C526.1,872.9,526.1,876.1,526.1,879.3z M527.9,837.2c-1,0.1-1.6,0.5-1.7,1.3c-0.1,0.8-0.1,1.6-0.2,2.4c-0.2,1.2-0.7,1.7-2,1.8
		c-0.6,0-1.2,0-2.8,0c0.2,0-0.7,0.1-1.4-0.2c-0.4-0.2-0.9-0.8-1-1.3c-0.1-0.8,0-1.6,0.2-2.4c0.6-3.1,1.3-6.3,1.9-9.4
		c1.5-7.8,1.5-8,2.3-7.7c2.7,1.1,4.1,3.7,6.3,5.5c1.2,1,1.6,2.3,1.2,3.8c-0.4,2-0.9,3.9-1.4,5.8
		C529.2,837.6,528.5,837.1,527.9,837.2z M549.5,899.1c-3.5,4.8-8,8.5-13.8,10.3c-0.6,0.2-1.2,0.4-1.8,0.5c-4.8,0.7-5.3,0.9-5.3-4.2
		c0.1-5.5,0-10.9,0-16.4c0-1,0.1-2,0.2-3c0.1-0.7,0.7-1.1,1.2-1.2c0.8-0.2,1.6-0.3,2.4-0.3c3.2,0,6.5,0,9.7,0c0,0,0,0.1,0,0.1
		c3.4,0,6.9,0,10.3,0c1,0,1.8,1,1.8,2C554,891.4,552.1,895.4,549.5,899.1z M554.2,880.9c-0.1,0.3-0.4,0.8-0.7,0.9
		c-0.5,0.2-1.2,0.3-1.8,0.3c-3.2,0-6.5,0-9.7,0c0,0,0,0,0,0c-3.4,0-6.9,0-10.3,0c-2.5,0-3.1-0.7-3.1-3.4c0-4.9,0-9.7,0-14.6
		c0-2,0-4,0.1-6.1c0-1.1,0.9-1.8,2-1.7c2.9,0,5.6,1,8.1,2.3c8.8,4.3,13.9,11.4,15.4,21.1C554.3,880.1,554.4,880.5,554.2,880.9z
		 M555.1,863.9c0,0.3-0.3,0.8-0.5,0.9c-0.3,0.1-0.9,0.1-1-0.1c-2.6-3.1-5.4-5.9-8.6-8.3c-0.7-0.5-1-1.2-0.9-2.1
		c0.2-1.6,0.5-3.2,0.8-4.7c0.3-1.3,1.2-2.2,2.5-2.2c2,0,4,0,6,0c1,0,1.8,0.9,1.8,2c0,2.4,0,4.8,0,7.2c0,0,0,0,0,0
		C555.1,859.1,555.1,861.5,555.1,863.9z M553.8,842.7c-1.1,0-2-0.3-2.8-1c-5.1-4.2-5.3-4.8-4-11.3c1.2-6,2.4-11.9,3.6-17.8
		c0.1-0.7,1.3-1,1.9-0.5c0.5,0.4,0.9,0.8,1.4,1.2c8.9,8.8,17.9,17.7,26.8,26.5c0.5,0.5,0.9,1.3,1.3,2c0.1,0.1-0.1,0.5-0.2,0.5
		c-0.5,0.2-1.1,0.4-1.7,0.4c-4.3,0-8.5,0-12.8,0c0,0,0,0,0,0C562.7,842.7,558.2,842.7,553.8,842.7z M581,919.3
		c-0.8,0-1.6,0.1-2.4,0.1c-1.8,0-3.6,0-5.4,0c0,0,0,0,0,0c-2.2,0-4.4,0.1-6.7,0c-1.2-0.1-2.4-0.4-3.5-0.9c-1.8-0.8-2.9-2.2-3-4.2
		c-0.1-2.6-0.1-5.2-0.1-7.9c0-2.6,0.1-5.2,0.2-7.9c0-0.3,0.4-0.7,0.7-0.8c0.3-0.1,0.8,0,1.1,0.2c0.5,0.3,0.9,0.8,1.4,1.2
		c5.7,5.7,11.4,11.4,17.1,17.1c0.4,0.4,0.9,0.8,1.2,1.3c0.2,0.3,0.3,0.7,0.3,1.1C581.8,919.1,581.5,919.3,581,919.3z M619.1,919.3
		c-0.2,0-0.4,0.1-0.6,0.1c-8.7,0-17.4,0-26.1,0c-1.5,0-2.8-0.4-3.8-1.5c-6.3-6.3-12.5-12.6-18.8-18.9c-0.6-0.6-0.7-1.4-0.2-1.6
		c0.3-0.2,0.7-0.4,1-0.5c0.6-0.1,1.2-0.1,1.8-0.1c4,0,8.1,0,12.1,0c0,0,0,0,0,0c4.2,0,8.5,0,12.7,0c1.3,0,2.4,0.3,3.3,1.2
		c6.4,6.5,12.8,13,19.1,19.5c0.2,0.2,0.3,0.7,0.2,1.1C620,919.1,619.6,919.3,619.1,919.3z M656.9,919.4c-1,0-2,0-3,0
		c-3.4,0-6.9,0-10.3,0c0,0,0,0,0,0c-4.5,0-8.9,0-13.4,0c-1.1,0-2-0.3-2.7-1.1c-2.2-2.1-4.3-4.3-6.5-6.4c-4-4-8-8.1-11.9-12.1
		c-0.6-0.6-1.1-1.1-1.2-2c0-0.4,1.1-0.9,2.1-0.9c8.5,0,17,0,25.5,0c1.5,0,2.7,0.5,3.8,1.6c6.2,6.4,12.5,12.7,18.7,19.1
		c0.2,0.2,0.2,0.7,0.3,1.1C658.4,919,657.8,919.3,656.9,919.4z M696.2,919c-0.6,0.2-1.2,0.3-1.7,0.3c-4.2,0-8.5,0-12.7,0
		c-4.2,0-8.5,0-12.7,0c-1.5,0-2.8-0.3-3.8-1.4c-6.2-6.4-12.4-12.7-18.6-19.1c-0.2-0.3-0.3-0.7-0.4-1.1c-0.1-0.3,0.7-0.9,1.4-0.9
		c0.2,0,0.4,0,0.6,0c8.5,0,17,0,25.5,0c1.5,0,2.7,0.4,3.8,1.5c6.1,6.2,12.2,12.4,18.3,18.6c0.4,0.4,0.5,1,0.7,1.6
		C696.5,918.6,696.3,919,696.2,919z M734.5,919.1c-0.8,0.2-1.6,0.2-2.4,0.2c-4,0-8.1,0-12.1,0c0,0,0,0,0,0c-4,0-8.1-0.1-12.1,0
		c-2.2,0.1-3.8-0.7-5.3-2.3c-2.2-2.3-4.6-4.6-6.8-6.9c-3.7-3.7-7.3-7.5-11-11.3c-0.7-0.7-0.8-1.1,0-2.1c0.6-0.9,1-1.7,1-2.7
		c0-2,0-4,0.1-6.1c0.1-2.7,0.7-3.4,3.1-3.4c3.6,0,7.3,0,10.9,0c1.5,0,2.7,0.6,3.8,1.6c0.3,0.3,0.6,0.6,0.9,0.8
		c9.7,9.7,19.4,19.4,29.1,29.1c0.6,0.6,1,1.2,1.4,1.9C735.1,918.4,734.8,919.1,734.5,919.1z M773,918.9c-0.3,0.2-0.7,0.5-1,0.5
		c-4.7,0-9.3,0-14,0c0,0,0,0,0,0c-4.3,0-8.5,0-12.8,0c-1.3,0-2.4-0.4-3.3-1.3c-0.6-0.6-1.2-1.1-1.7-1.7
		c-9.4-9.5-18.9-18.9-28.3-28.4c-0.4-0.4-0.8-0.9-1.3-1.3c-0.7-0.7-0.6-1.3,0.3-1.9c0.5-0.3,1-0.6,1.3-1.1c0.1-0.2-0.1-0.8-0.3-1
		c-0.3-0.3-0.7-0.5-1.1-0.5c-3.8,0.5-6.4-1.5-8.9-4.1c-8.6-8.8-17.4-17.5-26.2-26.2c-1-1-1.9-2.1-2.8-3.2c-0.1-0.1,0.2-0.8,0.4-1
		c0.5-0.3,1.2-0.4,1.7-0.4c8.3,0,16.6,0,24.9,0c2,0,3.5,0.6,4.8,2c1.1,1.2,2.3,2.3,3.4,3.4c20.3,20.3,40.7,40.7,61,61
		c1.1,1.1,2.3,2.3,3.4,3.5C773.3,917.8,773.4,918.7,773,918.9z M811.3,919c0,0.1-0.3,0.3-0.5,0.3c-0.8,0.1-1.6,0.2-2.4,0.2
		c-3.8,0-7.7,0-11.5,0c0,0,0,0,0,0c-4.3,0-8.5,0-12.8,0c-1.7,0-3.1-0.6-4.3-1.8c-0.8-0.9-1.7-1.7-2.6-2.6
		c-20.8-20.8-41.5-41.5-62.3-62.3c-1.3-1.3-2.5-2.7-3.7-4c-0.1-0.1,0.2-0.9,0.4-1c0.5-0.2,1.2-0.4,1.8-0.4c8.3,0,16.6,0,24.9,0
		c1.9,0,3.6,0.6,4.8,2.1c0.4,0.5,0.8,0.9,1.3,1.3c21.5,21.5,42.9,42.9,64.4,64.4c0.9,0.9,1.7,1.7,2.4,2.7
		C811.5,918.1,811.4,918.6,811.3,919z M849.5,918.7c-0.1,0.3-0.6,0.5-0.9,0.6c-1,0.1-2,0.1-3,0.1c-3.4,0-6.9,0-10.3,0c0,0,0,0,0,0
		c-4.3,0-8.5-0.1-12.8,0c-2,0.1-3.5-0.7-4.8-2.1c-0.5-0.6-1.1-1.1-1.7-1.7c-21.1-21.1-42.1-42.1-63.2-63.2c-1.1-1.1-2.2-2.4-3.3-3.6
		c-0.1-0.1,0-0.4,0-0.5c0-0.5,0.3-0.7,0.8-0.8c0.8-0.1,1.6-0.2,2.4-0.2c7.7,0,15.4,0.1,23.1-0.1c2.7,0,4.6,0.9,6.4,2.8
		c2.3,2.5,4.9,4.9,7.3,7.3c18.8,18.8,37.5,37.5,56.3,56.3c1.3,1.3,2.5,2.6,3.8,4C849.6,917.9,849.6,918.4,849.5,918.7z M887.3,919.1
		c-0.8,0.2-1.6,0.2-2.4,0.2c-4,0-8.1,0-12.1,0c0,0,0,0,0,0c-4.2,0-8.5,0-12.7,0c-1.3,0-2.4-0.4-3.3-1.3c-1-1-2-2-3-3
		c-20.7-20.7-41.5-41.5-62.2-62.2c-1.3-1.3-2.5-2.7-3.7-4c-0.1-0.1-0.1-0.4-0.1-0.5c0.2-0.3,0.4-0.7,0.7-0.8
		c0.6-0.2,1.2-0.3,1.8-0.3c8.1,0,16.2,0,24.3,0c1.9,0,3.6,0.5,4.9,2c0.7,0.8,1.4,1.4,2.1,2.2c20.9,20.9,41.7,41.7,62.6,62.6
		c1.3,1.3,2.8,2.3,3.5,4.1C887.8,918.4,887.5,919.1,887.3,919.1z M925.8,919.1c-0.5,0.2-1.2,0.3-1.8,0.3c-4.3,0-8.5,0-12.8,0
		c0,0,0,0,0,0c-4.5,0-8.9,0-13.4,0c-1.1,0-2-0.4-2.7-1.1c-1-1-2-2-3.1-3c-20.9-20.9-41.8-41.8-62.7-62.8c-1.1-1.1-2.2-2.3-3.3-3.6
		c-0.2-0.2-0.1-0.7,0-1.1c0-0.1,0.3-0.3,0.5-0.3c0.8-0.1,1.6-0.3,2.4-0.3c7.7,0,15.4,0,23.1,0c0.6,0,1.2,0,1.8,0
		c1.2,0.1,2.4,0.4,3.3,1.3c0.5,0.6,1.2,1.1,1.7,1.7c21.8,21.8,43.5,43.6,65.3,65.3c0.7,0.7,1.3,1.5,1.9,2.3
		C926.2,918.3,926,919,925.8,919.1z M955.9,911.4c-0.5,0.9-0.7,1.9-0.7,2.9c0,5.3-0.2,5-5,5c-4,0-8.1-0.1-12.1,0.1
		c-2.7,0.1-4.7-0.8-6.4-2.7c-0.5-0.6-1.1-1.2-1.7-1.7c-20.7-20.7-41.5-41.5-62.2-62.2c-1.3-1.3-2.4-2.7-3.6-4.1
		c-0.1-0.1,0.2-0.9,0.5-1c0.8-0.2,1.6-0.4,2.4-0.4c4,0,8.1,0,12.1,0c0,0,0,0,0,0c4.2,0,8.5,0,12.7,0c1.3,0,2.4,0.4,3.3,1.3
		c0.9,0.9,1.7,1.7,2.6,2.6c18.3,18.3,36.6,36.6,54.9,54.9c1,1,2,2,2.9,3.1C956.3,909.9,956.4,910.6,955.9,911.4z M1538.5,917.8
		c-0.1,0.7-0.5,1.1-1.1,1.3c-0.5,0.2-1.2,0.2-1.8,0.2c-2,0-4.1,0-6.1,0c-93.4,0-186.8,0-280.2,0c-93.6,0-187.2,0-280.8,0
		c-2.2,0-4.5,0-6.7-0.1c-1.3,0-2.1-1.4-1.6-2.6c0.1-0.3,0.4-0.7,0.8-0.8c0.5-0.2,1.2-0.4,1.7-0.4c1.8-0.1,3.6-0.1,5.5-0.1
		c187.4,0,374.8,0,562.2,0c2.2,0,4.4,0.1,6.7,0.2C1538.1,915.6,1538.6,916.6,1538.5,917.8z M1538.7,906.2c0,1-0.1,2-0.2,3
		c-0.1,0.7-0.6,1.1-1.1,1.3c-0.6,0.2-1.2,0.2-1.8,0.2c-2,0-4,0-6.1,0c-89.1,0-178.2,0-267.3,0c-89.3,0-178.6,0-267.9,0
		c-2,0-4-0.1-6.1-0.1c-0.2,0-0.4-0.2-0.4-0.3c0-0.4,0-0.9,0.3-1.1c0.8-0.6,1.7-1.2,2.6-1.6c4.1-1.8,7.7-4.4,11.2-7.2
		c2.2-1.8,4.2-3.8,6.1-5.8c8-8,13.5-17.6,17.2-28.3c1.6-4.6,2.7-9.3,2.9-14.2c0.1-1,0.1-2,0.2-3c0.1-0.8,0.8-1.5,1.5-1.6
		c0.8-0.1,1.6-0.2,2.4-0.2c1.8,0,3.6,0,5.5,0c163.8,0,327.7,0,491.5,0c2.6,0,5.3,0.1,7.9,0.2c0.8,0,1.5,0.8,1.5,1.6
		c0.1,0.8,0.1,1.6,0.1,2.4C1538.7,869.8,1538.7,888,1538.7,906.2z M1538.5,830.6c0,3.4,0,6.9,0,10.3c0,0.8-0.8,1.5-1.5,1.6
		c-0.2,0-0.4,0.1-0.6,0.1c-6.9,0-13.7,0-20.6-0.1c-0.3,0-0.7-0.4-0.8-0.7c-0.1-0.3-0.1-0.8,0.1-1.1c0.3-0.5,0.8-0.9,1.2-1.4
		c6.6-6.6,13.1-13.1,19.7-19.7c0.4-0.4,0.9-0.8,1.5-1c0.2-0.1,0.8,0.2,0.9,0.4c0.2,0.5,0.3,1.2,0.3,1.8c0,3.2,0,6.5,0,9.7
		C1538.6,830.6,1538.6,830.6,1538.5,830.6z M1538.7,778.9c-0.1,9.7,0,19.4,0,29.2c0,1.2-0.1,2.4-0.3,3.6c0,0.3-0.5,0.7-0.8,0.8
		c-0.6,0.2-1.2,0.3-1.8,0.3c-2,0-4.1,0-6.1,0c-164.1,0-328.2,0-492.3,0c-1.8,0-3.6,0-5.5,0c-3.1-0.1-3.6-0.5-3.7-3.4
		c-0.1-2.8-0.5-5.6-0.9-8.4c-1.3-8.3-4.6-15.9-8.6-23.2c-2.9-5.4-7-9.9-11.4-14.1c-5-4.8-10.7-8.7-16.9-11.7c-0.7-0.3-1.3-0.9-2-1.3
		c-0.1-0.1-0.1-0.4,0-0.5c0-0.2,0.2-0.4,0.3-0.4c0.4-0.1,0.8-0.2,1.2-0.2c2,0,4.1,0,6.1,0c89.1,0,178.3,0,267.4,0
		c89.3,0,178.7,0,268,0c2.2,0,4.5,0.1,6.7,0.2c0.8,0,1.6,0.8,1.6,1.5c0.1,4.7,0.1,9.3,0.1,14C1538,769.6,1538.7,774.3,1538.7,778.9z
		 M1610.1,475.5c-2,0-4,0.1-6.1,0.1c-40.1,0-80.2,0-120.3,0c-2,0-4.1-0.3-6,0.4c-0.1,0.1-0.2,0.3-0.4,0.4c-0.3,0.4-0.3,0.8,0,1.1
		c0.4,0.4,0.9,0.8,1.4,1.1c1,0.6,2.1,1.2,3.2,1.7c17.9,9.1,35.7,18.1,53.6,27.2c1.1,0.5,2.2,1.1,3.1,1.8c0.4,0.3,0.9,1,0.9,1.5
		c0.1,2,0.2,4,0.2,6.1c0,38.3,0,76.6,0,114.9c0,5.1,0,10.1,0,15.2c0.1,7.8-0.9,6.1,5.8,9.7c18.6,9.9,37.3,19.6,55.9,29.4
		c0.9,0.5,1.8,0.9,2.7,1.4c0.7,0.4,1,1,0.8,1.4c-0.4,0.7-1,0.6-1.5,0.6c-1.8,0-3.6,0-5.5,0c-45.2,0-90.3,0-135.5,0c-2,0-4.1,0-6.1,0
		c-0.6,0-1.2,0.1-1.8,0.3c-0.3,0.1-0.6,0.5-0.7,0.8c-0.1,0.3,0.1,0.9,0.3,1.1c2,1,4,2,6,2.8c21,9,42.1,17.9,63.1,26.8
		c4.8,2.1,9.7,4.1,14.5,6.2c1.3,0.5,1.9,1.5,1.9,2.8c0,1.4-0.1,2.8-0.1,4.2c0,0.7-0.5,1.1-1.1,1.3c-0.8,0.2-1.6,0.2-2.4,0.3
		c-2.2,0-4.5,0-6.7,0c-300,0-600,0-900,0c-2.2,0-4.5-0.1-6.7,0c-8.5,0.4-12.1,4.7-12.7,12.5c-0.1,1.6,0,3.2,0,4.9
		c0,26.9,0,53.9,0,80.8c0,2,0,4-0.1,6.1c0,0.3-0.4,0.5-0.6,0.8c-0.1-0.2-0.3-0.3-0.3-0.5c-0.1-1.2-0.2-2.4-0.2-3.6
		c0-35.7,0-71.3,0-107c0-1.4,0.1-2.8,0.1-4.2c0.1-1,0.9-1.8,2-1.8c1.6-0.1,3.2-0.1,4.9-0.1c6.5,0,13,0,19.4,0c1.2,0,2.4-0.1,3.6-0.4
		c0.5-0.1,1-0.7,1.2-1.2c0.3-1,0.4-2,0.4-3c0-4.7,0-9.3,0-14c0-1.6,0-3.2,0.1-4.9c0.1-1.4,0.8-2.1,2.4-2.1c1.2,0,2.4,0,3.6,0
		c1,0,1.8,0.9,1.9,2c0.1,1.4,0.1,2.8,0.1,4.2c0,4.5,0,8.9,0,13.4c0,1.2,0.1,2.4,0.2,3.6c0.1,1,1,2,1.9,2.1c3.4,0.4,6.9,0.5,10.3,0
		c4.6-0.7,7.7-3.3,9-8c0.5-1.8,0.7-3.6,0.7-5.4c0-5.3,0-10.5,0-15.8c0-1.2,0-2.4,0.2-3.6c0.1-0.5,0.5-1.1,1.2-1.2
		c2.2-0.1,4.4-0.1,6.7-0.2c0.8,0,1.5-0.4,2.3-0.6c0.1,0,0.2-0.3,0.2-0.5c0.2-0.5,0.1-0.7-0.4-1c-1.3-0.6-2.8-0.4-4.2-0.4
		c-1.6-0.1-3.2-0.1-4.8-0.3c-0.3,0-0.7-0.5-0.9-0.8c-0.2-0.3-0.3-0.8-0.3-1.2c0-7.9,0-15.8,0-23.7c0-1.1,0.9-1.6,2.1-1.5
		c0.2,0,0.4,0,0.6,0.1c3.4,0.6,6.8,1.3,10.2,1.8c1.4,0.2,2.8,0.4,4.2,0.4c0.5,0,1.3-0.2,1.6-0.6c1.1-1.5,2.6-1.7,4.3-1.7
		c4.5,0,8.9,0,13.4,0c1.2,0,2.4-0.2,3.6-0.3c0.5-0.1,0.7-0.4,0.5-0.8c-0.2-0.3-0.4-0.8-0.6-0.9c-0.8-0.2-1.6-0.4-2.3-0.4
		c-3.8,0-7.7,0-11.5,0c-1.6,0-3.2,0-4.9-0.1c-0.6,0-1.3-0.3-1.6-0.7c-1.2-1.6-2.5-1.5-4.3-1.1c-4.4,0.8-8.8,1.4-13.2,2.1
		c-1.5,0.2-2.1-0.3-2.2-2c0-2.2,0-4.5,0-6.7c0-100.3,0-200.5,0-300.8c0-3.4-0.1-6.9-0.6-10.3c-1.6-11.5-6.6-21.2-15.3-28.8
		c-4.6-4.1-10-6.8-15.8-8.8c-3.3-1.1-6.6-1.9-10.1-1.8c-2.8,0.1-5.7,0-8.5-0.1c-1.2,0-2.4-0.1-3.6-0.2c-0.8-0.1-1.5-0.8-1.5-1.6
		c-0.1-0.8-0.1-1.6-0.1-2.4c-0.1-4.5-0.1-8.9-0.9-13.3c-0.2-1.2-0.2-2.4-0.2-3.6c0-15.8,0-31.6,0-47.4c0-0.2,0-0.4,0-0.6
		c0.1-3.9,0.4-4.3,4-4.3c2,0,4.1,0,6.1,0c91.4,0,182.7,0,274.1,0c59.6,0,119.1,0,178.7,0c150.9,0,301.8,0,452.8,0
		c2.4,0,4.9,0.1,7.3,0.1c1.1,0,1.9,0.9,1.9,1.9c0.1,1.8,0.1,3.6,0.1,5.5c0,20.5,0,40.9,0,61.4c0,3.2-0.4,6.5,0.9,9.6
		c0.3,0.7,0.2,1.6,0.2,2.4c0,1.6,0,3.2,0,4.9c0,42.1,0,84.3,0,126.4c0,8.4-1.2,6.6,6.6,10c20.1,8.6,40.2,17.2,60.3,25.8
		c1.3,0.6,2.5,1.3,3.8,1.9c0.1,0.1,0.2,0.3,0.3,0.5C1610.9,475.3,1610.7,475.5,1610.1,475.5z"/>
	<path d="M328.8,301.7c1.8-0.1,3.6-0.1,5.5-0.1c10.9,0,21.9,0,32.8,0c1.6,0,3.2,0,4.9-0.1c0.4,0,0.8-0.1,1.1-0.4
		c0.3-0.2,0.7-0.6,0.6-0.9c0-0.3-0.4-0.8-0.7-0.8c-1.6-0.2-3.2-0.4-4.8-0.4c-14.4,0-28.8,0-43.2,0c-2.4,0-4.9,0-7.3,0
		c-0.8,0-1.6,0.2-2.4,0.5c-0.2,0.1-0.4,0.6-0.5,1c0,0.1,0.2,0.4,0.3,0.5c0.5,0.2,1.1,0.6,1.7,0.6c2,0.1,4,0.1,6.1,0.2
		c2,0.1,2.7,0.8,2.4,2.5c-0.1,0.6-0.2,1.2-0.3,1.8c-0.7,4-1.4,8-2,12c-0.3,1.6-0.3,3.2,1.4,4.3c0.4,0.3,0.6,1.1,0.6,1.6
		c0.1,1.8,0.1,3.6,0.1,5.5c0,136.7,0,273.5,0,410.2c0,1.6,0,3.2,0,4.9c0,1-0.3,1.9-1.3,2.6c-0.7,0.5-1,1.3-0.9,2.1
		c0.6,4.2,1.1,8.4,2,12.6c1.2,5.8,0.8,5.7-4.8,5.7c-1.2,0-2.4,0-3.6,0.1c-0.4,0-0.8,0.2-1.1,0.4c-0.1,0.1-0.3,0.3-0.3,0.4
		c0.1,0.4,0.2,0.9,0.4,1c1,0.3,1.9,0.5,2.9,0.5c8.5,0,17,0,25.5,0c0,0,0,0,0,0c8.3,0,16.6,0,24.9,0c1.4,0,2.8-0.2,4.2-0.4
		c0.3,0,0.5-0.5,0.7-0.8c0.3-0.5,0.1-0.8-0.5-0.9c-1.6-0.2-3.2-0.4-4.8-0.4c-10.9,0-21.9,0-32.8,0c-1.6,0-3.2,0-4.9,0
		c-0.6,0-1.2-0.1-1.8-0.1c-1.1-0.1-1.9-0.9-1.7-2c0.9-5.4,1.8-10.8,2.7-16.2c0.1-0.9-0.1-1.6-0.9-2c-0.8-0.4-1.2-1.1-1.2-1.9
		c0-2.2-0.1-4.5-0.1-6.7c0-136.1,0-272.3,0-408.4c0-1.4,0-2.8,0-4.3c0-1.8-0.2-3.7,1.8-4.8c0.3-0.2,0.4-1.1,0.3-1.6
		c-0.8-5.2-1.7-10.4-2.6-15.6C327,302.6,327.7,301.7,328.8,301.7z"/>
	<path d="M1607.8,920.9c-2.4-0.8-4.8-0.3-7.2-0.4c-1.8-0.1-2.6-0.9-2.3-2.7c0.2-1.4,0.5-2.8,0.7-4.2c0.6-3.8,1.2-7.6,1.8-11.4
		c0.1-0.8-0.2-1.6-1-2.1c-0.8-0.5-1.2-1.1-1.2-1.9c0-2-0.1-4-0.1-6.1c0-41.3,0-82.6,0-123.9c0-1.6,0-3.2,0-4.9
		c0-1.5,0.1-2.8,1.6-3.6c0.4-0.2,0.6-1,0.6-1.6c0.1-0.8,0-1.6-0.2-2.4c-0.6-3.4-1.2-6.8-1.8-10.2c-0.2-1.4-0.4-2.8-0.5-4.2
		c-0.1-0.8,0.7-1.5,1.5-1.6c1.6-0.1,3.2-0.1,4.9-0.1c1,0,2-0.1,3-0.3c0.3,0,0.6-0.5,0.7-0.8c0-0.3-0.2-0.9-0.5-1
		c-0.7-0.3-1.5-0.4-2.3-0.4c-19,0-38.1,0-57.1,0c-0.6,0-1.2,0.1-1.8,0.3c-0.3,0.1-0.5,0.5-0.7,0.9c-0.3,0.5-0.1,0.9,0.4,0.9
		c1.4,0.2,2.8,0.4,4.2,0.4c13,0,25.9,0,38.9,0c1.8,0,3.6,0.1,5.5,0.1c0.8,0,1.6,0.9,1.5,1.6c-0.8,5-1.6,10-2.4,15
		c-0.3,1.7-0.5,3.2,1.4,4.1c0.4,0.2,0.5,1,0.6,1.6c0.1,1.8,0.1,3.6,0.1,5.5c0,20.8,0,41.7,0,62.5c0,20.8,0,41.7,0,62.5
		c0,1.8,0,3.6-0.1,5.5c0,0.6-0.2,1.4-0.6,1.6c-1.9,1-1.7,2.5-1.3,4.1c0.7,3.4,1.3,6.8,1.8,10.1c0.2,1.4,0.4,2.8,0.5,4.2
		c0.1,1.2-0.5,2.1-1.6,2.1c-1.8,0.1-3.6,0.1-5.5,0.1c-12.3,0-24.7,0-37,0c-1.8,0-3.6,0.1-5.4,0.2c-0.3,0-0.6,0.5-0.7,0.8
		c-0.2,0.4,0.5,1.3,0.9,1.4c0.4,0,0.8,0.1,1.2,0.1c19.2,0,38.5,0,57.7,0c0.6,0,1.2-0.1,1.8-0.3c0.2,0,0.4-0.2,0.5-0.4
		c0.1-0.1,0.2-0.3,0.2-0.5C1608.4,921.4,1608.3,921.1,1607.8,920.9z"/>
	<path d="M500.9,156.3c-0.7-0.7-1.3-1.6-2-2.2c-0.2-0.2-0.8-0.2-1.1-0.2c-0.5,0.1-1,0.9-0.9,1.4c0.2,0.6,0.3,1.2,0.6,1.7
		c1.6,2.6,4.1,3.1,6.8,2.9c2.2-0.2,3.9-1.2,5-3c1.4-2.1,1.8-4.4,1-6.9c-0.9-2.6-3-4.4-5.7-4.6c-1-0.1-2,0-3,0
		c-0.4,0-0.9-0.9-0.8-1.4c0.3-1.6,1-2.4,2.2-2.4c1.8-0.1,3.6-0.1,5.4-0.3c0.4,0,1-0.8,1.1-1.2c0-0.4-0.5-1.2-0.9-1.3
		c-1.4-0.3-2.8-0.4-3.1-0.4c-6,0.1-6.9-0.4-7.6,5.5c-0.2,1.6-0.5,3.2-0.7,4.8c-0.1,0.7,1.1,1.5,1.7,1.3c1.1-0.5,2.2-1.1,3.3-1.5
		c1.8-0.7,4.3,0.4,5,2.3c0.8,2,0.5,4-1,5.6C504.9,157.7,502.4,157.8,500.9,156.3z"/>
	<path d="M486.5,159.9c1.9,0,3.6-0.2,5.1-1.5c1.9-1.7,2.9-3.9,2.8-6.4c-0.1-3.4-2.6-6.1-6-6.6c-1-0.1-2,0-3-0.2
		c-0.3,0-0.6-0.5-0.7-0.9c-0.3-1.7,0.6-2.7,2.2-2.8c1.8-0.1,3.6-0.2,5.4-0.4c0.5,0,0.7-0.4,0.7-0.9c0.1-0.7-0.2-1.3-0.6-1.5
		c-1.3-0.6-2.8-0.4-3.6-0.4c-1.6,0-2.6,0-3.6,0c-2,0.1-2.6,0.5-3,2.3c-0.4,1.8-0.8,3.5-1.1,5.3c-0.2,1.2-0.7,2.5,0.3,3.5
		c1.2,1.1,2.2-0.2,3.2-0.6c0.4-0.2,0.7-0.4,1.1-0.5c2-0.7,5.2,0.7,5.2,3.5c0,1,0,2.1-0.3,3c-1.1,3.1-4.7,3.4-6.3,1.6
		c-0.5-0.6-0.9-1.3-1.4-1.9c-0.5-0.6-1.4-0.6-2.2-0.2c-0.5,0.3-0.6,1-0.3,1.6C481.5,158.4,483.5,159.8,486.5,159.9z"/>
	<path d="M305.2,525.5c3.2,0.6,6.4,0.5,9.7,0c1.4-0.2,2.7-0.9,3.8-1.7c1.2-0.9,1.9-2.1,2.1-3.6c0.1-0.8,0.1-1.6,0-2.4
		c-0.1-1.7-1-3.1-2.4-4c-1.2-0.8-2.4-1.4-3.9-1.6c-1.4-0.1-2.8-0.2-4.5-0.4c-1.4,0.1-3,0.2-4.6,0.4c-1.5,0.1-2.7,0.8-3.9,1.6
		c-1.8,1.2-3.5,4.5-2,7.6C300.8,523.8,302.7,525.1,305.2,525.5z M303.1,516.4c1-0.6,2.2-1,3.3-1.3c1.2-0.3,2.4-0.2,3.6-0.2
		c2.2,0,4.4,0,6.4,1.2c1.1,0.6,1.8,1.6,1.8,2.9c0,1.3-0.6,2.3-1.8,2.9c-0.3,0.2-0.7,0.4-1.1,0.5c-3.8,1.1-7.5,1.1-11.2-0.2
		c-0.4-0.1-0.7-0.3-1.1-0.5C301.5,520.5,301.4,517.3,303.1,516.4z"/>
	<path d="M1591.3,818.6c-1.8-3.5-5.6-4.9-9.2-3.1c-0.9,0.4-1.7,1.3-2.6,1.4c-0.9,0.1-1.8-0.7-2.8-0.9c-2.5-0.6-5,0.7-6,3
		c-0.4,0.9-0.5,1.9-0.6,2.4c-0.1,3.6,1.1,5.4,3.9,6.7c0.5,0.2,1.2,0.1,1.6-0.4c0.4-0.4,0.4-1.3,0-1.6c-0.8-0.7-1.6-1.2-2.3-2
		c-1.2-1.3-0.9-3.7,0.6-4.8c1.4-1,3.2-0.6,4.1,1c0.5,0.8,0.9,1.8,1.4,2.6c0.1,0.1,0.3,0.1,0.5,0.2c0.4,0.1,0.8,0,0.9-0.5
		c0.3-0.9,0.5-2,0.9-2.8c1.2-2.3,4.3-2.7,6.2-0.8c1.6,1.5,1.7,3.8,0.3,5.4c-0.8,0.9-2.1,1.3-2.5,2.5c-0.1,0.3,0.5,1.5,0.8,1.5
		c0.4,0,0.8,0,1.2-0.1C1591.8,826.8,1592.9,821.7,1591.3,818.6z"/>
	<path d="M1585.9,831.8c-0.1-0.1-0.4-0.2-0.7-0.4c-0.4,0.3-1.1,0.5-1.2,0.9c-0.5,1.2-1.3,1.9-2.7,1.9c-2.6,0-5.2,0-7.8,0
		c-0.8,0-1.6,0.2-2.4,0.3c-0.4,0.1-0.9,1.1-0.6,1.5c0.3,0.5,0.6,1.1,1,1.4c3.9,2.8,7.9,5.6,11.8,8.3c0.3,0.2,0.7,0.3,1.1,0.5
		c0.6,0.3,1.8-0.4,1.9-1c0.1-0.4,0.2-0.8,0.2-1.2c0.1-1.4,0.1-2.8,0.1-4.2c0.1-1.9,0.5-2.3,2.4-2.7c0.6-0.1,1.2-0.2,1.7-0.5
		c0.3-0.1,0.5-0.6,0.5-1c0-0.3-0.2-0.8-0.5-1C1588.8,833.8,1586.8,832.7,1585.9,831.8z M1582.3,841.9c-1.6-1.1-3.2-2.3-4.9-3.5
		c-0.1-0.1-0.1-0.4-0.2-0.5c-0.1-0.5,0.2-0.8,0.7-0.8c0.8,0,1.6-0.1,2.6-0.2c0.6,0.1,1.4,0.1,2.2,0.3c0.3,0.1,0.7,0.5,0.7,0.8
		c0.1,1,0.1,2,0.2,3C1583.6,841.6,1582.7,842.2,1582.3,841.9z"/>
	<path d="M320.3,550.1c-0.1-0.7-0.5-1.1-1.1-1.2c-0.8-0.1-1.6-0.1-2.4-0.1c-2.2,0-4.5,0-6.7,0c0,0,0-0.1,0-0.1
		c-3.2,0.1-6.5,0.1-9.7,0.3c-0.3,0-0.7,0.4-0.9,0.7c-0.1,0.3-0.2,0.9,0,1.1c1.4,1.7,3.1,3.2,4.3,5.1c0.4,0.7,1.1,1.2,2,1
		c0.7-0.2,0.8-0.8,0.2-2.5c-0.1-0.2-0.1-0.4-0.2-0.6c-0.3-0.8,0.2-1.7,1-1.8c2.2-0.1,4.4-0.1,6.7-0.1c1.8,0,3.6-0.1,5.5-0.2
		C319.7,551.7,320.4,550.9,320.3,550.1z"/>
	<path d="M306.1,535.6c1.8-0.1,3.6-0.2,5.4-0.3c2.6-0.1,5.2-0.1,7.9-0.2c0.5,0,1.1-0.8,1-1.3c-0.2-0.6-0.4-1.1-1.1-1.2
		c-0.8-0.1-1.6-0.3-2.4-0.3c-2.2,0-4.4,0-6.7,0c0,0,0,0.1,0,0.1c-3,0-6.1,0-9.1,0c-0.5,0-1.3,0.4-1.5,0.8c-0.2,0.4,0,1.2,0.4,1.6
		c1.5,1.4,2.8,2.9,3.9,4.6c0.3,0.4,1,0.6,1.5,0.8c0.6,0.2,1.3-0.4,1.2-0.9c-0.3-0.9-0.8-1.9-1.1-2.8
		C305.4,536.2,305.9,535.6,306.1,535.6z"/>
	<path d="M667.2,307.9c-3-3-6-5.9-9.1-8.8c-0.7-0.7-1.7-1.1-2.6-0.9c-1.3,0.1-2.2,1.8-1.6,2.8c0.3,0.5,0.6,1.1,1,1.5
		c3.4,3.4,6.9,6.7,10.3,10.1c0.6,0.5,1.2,1,1.9,1.4c0.5,0.2,1.2,0.2,1.7,0c1.2-0.3,1.8-2,1.1-2.9C669.1,310,668.2,308.9,667.2,307.9
		z"/>
	<path d="M587.8,648.4c0,0,0.2,0.2,0.2,0.2c0-0.1,0-0.1,0-0.2C588,648.4,587.9,648.4,587.8,648.4z"/>
	<path d="M594.5,648.4c0.8,0,1.6,0.1,2.3,0.5c1.1,0.5,0.6,1.8,0.9,2.7c0.1,0.4,0.2,0.8,0.5,1.1c0.2,0.2,0.7,0.3,1,0.4
		c0.2,0,0.4-0.1,0.5-0.2c0.3-0.5,0.6-1.1,0.6-1.6c0-1.6,0.6-2.6,2.1-3.2c0.8-0.3,0.9-1.5,0.1-1.9c-1.7-0.8-2.3-2-2.2-3.9
		c0.1-2.6,0-5.2,0-7.9c0-0.6-0.2-1.2-0.3-1.8c-0.1-0.4-1.2-0.8-1.5-0.5c-0.5,0.4-1,0.7-1.4,1.1c-2.6,3.6-5.1,7.3-7.7,10.8
		c-1,1.3-1.2,2.8-1.3,4.3C590.2,648.4,592.3,648.3,594.5,648.4z M592.7,644.1c1.1-1.7,2.2-3.3,3.3-4.9c0.2-0.2,0.7-0.2,1.1-0.2
		c0.1,0,0.3,0.2,0.3,0.4c0.1,0.8,0.2,1.6,0.2,2.3c-0.1,0.9-0.1,1.7-0.2,2.4c-0.1,0.7-0.8,1.4-1.7,1.5c-0.8,0.1-1.6,0-2.4-0.1
		C592.9,645.4,592.4,644.5,592.7,644.1z"/>
	<path d="M1341,822.1c-0.2-0.1-0.8,0.1-1.1,0.3c-5.9,5.8-11.7,11.6-17.6,17.5c-0.3,0.3-0.4,0.7-0.6,1c0,0.1,0.1,0.3,0.2,0.4
		c0.1,0.1,0.3,0.2,0.5,0.2c0.2,0,0.5,0,0.6-0.1c6-6,12-12,17.9-18C1341.4,823.1,1341.8,822.5,1341,822.1z"/>
</g>
</svg>
