<?xml version="1.0" encoding="utf-8"?>
<!-- Generator: Adobe Illustrator 25.0.0, SVG Export Plug-In . SVG Version: 6.00 Build 0)  -->
<svg version="1.1" id="Layer_1" xmlns="http://www.w3.org/2000/svg" xmlns:xlink="http://www.w3.org/1999/xlink" x="0px" y="0px"
	 viewBox="0 0 165 360" style="enable-background:new 0 0 165 360;" xml:space="preserve">
<g>
	<path d="M0,179.8C0,121.5,0,63.1,0,4.8C0,3.8,0,2.9,0,2c0-0.3,0.1-0.6,0.2-0.8c0.2-0.6,0.7-0.9,1.2-1.1C1.8,0,2.2,0,2.5,0
		c0.7,0,1.4,0,2.1,0c51.9,0,103.8,0,155.7,0c0.7,0,1.4,0,2.1,0c0.4,0,0.7,0,1,0.1c0.6,0.2,1,0.5,1.2,1.1c0.1,0.3,0.2,0.7,0.2,1
		c0,0.8,0,1.6,0,2.3c0,117,0,234,0,351c0,0.7,0,1.4,0,2.1c0,0.4-0.1,0.7-0.2,1c-0.2,0.5-0.5,0.9-1,1c-0.4,0.1-0.8,0.2-1.2,0.3
		c-0.6,0.1-1.3,0-1.9,0c-52.2,0-104.4,0-156.6,0c-0.6,0-1.1,0-1.7,0c-0.4,0-0.7-0.1-1-0.2c-0.7-0.2-1.1-0.7-1.2-1.3
		C0,358.1,0,357.8,0,357.4c0-0.8,0-1.7,0-2.5C0,296.5,0,238.2,0,179.8z M10,183c0,56.4,0,112.9,0,169.3c0,0.7,0,1.4,0,2.1
		c0,1.9,0.2,2.1,2.1,2.1c3.7,0,7.5,0,11.2,0c0.2,0,0.4,0,0.6,0c1.1-0.1,1.4-0.4,1.5-1.4c0-0.8,0-1.6,0-2.3c0-113,0-226,0-339.1
		c0-0.6,0-1.1,0-1.7c0-1.8-0.3-2.1-2.1-2.1c-3.7,0-7.5,0-11.2,0c-0.1,0-0.3,0-0.4,0c-1.4,0-1.6,0.3-1.7,1.6c0,0.8,0,1.6,0,2.3
		C10,70.3,10,126.6,10,183z M155,183.2c0-56.3,0-112.6,0-168.9c0-0.8,0-1.6,0-2.3c0-1.9-0.3-2-2.1-2c-3.6,0-7.2,0-10.8,0
		c-0.4,0-0.7,0-1.1,0c-0.6,0.1-1,0.4-1.1,1.1c0,0.8-0.1,1.6-0.1,2.3c0,53.8,0,107.5,0,161.3c0,0.6,0,1.3,0,1.9
		c0,0.3,0.1,0.6,0.1,0.8c0.1,0.3,0.4,0.7,0.7,0.7c1.4,0.1,2.8,0.2,4.1-0.7c1.2-0.9,2.6-0.9,4.1-0.4c1.4,0.4,2.3,1.4,2.9,2.6
		c0.6,1.1,0.6,2.3,0.2,3.5c-0.5,1.7-1.6,2.8-3.3,3.2c-1.2,0.3-2.4,0.3-3.5-0.3c-0.3-0.2-0.6-0.4-0.9-0.5c-0.3-0.2-0.7-0.3-1-0.4
		c-0.8-0.1-1.6,0-2.3,0c-0.5,0-0.9,0.4-1,1c-0.1,0.9-0.1,1.8-0.1,2.7c0,54.6,0,109.2,0,163.8c0,0.6,0,1.1,0,1.7c0,0.3,0,0.6,0,0.8
		c0.1,0.7,0.4,1.1,1.1,1.1c0.4,0,0.8,0.1,1.3,0.1c3.5,0,6.9,0,10.4,0c0.4,0,0.7,0,1.1,0c0.8-0.1,1.2-0.4,1.2-1.2c0-0.8,0-1.7,0-2.5
		C155,296.3,155,239.7,155,183.2z M82.3,323c16.7,0,33.5,0,50.2,0c0.6,0,1.1,0,1.7,0c2.1,0,2.2-0.1,2.2-2.3c0-8.8,0-17.6,0-26.5
		c0-0.5,0-1-0.1-1.5c0-0.4-0.4-0.8-0.8-0.8c-0.8-0.1-1.6-0.1-2.3-0.1c-33.8,0-67.5,0-101.3,0c-0.6,0-1.1,0-1.7,0
		c-1.2,0-1.5,0.4-1.6,1.5c0,0.2,0,0.4,0,0.6c0,9,0,17.9,0,26.9c0,0.4,0,0.8,0.1,1.3c0,0.4,0.4,0.8,0.8,0.8c0.8,0,1.6,0.1,2.3,0.1
		C48.7,323,65.5,323,82.3,323z M82.5,186.5c-8.3,0-16.7,0-25,0c-8.6,0-17.2,0-25.8,0c-0.7,0-1.4,0-2.1,0.1c-0.4,0-0.8,0.4-0.8,0.8
		c0,0.6-0.1,1.3-0.1,1.9c0,8.4,0,16.8,0,25.2c0,0.6,0,1.1,0.1,1.7c0,0.6,0.4,1,0.9,1c0.8,0,1.6,0.1,2.3,0.1c33.7,0,67.4,0,101,0
		c0.6,0,1.1,0,1.7,0c0.3,0,0.6,0,0.8-0.1c0.4-0.1,0.8-0.4,0.8-0.8c0-0.6,0.1-1.3,0.1-1.9c0-8.4,0-16.8,0-25.2c0-0.6,0-1.1-0.1-1.7
		c0-0.6-0.4-1-0.9-1c-0.8,0-1.6-0.1-2.3-0.1C116.3,186.5,99.4,186.5,82.5,186.5z M82.6,59.3c16.7,0,33.5,0,50.2,0c0.7,0,1.4,0,2.1,0
		c0.3,0,0.6-0.1,0.8-0.1c0.3-0.1,0.5-0.3,0.6-0.6c0.1-0.6,0.1-1.1,0.1-1.7c0-8.7,0-17.4,0-26c0-0.4,0-0.7,0-1.1
		c-0.1-0.8-0.4-1.2-1.2-1.2c-0.8,0-1.7,0-2.5,0c-33.5,0-66.9,0-100.4,0c-0.6,0-1.3,0-1.9,0c-0.3,0-0.6,0-0.8,0.1
		c-0.4,0.1-0.8,0.4-0.8,0.8c0,0.6-0.1,1.3-0.1,1.9c0,8.4,0,16.8,0,25.2c0,0.5,0,1,0,1.5c0,0.8,0.4,1.2,1.2,1.2c0.8,0,1.6,0,2.3,0
		C49,59.3,65.8,59.3,82.6,59.3z M82.5,81.1c-16.7,0-33.5,0-50.2,0c-0.7,0-1.4,0-2.1,0c-0.3,0-0.6,0-0.8,0.1
		c-0.3,0.1-0.5,0.3-0.6,0.6c-0.1,0.4-0.1,0.8-0.1,1.3c0,8.9,0,17.8,0,26.7c0,0.3,0,0.6,0,0.8c0.1,0.8,0.4,1.2,1.2,1.2
		c0.7,0,1.4,0,2.1,0c33.7,0,67.4,0,101,0c0.6,0,1.1,0,1.7,0c0.3,0,0.6,0,0.8-0.1c0.4-0.1,0.8-0.4,0.8-0.8c0-0.6,0.1-1.3,0.1-1.9
		c0-8.4,0-16.8,0-25.2c0-0.6,0-1.1-0.1-1.7c0-0.6-0.4-1-0.9-1c-0.8,0-1.6-0.1-2.3-0.1C116.3,81.1,99.4,81.1,82.5,81.1z M82.6,164.7
		c16.7,0,33.5,0,50.2,0c0.7,0,1.4,0,2.1,0c0.3,0,0.6,0,0.8-0.1c0.3-0.1,0.5-0.3,0.6-0.6c0.1-0.6,0.1-1.3,0.1-1.9
		c0-8.5,0-16.9,0-25.4c0-0.4,0-0.9,0-1.3c-0.1-1.1-0.4-1.5-1.6-1.5c-0.7,0-1.4,0-2.1,0c-33.5,0-66.9,0-100.4,0c-0.6,0-1.3,0-1.9,0
		c-0.3,0-0.6,0-0.8,0.1c-0.4,0.1-0.8,0.4-0.8,0.8c0,0.6-0.1,1.3-0.1,1.9c0,8.4,0,16.8,0,25.2c0,0.4,0,0.9,0,1.3
		c0,1.1,0.3,1.4,1.4,1.5c0.7,0,1.4,0,2.1,0C49,164.7,65.8,164.7,82.6,164.7z M82.6,239c-11.7,0-23.4,0-35.2,0c-5.5,0-11,0-16.5,0
		c-2.1,0-2.3,0.1-2.3,2.3c0,8.7,0,17.4,0,26c0,0.4,0,0.7,0,1.1c0.1,0.9,0.4,1.3,1.3,1.4c0.8,0,1.6,0,2.3,0c33.5,0,66.9,0,100.4,0
		c0.7,0,1.4,0,2.1,0c0.3,0,0.6-0.1,0.8-0.1c0.3-0.1,0.7-0.4,0.7-0.7c0.1-0.6,0.1-1.1,0.1-1.7c0-8.6,0-17.2,0-25.8c0-0.4,0-0.9,0-1.3
		c0-0.7-0.4-1.1-1.1-1.1c-0.8,0-1.6,0-2.3,0C116.2,239,99.4,239,82.6,239z M82.5,356.5c16.7,0,33.5,0,50.2,0c0.7,0,1.4,0,2.1,0
		c0.3,0,0.6-0.1,0.8-0.1c0.3,0,0.7-0.4,0.7-0.7c0-0.5,0.1-1,0.1-1.5c0-8.5,0-16.9,0-25.4c0-0.4,0-0.7,0-1.1c0-0.1-0.1-0.3-0.1-0.4
		c-0.1-0.3-0.4-0.7-0.7-0.7c-0.8-0.1-1.5-0.1-2.3-0.1c-33.8,0-67.6,0-101.4,0c-0.6,0-1.3,0-1.9,0c-0.2,0-0.4,0.1-0.6,0.1
		c-0.3,0.1-0.5,0.3-0.6,0.6c-0.1,0.2-0.1,0.4-0.1,0.6c0,0.6,0,1.1,0,1.7c0,8,0,15.9,0,23.9c0,0.7,0,1.4,0.1,2.1
		c0,0.4,0.4,0.8,0.9,0.8c0.8,0,1.6,0.1,2.3,0.1C48.8,356.5,65.7,356.5,82.5,356.5z M82.6,235.8c6.4,0,12.9,0,19.3,0
		c10.5,0,21,0,31.6,0c0.7,0,1.4,0,2.1-0.1c0.4,0,0.8-0.4,0.9-0.8c0-0.4,0.1-0.8,0.1-1.3c0-3.6,0-7.2,0-10.8c0-0.2,0-0.4,0-0.6
		c-0.1-1.1-0.4-1.5-1.6-1.5c-0.7,0-1.4,0-2.1,0c-33.5,0-66.9,0-100.4,0c-0.6,0-1.3,0-1.9,0c-0.3,0-0.6,0-0.8,0.1
		c-0.4,0.1-0.8,0.4-0.9,0.8c0,0.5-0.1,1-0.1,1.5c0,3.5,0,6.9,0,10.4c0,0.2,0,0.4,0,0.6c0,1.4,0.3,1.6,1.6,1.7c0.7,0,1.4,0,2.1,0
		C49.1,235.8,65.8,235.8,82.6,235.8z M82.5,115.4c-16.7,0-33.5,0-50.2,0c-0.7,0-1.4,0-2.1,0c-0.3,0-0.6,0-0.8,0.1
		c-0.3,0.1-0.5,0.3-0.6,0.6c-0.1,0.4-0.1,0.8-0.1,1.3c0,3.7,0,7.5,0,11.2c0,0.3,0,0.6,0,0.8c0.1,0.6,0.4,0.9,0.9,1
		c0.8,0,1.6,0.1,2.3,0.1c33.7,0,67.3,0,101,0c0.6,0,1.3,0,1.9,0c0.3,0,0.6-0.1,0.8-0.1c0.3-0.1,0.5-0.3,0.6-0.6
		c0.1-0.4,0.1-0.8,0.1-1.3c0-3.7,0-7.5,0-11.2c0-0.4,0-0.7-0.1-1.1c0-0.3-0.4-0.7-0.7-0.7c-0.8-0.1-1.7-0.1-2.5-0.1
		C116.3,115.4,99.4,115.4,82.5,115.4z M82.6,10c-16.7,0-33.3,0-50,0c-0.6,0-1.3,0-1.9,0c-0.3,0-0.6,0-0.8,0c-0.8,0-1.1,0.4-1.1,1.2
		c0,0.2,0,0.4,0,0.6c0,3.7,0,7.5,0,11.2c0,0.4,0,0.7,0.1,1.1c0,0.4,0.4,0.8,0.9,0.8c0.8,0.1,1.6,0.1,2.3,0.1c33.7,0,67.5,0,101.2,0
		c0.5,0,1,0,1.5,0c1.5,0,1.8-0.3,1.8-1.7c0-0.1,0-0.3,0-0.4c0-3.6,0-7.2,0-10.8c0-0.4,0-0.8-0.1-1.3c0-0.4-0.4-0.8-0.9-0.8
		c-0.8,0-1.6-0.1-2.3-0.1C116.3,10,99.4,10,82.6,10z M82.7,273.3c-7.6,0-15.2,0-22.9,0c-9.4,0-18.8,0-28.2,0c-0.7,0-1.4,0-2.1,0.1
		c-0.4,0-0.8,0.4-0.9,0.8c0,0.5-0.1,1-0.1,1.5c0,3.5,0,6.9,0,10.4c0,0.3,0,0.6,0,0.8c0,1.1,0.4,1.4,1.4,1.5c0.8,0,1.6,0,2.3,0
		c33.5,0,66.9,0,100.4,0c0.6,0,1.3,0,1.9,0c0.3,0,0.6,0,0.8-0.1c0.4-0.1,0.8-0.4,0.9-0.8c0-0.5,0.1-1,0.1-1.5c0-3.5,0-6.9,0-10.4
		c0-0.4,0-0.7,0-1.1c0-0.8-0.4-1.2-1.2-1.2c-0.8,0-1.6,0-2.3,0C116.2,273.3,99.5,273.3,82.7,273.3z M82.6,77.8c16.8,0,33.6,0,50.4,0
		c0.7,0,1.4,0,2.1,0c0.2,0,0.4-0.1,0.6-0.1c0.3-0.1,0.5-0.3,0.6-0.6c0.1-0.5,0.1-1,0.1-1.5c0-3.5,0-7.1,0-10.6c0-0.4,0-0.8-0.1-1.3
		c-0.1-0.5-0.4-0.9-1-1c-0.8-0.1-1.7-0.1-2.5-0.1c-33.6,0-67.2,0-100.8,0c-0.6,0-1.3,0-1.9,0c-0.3,0-0.6,0.1-0.8,0.1
		c-0.3,0.1-0.5,0.3-0.6,0.6c-0.1,0.5-0.1,1-0.1,1.5c0,3.5,0,7.1,0,10.6c0,0.4,0,0.8,0.1,1.3c0.1,0.5,0.5,0.9,1,1
		c0.8,0,1.6,0.1,2.3,0.1C48.9,77.8,65.8,77.8,82.6,77.8z M82.6,167.9c-16.7,0-33.5,0-50.2,0c-0.7,0-1.4,0-2.1,0
		c-1.3,0-1.6,0.3-1.6,1.7c0,3.9,0,7.8,0,11.6c0,0.3,0,0.6,0.1,0.8c0.1,0.4,0.4,0.8,0.8,0.8c0.8,0.1,1.7,0.1,2.5,0.1
		c31.3,0,62.6,0,93.8,0c0.6,0,1.3,0,1.9,0c0.2,0,0.4-0.1,0.6-0.1c0.1,0,0.2-0.2,0.3-0.3c0.1-0.2,0.1-0.4,0.1-0.6
		c0.1-1.9,0.9-2.9,2.6-3.4c0.5-0.1,1-0.2,1.5-0.2c0.6,0,1.3,0,1.9,0c1.3,0,1.6-0.3,1.6-1.6c0-2.4,0-4.8,0-7.2c0-0.2,0-0.4-0.1-0.6
		c-0.1-0.4-0.4-0.8-0.8-0.8c-0.8,0-1.6-0.1-2.3-0.1C116.3,167.9,99.5,167.9,82.6,167.9z M161.5,181.1c0-57,0-114,0-171
		c0-0.8,0-1.6,0-2.3c0-0.3,0-0.6-0.1-0.8c0-0.1-0.2-0.3-0.3-0.3c-0.1,0-0.3,0-0.4,0.1c-0.7,0.6-1.3,1.3-2,1.9
		c-0.3,0.3-0.5,0.7-0.5,1.2c0,0.8,0,1.6,0,2.3c0,113.6,0,227.3,0,340.9c0,0.7,0,1.4,0,2.1c0,0.2,0.1,0.4,0.1,0.6
		c0.1,0.3,0.3,0.5,0.6,0.6c0.5,0.1,1,0.1,1.5,0.1c0.5,0,0.9-0.4,1-1c0.1-0.9,0.1-1.8,0.1-2.7C161.5,295.5,161.5,238.3,161.5,181.1z
		 M3.5,180.9c0,57.1,0,114.2,0,171.3c0,0.9,0,1.7,0,2.5c0,1.5,0.4,1.8,1.9,1.8c0.8,0,1.2-0.4,1.2-1.1c0-0.9,0-1.8,0-2.8
		c0-113.2,0-226.5,0-339.7c0-0.8,0-1.6,0-2.3c0-0.3,0-0.6-0.1-0.8C6.6,9.4,6.5,9.1,6.4,8.9C5.7,8.1,5,7.3,4.1,6.7
		C4,6.6,3.6,6.7,3.6,6.9c0,0.9-0.1,1.8-0.1,2.7C3.5,66.7,3.5,123.8,3.5,180.9z M82.6,3.5c-24.2,0-48.4,0-72.6,0c-0.7,0-1.4,0-2.1,0
		c-0.3,0-0.6,0-0.8,0.1c-0.1,0-0.3,0.1-0.3,0.2c-0.1,0.1-0.1,0.3,0,0.4C7.3,4.8,7.9,5.4,8.5,6c0.5,0.5,1.1,0.7,1.7,0.7
		c0.8,0,1.7,0,2.5,0c46.4,0,92.7,0,139.1,0c0.7,0,1.4,0,2.1,0c0.4,0,0.7,0,1.1,0c0.5,0,1-0.2,1.3-0.6c0.7-0.6,1.3-1.3,1.9-1.9
		c0,0,0.1-0.1,0.1-0.2c0-0.1-0.1-0.3-0.2-0.3c-0.8-0.3-1.5-0.1-2.3-0.1C131.5,3.5,107,3.5,82.6,3.5z"/>
	<path d="M152.3,196.7c-0.1,1.8-0.8,3.4-2.3,4.4c-2,1.3-4.7,1-6.2-0.7c-0.8-1-1.2-2-1.4-3.2c-0.1-0.6,0.1-1.1,0.2-1.7
		c0.4-2.5,3.5-4.2,5.9-3.5c0.7,0.2,1.5,0.5,2.1,1C151.8,194,152.2,195.3,152.3,196.7z"/>
</g>
</svg>
