<?xml version="1.0" encoding="utf-8"?>
<!-- Generator: Adobe Illustrator 25.0.0, SVG Export Plug-In . SVG Version: 6.00 Build 0)  -->
<svg version="1.1" id="Layer_1" xmlns="http://www.w3.org/2000/svg" xmlns:xlink="http://www.w3.org/1999/xlink" x="0px" y="0px"
	 viewBox="0 0 165 360" style="enable-background:new 0 0 165 360;" xml:space="preserve">
<g>
	<path d="M147.1,201.7c-1.4-0.1-2.7-0.4-3.7-1.6c-1-1.3-1.5-2.7-1.1-4.3c0.3-1.2,0.8-2.1,1.7-2.8c0.4-0.3,0.8-0.6,1.3-0.7
		c2.3-0.8,4.3-0.1,5.9,1.6c0.3,0.3,0.5,0.7,0.6,1.1c0.1,0.3,0.2,0.7,0.3,1c0.2,0.6,0.2,1.2,0,1.9c-0.3,1.1-0.7,1.9-1.6,2.6
		C149.5,201.2,148.5,201.7,147.1,201.7z"/>
	<path d="M165,355c0-116.7,0-233.3,0-350c0-0.6,0-1.3,0-1.9c0-0.4,0-0.9-0.1-1.3c-0.2-1.2-0.8-1.8-2-1.8c-0.8,0-1.7,0-2.5,0
		C108.5,0,56.6,0,4.7,0C4,0,3.3,0,2.6,0C2.3,0,1.9,0,1.6,0.1C0.9,0.2,0.4,0.6,0.2,1.3C0.1,1.6,0,2,0,2.3c0,0.9,0,1.8,0,2.7
		c0,58.3,0,116.5,0,174.8s0,116.5,0,174.8c0,0.8,0,1.6,0,2.3c0,0.4,0,0.7,0.1,1.1c0.1,1.1,0.8,1.8,1.9,1.9c0.9,0.1,1.8,0.1,2.7,0.1
		c51.9,0,103.8,0,155.6,0c0.7,0,1.4,0,2.1,0c0.3,0,0.6,0,0.8-0.1c0.7-0.2,1.3-0.6,1.5-1.3c0.1-0.5,0.2-1,0.2-1.5
		C165,356.4,165,355.7,165,355z M6.8,92.4c0,86.7,0,173.4,0,260c0,1,0,2-0.1,3c0,0.5-0.4,0.9-0.9,1c-0.4,0-0.7,0.1-1.1,0
		c-0.7,0-1.1-0.5-1.2-1.2c0-0.4,0-0.8,0-1.3c0-0.8,0-1.6,0-2.3c0-56.8,0-113.7,0-170.5c0-57.2,0-114.4,0-171.6c0-0.8,0-1.7,0.1-2.5
		c0-0.1,0.1-0.3,0.2-0.3c0.1-0.1,0.3,0,0.4,0c0.1,0,0.1,0.1,0.2,0.1c0.1,0,0.1,0.1,0.2,0.1C7,9.4,6.8,8.8,6.8,12
		C6.8,38.8,6.8,65.6,6.8,92.4z M25.3,14.2c0,112.8,0,225.7,0,338.5c0,0.9,0,1.8-0.1,2.7c0,0.5-0.4,0.9-0.9,1
		c-0.4,0.1-0.8,0.1-1.3,0.1c-3.5,0-7,0-10.6,0c-0.4,0-0.7,0-1.1-0.1c-0.7-0.1-1.1-0.5-1.1-1.1c0-0.4-0.1-0.7-0.1-1.1
		c0-0.7,0-1.4,0-2.1c0-56.3,0-112.7,0-169.1c0-56.3,0-112.7,0-169.1c0-0.9,0-1.8,0.1-2.7c0-0.5,0.4-0.9,0.9-1
		c0.4-0.1,0.8-0.1,1.3-0.1c3.5,0,7,0,10.6,0c0.4,0,0.7,0,1.1,0.1c0.7,0.1,1.1,0.4,1.1,1.1c0,0.3,0,0.6,0,0.8
		C25.3,12.9,25.3,13.5,25.3,14.2z M29.2,32c0.7,0,0.9,0.6,1.3,0.9c0.3,0.3,0.6,0.6,0.9,0.9C65.6,68,99.7,102.1,133.8,136.3
		c0.6,0.6,1.2,1.2,1.8,1.8c0.4,0.4,0.5,0.8,0.6,1.3c0,0.6,0,1.1,0,1.7c0,2.5,0,4.9,0,7.4c0,2.6,0,5.2,0,7.8c0,0.4-0.1,0.8-0.1,1.3
		c0,0.2-0.4,0.3-0.5,0.2c-0.2-0.2-0.4-0.3-0.7-0.5c-2.7-2.5-5.3-5.1-7.9-7.7c-11.2-11.1-22.3-22.3-33.6-33.4
		C79.6,102.7,66,89,52.2,75.5C45,68.3,37.7,61.1,30.5,53.9c-1.6-1.6-1.6-1.6-1.6-3.9c0-5.4,0-10.9,0-16.3
		C28.8,33.2,28.6,32.5,29.2,32z M136.2,23.2c0,0.5-0.1,1-0.1,1.5c-0.1,0.3-0.3,0.5-0.6,0.6c-0.3,0.1-0.6,0.1-0.8,0.1
		c-0.7,0-1.4,0-2.1,0c-16.6,0-33.3,0-49.9,0c-16.8,0-33.7,0-50.5,0c-0.8,0-1.6,0-2.3-0.1c-0.4,0-0.8-0.4-0.9-0.8
		c-0.1-0.4-0.1-0.8-0.1-1.3c0-3.5,0-7.1,0-10.6c0-2.1,0.3-2.3,2.3-2.3c0.4,0,0.7,0,1.1,0c33.5,0,67.1,0,100.6,0c0.8,0,1.6,0,2.3,0.1
		c0.5,0,0.9,0.4,1,1c0,0.4,0.1,0.8,0.1,1.3C136.2,16.1,136.2,19.7,136.2,23.2z M136.2,130.7c0,0.6,0,1.1,0,1.7c0,0.3,0,0.6-0.2,0.8
		c-0.1,0.1-0.4,0-0.7-0.3c-0.4-0.3-0.7-0.7-1-1.1c-6.7-6.7-13.3-13.4-20-20C87.1,84.7,60.1,57.6,33,30.6c-0.5-0.5-1.3-0.8-1.4-1.8
		c0.7-0.4,1.4-0.2,2.1-0.2c16.6,0,33.1,0,49.7,0s33.1,0,49.7,0c0.8,0,1.6,0,2.3,0.1c0.3,0,0.7,0.4,0.7,0.7c0,0.3,0.1,0.6,0.1,0.8
		c0,0.6,0,1.3,0,1.9C136.2,65,136.2,97.9,136.2,130.7z M134.8,163.3c-0.4,0.4-0.8,0.8-1.2,1.2c-12.8,12.8-25.6,25.6-38.4,38.5
		c-0.5,0.5-0.9,0.9-1.4,1.3c-0.1,0.1-0.3,0-0.4,0c-0.1,0-0.1-0.1-0.1-0.2c0-0.6-0.1-1.3-0.1-1.9c0-7.6,0-15.1,0-22.6
		c0-5.5,0-11,0-16.5c0-12.9,0-25.8,0-38.7c0-0.8,0-1.6,0.1-2.3c0-0.1,0.1-0.3,0.3-0.3c0.1-0.1,0.3,0,0.4,0c0.3,0.2,0.6,0.4,0.8,0.7
		c2.3,2.2,4.5,4.5,6.8,6.7c9.4,9.3,18.8,18.7,28.2,28c1.4,1.3,2.8,2.6,4.1,3.9c0.4,0.3,0.7,0.7,1,1.1
		C135.2,162.5,135.2,163,134.8,163.3z M75,218.5c0.1-53.8,0.1-85.6,0.1-95.7l0,0v-18.9c0,0,0,0,0,0c0.3-0.2,0.5-0.2,0.5-0.2
		c0.3,0.2,0.6,0.4,0.8,0.7c4.1,4.1,8.2,8.2,12.3,12.2c0.2,0.2,0.3,0.3,0.4,0.5c0.6,0.6,0.9,1.2,0.9,2.1c0,0.6,0,1.1,0,1.7
		c0,66.4,0,132.7,0,199.1c0,0.8,0,1.6-0.1,2.3c0,0.4-0.4,0.8-0.8,0.8c-0.4,0-0.7,0.1-1.1,0.1c-3.7,0-7.3,0-11,0c-0.2,0-0.4,0-0.6,0
		c-1-0.1-1.4-0.4-1.4-1.5c0-0.8,0-1.7,0-2.5C75,285.5,75,252,75,218.5z M28.8,189.7c0-42.9,0-85.8,0-128.6c0-0.8,0-1.6,0-2.3
		c0-0.3-0.1-0.8,0.4-0.9c0.4-0.1,0.6,0.2,0.9,0.5c1.6,1.6,3.2,3.2,4.8,4.8c4.2,4.2,8.3,8.4,12.6,12.5c4.1,3.9,8,7.9,12.1,11.9
		c3.6,3.5,7.1,7.1,10.7,10.6c0.3,0.3,0.6,0.6,0.8,0.9c0.2,0.3,0.4,0.6,0.4,1c0.1,1.5,0,5.1,0,5.1c0,0.9,0,1.6,0,2
		c0,2.1,0.1,4.7,0.1,5.6c0,0.6,0,1.1,0,1.2c0.1,68.6,0,137.2,0,205.9c0,0.8,0,1.6-0.1,2.3c0,0.5-0.4,0.9-1,0.9
		c-0.3,0-0.6,0.1-0.8,0.1c-0.5,0-1,0-1.5,0c-12,0-24,0-35.9,0c-0.8,0-1.6,0-2.3-0.1c-0.5,0-0.9-0.5-1-1c0-0.4-0.1-0.7-0.1-1.1
		c0-0.8,0-1.6,0-2.3C28.8,275.6,28.8,232.7,28.8,189.7z M136.2,354c0,0.6,0,1.1-0.1,1.7c-0.1,0.4-0.4,0.6-0.7,0.7
		c-0.3,0.1-0.6,0.1-0.8,0.1c-0.7,0-1.4,0-2.1,0c-33.3,0-66.5,0-99.8,0c-0.9,0-1.8,0-2.7-0.1c-0.5,0-0.9-0.5-1-1
		c-0.1-0.5-0.1-1-0.1-1.5c0-8.3,0-16.6,0-25c0-0.6,0.1-1.1,0.2-1.7c0.1-0.4,0.4-0.6,0.7-0.7c0.3-0.1,0.6-0.1,0.8-0.1
		c0.7,0,1.4,0,2.1,0c16.6,0,33.3,0,49.9,0c16.7,0,33.4,0,50.1,0c0.8,0,1.7,0,2.5,0.1c0.5,0,0.9,0.4,0.9,1c0,0.5,0.1,1,0.1,1.5
		C136.2,337.4,136.2,345.7,136.2,354z M136.2,319.5c0,0.8,0,1.7-0.1,2.5c0,0.4-0.4,0.8-0.8,0.9c-0.6,0.1-1.3,0.1-1.9,0.1
		c-3.8,0-7.6,0-11.4,0c-8.5,0-17.1,0-25.6,0c-0.8,0-1.6-0.1-2.3-0.1c-0.3,0-0.7-0.4-0.7-0.7c0-0.2-0.1-0.4-0.1-0.6
		c0-0.6,0-1.1,0-1.7c0-27,0-54,0-81c0-0.7,0-1.4,0-2.1c0-0.4,0.2-0.8,0.5-1.2c0.3-0.4,0.7-0.7,1-1.1c13.2-13.3,26.5-26.5,39.8-39.8
		c0.3-0.3,0.7-0.7,1.1-0.9c0.1,0,0.3,0,0.4,0.1c0.1,0.1,0.1,0.3,0.1,0.4c0,0.8,0,1.6,0,2.3c0,20.5,0,40.9,0,61.3
		C136.2,278.5,136.2,299,136.2,319.5z M136.2,176.6c0,1.3-0.3,1.6-1.6,1.7c-0.6,0-1.1,0-1.7,0c-0.9,0-1.7,0.2-2.4,0.6
		c-1.1,0.6-1.8,2-1.6,3.2c0.3,1.9,2.1,2.9,3.4,3c0.8,0.1,1.6,0,2.3,0.1c1.3,0,1.6,0.3,1.6,1.6c0,0.3,0,0.6-0.1,0.8
		c-0.1,0.3-0.2,0.7-0.4,1c-0.4,0.5-1,1-1.5,1.5c-7.7,7.7-15.5,15.5-23.2,23.2c-5.2,5.2-10.5,10.5-15.7,15.7c-0.5,0.5-1,1-1.5,1.4
		c0,0-0.2,0.1-0.2,0.1c-0.1-0.1-0.3-0.2-0.3-0.3c-0.1-0.4-0.1-0.8-0.1-1.3c0-2.9,0-5.8,0-8.7c0-2.8,0-5.5,0-8.3c0-0.4,0-0.7,0-1.1
		c-0.1-0.9,0.3-1.6,1-2.2c0.3-0.3,0.6-0.6,0.9-0.9c13-13,26-26,39-39c0.5-0.5,0.8-1.3,1.8-1.3c0.4,0.6,0.2,1.4,0.2,2
		C136.2,171.9,136.2,174.3,136.2,176.6z M154.7,355.2c0,0.9-0.4,1.2-1.3,1.3c-0.4,0-0.7,0-1.1,0c-3.4,0-6.8,0-10.1,0
		c-0.5,0-1,0-1.5-0.1c-0.5-0.1-0.9-0.5-0.9-1c0-0.3-0.1-0.6-0.1-0.8c0-0.6,0-1.3,0-1.9c0-54.6,0-109.2,0-163.8c0-0.8,0-1.7,0-2.5
		c0-0.7,0.4-1.1,1-1.1c0.6,0,1.3,0,1.9,0c0.5,0,1,0.1,1.4,0.5c0.6,0.5,1.4,0.7,2.1,0.9c1.5,0.6,4.3-0.4,5.3-2.2
		c0.7-1.1,1-2.3,0.6-3.6c-0.3-0.9-0.6-1.7-1.2-2.4c-0.9-1.1-2.2-1.6-3.5-1.7c-1-0.1-1.9,0.3-2.8,0.7c-0.2,0.1-0.5,0.4-0.7,0.5
		c-0.2,0.1-0.5,0.3-0.8,0.3c-0.8,0.1-1.7,0.1-2.5,0c-0.4-0.1-0.8-0.5-0.8-0.9c0-0.3-0.1-0.6-0.1-0.8c0-0.7,0-1.4,0-2.1
		c0-53.4,0-106.8,0-160.2c0-0.8,0-1.6,0-2.3c0-0.3,0.1-0.6,0.2-0.8c0.1-0.3,0.3-0.5,0.6-0.6c0.3-0.1,0.7-0.2,1-0.2
		c3.9,0,7.8,0,11.6,0c0.1,0,0.1,0,0.2,0c1,0.1,1.4,0.4,1.4,1.5c0,0.8,0,1.6,0,2.3c0,56.4,0,112.9,0,169.3c0,56.4,0,112.7,0,169.1
		C154.7,353.4,154.7,354.3,154.7,355.2z M157.5,4.9c-2,2-1.7,1.9-4.4,1.9c-32.5,0-65.1,0-97.6,0c-14.4,0-28.7,0-43.1,0
		c-0.7,0-1.4,0-2.1,0C9.5,6.8,9,6.5,8.5,6C7.9,5.4,7.1,4.8,6.7,4C6.6,4,6.7,3.8,6.8,3.7C6.8,3.6,7,3.5,7.1,3.5
		c0.8,0,1.6-0.1,2.3-0.1c24.3,0,48.6,0,72.9,0s48.6,0,72.9,0c0.8,0,1.6,0,2.3,0.1c0.2,0,0.5,0.1,0.5,0.3c0,0.2-0.1,0.4-0.2,0.6
		C157.8,4.6,157.6,4.8,157.5,4.9z M161.5,355.2c0,0.9-0.4,1.3-1.3,1.3c-0.4,0-0.8,0-1.3-0.1c-0.4,0-0.8-0.4-0.8-0.9
		c0-0.3-0.1-0.6-0.1-0.8c0-0.7,0-1.4,0-2.1c0-113.3,0-226.5,0-339.8c0-0.9,0-1.8,0-2.8c0-0.5,0.2-1,0.5-1.3c0.8-0.8,1.6-1.6,2.4-2.4
		c0.1-0.1,0.3,0,0.4,0c0,0,0.1,0.1,0.1,0.2c0,0.2,0.1,0.4,0.1,0.6c0,0.8,0,1.6,0,2.3c0,57.2,0,114.4,0,171.6s0,114.4,0,171.6
		C161.5,353.5,161.5,354.4,161.5,355.2z"/>
</g>
</svg>
