<?xml version="1.0" encoding="utf-8"?>
<!-- Generator: Adobe Illustrator 25.0.0, SVG Export Plug-In . SVG Version: 6.00 Build 0)  -->
<svg version="1.1" id="Layer_1" xmlns="http://www.w3.org/2000/svg" xmlns:xlink="http://www.w3.org/1999/xlink" x="0px" y="0px"
	 viewBox="0 0 165 360" style="enable-background:new 0 0 165 360;" xml:space="preserve">
<g>
	<path d="M0,179.8c0-58.3,0-116.7,0-175C0,4,0,3.2,0,2.3c0-0.4,0-0.7,0.1-1c0.2-0.6,0.6-1,1.1-1.1C1.5,0.1,1.8,0,2.1,0
		C2.7,0,3.4,0,4,0c52.3,0,104.5,0,156.8,0c0.8,0,1.6,0,2.3,0.1c0.9,0.1,1.5,0.6,1.7,1.4c0.1,0.5,0.2,1,0.2,1.5c0,0.6,0,1.3,0,1.9
		c0,116.8,0,233.6,0,350.4c0,0.6,0,1.3,0,1.9c0,0.5-0.1,1-0.2,1.5c-0.2,0.8-0.8,1.2-1.5,1.3c-0.3,0.1-0.6,0.1-0.8,0.1
		c-0.6,0-1.3,0-1.9,0c-52,0-104.1,0-156.1,0c-0.8,0-1.6,0-2.3,0c-0.3,0-0.6-0.1-0.8-0.2c-0.6-0.2-1-0.6-1.1-1.2
		C0,358.3,0,357.9,0,357.6c0-0.9,0-1.8,0-2.8C0,296.5,0,238.2,0,179.8z M28.5,175.8c0,38.2,0,76.4,0,114.7c0,0.7,0,1.4,0,2.1
		c0,0.3,0,0.6,0.1,0.8c0,0.1,0.2,0.2,0.3,0.3c0.1,0,0.3,0,0.4-0.1c0.5-0.5,1-1,1.5-1.5c0.6-0.7,1.2-1.4,1.8-2.1
		c1.8-2,3.7-4.1,5.5-6.1c1.3-1.5,2.6-2.9,4-4.4c1.8-2,3.6-4,5.4-6c1.9-2.1,3.8-4.2,5.7-6.3c1.4-1.6,2.8-3.1,4.3-4.7
		c1.8-2,3.6-4,5.4-6c2.4-2.7,4.8-5.4,7.2-8c1.3-1.5,1.3-1.4,1.3-3.4c0-0.2,0-0.4,0-0.6c0-45.8,0-91.5,0-137.3c0-0.6,0-1.1,0-1.7
		c0-0.7-0.2-1.2-0.7-1.7c-0.8-1-1.7-1.9-2.5-2.9c-1.8-2-3.7-4.1-5.5-6.1c-1.9-2.2-3.9-4.3-5.8-6.5c-1.9-2.1-3.8-4.2-5.7-6.3
		c-1.5-1.6-2.9-3.2-4.4-4.9c-1.9-2.1-3.8-4.2-5.6-6.3c-1.8-2-3.7-4.1-5.5-6.1c-1.6-1.8-3.2-3.6-4.8-5.4c-0.5-0.6-0.9-1.3-1.7-1.5
		c-0.3-0.1-0.4,0.4-0.4,2.4c0,0.5,0,1,0,1.5C28.5,99.7,28.5,137.7,28.5,175.8z M10,183.1c0,56.3,0,112.7,0,169.1c0,0.8,0,1.6,0,2.3
		c0,0.4,0,0.7,0.1,1.1c0.1,0.4,0.4,0.8,0.9,0.8c0.4,0.1,0.8,0.1,1.3,0.1c3.5,0,7.1,0,10.6,0c0.4,0,0.8,0,1.3-0.1
		c0.5-0.1,0.9-0.4,0.9-1c0-0.9,0.1-1.8,0.1-2.7c0-112.8,0-225.7,0-338.5c0-0.7,0-1.4,0-2.1c0-0.3,0-0.6-0.1-0.8
		c-0.1-0.4-0.4-0.8-0.9-0.8c-0.4-0.1-0.8-0.1-1.3-0.1c-3.5,0-7.1,0-10.6,0c-0.4,0-0.8,0-1.3,0.1c-0.5,0.1-0.9,0.4-0.9,1
		C10,12.3,10,13.2,10,14.1C10,70.4,10,126.8,10,183.1z M154.8,183.4c0-56.3,0-112.6,0-168.9c0-0.9,0-1.7,0-2.5c0-0.3,0-0.6-0.1-0.8
		c-0.1-0.4-0.3-0.7-0.7-0.7c-0.5-0.1-1-0.1-1.5-0.2c-3.5,0-7.1,0-10.6,0c-0.4,0-0.8,0-1.3,0.1c-0.5,0.1-0.9,0.4-1,1
		c-0.1,0.8-0.1,1.7-0.1,2.5c0,53.6,0,107.2,0,160.8c0,0.6,0,1.3,0,1.9c0,0.3,0.1,0.6,0.1,0.8c0.1,0.3,0.4,0.7,0.7,0.7
		c1.4,0.2,2.7,0.3,4.1-0.7c1.2-0.8,2.5-1.1,4-0.6c1.4,0.4,2.3,1.3,3,2.5c0.5,0.7,0.7,1.6,0.7,2.4c0,2-1.3,3.8-3.2,4.6
		c-0.4,0.2-0.8,0.2-1.2,0.4c-0.4,0.1-0.8,0.1-1.3,0c-0.8-0.2-1.6-0.4-2.3-0.9c-0.4-0.2-0.7-0.5-1.2-0.5c-0.8,0-1.7,0-2.5,0
		c-0.4,0-0.8,0.4-0.8,0.8c-0.1,0.9-0.1,1.8-0.1,2.7c0,54.6,0,109.2,0,163.8c0,0.6,0,1.1,0,1.7c0,0.3,0,0.6,0,0.8
		c0.1,0.9,0.5,1.2,1.4,1.3c0.3,0,0.6,0,0.8,0c3.5,0,7.1,0,10.6,0c0.4,0,0.8,0,1.3-0.1c0.5-0.1,0.9-0.5,1-1c0.1-0.9,0.1-1.8,0.1-2.7
		C154.8,296.3,154.8,239.8,154.8,183.4z M136.1,86.5c0-18,0-36.1,0-54.2c0-0.7,0-1.4,0-2.1c0-0.3-0.1-0.6-0.1-0.8
		c-0.1-0.3-0.4-0.7-0.7-0.7c-0.7,0-1.4-0.1-2.1-0.1c-9.5,0-19.1,0-28.6,0c-2.9,0-5.8,0-8.7,0c-0.6,0-1.1,0-1.7,0c-0.6,0-1,0.4-1,0.9
		c0,0.6-0.1,1.3-0.1,1.9c0,21,0,42,0,63c0,0.5,0,1,0,1.5c0,0.6,0.2,1.1,0.6,1.6c0.5,0.7,1.1,1.3,1.7,1.9c1,1.1,2,2.2,3,3.2
		c2.1,2.3,4.2,4.6,6.3,6.9c2.2,2.4,4.5,4.9,6.7,7.3c1.6,1.8,3.2,3.5,4.9,5.3c2.1,2.3,4.3,4.7,6.4,7.1c2.3,2.5,4.6,5,6.9,7.5
		c0.3,0.3,0.6,0.6,0.8,1c1.7,1.9,3.4,3.7,5.2,5.6c0.1,0.1,0.3,0,0.4,0c0,0,0.1-0.1,0.1-0.2c0-0.8,0.1-1.5,0.1-2.3
		C136.1,122.7,136.1,104.6,136.1,86.5z M136.1,265.3c0-4.8,0-9.6,0-14.4c0-13.3,0-26.7,0-40c0-0.7,0-1.4-0.1-2.1
		c0-0.1-0.2-0.3-0.3-0.3c-0.1,0-0.3,0-0.4,0.1c-0.4,0.3-0.7,0.7-1.1,1c-2,2.1-3.9,4.3-5.9,6.4c-1.5,1.6-3,3.2-4.4,4.8
		c-2.1,2.3-4.2,4.6-6.3,6.9c-2.3,2.5-4.6,5-6.9,7.5c-1.6,1.7-3.1,3.4-4.7,5.2c-2.5,2.8-5,5.5-7.6,8.3c-1.6,1.7-3.1,3.4-4.7,5.1
		c-0.5,0.5-0.8,1.2-0.8,1.9c0,0.6,0,1.3,0,1.9c0,20.7,0,41.3,0,62c0,0.6,0,1.3,0,1.9c0,0.2,0.1,0.4,0.1,0.6c0.1,0.3,0.4,0.7,0.7,0.7
		c0.6,0.1,1.3,0.1,1.9,0.1c12.5,0,25,0,37.5,0c0.5,0,1,0,1.5,0c0.9-0.1,1.2-0.4,1.3-1.4c0-0.8,0-1.6,0-2.3
		C136.1,301.3,136.1,283.3,136.1,265.3z M82.6,326.5c-16.7,0-33.3,0-50,0c-0.6,0-1.3,0-1.9,0c-0.4,0-0.7,0-1.1,0.1
		c-0.5,0.1-0.9,0.4-1,0.9c-0.1,0.5-0.1,1-0.1,1.5c0,8.3,0,16.6,0,25c0,0.5,0,1,0.1,1.5c0.1,0.5,0.5,1,1,1c0.8,0.1,1.5,0.1,2.3,0.1
		c33.6,0,67.2,0,100.8,0c0.5,0,1,0,1.5,0c0.3,0,0.6,0,0.8-0.1c0.5-0.1,0.9-0.4,1-0.9c0.1-0.6,0.1-1.1,0.1-1.7c0-8.2,0-16.4,0-24.5
		c0-0.6,0-1.1-0.1-1.7c0-0.5-0.4-1-0.9-1c-0.8-0.1-1.7-0.1-2.5-0.1C115.9,326.5,99.3,326.5,82.6,326.5z M28.5,309.8
		c0,0.7,0,1.4,0,2.1c0,1.7,0,3.4,0,5.1c0,0.5,0,1,0,1.5c0,0.3-0.1,0.8,0.3,1c0.4,0.2,0.6-0.2,0.9-0.4c0.3-0.2,0.5-0.5,0.7-0.8
		c1.3-1.5,2.7-2.9,4-4.4c1.7-1.8,3.3-3.6,5-5.5c2.2-2.4,4.4-4.8,6.5-7.2c2.2-2.4,4.5-4.9,6.7-7.3c1.7-1.8,3.3-3.6,5-5.5
		c2.5-2.8,5-5.5,7.6-8.3c1.8-2,3.6-3.9,5.4-5.9c3.8-4.1,7.5-8.2,11.3-12.4c2.2-2.4,4.5-4.9,6.7-7.3c1.5-1.7,3-3.3,4.6-5
		c3.6-3.9,7.1-7.8,10.7-11.7c2.4-2.6,4.8-5.2,7.2-7.8c0.2-0.2,0.4-0.4,0.6-0.6c2-2.2,4.1-4.5,6.1-6.7c2.2-2.4,4.4-4.8,6.6-7.2
		c3-3.2,5.9-6.5,8.9-9.7c0.8-0.9,1.6-1.8,2.4-2.7c0.3-0.3,0.4-0.7,0.5-1.2c0-0.4,0-0.8,0-1.3c0-4.4,0-8.7,0-13.1c0-0.5,0-1-0.1-1.5
		c0-0.4-0.4-0.8-0.8-0.8c-0.9,0-1.8,0-2.7-0.1c-0.5,0-1,0.2-1.3,0.6c-0.6,0.6-1.2,1.2-1.7,1.8c-1.9,2.1-3.8,4.2-5.6,6.3
		c-1.8,2-3.7,4.1-5.5,6.1c-1.4,1.5-2.7,3-4.1,4.6c-1.8,2-3.6,4-5.4,6c-1.9,2.1-3.8,4.2-5.7,6.3c-1.7,1.9-3.4,3.8-5.1,5.7
		c-1.8,2-3.6,4-5.4,6c-1.7,1.9-3.4,3.7-5.1,5.6c-1.8,2-3.6,4-5.4,6c-1.9,2.1-3.8,4.2-5.7,6.3c-1.4,1.6-2.8,3.1-4.2,4.7
		c-1.9,2.2-3.9,4.3-5.8,6.5c-1.8,2-3.6,4-5.4,5.9c-3.8,4.2-7.6,8.4-11.3,12.6c-0.3,0.3-0.6,0.6-0.9,0.9c-2,2.2-4,4.4-5.9,6.6
		c-1.7,1.9-3.5,3.9-5.3,5.8c-2.3,2.6-4.6,5.1-6.9,7.7c-0.5,0.5-0.9,1.1-1.4,1.6c-0.5,0.6-0.7,1.2-0.7,1.9c0,0.6,0,1.1,0,1.7
		C28.5,304.9,28.5,307.3,28.5,309.8z M136.1,160c0-2.9,0-5.8,0-8.7c0-0.6,0-1.1,0-1.7c0-0.4-0.2-0.8-0.5-1.2
		c-0.2-0.2-0.4-0.4-0.6-0.6c-2.8-3-5.5-6-8.3-9.1c-3.9-4.2-7.7-8.4-11.6-12.6c-0.2-0.3-0.5-0.5-0.7-0.8c-2.2-2.4-4.4-4.8-6.5-7.2
		c-2.1-2.3-4.2-4.6-6.3-6.9c-3.5-3.9-7-7.7-10.5-11.6c-2.4-2.7-4.9-5.3-7.3-7.9c-0.2-0.3-0.5-0.5-0.7-0.8c-2.1-2.3-4.2-4.6-6.3-6.9
		c-2.3-2.5-4.6-5-6.9-7.5c-1.5-1.6-3-3.2-4.4-4.8c-2.1-2.4-4.3-4.7-6.4-7.1c-2.3-2.5-4.6-5-6.9-7.5c-1.5-1.7-3-3.3-4.6-5
		c-2.2-2.4-4.4-4.8-6.5-7.2c-2.2-2.4-4.5-4.9-6.7-7.3c-0.3-0.3-0.5-0.7-0.8-1c-1.4-1.5-2.9-3.1-4.4-4.6c-0.1-0.1-0.3-0.1-0.4,0
		c-0.1,0-0.1,0.1-0.1,0.2c0,0.4-0.1,0.8-0.1,1.3c0,5.4,0,10.7,0,16.1c0,0.4,0,0.8,0,1.3c0,0.6,0.2,1.1,0.6,1.6
		c0.7,0.8,1.4,1.6,2.1,2.4c1.9,2.1,3.9,4.3,5.8,6.4c1.8,2,3.6,4,5.4,6c1.9,2.1,3.8,4.2,5.7,6.3c1.4,1.6,2.8,3.1,4.3,4.7
		c1.8,2,3.6,4,5.4,6c1.9,2.1,3.8,4.2,5.7,6.3c1.4,1.5,2.7,3,4.1,4.6c1.8,2,3.6,4,5.4,6c1.9,2.1,3.8,4.2,5.7,6.3
		c1.4,1.6,2.8,3.1,4.3,4.7c2.1,2.4,4.2,4.7,6.4,7.1c1.8,2,3.6,4,5.4,6c1.3,1.5,2.6,2.9,4,4.4c1.8,2,3.6,4,5.4,6
		c1.9,2.1,3.8,4.2,5.7,6.3c1.4,1.6,2.8,3.1,4.3,4.7c1.8,2,3.6,4,5.4,6c1.9,2.1,3.8,4.2,5.7,6.3c1.7,1.9,3.5,3.9,5.2,5.8
		c1.4,1.6,2.8,3.1,4.3,4.7c0.3,0.4,0.7,0.7,1.1,1c0.1,0.1,0.3,0.1,0.4,0.1s0.2-0.2,0.3-0.3c0.1-0.4,0.1-0.8,0.1-1.3
		C136.1,166,136.1,163,136.1,160z M93.1,175.8c0,8,0,16.1,0,24.1c0,6.8,0,13.5,0,20.3c0,0.6,0,1.1,0.1,1.7c0,0.1,0.2,0.2,0.3,0.3
		c0,0,0.2,0,0.2-0.1c0.3-0.2,0.5-0.5,0.8-0.7c1.7-1.8,3.3-3.7,5-5.5c2-2.2,4-4.4,5.9-6.6c1.7-1.9,3.5-3.9,5.3-5.8
		c3.1-3.4,6.1-6.8,9.2-10.2c2.6-2.9,5.3-5.9,7.9-8.8c0.7-0.8,1.3-1.5,0.9-2.6c0-1.4,0.8-2.6,2.1-3.1c0.6-0.2,1.2-0.3,1.8-0.5
		c0.5-0.1,0.9-0.4,1.3-0.7c0.2-0.3,0.5-0.5,0.7-0.8c0.6-0.8,0.7-1.2,0.1-1.9c-0.4-0.5-0.8-1-1.2-1.5c-1.9-2.1-3.8-4.2-5.7-6.3
		c-1.5-1.6-2.9-3.2-4.4-4.9c-1.8-2-3.6-4-5.4-6c-1.9-2.1-3.8-4.2-5.7-6.3c-1.4-1.6-2.8-3.1-4.3-4.7c-1.9-2.1-3.8-4.2-5.6-6.3
		c-2.2-2.4-4.3-4.8-6.5-7.2c-0.7-0.8-1.5-1.5-2.2-2.3c-0.1-0.1-0.3,0-0.4,0c-0.1,0-0.1,0.1-0.1,0.2c0,0.7-0.1,1.4-0.1,2.1
		C93.1,146.4,93.1,161.1,93.1,175.8z M74.8,175.7c0,21.3,0,42.6,0,63.9c0,0.7,0,1.4,0,2.1c0,0.2,0.1,0.4,0.1,0.6
		c0,0.1,0.3,0.2,0.3,0.1c0.2-0.1,0.5-0.3,0.7-0.5c0.7-0.8,1.4-1.6,2.1-2.4c1.9-2.1,3.8-4.2,5.7-6.3c1.5-1.7,3-3.3,4.5-5
		c1.8-2.1,1.6-1.5,1.6-4.3c0-32.1,0-64.2,0-96.2c0-0.6,0-1.1,0-1.7c0-0.5-0.2-1-0.5-1.4c-0.7-0.9-1.5-1.7-2.2-2.6
		c-2.1-2.4-4.2-4.7-6.4-7.1c-1.6-1.7-3.1-3.5-4.7-5.2c-0.2-0.3-0.5-0.5-0.8-0.6c-0.1,0-0.3,0.1-0.3,0.2c-0.3,0.8-0.1,1.5-0.1,2.3
		C74.8,132.9,74.8,154.3,74.8,175.7z M82.2,25.3c16.7,0,33.3,0,50,0c0.6,0,1.3,0,1.9,0c1.9,0,2-0.2,2-2.1c0-3.6,0-7.2,0-10.8
		c0-0.4,0-0.8-0.1-1.3c0-0.4-0.4-0.8-0.9-0.8c-0.7-0.1-1.4-0.1-2.1-0.1c-33.8,0-67.5,0-101.3,0c-0.5,0-1,0-1.5,0
		c-0.3,0-0.6,0.1-0.8,0.1c-0.4,0.1-0.8,0.5-0.8,0.9c-0.1,0.4-0.1,0.8-0.1,1.3c0,3.6,0,7.2,0,10.8c0,0.4,0,0.7,0.1,1.1
		c0.1,0.5,0.5,0.9,1,0.9c0.8,0,1.6,0.1,2.3,0.1C48.7,25.3,65.4,25.3,82.2,25.3z M3.3,180.9c0,24.4,0,48.8,0,73.2
		c0,32.9,0,65.7,0,98.6c0,0.8,0,1.7,0,2.5c0,0.8,0.4,1.2,1.2,1.2c0.3,0,0.6,0,0.8,0c0.6-0.1,1.1-0.4,1.1-1.1c0.1-1,0.1-2,0.1-3
		c0-104.7,0-209.3,0-314c0-8.8,0-17.6,0-26.5c0-0.7,0-1.4-0.1-2.1C6.4,9.4,6.2,9,6,8.7C5.3,7.9,4.5,7.1,3.8,6.4c0,0-0.2-0.1-0.2-0.1
		C3.5,6.4,3.4,6.5,3.3,6.6c0,0.9-0.1,1.7-0.1,2.5C3.3,66.4,3.3,123.6,3.3,180.9z M161.5,181.3c0-57.1,0-114.3,0-171.4
		c0-0.8,0-1.6,0-2.3c0-0.2-0.1-0.4-0.1-0.6s-0.3-0.4-0.5-0.2c-0.8,0.5-1.3,1.2-2,1.9c-0.4,0.4-0.6,0.9-0.6,1.5c0,0.9,0,1.8,0,2.8
		c0,113.2,0,226.4,0,339.6c0,0.7,0,1.4,0,2.1c0,0.3,0,0.6,0.1,0.8c0.1,0.6,0.5,1,1.1,1c0.3,0,0.6,0,0.8,0c0.7-0.1,1.1-0.4,1.1-1.1
		c0-0.9,0.1-1.8,0.1-2.7C161.5,295.5,161.5,238.4,161.5,181.3z M71.3,50.7c0-6.3,0-12.5,0-18.8c0-0.6,0-1.3,0-1.9
		c0-1-0.4-1.3-1.3-1.3c-0.4,0-0.7,0-1.1,0c-12.1,0-24.1,0-36.2,0c-0.5,0-1.1-0.2-1.4,0.3c-0.3,0.6,0.4,1,0.7,1.4
		c0.2,0.2,0.4,0.4,0.6,0.6c1.5,1.6,2.9,3.2,4.4,4.8c3,3.3,6,6.6,9,9.8c2.9,3.2,5.9,6.5,8.9,9.7c3.9,4.2,7.7,8.4,11.6,12.6
		c0.4,0.5,0.8,1,1.3,1.4c0.9,1,1.8,2,2.8,2.9c0.1,0.1,0.3,0.1,0.4,0.1c0.1,0,0.3-0.2,0.3-0.5c0-0.6,0-1.3,0-1.9
		C71.3,63.5,71.3,57.1,71.3,50.7z M71.3,300.7c0-6.2,0-12.4,0-18.6c0-0.5,0-1,0-1.5c0-0.3,0-0.6,0-0.8c0-0.3-0.2-0.5-0.3-0.5
		c-0.2,0.1-0.4,0.1-0.5,0.3c-1.6,1.7-3.2,3.4-4.7,5.1c-3.5,3.9-7,7.7-10.5,11.6c-2.9,3.2-5.8,6.3-8.7,9.5
		c-3.9,4.2-7.7,8.4-11.6,12.6c-1.1,1.2-2.3,2.5-3.4,3.8c-0.1,0.2-0.3,0.4-0.1,0.6c0.1,0.1,0.3,0.2,0.5,0.3c0.6,0,1.3,0,1.9,0
		c11.4,0,22.7,0,34.1,0c0.6,0,1.1,0,1.7,0c0.3,0,0.6,0,0.8-0.1c0.4-0.1,0.8-0.4,0.8-0.9c0-0.7,0.1-1.4,0.1-2.1
		C71.3,313.5,71.3,307.1,71.3,300.7z M89.9,61.1c0-9.7,0-19.3,0-29c0-0.6,0-1.3,0-1.9c0-1.3-0.3-1.6-1.7-1.6c-3.9,0-7.8,0-11.6,0
		c-0.3,0-0.6,0-0.8,0.1c-0.4,0-0.8,0.4-0.8,0.9c-0.1,0.6-0.1,1.3-0.1,1.9c0,14.4,0,28.8,0,43.1c0,0.6,0,1.1,0.1,1.7
		c0,0.4,0.2,0.8,0.5,1.2c0.7,0.9,1.5,1.7,2.2,2.6c2.8,3.1,5.7,6.2,8.6,9.4c0.8,0.9,1.6,1.8,2.5,2.6c0.1,0.2,0.3,0.3,0.5,0.4
		c0.2,0.1,0.4,0.2,0.6,0.3c0.1,0,0.3-0.2,0.3-0.5c0-0.7,0-1.4,0-2.1C89.9,80.4,89.9,70.7,89.9,61.1z M89.9,290.6
		c0-6.2,0-12.4,0-18.6c0-3.9,0-7.8,0-11.6c0-0.4,0-0.8-0.1-1.3c0-0.1-0.3-0.2-0.3-0.2c-0.3,0.2-0.6,0.4-0.8,0.7
		c-1.1,1.2-2.3,2.5-3.4,3.8c-2,2.2-4,4.4-6,6.5c-1.1,1.1-2.1,2.3-3.1,3.4c-0.2,0.3-0.5,0.5-0.7,0.8c-0.3,0.4-0.5,0.8-0.5,1.4
		c0,0.7,0,1.4,0,2.1c0,14,0,28,0,42.1c0,0.4,0,0.8,0,1.3c0,1.8,0.3,2.1,2.1,2.1c3.7,0,7.3,0,11,0c0.4,0,0.7,0,1.1-0.1
		c0.4-0.1,0.8-0.4,0.8-0.8c0-0.7,0.1-1.4,0.1-2.1C89.9,310.2,89.9,300.4,89.9,290.6z M82.8,3.5c-19.6,0-39.1,0-58.7,0
		c-4.9,0-9.7,0-14.6,0c-0.5,0-1,0-1.5,0c-0.2,0-0.4,0-0.6,0C7,3.5,6.7,3.7,6.7,3.9c0,0.2,0,0.4,0.2,0.6c0.5,0.6,1,1.2,1.6,1.7
		c0.4,0.4,0.8,0.6,1.3,0.6c0.8,0,1.7,0,2.5,0c46.7,0,93.5,0,140.2,0c0.6,0,1.3,0,1.9,0c0.3,0,0.6,0,0.8,0c0.4,0,0.7-0.2,1-0.4
		c0.8-0.7,1.6-1.4,2.2-2.3c0.1-0.2,0-0.5-0.2-0.5c-0.8,0-1.7-0.1-2.5-0.1C131.3,3.5,107,3.5,82.8,3.5z"/>
	<path d="M147.3,201.7c-0.9,0-1.7-0.2-2.4-0.6c-0.6-0.4-1.1-0.8-1.7-1.3c-0.2-0.2-0.4-0.4-0.5-0.7c-0.2-0.7-0.4-1.3-0.5-2
		c-0.1-0.4,0.1-0.8,0.1-1.2c0.2-1.6,1.3-2.6,2.6-3.3c0.6-0.3,1.3-0.4,2-0.6c0.1,0,0.3,0,0.4,0c0.9,0.2,1.8,0.4,2.6,0.9
		c1.5,0.9,2.2,2.3,2.3,4c0.1,1-0.2,2-0.8,2.8C150.4,200.9,149,201.6,147.3,201.7z"/>
</g>
</svg>
