<?xml version="1.0" encoding="utf-8"?>
<!-- Generator: Adobe Illustrator 25.0.0, SVG Export Plug-In . SVG Version: 6.00 Build 0)  -->
<svg version="1.1" id="Layer_1" xmlns="http://www.w3.org/2000/svg" xmlns:xlink="http://www.w3.org/1999/xlink" x="0px" y="0px"
	 viewBox="0 0 165 360" style="enable-background:new 0 0 165 360;" xml:space="preserve">
<path d="M165,180.1c0,58.3,0,116.7,0,175c0,0.9,0,1.7,0,2.5c0,0.4,0,0.7-0.1,1.1c-0.2,0.6-0.5,1-1.1,1.2c-0.3,0.1-0.7,0.1-1,0.2
	c-0.7,0-1.4,0-2.1,0c-52,0-104,0-156,0c-0.7,0-1.4,0-2.1,0c-0.3,0-0.6,0-0.8-0.1c-0.7-0.2-1.3-0.6-1.5-1.4c-0.1-0.5-0.2-1-0.2-1.5
	c0-0.8,0-1.7,0-2.5C0,259,0,163.4,0,67.9C0,46.9,0,26,0,5c0-0.8,0-1.6,0-2.3c0-0.5,0.1-1,0.3-1.5c0.2-0.6,0.6-1,1.2-1.1
	C1.7,0.1,2,0,2.3,0C3,0,3.6,0,4.2,0C56.5,0,108.8,0,161,0c0.7,0,1.4,0,2.1,0c1.2,0.1,1.8,0.7,1.8,1.9c0,0.4,0,0.7,0,1.1
	c0,0.8,0,1.6,0,2.3C165,63.6,165,121.8,165,180.1z M71.5,165c0-20.7,0-41.5,0-62.2c0-0.7,0-1.4,0-2.1c0-0.9-0.2-1.7-0.9-2.3
	c-0.3-0.2-0.5-0.5-0.8-0.8c-3.7-3.7-7.4-7.4-11.1-11c-3.5-3.4-6.9-6.8-10.4-10.2c-6.1-6-12.1-12-18.2-18c-0.3-0.3-0.6-0.6-0.9-0.8
	c-0.1-0.1-0.3,0-0.4,0c-0.1,0-0.1,0.1-0.1,0.2c0,0.6-0.1,1.3-0.1,1.9c0,42,0,83.9,0,125.9c0,2.8-0.1,2.6,1.9,4.6
	c9.4,9.3,18.7,18.8,28.2,28c3.7,3.5,7.2,7.2,10.8,10.8c0.5,0.4,0.9,0.9,1.4,1.3c0.1,0.1,0.5,0,0.5-0.2c0-0.8,0.1-1.5,0.1-2.3
	C71.5,206.8,71.5,185.9,71.5,165z M136.4,170.6L136.4,170.6c0-1.2,0-2.4,0-3.6c0-0.8,0-1.6,0-2.3c0-0.9-0.3-1.6-1-2.3
	c-0.2-0.2-0.4-0.4-0.6-0.6c-2.3-2.3-4.6-4.6-6.9-6.9c-3.6-3.5-7.2-7-10.7-10.5c-7.4-7.2-14.7-14.5-22-21.7c-0.3-0.3-0.6-0.6-0.9-0.9
	c-0.1-0.1-0.3,0-0.4,0c-0.1,0-0.1,0.1-0.1,0.2c0,0.6-0.1,1.3-0.1,1.9c0,42.2,0,84.3,0,126.5c0,2.9-0.2,2.5,1.9,4.6
	c4.9,4.9,9.8,9.8,14.7,14.6c8,8,16.1,16,24.1,24.1c0.4,0.4,0.8,0.8,1.2,1.1c0.1,0.1,0.3,0.1,0.4,0c0.1,0,0.3-0.2,0.3-0.3
	c0.1-0.8,0.1-1.5,0.1-2.3c0-34.6,0-69.1,0-103.6c0-0.6,0-1.1,0-1.7c0-0.3-0.1-0.6-0.1-0.8c-0.1-0.4-0.4-0.8-0.8-0.8
	c-0.8-0.1-1.6,0-2.3-0.1c-0.5,0-1-0.1-1.5-0.2c-1.3-0.5-2.3-1.4-2.8-2.7c-0.1-0.3-0.1-0.6-0.1-0.8c0.3-1.1,0.9-2.1,2-2.6
	c0.8-0.4,1.6-0.6,2.5-0.6c0.7,0,1.4-0.1,2.1-0.1c0.4,0,0.8-0.4,0.9-0.8c0.1-0.5,0.1-1,0.1-1.5C136.5,174.1,136.4,172.3,136.4,170.6z
	 M25.3,183.6c0-56.3,0-112.7,0-169c0-0.7,0-1.4,0-2.1c0-0.4,0-0.7,0-1.1c-0.1-0.6-0.4-1-1.1-1.1c-0.4,0-0.7,0-1.1,0
	c-3.5,0-7.1,0-10.6,0c-0.4,0-0.8,0-1.3,0.1c-0.5,0.1-0.9,0.5-0.9,1c-0.1,0.9-0.1,1.8-0.1,2.7c0,112.8,0,225.7,0,338.5
	c0,0.6,0,1.1,0,1.7c0,0.3,0,0.6,0,0.8c0.1,0.9,0.5,1.2,1.4,1.3c0.3,0,0.6,0,0.8,0c3.5,0,7.1,0,10.6,0c0.2,0,0.4,0,0.6,0
	c1.2-0.1,1.5-0.4,1.6-1.5c0-0.8,0-1.7,0-2.5C25.3,296.2,25.3,239.9,25.3,183.6z M155,183.4c0-56.1,0-112.3,0-168.4
	c0-0.7,0-1.4,0-2.1c0-0.4,0-0.9,0-1.3c-0.1-0.9-0.4-1.2-1.4-1.3c-0.1,0-0.3,0-0.4,0c-3.8,0-7.6,0-11.4,0c-0.4,0-0.7,0.1-1,0.1
	c-0.3,0.1-0.7,0.5-0.7,0.7c0,0.9-0.1,1.8-0.1,2.7c0,53.6,0,107.2,0,160.8c0,0.6,0,1.3,0,1.9c0,0.3,0,0.6,0.1,0.8
	c0,0.3,0.4,0.7,0.7,0.7c0.8,0.2,1.7,0.2,2.5,0c0.3,0,0.5-0.2,0.8-0.3c0.2-0.1,0.3-0.2,0.5-0.4c1.3-0.8,2.7-1.2,4.2-0.7
	c0.1,0.1,0.3,0.1,0.4,0.1c0.6,0.2,1,0.4,1.4,0.9c0.2,0.3,0.5,0.5,0.7,0.8c1.2,1.7,1.4,3.5,0.6,5.4c-0.5,1.1-1.3,1.8-2.4,2.3
	c-1.5,0.6-3,0.5-4.5-0.2c-0.3-0.1-0.5-0.3-0.7-0.4c-0.4-0.3-0.9-0.4-1.4-0.4c-0.6,0-1.1,0-1.7,0c-0.9,0-1.2,0.4-1.2,1.3
	c0,0.8,0,1.6,0,2.3c0,54.6,0,109.2,0,163.7c0,0.6,0,1.1,0,1.7c0,0.3,0,0.6,0,0.8c0.1,0.9,0.4,1.2,1.3,1.3c0.3,0,0.6,0,0.8,0
	c3.5,0,7.1,0,10.6,0c0.4,0,0.8,0,1.3-0.1c0.5-0.1,0.9-0.5,0.9-1c0-0.9,0.1-1.8,0.1-2.7C155,296.2,155,239.8,155,183.4z M28.5,270.9
	c0,9.2,0,18.3,0,27.5c0,7.2,0,14.4,0,21.6c0,0.7,0,1.4,0.1,2.1c0,0.4,0.4,0.8,0.8,0.8c0.8,0.1,1.6,0.1,2.3,0.1c12.1,0,24.3,0,36.4,0
	c0.6,0,1.3,0,1.9,0c0.2,0,0.4-0.1,0.6-0.1c0.3-0.1,0.7-0.4,0.7-0.7c0-0.7,0.1-1.4,0.1-2.1c0-8.1,0-16.2,0-24.3c0-10.7,0-21.4,0-32.2
	c0-2.2,0-2.2-1.5-3.7c-2.5-2.4-4.9-4.9-7.4-7.3c-3.5-3.4-6.9-6.9-10.4-10.3c-3.5-3.5-7.1-6.9-10.6-10.4c-3.7-3.7-7.4-7.4-11.1-11
	c-0.5-0.5-0.9-1.1-1.6-1.3c-0.3-0.1-0.3,0.3-0.3,2.2C28.5,238.1,28.5,254.5,28.5,270.9z M136.4,81.3c0-16.2,0-32.4,0-48.7
	c0-0.7,0-1.4,0-2.1c0-0.4-0.1-0.7-0.1-1.1c-0.1-0.4-0.5-0.8-0.9-0.8c-0.7,0-1.4-0.1-2.1-0.1c-10,0-19.9,0-29.9,0c-2.3,0-4.7,0-7,0
	c-0.5,0-1,0-1.5,0c-0.8,0-1.2,0.4-1.2,1.1c0,0.6,0,1.1,0,1.7c0,19,0,37.9,0,56.9c0,0.6,0,1.1,0,1.7c0,0.6,0.2,1.1,0.6,1.5
	c0.4,0.4,0.8,0.8,1.2,1.2c12.9,12.9,25.9,25.8,38.8,38.7c0.4,0.4,0.7,0.7,1.1,1c0.1,0.1,0.2,0.2,0.3,0.3c0.2,0.2,0.6-0.1,0.6-0.3
	c0-0.8,0.1-1.6,0.1-2.3C136.4,113.9,136.4,97.6,136.4,81.3z M82.6,326.5c-16.8,0-33.6,0-50.4,0c-0.7,0-1.4,0-2.1,0
	c-0.3,0-0.6,0.1-0.8,0.1c-0.3,0.1-0.5,0.3-0.6,0.6c-0.1,0.3-0.1,0.7-0.1,1c0,1.6,0,3.1,0,4.7c0,6.8,0,13.7,0,20.5
	c0,0.7,0,1.4,0.1,2.1c0,0.4,0.4,0.8,0.9,0.8c0.8,0.1,1.7,0.1,2.5,0.1c33.6,0,67.2,0,100.9,0c0.6,0,1.1,0,1.7,0c0.3,0,0.6,0,0.8-0.1
	c0.5-0.1,0.9-0.5,1-1c0.1-0.8,0.1-1.6,0.1-2.3c0-7.8,0-15.5,0-23.3c0-0.6,0-1.1,0-1.7c0-0.3-0.1-0.6-0.1-0.8
	c-0.1-0.4-0.4-0.7-0.7-0.7c-0.8-0.1-1.7-0.1-2.5-0.1C116.2,326.5,99.4,326.5,82.6,326.5z M28.5,203.7c0,2.2,0,4.4,0,6.6c0,1,0,2,0,3
	c0,0.6,0.2,1.1,0.6,1.5c0.4,0.4,0.8,0.8,1.2,1.2c5.5,5.4,10.9,10.9,16.4,16.2c4.4,4.2,8.7,8.6,13.1,12.9c7.1,7,14.2,14.2,21.4,21.1
	c4.2,4,8.2,8.1,12.3,12.2c4.2,4.1,8.3,8.3,12.5,12.4c3.5,3.4,6.9,6.8,10.4,10.2c6.1,5.9,12.1,12,18.2,18c0.4,0.4,0.7,0.9,1.3,1
	c0.6-0.5,0.4-1.2,0.4-1.8c0-5.1,0-10.3,0-15.4c0-0.3,0-0.6,0-0.8c0-0.9-0.3-1.6-0.9-2.3c-0.9-0.9-1.8-1.8-2.7-2.7
	c-8.5-8.5-17.1-17-25.6-25.6c-12.4-12.4-24.9-24.8-37.3-37.2c-5.4-5.4-10.8-10.7-16.2-16.1c-7.2-7.1-14.3-14.2-21.4-21.4
	c-0.8-0.8-1.6-1.6-2.4-2.4c-0.2-0.2-0.4-0.4-0.7-0.5c-0.1-0.1-0.5,0-0.5,0.2c0,0.4-0.1,0.8-0.1,1.3C28.5,198,28.5,200.9,28.5,203.7z
	 M136.4,148.3L136.4,148.3c0-2.5,0-4.9,0-7.4c0-0.6,0-1.1-0.1-1.7c0-0.5-0.2-1-0.6-1.3c-0.5-0.5-1-1-1.5-1.5
	c-6.9-6.9-13.8-13.8-20.7-20.6c-6.9-6.9-13.8-13.8-20.7-20.6c-8.8-8.6-17.4-17.3-26.1-26C54.9,57.3,43,45.4,31,33.5
	c-0.5-0.5-1-1-1.5-1.5c-0.2-0.1-0.3-0.3-0.5-0.3c-0.1,0-0.3,0.1-0.3,0.1c-0.1,0.5-0.1,1-0.1,1.5c0,5.4,0,10.9,0,16.3
	c0,2.7-0.2,2.4,1.9,4.4c7.8,7.6,15.4,15.3,23.2,22.9C65.1,88,76.3,99.4,87.8,110.6c3.2,3.1,6.4,6.3,9.6,9.5
	c5.1,5.1,10.2,10.1,15.3,15.2c3.7,3.6,7.4,7.2,11,10.8c3.7,3.6,7.3,7.2,11,10.9c0.3,0.3,0.6,0.6,1,0.8c0.1,0.1,0.5,0,0.5-0.2
	c0.1-0.4,0.1-0.8,0.1-1.3C136.5,153.7,136.4,151,136.4,148.3z M75,168.8c0,7.9,0,15.8,0,23.7c0,13.2,0,26.4,0,39.6
	c0,2.5,0,2.4,1.7,4.1c3.9,3.9,7.8,7.8,11.7,11.7c0.3,0.3,0.6,0.6,0.9,0.9c0.1,0.1,0.3,0.2,0.4,0.2c0.1,0,0.3-0.1,0.3-0.2
	c0.3-0.8,0.2-1.7,0.2-2.5c0-41.7,0-83.5,0-125.2c0-0.6,0-1.1,0-1.7c0.1-1.1-0.3-1.9-1.1-2.6c-0.2-0.2-0.4-0.4-0.6-0.6
	c-2.7-2.6-5.4-5.2-8-7.8c-1.2-1.2-2.4-2.4-3.6-3.6c-0.4-0.3-0.7-0.7-1.1-1c-0.1-0.1-0.3-0.1-0.4-0.1c-0.1,0-0.3,0.2-0.3,0.3
	c-0.1,0.8-0.1,1.5-0.1,2.3C75,127.1,75,147.9,75,168.8z M82.3,25.4c16.7,0,33.5,0,50.2,0c0.7,0,1.4,0,2.1,0c0.3,0,0.6,0,0.8-0.1
	c0.4-0.1,0.8-0.4,0.8-0.8c0.1-0.4,0.1-0.8,0.1-1.3c0-3.5,0-7.1,0-10.6c0-0.4,0-0.8-0.1-1.3c-0.1-0.5-0.5-0.9-1-1
	c-0.8-0.1-1.7-0.1-2.5-0.1c-33.6,0-67.2,0-100.9,0c-0.6,0-1.3,0-1.9,0c-0.3,0-0.6,0.1-0.8,0.1c-0.3,0.1-0.5,0.3-0.6,0.6
	c-0.1,0.5-0.1,1-0.1,1.5c0,3.5,0,7.1,0,10.6c0,0.4,0,0.8,0.1,1.3c0.1,0.5,0.5,0.9,1,0.9c0.8,0,1.6,0.1,2.3,0.1
	C48.7,25.4,65.5,25.4,82.3,25.4z M161.7,180.9c0-57.1,0-114.2,0-171.4c0-0.7,0-1.4,0-2.1c0-0.3,0-0.6-0.1-0.8c0-0.1-0.2-0.2-0.3-0.3
	c0,0-0.2,0-0.2,0.1c-0.7,0.8-1.4,1.5-2.1,2.3c-0.3,0.3-0.5,0.7-0.5,1.2c0,0.9-0.1,1.8-0.1,2.7c0,113.3,0,226.7,0,340
	c0,0.7,0,1.4,0,2.1c0,0.3,0,0.6,0.1,0.8c0.1,0.4,0.4,0.8,0.9,0.8c0.4,0,0.8,0.1,1.3,0c0.5,0,0.9-0.5,0.9-1c0-0.9,0.1-1.8,0.1-2.7
	C161.7,295.4,161.7,238.2,161.7,180.9z M3.5,181c0,57.1,0,114.1,0,171.2c0,0.7,0,1.4,0,2.1c0,0.4,0,0.7,0,1.1c0.1,0.6,0.5,1,1.1,1
	c0.3,0,0.6,0,0.8,0c0.7-0.1,1.1-0.4,1.1-1.1c0-1,0.1-2,0.1-3c0-113.2,0-226.4,0-339.6c0-0.6,0-1.3,0-1.9c0-0.4,0-0.7,0-1.1
	c0-0.4-0.2-0.8-0.5-1.2C6,8.5,5.8,8.3,5.6,8.1C5,7.6,4.6,6.8,3.8,6.6C3.1,7.3,3.6,8.1,3.5,8.8c-0.1,0.5,0,1,0,1.5
	C3.5,67.2,3.5,124.1,3.5,181z M71.5,48.9c0-5.6,0-11.3,0-16.9c0-0.6,0-1.3,0-1.9c0-0.3-0.1-0.6-0.1-0.8c-0.1-0.3-0.3-0.5-0.6-0.6
	c-0.6-0.1-1.3-0.1-1.9-0.1c-11.9,0-23.7,0-35.6,0c-0.5,0-1,0-1.5,0.1c-0.1,0-0.2,0.2-0.3,0.3c0,0,0,0.2,0,0.2c0.5,0.5,0.9,1,1.4,1.5
	c7.3,7.3,14.7,14.6,22,22c4.9,4.9,9.9,9.9,14.8,14.8c0.4,0.4,0.7,0.7,1.1,1c0,0,0.2,0.1,0.2,0c0.1-0.1,0.3-0.2,0.3-0.3
	c0-0.6,0.1-1.3,0.1-1.9C71.5,60.5,71.5,54.7,71.5,48.9z M113.9,323c5.6,0,11.3,0,16.9,0c0.6,0,1.3,0,1.9,0c0.1,0,0.3,0,0.4-0.1
	c0.1-0.1,0.2-0.3,0.1-0.4c-0.2-0.5-0.6-0.8-0.9-1.1c-3.6-3.6-7.2-7.2-10.8-10.7c-4.1-4.1-8.3-8.1-12.4-12.1
	c-2.6-2.5-5.1-5.1-7.7-7.6c-2.2-2.2-4.4-4.4-6.6-6.5c-0.2-0.2-0.4-0.3-0.7-0.5c-0.1,0-0.3,0.1-0.3,0.2c-0.1,0.5-0.1,1-0.1,1.5
	c0,4.9,0,9.9,0,14.8c0,6.5,0,13.1,0,19.7c0,0.7,0,1.4,0.1,2.1c0,0.4,0.4,0.8,0.9,0.8c0.7,0.1,1.4,0.1,2.1,0.1
	C102.5,323,108.2,323,113.9,323z M90.2,58.5c0-8.7,0-17.5,0-26.2c0-0.6,0-1.3,0-1.9c0-1.5-0.3-1.8-1.7-1.8c-0.2,0-0.4,0-0.6,0
	c-3.5,0-6.9,0-10.4,0c-0.4,0-0.9,0-1.3,0c-0.7,0-1.1,0.4-1.1,1c0,0.6-0.1,1.1-0.1,1.7c0,13,0,25.9,0,38.9c0,2.3,0,2.2,1.6,3.9
	c4,4,8,8,12,12c0.2,0.2,0.4,0.4,0.6,0.6c0.3,0.3,0.6,0.4,0.7,0.3c0.2-0.2,0.2-0.5,0.2-0.8c0-0.6,0-1.1,0-1.7
	C90.2,75.9,90.2,67.2,90.2,58.5z M75,293.9c0,8.5,0,17.1,0,25.6c0,0.6,0,1.3,0,1.9c0.1,1.3,0.4,1.6,1.7,1.6c4,0,7.9,0,11.9,0
	c0.3,0,0.6-0.1,0.8-0.1c0.3-0.1,0.7-0.4,0.7-0.7c0.1-0.7,0.1-1.4,0.1-2.1c0-12.6,0-25.2,0-37.9c0-0.2,0-0.4,0-0.6
	c0.1-1.2-0.3-2.2-1.2-3c-0.4-0.3-0.7-0.7-1.1-1c-1.4-1.4-2.8-2.8-4.2-4.2c-2.5-2.4-5-4.8-7.5-7.2c-0.2-0.2-0.3-0.3-0.5-0.4
	c-0.1-0.1-0.3-0.1-0.4-0.1c-0.1,0-0.3,0.2-0.3,0.3c-0.1,0.7-0.1,1.4-0.1,2.1C75,276.6,75,285.2,75,293.9z M82.6,3.5
	c-24.3,0-48.6,0-72.9,0c-0.7,0-1.4,0-2.1,0c-0.3,0-0.8-0.1-1,0.3C6.4,4.2,6.8,4.4,7,4.6c0.5,0.6,1.1,1.1,1.6,1.7
	C9,6.6,9.4,6.8,9.8,6.8c0.9,0,1.8,0,2.8,0c46.7,0,93.4,0,140,0c0.7,0,1.4,0,2.1,0c0.3,0,0.6,0,0.8-0.1c0.3-0.1,0.6-0.1,0.8-0.3
	c0.8-0.6,1.5-1.3,2-2.2c0.1-0.2-0.1-0.7-0.3-0.7c-0.8,0-1.7-0.1-2.5-0.1C131.2,3.5,106.9,3.5,82.6,3.5z"/>
</svg>
