<?xml version="1.0" encoding="utf-8"?>
<!-- Generator: Adobe Illustrator 25.0.0, SVG Export Plug-In . SVG Version: 6.00 Build 0)  -->
<svg version="1.1" id="Layer_1" xmlns="http://www.w3.org/2000/svg" xmlns:xlink="http://www.w3.org/1999/xlink" x="0px" y="0px"
	 viewBox="0 0 165 360" style="enable-background:new 0 0 165 360;" xml:space="preserve">
<g>
	<path d="M165,180.2c0,58.3,0,116.5,0,174.8c0,0.9,0,1.8,0,2.8c0,0.4-0.1,0.7-0.2,1c-0.2,0.7-0.7,1.1-1.4,1.2
		c-0.3,0-0.6,0.1-0.8,0.1c-0.7,0-1.4,0-2.1,0c-51.9,0-103.9,0-155.8,0c-0.9,0-1.8,0-2.8,0c-1-0.1-1.5-0.6-1.7-1.6
		c-0.1-0.5-0.1-1-0.2-1.5c0-0.6,0-1.3,0-1.9C0,238.3,0,121.7,0,5c0-0.9,0-1.8,0.1-2.7C0.2,0.8,0.9,0.1,2.4,0C3.1,0,3.9,0,4.7,0
		c21.5,0,43,0,64.5,0c30.4,0,60.8,0,91.1,0c0.7,0,1.4,0,2.1,0c0.4,0,0.7,0,1,0.1c0.7,0.2,1.2,0.7,1.4,1.4c0.1,0.3,0.1,0.7,0.1,1.1
		c0,0.8,0,1.6,0,2.3C165,63.4,165,121.8,165,180.2z M71.7,99.5c0-22.4,0-44.7,0-67.1c0-0.7,0-1.4,0-2.1c0-0.3,0-0.6-0.1-0.8
		c-0.1-0.4-0.5-0.8-0.9-0.8c-0.5,0-1-0.1-1.5-0.1c-12.7,0-25.4,0-38.1,0c-0.4,0-0.9,0-1.3,0c-0.7,0-1.1,0.4-1.1,1
		c0,0.7-0.1,1.4-0.1,2.1c0,45.1,0,90.3,0,135.4c0,0.6,0,1.1,0,1.7c0,0.3,0,0.6,0.1,0.8c0.1,0.4,0.4,0.8,0.9,0.8
		c0.8,0.1,1.5,0.1,2.3,0.1c8.2,0,16.5,0,24.7,0c3.9,0,7.9,0,11.8,0c0.6,0,1.3,0,1.9-0.1c0.7,0,1.1-0.5,1.1-1.1
		c0-0.8,0.1-1.6,0.1-2.3C71.7,144.7,71.7,122.1,71.7,99.5z M136.2,99.8c0-2.3,0-4.5,0-6.8c0-20.3,0-40.6,0-60.9c0-0.8,0-1.6-0.1-2.3
		c0-0.7-0.4-1.1-1.1-1.1c-0.5,0-1-0.1-1.5-0.1c-12.5,0-25.1,0-37.6,0c-0.5,0-1,0-1.5,0.1c-0.5,0-0.9,0.4-0.9,1
		c0,0.9-0.1,1.8-0.1,2.7c0,44.8,0,89.5,0,134.3c0,0.7,0,1.4,0,2.1c0,0.3,0,0.6,0.1,0.8c0.1,0.5,0.5,0.9,1,0.9
		c0.8,0.1,1.6,0.1,2.3,0.1c11.9,0,23.8,0,35.7,0c0.6,0,1.1,0,1.7,0c0.3,0,0.6-0.1,0.8-0.1c0.5-0.1,0.9-0.5,0.9-1
		c0.1-0.8,0.1-1.7,0.1-2.5C136.2,144.6,136.2,122.2,136.2,99.8z M10.3,183.3c0,56.4,0,112.8,0,169.3c0,0.9,0,1.7,0,2.5
		c0,1.3,0.3,1.6,1.6,1.6c3.9,0,7.8,0,11.6,0c0.3,0,0.6,0,0.8-0.1c0.4,0,0.8-0.4,0.8-0.8c0.1-0.8,0.1-1.7,0.1-2.5
		c0-113.2,0-226.4,0-339.6c0-0.6,0-1.3,0-1.9c0-0.3-0.1-0.6-0.1-0.8c-0.1-0.3-0.3-0.5-0.6-0.6c-0.4-0.1-0.8-0.1-1.3-0.1
		c-3.7,0-7.5,0-11.2,0c-0.3,0-0.6,0-0.8,0.1c-0.5,0.1-0.9,0.4-0.9,1c0,0.9-0.1,1.8-0.1,2.7C10.3,70.5,10.3,126.9,10.3,183.3z
		 M154.7,183.6c0-56.3,0-112.6,0-168.9c0-0.8,0-1.6,0-2.3c0-1.8-0.2-2-2.1-2c-3.6,0-7.2,0-10.8,0c-0.4,0-0.8,0-1.3,0.1
		c-0.4,0-0.8,0.4-0.8,0.9c0,0.8-0.1,1.7-0.1,2.5c0,53.8,0,107.5,0,161.3c0,0.6,0,1.3,0,1.9c0,0.3,0,0.6,0.1,0.8
		c0,0.3,0.4,0.7,0.7,0.7c0.7,0,1.4,0,2.1,0.1c0.5,0,1-0.1,1.4-0.5c0.6-0.6,1.4-1,2.2-1.1c2.6-0.4,4.1,0.4,5.2,2.3
		c0.5,0.9,0.8,1.8,0.7,2.8c-0.2,1.9-1.5,4.1-4,4.6c-0.6,0.1-1.1,0.2-1.7,0c-0.9-0.2-1.8-0.5-2.5-1.1c-0.4-0.4-0.9-0.5-1.4-0.5
		c-0.6,0-1.3,0-1.9,0c-0.6,0-1,0.4-1,0.9c0,0.8-0.1,1.7-0.1,2.5c0,28.1,0,56.3,0,84.4c0,26.7,0,53.5,0,80.2c0,0.8,0,1.6,0,2.3
		c0,0.7,0.4,1.1,1,1.1c0.4,0,0.8,0,1.3,0c3.5,0,6.9,0,10.4,0c0.4,0,0.7,0,1.1,0c0.9,0,1.2-0.4,1.3-1.3c0-0.9,0-1.8,0-2.8
		C154.7,296.3,154.7,239.9,154.7,183.6z M71.7,278.2c0-14,0-27.9,0-41.9c0-3,0-2.9-3-2.9c-12.3,0-24.7,0-37,0c-0.6,0-1.3,0-1.9,0.1
		c-0.6,0-1,0.4-1,0.9c-0.1,0.8-0.1,1.7-0.1,2.5c0,27.5,0,55,0,82.5c0,0.6,0,1.3,0,1.9c0,0.3,0.1,0.6,0.1,0.8
		c0.1,0.3,0.4,0.7,0.7,0.7c0.8,0,1.6,0.1,2.3,0.1c11.6,0,23.1,0,34.7,0c0.9,0,1.8,0,2.8,0c0.4,0,0.8,0,1.3-0.1c0.5,0,1-0.4,1-0.9
		c0-0.8,0.1-1.6,0.1-2.3C71.7,305.8,71.7,292,71.7,278.2z M93.5,277.9c0,13.8,0,27.5,0,41.3c0,0.6,0,1.3,0,1.9
		c0,1.5,0.3,1.8,1.7,1.8c0.4,0,0.9,0,1.3,0c3.2,0,6.5,0,9.7,0c9,0,17.9,0,26.9,0c0.6,0,1.3,0,1.9,0c0.7,0,1.1-0.5,1.2-1.2
		c0-0.8,0.1-1.7,0.1-2.5c0-27.3,0-54.6,0-81.9c0-0.5,0-1,0-1.5c0-0.3,0-0.6,0-0.8c-0.1-1.1-0.4-1.4-1.4-1.5c-0.4,0-0.8,0-1.3,0
		c-12.5,0-25,0-37.4,0c-0.4,0-0.9,0-1.3,0c-0.9,0.1-1.2,0.4-1.3,1.4c0,0.7,0,1.4,0,2.1C93.5,250.6,93.5,264.3,93.5,277.9z
		 M82.3,356.8c16.7,0,33.4,0,50.1,0c0.7,0,1.4,0,2.1,0c0.3,0,0.6-0.1,0.8-0.1c0.3-0.1,0.7-0.4,0.7-0.7c0.1-0.8,0.1-1.5,0.1-2.3
		c0-7.1,0-14.2,0-21.4c0-1.1,0-2.3,0-3.4c0-0.4,0-0.8-0.1-1.3c-0.1-0.6-0.5-1.1-1.1-1.1c-0.7-0.1-1.4-0.1-2.1-0.1
		c-33.7,0-67.3,0-101,0c-0.5,0-1,0-1.5,0c-1.2,0.1-1.5,0.4-1.6,1.5c0,0.4,0,0.7,0,1.1c0,8.5,0,16.9,0,25.4c0,0.5,0,1,0.1,1.5
		c0,0.4,0.4,0.8,0.8,0.8c0.8,0,1.6,0.1,2.3,0.1C48.8,356.8,65.6,356.8,82.3,356.8z M90,99.8c0-22.4,0-44.9,0-67.3c0-0.8,0-1.6,0-2.3
		c0-0.3,0-0.6-0.1-0.8c-0.1-0.3-0.3-0.5-0.6-0.6c-0.4-0.1-0.8-0.1-1.3-0.1c-3.7,0-7.3,0-11,0c-0.4,0-0.7,0-1.1,0.1
		c-0.5,0.1-0.9,0.5-0.9,1c0,0.8-0.1,1.6-0.1,2.3c0,45.1,0,90.1,0,135.2c0,0.6,0,1.1,0,1.7c0,0.3,0,0.6,0.1,0.8
		c0.1,0.4,0.4,0.8,0.8,0.8c0.4,0.1,0.8,0.1,1.3,0.1c3.5,0,7,0,10.6,0c0.4,0,0.8,0,1.3-0.1c0.5-0.1,0.9-0.5,0.9-1
		c0.1-0.8,0.1-1.7,0.1-2.5C90,144.6,90,122.2,90,99.8z M82.4,211.6c16.6,0,33.3,0,49.9,0c0.7,0,1.4,0,2.1,0c0.3,0,0.6,0,0.8-0.1
		c0.4-0.1,0.8-0.4,0.8-0.8c0.1-0.5,0.1-1,0.1-1.5c0-4.7,0-9.3,0-14c0-0.5,0-1-0.1-1.5c-0.1-0.5-0.5-0.9-1-0.9
		c-0.8,0-1.7-0.1-2.5-0.1c-33.4,0-66.8,0-100.2,0c-0.5,0-1,0-1.5,0c-1.9,0-2,0.2-2.1,2.1c0,4.9,0,9.7,0,14.6c0,0.4,0,0.8,0.1,1.3
		c0,0.4,0.4,0.8,0.9,0.8c0.8,0,1.6,0.1,2.3,0.1C48.9,211.6,65.6,211.6,82.4,211.6z M82.3,189.5c7.7,0,15.4,0,23,0
		c9.2,0,18.5,0,27.7,0c0.7,0,1.4,0,2.1-0.1c0.4,0,0.8-0.4,0.9-0.8c0.2-0.9,0.2-1.8,0-2.7c-0.1-0.4-0.5-0.7-0.9-0.8
		c-0.8-0.1-1.6-0.1-2.3-0.1c-0.9,0-1.7-0.3-2.4-0.7c-0.3-0.2-0.6-0.4-0.8-0.7c-1-1.5-0.9-2.6-0.1-3.9c0.2-0.3,0.5-0.5,0.8-0.7
		c0.8-0.4,1.6-0.6,2.4-0.6c0.8,0,1.7,0,2.5-0.1c0.4,0,0.8-0.4,0.8-0.8c0.1-0.8,0.1-1.7,0-2.5c-0.1-0.5-0.5-0.9-1-0.9
		c-0.8,0-1.6-0.1-2.3-0.1c-33.5,0-67.1,0-100.6,0c-0.6,0-1.3,0-1.9,0c-1.1,0-1.4,0.4-1.4,1.4c0,0.2,0,0.4,0,0.6c0,3.8,0,7.6,0,11.4
		c0,0.4,0,0.7,0.1,1.1c0,0.4,0.4,0.8,0.8,0.8c0.8,0,1.6,0.1,2.3,0.1C48.8,189.5,65.6,189.5,82.3,189.5z M82.4,25.4
		c16.7,0,33.4,0,50.1,0c0.8,0,1.6,0,2.3,0c0.8,0,1.2-0.4,1.2-1.2c0-0.3,0-0.6,0-0.8c0-3.7,0-7.3,0-11c0-0.3,0-0.6-0.1-0.8
		c-0.1-0.6-0.5-1.1-1.1-1.1c-0.8,0-1.6-0.1-2.3-0.1c-33.5,0-67,0-100.4,0c-0.6,0-1.1,0-1.7,0c-0.3,0-0.6,0-0.8,0.1
		c-0.4,0.1-0.8,0.4-0.9,0.8c0,0.5-0.1,1-0.1,1.5c0,3.5,0,6.9,0,10.4c0,0.4,0,0.8,0.1,1.3c0,0.6,0.4,0.9,0.9,1c0.8,0,1.6,0.1,2.3,0.1
		C48.9,25.4,65.7,25.4,82.4,25.4z M82.5,214.8c-16.8,0-33.5,0-50.3,0c-0.8,0-1.6,0-2.3,0c-0.6,0-0.9,0.4-1,0.9
		c0,0.2-0.1,0.4-0.1,0.6c0,3.9,0,7.9,0,11.8c0,0.3,0,0.6,0.1,0.8c0.1,0.4,0.4,0.7,0.7,0.7c0.8,0.1,1.5,0.1,2.3,0.1
		c33.7,0,67.3,0,101,0c0.6,0,1.1,0,1.7,0c1-0.1,1.4-0.5,1.5-1.4c0-0.2,0-0.4,0-0.6c0-3.7,0-7.5,0-11.2c0-0.4-0.1-0.7-0.1-1.1
		c0-0.3-0.4-0.7-0.7-0.7c-0.8-0.1-1.5-0.1-2.3-0.1C116.2,214.8,99.3,214.8,82.5,214.8z M75,278.2c0,13.6,0,27.2,0,40.8
		c0,0.6,0,1.3,0,1.9c0,1.9,0.2,2,2.1,2c3.6,0,7.2,0,10.8,0c0.1,0,0.1,0,0.2,0c1.7,0,1.9-0.2,1.9-2c0-0.5,0-1,0-1.5
		c0-27.5,0-55,0-82.5c0-0.6,0-1.3,0-1.9c0-0.3-0.1-0.6-0.1-0.8c-0.1-0.3-0.4-0.6-0.7-0.7c-0.4,0-0.7-0.1-1.1-0.1
		c-3.7,0-7.5,0-11.2,0c-0.1,0-0.1,0-0.2,0c-1.4,0-1.6,0.3-1.7,1.6c0,0.7,0,1.4,0,2.1C75,250.8,75,264.5,75,278.2z M3.5,181.2
		c0,57.1,0,114.1,0,171.2c0,0.7,0,1.4,0,2.1c0,2.1,0.2,2.3,2.3,2.2c0.1,0,0.1,0,0.2,0c0.5,0,0.9-0.4,1-0.9C7,354.9,7,354,7,353
		c0-76.2,0-152.5,0-228.7C7,87.1,7,49.8,7,12.6c0-0.8,0-1.6,0-2.3c0-0.5-0.2-1-0.5-1.4C5.7,8.1,5,7.4,4.2,6.7
		C4.1,6.6,3.9,6.6,3.8,6.6C3.5,6.6,3.5,6.9,3.5,7.1c0,0.9,0,1.7,0,2.5C3.5,66.8,3.5,124,3.5,181.2z M161.5,181.4
		c0-57.1,0-114.3,0-171.4c0-0.7,0-1.4,0-2.1c0-0.3,0-0.6,0-0.8c0-0.3-0.2-0.5-0.3-0.5c-0.1,0-0.3,0-0.4,0.1c-0.7,0.6-1.3,1.3-2,1.9
		c-0.4,0.4-0.5,0.8-0.6,1.3c0,0.8,0,1.7,0,2.5c0,113.5,0,227.1,0,340.7c0,0.6,0,1.3,0,1.9c0,0.3,0,0.6,0.1,0.8
		c0.1,0.4,0.4,0.8,0.9,0.8c0.4,0,0.8,0,1.3,0c0.6,0,1-0.4,1-0.9c0.1-0.9,0.1-1.8,0.1-2.7C161.5,295.8,161.5,238.6,161.5,181.4z
		 M82.5,3.5c-16.5,0-33,0-49.5,0c-8,0-16.1,0-24.1,0c-0.7,0-1.4,0-2.1,0.1c-0.1,0-0.2,0.2-0.3,0.3c0,0.1,0,0.2,0,0.2
		c0.7,0.8,1.5,1.5,2.2,2.3C9.1,6.6,9.5,6.8,10,6.8c0.9,0,1.8,0.1,2.7,0.1c46.5,0,93,0,139.5,0c0.6,0,1.3,0,1.9,0
		c0.4,0,0.7,0,1.1-0.1c0.3-0.1,0.7-0.2,1-0.4c0.8-0.7,1.5-1.5,2.2-2.2c0.1-0.1,0-0.5-0.2-0.5c-0.8,0-1.5-0.1-2.3-0.1
		C131.4,3.5,107,3.5,82.5,3.5z"/>
	<path d="M147.2,192.1c2.4,0,4.2,1.5,4.8,3.6c0.6,2-0.6,5-3.1,5.8c-2.1,0.6-3.9,0.3-5.4-1.3c-1.7-1.8-1.6-4.7,0.1-6.5
		C144.6,192.6,145.8,192.1,147.2,192.1z"/>
</g>
</svg>
