<?xml version="1.0" encoding="utf-8"?>
<!-- Generator: Adobe Illustrator 25.0.0, SVG Export Plug-In . SVG Version: 6.00 Build 0)  -->
<svg version="1.1" id="Layer_1" xmlns="http://www.w3.org/2000/svg" xmlns:xlink="http://www.w3.org/1999/xlink" x="0px" y="0px"
	 viewBox="0 0 165 360" style="enable-background:new 0 0 165 360;" xml:space="preserve">
<g>
	<path d="M0,179.8C0,121.4,0,63,0,4.6c0-0.9,0-1.8,0-2.8c0-0.9,0.7-1.6,1.8-1.8C2.1,0,2.4,0,2.7,0c0.6,0,1.3,0,1.9,0
		c51.9,0,103.9,0,155.8,0c0.6,0,1.3,0,1.9,0c0.4,0,0.7,0,1.1,0.1c0.8,0.1,1.4,0.7,1.6,1.5c0.1,0.3,0.1,0.6,0.1,0.8
		c0,0.7,0,1.4,0,2.1c0,117,0,234,0,350.9c0,0.8,0,1.6,0,2.3c-0.1,1.3-0.8,2-2.1,2.1c-0.4,0-0.7,0-1.1,0c-0.6,0-1.1,0-1.7,0
		c-51.7,0-103.5,0-155.2,0c-0.8,0-1.6,0-2.3,0c-0.4,0-0.7-0.1-1.1-0.1c-0.8-0.2-1.4-0.8-1.5-1.6c0-0.4-0.1-0.7-0.1-1.1
		c0-0.8,0-1.6,0-2.3C0,296.5,0,238.2,0,179.8z M82.4,323c16.9,0,33.7,0,50.6,0c0.8,0,1.6,0,2.3-0.1c0.5,0,0.9-0.4,1-0.9
		c0-0.8,0.1-1.6,0.1-2.3c0-24.3,0-48.5,0-72.8c0-1.8,0-3.5,0-5.3c0-0.5,0-1,0-1.5c0-0.7-0.4-1.1-1-1.1c-0.7,0-1.4,0-2.1,0
		c-10.4,0-20.7,0-31.1,0c-23.3,0-46.6,0-69.8,0c-0.8,0-1.7,0-2.5,0.1c-0.6,0-0.9,0.4-1,0.9c0,0.8-0.1,1.6-0.1,2.3
		c0,25.8,0,51.6,0,77.4c0,0.5,0,1,0,1.5c0,0.2,0,0.4,0,0.6c0.1,0.7,0.4,1.1,1,1.1c0.8,0,1.6,0,2.3,0C48.8,323,65.6,323,82.4,323z
		 M82.5,28.5c-16.7,0-33.4,0-50.2,0c-0.7,0-1.4,0-2.1,0c-0.3,0-0.6,0.1-0.8,0.1c-0.3,0-0.7,0.4-0.7,0.7c0,0.8-0.1,1.7-0.1,2.5
		c0,24.3,0,48.7,0,73c0,1.5,0,3,0,4.4c0,0.5,0,1,0.1,1.5c0,0.5,0.4,0.9,1,1c0.8,0.1,1.7,0.1,2.5,0.1c33.5,0,67,0,100.5,0
		c0.6,0,1.3,0,1.9,0c0.3,0,0.6,0,0.8-0.1c0.4-0.1,0.8-0.5,0.8-0.9c0-0.8,0.1-1.7,0.1-2.5c0-25.5,0-50.9,0-76.4c0-0.6,0-1.1,0-1.7
		c0-0.3,0-0.6-0.1-0.8c-0.1-0.4-0.4-0.8-0.8-0.8c-0.8-0.1-1.7-0.1-2.5-0.1C116.1,28.5,99.3,28.5,82.5,28.5z M82.4,217.2
		c16.7,0,33.4,0,50.2,0c0.6,0,1.3,0,1.9,0c0.3,0,0.6,0,0.8-0.1c0.5-0.1,1-0.4,1-0.9c0-0.7,0.1-1.4,0.1-2.1c0-8.6,0-17.2,0-25.8
		c0-0.4,0-0.9,0-1.3c0-1.6-0.3-1.8-1.8-1.9c-0.8,0-1.7,0-2.5-0.1c-1.6-0.2-2.7-1.1-3-2.8c-0.3-1.1,0.4-2.9,1.5-3.4
		c0.7-0.3,1.4-0.6,2.2-0.6c0.9,0,1.8,0,2.7-0.1c0.4,0,0.8-0.4,0.8-0.8c0-0.8,0.1-1.6,0.1-2.3c0-10.8,0-21.6,0-32.4
		c0-2.1,0-4.2,0-6.4c0-0.5,0-1-0.1-1.5c0-0.4-0.4-0.8-0.8-0.8c-0.8-0.1-1.7-0.1-2.5-0.1c-33.6,0-67.2,0-100.8,0c-0.6,0-1.3,0-1.9,0
		c-0.3,0-0.6,0.1-0.8,0.1c-0.3,0.1-0.7,0.5-0.7,0.7c0,0.8-0.1,1.7-0.1,2.5c0,25.5,0,51.1,0,76.6c0,0.6,0,1.3,0,1.9
		c0,0.2,0.1,0.4,0.1,0.6c0.1,0.3,0.4,0.7,0.7,0.7c0.8,0,1.7,0.1,2.5,0.1C48.8,217.2,65.6,217.2,82.4,217.2z M10.3,183.2
		c0,56.3,0,112.6,0,168.9c0,0.8,0,1.6,0,2.3c0,1.8,0.3,2,2.1,2c3.5,0,7.1,0,10.6,0c0.4,0,0.7,0,1.1-0.1c0.5-0.1,0.9-0.4,1-1
		c0.1-0.8,0.1-1.7,0.1-2.5c0-113.2,0-226.3,0-339.5c0-0.5,0-1,0-1.5c0-1.7-0.3-2-1.9-2c-0.1,0-0.3,0-0.4,0c-3.4,0-6.8,0-10.2,0
		c-0.4,0-0.8,0-1.3,0.1c-0.5,0-0.9,0.4-1,0.9c-0.1,1-0.1,2-0.1,3C10.3,70.4,10.3,126.8,10.3,183.2z M154.7,183.4
		c0-56.4,0-112.7,0-169.1c0-0.8,0-1.6,0-2.3c0-1.8-0.2-2-2.1-2c-3.7,0-7.3,0-11,0c-0.4,0-0.7,0-1.1,0.1c-0.4,0-0.8,0.4-0.8,0.8
		c0,0.8-0.1,1.7-0.1,2.5c0,53.8,0,107.5,0,161.3c0,0.6,0,1.3,0,1.9c0,0.3,0,0.6,0.1,0.8c0,0.3,0.4,0.7,0.7,0.7
		c0.6,0,1.3,0.1,1.9,0.1c0.7,0,1.4-0.1,2-0.6c0.6-0.4,1.3-0.6,1.9-0.8c1.4-0.3,2.7,0,3.8,0.8c1,0.7,1.7,1.7,2,2.9
		c0.4,1.4,0,2.7-0.7,3.8c-0.8,1.3-2.1,2-3.7,2.1c-1.2,0.1-2.2-0.2-3.2-0.8c-0.4-0.2-0.8-0.5-1.1-0.5c-0.9-0.1-1.8,0-2.7,0
		c-0.4,0-0.8,0.4-0.8,0.8c0,0.8-0.1,1.7-0.1,2.5c0,54.8,0,109.6,0,164.4c0,0.7,0,1.4,0,2.1c0,0.2,0.1,0.4,0.1,0.6
		c0.1,0.3,0.3,0.5,0.6,0.6c0.5,0.1,1,0.1,1.5,0.1c3.5,0,7.1,0,10.6,0c0.4,0,0.8,0,1.3-0.1c0.5-0.1,0.9-0.4,1-1
		c0.1-0.9,0.1-1.8,0.1-2.7C154.7,296.3,154.7,239.9,154.7,183.4z M82.4,356.5c16.7,0,33.4,0,50.1,0c0.6,0,1.3,0,1.9,0
		c0.3,0,0.6,0,0.8,0c0.5-0.1,1-0.4,1-0.9c0-0.5,0.1-1,0.1-1.5c0-8.3,0-16.6,0-25c0-0.4,0-0.9,0-1.3c0-0.8-0.4-1.2-1.2-1.2
		c-0.8,0-1.7-0.1-2.5-0.1c-24.5,0-49.1,0-73.6,0c-9,0-17.9,0-26.9,0c-0.8,0-1.6,0-2.3,0.1c-0.7,0-1.1,0.4-1.1,1.1c0,0.4,0,0.7,0,1.1
		c0,8.6,0,17.2,0,25.8c0,0.4,0,0.7,0.1,1.1c0,0.4,0.4,0.8,0.8,0.9c0.8,0.1,1.7,0.1,2.5,0.1C48.8,356.5,65.6,356.5,82.4,356.5z
		 M82.5,235.8c16.8,0,33.6,0,50.4,0c0.7,0,1.4,0,2.1,0c0.2,0,0.4,0,0.6-0.1c0.3-0.1,0.5-0.3,0.6-0.6c0.1-0.3,0.1-0.7,0.1-1
		c0-3.8,0-7.6,0-11.4c0-0.2,0-0.4,0-0.6c-0.1-0.8-0.4-1.2-1.2-1.2c-0.7,0-1.4,0-2.1,0c-33.7,0-67.5,0-101.2,0c-0.6,0-1.1,0-1.7,0
		c-0.3,0-0.6,0.1-0.8,0.1c-0.3,0.1-0.5,0.3-0.6,0.6c-0.1,0.4-0.1,0.8-0.1,1.3c0,3.7,0,7.5,0,11.2c0,0.3,0,0.6,0,0.8
		c0,0.6,0.4,1,0.9,1c0.8,0,1.6,0.1,2.3,0.1C48.8,235.8,65.7,235.8,82.5,235.8z M82.5,25c16.7,0,33.4,0,50.2,0c0.7,0,1.4,0,2.1,0
		c0.3,0,0.6-0.1,0.8-0.1c0.3-0.1,0.5-0.3,0.6-0.6c0.1-0.4,0.1-0.8,0.1-1.3c0-3.7,0-7.5,0-11.2c0-0.3,0-0.6,0-0.8c0-0.6-0.4-1-0.9-1
		c-0.7,0-1.4-0.1-2.1-0.1c-33.9,0-67.7,0-101.6,0c-0.6,0-1.1,0-1.7,0c-0.2,0-0.4,0-0.6,0.1c-0.3,0.1-0.5,0.3-0.6,0.6
		c-0.1,0.3-0.1,0.7-0.1,1c0,3.9,0,7.8,0,11.6c0,0.2,0,0.4,0,0.6c0.1,0.6,0.4,1,0.9,1c0.8,0.1,1.7,0.1,2.5,0.1C49,25,65.8,25,82.5,25
		z M82.8,115.4c-16.7,0-33.4,0-50.2,0c-0.6,0-1.3,0-1.9,0c-1.9,0-2,0.2-2,2.1c0,3.6,0,7.2,0,10.8c0,0.4,0,0.8,0.1,1.3
		c0,0.4,0.4,0.8,0.8,0.8c0.8,0,1.7,0.1,2.5,0.1c33.6,0,67.2,0,100.7,0c0.6,0,1.3,0,1.9,0c1.3,0,1.6-0.3,1.6-1.7c0-3.9,0-7.8,0-11.6
		c0-0.3,0-0.6-0.1-0.8c-0.1-0.4-0.4-0.8-0.8-0.8c-0.8,0-1.6-0.1-2.3-0.1C116.3,115.4,99.5,115.4,82.8,115.4z M3.3,180.9
		c0,57.2,0,114.3,0,171.5c0,0.7,0,1.4,0,2.1c0,1.9,0.3,2.1,2.1,2c0.1,0,0.3,0,0.4,0c0.5-0.1,0.9-0.4,1-0.9c0-1,0.1-2,0.1-3
		c0-113.2,0-226.5,0-339.8c0-0.6,0-1.3,0-1.9c0-0.4,0-0.7,0-1.1c0-0.4-0.2-0.8-0.5-1.1C5.5,7.9,4.7,7.1,3.9,6.3
		c-0.1-0.1-0.3-0.1-0.4,0C3.4,6.4,3.3,6.6,3.3,6.7c0,0.9,0,1.7,0,2.5C3.3,66.4,3.3,123.7,3.3,180.9z M161.5,181.1
		c0-50.8,0-101.6,0-152.4c0-6.5,0-13,0-19.5c0-0.7,0-1.4-0.1-2.1c0-0.1-0.1-0.3-0.2-0.4c-0.1-0.1-0.3-0.2-0.4-0.1
		c-0.5,0.1-0.8,0.6-1.2,0.9c-1.6,1.5-1.6,1.5-1.6,3.7c0,0.3,0,0.6,0,0.8c0,113.7,0,227.4,0,341.1c0,0.6,0,1.1,0,1.7
		c0,1.3,0.4,1.6,1.6,1.6c0.2,0,0.4,0,0.6-0.1c0.5-0.1,0.9-0.4,1-1c0.1-1,0.1-2,0.1-3C161.5,295.4,161.5,238.2,161.5,181.1z
		 M82.5,3.5c-24.2,0-48.4,0-72.6,0c-0.6,0-1.3,0-1.9,0c-0.3,0-0.6,0-0.8,0c-0.3,0-0.5,0.2-0.5,0.3c0,0.1,0,0.3,0.1,0.4
		C7.4,4.9,8,5.5,8.6,6c0.5,0.5,1.1,0.7,1.7,0.7c0.8,0,1.7,0,2.5,0c46.4,0,92.8,0,139.2,0c0.6,0,1.3,0,1.9,0c0.3,0,0.6,0,0.8,0
		c0.5,0,1-0.2,1.4-0.5c0.2-0.2,0.5-0.4,0.6-0.6c0.5-0.6,1.3-0.9,1.5-1.7c0.1-0.3-0.4-0.4-2.2-0.4c-0.5,0-1,0-1.5,0
		C130.6,3.5,106.6,3.5,82.5,3.5z"/>
	<path d="M146.8,191.8c2.6,0.1,4.4,1.3,5.1,3.6c0.6,2-0.5,4.6-2,5.6c-1.7,1.2-4.6,1.2-6.2-0.7c-1.4-1.7-1.8-3.5-1.1-5.5
		c0.5-1.3,1.3-2.1,2.6-2.6C145.9,192,146.5,191.9,146.8,191.8z"/>
</g>
</svg>
