<?xml version="1.0" encoding="utf-8"?>
<!-- Generator: Adobe Illustrator 23.0.4, SVG Export Plug-In . SVG Version: 6.00 Build 0)  -->
<svg version="1.1" id="Layer_1" xmlns="http://www.w3.org/2000/svg" xmlns:xlink="http://www.w3.org/1999/xlink" x="0px" y="0px"
	 viewBox="0 0 165 360" style="enable-background:new 0 0 165 360;" xml:space="preserve">
<g>
	
		<image style="overflow:visible;enable-background:new    ;" width="1235" height="2722" xlink:href="563D22E183AC71E.jpg"  transform="matrix(0.1285 0 0 0.1306 2.6188 1.9587)">
	</image>
	<g>
		<path d="M151.7,194.7c-0.1-0.3-0.2-0.5-0.5-0.7c-0.9-0.8-1.8-1.6-3.1-1.8c-0.1,0-0.3-0.1-0.4-0.1c-0.2,0-0.5-0.1-0.7,0
			c-1.2,0.3-2.3,0.7-3.2,1.6c-0.1,0.1-0.2,0.2-0.3,0.3c-0.2,0.2-0.3,0.4-0.4,0.6c-0.4,1.2-0.8,2.4-0.2,3.7c0.1,0.7,0.4,1.2,0.9,1.6
			c0.2,0.2,0.4,0.3,0.5,0.5c0.8,1,1.9,1,3,1.3c0.2,0,0.4,0,0.6-0.1c1.1-0.3,2.2-0.6,2.9-1.6c0.1-0.2,0.3-0.3,0.5-0.5
			c0.2-0.2,0.3-0.5,0.4-0.7c0.6-1.7,0.6-1.9,0.1-3.7C151.8,195,151.7,194.9,151.7,194.7z"/>
		<path d="M164.8,2.4c0-0.2,0-0.5,0-0.7c-0.1-0.8-0.5-1.3-1.3-1.3c-0.6,0-1.2,0-1.8,0c-52.8,0-105.6,0-158.3,0c-0.4,0-0.8,0-1.2,0
			c-0.2,0-0.5,0-0.7,0c-0.6,0-1.2,0.6-1.2,1.3c0,0.6,0,1.2,0,1.8c0,58.9,0,117.8,0,176.7c0,58.8,0,117.6,0,176.4c0,0.4,0,0.9,0,1.3
			c0,0.2,0,0.5,0,0.7c0,0.6,0.5,1.2,1.2,1.2c0.6,0,1.3,0,1.9,0c52.8,0,105.6,0,158.3,0c0.4,0,0.9,0,1.3,0c0.2,0,0.5,0,0.7-0.1
			c0.5-0.1,0.8-0.4,0.9-0.9c0.1-0.2,0.1-0.5,0.1-0.7c0-0.5,0-1,0-1.5c0-117.7,0-235.4,0-353.1C164.8,3.2,164.8,2.8,164.8,2.4z
			 M6.8,9.9c0,26.9,0,53.7,0,80.6c0,88,0,176,0,264c0,0.7,0,1.4-0.1,2c0,0.2-0.2,0.4-0.4,0.4c-1,0-1.9,0-2.9,0
			c-0.2,0-0.3-0.2-0.4-0.4c0-0.2,0-0.4,0-0.6c0-0.5,0-1.1,0-1.6c0-58,0-116,0-174.1C3,122.2,3,64.1,3,6c0-0.3,0-0.6,0-0.9l3.8,3.8
			C6.8,9.2,6.8,9.5,6.8,9.9z M25.3,354.6c0,0.6,0,1.2,0,1.8c0,0.4-0.2,0.5-0.5,0.6c-0.2,0-0.5,0-0.7,0c-4.4,0-8.7,0-13.1,0
			c-0.3,0-0.7,0-1-0.1c-0.1,0-0.2-0.1-0.2-0.2c-0.1-0.1-0.1-0.3-0.1-0.4c0-0.4,0-0.9,0-1.3c0-114.4,0-228.8,0-343.2
			c0-2.2-0.3-2,1.9-2c4.1,0,8.2,0,12.3,0c1.4,0,1.4,0,1.4,1.4c0,0.5,0,1,0,1.5c0,56.9,0,113.8,0,170.7
			C25.3,240.3,25.3,297.5,25.3,354.6z M136.5,356.5c0,0.2-0.2,0.4-0.5,0.4c-0.4,0-0.8,0-1.2,0c-35,0-70,0-105,0c-0.4,0-0.8,0-1.2,0
			c-0.3,0-0.4-0.2-0.4-0.5c0-0.4,0-0.8,0-1.2c0-9.1,0-18.3,0-27.4c0-1.8-0.2-1.7,1.6-1.7c17.6,0,35.1,0,52.7,0c17.4,0,34.7,0,52.1,0
			c0.5,0,1.1,0,1.6,0c0.2,0,0.4,0.2,0.4,0.4c0,0.3,0,0.7,0,1c0,9.3,0,18.5,0,27.8C136.5,355.8,136.5,356.2,136.5,356.5z M136.5,321
			c0,0.6,0,1.2,0,1.8c0,0.4-0.2,0.5-0.5,0.6c-0.2,0-0.4,0-0.6,0c-0.4,0-0.8,0-1.2,0c-34.6,0-69.3,0-103.9,0c-0.6,0-1.2,0-1.8,0
			c-0.2,0-0.4-0.2-0.4-0.4c0-0.1,0-0.3,0-0.4c0-0.5,0-1.1,0-1.6c0-48.4,0-96.9,0-145.3c0-48.4,0-96.8,0-145.2c0-0.6,0-1.2,0-1.8
			c0-0.2,0.2-0.4,0.5-0.4c0.4,0,0.8,0,1.2,0c35,0,70.1,0,105.1,0c0.3,0,0.7,0,1,0c0.4,0,0.6,0.2,0.6,0.6c0,0.2,0,0.4,0,0.6
			c0,0.4,0,0.8,0,1.2c0,48.5,0,97.1,0,145.6c0,0.5,0,1.1,0,1.6c0,0.6-0.1,0.7-0.7,0.7c-0.3,0-0.7,0-1,0c-0.5,0-1.1,0-1.6,0
			c-1-0.1-1.9,0.2-2.8,0.6c-0.2,0.1-0.4,0.2-0.5,0.3c-0.6,0.9-1.1,1.8-0.7,2.9c0.1,0.4,0.3,0.7,0.4,1.1c0.2,0.4,0.4,0.7,0.8,0.8
			c0.9,0.3,1.7,0.6,2.7,0.6c1,0,2,0,2.9,0c0.3,0,0.4,0.2,0.5,0.4c0,0.2,0,0.4,0,0.6c0,0.4,0,0.9,0,1.3
			C136.5,231.8,136.5,276.4,136.5,321z M28.1,11c0-0.2,0-0.5,0-0.7c0-0.3,0.2-0.5,0.4-0.5c0.1,0,0.3,0,0.4,0c0.4,0,0.8,0,1.2,0
			c34.8,0,69.6,0,104.3,0c0.5,0,1,0,1.5,0c0.3,0,0.5,0.2,0.5,0.6c0,0.3,0,0.7,0,1c0,4.1,0,8.3,0,12.4c0,0.3,0,0.7,0,1
			c0,0.3-0.2,0.5-0.6,0.5c-0.2,0-0.4,0-0.6,0c-0.4,0-0.9,0-1.3,0c-17.2,0-34.4,0-51.6,0c-17.4,0-34.8,0-52.2,0c-0.5,0-1.1,0-1.6,0
			c-0.2,0-0.4-0.2-0.4-0.4c0-0.2,0-0.5,0-0.7C28.1,19.8,28.1,15.4,28.1,11z M155.3,354.8c0,0.6,0,1.2,0,1.8c0,0.2-0.2,0.4-0.4,0.4
			c-0.2,0-0.5,0-0.7,0c-4.5,0-9,0-13.5,0c-0.3,0-0.6,0-0.9-0.1c-0.1,0-0.2-0.2-0.3-0.3c-0.1-0.1-0.1-0.3-0.1-0.4c0-0.5,0-1,0-1.5
			c0-55.9,0-111.7,0-167.6c0-0.5,0-1.1,0-1.6c0-0.5,0.3-0.6,0.7-0.6c1.1,0,2.2,0,3.4,0c0.3,0,0.6,0.1,0.8,0.3
			c0.2,0.2,0.4,0.3,0.6,0.4c0.8,0.5,1.7,0.7,2.6,0.8c0.9-0.2,1.9-0.3,2.7-1c1.7-1.4,1.3-0.9,1.9-3c0.2-0.6,0.1-1.2-0.1-1.9
			c-0.5-1.5-0.3-1.2-1.4-2.3c-0.8-0.7-1.7-0.9-2.6-1.2c-0.3-0.1-0.6-0.1-0.9,0c-0.9,0.2-1.8,0.3-2.6,1c-0.1,0.1-0.2,0.2-0.4,0.3
			c-0.2,0.1-0.3,0.2-0.5,0.2c-1.3,0-2.5,0-3.8,0c-0.2,0-0.4-0.2-0.4-0.4c0-0.1,0-0.3,0-0.4c0-0.4,0-0.9,0-1.3
			c0-54.8,0-109.7,0-164.5c0-0.6,0-1.2,0-1.8c0-0.2,0.2-0.4,0.4-0.4c0.3,0,0.6,0,0.9,0c4.4,0,8.9,0,13.4,0c0.3,0,0.6,0,0.9,0.1
			c0.1,0,0.2,0.2,0.3,0.3c0.1,0.1,0.1,0.3,0.1,0.4c0,0.6,0,1.2,0,1.8c0,57,0,114,0,171C155.3,240.4,155.3,297.6,155.3,354.8z
			 M156.3,6.7c-0.1,0.1-0.3,0.1-0.4,0.2c-0.1,0-0.3,0-0.4,0c-0.5,0-1,0-1.5,0c-47.9,0-95.8,0-143.6,0c-0.6,0-1.2,0-1.8,0
			c-0.1,0-0.2,0-0.3,0L4.5,3.1c0.1,0,0.1,0,0.2,0c0.4,0,0.9,0,1.3,0c25.2,0,50.5,0,75.7,0c25.3,0,50.7,0,76,0c0.5,0,1.1,0,1.6,0
			c0.1,0,0.1,0.1,0.2,0.2c0,0,0,0.1,0,0.1C158.5,4.6,157.4,5.6,156.3,6.7z M161.9,354.5c0,0.6,0,1.3,0,1.9c0,0.3-0.2,0.5-0.6,0.5
			c-0.9,0-1.8,0-2.6,0c-0.3,0-0.5-0.2-0.5-0.6c0-0.5,0-1.1,0-1.6c0-53.4,0-106.9,0-160.3c0-61.2,0-122.4,0-183.6c0-0.5,0-1.1,0-1.6
			c0-0.2,0.1-0.5,0.2-0.7c1-1,2.1-2,3.1-3.1c0.1-0.1,0.2-0.1,0.3,0c0,0,0.1,0.1,0.1,0.1c0,0.2,0,0.3,0,0.5c0,0.5,0,1,0,1.5
			c0,57.9,0,115.7,0,173.6C161.9,239,161.9,296.7,161.9,354.5z"/>
	</g>
</g>
</svg>
